<svg xmlns="http://www.w3.org/2000/svg" viewBox="0 0 554 15" fill="oklch(10% 0.07 257)" aria-hidden="true"><path d="M3.06979 0.355448C0.136453 0.888781 -0.663547 3.55545 0.536453 8.08878L1.46979 11.6888L44.1365 12.2221C162.936 13.4221 194.136 13.5554 194.67 12.6221C194.936 12.0888 198.936 11.9554 203.336 12.2221C209.736 12.6221 211.336 12.3554 210.536 11.0221C209.736 9.68878 209.87 9.68878 211.47 10.7554C215.203 13.6888 310.003 16.6221 310.003 13.6888C310.003 12.7554 310.536 12.7554 311.736 13.5554C313.47 14.8888 335.603 14.7554 350.67 13.2888C355.87 12.7554 361.336 12.3554 363.07 12.3554C364.67 12.3554 366.003 11.6888 366.003 11.0221C366.003 10.2221 366.803 10.3554 368.003 11.2888C369.47 12.4888 370.936 12.4888 374.536 11.2888C378.136 10.2221 379.736 10.2221 381.736 11.4221C383.87 12.7554 384.936 12.7554 386.27 11.5554C387.336 10.7554 390.136 10.2221 392.403 10.6221C394.67 10.8888 396.936 10.4888 397.47 9.82212C397.87 9.02212 398.803 9.02212 399.736 9.68878C400.67 10.3554 405.47 10.7554 410.403 10.7554C415.47 10.6221 419.87 11.0221 420.27 11.6888C420.67 12.2221 421.603 12.0888 422.536 11.4221C424.536 9.82212 436.803 9.82212 438.803 11.4221C439.736 12.2221 441.47 11.5554 443.336 9.95545C446.67 7.02212 448.003 6.48878 446.67 8.62212C446.27 9.42212 447.203 9.95545 448.936 9.95545C450.67 9.95545 452.936 10.7554 453.736 11.5554C455.07 12.8888 455.603 12.8888 456.536 11.5554C457.603 9.82212 462.67 9.82212 465.603 11.6888C466.536 12.3554 468.27 12.2221 469.47 11.5554C470.67 10.8888 472.803 10.6221 474.136 10.8888C475.603 11.2888 476.67 10.8888 476.67 9.95545C476.67 8.75545 477.47 8.88878 479.203 10.4888C480.536 11.8221 482.003 12.3554 482.403 11.6888C482.803 11.0221 486.67 10.6221 491.07 10.6221C495.47 10.6221 498.803 10.2221 498.403 9.55545C497.47 7.95545 501.336 8.48878 503.203 10.2221C504.67 11.5554 504.936 11.5554 504.136 10.2221C503.47 9.15545 504.136 8.62212 505.87 8.62212C507.47 8.62212 508.67 9.15545 508.67 9.82212C508.67 10.4888 511.47 10.7554 515.07 10.3554C518.536 10.0888 524.936 9.55545 529.336 9.28878C548.003 8.08878 552.803 7.55545 553.603 6.75545C554.136 6.35545 551.203 5.95545 547.203 5.82211C543.203 5.68878 536.003 5.55545 531.07 5.42211C526.003 5.28878 522.003 5.68878 522.003 6.35545C522.003 6.88878 521.336 7.02212 520.536 6.62212C518.136 5.02212 503.336 4.75545 503.336 6.08878C503.336 6.88878 502.67 7.02212 502.003 6.62212C500.003 5.28878 483.336 4.48878 483.336 5.68878C483.336 6.22211 481.87 6.75545 480.003 6.75545C478.136 6.88878 476.67 6.35545 476.67 5.42211C476.67 4.62211 476.003 4.88878 475.336 5.95545C474.27 7.55545 473.603 7.68878 471.336 6.22211C469.603 5.15545 467.736 5.02211 466.27 5.68878C463.47 7.02211 435.603 6.75545 432.27 5.28878C430.803 4.75545 429.203 4.88878 428.403 5.68878C427.47 6.62211 425.87 6.62211 424.003 5.95545C422.27 5.28878 419.736 5.15545 418.136 5.55545C416.403 5.95545 415.336 5.68878 415.336 4.75545C415.336 3.82211 414.67 3.55545 413.87 4.08878C411.47 5.55545 398.003 5.82211 398.003 4.35545C398.003 3.68878 397.336 3.55545 396.536 3.95545C395.736 4.48878 390.27 4.88878 384.27 4.88878C378.27 4.88878 372.803 5.42211 372.003 5.95545C371.336 6.48878 369.203 6.75545 367.336 6.62212C365.47 6.48878 363.203 6.88878 362.403 7.68878C361.47 8.35545 360.67 8.48878 360.67 7.82212C360.67 7.15545 353.336 6.62212 344.27 6.48878C335.336 6.48878 306.403 5.95545 280.003 5.42211C231.87 4.35545 198.136 3.95545 182.003 4.35545C175.336 4.48878 151.07 4.75545 138.67 4.88878C132.67 4.88878 95.4698 2.75545 82.6698 1.68878C67.7365 0.488781 7.73645 -0.577886 3.06979 0.355448Z"/></svg>
