<svg xmlns="http://www.w3.org/2000/svg" viewBox="0 0 667 28" fill="oklch(10% 0.07 257)" aria-hidden="true"><path d="M11.7613 1.82005C4.02799 4.08672 1.62799 6.75339 0.294659 14.3534C-0.372007 18.0867 0.0279928 19.5534 2.16133 21.5534C4.56133 23.8201 6.02799 23.8201 25.0947 22.2201C46.828 20.4867 73.0947 20.3534 130.161 21.5534C149.628 21.9534 166.161 22.3534 166.828 22.3534C190.428 22.3534 249.628 20.8867 251.361 20.2201C252.828 19.8201 254.295 20.0867 254.828 20.8867C255.228 21.6867 256.295 21.8201 257.228 21.2867C258.028 20.8867 271.228 20.6201 286.695 20.7534C302.161 20.8867 316.028 21.0201 317.495 20.8867C318.961 20.7534 320.828 20.7534 321.495 20.6201C322.295 20.6201 323.895 21.0201 325.228 21.5534C326.561 22.0867 327.495 21.9534 327.495 20.8867C327.495 20.0867 327.895 19.6867 328.561 19.9534C329.495 20.4867 345.895 21.4201 386.828 23.0201C409.095 23.9534 453.495 23.9534 472.161 22.8867C485.095 22.2201 546.695 22.2201 562.828 22.8867C567.228 23.1534 580.161 23.6867 591.495 24.0867C602.828 24.6201 617.895 25.1534 624.828 25.4201C631.761 25.6867 641.228 26.3534 645.761 26.8867C650.161 27.4201 656.161 27.4201 658.828 27.0201C663.095 26.2201 663.628 25.6867 662.961 22.8867C662.428 20.8867 662.828 19.5534 664.295 19.0201C665.361 18.6201 665.895 17.5534 665.361 16.7534C664.961 15.9534 665.228 14.8867 666.028 14.3534C669.095 12.3534 657.761 9.15338 637.495 6.22005C630.828 5.28672 591.228 3.02005 586.828 3.28672C586.161 3.28672 581.895 3.28672 577.495 3.15338C573.095 3.02005 549.095 3.15338 524.161 3.42005C499.228 3.55338 452.695 3.55338 420.828 3.42005C388.961 3.15338 331.095 3.15338 292.161 3.15338C253.361 3.28672 202.295 3.28672 178.828 3.28672C155.361 3.28672 134.961 3.42005 133.495 3.42005C123.095 3.55338 119.095 3.42005 111.495 2.88672C103.495 2.48672 92.1613 2.08672 38.1613 0.220052C22.6947 -0.313282 17.3613 0.0867183 11.7613 1.82005Z"/></svg>
