<svg xmlns="http://www.w3.org/2000/svg" viewBox="0 0 561 33" fill="oklch(10% 0.07 257)" aria-hidden="true"><path d="M1.13386 2.35101C-1.5328 6.48434 0.733863 14.4843 5.53386 17.6843C9.40053 20.2177 21.6672 20.351 155.801 18.6177C191.001 18.0843 220.467 17.8177 221.134 17.8177C221.934 17.951 224.734 18.351 227.534 18.751C230.601 19.2843 233.267 19.0177 234.467 17.951C235.801 16.751 236.467 16.751 236.467 17.8177C236.467 18.751 239.267 19.2843 243.534 19.2843C247.267 19.2843 255.001 19.951 260.467 20.751C265.934 21.4177 278.601 22.351 288.467 22.6177C298.334 23.0177 310.734 23.551 315.801 23.951C321.001 24.351 331.134 25.0177 338.467 25.2843C351.134 25.951 359.667 26.751 367.134 28.2177C374.334 29.551 452.601 32.2177 463.134 31.4177C465.001 31.2843 469.134 31.551 472.467 31.8177C475.801 32.0843 479.267 31.8177 480.067 31.0177C481.001 30.2177 482.867 30.0843 484.067 30.6177C487.801 32.0843 515.401 32.751 518.467 31.4177C524.067 29.0177 536.201 25.951 540.601 25.951C543.134 25.951 546.334 25.0177 547.667 23.951C549.134 22.8843 551.001 21.951 551.934 21.951C552.867 21.951 555.267 21.2843 557.401 20.4843C561.001 19.151 561.001 19.0177 558.601 17.2843C557.267 16.2177 555.534 15.6843 554.867 16.0843C554.067 16.6177 539.667 16.751 522.734 16.6177C505.667 16.4843 490.334 16.4843 488.467 16.4843C482.867 16.751 478.601 16.6177 474.867 16.0843C472.734 15.8177 471.534 16.2177 472.067 16.8843C472.467 17.6843 471.667 17.8177 469.934 17.2843C466.334 16.2177 444.067 15.2843 422.467 15.2843C413.667 15.2843 401.134 14.6177 394.467 13.951C387.934 13.151 369.934 11.6843 354.467 10.6177C339.134 9.41767 319.267 7.95101 310.467 7.28434C301.667 6.61767 287.934 5.68434 279.801 5.28434C271.801 4.88434 259.801 4.35101 253.134 3.95101C238.334 3.28434 179.267 1.68434 171.134 1.81767C167.801 1.81767 163.934 1.81767 162.467 1.81767C161.001 1.81767 125.401 1.55101 83.2672 1.28434C41.2672 1.01767 5.93386 0.484339 5.00053 0.0843387C3.93386 -0.315661 2.20053 0.751005 1.13386 2.35101Z"/></svg>
