<svg xmlns="http://www.w3.org/2000/svg" viewBox="0 0 390 40" fill="oklch(10% 0.07 257)" aria-hidden="true"><path d="M1.97988 3.15447C-0.420121 9.15447 -0.686788 26.4878 1.44655 29.8211C3.84655 33.5545 14.9132 35.5545 35.5799 36.2211C44.1132 36.4878 51.7132 37.0211 52.5132 37.5545C53.3132 37.9545 54.2465 37.9545 54.6465 37.2878C55.0465 36.6211 63.0466 36.3545 72.3799 36.6211C81.7132 36.7545 101.713 37.2878 116.78 37.5545C131.847 37.8211 146.247 38.4878 148.78 39.0211C153.713 40.2211 241.847 39.9545 243.713 38.8878C244.247 38.4878 255.047 38.2211 267.58 38.2211C280.113 38.2211 294.913 37.6878 300.513 37.0211C315.847 35.0211 347.18 33.0211 368.38 32.6211C372.113 32.6211 372.513 32.2211 372.513 28.7545C372.38 23.4211 373.713 22.7545 374.78 27.5545C375.313 29.8211 376.247 32.0878 377.047 32.4878C378.513 33.4211 378.38 31.9545 376.113 23.6878C375.447 21.2878 375.58 20.8878 376.513 22.2211C377.58 23.6878 377.98 23.4211 378.513 20.8878C379.047 17.8211 379.047 17.8211 379.313 20.6211C379.313 22.3545 380.113 23.6878 380.913 23.6878C381.713 23.6878 381.98 22.4878 381.447 20.6211C380.78 18.2211 380.913 18.0878 382.113 19.6878C383.313 21.1545 383.847 21.2878 384.38 19.9545C384.647 19.1545 386.247 18.3545 387.847 18.2211C390.647 18.2211 390.647 18.0878 388.247 17.1545C386.78 16.6211 383.047 16.3545 379.847 16.7545C376.38 17.0211 374.113 16.7545 374.113 15.8211C374.113 15.0211 375.047 14.7545 376.113 15.1545C377.18 15.6878 378.113 15.2878 378.113 14.3545C378.113 13.2878 376.913 13.0211 374.78 13.5545C372.913 14.0878 371.447 13.8211 371.447 13.1545C371.447 12.4878 369.847 11.9545 367.847 11.8211C365.713 11.8211 360.78 11.5545 356.78 11.1545C344.113 10.0878 317.847 9.95447 307.447 10.8878C286.247 12.7545 265.58 12.7545 261.98 10.8878C259.18 9.42114 252.247 9.28781 227.313 9.95447C185.313 11.1545 168.247 11.1545 159.447 9.95447C155.447 9.42114 147.98 8.35447 142.78 7.68781C131.58 6.22114 72.7799 4.35447 47.4465 4.8878C32.3799 5.02114 18.9132 4.35447 17.0465 3.15447C16.1132 2.62114 14.3799 1.95447 13.1799 1.6878C11.8465 1.42114 9.17988 0.887803 7.17988 0.35447C3.97988 -0.44553 3.31321 -0.0455302 1.97988 3.15447Z"/></svg>
