<svg xmlns="http://www.w3.org/2000/svg" fill="current" viewBox="0 0 24 24">
    <path
        d="M14.5 20.2h-.2zm-6.9 2 .2.1-.5-.2H7l-.6-.5-1.6-1.1c.6.4 0 0 0-.2h-.1l-.5-.5-.4-.5-.3-.3-.5-.6-.2-.3-.1-.2-.9-1.3c.3.2 0-.3 0-.3-.1-.1.2.4 0 .2l-.6-1.3-.5-1.7V13l-.1-.4v-2.1.2-.4l.2-.8.1-.6V9l.2-.6c-.2.5 0-.1 0-.2l.1-.2.2-.4.1-.2c.4-.8 0 0 0 0q.2-.2-.1.5l.1-.3.2-.4.3-.6q.2-.2-.2.5l.2-.3c.3-.5.1-.3.1-.4q.1-.2 0 0c.3-.5.2-.2.2-.2l.1-.2c.1 0 .2-.3 0 0l.3-.4.2-.1.1-.2.6-.7-.4.5c-.2.2.3-.4.2-.1l.2-.3.4-.3-.3.2.3-.3-.2.1.2-.2.4-.3c.1 0-.5.3.3-.3l-.3.2h.1l1-.7.7-.6.6-.4L7 2h.1l.7-.4.4-.2c.5-.2-.3 0-.1 0l.3-.2.6-.1-.5.2.6-.2h.2H9l.2-.1.2-.1s-.2.3.5 0l.2-.1h.3l.3-.1.4-.1c.2-.1 0 0 .4 0h.4-.3H13l-.6-.1h1-.3l1.6.3q.4.2.5.1 0 .2.1.1l.9.3.1.1h.1l.9.5-.3-.1.7.4.4.2-.7-.5.2.1 2.5 2-1.5-1-.3-.2 1.4 1v.1l.4.4h-.2l.3.1.7.9c.2 0-.3-.5-.3-.5l1 1.3.2.3.2.4-.1-.2-.1-.1-.1-.3h-.1l-.2-.3 1 1.7.2.8q.8 2.2.6 4.3c0 .3-.1.1-.2.5l.1-.3-.2 1.3v.3l-.1.4v.2h-.1l-.1.2c0 .1-.2.4-.1 0 .4-1.4 0-.3 0 .2l-.4.9H22l-.3.6.3-.6-.4.8c-.2.3.2-.5-.2 0-.2.5 0 .1 0 .3s-.4.5-.3.6H21l-.3.4-.3.3-.2.3.3-.2-.4.5.2-.2-.2.2v.1l-.1.2-.2.3.1-.3-.2.2.1-.2-.1.1.5-.7-.6.6v-.2l-.1.2.2-.3h-.2q.1-.1 0-.1l-.1.2.2-.3h-.2V19l.3-.3h-.1l-.3.2s.3-.3 0-.1h-.1c-.1.1 0-.2-.2.1.5-.5 0 0 0-.2l.3-.3-.2.1.1-.2-.2.3h-.2l.1-.2s.3-.3 0-.1q-.1 0 0-.1l-.4.3q.7-.7 0-.2l.2-.2q.2-.1 0-.2v.1c.2-.3 0 0-.1 0 0 0 .7-.8.7-1l.2-.4.3-.4.4-.7s-.2.3-.1 0l.1-.1q.7-1.5.8-3l-.1.7V12v.4-.9.1-.5h-.1v-.5q-.2.1 0 .2v.6l-.1-.6v1.7-1.2q0-.6-.2-1v-.6q-.2 0-.1-.2l-.1-.2-.2-.5-.3-.8v.2s-.3-.7-.3-.5l.2.4c0-.3-.9-1.4-1-1.4h.1l-.2-.3-.2-.2.1.2v-.1l.3.3q-.3 0-.4-.4l-.6-.5c-.2-.2.2.1 0 0-.2-.4 0-.1 0-.1-.2 0-.4-.4-.4-.3L17 5l-.4-.4.3.2.4.3c.2 0-.5-.4-.2-.3l-1-.7h-.2.1c0-.2-2-.9-2.4-.9h-1l-.3-.1h-1.8q-.4.2-.2.2-.5 0-.8.3h-.1l-.5.2.7-.3-.9.4-.4.2.5-.3v.1l-.6.3-.2.1c-.2 0 .3-.2.3-.2l-1.2.7-.4.4-.5.5.3-.2L6 6l.2-.2-.3.3.3-.4-.4.3v.1l-.1.1-.2.2q-.6.7 0 0l-.2.3v.1l-1 1V8l-.3.6q.2-.5 0 0v-.2l-.4.7-.1.4v.2l-.2.2v.5c.2-.6 0-.1 0 .1v.3c0-.6-.1.1-.1.3v1.4-.8 1.2-.2.1l-.1.2.1.5v-.2.4l.3.5V14l-.1-.1c-.2-.5 0 0 0-.1v-.2h-.1V13v.1l.2.6.1.3s0 .4.2.3l.1.5H4l.1.2v.1l.2.2c0 .3 0 .1.1.2l.5.8-.1-.1.1.2.2.3h.1l.3.5c.3.2-.2-.5-.2-.6l.3.4-.1-.1q0-.1 0 0l-.2-.2v-.1l.5.5.2.3.5.5q0 .1 0 0l.3.3c.2.3 1 .9 1.3 1l.4.2.6.3 1.2.4-.7-.1h.1l.4.1.1.1.4.1 1.6.3q-.2 0 0 0h.7l-.3-.1h.4s-.3 0 0 0h1l.5-.2h.1l.4-.1.6-.3.4-.2.5-.3h.1l-.3.3.4-.2c.4-.3.2 0 .2 0l.3-.2v.1h.1l-.3.1q.1.2.2 0v.1c.3-.1 0-.1.2-.2h.2l-.3.3.3-.3-.2.2h.1l.3-.2c-.4.4 0 .2 0 .2q-.1.1 0 0c-.1.2.2 0-.2.3l.3-.3h.3s.3-.2 0 0l-.5.5.7-.6h.1c.2 0-.4.4-.6.5h.2l-.2.1c.3-.2 0 0 0 .2q0-.2 0 0l.2-.2-.5.5.7-.6h-.1l.3-.3v-.1l.2-.1-.1.1h.1s.5-.3-.1.2c.4-.5 0-.1-.1 0q0 .2-.2.2l-.2.2s.3-.1-.2.2l.9-.6-.3.3-.5.4h.2l-.2.1.6-.4-.8.7.5-.3-.9.6c.8-.4-.2.3-.2.3l.4-.2c-.3.2-1.1.7-.6.5l-.3.2.5-.2-.4.2c-.7.4-.5.5-1.3.8q-1.3.4-2.8.5a7 7 0 0 1-2.4-.2h.1l-.8-.2.4.1-2.1-.7.1.1zm6.5-1.8h.3l.2-.2zm-8-2.8q.1.2 0 0m.1.2q.2.2.2 0zm5.3 2.7h-.2zM8 19.3l.5.3zm-2.8-2.7-.2-.2h.1zm-.8-1.3-.2-.2v-.4.3h.1v.2q.1.1 0 .1m9.3 5.2h.2zM5 16.2q-.2-.2 0 .1M9.3 20l.1.1zM6 17.5s-.3 0 0 .1l-.2-.3zM3.5 13v.3zM20 8.5q-.5-.9 0-.1zm-3.7-4h.3v.1zM4.9 16l-.3-.3zm.3.6-.1-.3zm13-10.8-.2-.2zm1.3 10.4.1-.3zm-.2-9.1q0 .2 0 0l.1.2zm0-.2h-.1m.8 8-.2.6-.1.2v-.2zm.5-1.3-.1.2q0-.2 0 0zm-.3 1-.1.2zm-1-7.6-.5-.6zM5.4 17q0 .2 0 0M16 4.2q-.5-.4.2 0c.5.4 0 0-.1 0m-1.5-.7.6.2H15zm1 .4.3.1zm5.3 8.5v.2zm-6.5 8.2.2-.1zM18 5.4l-.3-.2s.4.4.3.2m1.8 2.2-.1-.2zm-5 12.9.3-.2zM3.7 14v-.3l.2.7zm17.1-.9v.6zm0-.2v.2zm-1.6-6.2H19zl.3.5.2.3.5 1L20 8zm-5 13.9h.4zm6.6-10.2v-.2zM3.2 11.5c0-.2 0 .2 0 0m.7-2.7.1-.2zm2.7-3.3.3-.2zM21 12.4v.2q-.1 0 0-.1zm-4.7-8.1.3.1zm-1 16 .3-.2zM4.5 15.8l.1.3zm1.3-9.6L6 6zM3.5 9.6l.2-.5zm17.4 2v.4zM20.3 9q0-.2 0 0m-6 11.7h.3zM14 3.4h.5zM4.7 16.3l.2.1zm10-12.8.2.1zm4 2.6-.2-.1s.3.4.1 0M11 3.2h.4zM4.2 15.5l.2.3zm16.6-5.1V10zm-9.3-7.2h.3zM7 5l.3-.3h.2c.3-.3-1.2.8-.4.1zm-3.7 5v.2zm1.2-2.6v.2zM21 12v-.4l-.1-.7v.7zM4.2 15.6l.1.2zM4 8.3l.1-.2zm15 9.2q0 .1 0 0m1.4-2.2v-.2zM3 11.1v.2zm.1-.9V10zm2 6.9V17M20 15.8v.2zm-1 1.6.3-.4zm2-5.2V12zM5 16.7v.2zm-2-5v-.3zm1.3-4c-.3.3 0 .2 0 .2zM16 20h.1M3 12.8v-.6.3-.8zm.2-2.5-.1.3zm.7-2 .2-.3zm.8 8.2q0 .2 0 0m.3.5.3.4zm-.3-.3q.2.2.1 0m-.4-.7.2.3zm14.2 2.4-.1.1zm-1 1.7.2-.1zq0 .1.1 0m.4-.1.4-.4q-.1.3-.4.4m1.1-.5-.1.2q-.2 0 .1-.2m-.6.5-.1.2zm2-2q.2-.3 0-.1M19 19.7l.2-.1zm1.7-1.7q.1-.2 0-.2l-.2.4zm.4-.7q-.1-.1-.2.2zm.5-.9.2-.3zm.2-.1q0-.2 0 0m.3-.7q0-.1 0 0M21 17.9q0-.3 0 0v-.3l-.1.4h-.2l-.5.7.6-.7zm1.4-3.3q0-.2 0 0m-3 5-.6.7c.2-.3 0 0 0-.1l.1-.1.6-.6zm2.4-3q0-.2.2-.3c0-.3-.3.5-.5.6.5-.8-.4.5.1 0l-.1.2-.2.4zm-.6.8.2-.3zm-1 1.5.3-.4zm2.6-7v.3zm-3.5 8-.5.4zm.8-.8.5-.5.3-.4zm.5-.6.2-.3zm.5-.6.2-.4zm1.5-3.4.1-.4zM18 21.2l-.2.2zm3.1-3-.1.1-.3.3c.2-.2.4-.6.4-.4m1.7-3.8v.3zm-.7 1.9-.6 1.2q0-.2.3-.5zm-1 2-.5.6zm1.1-2-.1.2zm.6-1.8.1-.4s-.1.6 0 .4m0 .2.1-.3c0 .1-.2.8 0 .4m-2 3.6v.1zm2-5v-.5zm-5.2 8.3-.3.2-.3.2c.3-.3 0 0 0-.1zc.1-.2.8-.4.2 0m3-3.1-.3.4s.4-.6.4-.4M6 3l-.3.2zM4 4.6q-.2.3 0 .1zm11.4-3.3q-.3 0 0 0m-7.5.5-.2.1zm7.5-.5.2.1zm7 14.6.2-.5zM4.6 4.1l.1-.1zm16 .7q0 .2.1.1zm1 1.5c0-.1-.2-.5-.2-.3zm-4.2 15.5-.2.2zM14.1 1l-.4-.1zM5.2 3.5l-.3.3zm10.9-2h-.2zm-6.2-.4h-.2zm13.3 11.4v.4zm-5.1-10q-.2-.2-.2 0zM21 5.3l.3.5zm1 1.6.2.1zl.2.4.2.4.1.3.1.3.5 2-.3-1.2s-.2-.7 0-.2zM3.5 5.1l-.4.4zm1.9-2 .3-.2q.2 0 0 0l-.1.1-.3.3zl.6-.4-.7.6-.4.2-.2.2.2-.2.4-.4m.8-.6 1-.6h.3-.3l-.2.3-.4.1-.7.5zm13.3 1 .3.3zm-13 18.2c.2 0-.3-.4-.2-.2zm-2-1.7.2.1zM10.8.7h.3zm-8.2 17c.2.1-.3-.5-.2-.3zm-.6-1 .2.3zM16.2 1.4l.4.2zM13.8.7c1.7.3 1.3.3 0 0m2 .5h-.3zM7.2 22l-.4-.2zM11 .7l.5-.1zm7.3 1.7.4.3zm0 19.3H18c-.1.1.3-.1.2 0" />
    <path
        d="M15.5 13.6H15l-.1.1h-.4v.1h-1.3v.1h-.4q-.1 0 0 0h-.2v.1h-.2v-.1h-.1l-.1.1v-.1H12q-.2 0 0 0v.1-.1h-.7v.1q-.2 0 0 0h-.5q-.2 0-.1.1H9.2h.3-.3V14h-.4v.1h-.1.1l-.3-.1H7.3l-.1-.1q.2 0 0 0H7v-.2h-.5l-.1.1v.1h-.1v-.1l.2-.1h-.2v-.6h.1v-1.2q.1-.2.3-.1h.9-.1.2v-.1H8v-.1h-.4l.2-.1h1.8-.1q0 .1-.1 0v.2h.9v-.1h.4l.1.1.2-.1h.3-.1.6v-.1h-.1.1v.1h.1q.2-.2 0 0l.1-.1h.5q-.1 0 0 0h.3v-.1h.4l.1-.1v.2h.3v-.1h-.1l.1-.1h.2v-.1h.5l-.1-.1V11h.1l.2-.1h.4v-.1h.4-.1.7l-.1-.1h.8v.1h.1v.1l.1.2h.1v.4h.1v.1l.1.1v.2h.1-.1v.3-.1h.1V12q.1 0 0 .1v.1h.1v.1h-.1v.1h.1l-.2.1h.1l-.1.1v.2q-.1 0 0 .2H17q0 .2-.2.3h-.4q0 .3-.3.2h-.2zm.6-3q0-.1 0 0m-7.6.9q.3 0 0 0m.4.1h-.4zm3.8-.1q0-.1.1 0m-3.7.1h.1m4.9-.3q.1 0 0 0m-2.3.3s.3 0 0 0m.7-.1q0 .2 0 0m1.1.1h-.2.3m3.6.2h.2zM7 13.4q0-.2 0 0m.1 0q.1 0 0 0m-.2.2h-.2zm0-.1q0-.2 0 0m-.3.1H7zm.4.2h-.2zm10.1-.8H17q.2 0 0 0M6.7 14h-.1m.4.1h.2zm3.9 0q0-.1 0 0m-2.3 0H8zm2.9 0h-.2zm-1.2.1q-.4 0 0 0m6.9-.9" />
    <path
        d="m14 14.3.1-.2.2-.2h.1v-.2h.2q-.2 0 0-.2v-.2l.3-.3h.1v-.2l.3-.2v-.1l.1-.1.2-.3V12l.1-.1v-.1l.1-.1q0-.2 0 0 .2 0 0 0h.1v-.2q.2 0 0 .1h.1v-.1q0-.2 0 0v-.1h.1q0-.2 0 0v-.2l.1-.1.1.1.2 1.6-.2-1.7.2 1.7q-.2 0 0 0l-.1-.2q0 .2-.2 0l.1.1-.1-.3h-.1l-.1-.2h-.1l-.1-.1h-.1l-.1-.1v-.1h-.1q.2 0 0 0v-.1h-.1q-.1-.2-.1 0v-.2H15v-.1h-.2.1l-.2-.2v-.1l-.2-.2-.1-.1v-.1l-.1-.1v.1l-.4-.4.3.2-.2-.2v-.1l-.1-.2v.2l-.2-.2V10h-.1v-.1.1h.1l-.3-.3-.6-.7-.2-.2h-.1v-.2q.2.1 0 0v-.2l-.1-.2v.1-.1h-.2V8h-.5v-.1h.2v-.2l.1-.1h.1v-.1h.1v-.1h.1v-.1l.2-.1V7h.2v-.1h.1v-.1h.1v-.2h.3v-.1l.2.2h.2v.1l.1.1.6.6-.1-.2.2.2h.1v.1h.2-.1.1l-.1-.1v-.1q-.1.1-.1-.1h.1v.1l.3.3v.1h.1l.1.1.1.2h.2-.1l.3.2v.1l.3.2h-.1q0 .1.1 0v.2q.2 0 .1.1l-.1-.1.1.3h.1l.4.5h.2v.2l.2.2v.1h.2l.2.2v.1l-.1-.1.1.1.1.1v-.1.1h.1q0 .2.2.2v.1h.1l.1.1v-.1l.1.1v.1h.1l.2 1.4q0 .2 0 0l-.1-1.4.1 1.5v.1l-.2.3-.1.1h-.2v.2l-.1.2v.1h-.1v.1l-.1.1v.1h-.1l.1-.1v.2h-.3v.1l-.1.1h.1q0-.2 0 0V14v.2q-.2 0 0 .1H17v.3l-.1.2h-.1l-.1.2h.2v.1l-.2.3-.3.4-.1.2-.2.3v-.2.1l-.1.1-.3.3v.2h-.1v.1h-.2v.2h-.1l-.2.2v.1l-.2.1v-.1h-.4v-.1q-.1 0 0 0h-.2v-.1h-.2V17h-.3v-.1.1h-.1v-.4l-.2.2v.1h.1-.1v-.2h-.1v-.2h-.1v-.3h-.1V16h-.1v-.4l.6-.8v-.1zm1.5 2.8-.1.1zm1.5-2.5h.1l.1-.1v.1zm-1.5 2.3v.1m1.3-1.8v.1M15.3 8q0 .2 0 0m1 1h-.1m-.8-.7.2.1zm.8.7q0 .2 0 0-.1 0 0 0m.3.3q0 .1-.2 0zm.6 4.9v.1m-1.7-5.8-.2-.1zm2.3 4.9.1-.1m0-2.5c0-.1.2.2 0 0m-3.4-3.3v.1s.3.3.2 0h-.2m2.8 6.3.1-.2zM12.3 8v-.2h-.2zm.2.2q.1 0 0-.1c.1.1 0-.2 0 0h-.2zm-.4-.4V8h.1zm.3.6.2.2zm0 0-.2-.2h.1zm.6 7.7q.2 0 0 0-.1 0 0 0m3.5-3.4-.1-1.5zm-2.7-2.5V10m-.2-.3-.3-.4.2.2zm2.5 2.7h.1v.1m-.1-.2-.2-.1v-.1h.1zm-1.1-1q-.3-.3 0 0M12.7 16" />
</svg>