<svg xmlns="http://www.w3.org/2000/svg" width="130" height="48" viewBox="0 0 130 48"><g fill="none" fill-rule="evenodd"><path fill="#E90E0C" d="M2,48 L128,48 C129.104569,48 130,47.1045695 130,46 L130,2 C130,0.8954305 129.104569,-2.02906125e-16 128,0 L2,0 C0.8954305,2.02906125e-16 -1.3527075e-16,0.8954305 0,2 L0,46 C1.3527075e-16,47.1045695 0.8954305,48 2,48 Z"/><path fill="#FCF388" d="M16.474 13.3272 18.82 13.3272C18.744 14.1832 18.542 15.0032 18.234 15.7712L16.474 13.3272ZM2.16 15.4072C1.848 14.5192 1.678 13.5632 1.678 12.5692 1.678 8.9812 3.888 5.9012 7.02 4.6192L2.16 15.4072ZM9.154 13.3272 14.606 13.3272 16.88 16.4852 9.154 16.4852 9.154 13.3272ZM7.638 11.8112 7.638 16.4852 3.338 16.4852 7.638 6.9372 7.638 11.8112ZM9.154 5.7572 13.516 11.8112 9.154 11.8112 9.154 5.7572ZM10.266 3.9792C14.746 3.9792 18.434 7.4292 18.82 11.8112L15.382 11.8112 9.754 3.9952C9.924 3.9872 10.094 3.9792 10.266 3.9792L10.266 3.9792ZM3.616 18.0012 7.638 18.0012 7.638 20.7452C6.046 20.2332 4.654 19.2672 3.616 18.0012L3.616 18.0012ZM10.266 21.1592C9.888 21.1592 9.518 21.1312 9.154 21.0832L9.154 18.0012 16.914 18.0012C15.338 19.9272 12.942 21.1592 10.266 21.1592L10.266 21.1592ZM10.266 2.4632C4.692 2.4632.16 6.9972.16 12.5692.16 18.1412 4.692 22.6752 10.266 22.6752 15.838 22.6752 20.37 18.1412 20.37 12.5692 20.37 6.9972 15.838 2.4632 10.266 2.4632L10.266 2.4632ZM79.7192 9.5714 80.6392 9.3734 80.6392 4.9594 79.6212 4.7614 79.6212 3.6054 82.4292 3.6054 82.5152 4.6434C82.6812 4.2754 82.8972 3.9874 83.1592 3.7814 83.4232 3.5754 83.7272 3.4714 84.0732 3.4714 84.1752 3.4714 84.2812 3.4794 84.3932 3.4954 84.5052 3.5114 84.5972 3.5294 84.6732 3.5514L84.4692 5.3014 83.6792 5.2814C83.3992 5.2814 83.1672 5.3374 82.9812 5.4454 82.7972 5.5554 82.6572 5.7114 82.5612 5.9134L82.5612 9.3734 83.4812 9.5714 83.4812 10.7214 79.7192 10.7214 79.7192 9.5714ZM75.5252 4.9514C75.1712 4.9514 74.8892 5.0894 74.6832 5.3614 74.4772 5.6314 74.3492 5.9894 74.3032 6.4334L74.3212 6.4654 76.6772 6.4654 76.6772 6.2934C76.6772 5.8854 76.5812 5.5614 76.3912 5.3174 76.1992 5.0734 75.9112 4.9514 75.5252 4.9514L75.5252 4.9514ZM75.6972 10.8614C74.6712 10.8614 73.8492 10.5314 73.2372 9.8734 72.6232 9.2154 72.3152 8.3794 72.3152 7.3654L72.3152 7.1054C72.3152 6.0454 72.6052 5.1774 73.1872 4.4914 73.7672 3.8074 74.5472 3.4674 75.5252 3.47136512 76.4852 3.47136512 77.2312 3.7614 77.7612 4.3414 78.2932 4.9194 78.5592 5.7014 78.5592 6.6894L78.5592 7.7354 74.3092 7.7354 74.2952 7.7754C74.3312 8.2454 74.4872 8.6294 74.7652 8.9334 75.0452 9.2354 75.4232 9.3854 75.9012 9.3854 76.3252 9.3854 76.6792 9.3454 76.9612 9.2594 77.2412 9.1734 77.5472 9.0374 77.8812 8.8554L78.4012 10.0374C78.1072 10.2714 77.7252 10.4654 77.2592 10.6234 76.7932 10.7814 76.2712 10.8614 75.6972 10.8614L75.6972 10.8614ZM66.3472 7.3614C66.3472 7.9834 66.4532 8.4734 66.6632 8.8314 66.8752 9.1894 67.2172 9.3654 67.6892 9.3654 67.9832 9.3654 68.2332 9.3134 68.4372 9.2054 68.6412 9.0994 68.8032 8.9434 68.9272 8.7354L68.9272 5.6434C68.8032 5.4294 68.6412 5.2614 68.4372 5.1434 68.2332 5.0254 67.9872 4.9654 67.7032 4.9654 67.2332 4.9654 66.8912 5.1754 66.6732 5.5914 66.4572 6.0074 66.3472 6.5514 66.3472 7.2214L66.3472 7.3614ZM64.4272 7.2214C64.4272 6.0994 64.6712 5.1954 65.1612 4.5054 65.6492 3.8174 66.3352 3.4714 67.2172 3.4714 67.6152 3.4714 67.9672 3.5614 68.2692 3.7394 68.5712 3.9174 68.8312 4.1694 69.0452 4.4994L69.1832 3.6054 70.8552 3.6054 70.8552 10.5114C70.8552 11.4494 70.5592 12.1974 69.9692 12.7594 69.3792 13.3174 68.5692 13.5974 67.5392 13.5974 67.1792 13.5974 66.7972 13.5474 66.3932 13.4474 65.9912 13.3514 65.6172 13.2154 65.2752 13.0434L65.6312 11.6954C65.9372 11.8274 66.2452 11.9314 66.5532 12.0094 66.8592 12.0854 67.1832 12.1234 67.5252 12.1234 67.9952 12.1234 68.3452 11.9814 68.5792 11.6954 68.8112 11.4114 68.9272 11.0154 68.9272 10.5054L68.9272 10.0374C68.7172 10.3054 68.4692 10.5094 68.1832 10.6494 67.8972 10.7894 67.5712 10.8614 67.2032 10.8614 66.3312 10.8614 65.6492 10.5394 65.1612 9.8974 64.6712 9.2554 64.4272 8.4094 64.4272 7.3614L64.4272 7.2214ZM59.5872 9.4394C59.8772 9.4394 60.1392 9.3754 60.3772 9.2514 60.6132 9.1254 60.7972 8.9694 60.9292 8.7814L60.9292 7.6974 59.9492 7.6974C59.5412 7.6974 59.2312 7.7914 59.0212 7.9814 58.8112 8.1734 58.7052 8.4014 58.7052 8.6694 58.7052 8.9114 58.7832 9.0994 58.9392 9.2354 59.0932 9.3714 59.3112 9.4394 59.5872 9.4394L59.5872 9.4394ZM61.2512 10.7214C61.1992 10.6054 61.1532 10.4814 61.1132 10.3574 61.0732 10.2314 61.0432 10.1074 61.0212 9.9794 60.7932 10.2414 60.5152 10.4534 60.1892 10.6154 59.8612 10.7794 59.4892 10.8614 59.0672 10.8614 58.3692 10.8614 57.8152 10.6714 57.4052 10.2914 56.9952 9.9114 56.7912 9.3954 56.7912 8.7414 56.7912 8.0754 57.0572 7.5594 57.5932 7.1974 58.1292 6.8314 58.9132 6.6494 59.9492 6.6494L60.9292 6.6494 60.9292 5.9514C60.9292 5.6114 60.8312 5.3454 60.6332 5.1574 60.4352 4.9674 60.1432 4.8734 59.7592 4.8734 59.5392 4.8734 59.3432 4.8994 59.1732 4.9474 59.0012 4.9994 58.8632 5.0594 58.7592 5.1294L58.6332 5.8934 57.1852 5.8934 57.1912 4.3134C57.5432 4.0774 57.9452 3.8774 58.3992 3.7154 58.8532 3.5534 59.3472 3.4714 59.8832 3.4714 60.7652 3.4714 61.4812 3.6894 62.0312 4.1194 62.5812 4.5514 62.8572 5.1674 62.8572 5.9654L62.8572 8.9074C62.8572 9.0174 62.8572 9.1194 62.8592 9.2154 62.8612 9.3114 62.8692 9.4034 62.8832 9.4914L63.4692 9.5714 63.4692 10.7214 61.2512 10.7214ZM51.9092 1.6154 51.9092.4594 54.8572.4594 54.8572 9.3734 55.7852 9.5714 55.7852 10.7214 52.0092 10.7214 52.0092 9.5714 52.9352 9.3734 52.9352 1.8134 51.9092 1.6154ZM49.5312 1.8614 49.5312 3.6054 50.7812 3.6054 50.7812 4.9514 49.5312 4.9514 49.5312 8.5774C49.5312 8.8554 49.5892 9.0514 49.7032 9.1694 49.8172 9.2874 49.9692 9.3474 50.1632 9.3474 50.2952 9.3474 50.4092 9.3414 50.5092 9.3314 50.6072 9.3194 50.7192 9.3014 50.8412 9.2754L51.0052 10.6634C50.7912 10.7294 50.5772 10.7794 50.3672 10.8114 50.1572 10.8454 49.9272 10.8614 49.6832 10.8614 49.0212 10.8614 48.5112 10.6794 48.1532 10.3134 47.7972 9.9494 47.6172 9.3734 47.6172 8.5854L47.6172 4.9514 46.5712 4.9514 46.5712 3.6054 47.6172 3.6054 47.6172 1.8614 49.5312 1.8614ZM42.1832 1.6154 42.1832.4594 45.1312.4594 45.1312 9.3734 46.0572 9.5714 46.0572 10.7214 42.2812 10.7214 42.2812 9.5714 43.2092 9.3734 43.2092 1.8134 42.1832 1.6154ZM38.2172 4.9514C37.8612 4.9514 37.5812 5.0894 37.3752 5.3614 37.1672 5.6314 37.0412 5.9894 36.9932 6.4334L37.0112 6.4654 39.3672 6.4654 39.3672 6.2934C39.3672 5.8854 39.2712 5.5614 39.0812 5.3174 38.8892 5.0734 38.6012 4.9514 38.2172 4.9514L38.2172 4.9514ZM38.3872 10.8614C37.3612 10.8614 36.5412 10.5314 35.9272 9.8734 35.3132 9.2154 35.0052 8.3794 35.0052 7.3654L35.0052 7.1054C35.0052 6.0454 35.2972 5.1774 35.8772 4.4914 36.4592 3.8074 37.2372 3.4674 38.2172 3.47136512 39.1772 3.47136512 39.9232 3.7614 40.4532 4.3414 40.9832 4.9194 41.2492 5.7014 41.2492 6.6894L41.2492 7.7354 36.9992 7.7354 36.9852 7.7754C37.0212 8.2454 37.1772 8.6294 37.4572 8.9334 37.7352 9.2354 38.1132 9.3854 38.5912 9.3854 39.0152 9.3854 39.3692 9.3454 39.6512 9.2594 39.9312 9.1734 40.2372 9.0374 40.5712 8.8554L41.0912 10.0374C40.7972 10.2714 40.4172 10.4654 39.9492 10.6234 39.4832 10.7814 38.9612 10.8614 38.3872 10.8614L38.3872 10.8614ZM33.6952 1.1434 33.6952 2.1054 29.0052 9.2494 32.3412 9.2494 32.4992 8.0914 33.9592 8.0914 33.8132 10.7214 26.6632 10.7214 26.6632 9.7214 31.3352 2.6234 28.2892 2.6234 28.1372 3.7814 26.6692 3.7814 26.8132 1.1434 33.6952 1.1434ZM96.5082 20.8332C96.5082 21.4572 96.6142 21.9472 96.8242 22.3032 97.0342 22.6612 97.3762 22.8412 97.8502 22.8412 98.1442 22.8412 98.3922 22.7872 98.5962 22.6792 98.8002 22.5712 98.9642 22.4152 99.0882 22.2072L99.0882 19.1172C98.9642 18.9012 98.8002 18.7352 98.5962 18.6172 98.3922 18.4992 98.1482 18.4392 97.8642 18.4392 97.3942 18.4392 97.0502 18.6472 96.8342 19.0632 96.6162 19.4812 96.5082 20.0252 96.5082 20.6972L96.5082 20.8332ZM94.5882 20.6972C94.5882 19.5732 94.8322 18.6672 95.3202 17.9792 95.8102 17.2912 96.4942 16.9472 97.3762 16.9472 97.7762 16.9472 98.1262 17.0352 98.4282 17.2112 98.7322 17.3892 98.9902 17.6432 99.2062 17.9712L99.3422 17.0772 101.0142 17.0772 101.0142 23.9852C101.0142 24.9232 100.7182 25.6732 100.1302 26.2312 99.5402 26.7912 98.7302 27.0712 97.6982 27.0712 97.3402 27.0712 96.9582 27.0212 96.5542 26.9232 96.1502 26.8232 95.7782 26.6892 95.4362 26.5192L95.7922 25.1692C96.0982 25.3012 96.4042 25.4052 96.7122 25.4812 97.0182 25.5592 97.3422 25.5972 97.6862 25.5972 98.1542 25.5972 98.5062 25.4552 98.7382 25.1692 98.9702 24.8832 99.0882 24.4872 99.0882 23.9792L99.0882 23.5112C98.8762 23.7792 98.6282 23.9832 98.3422 24.1252 98.0582 24.2652 97.7322 24.3332 97.3642 24.3332 96.4902 24.3332 95.8102 24.0132 95.3202 23.3712 94.8322 22.7272 94.5882 21.8812 94.5882 20.8332L94.5882 20.6972ZM88.8082 23.0432 89.7282 22.8472 89.7282 18.4332 88.7102 18.2352 88.7102 17.0772 91.5182 17.0772 91.6042 18.1172C91.7702 17.7492 91.9862 17.4612 92.2482 17.2552 92.5102 17.0492 92.8162 16.9472 93.1622 16.9472 93.2642 16.9472 93.3702 16.9552 93.4822 16.9692 93.5942 16.9832 93.6862 17.0032 93.7602 17.0252L93.5582 18.7752 92.7682 18.7552C92.4882 18.7552 92.2562 18.8092 92.0702 18.9192 91.8862 19.0292 91.7462 19.1852 91.6502 19.3852L91.6502 22.8472 92.5702 23.0432 92.5702 24.1972 88.8082 24.1972 88.8082 23.0432ZM84.6142 18.4272C84.2582 18.4272 83.9782 18.5612 83.7722 18.8352 83.5662 19.1072 83.4382 19.4632 83.3902 19.9072L83.4102 19.9392 85.7662 19.9392 85.7662 19.7692C85.7662 19.3612 85.6702 19.0352 85.4802 18.7912 85.2882 18.5472 85.0002 18.4272 84.6142 18.4272L84.6142 18.4272ZM84.7862 24.3332C83.7582 24.3332 82.9382 24.0052 82.3262 23.3472 81.7122 22.6892 81.4042 21.8552 81.4042 20.8412L81.4042 20.5772C81.4042 19.5212 81.6942 18.6492 82.2762 17.9652 82.8562 17.2832 83.6362 16.9432 84.6142 16.9471651 85.5742 16.9471651 86.3202 17.2352 86.8502 17.8132 87.3822 18.3932 87.6482 19.1772 87.6482 20.1632L87.6482 21.2072 83.3982 21.2072 83.3842 21.2492C83.4202 21.7172 83.5762 22.1052 83.8542 22.4072 84.1342 22.7072 84.5102 22.8612 84.9902 22.8612 85.4142 22.8612 85.7682 22.8172 86.0502 22.7312 86.3302 22.6452 86.6362 22.5112 86.9702 22.3272L87.4902 23.5112C87.1962 23.7432 86.8142 23.9392 86.3482 24.0972 85.8822 24.2552 85.3602 24.3332 84.7862 24.3332L84.7862 24.3332ZM78.3062 20.6972C78.3062 20.0032 78.2042 19.4552 78.0002 19.0472 77.7962 18.6412 77.4482 18.4392 76.9582 18.4392 76.6582 18.4392 76.4062 18.5012 76.2002 18.6252 75.9942 18.7512 75.8322 18.9312 75.7142 19.1632L75.7142 22.1692C75.8322 22.3892 75.9962 22.5552 76.2042 22.6692 76.4122 22.7852 76.6682 22.8412 76.9702 22.8412 77.4662 22.8412 77.8122 22.6672 78.0102 22.3172 78.2082 21.9692 78.3062 21.4732 78.3062 20.8332L78.3062 20.6972ZM80.2202 20.8332C80.2202 21.8952 79.9842 22.7432 79.5102 23.3792 79.0362 24.0172 78.3522 24.3332 77.4582 24.3332 77.0402 24.3332 76.6782 24.2472 76.3722 24.0732 76.0642 23.9012 75.8062 23.6492 75.5942 23.3212L75.4582 24.1972 73.8002 24.1972 73.8002 15.2892 72.7802 15.0912 72.7802 13.9332 75.7142 13.9332 75.7142 17.8352C75.9202 17.5492 76.1662 17.3292 76.4542 17.1772 76.7402 17.0232 77.0702 16.9472 77.4442 16.9472 78.3462 16.9472 79.0362 17.2872 79.5102 17.9692 79.9842 18.6512 80.2202 19.5592 80.2202 20.6972L80.2202 20.8332ZM72.0242 19.5252 70.7362 19.5252 70.5322 18.6352C70.4002 18.5332 70.2342 18.4452 70.0342 18.3752 69.8362 18.3032 69.6142 18.2692 69.3742 18.2692 69.0362 18.2692 68.7682 18.3452 68.5702 18.4952 68.3742 18.6472 68.2742 18.8372 68.2742 19.0632 68.2742 19.2792 68.3702 19.4592 68.5582 19.6012 68.7462 19.7432 69.1242 19.8712 69.6882 19.9792 70.5702 20.1532 71.2242 20.4112 71.6502 20.7512 72.0762 21.0912 72.2882 21.5592 72.2882 22.1572 72.2882 22.7952 72.0122 23.3192 71.4622 23.7252 70.9122 24.1312 70.1862 24.3332 69.2882 24.3332 68.7402 24.3332 68.2362 24.2532 67.7782 24.0952 67.3202 23.9352 66.9142 23.7052 66.5582 23.4072L66.5382 21.8072 67.8802 21.8072 68.1422 22.7352C68.2582 22.8312 68.4142 22.9032 68.6102 22.9492 68.8082 22.9952 69.0142 23.0192 69.2282 23.0192 69.6202 23.0192 69.9162 22.9492 70.1202 22.8072 70.3242 22.6672 70.4262 22.4752 70.4262 22.2352 70.4262 22.0252 70.3222 21.8432 70.1162 21.6892 69.9102 21.5372 69.5322 21.3992 68.9782 21.2832 68.1402 21.1112 67.5082 20.8572 67.0802 20.5212 66.6522 20.1872 66.4382 19.7292 66.4382 19.1492 66.4382 18.5532 66.6842 18.0412 67.1762 17.6072 67.6682 17.1752 68.3662 16.9592 69.2742 16.9592 69.8282 16.9592 70.3502 17.0352 70.8442 17.1832 71.3382 17.3312 71.7242 17.5232 72.0062 17.7552L72.0242 19.5252ZM60.4742 23.0432 61.3942 22.8472 61.3942 18.4332 60.3762 18.2352 60.3762 17.0772 63.1842 17.0772 63.2702 18.1172C63.4362 17.7492 63.6522 17.4612 63.9142 17.2552 64.1762 17.0492 64.4822 16.9472 64.8282 16.9472 64.9302 16.9472 65.0362 16.9552 65.1482 16.9692 65.2602 16.9832 65.3522 17.0032 65.4262 17.0252L65.2242 18.7752 64.4342 18.7552C64.1542 18.7552 63.9222 18.8092 63.7362 18.9192 63.5522 19.0292 63.4122 19.1852 63.3162 19.3852L63.3162 22.8472 64.2362 23.0432 64.2362 24.1972 60.4742 24.1972 60.4742 23.0432ZM56.2802 18.4272C55.9242 18.4272 55.6442 18.5612 55.4382 18.8352 55.2322 19.1072 55.1042 19.4632 55.0562 19.9072L55.0762 19.9392 57.4322 19.9392 57.4322 19.7692C57.4322 19.3612 57.3362 19.0352 57.1462 18.7912 56.9542 18.5472 56.6662 18.4272 56.2802 18.4272L56.2802 18.4272ZM56.4522 24.3332C55.4242 24.3332 54.6042 24.0052 53.9922 23.3472 53.3782 22.6892 53.0702 21.8552 53.0702 20.8412L53.0702 20.5772C53.0702 19.5212 53.3602 18.6492 53.9422 17.9652 54.5222 17.2832 55.3022 16.9432 56.2802 16.9471651 57.2402 16.9471651 57.9862 17.2352 58.5162 17.8132 59.0482 18.3932 59.3142 19.1772 59.3142 20.1632L59.3142 21.2072 55.0642 21.2072 55.0502 21.2492C55.0862 21.7172 55.2422 22.1052 55.5202 22.4072 55.8002 22.7072 56.1762 22.8612 56.6562 22.8612 57.0802 22.8612 57.4342 22.8172 57.7162 22.7312 57.9962 22.6452 58.3022 22.5112 58.6362 22.3272L59.1562 23.5112C58.8622 23.7432 58.4802 23.9392 58.0142 24.0972 57.5482 24.2552 57.0262 24.3332 56.4522 24.3332L56.4522 24.3332ZM50.7722 15.3352 50.7722 17.0772 52.0222 17.0772 52.0222 18.4272 50.7722 18.4272 50.7722 22.0512C50.7722 22.3272 50.8282 22.5252 50.9422 22.6432 51.0562 22.7612 51.2102 22.8212 51.4042 22.8212 51.5342 22.8212 51.6502 22.8152 51.7482 22.8032 51.8462 22.7932 51.9582 22.7752 52.0822 22.7492L52.2462 24.1352C52.0302 24.2032 51.8182 24.2512 51.6082 24.2852 51.3962 24.3172 51.1682 24.3332 50.9242 24.3332 50.2602 24.3332 49.7522 24.1512 49.3942 23.7892 49.0362 23.4252 48.8582 22.8472 48.8582 22.0572L48.8582 18.4272 47.8102 18.4272 47.8102 17.0772 48.8582 17.0772 48.8582 15.3352 50.7722 15.3352ZM43.4102 15.0912 43.4102 13.9332 46.3582 13.9332 46.3582 22.8472 47.2862 23.0432 47.2862 24.1972 43.5082 24.1972 43.5082 23.0432 44.4362 22.8472 44.4362 15.2892 43.4102 15.0912ZM38.6642 22.9132C38.9522 22.9132 39.2162 22.8512 39.4522 22.7252 39.6902 22.6012 39.8742 22.4452 40.0062 22.2552L40.0062 21.1692 39.0242 21.1692C38.6182 21.1692 38.3082 21.2652 38.0962 21.4572 37.8862 21.6452 37.7822 21.8752 37.7822 22.1432 37.7822 22.3832 37.8602 22.5732 38.0142 22.7072 38.1702 22.8452 38.3862 22.9132 38.6642 22.9132L38.6642 22.9132ZM40.3282 24.1972C40.2742 24.0772 40.2282 23.9572 40.1902 23.8312 40.1502 23.7072 40.1202 23.5792 40.0962 23.4532 39.8702 23.7152 39.5922 23.9292 39.2642 24.0912 38.9382 24.2532 38.5642 24.3332 38.1422 24.3332 37.4462 24.3332 36.8922 24.1432 36.4822 23.7652 36.0722 23.3852 35.8682 22.8692 35.8682 22.2152 35.8682 21.5492 36.1342 21.0352 36.6702 20.6692 37.2042 20.3052 37.9902 20.1252 39.0242 20.1252L40.0062 20.1252 40.0062 19.4272C40.0062 19.0852 39.9062 18.8192 39.7102 18.6292 39.5122 18.4432 39.2202 18.3472 38.8342 18.3472 38.6142 18.3472 38.4202 18.3732 38.2482 18.4232 38.0782 18.4732 37.9402 18.5352 37.8342 18.6052L37.7102 19.3672 36.2622 19.3672 36.2682 17.7892C36.6202 17.5512 37.0222 17.3532 37.4762 17.1892 37.9302 17.0272 38.4242 16.9472 38.9602 16.9472 39.8422 16.9472 40.5562 17.1612 41.1062 17.5952 41.6582 18.0272 41.9322 18.6412 41.9322 19.4392L41.9322 22.3792C41.9322 22.4892 41.9342 22.5932 41.9362 22.6892 41.9382 22.7872 41.9462 22.8772 41.9602 22.9652L42.5442 23.0432 42.5442 24.1972 40.3282 24.1972ZM29.4862 19.9592 29.4862 22.7212 31.2562 22.7212C31.7642 22.7212 32.1522 22.6132 32.4202 22.3892 32.6862 22.1692 32.8202 21.8412 32.8202 21.4072 32.8202 20.9372 32.7062 20.5792 32.4782 20.3312 32.2502 20.0832 31.8902 19.9592 31.4002 19.9592L29.4862 19.9592ZM29.4862 18.6292 30.8662 18.6292C31.3802 18.6292 31.7742 18.5252 32.0502 18.3132 32.3282 18.1052 32.4662 17.7952 32.4662 17.3932 32.4662 16.9512 32.3262 16.6252 32.0482 16.4132 31.7682 16.2032 31.3542 16.0972 30.8002 16.0972L29.4862 16.0972 29.4862 18.6292ZM30.8002 14.6172C31.9282 14.6172 32.8082 14.8372 33.4382 15.2752 34.0702 15.7132 34.3862 16.3712 34.3862 17.2412 34.3862 17.6852 34.2682 18.0812 34.0342 18.4292 33.8002 18.7792 33.4602 19.0412 33.0122 19.2152 33.5862 19.3392 34.0162 19.6032 34.3042 20.0052 34.5922 20.4092 34.7362 20.8752 34.7362 21.4072 34.7362 22.3232 34.4322 23.0172 33.8282 23.4892 33.2222 23.9592 32.3642 24.1972 31.2562 24.1972L26.5442 24.1972 26.5442 23.0432 27.5642 22.8472 27.5642 15.9712 26.5442 15.7752 26.5442 14.6172 27.5642 14.6172 30.8002 14.6172Z" transform="translate(11 11)"/></g></svg>