<?xml version="1.0" encoding="UTF-8"?>
<svg width="130px" height="48px" viewBox="0 0 130 48" version="1.1" xmlns="http://www.w3.org/2000/svg" xmlns:xlink="http://www.w3.org/1999/xlink">
    <!-- Generator: Sketch 52.6 (67491) - http://www.bohemiancoding.com/sketch -->
    <title>bb-logo</title>
    <desc>Created with Sketch.</desc>
    <g id="bb-logo" stroke="none" stroke-width="1" fill="none" fill-rule="evenodd">
        <polygon id="Fill-1" fill="#F83331" points="0 48 130 48 130 0 0 0"></polygon>
        <g id="Group-2" transform="translate(11.000000, 11.000000)" fill="#FCF388">
            <path d="M16.474,13.3272 L18.82,13.3272 C18.744,14.1832 18.542,15.0032 18.234,15.7712 L16.474,13.3272 Z M2.16,15.4072 C1.848,14.5192 1.678,13.5632 1.678,12.5692 C1.678,8.9812 3.888,5.9012 7.02,4.6192 L2.16,15.4072 Z M9.154,13.3272 L14.606,13.3272 L16.88,16.4852 L9.154,16.4852 L9.154,13.3272 Z M7.638,11.8112 L7.638,16.4852 L3.338,16.4852 L7.638,6.9372 L7.638,11.8112 Z M9.154,5.7572 L13.516,11.8112 L9.154,11.8112 L9.154,5.7572 Z M10.266,3.9792 C14.746,3.9792 18.434,7.4292 18.82,11.8112 L15.382,11.8112 L9.754,3.9952 C9.924,3.9872 10.094,3.9792 10.266,3.9792 Z M3.616,18.0012 L7.638,18.0012 L7.638,20.7452 C6.046,20.2332 4.654,19.2672 3.616,18.0012 Z M10.266,21.1592 C9.888,21.1592 9.518,21.1312 9.154,21.0832 L9.154,18.0012 L16.914,18.0012 C15.338,19.9272 12.942,21.1592 10.266,21.1592 Z M10.266,2.4632 C4.692,2.4632 0.16,6.9972 0.16,12.5692 C0.16,18.1412 4.692,22.6752 10.266,22.6752 C15.838,22.6752 20.37,18.1412 20.37,12.5692 C20.37,6.9972 15.838,2.4632 10.266,2.4632 Z" id="Fill-2"></path>
            <path d="M79.7192,9.5714 L80.6392,9.3734 L80.6392,4.9594 L79.6212,4.7614 L79.6212,3.6054 L82.4292,3.6054 L82.5152,4.6434 C82.6812,4.2754 82.8972,3.9874 83.1592,3.7814 C83.4232,3.5754 83.7272,3.4714 84.0732,3.4714 C84.1752,3.4714 84.2812,3.4794 84.3932,3.4954 C84.5052,3.5114 84.5972,3.5294 84.6732,3.5514 L84.4692,5.3014 L83.6792,5.2814 C83.3992,5.2814 83.1672,5.3374 82.9812,5.4454 C82.7972,5.5554 82.6572,5.7114 82.5612,5.9134 L82.5612,9.3734 L83.4812,9.5714 L83.4812,10.7214 L79.7192,10.7214 L79.7192,9.5714 Z M75.5252,4.9514 C75.1712,4.9514 74.8892,5.0894 74.6832,5.3614 C74.4772,5.6314 74.3492,5.9894 74.3032,6.4334 L74.3212,6.4654 L76.6772,6.4654 L76.6772,6.2934 C76.6772,5.8854 76.5812,5.5614 76.3912,5.3174 C76.1992,5.0734 75.9112,4.9514 75.5252,4.9514 Z M75.6972,10.8614 C74.6712,10.8614 73.8492,10.5314 73.2372,9.8734 C72.6232,9.2154 72.3152,8.3794 72.3152,7.3654 L72.3152,7.1054 C72.3152,6.0454 72.6052,5.1774 73.1872,4.4914 C73.7672,3.8074 74.5472,3.4674 75.5252,3.4714 C76.4852,3.4714 77.2312,3.7614 77.7612,4.3414 C78.2932,4.9194 78.5592,5.7014 78.5592,6.6894 L78.5592,7.7354 L74.3092,7.7354 L74.2952,7.7754 C74.3312,8.2454 74.4872,8.6294 74.7652,8.9334 C75.0452,9.2354 75.4232,9.3854 75.9012,9.3854 C76.3252,9.3854 76.6792,9.3454 76.9612,9.2594 C77.2412,9.1734 77.5472,9.0374 77.8812,8.8554 L78.4012,10.0374 C78.1072,10.2714 77.7252,10.4654 77.2592,10.6234 C76.7932,10.7814 76.2712,10.8614 75.6972,10.8614 Z M66.3472,7.3614 C66.3472,7.9834 66.4532,8.4734 66.6632,8.8314 C66.8752,9.1894 67.2172,9.3654 67.6892,9.3654 C67.9832,9.3654 68.2332,9.3134 68.4372,9.2054 C68.6412,9.0994 68.8032,8.9434 68.9272,8.7354 L68.9272,5.6434 C68.8032,5.4294 68.6412,5.2614 68.4372,5.1434 C68.2332,5.0254 67.9872,4.9654 67.7032,4.9654 C67.2332,4.9654 66.8912,5.1754 66.6732,5.5914 C66.4572,6.0074 66.3472,6.5514 66.3472,7.2214 L66.3472,7.3614 Z M64.4272,7.2214 C64.4272,6.0994 64.6712,5.1954 65.1612,4.5054 C65.6492,3.8174 66.3352,3.4714 67.2172,3.4714 C67.6152,3.4714 67.9672,3.5614 68.2692,3.7394 C68.5712,3.9174 68.8312,4.1694 69.0452,4.4994 L69.1832,3.6054 L70.8552,3.6054 L70.8552,10.5114 C70.8552,11.4494 70.5592,12.1974 69.9692,12.7594 C69.3792,13.3174 68.5692,13.5974 67.5392,13.5974 C67.1792,13.5974 66.7972,13.5474 66.3932,13.4474 C65.9912,13.3514 65.6172,13.2154 65.2752,13.0434 L65.6312,11.6954 C65.9372,11.8274 66.2452,11.9314 66.5532,12.0094 C66.8592,12.0854 67.1832,12.1234 67.5252,12.1234 C67.9952,12.1234 68.3452,11.9814 68.5792,11.6954 C68.8112,11.4114 68.9272,11.0154 68.9272,10.5054 L68.9272,10.0374 C68.7172,10.3054 68.4692,10.5094 68.1832,10.6494 C67.8972,10.7894 67.5712,10.8614 67.2032,10.8614 C66.3312,10.8614 65.6492,10.5394 65.1612,9.8974 C64.6712,9.2554 64.4272,8.4094 64.4272,7.3614 L64.4272,7.2214 Z M59.5872,9.4394 C59.8772,9.4394 60.1392,9.3754 60.3772,9.2514 C60.6132,9.1254 60.7972,8.9694 60.9292,8.7814 L60.9292,7.6974 L59.9492,7.6974 C59.5412,7.6974 59.2312,7.7914 59.0212,7.9814 C58.8112,8.1734 58.7052,8.4014 58.7052,8.6694 C58.7052,8.9114 58.7832,9.0994 58.9392,9.2354 C59.0932,9.3714 59.3112,9.4394 59.5872,9.4394 Z M61.2512,10.7214 C61.1992,10.6054 61.1532,10.4814 61.1132,10.3574 C61.0732,10.2314 61.0432,10.1074 61.0212,9.9794 C60.7932,10.2414 60.5152,10.4534 60.1892,10.6154 C59.8612,10.7794 59.4892,10.8614 59.0672,10.8614 C58.3692,10.8614 57.8152,10.6714 57.4052,10.2914 C56.9952,9.9114 56.7912,9.3954 56.7912,8.7414 C56.7912,8.0754 57.0572,7.5594 57.5932,7.1974 C58.1292,6.8314 58.9132,6.6494 59.9492,6.6494 L60.9292,6.6494 L60.9292,5.9514 C60.9292,5.6114 60.8312,5.3454 60.6332,5.1574 C60.4352,4.9674 60.1432,4.8734 59.7592,4.8734 C59.5392,4.8734 59.3432,4.8994 59.1732,4.9474 C59.0012,4.9994 58.8632,5.0594 58.7592,5.1294 L58.6332,5.8934 L57.1852,5.8934 L57.1912,4.3134 C57.5432,4.0774 57.9452,3.8774 58.3992,3.7154 C58.8532,3.5534 59.3472,3.4714 59.8832,3.4714 C60.7652,3.4714 61.4812,3.6894 62.0312,4.1194 C62.5812,4.5514 62.8572,5.1674 62.8572,5.9654 L62.8572,8.9074 C62.8572,9.0174 62.8572,9.1194 62.8592,9.2154 C62.8612,9.3114 62.8692,9.4034 62.8832,9.4914 L63.4692,9.5714 L63.4692,10.7214 L61.2512,10.7214 Z M51.9092,1.6154 L51.9092,0.4594 L54.8572,0.4594 L54.8572,9.3734 L55.7852,9.5714 L55.7852,10.7214 L52.0092,10.7214 L52.0092,9.5714 L52.9352,9.3734 L52.9352,1.8134 L51.9092,1.6154 Z M49.5312,1.8614 L49.5312,3.6054 L50.7812,3.6054 L50.7812,4.9514 L49.5312,4.9514 L49.5312,8.5774 C49.5312,8.8554 49.5892,9.0514 49.7032,9.1694 C49.8172,9.2874 49.9692,9.3474 50.1632,9.3474 C50.2952,9.3474 50.4092,9.3414 50.5092,9.3314 C50.6072,9.3194 50.7192,9.3014 50.8412,9.2754 L51.0052,10.6634 C50.7912,10.7294 50.5772,10.7794 50.3672,10.8114 C50.1572,10.8454 49.9272,10.8614 49.6832,10.8614 C49.0212,10.8614 48.5112,10.6794 48.1532,10.3134 C47.7972,9.9494 47.6172,9.3734 47.6172,8.5854 L47.6172,4.9514 L46.5712,4.9514 L46.5712,3.6054 L47.6172,3.6054 L47.6172,1.8614 L49.5312,1.8614 Z M42.1832,1.6154 L42.1832,0.4594 L45.1312,0.4594 L45.1312,9.3734 L46.0572,9.5714 L46.0572,10.7214 L42.2812,10.7214 L42.2812,9.5714 L43.2092,9.3734 L43.2092,1.8134 L42.1832,1.6154 Z M38.2172,4.9514 C37.8612,4.9514 37.5812,5.0894 37.3752,5.3614 C37.1672,5.6314 37.0412,5.9894 36.9932,6.4334 L37.0112,6.4654 L39.3672,6.4654 L39.3672,6.2934 C39.3672,5.8854 39.2712,5.5614 39.0812,5.3174 C38.8892,5.0734 38.6012,4.9514 38.2172,4.9514 Z M38.3872,10.8614 C37.3612,10.8614 36.5412,10.5314 35.9272,9.8734 C35.3132,9.2154 35.0052,8.3794 35.0052,7.3654 L35.0052,7.1054 C35.0052,6.0454 35.2972,5.1774 35.8772,4.4914 C36.4592,3.8074 37.2372,3.4674 38.2172,3.4714 C39.1772,3.4714 39.9232,3.7614 40.4532,4.3414 C40.9832,4.9194 41.2492,5.7014 41.2492,6.6894 L41.2492,7.7354 L36.9992,7.7354 L36.9852,7.7754 C37.0212,8.2454 37.1772,8.6294 37.4572,8.9334 C37.7352,9.2354 38.1132,9.3854 38.5912,9.3854 C39.0152,9.3854 39.3692,9.3454 39.6512,9.2594 C39.9312,9.1734 40.2372,9.0374 40.5712,8.8554 L41.0912,10.0374 C40.7972,10.2714 40.4172,10.4654 39.9492,10.6234 C39.4832,10.7814 38.9612,10.8614 38.3872,10.8614 Z M33.6952,1.1434 L33.6952,2.1054 L29.0052,9.2494 L32.3412,9.2494 L32.4992,8.0914 L33.9592,8.0914 L33.8132,10.7214 L26.6632,10.7214 L26.6632,9.7214 L31.3352,2.6234 L28.2892,2.6234 L28.1372,3.7814 L26.6692,3.7814 L26.8132,1.1434 L33.6952,1.1434 Z" id="Fill-4"></path>
            <path d="M96.5082,20.8332 C96.5082,21.4572 96.6142,21.9472 96.8242,22.3032 C97.0342,22.6612 97.3762,22.8412 97.8502,22.8412 C98.1442,22.8412 98.3922,22.7872 98.5962,22.6792 C98.8002,22.5712 98.9642,22.4152 99.0882,22.2072 L99.0882,19.1172 C98.9642,18.9012 98.8002,18.7352 98.5962,18.6172 C98.3922,18.4992 98.1482,18.4392 97.8642,18.4392 C97.3942,18.4392 97.0502,18.6472 96.8342,19.0632 C96.6162,19.4812 96.5082,20.0252 96.5082,20.6972 L96.5082,20.8332 Z M94.5882,20.6972 C94.5882,19.5732 94.8322,18.6672 95.3202,17.9792 C95.8102,17.2912 96.4942,16.9472 97.3762,16.9472 C97.7762,16.9472 98.1262,17.0352 98.4282,17.2112 C98.7322,17.3892 98.9902,17.6432 99.2062,17.9712 L99.3422,17.0772 L101.0142,17.0772 L101.0142,23.9852 C101.0142,24.9232 100.7182,25.6732 100.1302,26.2312 C99.5402,26.7912 98.7302,27.0712 97.6982,27.0712 C97.3402,27.0712 96.9582,27.0212 96.5542,26.9232 C96.1502,26.8232 95.7782,26.6892 95.4362,26.5192 L95.7922,25.1692 C96.0982,25.3012 96.4042,25.4052 96.7122,25.4812 C97.0182,25.5592 97.3422,25.5972 97.6862,25.5972 C98.1542,25.5972 98.5062,25.4552 98.7382,25.1692 C98.9702,24.8832 99.0882,24.4872 99.0882,23.9792 L99.0882,23.5112 C98.8762,23.7792 98.6282,23.9832 98.3422,24.1252 C98.0582,24.2652 97.7322,24.3332 97.3642,24.3332 C96.4902,24.3332 95.8102,24.0132 95.3202,23.3712 C94.8322,22.7272 94.5882,21.8812 94.5882,20.8332 L94.5882,20.6972 Z M88.8082,23.0432 L89.7282,22.8472 L89.7282,18.4332 L88.7102,18.2352 L88.7102,17.0772 L91.5182,17.0772 L91.6042,18.1172 C91.7702,17.7492 91.9862,17.4612 92.2482,17.2552 C92.5102,17.0492 92.8162,16.9472 93.1622,16.9472 C93.2642,16.9472 93.3702,16.9552 93.4822,16.9692 C93.5942,16.9832 93.6862,17.0032 93.7602,17.0252 L93.5582,18.7752 L92.7682,18.7552 C92.4882,18.7552 92.2562,18.8092 92.0702,18.9192 C91.8862,19.0292 91.7462,19.1852 91.6502,19.3852 L91.6502,22.8472 L92.5702,23.0432 L92.5702,24.1972 L88.8082,24.1972 L88.8082,23.0432 Z M84.6142,18.4272 C84.2582,18.4272 83.9782,18.5612 83.7722,18.8352 C83.5662,19.1072 83.4382,19.4632 83.3902,19.9072 L83.4102,19.9392 L85.7662,19.9392 L85.7662,19.7692 C85.7662,19.3612 85.6702,19.0352 85.4802,18.7912 C85.2882,18.5472 85.0002,18.4272 84.6142,18.4272 Z M84.7862,24.3332 C83.7582,24.3332 82.9382,24.0052 82.3262,23.3472 C81.7122,22.6892 81.4042,21.8552 81.4042,20.8412 L81.4042,20.5772 C81.4042,19.5212 81.6942,18.6492 82.2762,17.9652 C82.8562,17.2832 83.6362,16.9432 84.6142,16.9472 C85.5742,16.9472 86.3202,17.2352 86.8502,17.8132 C87.3822,18.3932 87.6482,19.1772 87.6482,20.1632 L87.6482,21.2072 L83.3982,21.2072 L83.3842,21.2492 C83.4202,21.7172 83.5762,22.1052 83.8542,22.4072 C84.1342,22.7072 84.5102,22.8612 84.9902,22.8612 C85.4142,22.8612 85.7682,22.8172 86.0502,22.7312 C86.3302,22.6452 86.6362,22.5112 86.9702,22.3272 L87.4902,23.5112 C87.1962,23.7432 86.8142,23.9392 86.3482,24.0972 C85.8822,24.2552 85.3602,24.3332 84.7862,24.3332 Z M78.3062,20.6972 C78.3062,20.0032 78.2042,19.4552 78.0002,19.0472 C77.7962,18.6412 77.4482,18.4392 76.9582,18.4392 C76.6582,18.4392 76.4062,18.5012 76.2002,18.6252 C75.9942,18.7512 75.8322,18.9312 75.7142,19.1632 L75.7142,22.1692 C75.8322,22.3892 75.9962,22.5552 76.2042,22.6692 C76.4122,22.7852 76.6682,22.8412 76.9702,22.8412 C77.4662,22.8412 77.8122,22.6672 78.0102,22.3172 C78.2082,21.9692 78.3062,21.4732 78.3062,20.8332 L78.3062,20.6972 Z M80.2202,20.8332 C80.2202,21.8952 79.9842,22.7432 79.5102,23.3792 C79.0362,24.0172 78.3522,24.3332 77.4582,24.3332 C77.0402,24.3332 76.6782,24.2472 76.3722,24.0732 C76.0642,23.9012 75.8062,23.6492 75.5942,23.3212 L75.4582,24.1972 L73.8002,24.1972 L73.8002,15.2892 L72.7802,15.0912 L72.7802,13.9332 L75.7142,13.9332 L75.7142,17.8352 C75.9202,17.5492 76.1662,17.3292 76.4542,17.1772 C76.7402,17.0232 77.0702,16.9472 77.4442,16.9472 C78.3462,16.9472 79.0362,17.2872 79.5102,17.9692 C79.9842,18.6512 80.2202,19.5592 80.2202,20.6972 L80.2202,20.8332 Z M72.0242,19.5252 L70.7362,19.5252 L70.5322,18.6352 C70.4002,18.5332 70.2342,18.4452 70.0342,18.3752 C69.8362,18.3032 69.6142,18.2692 69.3742,18.2692 C69.0362,18.2692 68.7682,18.3452 68.5702,18.4952 C68.3742,18.6472 68.2742,18.8372 68.2742,19.0632 C68.2742,19.2792 68.3702,19.4592 68.5582,19.6012 C68.7462,19.7432 69.1242,19.8712 69.6882,19.9792 C70.5702,20.1532 71.2242,20.4112 71.6502,20.7512 C72.0762,21.0912 72.2882,21.5592 72.2882,22.1572 C72.2882,22.7952 72.0122,23.3192 71.4622,23.7252 C70.9122,24.1312 70.1862,24.3332 69.2882,24.3332 C68.7402,24.3332 68.2362,24.2532 67.7782,24.0952 C67.3202,23.9352 66.9142,23.7052 66.5582,23.4072 L66.5382,21.8072 L67.8802,21.8072 L68.1422,22.7352 C68.2582,22.8312 68.4142,22.9032 68.6102,22.9492 C68.8082,22.9952 69.0142,23.0192 69.2282,23.0192 C69.6202,23.0192 69.9162,22.9492 70.1202,22.8072 C70.3242,22.6672 70.4262,22.4752 70.4262,22.2352 C70.4262,22.0252 70.3222,21.8432 70.1162,21.6892 C69.9102,21.5372 69.5322,21.3992 68.9782,21.2832 C68.1402,21.1112 67.5082,20.8572 67.0802,20.5212 C66.6522,20.1872 66.4382,19.7292 66.4382,19.1492 C66.4382,18.5532 66.6842,18.0412 67.1762,17.6072 C67.6682,17.1752 68.3662,16.9592 69.2742,16.9592 C69.8282,16.9592 70.3502,17.0352 70.8442,17.1832 C71.3382,17.3312 71.7242,17.5232 72.0062,17.7552 L72.0242,19.5252 Z M60.4742,23.0432 L61.3942,22.8472 L61.3942,18.4332 L60.3762,18.2352 L60.3762,17.0772 L63.1842,17.0772 L63.2702,18.1172 C63.4362,17.7492 63.6522,17.4612 63.9142,17.2552 C64.1762,17.0492 64.4822,16.9472 64.8282,16.9472 C64.9302,16.9472 65.0362,16.9552 65.1482,16.9692 C65.2602,16.9832 65.3522,17.0032 65.4262,17.0252 L65.2242,18.7752 L64.4342,18.7552 C64.1542,18.7552 63.9222,18.8092 63.7362,18.9192 C63.5522,19.0292 63.4122,19.1852 63.3162,19.3852 L63.3162,22.8472 L64.2362,23.0432 L64.2362,24.1972 L60.4742,24.1972 L60.4742,23.0432 Z M56.2802,18.4272 C55.9242,18.4272 55.6442,18.5612 55.4382,18.8352 C55.2322,19.1072 55.1042,19.4632 55.0562,19.9072 L55.0762,19.9392 L57.4322,19.9392 L57.4322,19.7692 C57.4322,19.3612 57.3362,19.0352 57.1462,18.7912 C56.9542,18.5472 56.6662,18.4272 56.2802,18.4272 Z M56.4522,24.3332 C55.4242,24.3332 54.6042,24.0052 53.9922,23.3472 C53.3782,22.6892 53.0702,21.8552 53.0702,20.8412 L53.0702,20.5772 C53.0702,19.5212 53.3602,18.6492 53.9422,17.9652 C54.5222,17.2832 55.3022,16.9432 56.2802,16.9472 C57.2402,16.9472 57.9862,17.2352 58.5162,17.8132 C59.0482,18.3932 59.3142,19.1772 59.3142,20.1632 L59.3142,21.2072 L55.0642,21.2072 L55.0502,21.2492 C55.0862,21.7172 55.2422,22.1052 55.5202,22.4072 C55.8002,22.7072 56.1762,22.8612 56.6562,22.8612 C57.0802,22.8612 57.4342,22.8172 57.7162,22.7312 C57.9962,22.6452 58.3022,22.5112 58.6362,22.3272 L59.1562,23.5112 C58.8622,23.7432 58.4802,23.9392 58.0142,24.0972 C57.5482,24.2552 57.0262,24.3332 56.4522,24.3332 Z M50.7722,15.3352 L50.7722,17.0772 L52.0222,17.0772 L52.0222,18.4272 L50.7722,18.4272 L50.7722,22.0512 C50.7722,22.3272 50.8282,22.5252 50.9422,22.6432 C51.0562,22.7612 51.2102,22.8212 51.4042,22.8212 C51.5342,22.8212 51.6502,22.8152 51.7482,22.8032 C51.8462,22.7932 51.9582,22.7752 52.0822,22.7492 L52.2462,24.1352 C52.0302,24.2032 51.8182,24.2512 51.6082,24.2852 C51.3962,24.3172 51.1682,24.3332 50.9242,24.3332 C50.2602,24.3332 49.7522,24.1512 49.3942,23.7892 C49.0362,23.4252 48.8582,22.8472 48.8582,22.0572 L48.8582,18.4272 L47.8102,18.4272 L47.8102,17.0772 L48.8582,17.0772 L48.8582,15.3352 L50.7722,15.3352 Z M43.4102,15.0912 L43.4102,13.9332 L46.3582,13.9332 L46.3582,22.8472 L47.2862,23.0432 L47.2862,24.1972 L43.5082,24.1972 L43.5082,23.0432 L44.4362,22.8472 L44.4362,15.2892 L43.4102,15.0912 Z M38.6642,22.9132 C38.9522,22.9132 39.2162,22.8512 39.4522,22.7252 C39.6902,22.6012 39.8742,22.4452 40.0062,22.2552 L40.0062,21.1692 L39.0242,21.1692 C38.6182,21.1692 38.3082,21.2652 38.0962,21.4572 C37.8862,21.6452 37.7822,21.8752 37.7822,22.1432 C37.7822,22.3832 37.8602,22.5732 38.0142,22.7072 C38.1702,22.8452 38.3862,22.9132 38.6642,22.9132 Z M40.3282,24.1972 C40.2742,24.0772 40.2282,23.9572 40.1902,23.8312 C40.1502,23.7072 40.1202,23.5792 40.0962,23.4532 C39.8702,23.7152 39.5922,23.9292 39.2642,24.0912 C38.9382,24.2532 38.5642,24.3332 38.1422,24.3332 C37.4462,24.3332 36.8922,24.1432 36.4822,23.7652 C36.0722,23.3852 35.8682,22.8692 35.8682,22.2152 C35.8682,21.5492 36.1342,21.0352 36.6702,20.6692 C37.2042,20.3052 37.9902,20.1252 39.0242,20.1252 L40.0062,20.1252 L40.0062,19.4272 C40.0062,19.0852 39.9062,18.8192 39.7102,18.6292 C39.5122,18.4432 39.2202,18.3472 38.8342,18.3472 C38.6142,18.3472 38.4202,18.3732 38.2482,18.4232 C38.0782,18.4732 37.9402,18.5352 37.8342,18.6052 L37.7102,19.3672 L36.2622,19.3672 L36.2682,17.7892 C36.6202,17.5512 37.0222,17.3532 37.4762,17.1892 C37.9302,17.0272 38.4242,16.9472 38.9602,16.9472 C39.8422,16.9472 40.5562,17.1612 41.1062,17.5952 C41.6582,18.0272 41.9322,18.6412 41.9322,19.4392 L41.9322,22.3792 C41.9322,22.4892 41.9342,22.5932 41.9362,22.6892 C41.9382,22.7872 41.9462,22.8772 41.9602,22.9652 L42.5442,23.0432 L42.5442,24.1972 L40.3282,24.1972 Z M29.4862,19.9592 L29.4862,22.7212 L31.2562,22.7212 C31.7642,22.7212 32.1522,22.6132 32.4202,22.3892 C32.6862,22.1692 32.8202,21.8412 32.8202,21.4072 C32.8202,20.9372 32.7062,20.5792 32.4782,20.3312 C32.2502,20.0832 31.8902,19.9592 31.4002,19.9592 L29.4862,19.9592 Z M29.4862,18.6292 L30.8662,18.6292 C31.3802,18.6292 31.7742,18.5252 32.0502,18.3132 C32.3282,18.1052 32.4662,17.7952 32.4662,17.3932 C32.4662,16.9512 32.3262,16.6252 32.0482,16.4132 C31.7682,16.2032 31.3542,16.0972 30.8002,16.0972 L29.4862,16.0972 L29.4862,18.6292 Z M30.8002,14.6172 C31.9282,14.6172 32.8082,14.8372 33.4382,15.2752 C34.0702,15.7132 34.3862,16.3712 34.3862,17.2412 C34.3862,17.6852 34.2682,18.0812 34.0342,18.4292 C33.8002,18.7792 33.4602,19.0412 33.0122,19.2152 C33.5862,19.3392 34.0162,19.6032 34.3042,20.0052 C34.5922,20.4092 34.7362,20.8752 34.7362,21.4072 C34.7362,22.3232 34.4322,23.0172 33.8282,23.4892 C33.2222,23.9592 32.3642,24.1972 31.2562,24.1972 L26.5442,24.1972 L26.5442,23.0432 L27.5642,22.8472 L27.5642,15.9712 L26.5442,15.7752 L26.5442,14.6172 L27.5642,14.6172 L30.8002,14.6172 Z" id="Fill-6"></path>
        </g>
    </g>
</svg>