<svg xmlns="http://www.w3.org/2000/svg" fill="none" viewBox="0 0 1905 1162">

    <path fill="oklch(10% 0.07 257)"
        d="M915 1161h1-3 2Zm-59-3c0-2 9-1 11 1 1 1 0 1-4 1s-6-1-7-2Zm498-134 1 2-3 1c-3 0-3 0-1-1l3-2Z" />
    <path fill="oklch(10% 0.07 257)" fill-rule="evenodd"
        d="M723 590a75 75 0 0 1 29 0l40 12c21 8 39 20 48 32 7 11 10 25 8 34-2 6-4 8-3 2s0-10-6-16l-4-4 4 14 5 17c1 3 1 6-1 13-2 5-3 8-2 9 2 0 2 3 0 3s-2 1-2 5 1 6 7 14l7 11-4 7c-4 3-5 5-5 11-1 5-2 8-4 10l-3 6c0 1-1 5-3 7-2 3-3 7-3 10 0 7-7 14-15 15-7 1-17 0-25-2-3-2-5-2-6-1-4 3-3 6 2 8l14 7c9 5 11 7 13 11 2 6 4 7 15 13a409 409 0 0 1 44 30c3 2 4 4 6 10 0 4 3 12 6 17 6 14 9 22 14 41 5 15 10 25 13 24l1-4 2-6c3-3 10-26 10-30l3-9 4-15c1-5 3-9 7-14 5-7 21-19 32-24l10-6 12-7 15-11c6-5 9-7 14-8l12-2c4-1 5-1 5-6 0-3-1-7-3-8l-2-3-10 3c-12 3-20 4-25 1l-8-14-7-12-8-25c-2-9-2-14 2-25s4-16 1-22l-4-9c-2-6-2-5-1 5l1 15c2 7 0 5-5-5-8-16-8-29-1-46 13-30 39-53 72-65 16-5 39-6 52-1 4 2 11 4 15 4 15 3 19 4 27 9 12 8 23 21 30 35 7 13 11 45 8 61-2 7-2 8 1 10 2 2 5 3 9 3 17 1 27 6 39 20 8 10 15 25 19 38 2 11 2 29-2 42-3 8-6 12-6 9l-1-2c-2 0-3 3-4 8l-3 12-2 5 10 9 12 14c2 4 10 24 16 44a396 396 0 0 0 13 40l2 7 3 15a854 854 0 0 1 6 20l14-3a431 431 0 0 0 45-11 156 156 0 0 1 45-8l-2 2c-6 0-14 1-16 3h-3l-10 2a559 559 0 0 1-36 9l-5 1-32 7c-1 1 1 11 3 11s5-2 5-3h-2c-2 1-3 1-4-2v-4c1-1 8 4 8 6a922 922 0 0 1 85-5l-25-1a175 175 0 0 1-28 0c-2 1-6 2-9 0h-6a562 562 0 0 1 69-10h4l22 1 22-1c2 0 2 0 0-1s-2-2 4-4c6-1 26-1 33 2l8 2c2 0 2 1-1 2l-3 2h4l7 1 15 1c18 1 23 2 24 3l1 1h3l8 1 8 2c1 2 1 2 2 0l2-2v1c-2 2 2 5 6 5 2 0 3 1 3 2h-6l-7 1h-2c-1-3-8-3-13-1l-14 4-5 1 7 1a269 269 0 0 1 34 2c7-1 10-2 10-3 0-2 6-6 7-5l-1 2c-3 2-1 2 3 0l9-2c7 0 14-3 13-6h4c7 2 9 2 13 0l5-2 5-1 6-2 4-1-1-2-1-1c1-1 1-1-1-1-4 1-9-3-6-4 3-2 23-3 47-3l8-1 11-2 6-1c0-1 12-4 18-3 5 0 6 0 7-2s13-2 14 0h3l3 2c0 1 2 2 6 2l5 1h3l2 1c0 1-2 2-5 2h-9c-4 1-4 1-2 3l4 2 4 2c1 2 2 2 4 1 3-2 7 0 11 5l3 4-3 2c-2 2-5 3-9 3l-7 1-5 3c-5 2-5 2-2 3 2 1 0 1-6 1-7-1-10-1-11 1l-5 2c-1 0-4 1-5 3-2 2-3 2-6 1-2-1-3-1-4 1l-5 2-5 1-4 3c-4 2-5 2-7 1h-11l-5 1-2 2-9 4 6-1c6-3 7-2 8 4 1 3 1 5 3 4 3 0 4-3 1-3l-1-3c1-3 12-7 12-4l-3 2c-2 0-3 1-3 4 0 4 2 5 3 1 1-3 7-6 10-4 1 1 1 1-1 1l-2 1c1 2 10 2 12 0 1-2 3-2 5-2h4l17-6c0 2-3 7-5 7l-6 2-5 1c-1 0-3 0-4 2h-4l-8 2-11 4-5 2c0 2-7 4-9 4s-2 0 0-2c3-2 3-2 0-2l-5 2c-3 4-8 5-11 3h-3c0 2-1 2-2 1h-7l-2 2 1 2c0 2-5 1-7 0-1-2-3-2-6-1l-11 2c-6 1-8 1-9 3s0 2 5 1l7 1 1 1 2-2 2 2 2 2 3 1c1 0 3 0 4-2a230 230 0 0 0 28-2l26-1-9 2-6 1h-4c-4-1-17 3-19 6-1 1-3 2-6 0h-2l-7 1-9 1c-1 2-3 2-6 1h-5c-1 1 0 2 4 2l4 1c0 1-5 2-14 2s-13 0-12-1l-2-1c-1 0-2 0-1 1 1 2-7 6-10 5s-27 2-27 3l-3 1-3-1c2-2-5-3-8-1-4 3-20 5-34 3l-7 1c-1 2-3 2-5 1-3-2-6-2-4 0 2 1 1 1-1 1-3-1-4-1-5 2-2 3 0 3 2 1h2l-2 2v3c3 3 1 4-6 5-5 0-6 0-7-2 0-2 1-3 2-3s2 0 1-2c0-1 0-2 2-2 5 0 2-3-3-3-4-1-5 0-5 1 0 2-1 3-2 3l-3 3c0 1 1 2 3 1s2 0 2 1c0 3-2 3-10 4l-5 1c-1 1-3 0-5-1-3-2-4-2-5-1 0 1-1 2-3 2l-2 1c0 1-3 2-9 1l-10 1c-2 1-3 1-7-1-3-3-4-3-4-1-1 1-2 2-3 1l-3 1-13 1c-12 1-13 1-12 3 0 2 0 2-2 2-3-1-3-1-1 1s2 3 1 4l-2-1h-2c-1 1-2 1-3-1-3-3-3-5 0-3 1 1 2 2 2 0s-7-3-21 0l-19 2-21 1c-2 1-5 0-9-1-3-2-5-3-3-3s2 0 1-1c-2-2-14 0-16 3l-2 1-2-2-2 2h-2l-6 1c-2 2-2 2 5 2 6-1 6 0 4 1l-4 2-5 1a176 176 0 0 1-18 2l-10 1a447 447 0 0 0-56 4l-7 1c-4-1-10 0-16 1-6 2-11 2-16 2-5-1-9 0-12 1-5 2-12 3-11 1 1-1-1-2-6-2s-6 1-6 2c0 2-2 2-9 2l-9-1-13 1-12-1c0-3 29-4 32-1h2l-1-2c-1-1 0-1 3-1 5 0 5-3-1-4-4-1-6-1-9 1h-17l-6-1h-4l-9 1-23-1h-30a2659 2659 0 0 1-61 0c0 3 10 9 14 9l4 1-4 1-14 2c-9 0-11 0-14-2s-4-1-3 1c0 2-8 0-9-2s-2-2-2-1c0 2-6 2-7 0-2-2-6-1-6 1s-1 2-3 1l-4-2h-3l-4-1c-3-2-9-3-15-1h-8l-16-4v2l-1 2-2-2-2-1-1 1 6 3c3 1 6 2 5 3l-5-1-8-1c-3 0-6-2-3-2 4 0-1-3-7-4l-9-1c-2-1-3 0-2 1 0 2 2 2 5 2s5 1 5 2c1 1-10 1-25-2h-15l-8-1h-4l-5 1 1-1 2-1c0-2-2-2-7-1l-8-1-8-1-12-1c-4-2-5-2-7-1-3 2-3 2-3 0s-1-2-3-1l-3-1-10-1a116 116 0 0 1-24 1c-4 0-4 0-2 1l9 2 10 2 6 2c2 0 1 1-3 2-4 0-9 0-17-2-7-2-18-4-26-4-13-1-17-2-13-3 1-1-1-1-5-1l-13-2-6-1c-4 0-5 1-5 2l4 1c3-1 9 1 9 2s-3 2-7 2l-7-1-2-2-9-1h-24l4 1c6 0 8 1 5 3l-8-1-5-1c1 1 0 2-2 2l-4-2c0-2-1-2-3-2l-3 1h-3l-3-3c0-1 0-2-2-2l-2 1-2 2-4 1h-2l2-2h1l1-1-3-1-10 1-7 1c0 1-1 2-2 1h-3c-2 3-19 0-19-2l12-1h9l-5-1h-4l-4-1-4-1h-5c-2 1-3 2-1 3 1 2-1 2-11 2l-12-1-2-1c-2-1 0-1 3-2 4-2 6-2 7-1l5 1c3 0 3 0-3-2-4-2-7-3-10-2-5 2-13 2-13 0l-8-1-10-1-2 2c0 2 0 2 2 1l2 1 5 1 5 1c-1 2-24 1-24-1l-2-1-2 1-9 1a293 293 0 0 0-15-2c2-1 2-2-1-3-3 0-3-1 1-2l5-2h-6l-9-1h-4c0 2-1 2-3 0l-3-2-2-1c0-1 13-2 15 0h6c5 0 11 3 8 5-2 2 3 3 15 4 7 0 9 0 8-1l-6-1-4-2-4-1h-3c-1-2 3-4 7-4 5-1 6-3 1-3h-13c0 1-2 2-5 2-4 0-6-1-6-3-1-1-2-3-4-3h-10l2 2h2c-2 2-8 0-8-2 1-1-2-2-5-3-4-1-6-1-8 1l-4 2h-4l-1-1c-1-1 1-1 4-1s3-1 2-2c-4-2-17-3-19-1h-6c-2-1-3-1-1-1s2-1 1-2h-7l-6-1h-3l-4-1c-1-1-2-2-3-1l-9-1c-6-2-8-2-10-1h-7c-6-4-7-4-8-3-1 2-5 1-5-1l3-1h-1c-2-2-6-2-13 0h-3c0-2-1-2-4-3l-5-1-6-1c-3 1-7 0-11-2l-8-2c-3 1-19-4-23-8-5-4-3-6 8-6l10 1c1 0 2 0 2-2l-2-2-1-1h3l13 5 8-1h8l7 2 7 1c1 1 8-1 8-3l-7-1-11-2c-2-1-5-2-7-1l-4-1c2-2-8-5-12-4l-4 2-2 2c-1 0-2-1-1-2 1-2 0-3-4-2h-6l-3-2-17-4c-5-3-9-3-6-1 4 3-8 1-13-1l-5-2h-2c-2-3-14-4-15-2s-5 1-5-1-2-2-15-3c-6 0-7 0-7-2l2-4 7-3c3-2 4-2 4 0-1 2 1 3 6 2 3-1 3-1 2-2l-1-4c0-2-1-2-4-2-5 1-8-1-8-5 0-2 1-3 3-4l2-1-2-3c-3-3-3-3-1-3l3-1 11-1c10 0 14-2 8-5s-2-5 8-3l8 1c3 2 8 2 8 0l4-1h4l-2-2a203 203 0 0 1-29-10c-1 1-2 0-3-1h-3c-2 1-11-1-25-6l-14-4c-4 0-8-3-8-5 1-2 0-2-7-2-22-1-31-4-27-9 3-2 2-3-5-3-10-1-12-5-5-9 6-4 17-7 24-8l10-1 14-2c5 0 6 0 2-2l-8-3c-5-3-6-3-8-1-3 2-4 2-7 0l-7-2c-2 0-5-1-6-3l-5-2-1-2 2-2 2-1c0-1-2-3-11-7l-9-6-3-2-7-4c-2-2-5-3-6-2l-1-6c0-7 0-7-2-6-3 0-3 0-2-2l5-5 2-4c0-2 4-4 5-2l-1 2-2 3-2 4c-1 3 0 4 2 7l5 3c1 0 3-5 1-6v-3l-1-3v-2l2-2a98 98 0 0 1 24-20c5-3 21-7 23-6 3 2 1 4-2 4l-3 1-5 4-7 3-7 4c-2 1-5 2-6 4l-4 2c-1 0-2 0-1 1s6 0 8-2l4-2c1 1 2 0 4-1 2-2 6-2 15-1 3 0 5 2 2 3-6 0-6 1 0 2a268 268 0 0 0 68-2l27 1c19 0 29 2 35 6 3 2 3 2 1 3-2 2-2 2 6 2h10c2 0 4 3 3 4l-10 1-9 2-10 1c-5 0-9 1-9 2l4 1c5 0 7 2 3 3h-39c0-2 4-3 9-3l3-1c0-1-2-2-5-1l-4-1-22-1h-21l10 4c14 6 64 22 66 21 2-2 37-3 51-1 27 3 35 7 36 17 1 7 0 7-6 2-5-5-10-8-19-10l-10-1c-3-1-3 0-1 2 5 3 3 5-5 4h-6a405 405 0 0 0 69 21c4 0 8 2 10 3l4 3-3 1c-4 1-4 1-1 2l6 1c3 0 22 9 21 10a258 258 0 0 1-45-2c-2-2-17-5-21-5h-4l4 2 5 3c3 2 10 4 18 5s15 4 15 6c0 1-1 2-4 2l-4 3-2 2-4 1-7 2c-4 0-7 1-7 2-1 1 5 1 26 1a182 182 0 0 0 30-1c-1 1 0 1 3 2 3 0 4 0 3-2-2-1-2-1 0-1l2 2c0 2 2 2 12 2 22-1 63 3 63 6h-6c-5-1-9 0-5 1 3 1 2 3-1 2l-2-1-29-1-29 1a332 332 0 0 0 56 4l4 1h12c5-1 18 1 24 4 3 1 0 1-11 1h-14c0 2-17 1-23 0-1-1-3 0-5 2-3 3-6 3-3 1 1-2 0-2-4-2l-6-2-2-1-1 1c1 1-1 1-6 1l-6 1c0 2 2 5 3 5v-3l3 2c0 1 1 2 3 2s2 0-1-2c-2-2-2-2 1-1l7 2 22 5c11 1 19 3 20 5l3 1h3l10 1 31 4c1 1 1-4 1-10 0-10 0-11 8-25 7-14 12-27 11-30l2-6a1211 1211 0 0 1 20-69c8-26 31-71 35-71l13-7 17-8c6-2 14-7 25-14 5-3 8-7 11-12l6-8c3-2 26-3 29-1 3 1 3 0 3-3 0-2 0-3-4-3l-6-2c-1-3-2-3-4 0-1 3-2 3-3-1-6-14-8-19-12-25l-10-14a96 96 0 0 1-14-65l2-14c2-9 14-30 22-36l5-4h-6l12-8c3-3 14-6 20-6l14-4c6-4 11-6 18-6Zm406 557h-19c-5 2-4 4 2 3l17-3Zm6-1-4 1 4 1 4-1-4-1Zm17 0-1 1 2 1v-1l-1-1Zm-232 0c-3 0-4 0-3 1 3 2 8 2 8 0l-5-1Zm-27-3-2 1h4l-2-1Zm-37-1h-2c-2 0-2 0-1 1l3-1Zm-7-3-1 1 1 2 1-2-1-1Zm173-1c-3 0-3 0-2 1 3 2 7 2 7 0l-5-1Zm76 0c-3 0-3 0-2 1 2 2 7 2 7 0l-5-1Zm-57 0-1 1 1 1 2-2h-2Zm-71-2h-3l-2 2c-3-1-5 0-5 1h15c1-1 0-1-1-1l-4-2Zm157 2h-3l3 1h4l-4-1Zm-620-2-1 2 1 1 1-1-1-2Zm428 0-1 2 1 1 1-1-1-2Zm16 1-5 1h11l-6-1Zm202 1h-2c-1 0-2 0-1 1l3-1Zm-234-2h-3c0 1 1 2 3 2l2-1-2-1Zm337 0v-1l-3 1c-3 1-3 2 0 2 2 0 3-1 3-2Zm-174 1-1-1c-2 0-2 1-1 1h2Zm-2-6-1 1 1 2 1-2-1-1Zm13 2h-2 4-2Zm129-3h-1c-2 0-2 0-1 1l2-1Zm112-4-1 1 2 1v-1l-1-1Zm-893-2c-3 0-5 1-5 2h7c3-1 2-1-2-2Zm906 0-6 2 11-1-5-1Zm-802-1v1l1 2 1-2-2-1Zm-87-1c-1-2-1-2-6 0-3 0-3 0-1 2 5 1 15 2 14 0l-3-1h-1l-3-1Zm838-3-2 1 1 2 2-2-1-1Zm13 0c1-1 0-1-3-1-5 0-6 1-5 2 1 2 6 2 6 0l2-1Zm-890-1-2 1v1l2-1v-1Zm896-4-7 1c-1 1-1 1 2 1 3-1 3-1 3 1v2l3 1c2 1 2 0 0-1-2-3-2-4 1-4 1-1 0-1-2-1Zm140 3c-1-1-3 1-3 3l2-1 1-2Zm-135 1-1 1 1 1 1-2h-1Zm15-2-2 2v1l2-1v-2Zm107 0c-3 0-5 1-5 2l5 1 5-1c0-1-2-2-5-2Zm-6 2h-2c-2 0-2 0-1 1l3-1Zm-90-1h-5 5Zm107-6c0-2-5-2-6 0l-4 1c-4-1-5 1-2 2 4 1 12-1 12-3Zm4-2-1 2 1 3 2-2-2-3Zm-25 4-2-1c-2 0-2 1-1 1h3Zm31-5c-2 0-3 3-2 4 1 0 3-1 3-3l-1-1Zm-64 0-2 2 2 1 2-1-2-2Zm10-1-2 1 1 2 1-2v-1Zm19 1h-4c-2 1-1 2 1 2s3-1 3-2Zm98-8c1-1 0-1-1-1-2 0-2 1-1 1h2Zm42-4c-1-2-3-2-6-1s-2 3 2 3c3 0 4-1 4-2Zm12-2c-3-2-4-2-4 0l3 1c2 0 3 0 1-1Zm-101-8c-4 0-4 0-3 1 2 1 1 1-3 1-3 0-5 1-5 2l3 1h7l4-1 7-2c2-1 2-1-2-1l-8-1Zm43 0-5 1-4 1h5l5-1-1-1Zm56-3-2 1 2 1 2-1-2-1Zm-5-1c0-2-4-3-7 0-2 2-3 2-3 1l-2-1v2c1 2 12 1 12-2Zm26 0v1l1 1 1-1-2-1Zm-10-6-4 2c-3 1-3 1 1 2l5 2h-1l-3 1c1 1 7 2 8 0l-2-4-4-3Zm-1237 1c-1-1-1-1-1 1l5 3c10 2 16 3 17 2 3-1-10-5-16-5l-5-1Zm-24 2c-3 0-3 1 5 3 3 1 4 1 1-1l-6-2Zm-17-1c-3 0-4 0-3 1h5c1-1 0-1-2-1Zm1099-7-9 2c-11 2-14 4-4 3 11-1 13-2 13-3v-2Zm-1077 4h-3c-2 1-2 1 0 1l3-1Zm171 0h-2l3 1c2 0 1-1-1-1Zm834-9c-3-2-11-2-17 2l-10 3-4 1c-4 3 11 0 18-3 4-2 7-3 8-2h4c2 0 3-1 1-1Zm88 5v-1l-7 1-6 1c-2 2 11 0 13-1Zm-1114-1-3 1 3 1 3-1-3-1Zm-21-1h-2 3-1Zm1147-9h-9l-14 4c-10 2-14 3-9 3a349 349 0 0 0 32-7Zm-112-37c-4-2-4-2-11 1h-12c-4 1-4 1-4 11v10h6c8 0 16 2 19 3 2 1 5 1 13-3 11-4 21-6 25-4 2 1 2 2-3 5-4 1-6 3-7 2v3l2-1 2-2c2 0 2 4 0 4h-13c-2 1-2 2 2 3 6 2 11 7 10 9s2 2 9 0a1782 1782 0 0 1 38-16l-7 1-2-1h-10l-8-1a92 92 0 0 1 31-4c1-1 5-2 9-1 4 0 5-2 1-4-3-1-3-2-1-2l14 1c2 1 3 0 4-3 2-2 2-3 3-2 1 7 1 6 3 4 1-1 4-2 12-2l12-1c1-1 5-3 9-3l8-4 4-1c1 1 5 0 8-1l6-1h-9l-12 2c-3 2-4 2-6 1-4-2-14-2-33 0a174 174 0 0 1-27 3l-6 1-16 2-11 1-4 1-12 2-14 2-13 2-16 3h-6c-1-1 0-1 2-1l5-2c1-2 3-2 4-2h3c1-1 3-2 4-1l3-1 10-2a201 201 0 0 0 24-3l36-6-1-1c-4-1-10 0-18 1-6 1-10 0-11-1l-5-1c-3 0-4 1-1 1 5 1 3 2-3 2-5 1-6 0-7-2 0-2-1-2-5-2l-5 2c-1 2-19 1-22-1Zm311 39h-2c-1 0-2 0-1 1l3-1Zm-335-3c1-1-5-1-10 1l-4 2 14-3Zm-871-5c0-2-8-3-9 0-1 1 5 4 9 4l9 2h5l4-1c2-1 2-1-1-2-5-3-16-4-15-2l-1 1-1-2Zm1206 4-4 1h2l2-1Zm21-5c-2-1-3-1-3 1h1c2-1 1 1-1 3s-2 2 1 2 4-1 3-2l-1-4Zm-205-7c-2-2-2-2-5 0l-8 2-9 2c-2 2-2 2 4 4h8l16-2c13-1 15-3 4-3-6-1-9-1-10-3Zm-1060-4c-8-3-9-3-10-2l-2 1-4 1h-14c-1 0-2 0-1 1 0 1 2 2 5 2l7 2 7 2 11 3c8 3 11 2 11-2l2-4c2-1 2-2-1-2l-11-2Zm107 4c-7 0-7 0-3 1l6 3 2 1 5 1 2-1c0-2-1-3-2-3l-10-2Zm1140 2-1 2h1l1-1-1-1Zm-1223 1c1-1-2-3-3-2-2 1-2 1 0 2h3Zm1079-3-7 1h11c1-1 0-1-4-1Zm-209-10 2 11c0 1 4-3 5-6v-9c-1-6-2-7-4-7h-4l1 11Zm-947 0-8 1 23 6 4-1-2-2v-1c2-1 1-1-2-1h-6l-9-2Zm1081 2-1 1 1 1 2-1-2-1Zm-1032-8c-12 0-15 1-5 3l8 2 6 1c3-1 5 0 6 1 2 3 4 3 4 0 0-1 1-2 3-2l5-1c1-1 0-2-4-2h-8l-2-1-13-1Zm72 8h-2c-1 0-2 0-1 1l3-1Zm1042-6c-7-1-12-1-20 1-6 1-7 2-5 3l7-1 10-1h9l5-1-6-1Zm88 0h-3c-2 1-2 2 0 2s3-1 3-2Zm17 1-2-1c-2 0-2 1-1 1h3Zm-95 0h-1 3-2Zm109-5-5 1-4 2c0 1 7-1 9-3Zm-215-4-1 2c1 1 3 0 3-1l-2-1Zm233-4c-1-1-6 4-5 5s6-2 6-3l-1-2Zm-1239 2c-2-1-21-2-22 0l11 2 8 1c3 1 6-1 3-3Zm-90 1-2 1 2 1 1-1-1-1Zm1106 1-2-1-1 1h3Zm-1118-1c1-1-2-1-9-1h-11l10 1h10Zm61-3c-4 0-7 1-6 2l7 1 6-1c0-1-3-2-7-2Zm11 0c-2 0-3 1-3 2l4 1 3-1-4-2Zm1289-1-2 1 1 2 2-2-1-1Zm-148-3c-3 0-3 1-1 2h3c1-1 0-2-2-2Zm-6-1h-31c0 3 24 4 30 1l1-1Zm-40 0h-8l5 1c2 0 4 0 3-1Zm-66 0c0-1-13-2-15-1s1 2 9 2l6-1Zm51-1c-2 0-3 0-2 1l4-1h-2Zm-30 0c0-2 0-2-5 0-3 1-3 1 1 1l4-1Zm-1233 0h-2c-2 0-2 0-1 1l3-1Zm1250 0c-2 0-3 0-2 1h4c1-1 0-1-2-1Zm-1161-3-1 1 1 2 2-2-2-1Zm76-3c-2 0-4 1-3 2l3 1 4-1c0-1-1-2-4-2Zm27 0-1 2 1 1 1-1-1-2Zm-10 1-5 1 5 1 5-1-5-1Zm-27-1-2 2h2l1-1-1-1Zm1286-3-1 2c0 3 3 4 5 1l-2-1-2-2Zm18-2c-2 0-3 1-3 2 0 2 0 2 2 1l3-3h-2Zm-8 0-2 2c0 1 1 2 2 1l1-2-1-1Zm-1442-5h-6l3 2 12 2c13 4 28 5 27 4l-6-2-4-1-11-2-15-3Zm108 4h-2c-1 0-2 0-1 1l3-1Zm1408 0h-2c-1 0-2 0-1 1l3-1Zm-1421 1c1-1 0-1-3-1s-4 0-3 1h6Zm1432-4c-3-2-5-2-8 0s-1 4 3 3c7-1 7-2 5-3Zm-1483-1c-2 0-3 0-2 1h5c1-1 0-1-3-1Zm-17-4c-2 0-3 0-2 1l14 2-5-1-7-2Zm82 1c-3-1-18-2-16 0l9 1c8 1 9 1 7-1Zm-131-11c-6-1-6-1-4 1l6 2 12 2c9 2 13 3 10 1-2-2-7-3-15-4l-9-2Zm143 0c2 0 1-1-5-1s-7 0-2 1h7Zm-36-5c-4-1-19-2-23-1s-3 1 0 1l15 1c7 0 10 0 8-1Zm-35-4c-1 0-2 0 0 1l4 2c3 1 3 1 1-1l-5-2Zm-6 0h-3c1 1 6 3 6 1l-3-1Zm-8-1c-4-2-5-2-4 0l3 1c3 0 3 0 1-1Zm-12-1-2-1-1 1h3Zm-25-5h-13l15 4c9 1 7-2-2-4Zm-58-5c-8-5-16-7-17-4l-6 1c-3-1-5 0-7 2l-7 4-5 2h23c2-1 8 0 13 3 3 1 15 0 14-2l-8-6Zm-34-3h-3l-1 2h3l1-2Zm213-1c-1-1-6-3-6-1l5 2 1-1Zm-166-22c-6 0-5 1 5 6 8 3 13 4 17 4l6-1-6-2c-4 0-7-2-7-2l-4-2-7-2-4-1Zm-25-30c-2 0 4 4 5 4l9 3 10 5 12 5 10 3 6 2 12 4c7 2 9 3 10 1 1-1 0-2-4-3l-19-7a151 151 0 0 0-24-8l-14-5-13-4Zm-21 25c-6-3-8-3-8-1 0 1 11 4 12 3l-4-2Zm158-3-10 1h-4l4 1h6l6-1c4-1 3-1-2-1ZM87 910c-4-2-6-2-5 0l3 1c2 0 4 1 4 3 1 2 3 4 5 4l8 4 5 2c2-1-1-5-4-6l-6-4c-2-2-5-2-5-2l-5-2Zm106 9 1 2 4 2-1-2-4-2Zm-20-4c5 2 10 2 6 0l-7-2-5-1 6 3Zm-24-10c-2 0-2 0-1 1l3 1c1-1 0-1-2-2Zm-55-14c-2 0-2 0 0 2 4 3 7 3 5 0l-5-2Zm71-1c-2-2-33-3-34-2-1 2 7 3 23 3 8 0 13 0 11-1Zm-38-3-2 1h4l-2-1Zm1084-44-1 3 1 4 1-4-1-3Zm-33-23c0-9 0-9-1-4l-3 9-2 4c0 2 4 4 6 2v-11Zm43-56c-4-4-5-5-3-2 8 13 14 32 15 50l1 12 1-16c0-15-1-17-5-28l-9-16Zm-63 2c-5 0-6 0-6 4s-7 15-13 19-14 7-18 7-4 1-3 7v7h11c10 0 13 1 21 5 9 4 9 4 10 1 2-4 3-7 3-23v-21c-1-5-1-6-5-6Z"
        clip-rule="evenodd" />
    <path fill="oklch(10% 0.07 257)"
        d="m885 1159 4 1h-7c-2 0-1-1 3-1Zm83-3 2 2-1 1-2-1 1-2Zm-210 0 6 2-11-1 5-1Zm-10-1 1 1-1 2-1-2 1-1Zm-29-3c0-2 4-1 10 1s5 3-1 2c-8 0-9-1-9-3Zm-116-8 4 2-3 1-4-1c0-1 1-2 3-2Zm9 0 3 2h-4c-2-1-2-2 1-2Zm32 0h3c0 1-1 2-3 2s-2-1 0-2Zm661-6 2 1-2 1-2-1 2-1Zm15 0c4-2 11-2 11 0l-3 1-8 1-5-1 1-1h4Zm20-2h9c0 2-6 3-10 2l-4-1 5-1Zm-868 0h7c3 0 3 0 1 2-3 1-8 0-8-2Zm935-5 6-1 3 1 1 1c0 1 0 2-1 1l-5 1-9 1-5 1c-2 3-22 1-22-1l6-1 8-1 7-1 11-1Zm-52 5 2 1h-3l1-1Zm-950-5h4l3 2-4 1c-6 0-9-3-3-3Zm-26-1c0-1 1-2 3-2 4 0 10 3 8 3-3 1-9 0-11-1Zm1046 0c3-2 5-2 4 0l-3 1c-2 0-2 0-1-1Zm-1028-2 2 1-2 1h-1l1-2Zm1046-1 2 1-2 2c-2 0-3-1-3-2l3-1Zm8-1c3-2 6-2 6 0l-2 1-4 1c-2 0-2 0 0-2Zm-1080-4c3-1 11 0 11 2 1 1-1 2-6 2-6 0-9-2-5-4Zm1128-2c9-1 6 2-5 4-9 2-32 2-31 0l25-3 5-1h6Zm-1160-8c4-1 5-1 5 2 0 1 1 2 3 1 4 0 5 2 1 3-3 1-3 4 0 3l3 1c2 2 5 1 5-1s0-2 3 0c6 4 4 5-4 4s-12-3-12-7c0-2-1-3-3-4-3-1-3-1-1-2Zm-11 4 5 4 5 3-7-1h-9c-3 0-2-3 2-4l4-2Zm-56-5 3-1 8 2a220 220 0 0 1 24 4h4l4 2c4 0 2 3-3 3-5 1-22-2-23-3l-3-2-7-2-5-2-2-1Zm1255 7c-5 2-10 2-10 1l4-2h6l3-1-3 2Zm-40-4 5-1c3 0 3 3-1 5-6 2-10-1-4-4Z" />
    <path fill="oklch(10% 0.07 257)"
        d="m339 1116 2 1h-3l1-1Zm1166-4-1 2c-2 1-2 1 0 1s2 0 0 1c-3 2-5 0-3-2l4-2Zm2 0c2-2 9-1 9 1l-2 1h-5l-2-2Zm19-2c3-2 3-2 3 0 1 3 0 4-3 3-2 0-2 0 0-3Zm-1219 0 2 1-2 1-2-1 2-1Zm1234-3c2 0 2 0 0 1l-3 3-3 1c-1-1 0-2 2-3l4-2Zm-1264-4h2l7 1 2 2c0 1-7 1-9-1l-2-2Zm1289 1h5c1 1 0 2-2 2-2 1-4-1-3-2Zm-1303-5 2 1-2 2c-2 0-3-1-2-2l2-1Zm1366-8v1c-2 2-9 4-9 2l4-2 5-1Zm-1415-28c-1-1 0-1 3-1 5 2 6 2 1 2l-4-1Zm1469-17c2-2 4-2 4 0s-1 2-2 2l-2-2Zm32-14v4c-1 2-2 2-2-1l2-3Zm-183-9h3l2 1h-2l-3-1Zm-1036-4 3 1c1 2 0 2-4 0-2-1-2-1 1-1Zm820-3h2l-2 2v-2Zm-1170-3c1-1 4 0 4 2 1 1 0 1-2 1-3 0-3-1-2-3Zm1157 1 1 1-2 1c-1 0-2 0-1-1l2-1Zm247-2c2-2 3-1 3 1l-1 2c-2 0-3-2-2-3Zm12-1 1 1-2 2-1-2 2-1Zm-1075 0 1 1-1 1-2-1 2-1Zm1082-13c8-2 21-2 29 1 3 2 9 3 11 3 3 0 4 1 4 4l-1 2c-1-3-6-2-7 0-1 3-6 4-6 2s-2-2-5-1l-5-1c0-2 2-2 4-2 3 0 4-1 4-2l-5-1c-3 0-7 0-19-3-6-1-7-2-4-2Zm-1102 10 2 2-1 1-2-1 1-2Zm1101 0 1 2-2 1-1-1 2-2Zm-1402-2 4 1c1 2 0 2-3 0-4-1-4-1-1-1Z" />
    <path fill="oklch(10% 0.07 257)"
        d="m1585 1006 2 1-2 1-1-1 1-1Zm-1431-4c2 0 5 2 5 3-1 1-7-1-7-2l2-1Zm1337 1c2 0 2 1 1 1h-3l2-1Zm-1344-3 1 2-1 1-1-1 1-2Zm-5-2 1 1v1l-2-1 1-1Zm1150 0c7-2 20-2 21 0s-5 2-15 2c-11-1-12-1-6-2Zm-1163-4c1-2 3-2 7 2l4 3-4-1c-5-1-8-3-7-4Zm321-2c7-1 18 0 20 2 1 1-7 4-9 3l-5 1-6-1c-6-3-6-4 0-5Zm1345-119c0-1 6-1 7 1l-3 1-4-2Zm-11-5c1-2 3-1 3 2l-2 2c-2-1-3-3-1-4ZM193 771c0-1 2-2 7-1 3 2 4 4 0 4-3 0-7-2-7-3Zm1288-38c1-1 3-1 6 3s3 6 0 6-8-7-6-9Zm-28 3h8c1 2-6 6-8 5-3-1-3-3 0-5Zm-36-4 2 2c0 2-1 2-2 2l-1-2 1-2Z" />
    <path fill="oklch(10% 0.07 257)" fill-rule="evenodd"
        d="M1416 722c1-3 2-3 6-1 5 2 8 9 3 9l-6-3c-3-3-4-4-3-5Zm4 0-2 1 2 1 2-1-2-1Z"
        clip-rule="evenodd" />
    <path fill="oklch(10% 0.07 257)"
        d="m1745 720 16 2 25 5 4 2h-5c-4 1-24-3-31-6l-6-1-3-2ZM245 684c5-2 13 0 13 2 0 1-2 2-8 2s-7 0-7-2l2-2Zm-32-16c13-2 15-3 15-1 0 4-23 9-40 8-8 0-12-1-12-2 1-2 6-3 17-3l20-2Zm252-54c0-2 1-3 2-2v4c-1 2-2 3-3 2l1-4Zm-326 17 1 1 2 2 1 1-4-2c-2-1-2-2 0-2Zm440-63 1 2-1 1-2-1 2-2Zm1012-109 1 2-1 3-2-2c0-2 1-3 2-3Zm-25-17-4 5-6 5 4-6 6-4ZM217 400c0-2 1-2 3-1 3 2 7 7 5 8s-8-4-8-7Zm431 56h26c2 0 2 1-3 6-3 3-7 3-8-1-3-4-2-3-5-3l-2 4c0 2-1 2-4 2-4 0-5-1-5-4-1-3-1-4 1-4Zm32-1 5-1c5 0 6 6 2 8-2 1-3 0-6-2-2-2-2-3-1-5Zm-19-18c1-3 8-3 9 0s-2 6-6 6c-3 0-5-3-3-6Zm17-4c3-4 10-1 8 5-1 3-4 4-7 2-3-1-4-5-1-7Zm-143-8c2-3 2-2 1 6 0 9-4 19-6 19-3 0-3-2 1-9l4-10v-6Zm-44 10c2 0 15 13 14 14l-8-7-6-7Zm88 1c0-2 4-3 6-1 1 1-3 4-5 3l-1-2Zm1-13c1-1 4 1 4 3l-3 1c-2 0-3-3-1-4Zm47-27c3-4 4-4 2 0 0 2-4 5-7 7-8 3-9 3-3-1l8-6Zm-3-29c-1-7 1-5 3 1 3 13 0 25-9 31-8 6-9 4-1-2l7-9c2-5 2-14 0-21Z" />
    <path fill="oklch(10% 0.07 257)"
        d="M616 375c-1-5 0-8 2-3v19l-3 3c-2 0-2-1-1-1 3-2 4-11 2-18Zm858 0h3l8 1c6 0 6 1 0 3l-5 1-3-2c-2 0-3-2-3-3Zm-3-12c1-1 6 1 6 3l-2 1c-2 0-5-3-4-4Zm23-20 5 3 4 3-5 1-6 2c-2-2-1-7 0-8l2-1Zm135-4 2 2c0 2-3 2-4 0 0-1 0-2 2-2ZM44 367l1 2 2 2v2c-1 2-4-1-4-4l1-2Zm491-19c2 0 1 17-1 22-2 4-7 9-8 7l2-6 4-14 3-9Zm-5-5c2 0-1 16-4 22-2 4-3 5-3 3l3-12a429 429 0 0 1 4-13Zm65 23c2 0 2 0 1 1h-3c-1-1 0-1 2-1Zm0-6c8 0 10 1 5 2s-9 1-11-1c-1-1 0-1 6-1Zm9-10 1 1-2 1-1-1 2-1Zm-8 0c2 0 3 0 2 1h-4c-1-1 0-1 2-1Zm1-59c2-5 1-5 7-2l9 2 4 1c1 2-10 1-14-2-3-2-3-1-6 4-5 8-17 18-24 20-4 1-8 4-13 9l-8 9c0 1-3 2-7 2-6 0-6-1-7-4 0-2-1-4-3-4-3-1-3-1-1-2 3-1 7 0 9 4 3 3 6 4 7 1l3-2c2 0 8-5 7-5l-5 2c-2 1-3 2-4 1l14-10 10-4c7-4 18-14 22-20Zm-13 36c1-1 4 2 4 3 0 3-4 4-7 2-3-1-3-3 0-4l3-1Zm-5-9c2-2 8-2 12 0s5 4 1 3l-9-2-4-1Zm-15-47c1 0 1 1-1 2a134 134 0 0 0-27 30c0-3 5-11 11-18l5-9c-2 0-11 13-18 25-5 10-6 11-6 8 0-11 18-35 25-33l6-2 5-3Z" />
    <path fill="oklch(10% 0.07 257)"
        d="M585 291c10-7 13-7 8-1-8 10-15 17-17 17l6-7c8-9 10-12 3-7l-6 3c-1 0 2-3 6-5Zm12-13-4 1c-9 2-18 8-20 13l-3 4 2-6c1-4 4-6 9-9l12-3h4Zm670 85c1-1 8 0 8 1 0 2-6 3-7 1l-1-2Zm-4-7h4l9 2c6 0 7 0 5 1-3 4-20 1-18-3Zm-1-13c1-1 1-1 2 1 1 3 6 5 8 4h2c1 2-3 3-7 2-3-1-6-5-5-7Zm67-11c2-3 4-3 5 0 1 1 0 2-2 2s-3 2-3 5l-2 3h-3l1-2c1 0 2-1 2-3l2-5Zm-45 0 4-1 7 1c3 0 3 1 1 2-4 2-11 1-12-2Zm-1-13c1-2 5-2 8 0v2c-2 1-9 0-8-2Zm-851 21c0-2 2-1 7 2l7 4c2 0 4 2 3 3-2 3-17-6-17-9Zm16-5c0-2 4-2 6 0 2 1 1 1-1 2-3 1-5 0-5-2Zm-11-27h3l5 1c4 1 4 5-1 5-4 0-9-4-7-6Zm2-12c2-2 14 0 17 2 2 2 2 2-1 3-1 1-3 0-4-1l-8-2c-3 0-4-1-4-2Zm810-30c0-2 1-2 4-1l1 2c-1 1-5 0-5-1Z" />
    <path fill="oklch(10% 0.07 257)" fill-rule="evenodd"
        d="M837 2c1-2 2-2 2 0s1 2 8 2l11-2c2-2 3-2 7 0h5-1l-1-1c1-1 2 0 3 1h17a419 419 0 0 1 66 1c-1-1 1-1 5-1l5 1 4 1 4-1a242 242 0 0 1 53 2l6-1c2 2 18 2 18 1h2l37 2a3671 3671 0 0 1 196 11c3-2 26 0 29 2h14l23 2c11 0 19 1 20 2l2 1h23l7 2 1 1c1-2 23-2 26 0a252 252 0 0 1 49 4c1 1 0 2-2 2s-3 0-2 1c3 1 2 3-2 3h6l10 1h12l17 1h14c0 1 3 2 8 2l10 2h4c1-1 2 0 3 1l1 4 8-2c3-2 4-1 8 1 3 1 5 2 6 1 1-2 8-1 8 0l-3 3-3 3h4l6 1 2-1-2-1-2-2c0-2 2-3 16-2l16 2 4 2c2 1 2 2 0 2-5 1-2 2 6 3 7 0 8 0 9-3 0-2 1-2 6-1l7 2c2 2 3 2 4 0 1-1 2-1 2 1h2l4 1 3 1h6l4 1-8 2h4c5 0 5 0 5-2 0-1 3-1 13 2h8c1-1 1-1-1-1s-3-1-2-2 8 1 10 3h2c0-1 10 1 11 3l19 2c24 0 26 1 32 4 6 2 6 4 2 6-5 2-30 1-34-2h-4c-1 1-3 2-4 1l-3 1h-4l-8-2-6-1c-1-2-4-2-3 1s0 2-3-2c-2-2-3-3-5-2-7 4-10 5-12 4s-2-1 0 1l7 2 3 1c0 1-1 2-4 2-5 0-5 2 1 3 3 1 5 0 6-1h-1c-2 0-2 0 0-2h8l8 2 11 2c11 1 11 1 9 2s-2 2 0 2l8 2 12 2 13 2c3 1 4 1 4-1s0-2 1 0l3 1h1l2 2 2 1c0 1-2 2-6 2-3 0-2 2 2 3s4 6 0 6l-4 2-2 1c-2-3-10-5-12-3h-7c-6 0-8 2-3 3 2 1 3 2 2 3 0 1 0 2 1 1s3 0 4 1c2 2 13 4 14 2v-1l-2-2c-1-1 0-1 1-1l3 1c0 3 6 5 9 4l2-3c0-1-1-2-2-1l-4-1c-1-2-1-2 3-2s5 1 4 3l1 3 4 1c4 1 4-1 0-3-2-1-4-7-1-7l1 1 3 2 3 2c1 1 2 2 3 1 2 0 3 1 5 4 2 4 2 5 0 8-2 4-2 4 1 2 3-3 6-2 9 3l5 5 1 1 1 3c1 2 2 2 2 0 1-2 6-2 6 0s5 8 8 8l1 1 2 2c1 0 3 2 4 5l2 7v5c-1 3 0 5 3 11l5 14c0 6 4 22 5 23l-1 4-1 4-2-3c-2-3-2-3-2 3 0 5 1 8 3 11 4 4 5 8 2 8l-1 2c0 2 1 3 2 3s2 1 2 4l-2 4 3 3 2 3-2 1 2 1v6c2 1 2 2 2 5s0 5 2 7 2 2 0 4c-2 1-2 2 1 6l2 6-1 4c-1 1-1 2 1 2l1 9 1 10c1 2 2 5 3 18 1 5 1 6-1 5-2 0-2 0-2 2l3 2c1-1 1 0 1 2-1 3-1 3-4 3s-4 0-3 2h5c5-1 5-1 2 3-2 2-3 3-1 2 3-1 7 3 6 6v6c1 3 2 4 4 4 2-1 2-1 0 1s-3 3-2 4l2 13c1 5 3 9 3 5l1-2c2 0 3 5 2 7v3c2 5 2 11-1 16-2 6-3 6-3 4-2-3-6-7-6-5l2 4c3 3 2 7 0 6l-3 3c-3 3-1 6 2 6 2 0 1 11-2 12-1 2-1 2 1 4s2 2 0-1v-2c2 0 3 4 1 5-2 2-3 10-1 12 2 1 1 30-1 31-1 1-1 1-1-2 0-4-2-7-3-7-2 1-2 16 0 16l3-2c1-1 1-1 1 2v4l1 2c0 3-2 4-3 1h-1v8c-2 1-2 2 0 4 2 3 2 9 0 7l-6 8c0 3 0 4 2 1 1-2 2-2 4-1 3 2 4 3 1 5-1 2-1 3 2 5l5 2c3 0 2 3-1 4s-4 4-3 7c0 3 0 3-3 2-5-2-6-3-2-6 3-3 3-3 1-3-5 1-5 0-2-3 2-2 2-3 0-5-3-3-6-3-6 0l-1 2c-2 0-1 2 1 2s2 1 0 1v2c2 1 2 1 0 3v2c1 0 2 1 1 2l1 2c2 0 1 3-2 4-2 0-2 1-1 2v7l-1 2c-2 1-2 1 1 1 2 0 3 1 3 3l-2 3c-3 0-3 2-1 3v1c-2 0-2 0 0 4v6c-1 3 1 7 3 6 1 0 2 0 3 2l-1 2-1-2h-1c-3 1-1 19 2 19l2-2c1-1 2-2 4-1 3 1 4-2 2-4-1-2-1-2 1-2 2 1 3 6 4 22l1 18c1 4 1 5-1 6-3 1-2 6 1 6 2 0 2 0 2 3l-1 3c-1-1-1 0-1 2v2l-1 3 2 3 1 4c0 2 0 4-2 4s-2 2 0 3c2 0 3 9 1 10v4c1 2 1 6-1 26l-2 9c-2 2-2 2 1 4 2 2 3 2 1 5s-2 4-1 6c3 2 4 11 2 13l-2 5-2 4c-2 0-3-1-3-4 1-5 0-6-2-4-1 1-2 1-2-2l-1-3-1 3c1 5-1 7-4 6l-2 1c0 2-5 7-7 7-2-1-1-10 2-10 6-1 7-1 7-5 0-5-2-6-5-1l-4 4c-3 0-4 5-3 13l-1 6c-2 0 1 3 4 3l7 2c3 0 6 2 8 3h5v-4c-2-3-2-3 0-4 1 0 2-2 1-3 0-2 0-3 2-5 4-3 5-2 4 3l-2 9c0 5 0 5 8 5l9 2c2 2-3 7-8 9-4 1-5 2-6 6l-2 4-1-2v-4c-1-3-14-4-20-1-3 2-3 2 5 3 5 0 8 1 9 2 1 3-5 9-8 8l-5-3h-3l-5 1c-4 0-7 4-6 7 1 1 0 3-1 5l-2 5-2 2v4c2 2 1 3 0 3l-2 1 1 1 1 5c-1 4-1 4 2 5s3 4-1 8c-4 3-13 7-17 6l-5 3c-2 3-3 3-4 2-1-2-15-4-15-2s-5 4-7 3c-3-2-3-2 0-2l2-1c0-2-3-3-4-2l-3 1-5 1-4 1h-3c0 2 2 3 8 4 10 0 18 2 20 3l6 2 6 2 2 1h4l12 2c13 1 13 2 12 5-2 4-10 6-23 6l-12 1-4 1h-3l3 1 6 2c4-1 10 1 11 3 0 1-1 3-4 4-6 3-10 3-11 0l-4-1h-28c-11-2-21-4-23-3l4 1 16 4 14 3 3 1 5 1-1 1c-2 1-2 2 0 3 2 3 2 4-2 4h-7l-5 1-6 2-8 2c-7 2-3 3 10 3 9 0 5 2-6 3-13 2-61 2-77 1-12-1-12-1-16 3l-3 3 6 1a206 206 0 0 0 35 1l14 1c16 0 17 0 17 2s-6 2-23 2l-44-2h-12l-15 13 10-1c7 0 9 0 11 2 1 1 1 2-3 2h-14c-9-1-10 0-18 5-15 9-18 10-21 8-2-2-2-3 8-9l8-4h-5c-5 0-9-2-7-4l11-1c10 0 10 0 15-5l6-6-7-1-7-2c-1-1 2-2 15-2 6 0 9-1 11-3l4-4h-3l-8-2c-7 0-4-2 5-3l9-1c-1-2-21-1-22 0-2 2-6 2-11 1-4-1-4-1-1-2l7-1h5l6-2 6-1 2-1h7c3-1 1-2-9-2-11 0-12 0-8-1l15-3 6-2h6c5 0 10-3 10-6l4-6c5-6 5-7 0-7l-7-1c-2-1-2-2 2-2 7 0 5-1-6-2-14-2-16-3-14-5h-2c-1 2-3 2-5 1l-8-2-2 1 2 3 4 2 7 4 4 3-4 1c-5 2-20 1-24-1-3-2-3-3-1-5 3-2 3-3-1-6-2-3-5-4-6-4l-1-2 2-1h2l4-1h4l4-2 2-2c0-2 3-2 3 0 0 1 1 1 2-1s4-2 8-2h28l24-1c1-1-3-2-13-2-13 1-18 0-18-2s18-4 28-4h7l2-5 1-6-8-5c-6-2-8-3-10-2l-4 1-15-1c-12 0-18-1-16-3l13-2h13l-10-5-17-6-13-5c-7-3-8-3-8 0 0 2-1 2-11 2-14 1-18 0-18-3 0-2 2-2 13-1l13-1-2-1-8-3c-4-2-6-2-9-2-2 1-14 2-27 1-22 0-28-1-41-6l-7-1c-5-1-6-2-6-4l7-1c10 1 12-1 4-5-5-2-6-4-6-6 1-2 0-2-4-2a2593 2593 0 0 1-47 0c3 1 3 1 1 2-2 2-6 1-10 0-3-2-3-4-1-4 4 0 1-2-4-3l-4-2c0-2 11-1 21 1l4-1-2-1-3-3c-2-2-3-3-9-3-8 0-11-1-11-3h17l1-4c0-3 0-3-2-3-3 0-2-2 1-3l14-4 11-4c5-1 10-3 11-5l3-2h-3c-5 0-9 2-9 4 0 1-3 2-12 2-10 0-12 0-18 3l-9 5c-3 3-26 9-33 9-9 0-28-5-35-9-5-3-9-3-9 0 0 1-12 1-13-1-2-2 2-4 9-4 8-1 10-2 5-4l-17-1c-19 0-27-1-31-6-3-3-4-3-9-2-6 2-9 0-6-4 2-4 2-4-1-2-3 3-11 8-13 8s0-4 3-7c4-4 4-5-3-2l-8 2c-4-1-4-1 2-5l10-8 6-4c2-1 3-2 2-3l-11 5a159 159 0 0 1-13 6c-4 2-13 5-14 4v-3l26-21 7-4c2-1 2-2 0-2l-3-1h-3c-2-1-4-1-7 3l-7 4-12 5c-14 9-28 15-29 13-1-1 5-12 7-12l10-9-7 5-7 4h-4l-11 4c-6 2-8 3-9 1h-1l-5 4c-5 2-6 2-3-1 2-2 2-2-1-2-4 1-4 1-1-1l5-4c3-2 1-5-2-4-2 1-3 0-2-1l3-1 3-1c0-1-1-2-4-1-5 1-5-1-1-3s5-4 1-4c-3 0-5 1-6 5-1 3-2 3-3-1-1-3-3-4-4-4-3 2-4-1-1-4s6-3 5 0 1 3 3 0 2-3 0-3l-2-1 2-2 3-2 2-2 3-1c1-1 0-1-3-1l-3-1 4-1c4 0 5-1 4-3l3-3 2-2c-1-1 0-2 1-2l4-2c1-3-6 1-8 4-1 1-2 2-3 1 0 0-2 0-3 2l-3 1-3 1c-1 2-5 4-8 5l-10 5c-7 4-10 3-5-1l3-4-4 3-4 3c-1-1 0-2 1-4l2-4c0-1 1-2 2-1l2-1c-1-1 0-2 1-2 1-1 2-2 1-3l4-3 4-4c0-1-1-1-5 1l-6 4-5 3c-3 3-5 3-6 1 0-1-1-1-3 1-1 2-3 3-4 2l-4 3c-3 3-7 5-7 3s4-6 6-6l2-2 2-1 2-2 3-4c3-1 5-5 2-5l1-2 4-3 2-2c0-3-2-3-10 3l-8 4-2 2c-1 2-2 2-3 2l2-4c3-3 1-3-5 2l-6 3 8-10 9-10 2-3c2-1 2-2 1-2l-4 3c-3 4-8 6-10 4l8-10 8-8c-1-1-4 2-7 5l-7 6-3 2-15 10v-2l-1-4v-6l-1-2-2-2c-1 0-1-2 1-4 2-4 2-4 0-2-3 1-3 0-4-4v-6l-1-2c-3-1-3-6 0-9 2-2 2-3 0-4h-1l-4 2c-5 0-5-2-1-6l2-3-2-2c-3-3-3-3-4-1-3 5-4 3-2-2l1-4-1-3c0-1 0-2-3 0-4 1-4 0-2-5l-2 2-5 3-1 1-2 1c-2 0-3-1 0-4 1-1 1-1-2-1-2 1-3 1-3-1l-1-1c-2 1-5-2-5-5 0-2-1-4-3-4-3-1-4-4-1-4l1-2 2-4h-1c-2 0-3 2-4 4 0 2-2 3-5 4-4 1-4 0-3-3l2-7c1-5 0-5-2 1l-3 4-5 2h-5l-3-1c-1 0-2-1-2-4l1-4 1-7-1-8c-2 0-2-6 0-7v-1c-1 0-3-2-4-5l-2-5-1 4c-1 4-3 6-7 7l-2 2-3 6-4 8-2 6-1-22-1-22v2l-1 2v3l-1 2c-1-1-1 0-1 3 0 5-3 14-5 14l-1-6-1-10c-1-10 0-30 1-30l1-2c-2-3-4 1-6 10l-1 5-1 7-2 3c-2-2-2-19-1-21s2-10 2-24c1-5 1-8 2-7 1 2 1 1 1-9l-2-11c-1-2-1-2-1 2v5l-1-6v-10l-2-7c-1-2-2-5-3-4l-3-6-3-9-2-9c-1-5-1-6-3-5h-2l-2-1 1 7c2 7 2 22 0 22l-1-2-3-6-3-3v10l-2 17-1 7-1 4-3 3c-2-1-6 9-5 13 0 3 0 4-1 3l-1-2-4-8-3-12-2-7c-2-2-2-11 0-11l2-5 1-6 1-3c-1-1 0-4 1-6 3-4 6-6 4-2-1 3 0 2 5-4l3-7 2-8c4-6 6-8 4-3-1 5 0 4 2 0s4-11 6-23l1-9 1-8c-1-2-1-3-2-1 0 4-2 2-2-4-1-12-3-26-5-27-1 0-2-1-1-3l-2-5c-1-1-2-5-2-11l-1-9-1-2-1-2c-3 0-3 1 0 4 2 3 3 22 1 22l-2-2-1-2-1 4a86 86 0 0 1-4 28c0 10-3 17-10 23l-6 8h1c1-2 2-2 3-2 2 1 1 6-1 7s-9 15-11 20l-2 4c-1 2-1 2 0 0l-1-2-1 1-1 1 2-8c3-6 3-6 0-6-3 1-3 1 2-15 2-7 2-10 0-25a150 150 0 0 0-10-45v6c3 12 5 39 3 39l-1 2c1 2 0 3-1 4l-1-8-3-22-3-6-2-6-3-3-2-2v-2c-1 0-3-2-4-5l-15-27c-2 0-5-9-4-12 0-2 0-3-2-3s-5-6-5-14l-2-11c-2-6-1-40 1-41l1-4c-1-1 0-7 2-13l3-17 2-11 1-3 1-6c3-10 4-37 2-47l-2-8-1 9c0 10-2 10-3 2l-1-6-6-22c0-2-1-5-3-7-2-4-3-5-3-8l-1 1c-1 1-2 1-3-1-3-5-5-13-5-15 1-2 0-3-1-4l-2-2-1-2-1 3 1 4 1 4c0 4 3 11 6 15 2 1 4 5 5 8l2 9 1 13v5c0 3-2 35-4 43a209 209 0 0 1-8 28c2 5-9 33-13 33-1-1-5 5-5 8l-1 3-5 29-1 5c-1 1-3-14-3-23 0-12 0-13-2-8a94 94 0 0 0-2 51v1l-2-5-2-6c-2-2-5-16-4-22 0-5-1-6-3-6s-2 0 0-2c2-1 2-2 1-6a75 75 0 0 1 0-21l2-5c2-4 2-6 1-6v-3l1-3c-1-1 3-10 6-14 3-2 3-2 0-4-1-1-2-2-1-4s0-3-1-3c-2 1-3 3-5 15-3 14-6 22-7 22-2-1-3 1-4 14l-3 9c-1 2 0 29 3 39l2 16c0 6 1 9 4 10l2 5c0 4 5 21 6 19l5 10c5 12 8 30 5 35v13c-2 4-2 5-2 3l-2-4-2-4c0-3-2-5-4-6-3-1-4-2-4-4 0-4-3-9-3-6l-1 1-1-4c1-1 0-4-1-5v2l-1 5-1-1-6-7-5-7-3-8-5-13c-2-6-4-6-4 1l-2 5c-1 0-1 11 1 12l1 7 1 6c1-1 1 0 1 2l1 7 1 5 1 3 8 18 8 18v20c-1 29-1 30-4 32l-2 2-1-15c0-10-1-15-2-15l-1-3c1-1-1-3-3-5l-4-4 4 10c2 8 3 11 2 20 0 6-1 13-3 16l-2 7-2 4c-2 4 0 4 2 1l4-3a578 578 0 0 1-5 28c-2 6-4 3-4-5 1-10-1-12-3-4 0 4-2 6-2 6-2 0-4-4-8-13l-5-8c-3 0-4-6-3-19 0-10-1-12-2-13-2-1-3-2-2-11v-10l-4 9c-2 9-5 13-4 5v-2c-2 3-7 23-8 32 0 7-1 9-2 6 0-3-1-2-1 2-1 5 0 13 3 32l2 12c0 10 3 20 8 40 4 15 4 19 1 20-2 1-1 9 2 16 3 6 2 9-1 5l-4-6c0-2-1-3-2-3s-2 0-2-2h1l1-2-2-1c-1 0-2-1-2-4l-2-5c-2 0-1 9 0 10l1 3c-2 3-13-8-13-13l-3-6-3-9-2-6c-1 0-2-3-2-7 0-5 0-6-1-4-1 3-1 3-3 1l-3-5c-2-3-2-2-1 2l-1 5-2 8v18c1 5 0 6-2 6l-4-2-1 1h-2c-2-2-2-2-2 0s-1 2-3 0l-3-4-8-19-1-1c-2 0-2 0 0 4 1 4 2 5 3 17v4c-3-2-4-2-3 2 0 1 0 2-1 1l-2-2-2-5-6-10c-5-10-5-9-6-8l3 7c4 9 5 15 3 16l-2-1c0-1-1-1-2 1-3 2-4 2-6 0h-2c-1 2-1 2-2 0h-3c-1 1-2 2-3 1l-1 1h-1c-2-2-2-2-3 0h-2c-1-2-1-2-2 0h-3c-2-2-2-1-4 1-1 2-1 2-1-1s-1-3-1-1c-1 3-3 2-4-3-1-6-3-6-2 1 0 5 0 5-2 4-4-2-4-2-4 2v4l-2-1-2 2c-3 3-3 3-3 0 0-2 0-2-1 0-1 1-3 2-4 1-2 0-2 0-1 2s0 3-3 1-3-1-3 1c0 4-3 5-6 2-1-1-2-1-2 1l2 1-3 3-4 4c-2 0-12 11-12 13l-3 4-3 4c-1 1-2 3-4 3-1 1-2 2-1 4 0 2 0 2-2 2l-2 2c1 1 0 2-1 3-2 0-3 1-2 5 0 6-2 13-4 13v4l-2 4-1-2c1-2 1-2-1-1-2 2 1 7 4 6l2 1c0 3-4 7-6 6h-1l1 3-1 2v1l2 4 1 8c1 6 1 7-1 7l-2 1 2 1 2 2c0 3 0 4 2 6 3 2 3 6 0 6l-7-4c-7-6-7-4 0 6l5 8c-1 1-9-3-12-6l-20-16 4 5 9 12 2 1c3 0 3 4 0 4-1 0-1 1 2 2 6 3 17 18 13 18l-4-2c-3-4-13-8-12-6v2c-2 0-10-6-10-8l-2-1-7-5c-2-3-5-5-6-5l-5-3-4-1c0 1 1 2 3 2l2 3c0 3 1 3 3 2 2 0 3 0 3 2l2 4c3 1 6 4 7 8l1 3-4-3-5-1 5 3c5 3 6 6 1 6l-7-4-6-4c-3 0-9-3-12-7-2-2-4-3-5-2-2 1-2 2 0 3 2 2 2 4-1 3-2-1-2 1 0 3s3 2 4 1c1-3 5 1 5 5 0 2 2 4 4 6 3 2 6 12 3 12l-7-3-7-3-1 5c-1 6-1 6-9 10-7 3-9 4-18 4-14 0-27-3-34-7s-7-3-1 2l4 6c-1 1-1 1-10-3-5-3-7-2-7 1 0 6-2 8-12 12-9 3-10 3-26 3-20-1-29-5-51-20l-8-5c-2 0-9-8-9-9 0-2-8-10-10-10l-1 1 23 26c3 0 8 6 7 7l-4-2c-1-2-3-3-3-2-1 3-3 2-6 0l-10-9a214 214 0 0 1-23-20c-4-3-4-3-3 0l2 5 4 7c5 5 10 12 15 21l4 6c4 1 2 3-2 2-5-1-15-9-26-21-14-15-26-26-27-24 0 2-1 3-2 3-1 1 3 6 9 11 9 10 13 15 13 20l3 4 2 3 3 4c3 3 3 5 1 5-3 0-21-12-33-22a316 316 0 0 0-22-16c-2-1-1 1 4 5a176 176 0 0 1 21 24c2 2 3 5 1 5s-19-16-34-30l-15-14h-9l-10 3-6 3-8 1c-4 1-4 1-1 4 3 4 20 15 29 19l12 6c3 3 6 3 15 4l10-1c-11-9-14-11-16-10-2 2-17 1-17-1l7-1c10-1 10-2-5-12-10-7-13-10-10-10 2 0 14 8 15 11l3 2 5 4 7 5 11 9 8 6 5 3-4 2-6 2-12 4 2 3c6 6-3 5-14-2-5-4-16-5-19-3l-7 2c-2 0-3 1-3 3 1 3 0 3-7 3l-9 1a33 33 0 0 1-30 1l-4-1c-3 0-17-7-17-9l-8-1c-6 0-8 0-10-3s-2-3-9-3l-9 2 8 8 8 9 2 2c1 0 2 1 2 3s0 2-5-1c-9-5-14-9-20-15-7-5-7-5-15-4l-9 1 6 7 7 6h9c10 0 13 2 3 3l-6 1c0 3 7 6 13 6l15 1 15 2c6 0 8 1 8 2 1 3-5 5-11 5l-7 1c-1 1-1 1 3 2 6 1 8 4 2 5l-12 3-21 3c-13 1-18 3-11 4 4 1 4 1 3 3l-5 2-11 1c-23 4-82 8-86 5-4-2-1-6 3-7 4 0 15-3 15-4H38c-19 0-25-2-25-7 0-3 0-3 16-5 12-2 12-2 12-5l-1-3-1-2 2-1c2 0 2-2 0-3v-3c1-2-5-5-12-7l-10-5C0 793-4 786 7 786l5-2 22-2c3 0 3-1 2-3s-3-3-6-3c-5 0-5-2-1-3 3 0 4-1 5-5l-1-8c-2-3-2-6-1-9v-4c-2 0-4-7-3-13v-11l-2-6c-2-4-2-5-3-3s-1 2-2-1c-3-6-2-9 2-6 3 4 4-2 1-13-2-8-3-9-4-4-1 3-1 3-3-1v-7c1-2 1-2 2 1l2 3c1 0 0-10-3-12-2-3-2-5 0-7 2-1 2-2 1-3v-5l-2-4c-3-1-3-2 0-3 2-1 2-2 1-3l-1-3c1-1 0-3-1-5l-2-7-4-31c-2-11-2-22 0-23v-3l-1-6c1-3 0-7-1-9v-4l2-4 1-3c3 1 4 16 3 20-2 3-2 5 0 7 2 3 3 4 4 2l1-1c2 2 4 9 4 12s2 7 4 7 1-8-1-10c-2-1-1-8 1-9s2-2 0-4l-1-5c0-2-1-3-2-3l-1-2c0-2 0-2 1-1 2 3 3 2 2-8-1-6-2-8-3-8l-1-2 1-2c2 0 1-10 0-13l-1-12-1-29c-1-24-1-30 1-33 1-1 0-2-1-3-3-2-3-4 0-7 2-3 2-3 0-3s-3-7-1-12v-8c-1-5 0-6 1-8 2-1 2-2 1-2-2-1-2-4 0-5l-2-5-4-4 3-4c2-3 3-4 1-9l1-7 1-6c-1-10 0-15 2-15s2 0 0-1c-3-1-3-17 1-22 2-3 2-4 1-6-1-1-2-3-1-4l-1-4c-2-1-1-10 1-24l2-19c0-6 1-8 2-7 2 0 2-1 1-3l1-8c2-3 2-5 1-6s-1-2 1-4 4-10 4-16c0-2 1-3 2-3 2 0 3-1 3-3 0-4 2-6 4-3h1l3-9v-1l-1-1c1-2 4-1 5 2l1 1 2-2v-1c-1 0-2-2-1-3 0-2 0-3-2-3v-4l-2-1 2-1 3-2c0-1 1-2 2-1l1-3v-5l2-2c0-2-4-1-6 1-1 2-1 1-1-1l3-5c2-1 3-1 4 1l2 1 1-1c5 1 6-1 6-8l1-3 2-2 2-3c3-3 2-4-3-4-4 0-11-3-11-5 0-1 3-2 4-1 1 2 10 0 10-1l3-1 6-1c2-1 4-2 5-1 1 0 3 0 4-2 2-2 6-2 9 0 1 1 2 0 5-2l3-4 1-3v-3c-1 0-2 0-3 2l-3 2-2 1-3 1c-1-1-2-2-1-4 0-1-1-2-12-2-12 0-16 1-11 3l2 2c0 1 0 2-1 0-1-1-5 2-6 6l-2 1-3 2-2 1 2-4c3-2 4-4 3-5h-2l-1 1c0-1-1-2-2-1l-4-1-1-1 2-2 3-4c2-1 3-4 3-5 0-2 1-3 4-3l4-2v-4c0-1 1-2 3-2 1 0 2 0 0-1v-4l3-3v1l-2 2c0 2 4 1 7-2l5-3 8-2c5-1 10-4 10-7h-10l-11-1c-1-1 12-4 15-4l2-1 3-2c3-1 4-1 1-3-3-4-2-4 6-5l7-1 8-2 7-2h-6a576 576 0 0 1-46 3c0-1 13-4 19-4l14-2a984 984 0 0 1 31-7c1-2 1-2-2-1l-10 2c-7 0-10-2-6-5 9-7 24-11 43-11l12-2h-2c-2 1-2 0-1-1l6-2 16-2c10-1 12-2 11-4s1-2 9-4l14-3 17-4 19-3c5-1 6-1 6 1s-1 3-2 3l-3 2-4 2c-2 0-2-1-1-2h-3l-9 1-7 2-7 2-3 2h4l5-1c1 1 3 0 5-1 4-2 11-4 9-2-1 2 17 1 24-1l4-1-3-2-4-3-2-1c-4 0-2-2 2-3h12l-2 3v1l-1 2c-2 3-1 4 6 3 5-1 6-1 6-3s-1-2-2-2c-2 2-7 1-7 0 1-1 1-2 2-1v-2c-1-3 0-3 24-5l37-3 18-1 17-2 73-4 40-1A3263 3263 0 0 0 729 6c3 2 0 4-7 4l-6 1 8 1c8 0 9-1 8-4 0-2 1-2 3-2h3c0-1 4-2 8-1l9-1h10l11-2c4-2 4-2 3 0 0 2 0 2 2 1 3-2 11-2 11 0l-10 2c-12 1-12 2-1 2 6 0 8 1 8 2h1c1-1 3-2 4-1l2-1-2-2c-3-1 1-3 5-3 3 0 4 0 2 1-1 1-1 1 1 1l4 2h2l-1-2-1-1 6-1 8-1h8c3 1 5 1 4 2l-3 1c0 2 6 0 8-2Zm930 948c1-2 1-2-2 0v1l2-1Zm-58-1h-5 5Zm75-10c-1 0-3 0-2 1h6l-4-1Zm-61-1c-4 0-5 0-3 1h6c1-1 0-1-3-1Zm6-20c-2 0-4 1-8 6l-5 8 18 1h34c5 0 7 0 6-1l-4-1-12-4a70 70 0 0 0-24-7l-5-2Zm32-4-2 1 2 1 2-1-2-1Zm-23-2c-6 0-6 1 1 2h5l-6-2Zm10-13c-3-2-4-2-3 0l3 1c2 0 2 0 0-1Zm6-9c-4 0-5 0-3 1h7c1-1 0-1-4-1Zm67-4-2 1 2 1 2-2h-2Zm-66-6-2 2 2 1 2-1-2-2Zm84-22-4 1c-4 1-6 3-8 6-3 6-4 6-4 1l-1-5c-1-1-5 1-5 3l-1 4-1 2-1 1-1-5c0-5-1-5-6-6-7-1-54 0-55 2-3 2 0 5 6 5s13 2 13 4l-5 1c-8 0-10 2-5 5 4 3 13 3 28 2a564 564 0 0 1 34-5l3-1c2 1 17-2 17-4h-2c-2 1-3 0-2-5v-6Zm-100 4-4 1 4 1 3-1c1-1-1-1-3-1Zm-45-24h-16l-3 1v1a403 403 0 0 0 45 17l6 2 12-1 12-2c1-3-1-4-12-4l-10-1c0-1 3-3 7-3l2-1 8-1 7-1h1l6-3-8-3c-7-2-8-2-12 1l-9 5-5 2-4-4c-4-4-4-4-15-4l-12-1Zm77 16-1 1 1 1 1-1-1-1Zm10 1c-2-2-8-3-8-2 0 2 4 3 7 3l1-1Zm54-6-3 1c-1 0-2 1-1 2l2-1 2-2Zm-1717-5-9 2h12c3-1 3-1-3-2Zm1717-8-1 2 2 1 1-1-2-2Zm-120-5c-9 1-7 5 2 6l7-1c2-2 2-2-3-3l-6-2Zm101 2-20-1 10 2 10-1Zm-46-3c-2-2-11-2-15 0-4 1-4 2 0 1l8 1c4 2 6 2 7 0 2-1 2-2 0-2Zm-101-6c-5-2-6-2-10 0l-4 3-3 1c-3 1-3 1 1 2 6 3 27 3 34 0l7-3h-5l-9-1-11-2ZM59 820l-2 2c0 3-2 3-2 1h-2c-1 2-2 3-4 2l-4 1h1c2 0 2 0 1 2-2 2-2 2 6 0 6-2 8-4 8-7l-2-1Zm64 7h-6l6 1h5l-5-1Zm1711-3c-1 0-2 1-1 2l2 2 1-2-2-2ZM69 823c-4-2-6-2-6 0s2 3 5 2 3-1 1-2Zm1640-1v1l1 1 1-1-2-1ZM47 816c-2 0-2 5 0 7s5 0 5-3l-1-2h-2l-2-2Zm1762 6c-3 0-4 0-3 1h6c2-1 1-1-3-1Zm-119-4-5 1c-1 1 3 2 14 3h4l-6-2-7-2Zm-1559-2-6-2c-4 0-12 3-13 4 0 2 11 3 18 2l5-1-4-3Zm1610 1c-9 0-9 0-5 1h9c5-1 4-1-4-1ZM81 816c-7-3-8-3-2 0l6 2-4-2Zm1497 0-4-1c-3 0-3 0 0 1 4 2 5 2 4 0Zm127-7c-2-2-5-1-5 1s20 7 23 5c4-2 3-3-11-5l-7-1ZM86 798c-16 0-17 0-16 3 0 4 7 5 8 1 0-2 0-2 1 0 0 1 2 3 5 4l13 4c6 2 8 2 15 1l8-1-9-6-9-7-16 1Zm-35 12-2 1 2 1 1-2h-1Zm1558-7c-4-1-3-2-13 3-10 4-11 5-4 5 8 0 21-7 17-8Zm136 4-2 1c-2 1-1 2 2 2 4 0 4-1 3-2l-3-1ZM31 802c-3 0-2 2 2 5 4 4 4 3 1-2l-3-3Zm94 5c-2-2-4-2-3 0l3 1c2 0 2 0 0-1Zm1606 0c-5-2-8-2-8 0l5 1c5 0 5 0 3-1Zm-158-4-3 1c-1 1 1 2 3 2l3-2-3-1Zm201-3c-1-2-18-1-21 1l-2 3h19c12 0 18 0 17-1l-7-1-6-2Zm-25-3c0-1-9-1-10 1l-5 2-4 1 5 1h6c4-1 8-4 8-5Zm-1638 1 2 2 4 2-2-2-4-2Zm1480 1c3-3 3-3-1-3-10 1-16 6-6 6 3 0 6-1 7-3Zm241-4c-1-1-1-1-1 1 0 3 0 3 1 2v-3Zm-109-1c-3 0-8 3-7 4s11-2 11-3l-4-1Zm-122 0c0-2-1-2-4 0s-3 2-1 2l4-1 1-1Zm47-12c-7-1-9 0-5 4l2 3c0 3 4 5 7 4 2-1 5-8 4-9l-8-2Zm-1379 2c-2 0-2 1-2 2l2 1 2-1-2-2Zm-144 2h-2c-1 0-2 0-1 1l3-1Zm129-2c-4-1-4-1-2 1l4 2c1-1 0-2-2-3Zm1367-6c-1-3-4-4-6-2 0 1-2 2-5 1h-5l10 9 1-2h-1c-2 1-3-2-2-4s3-2 5-1l3-1Zm-1478 6h-1c1 1 2 2 3 1l-2-1Zm1495-2-2 1 1 1 2-1c1-1 0-1-1-1Zm-1463-2c-3-2-19-2-19 0 0 3 6 5 11 4 6-1 9-3 8-4Zm86 0c-2-2-4-2-3-1l6 4-3-3Zm-39-16c-8-6-11-6-25-2l-16 2-14 1c-8 1-8 1-4 3l4 3c0 2 17 10 22 10l7-2c6-6 22-7 35-3l12 4 4 2h2l-27-18Zm1659 14-1 1 1 1 2-1-2-1ZM447 739c0-2-8-1-15 1-4 2-5 3-4 5l2 7c1 7-1 9-9 6l-6-1 4 5c4 4 8 6 15 7 2 0 4 2 5 3l3 1 15 4 3 2c3 0 20-6 21-8 1-3-3-7-14-15-10-8-10-9-15-7l-12 3c-5 0-6 0-3-1l10-4c6-2 6-3 4-4h-8c-7 2-10 2-10 0s11-4 12-3l2-1Zm1010 13-6 4-9 5c-5 1-11 7-11 9s1 3 3 3l11 3c6 2 11 2 20 2 13 0 14-1 28-8a119 119 0 0 1 25-10c1-2-7 0-18 4s-13 4-17 2l-7-2-12-6-7-6ZM94 772c-5-4-7-5-7-3 0 3 6 7 8 7 3 0 2 0-1-4Zm18-1c-2-4-9-6-10-4-1 1 1 3 7 7 4 4 6 2 3-3Zm28-1c5 5 5 5 16 5l10-1-3-2-6-3c-2-3-4-3-13-3h-9l5 4Zm-17 1c-5-4-8-5-8-3 0 1 10 7 12 7 1-1-1-2-4-4Zm1754 0c0-2-1-2-2 0s0 4 2 2v-2Zm5 1c2-4 0-5-2-2v4l2-2Zm-21-6c-3 0-3-1-3 4l1 3c1 0 2-1 1-3l2-3c1-1 1-1-1-1Zm-210-8c5-3 1-2-8 3-5 3-10 5-13 5-2 0-3 1-3 3l1 2c1 0 18-9 23-13Zm219 5c-1-2-4-1-5 2v3c1 1 6-4 5-5Zm-97-11 5 2 1 1 3 1c6 0 10 2 10 4l-2 2c-2 0-2 0-1 1l4 1a43 43 0 0 0 10 2c2 1 3 1 1-1l-4-5c-2-2-5-4-13-5l-14-3-3-1 3 1ZM522 725c-5-8-9-8-20-3-5 3-5 3-13 0-5-2-8-3-9-2l1 4v6c-4 3 1 11 9 16l12 9c9 8 32 13 48 9 7-1 7-2 7-5 0-4-8-12-16-16-7-3-15-11-19-18Zm1357 33-2 1 2 1 1-1-1-1Zm-12-3c-2 0-2 1 0 3 2 3 3 2 2-1l-2-2Zm-462-13c-5-2-6-2-16 3-9 4-13 7-13 11 0 3 10 4 31 3 14-1 16-1 23-6 14-8 14-8-1-3-5 1-18-2-19-5l-5-3Zm163-6c-6-12-7-12-6-2l-2 14c-2 5-2 5 2 8l6 3h4v-8c0-5-1-9-4-15ZM69 753l-1 2 1 2v-4Zm1413-26c-1-3-5-4-5-1l-4 4c-3 2-6 2-9 2-9-2-19 5-15 10 3 4 7 4 13-2 7-6 14-10 12-6l2 2c1 0 3 2 3 4 1 5 1 5-3 3-3-1-4-1-4 1l3 3c4 2 6 4 3 5-2 0-3 0-5-3-3-3-8-4-12-2-1 1-1 2 1 4 3 3 14 7 14 5 0 0 2-2 5-2l6-3 4-7 4-6-4-4-6-4-3-3Zm285 23-1 1 1 1 1-1-1-1Zm23-6c-2 0-4 0-5 2-2 2-2 2 4 4 7 1 7 2 7-2l-2-3-4-1Zm-1199 0h-2l2 2h1l-1-2Zm-23 0c-1-1-2-1 0 0l2 1-2-1Zm1201-2c0-2-2-3-3-2s-1 3 1 3l2-1Zm-8-3c-3-3-6-4-6-2 0 1 5 5 7 5l-1-3Zm-336-21c-6-4-11-4-13 0l-2 4c1 1 0 3-2 4l-2 4c1 1 0 2-1 3-3 2-3 2 0 4 5 4 8 5 11 3l3-2c1 0 5-3 8-7 7-7 7-8-2-13Zm-844 17v2l2 2v-2l-2-2Zm1170-35-14-2 15 4c13 3 25 6 25 8 0 1-6 3-7 2a344 344 0 0 0-48-10c-14-2-16-2-17 1-1 4 0 5 3 3h9c10 4 18 5 36 8 17 2 24 4 24 6s-6 1-14-1c-11-3-27-2-20 0 1 1 0 1-2 1l-5-2-3-3c-2 2 5 8 12 10a170 170 0 0 0 33 8l10 4 6 2 3-9 3-11 1-3c6-4-6-9-24-12-7 0-18-2-26-4Zm-14 35c-1 0-1 1 1 1 4 2 6 2 3 0l-4-1Zm-23-7h-3c-1 2 0 2 10 5s13 3 11 0l-9-3-9-2Zm-1266-4c0-1-1-1-7 1-11 4-10 4-22 5-8 0-8 0-6 1 9 3 30 1 33-3l2-4Zm1056-165c-15-3-24-1-35 5-8 5-12 18-12 41 0 14 0 18 4 32l7 21 4 10c2 5 5 6 3 2l-1-12c4 4 8 28 8 47-1 16-1 16 8 22 5 3 5 3 12 1 7-1 8-2 6-4s-2-10 0-12c1-2 0-2-7-2-9 0-17-2-17-5h3c4 1 4-2 2-15v-14l1-13 2-14c3-7 5-18 5-29 0-13 2-19 6-18 3 2 3 1 0-6-2-5-2-5 1-8l5-2v-4c-1-3-1-4 1-6l5-5c0-1 2-3 4-3 4-1-6-7-15-9ZM561 728c-1-2-4-3-4-1l2 2 2-1Zm712-3-2-1-1 1h3ZM236 711c-6-1-16 0-48 7h-8l-3-1h-3c-1-2-6-1-23 4l-6 2h5l8 1h8a193 193 0 0 1 42-7l17-3 7-1 5-1c2 0 2-1-1-1Zm317 11-2-1c0 2 2 4 3 3l-1-2Zm49-1 3 3-2-4-3-3 2 4Zm1121-2c-2 0-2 0 0 1l4 2v-2l-4-1Zm-203-8v4c1 6 1 7 1 1l-1-5Zm189 3c-5-3-5-3-5-1 1 2 3 3 7 4 6 2 11 2 6 0l-8-3Zm-97 0-1 1 1 2 1-1-1-2Zm267 0v2c0 1 0 2 1 1l-1-3ZM377 679l-4 8-5 11c-1 1 0 3 3 6l5 9 2 3 2-7c1-6 1-8-1-17l-2-13Zm1062 9v5c0 3-2 6-5 9l-5 7c0 3 6 6 12 6 9 0 10-2 7-9l-5-11-4-7ZM365 702c0-2-1-2-5 0l-2 2c1 0 4 2 6 5 6 6 7 6 4 0l-3-7Zm1272-105c-3 0-13 2-25 6-5 2-8 4-12 9l-5 6v22a155 155 0 0 0 3 32l5 20c5 15 7 19 8 19l-2-9c-4-14-7-48-4-58 2-9 7-6 18 11 13 19 16 22 16 21l-2-5c-6-7-12-28-14-42-2-8-1-9 2-17 2-7 4-9 5-8 1 0 3-1 3-3l4-4c2 0 2 0 0 0ZM195 689a142 142 0 0 0-42 10c-3 0-3 1-4 7l-1 4 9-1a101 101 0 0 0 23-4c3 0 18-6 19-8l-5-1c-7 0-8-2-1-5 4-2 4-2 2-2Zm64 18-1 1 1 2 1-2-1-1Zm355-1c-1 0-2 0-1 2s4 2 3 0l-2-2Zm-345 1c1-2-1-2-4 0-1 1-1 1 1 1l3-1Zm7-3-5 2 8-1-3-1Zm7-1-2 1v2l2-2v-1Zm170 0-2 1 1 2 1-2v-1Zm1065-23-1 4c-2 4-1 16 2 18v-2l-1-12v-8Zm322-16h-16l-6 2-9 1h-9l-16 5-12 3-8 3h-6l9 2 9-1c1-2 16-3 21-2l5 3c1 2-1 2-9 1-6-1-9-1-9 1l4 2c5 1 9 3 9 4 0 2-2 2-14 0l-24-2h-14l9 2 13 3c4 1 4 1 1 1s-4 2-1 3a147 147 0 0 1 18 3l13 3 9 2 4-5 8-10 4-5h-3l-6-1c-2-1-2-1 0-2h7l4 1c3-2 1-3-5-4-11-1-13-2-13-4s18 0 21 3c3 1 4 1 12-2l14-3c10 0 6-2-8-5l-6-2ZM230 644c-11 1-14 2-15 4-1 4-5 4-7 1 0-2-3-2-17-2a115 115 0 0 0-31 4c-14 2-26 4-26 6l2 5c2 3 3 3 5 1 3-2 16-2 16 0l-8 2-8 2 2 7 3 6 20-1 19 1-4 1-3 1-6 1-12 1h-10c-3 0-3 1-2 3 1 3 9 4 10 1l5-1 42-8c8-2 15-2 16 1 1 2-8 5-16 6l-6 2h26c11-1 13 2 3 4-8 1-15 3-15 4s1 2 2 1l9-1 20-3c6-1 15-2 20-1 15 1 12 5-5 8-4 0-7 1-7 2l13-1c10-1 21-4 23-6l4-2c9 0 18-2 19-3h-15c-14 1-15 1-16-1 0-3-1-3-7-2l-6-1c0-2 5-3 12-4l11-2c7-1 7-1 5-3-2-1-5-2-11-1-28 2-37 2-37 1s2-3 4-3c4-1 4-2 1-2-3-1-4-6-1-7a401 401 0 0 1 34-9h-4l-16 2-20 2-8-1c-1-1-3-1-7 1-5 2-14 1-11-1l6-1 6-2 30-5c2-1-2-1-8-1-10 0-12-1-14-3s-4-3-9-3Zm1649 35-2 2c0 1 0 2-1 1v2c3 3 3 6 1 6l-1 1 2 1c2 0 3 2 0 4v3s2 0 3-2c2-1 2-2 0-4l-1-9-1-5ZM463 577c-9-5-15-6-21-3h-5l-3 1-7 3c-5 2-3 2 3 1 8-2 14 0 20 5 8 9 8 11-3 26-8 14-8 14-2 7 7-8 12-10 15-5a246 246 0 0 1-3 63l-3 20v3c1 0 3-6 5-16l2-5c17-51 18-55 18-70 0-11-1-13-4-19s-5-7-12-11ZM55 684c-1-5-3-4-2 1 0 8 0 8 2 5v-6Zm1364-148-42-2-6 2c-5 1-14 9-17 17-3 6-5 17-2 20l5 13 5 15a1218 1218 0 0 1 30 86c3 4 11 5 16 4l29-11-2-7c-2-5-4-8-11-12-12-9-21-16-29-27-12-14-26-36-23-36 1 0 3 2 5 6 11 18 28 38 43 50 6 5 7 5 6-3-3-20-5-26-10-33l-10-9c-5-5-10-14-10-21l-2-9c-4-4-8-15-6-15l5 6 6 6 3-4c1-3 4-6 8-9 8-4 13-9 17-17 4-7 3-8-8-10ZM29 686l-1 1 1 2 2-1-2-2Zm520-20c2-3 1-3-1-3-4 0-11 7-11 10l-2 2-2 2-3 2-3 3c-2 3 0 5 3 2s3-3 3 0 1 3 3 1c3-3 3-5 0-4-1 1-1 1-1-1h3c3 0 5-3 3-4v-2l1-3c-1-1 0-3 2-5 3-2 3-2 2 1s1 2 3-1Zm11 19c0-2-1-3-2-1l1 2 1-1Zm802-1h-2c0 2 2 3 3 2s0-2-1-2Zm379 0c-2 0-1 1 1 2h1l-2-2Zm-16-2h-3c-1 1 1 2 8 3 6 1 7 1 2-1l-7-2Zm-1590-8 2 8 2 2v-6l-3-6-3-3 2 5Zm-104 6c-1-1-2 0-3 1v3l3-2v-2Zm1301-3c-7-2-8-2-8 0-1 2 2 3 13 4l13 1h3l-7-2-5-1-3-1-6-1ZM27 656c-2 0-2 3 0 4l-1 3c-1 3 0 15 2 15l1-2 1-3c2 0 2-1 1-3l-1-5c1-1 0-4-1-5l-2-4Zm563 15-1 3v4l2-4-1-3Zm-536 3c-2 0-4 2-3 3s2 0 3-1c2-2 2-2 0-2Zm473 2c-1-3-2-3-2-1l2 2v-1Zm993-9-1 5c0 4 0 6 1 5l1-5-1-5Zm-1041 2c-1-2-2-2-3 0v4c2 3 4 3 4 0l-1-4Zm864-12h-5c-6 1-6 3 1 5 9 2 12 3 12 6 0 1-2 2-8 2-11 0-6 2 6 3l13 1c1 1 2 0 2-2 0-3-4-9-5-9l-9-3-7-3Zm541 4c0-2 0-2-3 0l-2 3-1 4 1 5c1 2 1 2 1-1v-7l2-2 2-2ZM52 666l-1 1 1 2 1-1-1-2Zm227-2-5 2 4 1 5-1-4-2Zm321-129c-7-3-24-5-30-3-8 2-23 8-23 9h1c2-1 21 5 30 10 7 3 8 5 15 16 6 11 7 20 4 46l-2 19-1 4c-1 0-2 7-2 18v11l13-32c14-36 15-40 15-58 0-23-5-33-20-40Zm665 123c-8 0-8 2-2 6 3 1 4 1 6-1l2-4-6-1Zm611-19c-1-3-1-3-3 0-2 2-2 4-1 11v10c-2 2-1 2 1 2l2-3c1-6 1-7 2-6 2 1 4-1 4-5 1-1 0-3-1-3-1-1-1 0-1 1 1 2 0 2-1 1-3 0-5-5-3-6l1-2Zm-355 8v12-12Zm-970 11-2-1c-1 2 3 4 4 3l-2-2Zm676-1c1-2 0-3-1-1v2l1-1Zm654-2-1 1 1 2 1-2-1-1Zm-623-7-7-1c0 1 4 5 6 5l11 3c1 2 2 2 3-2 1-3 1-3-3-3l-10-2Zm593 0-3-1v9c2 0 4-6 3-8Zm-508-6c-2 0-3 1-5 5-4 7-4 8 0 8 2 0 3-1 3-2-1-2 4-4 11-3 4 1 5 0 4-2l-6-3-7-3Zm-849-12-7 2c-4 1-4 2-4 11 0 11 3 15 5 8l3-8 4-8 2-5h-3Zm61 21-1 1 1 2 1-2-1-1Zm-401-28c-4-1-34 1-46 2l-17 3c-13 2-10 3 5 2l16-1c1-1 1 0 1 1 0 2-1 2-5 2-6 0-11 2-11 3l5 1 9-2 12-2c9-1 14-1 12 2l-7 1-14 2-7 1 5 3 10 6 5 4 16-3a521 521 0 0 1 82-9c-2-2-16-3-30-1-17 3-43 4-44 1l9-2 21-3c9-2 11-2 8-3h-4c-2 2-30 4-34 3-3 0-3-1-2-2 2-2 6-2 18-2 10 0 16-1 15-2l-8-1-8-1c0-1-2-2-5-2l-7-1ZM23 640c-3 0-3 1-1 4 2 4 6 6 4 2l-1-4-2-2Zm1257-6c0-2-1-2-4 0l-7 1c-4 0-6 1-7 2-1 2-3 3-8 2l-6 1 17 4 8 2c2 1 3 0 5-5l2-7Zm-718 8-2 2c0 2 2 3 3 1l-1-3Zm619-2-4 2c-2 3 0 3 4 0 2-1 2-2 0-2Zm172-1c0-1-9-3-10-2v2c1 2 10 2 10 0ZM91 637H66l-3 2h4l14-1 10-1Zm1426-7c-3-6-5-8-5-6l8 15-3-9Zm-1092 4-2 1 1 1 2-1-1-1Zm842-3-3 1-1 2 4-2v-1Zm584-1v2c0 1 0 2 1 1l-1-3Zm-1274-8c-2 0-6 6-6 8 0 3 0 3 4-3l2-5Zm-277 5-1 1 1 1 1-1-1-1Zm981 1c0-1-5-2-6-1l3 2 3-1Zm-31 0c1-1 0-1-1-1-2 0-2 1-1 1h2Zm396-63c-3-8-4-8-14-5a314 314 0 0 1-56 12c-6 0-23 9-27 13-7 8-8 10-8 21 0 6 1 10 2 10v2l2 5 1-6c-1-3 0-7 1-9 1-3 1-2 1 4 0 9 0 10 2 13s2 2 1-3c-1-6 2-14 4-14l1 6c-1 6 0 10 3 10v-1c-3-5 1-13 10-19l8-10c4-9 8-12 16-12l12-2 23-3c10-1 15-2 18-4l3-1-3-7ZM21 622l-1 2 1 2 2-2-2-2Zm559-8c-1 0-4 4-4 6l2-2 2-4Zm-169 2-1 2 1 1 1-1-1-2Zm-391-3c-1-1-1 1-1 3s0 3 1 2l1-2-1-3Zm1784-2c-5-7-8-7-4 0 4 6 7 8 7 6l-3-6Zm-1525 3-2-1 2 3 1 1-1-3Zm146-8-6 5-6 6 6-5 6-6Zm1083 6c0 4 1 5 2 4l-1-4-2-4 1 4Zm-1392 2c2-4 1-5-1-2l-1 4 2-2Zm264-7-8 7c-1 2 0 1 3-2l5-5Zm1350-17c-11-5-22-8-24-6l-9 1h-8l7 1c7 2 7 2 19 12l22 17-10-10c-17-16-14-20 6-11l11 3v-1l-14-6ZM30 611l-1 2c0 2 1 2 1 1v-3Zm14 0c0-4-1-4-2-3v6c1 1 2-1 2-3Zm520-9-2 1-6 3c-6 2-8 3-6 5 1 1 3 1 6-2l5-3 2-2c2-1 2-2 1-2Zm606 6c2-4 2-5 0-2l-3 5 3-3Zm-595-50c-2-2-3-2-7 0-6 3-6 4-3 9 1 3 1 4-2 7-4 4-18 10-21 10-2 0-8 4-15 9a368 368 0 0 1-20 16c0 1 3 0 5-2 3-2 7-5 11-6l16-9c12-9 12-8 17-11 5-2 10-3 15-1 3 1 4 1 4-1l3-6c5-4 4-7-1-8-6-1-8-3-4-3l4-1-2-3ZM30 607c-1-2-2-2-2 1l1 1 1-2Zm1780-21-1 9c0 7-1 10-2 11-2 1-2 1 0 1 5 0 7-3 6-9l-2-8-1-4ZM42 599c-1 0-2 1-2 3l1 4 2-4-1-3Zm80 0-1 3-1 3c1 1 1 0 2-2v-4Zm262 3c-1 0-3 2-2 3l2-1v-2ZM190 470c-1 0-2 0-3 5-2 7-1 36 1 43l2 10c3 16 7 30 11 38 7 14 20 26 32 33 10 5 10 5 27 5 13 0 19 0 25-2 16-5 31-15 51-33s28-21 48-15c16 4 32 3 42-1 9-5 16-12 19-23 3-8 5-26 3-28-1-1-41 5-49 8-3 0-7 3-10 7-7 8-14 11-25 11-10 0-15 3-23 14-7 8-20 16-28 16-9 0-18-10-18-19 0-6-3-13-6-14-2-1-4-7-4-11l-1-2-1-4-1-2-1-3c0-2 0-3-2-3-3 0-3 3 0 22 4 20 3 24-6 24-4 0-5-1-7-10-6-20-7-28-7-36v-10l-9-2-17-4-25-7-18-7Zm1586 100c-12-3-20-4-20-2l2 2c3 0 9 4 9 5l-4 1c-2 0-3 1-3 2 0 2-1 2-4 1-6-2-10-2-5 0l5 2 3 1 3 1c4 0 18 8 27 16l7 4-1-2v-3c1-2-4-6-9-8-3 0-5-1-5-2l-5-3c-8-4-7-6 2-3h5l-2-2c-2 0-11-7-10-8l10 2 7 1-12-5Zm-215-60c-10-6-20-3-23 6-1 2 0 3 2 3 5 0 12 4 12 6 0 1-1 2-2 1-8-2-12-2-14 0l-13 3c-8 0-23 4-51 13l-15 4c-10 3-32 13-42 20-8 5-15 21-12 26 1 3 1 2 3-5 0-2 1-5 3-6 2-3 2-2 1 4l-1 7v4c0 4 3 4 3 1 0-5 3-14 5-14v7c-1 7 0 12 2 12l1-4c0-5 2-11 4-11s2 2 0 7c-1 5 0 9 3 9l1-4c0-4 3-12 5-12s13-11 18-18c3-5 4-6 9-6l10-3 11-5c5-2 24-1 27 1l18 1h17l5-5c6-7 13-19 18-28 4-8 4-9-5-14Zm-415 89-1 2c0 2 1 2 1 1v-3ZM28 599l-1 1 1 2 1-2-1-1Zm47-5v2l1 2 1-2-2-2Zm318 1c2-3 2-3-2-1l-1 3 3-2Zm192-1-2 1 2 1 2-1-2-1Zm-544-4-1 2 1 2 1-2-1-2Zm535-2-1 2 1 3 1-2-1-3Zm-500 0c-1-2-1-2-2-1s1 5 3 4l-1-3Zm325 0c0-2-1-1-2 1-2 2-2 3 0 1l2-2ZM43 564c-2-1-6 2-5 3l1 8 4 11c3 6 3 6 1-1l-2-7 1-9v-5Zm536 21c-2-2-5-3-4 0l5 3h5l-2-1-4-2Zm-443 1-2 1 1 1 2-1-1-1Zm1005-4-4 4c1 1 2 0 3-2l1-2Zm162-5c-4-1-5 0-7 2-1 2-1 3 3 3 4 1 6 1 7-1 2-1 2-2 2-3l-5-1ZM158 526l-2-7-1 2 3 24 2 8 1 5c0 5 4 13 6 13l6 6 4 5-7-16a124 124 0 0 1-12-40Zm579 49v5c2 1 3-1 2-3l-2-2Zm495-2c-3-1-23-2-26-1s-3 5 1 6h22c4-1 6-4 3-5Zm52-1c-3-2-4-2-4 0s5 7 8 7l1-2-5-5Zm-153 0c-1-1-2 0-2 3 0 4 0 5 2 2l2-3-2-2Zm543-33c-1 1-5 3-7 2l-8 3-10 5c-4 1-4 2 0 15 2 6 9 16 11 15l-3-6-4-7-1-4-1-2-1-5c-1-2 0-3 4-5l7-2 4-2c1-3 3-2 7 6 5 8 6 9 3 2-1-3-2-7-1-10v-5Zm-155 37-2 2h2l1-1-1-1Zm-695-5c-2 0-2 5 0 6s3-1 2-4l-2-2Zm413 1v3c1 2 2 2 2 0l-2-3Zm-56-9c-3-1-4-1-4 2s2 4 9 7c10 5 11 5 11 1 0-3-1-3-3-4l-7-3-6-3Zm77 1-7 5-3 1c-4 0-7 1-7 4 0 2 1 2 3 1 8-2 15-6 15-8l-1-3Zm-675 8-2 2 2 1 1-1-1-2Zm112-15-1 14-1 3 2-3 1-14-1-11v11Zm596-41c-3-2-3 4-2 21l2 24c0 7 1 11 3 10v-16l-1-7v-7l-1-13-1-12Zm-145 51-1 1v2l2-2-1-1Zm-741 2-2-1-1 1h3Zm1145-3-1 1c-1 1 0 1 1 1s2 0 1-1l-1-1Zm-1136 1c1-2-2-2-5 0-3 1-3 1 1 1l4-1Zm1189-22c-4-2-5-2-6-1a258 258 0 0 1-33 22c-2 3 12 0 20-4s23-14 23-15l-4-2Zm-364-25c-1-9-1-11-3-11-2 1-2 5-2 29 1 23 1 29 3 29 1 0 3-15 3-34l-1-13Zm-41-12a689 689 0 0 1 1 57l3 2c1-1 0-12-1-26a1082 1082 0 0 1-3-33Zm664 55-1 1 2 2v-2l-1-1Zm-1297-8c1-3-1-3-4-1-3 3-3 4 1 3l3-2Zm698-48v11a395 395 0 0 1 0 38l1-37-1-12Zm-92 4c-1-9-1-9-1 6 1 23 3 38 4 38 2 0 1-17-1-27l-2-17Zm-397 36c0-2-1-2-1 0l2 5c2 2 2 2 1 0l-2-5Zm1101 4v1l1 2 1-2-2-1Zm-10 2-2-1-1 1h3Zm-1323-2c0-1 0-1 0 0 0 3 5 3 5 1l-2-1h-3Zm9-1-2 1 2 1 1-2h-1Zm552-2-2 2 2 1 1-1-1-2Zm225-33-1 18 1 18c4 0 5-16 3-30l-3-6Zm-218 32-1-1-1 4h1c1-1 2-2 1-3Zm-590 2c-1-2-4-1-4 1 0 1 8 1 9-1h-5Zm938-31c-7-1-10 1-15 10s-10 20-9 21l35-12 2-6c1-4 0-5-3-8l-6-4-4-1Zm404 25h-2l3 2-1-2Zm11-11c-2-1-3 1-2 6 0 1-1 2-3 2v1l1 3c0 2 6-7 6-10l-2-2Zm-720 10c0-3 0-4-2-2l1 3c1 1 1 1 1-1Zm-697 0h-2c-2 0-2 0-1 1l3-1Zm226-30c-4-1-15-1-23 1l-6 1 8 1c9 1 20 5 24 10 2 1 4 6 6 9l3 6c1-1-5-19-7-24-1-2-3-4-5-4Zm929 18-1-2c-5 3-16 11-15 12s17-9 16-10Zm138-122c-7-5-8-4-15 0-3 3-7 4-8 4-3 0-11 10-14 17-9 19-10 22-10 31l-1 20v12l-7 11c-5 8-7 13-7 17 0 6-1 7-6 9-4 2-5 2-5 6 1 4 1 4 6 4s5 0 3-2-2-3 0-4c1-1 5-2 11-2 9 0 15-1 15-3l-10-1-11-1c-1-1-1-3 1-6l2-8c1-4 9-18 16-29 4-6 5-8 3-7l-3 3-2 1-3-1c0-3 6-18 9-25l5-11c2-5 8-11 17-17 6-4 6-5-1-2-5 2-16 12-18 17-2 4-5 6-5 2 2-5 11-21 13-21l4-3c6-6 21-10 25-7l2 1-6-5ZM607 452c-4-4-10-5-10-2 0 2 2 5 5 8 5 6 10 24 6 24-1 0-3-4-6-14-3-9-4-11-10-15-7-5-9-3-5 3 11 18 14 26 10 28-1 1-4-4-4-7 0-7-3-13-8-17-6-3-12-5-12-3l4 8c2 3 3 9 3 11 0 4-3 8-8 8l-5 4c-2 3-5 4-9 5-3 0-11 2-18 5l-15 4c-5 0-22 8-24 12l-5 14 2 8c2 3 3 3 9 2 9-1 35-13 58-29l14-7 6-2c4-1 4-1 0-1l-7-1c-2-1-1-2 5-2 10-2 22-6 28-10 5-3 6-4 6-10 1-6-4-17-10-24Zm1258 80c0-2-2-1-3 1l-1 5 2-2 2-4Zm-52-4-2-5 4 13-2-8Zm-1028 3v1l1 2 1-2-2-1Zm355-3c-1-1-1 0-1 2s0 3 1 2v-4Zm-19-35c1-7 0-9-2-2-1 5-6 12-9 12-1 0-3 2-3 5l-3 7c-2 1-1 17 0 17l13-12 2-10 3-8-1-2v-7Zm24 34c-2-1-2-1-2 2 1 3 4 5 4 2l-2-4Zm213-19v3l1 12c0 8 0 8 1 3l1-11-3-7Zm-592 17c-1-1-2 0-1 1 1 3 4 3 3 1l-2-2Zm733-5c-5-3-6-3-6-1 0 3 6 10 9 9l2-3-5-5Zm-716 3v1l1 2 1-2-2-1Zm-423 1c-3 0-5 0-4 1h5c5 0 5 0-1-1Zm1208-113-4 3-22 25c-3 3-6 6-7 9s-1 3-2 1c-2-5-4-4-4 1 0 6-2 6-3 0 0-3-1-4-2-4-2 2-1-4 1-6l2-3c0-2-1-2-2-1-3 3-11 4-16 3l-9-5c-5-5-7-4-10 2v7c2 4 3 6 1 5-3-2-3 2-1 4 3 4 0 4-5 0-13-9-16-16-15-28l-1-6c-2 0-10 11-11 14l-3 17c-2 18-7 38-9 41s-1 3 11 3c11 0 14 1 17 3l4 2-1-4-1-11c0-5-1-8-4-13-5-8-5-9-9-24-3-12-3-13-1-12s4 7 8 23l3 8c1 2 2 0 0-5v-6c2-1 7 13 7 22l4 17a89 89 0 0 0 20 29c2 4 2 4 9 3l9-1c5 0 10-8 9-15 0-5 0-6 4-11 7-9 12-22 12-33l2-15c3-6 11-18 12-17l-4 9c-5 10-9 22-7 23l3-1c3-5 3-2 0 4l-2 7c0 3-8 21-11 24-2 2-2 2 8 3 11 1 19 4 28 11l7 5c2 0 1-4-2-5-2-2-2-2-1-4l5-3c2-1 2-1 0-1-1-1-3 0-4 1h-2l2-3c3 0 4-1 1-4v-1l3 2 3 1-2-4c-2-2-3-3-2-5 1-1 1-1 2 1 1 5 4 3 4-2 1-5 0-5-2-5l-3-2h3c3 0 3 0 1-2v-4c2-1 2-2 1-2s-2-1-2-4c0-4 0-4 1-1 2 5 3 3 4-9v-9l-2 2c-2 0-1-12 0-15v-2c-1-1-2-2-1-3 1-4-11-5-19-1h-1c1-2 7-5 12-6l4-1-4-4-4-3-5-4-5-5Zm-406 110c-1-2-7-2-8-1l1 3h2l3-1c2 1 2 1 2-1Zm470-20c-1-1-3 1-4 3l-7 6c-2 1-2 2-2 6 1 3 0 5-2 6-3 2-2 2 2 1 8-1 8-2 5-6-3-3-3-3 3-7l3-3c-1-1 0-2 1-3l1-3Zm-32 14c-4 1-5 2-5 4 0 3 0 3 1 1 0-3 3-3 4-1 1 1 1 2 2 1v-3l-2-2ZM251 362a366 366 0 0 0-45 10c-6 2-8 3-10 6l-3 5c0 1-4 5-10 8-11 7-20 15-19 18l5 3c6 3 9 7 11 12 2 6 21 22 32 27a394 394 0 0 0 61 27l13 5 2 1c0 2 15 18 20 20l11 10c4 5 6 6 8 5 1-1 1-2-2-5-2-4-2-5-1-6s2-1 4 2c3 4 6 8 8 8l3-2c1-2 1-3-3-7-4-5-5-9-3-9 1 0 4 3 6 7 5 6 6 7 7 5 3-4 3-4-2-10-7-10-6-13 3-4 4 5 5 5 7 4 2-2 2-3-2-8l-8-9c-5-4-4-6 1-3 4 3 6 2 2-1-9-7-31-15-40-15-8 0-46-22-60-34-10-9-14-14-14-20 0-9-11-24-25-30l-8-4c0-2 5-3 14-4 8 0 10 0 14 3 6 4 12 11 16 18 5 9 5 5 0-5l-10-14-6-6h8l9-2c3-2 12 0 19 4l11 7c2 1 1 0-2-3l-7-5-8-5-7-4Zm398 124c-2-3-11-1-20 4-6 4-20 18-20 21 0 1 2 1 4-1 7-3 9-2 3 2l-7 5c0 1 13 1 14-1l10-1h9l1-6 5-14c2-5 3-7 1-9Zm807 9c-11 1-12 1-12 7 0 4 1 5 2 4 2-1 5 3 4 5s-1 2 1 0 6-2 14 2l8 3 3-5c1-6 0-8-8-13l-12-3Zm-382 12-3 3-1 4c-1 2 0 2 2 2 1-1 2-2 2-5v-4Zm-919 4v1l1 2 1-2-2-1Zm1429-1-1 1 1 1 1-1-1-1Zm-314-13c-1-1-2 0-1 3l6 6c8 4 10 4 11 1 0-2 1-3 4-3s3 1 3 4c0 4 4 5 20 4 9 0 10-1 11-3 1-5 4-6 8-2l3 3 9-2c8-3 9-4 9-7 1-4 0-4-9-1a77 77 0 0 1-16 3c-11 2-39 1-48-2l-10-4Zm600 11-1 2v1l2-1-1-2Zm-581-1-1 1 1 2c1 1 2 0 2-1l-2-2Zm-706-1c-6 0-12 2-12 4 0 1 11-1 14-3 2-1 1-1-2-1Zm17-10c-7 2-13 4-9 4 1 0 2 1 1 4 0 2 0 3 2 3 3 0 4-1 6-7v-4Zm-444-6c-2 0-4 4-4 7l2 7c2 3 2 3 2-4l1-9-1-1Zm1012-4c-2 0-3 0-3 2s1 3 2 3l1-1 1-2c1 0 2 2 1 4-1 4 0 4 12 9l10 3 2-3c1-4 7-4 7 0 1 3 6 5 22 5 9 0 9 0 9-4 0-2 1-3 4-3s4 1 5 3 1 2 4 0l2-3 1-2c2-2 2-2-1-1l-26 1c-23 0-38-3-46-7l-7-4Zm-771 12v4c1 3 2 3 2-1 0-2-1-3-2-3Zm-329 3c0-5-1-6-2-3-1 1 0 3 1 5s1 1 1-2Zm1231-52c-5 5-7 10-7 17 0 4 1 5 2 5s2-2 2-6c0-7 2-13 4-13l1 3c-2 6-1 20 2 20 1 0 2-3 1-11 0-5 2-10 4-10l1 4c-2 5 1 5 4 0l4-3c1 0 1 1-2 5-5 6-6 9-4 10s5-1 7-6c2-4 6-4 11-1 3 3 5 3 10 2l8 1 10 4c7 1 10 4 14 10 1 4 4 6 11 10l12 5c3 0 10 4 11 6 0 3 4 3 6 0l2-15c1-11 0-12-2-16-2-2-4-5-6-5l-5-3h-4c-1 0-1 1 2 1 4 2 10 7 9 8l-5-2c-3-2-6-3-10-3-7 0-23-4-35-8l-13-3-12-5c-7-3-11-4-19-5l-10-1-4 5ZM56 498c-3-2-3-1-1 2 2 2 4 2 4 1l-3-3Zm355-6c-1-2-1-1-1 3 1 7 2 9 2 3l-1-6Zm-7 4-1 2 1 3 1-2-1-3Zm14-2c-2 0-2 0-1 1l1 2 1 2 2-2c0-3-1-3-3-3Zm-141 1c-2-1-3-1-1 3h3c0-1 0-2-2-3Zm1077-22c-9-3-27-3-33 1l-9 2-4 2h-10c0-1-3-2-7-2-4-1-7 0-12 2-17 9-13 16 11 20 9 1 37 1 45-1 13-3 27-9 29-13 2-3-3-8-10-11Zm-917 19c-2-4-3-3-3 2l2 4c1 0 2-3 1-6Zm-10-1c-2 0-2 1 0 5 1 2 1 2 1-1l-1-4Zm-368 4-2 1 2 1 1-1-1-1Zm1307-3c0-2-1-1-4 0l-4 2 3 1h5v-3Zm270-5c1-8 1-12-1-7l-2 15 3-8Zm-1189 4c0-3-1-3-4-1-2 1-2 1 0 1s3 0 1 1l-1 2c1 2 4 0 4-3Zm-44 0-1 1 1 2c2 0 2-1 2-2l-2-1Zm-39 2h-2 4-2Zm1511-3v2c0 1 0 2 1 1l-1-3Zm-1420-3c-2 0-3 1-3 3 0 1 1 2 3 2l2-2c0-2-1-3-2-3Zm-78 5-2-1-1 1h3Zm854-48-3 1h-5l-3 1-5 3c-4 1-11 7-11 10 0 1 1 1 3-1 3-2 4-2 6 0l2 4c0 2-2 2-10 3-14 1-27 4-32 9-4 3-4 4-2 7 1 3 4 4 12 7 10 3 14 3 30 4 31 0 55-6 51-14l-8-6-7-2-6 2c-5 3-11 3-11 0h1l2-1-3-1c-3 1-13 2-14 0l-2-9c0-8 0-9 2-7l2 7c1 4 1 5 3 6 2 0 2-1 2-8 0-9 2-10 4-1 3 9 3 10 4 7l2-8c0-6 1-8 3-4l1 9c0 7 0 7 2 5 5-6 1-22-6-22l-4-1ZM53 484c-2 0-4 5-2 7 1 1 1 1 2-2l2-4-2-1Zm365 4-2 2 1 1 2-1c1-1 0-2-1-2Zm48-2c-4 0-4 1-2 4h3v-2c-2 0-2 0 0-1 1-1 1-1-1-1Zm10-3c-3 0-3 2-1 5 1 3 4 1 4-2 0-2-1-3-3-3Zm-49 4-2 1 2 1 1-1-1-1Zm106 0-2 1h4l-2-1Zm-466-1-2 1 2 1 1-2h-1Zm367-2-1 2 2 1v-1l-1-2Zm125-1c0-2 0-2-9 1-9 2-11 3-3 2 9-1 12-2 12-3Zm-69 1c3-2 3-3-2-3l-3 3c0 2 2 2 5 0Zm-36-2-1 1v1l2-1-1-1Zm46-7c-5 0-7 3-2 3 4 0 4 0 1 1-2 0-3 1-2 2v3l7-1v-4c0-3-1-4-4-4Zm623 6v1c0 2 0 2 1 1l-1-2Zm676-2v3c2 3 3 2 2-1l-2-2Zm-1160 3c1-1 0-2-1-2l-7 3 8-1Zm-174 0c0-2 0-2-2 0-2 1-2 1 0 1l2-1Zm393-3-1 2v2l2-2-1-2Zm231-8c-1-2-4 6-4 10s4 1 5-4l-1-6Zm-571 5-5 1c-4 1-4 1-3 4s9 1 9-2l-1-3Zm-465 3-1 1 1 2 1-2-1-1Zm-19 0c-1 0-2 0-1 1s4 2 4 0l-3-1Zm442 0-3 1 3 1 3-1-3-1Zm310-18c0 8 2 17 4 19s2-2 0-7l-3-13-1-7v8Zm-252 15c-1-3-1-3-6-1-8 3-3 7 5 5 2-1 3-2 1-4Zm1133-64c0-2-2-1-8 3-9 5-11 8-13 18l-3 12-2 5-2 8v16l1 2 1 4 1-11c-1-9-1-11 1-11 3 0 5 2 8 11 2 9 3 5 0-5v-22c2-16 4-22 7-22 2 0 9-6 9-8ZM491 478l-1-2-3 2c-2 1-2 1 1 1l3-1Zm54-4c-5 0-6 0-6 2s0 3 5 2l6-2 1-1-6-1Zm-506-6c1-3 1-3-4-3-4 1-4 2-3 12 0 2 4-2 4-4l1-2c1 0 2-1 2-3Zm426 8-2-1-1 1h3ZM50 464v2c2 1 1 4-1 8-2 1-2 2 1 2 3-1 7-2 4-2s-2-4 0-5c1 0 1-1-1-2l-3-3Zm425 10-3 1h3l2-1h-2Zm159-3 1 2 3 2-1-2-3-2Zm-77-3-1 4c0 3 0 3 5 2 4-1 4-3 0-3l-3-1-1-2Zm-44 6c-2 0-3 0-2 1h5c1-1 0-1-3-1Zm-135-2c-3-2-12-6-11-4l14 6-3-2Zm111 0h-4c-1 1-1 2 1 2s3-1 3-2Zm42 0c3-2 1-2-4 0-3 1-3 2-1 2l5-2Zm-258-56c-11-1-29 3-27 7 1 5 25 21 47 33 9 5 12 6 22 7 8 1 14 2 20 5l7 4 6-4 11-5c8-1 20 3 24 8 4 3 6 3 30-1 28-4 27-4 26-9-1-7-8-20-12-25-6-7-15-12-24-13-13-2-21 0-38 9-13 8-16 9-24 9l-10 1-17-9-25-13-16-4Zm80 54c-2 0-6 2-5 3l3-1 2-2Zm150 1-4-1c-6 0-6 2 0 2l4-1Zm1342-3-2 2 1 2 1-2v-2Zm-1329 0c-1-1-8 1-8 2h7l1-2Zm-52 2h-2c-2 0-2 0-1 1l3-1Zm82 1c2-1 0-1-3-1s-4 0-2 1h5Zm-73-3-2 1 2 1 3-1-3-1Zm1307-28c-2-2-2-2 1 5l3 10c0 1 2 5 5 7l4 6 2 2-1-4c-3-4-5-9-4-9l-3-4c-2-1-3-4-4-6l-3-7ZM358 469l-1-1c-2 0-2 1-1 1h2Zm-295-6c-1 0-2 1-2 3l2 2 1-2-1-3Zm468 2-2 1h-3l-3 1 4 1 5-1-1-2Zm-43-1c-3 0-6 3-5 4s6-1 6-2l-1-2Zm209-37c-2-2-5-2-14 1l-29 5c-12 1-14 2-19 6l-6 6 8 1h8l-1-3 1-5c3-2 5-2 7 1 5 5 0 10-9 10-2 0-2 0 0 0 1-1 2-1 2-3l-7 1c-8 2-10 5-2 3h5l-5 2c-4 1-5 2-4 6l2 6c2 3 11 4 21 3l27-3c21-1 22-2 19-11l-2-15-2-11Zm-180 35c0-2-6-2-12 0l-9 1c-4 0-5 1-5 2 0 2 6 3 9 0h1c0 1 1 2 3 1l8-2 5-2Zm25 4h-1c-2 0-2 0-1 1l2-1Zm271-5-1 3c0 2 1 3 1 1v-4Zm-274 3c3-2 2-3-3-3l-3 3c0 2 3 2 6 0Zm87-3c0-3-2-4-4-1-3 3-1 6 2 5 2-1 3-2 2-4Zm-571 1-2 1 2 1 1-1-1-1Zm1036 0-2 1 2 1 1-1-1-1ZM39 460l-1 2 2 1 1-1-2-2Zm485-1c-1 0-3 3-2 4s3-1 3-3l-1-1Zm725 0c-2 0-2 1-2 2 1 2 4 2 4 0l-2-2Zm-702 1-2 2h2l1-1-1-1ZM32 446c-2 0-2 8 0 10 2 1 2 3-1 3l-2 1c0 1 1 2 3 1 1 0 2-1 2-5 1-4 1-5 4-5s3 0-1-3l-5-2Zm508 12c0-2 0-2-8 0l-6 2h5c6 1 9 0 9-2Zm-492-2c-1-1-1 0-2 1-1 2 1 4 3 2l-1-3Zm-7-1-1 1 1 2c1 1 2 0 2-1l-2-2Zm402-83h-4c-2 1-2 2-1 3l2 5c0 2 0 2 2 1l3-2c3 0 16 9 16 11l5 7 6 12 3 8 1 11c0 9 1 13 4 18l3 7 5 5c2 0 2-1-1-8a64 64 0 0 1-4-10l-5-29c-1-7-8-20-14-25l-14-9-7-5Zm180-32c0 14-2 20-9 28-3 4-3 5-3 9v9c0 4-1 4-4 4l-4-2c-2-3-3 0-3 7-1 6-2 9-4 11-11 12-28 9-44-7-5-5-10-11-11-14-3-6-6-7-6-4 0 4 7 14 15 22 7 7 14 11 19 11l3 1c0 2-4 1-13-3s-19-14-24-24l-4-6h-7c-9 1-20 5-20 6l3 8 3 6-5-6-7-6-6 4c-5 5-5 4 6 18 8 10 7 10-2 1l-9-9c-2 0-2 1 3 7 6 8 7 11 1 4-2-3-5-5-6-5-3 0 0 4 8 12 13 13 16 18 3 6-10-10-14-12-12-7l2 5c2 2 2 2 0 2-3 0-2 5 2 20 3 7 4 10 5 9l15-2a539 539 0 0 0 63-9c15-1 17-2 23-8s12-6 17-1l4 3 3-13c3-13 5-19 4-9l-3 13c-1 4-2 7-1 8 1 2 9 0 14-4 4-3 4-4 4-13 1-9 0-11-3-16l-3-6 3-6c5-10 4-21-2-34l-6-22-2-10v12ZM54 440l-1 2-1 1c-3 0-2 9 1 11 2 2 4 1 2-2l-1-7v-5Zm1796 8c3-3 1-3-2-1-2 1-1 5 3 6l-1-1c-3-2-3-2 0-4Zm-509-89 2 3 2 4h4l6 1 8 3c4 0 5 1 7 6l3 8c-1 2 0 4 2 5l2 4 5 7c4 5 5 7 4 10v5l3 7c3 8 8 18 10 18l1 2 1 2 4 5 3 4-9-16c-3-3-4-6-4-8s-1-3-2-3l-5-19-4-10a660 660 0 0 1-17-30l-14-5-12-3ZM62 449v4-4Zm-28-47c-3 0-2 9 1 12s3 5 0 4c-4-1-4 3-1 4s3 1 0 3c-1 1-2 2-1 7v7c-2 1-1 4 1 4l2 2c0 3 3 3 5 0 1-4 0-12-2-14s-2-2-1 1l-1 3c-2 0-3-5-1-7 2-3 4-11 2-13v-3c3-2 2-4-1-3s-3-2 0-3v-2c-1-2-2-2-3-2Zm571 37c-2-2-3-2-5 1-1 2-1 2 1 5 2 1 3 2 4 1 2-1 2-5 0-7Zm1240-7c-2 0-1 11 2 13v-8c0-3-1-5-2-5Zm-370 4c-1-8-1-8-2-7-2 2-1 6 1 10 2 3 2 3 1-3ZM23 434l-1 2 1 3 1-3-1-2Zm1504-41c-3-1-21 6-23 9l2 7 2 9 2 7c2 2 2 2 0 2l-5-3c-3-3-3-3-4-1-2 6 5 12 14 12 4 0 6-1 10-5 5-5 5-6 5-14 1-6 0-12-1-16l-2-7Zm229 26c-1-2-1-2-1 0l-4 1h-3l2 2c4 0 12 4 16 9l5 4c1-1-5-9-7-9l-3-4c-2-2-3-3-4-2l-1-1Zm-86-28c-6 0-14 3-11 5a72 72 0 0 1 14 17c2 2 2 9 1 9l-3-3c-1-2-2-1-2 6s1 8 4 9c2 1 4 1 7-1 10-5 21-18 27-30 3-8 2-10-3-4l-19 19c-1 0-5-8-8-18-3-8-4-8-7-9Zm164 35-1 2 2 2v-2l-1-2Zm9-2v2l1 1 1-1-2-2Zm-368 0-2 2h2l1-1-1-1Zm-222-64h-12c-13 2-17 4-22 10l-7 10-7 10-6 10c-3 9-8 15-14 18l-4 3 2-1c3-2 11 0 17 3 2 2 4 3 5 2 0 0-10-7-12-7s-1-3 2-6l4-7c1-3 3-5 4-5v-1l4-5 4-8c0-3 3-3 4 1s2 2 3-5c1-5 4-12 6-12l4-3c1-1 5-3 8-3 14-2 17-3 17-4Zm592 57c-1-9-3-14-5-13l-1 2-1 3c-1 3 2 13 5 14 1 0 2-1 2-6Zm34-10c-2 0 0 11 2 13 3 3 3 2 0-6l-2-7Zm-345 8c0-2-1-2-1 0v4c-1 2-1 2 0 0s2-3 1-4Zm-444-13-1 4-2 8c-1 4 0 5 1 5l3-9-1-8ZM46 414l-1 1 2 1v-1l-1-1Zm1518-5c1-4 0-4-1-1l-1 3v1c1 0 2-1 2-3ZM557 369c-1-2-4 8-4 15 0 5 0 5-2 2s-7-4-7-1 16 19 22 22c12 6 22 5 29-3 4-6 3-17-1-17l-2 2-3 5c-4 4-6 2-4-5 2-6 2-6-6-9a74 74 0 0 1-22-11Zm231 1c-3 0-4 17-1 20l7 9c6 9 7 9 6 3v-11c-1-4-1-7-3-8l-3-6c-1-3-1-5-3-4l-2-1-1-2Zm-444-9c-1-4-1-1-1 11 0 13 0 16 2 16l3 5c2 7 4 8 9 5l6-2 3-1 2-1 6-1 4-1-4-4c-4-5-7-10-11-20-2-3-2-3-1 1 1 6 6 18 8 18 1 0 1 4-1 4l-7 1c-6 1-11-2-11-6l-3-6-3-10-1-9Zm55-7c-7-8-11-12-12-10-2 2-7 19-8 27l-1 9c-1 2 7 11 15 16 6 3 6 3 10 1 5-3 8-10 6-14l-1-3-2 3-3 4c-2 0 1-11 4-16l4-6-12-11Zm696 40c2-4 0-5-1-1l-1 3 2-2Zm121-3v3l1 2v-2l-1-3Zm265-87c-3 0-11 11-12 16-2 8-1 12 1 12l2 2h-2c-3-1-2 3 1 7 3 3 4 4 2 5l-3 2c-3 0-5 14-3 22 1 7 9 21 13 24 3 3 4 3 11 1 16-2 33-13 40-24 1-3 2-3 6-1s11-2 17-9c3-4 4-5 3-8-2-5-5-7-10-5l-4 1 5 1 5 2c0 1 0 2-1 1h-4c-2 1-2 1-1 3 3 5-2 10-7 8v-2c1-1 1-7-1-7l-3 3-5 4-5 2-4 2 2-3c3-4 3-11 1-13-1-1-7-14-8-19l-3-6c-2-2-2-2-1 4 1 7 3 12 8 19s2 5-5-2c-7-8-12-16-13-24 0-4-4-8-5-7l1 10c1 7 2 10 5 13 3 4 3 8-1 5l-7-4c-8-5-14-16-14-27l-1-8Zm-629 88-1 2h1l1-1-1-1Zm771-80c-2 5-2 21 0 28 1 1 0 5-4 10-5 7-5 10 0 11 1 1 3 3 3 5 1 4 2 5 6 6 4 0 3 2 0 3-3 0-3 2-1 3l1 5c0 6 2 11 6 11 3 0 15-12 15-15l-5-11c-6-8-7-14-5-21l-1-8c-2-5-2-6 0-14 1-9 1-10-1-14s-2-4-2-2l1 4v3l-6-4-6-5-1 5Zm-310 52-9 6c-4 3-13 7-20 8-11 4-11 4-8 7s12 7 17 7c6 0 12-2 16-7 4-3 4-4 5-12l-1-9ZM45 340c-4-4-5-2-2 2 2 2 2 6 0 4l-1 4-2 6v14c-1 1 0 2 1 4 3 2 3 2 1 6-1 3-3 4-5 4s-2 1-2 3c0 3 0 3 2 1l5-2c3 0 3-1 3-3 0-3 1-3 2-1h2l1-11c0-9 0-11-2-11l-1 4c0 2 0 3-1 2l-3-1-1-2-1-3-1-1 2-1 2-2 1-1 2 2c0 1 0 2 1 1v-7l-1-5c1-3 0-4-2-6Zm379 44c-1-6-3-6-3 0l2 4 1-4Zm425 0v2l1 1 1-1-2-2Zm-240-7-1-1-1 7c-1 5 2 5 3 0l-1-6Zm-572 3-2 2 1 1 1-1v-2Zm556-115c-8-4-18-4-30-1-14 3-23 11-30 25-6 10-8 19-10 35l-1 10c-7 32-7 41-3 26 3-9 5-11 5-5s-4 16-8 21l-1 1 1-5-2 3-4 5-2 2h3l4-1c1 1 17-3 18-4l7-21 1-4c2 0 1 14-2 20-2 6-2 6 0 4 6-4 9-26 5-26-5 0-14-11-15-21-1-3-1-6 1-8l5-11c8-18 27-35 39-35h5l-4 1c-8 2-13 5-19 12-7 10-7 11 1 3 7-7 18-15 18-12l-4 3c-3 1-9 8-12 13-1 2-1 2 2 0l-4 9c-6 11-10 16-5 6l2-6c-1 0-7 11-6 12l-4 1-4 1-2 1c-4 0-7 4-7 9 0 6 4 15 9 17 4 2 4 2 6 0 3-2 5-1 8 5 3 7 13 17 23 24 14 9 18 8 30-3 10-9 13-16 13-25s-1-10-5-10l-6-2c-3-1-2-2 1-2h7c3 2 4 1 5-5 0-3-1-3-5-4s-5-1-3-2h6c4 1 4 0 5-5 2-14-3-26-10-26-1 0-2-1-1-2 2-2 8 1 11 5l2 10c0 8 1 8 2 0 2-8-2-14-8-16-7-3-6-4 1-3 6 1 11 4 12 9v3l1-3c0-5-5-10-11-12l-7-1v-1l5-1c3 0 5-1 4-2l-5-1-9-3-8-4-11-3Zm256 115c-2 0-2 1-2 2 1 1 4 0 4-1l-2-1Zm-347 0h-2l2 2 2-1-2-1Zm1214-8c-1-1-1 0-2 1v3l1-2 1-2Zm-428-77c-2 0-13 8-14 10s-2 2-3 2l1-5 2-4-13 6c-2 3-4 2-4-1s0-3-2-1c-4 4-4 11 0 11l4 2c1 1 0 1-2 1-4-1-4-1-4 4 0 3 1 4 3 4l5 2c2 2 2 2 0 3h-5c-3-2-4-1-5 9-1 7 0 9 4 17 8 15 11 19 19 20 6 0 8-1 18-5 13-6 22-14 24-20 0-5 2-5 5-2 1 2 2 2 6 0 7-3 14-14 12-18-3-6-13-3-17 5-2 5-4 5-5 1l-3-2c-2 1-2-1-2-8l-1-12c-2-4-2-4-4-1s-3 2-4-3v-4l-2 3-2 4-2-3v-8l-1-4c-2 0-4 3-4 6 0 4 0 4-2 1l-2-6v-4Zm-457-9a121 121 0 0 0 4 35l6 35 3 11c1 4 2 6 3 5v-4l-4-24-1-10-1-9-2-7-1-6c1-2 0-4-1-4l-1-8-2-10-3-4ZM27 363l-1 1 2 2 1-2-2-1Zm426-93-3 1-7 3c-8 2-11 4-11 6 1 1-2 3-5 5-8 4-10 7-12 14 0 3-1 5-2 5l-1-2v-3c-2 0-3 7-1 11 4 7 4 10 1 13-2 3-3 3-5 2-3-2-3-2-4 1l1 11c2 5 4 9 11 16 10 10 17 14 21 12s22-22 25-28c3-5 3-7 1-17-1-3-1-4 3-4 3 0 7-5 11-14 2-4 4-18 4-18-1-1-3 0-7 2s-6 2-8 1-2-1 3-5l3-2c-6 2-18 3-20 2-1-1-1-2 3-3l8-4c3-3 3-3-5 0-7 3-14 4-17 3-1-1-1-2 3-2l8-4 2-2Zm-146 72-4 1c-6 1-20 5-23 7l-9 6c-4 3-5 4-4 5 3 1 4 1 4-1s3-4 12-5c6-1 7-1 7-4l3-3h4l6-1c4 0 5-1 5-3l-1-2Zm1375 17c1-2 1-2-2-2l-3 2c0 2 4 2 5 0Zm6-25c-2-2-7-2-7-1l3 3c2 0 3 2 4 4 0 2 0 2-1 1l-4-1c-1 0-1 1 1 4l1 7c-1 5 0 5 3-1s3-12 0-16Zm-344 8-1 1-3 6-3 4 4-3c2-2 4-4 4-6l-1-2Zm527-2-4 7 1-2c1-1 2-2 3-1l1-2-1-2Zm-804-34c-2-1-2 0 0 2l1 6c-1 2 3 20 4 19l1-4c0-2 2-3 4-1v9l2 9 2-13-1-15c-2-3-2-3-2-1-1 4-3 2-5-4l-2-6-4-1Zm-706 25c-1 0-14 5-16 7-3 1-24 0-24-2s-7-1-10 1c-2 2-2 2 0 2l7 4c5 3 5 3 4 0s-1-3 6-2l7 1c1 1 8-2 13-4l5-2 6-2 2-3ZM32 342l-1 1 1 2 1-1-1-2Zm1820-26c-2 0-3 2-3 9l1 10 1 4c0 2 0 3 1 2l1-2v-2l1-2c-3-4-3-9-1-10s2-3 0-3c-1 0-2 0-2-2l2-1c1 1 2 1 2-1l-3-2Zm-496 5c2-2 2-3-2-1l-2 6c0 4-1 6-4 8-2 2-2 4-1 3 4-2 6-5 6-9 0-2 1-5 3-7Zm299 11c-1-1-2-1-2 1l2 3 1-1-1-3Zm-161-7c-2-4-3-6-3-4 0 3 4 13 6 15 2 1 2-1 1-3l-4-8ZM46 333c0-3-1-5-3-4-1 1 0 6 1 7l2-3Zm18-8c-1-3-1-3-2 0-1 2 0 4 1 3l1-3Zm1401-2-1 2 1 2v-4Zm101-1-1 2 1 2 2-2-2-2Zm-578 0c0-2-3-6-3-4l2 4h1Zm-958-5c-2-1-5 1-5 2 0 2 4 2 5 0v-2Zm1454-26c-1-2-13 12-17 18-4 9-4 14 0 6 2-3 5-8 8-10 2-3 4-5 3-6l3-5 3-3ZM63 309c-2-2-4 0-4 3v5l2-3c2-2 2-4 2-5Zm1428 5-2 1 2 1 1-2h-1Zm358-10v2l-1 1c-2 1-3 8-2 9l5-2c3-3 3-3 1-4l-2-4c1-1 0-2-1-2ZM387 285l-2-1c-5 2-6 3-8 9v11c2 6 6 12 8 10 2-1 2-5-1-7-4-3-4-7-1-11s3-5 0-5l-2-1c0-1 2-2 4-1 5 0 6-2 2-4Zm1305-17c-6-2-17-3-19-2l-7 1c-4 0-8 1-10 3l-13 5c-17 5-24 9-23 16 0 3-1 4-3 6-3 1-4 3-3 5l1 8c1 5 1 5 3 3v-5c-1-1-1-4 3-10l6-11c2-3 13-7 15-6l3-1c1-1 4-2 9-1 8 0 8 0 5-2s-3-2-1-3h8c4 1 5 1 4-1s1-3 3 0c2 1 2 1 1-1s-1-2 4-2l8 1c4 0 10 3 10 4l1 1 5 3c3 2 4 2 5 1h3c1 1 2 2 3 1 1 0 4 2 7 6l5 4c0-4-14-16-18-16l-5-2-10-5ZM30 309v4-4Zm1321-33h-8c0 2 5 9 6 8l-1-4c-1-2-1-2 1-2 4 0 6 4 6 13-1 6 0 9 2 11s2 3 1 5l-2 5c0 2 1 1 2-2 3-4 3-8 0-9-2-1-2-2-2-10 1-9 0-14-5-15Zm376 20c-2-4-2-2 0 8l2 8v-7l-2-9Zm141 12-1 2 2 1v-1l-1-2Zm-318 0 4 3-4-4-4-3 4 4Zm299-11c1-4-2-2-4 2-3 6-1 8 3 4l1-3v-3Zm-290 4c-3-5-4-6-4-4l3 5 4 3-3-4Zm-313-2c0-5 0-5-2-1v4c1 1 1 0 2-3Zm4-4c0-2 0-2-1 0s0 4 1 2v-2ZM31 296c2-2 0-3-2 0v2l2-2Zm1299-4c-3-2-3 0 0 4 2 2 2 2 2 0l-2-4Zm-57-32c-2-2-10-2-14 1-3 1-6 2-9 1-4 0-5 2-1 6 2 2 0 6-3 6-2 0-5 5-3 7l-2 6c-3 6-3 9-1 10l1-1c-1-3 1-9 5-13l2-3c-4 1-3-3 1-7l8-4c3-1 4-3 1-4s6-4 13-5h2Zm-447 33-1 1c0 2 1 2 1 1v-2Zm1023-3c0-3-1-4-3-2-2 1-3 5-2 5 4 1 5 0 5-3Zm-301 0-1 1 2 1 1-1-2-1Zm-212-3c-2-2-2 0 0 3l1 1-1-4Zm-901-67c-10-3-17-3-18-1l-10 1c-7 0-10 1-13 3-3 1-5 3-5 4l-5 4c-8 4-18 16-20 24l-2 8c-1 2 0 3 1 3l2-6c0-6 2-7 7-12l7-7c0-2 10-10 12-10l4-3c3-2 13-4 13-2h5l13-1 8 1 3 1 3 1c0 1-1 2-3 2l-2 1h5l7 1c1 2 6 4 8 4 1-1 3 0 4 1l4 2c5 3 10 6 10 8l4 6 3 6 2 3c2 0 3 2 3 8l1 12c1 3 1 4-1 3h-1l1 3c0 2 1 2 2 0l2-5c0-3 1-3 5-2l5 1-4-4c-5-5-6-8-2-8s7 0 7-2l-3-1c-3 0-11-9-15-17-3-7-14-15-23-19l-12-6c-2-2-8-4-12-5Zm1101 65c-7-3-13-5-9-2l3 1 8 3 6 2c1-1 0-1-8-4Zm-556-64c-1-1-1-1-1 1l2 22c0 21 1 24 6 30l4 4c0 3 4 10 6 10 1 0 2-8 2-18a457 457 0 0 1-2-25v-2l-3-3c-2 0-3-2-4-6-1-3-2-4-2-2l-1 4c-1 2-2 0-4-6l-3-9Zm544 60c-1-1-12-2-13-1l-8 3c-6 1-16 5-14 5l10-2c10-3 18-4 18-1 0 1 1 1 2-1h2c1 2 2 1 2 0l1-3Zm332 3c-1-3-3-1-1 2 0 2 1 2 2 1l-1-3Zm-1029-1-1 1 1 2 1-2-1-1Zm5-7c-1-2-1 0-1 3s0 5 1 3v-6Zm1009-3h-2c-2 3-1 7 1 8 3 1 4 0 3-4l-2-4Zm12 1 1 6c1 1 2-1 1-3 0-2-1-3-2-3Zm-796-4c-2-3-5-3-6 0-2 6-2 9 1 9s6-5 5-9Zm264 4-1 2 1 3 2-2-2-3Zm524 0-1 2 1 2 2-2-2-2Zm-528-6-1 2 1 1 1-1-1-2Zm526-13c-1-2-1-2-2 4l1 7 2 4c1 1 1-1 1-4l-1-6c-2-1-2-1 0-2 1-1 1-2-1-3Zm-549 12c-1-2-8-2-10 1-2 2-2 2 1 1l7-1 2-1Zm-463-1-2 2 1 2 1-2v-2Zm507-2-3 1 1 1 4 2c1 2 1 2 1-1 0-2-1-3-3-3Zm513-5c-2-2-2-2-2 0l2 5 1 2v-2l-1-5Zm4 4v1l1 2 1-2-2-1Zm-552-2h-2c0 3 3 4 5 2l1-1-4-1Zm30-4c-1-2-14-2-14 0 0 1 5 6 7 6l-1-3c-1-2-1-3 1-3 1-1 4 0 5 1 2 1 2 1 2-1Zm-40-8c-4-2-5-2-7-1h-7c-4 0-6 1-7 2-2 3-2 3 3 2h6c1 2 6 2 6 0 0-3 2-3 6 0 3 2 3 2 6 0 3-3 5-3 6 0 2 3 9 8 11 6l-3-2c-2 0-4-3-6-5-3-4-3-4-6-2s-4 2-8 0ZM51 255c-1-2-2-1-3 1 0 3 1 3 2 2s2-2 1-3Zm1800-1c0-3-2-5-3-3l1 3c2 3 2 3 2 0Zm-16-4-2 2c0 2 1 3 2 3l1-3-1-2ZM53 249l-2-1-1 1h3Zm1787-7-1 2 1 3 1 1 1-2-2-4Zm3-12c-2 0-2 0 0 1 2 0 2 1 2 3v2l1 4v5c1 0 2-1 2-4l2-7v-1l-3-1-4-2Zm-10 9-1 1 1 2 1-2-1-1Zm-822-4c-2 0-2 5 0 6l2-1-1-2-1-2v-1Zm-24-9v1l1 1 1-1-2-1Zm-87-5c-1-3-1-3-2 0-1 2 0 4 1 3l1-3Zm-838-1c-1-2-2-1-2 1l1 1 1-2Zm1790-6c-1-2-1-2-1 1l1 4 1-2-1-3Zm-769-7c-4 0-9 11-6 11l9-2c3-2 2-7 0-8l-3-1Zm-183 7-1 1 1 1 1-1-1-1Zm77-6v2c1 5 2 6 2 3l-2-5Zm870-3c-1-2-2-2-2-1 0 3 4 8 5 6v-1l-3-4Zm-26 0-2 4c0 2 2 0 3-1l-1-3Zm-846-2v1l1 2 1-2-2-1Zm-905-4-2 3 1 2 2-2-1-3Zm1763-8-1 1 1 2 2-2-2-1Zm-985-15c-7-8-8-9-11-8-5 2-5 5-1 11 7 9 15 12 16 5 1-2-1-5-4-8Zm189-4c-2-4-7-3-12 3-2 3-4 7-3 8 0 3 4 5 6 4 3-2 9-13 9-15Zm787-11c-2-2-3-2-3-1 0 2 2 3 3 4l3 1-3-4Zm-23 0-2-1-1 1h3Zm35-5c-2 0-2 2 0 4 1 2 1 2 1-1l-1-3Zm-45-5-2 1 2 2c2 1 2 0 2-1l-2-2Zm6 0-2 1 2 2 2-2-2-1Zm13-19c-1-2-4-1-6 1l-5 2c-5 0-6 2-2 4 2 1 3 2 2 3l2 1 4 2c1 1 2 2 3 1l3 3 3 2c1-1 0-2-1-3v-4l-2-1-3-1c0-1-1-2-3-2-3-1-3-5 0-5l1 2c-1 2 0 2 2 0l2-5Zm-22 15-1 1 2 2v-2l-1-1Zm-6-7-2 2 2 2c1 1 1 1 1-1l-1-3Zm11 2-1 1 1 1 2-2h-2Zm-5-2-1 2 2 1 1-1-2-2Zm-1624 2h-2c-2 0-2 0-1 1l3-1Zm822-16c1 9 4 14 8 12 2 0 2-2 2-7l-3-10c-1-2-2-3-4-3h-4l1 8Zm-873 0v1l1 1 1-1-2-1Zm16 0v1l1 1 1-1-2-1Zm-9-2-2 2 1 1 2-1-1-2Zm23-9-2 1 2 1 1-1-1-1Zm-11-10-7 1h-2l-3 2-4 2c-4 0-20 5-19 6l5 1 11-1c3 0 6-2 8-3l7-5 4-3Zm1608 3c-2-1-3 0-4 1-1 3-1 3 3 4l5-2c1-2 1-3-1-3h-3Zm-1567 4-2-1-1 1h3Zm-30-4-1 2 1 1 1-1-1-2Zm1589-1-1 1 2 2 1-2-2-1Zm-1580 0c-1-3-4-3-4-1l2 2 2-1Zm781-4-1 2 1 3 2-2c0-2-1-3-2-3Zm-768 0-6 1c-4 2-1 3 4 1 6-2 6-2 2-2Zm7 0-1 1 1 2 1-2-1-1Zm781-6c-2-3-3-3-2 0l1 5 1 2 2-3-2-4Zm732-2-2 1 2 1 2-1-2-1Zm30-7h-3c0 1 1 2 3 2l4-1-4-1Zm-30-8-2 2 2 1 3-1c0-1-1-2-3-2Zm-650-17c-3 0-4 1-8 9-4 7-4 8-1 10 7 3 11-3 11-14 0-4 0-5-2-5Zm632 17c-2-1-3 0-2 1h3c1 0 1-1-1-1Zm-55-3-2-1c-2 0-2 1-1 1h3ZM169 73c-3-1-13 0-15 2-1 2 14 2 16 0 2-1 1-1-1-2Zm1509 1c-1-3-2-4-2-1l1 3 1-2ZM197 72h-20l-1 2c1 1 21-1 21-2Zm1484-1-1 1 1 2 2-2-2-1Zm-15 0h-2l3 2-1-2Zm5 0-2 1 2 1 2-1-2-1Zm-11-1-1 1 2 1 1-1-2-1ZM880 59c-2-2-4-2-5 1-4 7 1 15 6 11 2-2 2-8-1-12Zm-665 9-1 2 2 1 1-1-2-2Zm-4 2c1-2 1-2-2 0-2 1-3 1-1 1l3-1Zm27-3-10 1c0 2 18 1 20 0l-10-1Zm18-1c-2 0-3 0-2 1h4c1-1 0-1-2-1Zm76-5c1-1-10-1-12 1h5l7-1Zm9-2-2 1c0 1 0 2 2 2l2-2-2-1Zm1307 0h-4c-3 1-3 1-1 1l5-1ZM350 60c1-1 0-1-1-1-2 0-2 1-1 1h2Zm1257-7c-4-1-4 0-3 1 3 3 8 4 12 2 3-2 3-2-2-1-3 0-5 0-4-1l-3-1ZM218 54l-1 1 2 1v-1l-1-1Zm181-2-1 2 1 1 2-1-2-2Zm-158-5-1-1-8 1c-3 0-5 1-5 2h2l7-1 5-1Zm46 0c-2 0-3 1-1 1h4l-3-1Zm32-2c0-2-1-2-4-1s-2 3 1 3l3-2Zm1174-1v2l2 1v-1l-2-2ZM325 43l-1 1 1 2 1-2-1-1Zm38-1-2 1 2 1 2-1-2-1Zm-8 1-2 1h3c1 0 1-1-1-1Zm1106 0-2 1h4l-2-1Zm-16-1c-4 0-5 0-1 1h3c1-1 0-1-2-1Zm-31-2c-1 0-2 1-1 2l3-1-2-1ZM401 40h-4c-3 1-3 2 0 2l4-2Zm-85-8c-3 0-5 2-5 5l3 3a391 391 0 0 0 15-3l-7-1c-7 1-10-1-6-3v-1Zm1140 2-11-2v2l-1 1-1 1h3c5-1 5-1 4 1s-1 2 1 1l5-1c1 1 3 0 3-1 0-2 5-1 5 1 1 1 1 0 1-1 0-3-7-5-7-3-1 1-1 2-2 1ZM350 32c-3-1-9 0-9 2l-2 1-3 3h2l3-1c0 2 8 1 8-1l-1-1v-2l1 1 3 1 3 1 1 2v-3l-2-3h-4Zm1087 0-2 3c0 2 2 1 3-1l-1-2ZM371 27c-1 0-2 1-1 2l-2 3c-4 3-3 4 2 4l5-1 2-1c3 0 2-3-1-4l-3-2-2-1Zm-9 6-2 1c0 1 1 2 2 1l2-1-2-1Zm1071 1-8-1-8 1 3 1c11 1 13 1 13-1Zm-31-3c-2-2-4-2-2 1l3 3c2 0 1-2-1-4ZM389 27c-3-2-5-1-4 2 0 1 0 2-2 2l-1 2c1 2 1 2 2 0 1-1 2-1 3 1h2c1-2 1-3-1-3-2-1-2-1 0-2s3-1 1-2Zm19 6c1-1-2-3-4-2-4 2-10 3-9 1l-1-1-2 2c0 2 1 2 8 1l8-1Zm102-2-1 1 2 2v-2l-1-1Zm404 0-1 1 2 2v-2l-1-1Zm-581 2h-1 3-2Zm77-6-1 3 2 2v-2l-1-3Zm965 2c0-1-1-1-3 2-2 2-2 2 0 0l3-2Zm-958 3-2-1-1 1h3Zm107 0-2-1c-2 0-2 1-1 1h3Zm15-1h-2l3 1c1 0 1-1-1-1Zm-93-5c-1 0-2 0-1 1l-1 1 2 2c4 1 11 0 11-2l-4-1h-4l-3-1Zm-6-1c0-1-3-1-6 1-4 2-3 4 1 4 3-1 5-2 5-5Zm21 2-1 1 1 2 1-2-1-1Zm908 1h-2c-2 1-2 2-1 2l3-2Zm-874-4-6 1-10 2c-4 0-4 0-2 1s7 1 12-1l5-2c1 0 2 0 1-1Zm820 2 1 1 3 1v-1l-4-1Zm-898 0-1 1 1 1 2-2h-2Zm8-2c-2 0-2 1-2 2l2 1 2-1-2-2Zm41 0-1 2 2 1v-1l-1-2Zm831 0v2l1 1 1-1-2-2Zm-756-4c-8 1-18 4-18 5 0 2 2 2 8 1 3 0 4-1 2-2-1-1 0-1 2-1l6-1c2-1 2-2 0-2Zm742 4c-2-1-10-2-12-1-1 1-1 1 2 2 7 1 12 1 10-1Zm-802-1-4 1c-2 2 0 2 4 0 1 0 2-1 0-1Zm780-1v1l1 1 1-1-2-1Zm7 0h-2c-2 0-2 0-1 1l3-1Zm-481-2c0-2-10-1-15 1-3 2-3 2 3 1h9c2 0 3-1 3-2Zm-201 1-1-1c-2 0-2 1-1 1h2Zm646-2-5-1-4 1c2 2 9 2 9 0Zm-609-1-2 1 2 1 2-2h-2Zm12-2-2 2v1l2-1v-2Zm-22 2c-2 0-2 0-1 1h3c1-1 0-1-2-1Zm195-2-6 2h4l6-1-4-1Zm24 0-2-1c-2 0-2 1-1 1h3Zm5-1c-2 0-2 1-1 1h3l-2-1Zm-163 0c1-2-6-2-9 0-2 1-2 1 3 1l6-1Zm4-3c-1 0-2 1-1 2l2 1 1-1-2-2Zm15-1c-5 0-8 2-4 3h2l2-1h4c1-1 0-2-4-2Zm9 0-2 1 2 1 2-1-2-1Zm11-1-2 1 1 1 2-1-1-1Zm23 0-1 1 1 1 1-2h-1Zm13-3-2 1 1 2 2-2-1-1Zm6 0-1 1 2 2 1-2-2-1Zm-10 1h-4c-3 1-3 2 0 2l4-2Z"
        clip-rule="evenodd" />
    <path fill="oklch(10% 0.07 257)"
        d="M1392 987c-1-1 0-1 4-1h6l-5 1h-5Zm17-4c7-1 6 1-2 2h-4l6-2Zm12-1c3 0 3 0 2 1-3 2-7 2-6 0l4-1Zm291-4 2 1c0 1 5 2 13 2 9 1 13 1 11 2-4 2-29 1-31 0h-3c-2 2-8 2-13-1l-5-1 7-1 12-1 7-1Zm49 4c2 0 2 1 0 2l-2-1 2-1Zm-1284-3c1-2 7-2 8 0h3l5 1c1 1 0 2-5 2-6 1-16 2-19 1l-1-1 4-2 5-1Zm1293 0c6 0 5 2-1 3-3 1-4 1-4-1 0-1 2-2 5-2Zm-339 1h14c-1 1-14 3-15 2l1-2Zm95-36c8-3 14-3 26-1 13 2 21 6 22 10s4 6 10 6c8 0 31 10 31 14s-15 7-36 7l-20 1c-6 1-22-1-31-5-6-3-10-4-22-4-20-1-25-2-29-5s-2-5 5-6l7-2 11-1c9 1 11 1 14-2 3-1 4-3 4-5-1-3 1-5 8-7Zm-70 34 8 1-7 1-8-1c-1-1 2-1 7-1Zm21 1c4 0 5 1 3 1h-6l3-1ZM405 960c9-1 12-1 14 4 2 3 2 4 10 3 14 0 16 0 18 2 4 5-7 8-26 9-12 0-17-2-17-7 1-3 0-3-5-3l-6-1c0-2 7-6 12-7Zm1360 4 4 2-6 1-4-1 6-2Zm-393-7c8-1 20 0 20 2l-3 1-4 2c-1 1-6 1-11-1-5-1-6-3-2-4Zm439-6 1 1-1 1-2-1 2-1Zm-461-1 3 1-3 1-3-1 3-1Zm-989-15c10-2 20 0 23 5 2 4 1 4-9 5-11 1-24-2-24-6 0-1 3-3 10-4Zm30 5c2 0 2 1 1 2h-3c-1-1-1-2 2-2Zm1263 0 2 2h-2l-2-1 2-1Zm-99-24c1-1 14-2 14 0l4 3c4 1 10 1 27-1 27-3 48 0 46 8l5 4c5 2 5 2 4 5-1 1-3 3-5 3l-6 2c-4 2-17 2-23 0-3 0-7-3-10-5-4-4-5-4-11-4-5 1-9 0-14-1-8-3-25-6-39-8-5 0-7-1-6-2l5-1 3-1c0-1 1-2 3-1l3-1ZM48 899v4c-1 4 0 5 4 8 3 2 5 2 6 1 2-1 7 3 5 5 0 2-7 1-8-1l-3-1-5-3c-5-3-6-9-2-12l3-1Zm1645 12c1 0 2 0 1 1h-2c-1 0-1-1 1-1Zm-386-5h20c5 1 7 4 3 6l-22-4-1-2Zm-13 1 1 1-2 2v-2l1-1Zm43 0c1 0 2 0 1 1h-2c-1 0-1-1 1-1Z" />
    <path fill="oklch(10% 0.07 257)" fill-rule="evenodd"
        d="M1255 780c0-4 0-4 1-2l5 2 3 1 15 1c16 1 27 2 43 5l12 1 1-4c0-2 2-3 5-3l7-2 4-1c2 2 5 9 6 17 1 9-1 15-8 26l-4 5 4-1 10 2 9 1c1-1 3 0 7 1 2 1 7 2 9 1 6-1 9 1 7 4-3 3-2 4 4 4 8 0 7 2-1 3-5 1-9 0-14-1-8-3-12-2-12 2l-1 2-2 2 6 1 10 2 16 1c10 0 14 1 17 3l9 2c5 1 6 1 6 4s-1 3-4 4c-6 1-10 3-10 4l4 2c5 2 4 4-3 4l-17-1-13-1c-2 0-1-4 2-5 2-1 2-1 0-4-2-2-3-3-9-2-9 2-18 1-18-2l2-2 3-1c1-1-5-1-16-1l-16 1-1 7c-1 7-1 8 3 8l15 5c3 2 0 4-5 3l-8-1c-2 1-2 1 0 3 3 2 2 6-1 7l-13 3-12 4 4 2c3 1 4 2 4 4-1 2-2 2-13 2-15 0-24-1-26-3-2-1 0-2 6-3l10-3-22-5-5-1-8-3c-4-2-7-6-3-4l2-1 3-1c10 1 9-1-1-4l-10-4v-5l-3-7c-1-1-2-2-1-3l-3-3-3-1h7l-3-2c-3-3-4-5-1-5 1 0 2-1 1-3-1-3 1-5 3-2 1 2 1 2 1 0 1-2 10-1 15 2l7 1 18 5c15 5 14 5 18-3 2-2 1-2-2-2l-7-2-8-2c-6 0-13-3-13-5 0-1 9 0 16 3l11 3c5 1 6 1 9-3l6-4c1 0 2 0 1-1l-14-4-52-13 2-2 3-1h6c7-1 4-3-4-3-5 0-12-2-9-2l3-1 6-1c3 0 5 0 4-1l-6-3-4-2c-2-1-1-2 2-3l4-1-2-1c-1 1-3 0-3-1l-3-2-2-1 8-1 8-1-4-1a70 70 0 0 1-8-2c-2 0-2-1-2-4Zm28 73 9 3h5l-5-2-9-2-5-1 5 2Zm-32-10-1 1 1 2 1-2-1-1Zm25-40-2 1h4l-2-1Zm-3-10-2 1 2 1 2-1-2-1Zm12-8-4 1h1l3 1 2 1 2-1-1-1-3-1Z"
        clip-rule="evenodd" />
    <path fill="oklch(10% 0.07 257)"
        d="M1341 891c-2-2 15-1 19 1l2 2c-3 2-19 5-23 4-5-1-6-4-1-5l3-2Zm270 3c5-2 11-2 15 0l4 2-6 1-11-1c-5-1-5-2-2-2Zm-1226-2 2 2-1 1-1-1v-2Zm10 2c2-2 4-2 4 0l-3 1c-3 0-3 0-1-1Zm37-6c5 0 9 1 9 2s-2 2-4 1l-3 1h-3l-5-1-3-1c0-1 4-2 9-2Zm930 0h21c3 1 3 1 0 2h-20l-1-2Z" />
    <path fill="oklch(10% 0.07 257)" fill-rule="evenodd"
        d="M900 809c4-2 12-3 12-1 0 1 1 2 2 1l2 1-3 2-2 2-3 2-10 6-10 5-2 2c2 1 12-4 17-9l2-1c0 1 5-1 11-5 13-6 20-8 21-5 0 1 2 2 3 1l2 2c1 2 1 3 2 2 1-2 3-1 7 1l6 2h2l4 2 6 2 5 1-6-4-7-4 4-7 11 7c2 3 5 5 6 5l4 3 4 3-4-1c-4 0-7 1-3 2l4 2 4 1c1-1 1 0 1 1l-5 3-14 7c0 3-10 3-19 0s-9-3-14-1l-5 3h4l6 1 3 1 7 4c4 3 4 3 2 4-2 0-5 2-7 5l-5 3c-2 0-2 1-2 2l-2 1c-1 0-2 1-2 3l-2 2-5 2-5 2-5 2c-3 0-3 2 0 6 5 5 3 8-9 9-9 1-14-1-16-4-2-2-1-3 3-4 5-2 5-3 1-5-3-2-3-3 2-6 4-3 6-3 13-3 10 1 11 0 6-3-5-2-17-2-25 2l-7 2c-3 0-7-4-6-6l-1-2c-1 0-2-1-2-3v-2c-2 1-7-4-6-5s-1-2-4-2c-6-1-8-4-5-7l4-2 1-1h-4c-4 3-6 3-5 0 1-1 0-2-2-1l3-4 8-5 8-2a797 797 0 0 1 24-13c2-2 1-2-1-2-4 2-5 0-2-2Zm-16 22-1-1-11 6c0 2 12-4 12-5Z"
        clip-rule="evenodd" />
    <path fill="oklch(10% 0.07 257)"
        d="M501 854c6 0 7 0 7 2 0 3 2 3 11 5l6 3c2 2 6 4 9 4 4 1 5 2 6 4 0 2 2 3 5 4 6 1 7 4 2 6-3 1-6 2-11 1-8-2-29-2-31 0-4 3-21-1-21-4l3-1c2 0 2-1 1-1l-14-1c-15 1-23-2-23-6l1-3 8-1c4 0 5-1 4-2-4-2 1-4 10-4 6 0 9 0 11 2 3 3 12 3 13 0 1-2 0-2-5-4-4 0-5-2-1-3l9-1Zm-227 24c7-2 15-2 21 0l6 1-6 2c-8 2-14 2-21 0l-5-1 5-2Zm1104-1h11c4 1 4 1 2 3-3 2-10 2-12 0l-1-3Zm144-2c7 0 18 3 17 4-1 2-20 3-26 2-8-1-8-3-1-4l10-2Zm-51-5c7-2 18-2 20 0l10 3c9 0 7 3-3 3-7 0-10 1-11 2-1 2-4 3-12 3-9 0-11 0-14-3l-2-2 5-2 5-3 2-1Zm-1314-2h14c10 0 14 1 15 2 2 2 2 2-2 3a93 93 0 0 1-32-1c-2 0-4-2-2-2l7-2Zm1470-8 19 4 3 2-4 2c-4 2-7 3-15 2-31-1-34-4-11-8l8-2Zm-97 7 1 1c1 1 0 2-1 2s-2-1-1-2l1-1Zm-977-6 3 1c3 1 2 5-1 5l-6 2c-4 1-5 1-7-1-2-1-2-2 0-4l7-3h4Zm890 5c7-2 20-2 22 0 2 1 2 1-2 1l-9 1c-15 1-22 1-23-1-1-1 0-2 4-1h8Zm140 1 3 1h-4c-2 0-1-1 1-1ZM90 864c2 0 2 1 1 2h-4l3-2Zm55-5h26l-27 5c-9 0-8-4 1-5Zm43-2 5 1 3 2h-5c-6 0-8-2-3-3Z" />
    <path fill="oklch(10% 0.07 257)" fill-rule="evenodd"
        d="M633 778c1-2 2-1 2 1 0 1 2 2 5 2l5-1-6 3c-11 5-14 6-18 6l-4-1h-2c-4 3-25 8-30 8-3 0-5 0-6-2 0-2-7-2-7 0h4c-2 2-7 2-8 0l-1 1 1 2 1 2h-2c-3-3-8-3-6-1h3l1 1-3 2c-3 1-5 3-2 3l30-6 20-4 17-2 11-2c3 0 3 2-1 3l-4 2 2 1h2c0 2-11 8-14 8l-8 6c-4 3-8 6-11 6l-10 6c-2 2-5 4-6 3l-2 1c0 2-1 2-2 2-1-1-2 0-2 1-1 1-2 2-3 1-2 0-3 1-3 4-1 3-2 3-4 3-1-1-1-1 0 0s1 3-2 7c-3 8-5 9-10 11-6 3-26 5-29 4l-7-1-5-2-2-1-19-9 3-3 3-3-3 1h-20c-11-1-12-2-10-4l2-1 6-1c5-1 5-2 4-5 0-3 0-3 8-3l8 1c0 2-4 4-8 3-2 0-2 0 0 1l10 2c8 0 12 3 7 5-3 1-3 1 2 2s7 1 8-1 7-3 15-4c1 0 1-1-1-4-3-4-3-6-2-13 1-10 5-22 8-24l33-7 12-2c41-7 42-7 43-3l1-1c0-2 0-3 2-3l4-1Zm-61 54c-2-3-7-3-7-1l2 1h3l2 2v-2Z"
        clip-rule="evenodd" />
    <path fill="oklch(10% 0.07 257)"
        d="m325 851 14-1c4 2 3 3-2 4-8 2-19-2-12-3Zm-128-9c6-2 27 1 23 3h-6l-4 1-10 1c-12 0-14-3-3-5Zm147-15c6-4 14-5 25-3l14 2 6 1 6 3c3 3 3 4 2 6-1 1 0 2 4 2 6 0 12 2 12 4s-6 2-14 1h-22c-12 1-31-1-39-4l-14-3c-10-1-17-4-12-4l3-1c0-1-7-2-13-1l-5-2c-1-2-1-3 6-4 5-1 14 0 16 2 1 2 1 2-1 2l-2 1 12 1c8 0 12-1 16-3Zm1075 2c7-3 17-3 24 1 4 1 6 3 6 4 0 2-6 3-16 2-18-2-22-4-14-7Zm-903 4c1-3 11-3 10 0 0 1-9 4-10 3v-3Zm949-5h12l6 2h-2l-5 1c-4 1-13-1-11-3Z" />
    <path fill="oklch(10% 0.07 257)" fill-rule="evenodd"
        d="M858 791c6-2 6-2 7 1 0 2 1 3 2 2l3 1 6 2 6 2 3 1 9-2 10-2c3-1 4-1 4 1s-46 26-59 30c-7 3-14 2-12-1l8-3 5-2-5-1-11-2-7-2h-3c-2 0-2 0-2-2l3-3 2-2 3-1c2 1 3-1 2-4l1-1 2 1 1 2 1-5c-1-5 2-8 8-8l5 1h3l5-3Zm30 11c0-2-1-2-2 0l1 2 1-2Z"
        clip-rule="evenodd" />
    <path fill="oklch(10% 0.07 257)"
        d="M270 810c7 0 26 2 26 4l-6 2-7 3-7 2-7 4c-2 2-4 2-14 2-12 0-18-2-18-4 0-1 5-3 12-4 5-1 6-1 6-3s2-4 5-5l10-1Zm121 10c5-2 18 0 18 3s-20 3-22 1-2-2 0-3l4-1Zm-180 0c8-4 24-1 20 3-2 3-14 3-19 1l-5-2 4-2Zm1175-11 12-1c7 1 20 7 20 10s-18 2-24-1c-3-1-6-2-9-1-3 0-5 0-7-2-3-2-3-2 8-5Zm-447-6c2-2 5-2 6 1l2 1c2-1 10 4 11 7s-1 2-7-2l-9-5c-2 0-3-1-3-2Zm933-3 1-2v3l-1-1Zm-561-24 2 2-2 1-2-1 2-2Zm-42-4h3a1233 1233 0 0 0 36 6c0 1-9 1-23-2-13-2-16-2-16-4Zm0-13c1-2 6-2 8 0s13 2 16 0c1-1 6 0 13 1l4 1-3 1-6 2-2 2c0 2-17 1-24-2-8-3-8-3-6-5Zm-633-6c0-2 1-2 2-2l2 2c0 2-3 2-4 0Zm-608-4c0-2 0-2 1-1 2 3 2 4 0 4l-1-3Zm-7-54v1l-1 2-1-2 2-1Zm-4-33c2 0 3 3 2 4s-3 0-3-2l1-2Zm1866-43c0-2 0-3 1-2v5c-1 4-1 4-3 2v-2l2-3Zm-3-21 1 1 4 1h2c-2 1-2 3-1 8v7l-4 1c-2 1-4-4-1-5l2-3h-2l-2-2 1-3v-1l-1-2 1-2Zm-7-6c2-4 2-4 3-1l-1 4-2 7-1 5c-1 0-1-11 1-15Z" />
    <path fill="oklch(10% 0.07 257)"
        d="M1890 575c1 0 1 8-1 11-1 1-1 1-1-3 0-5-2-5-4-1-2 2-2 4-1 5 1 2 0 3-2 5-4 3-5 3-2-1 3-3 2-4-3-4l-3-1 2-2v-4l1-4 1 2h5c2 1 3 1 4-1l4-2Zm-818-3 1-2v3l-1-1Z" />
    <path fill="oklch(10% 0.07 257)" fill-rule="evenodd"
        d="M1892 488c0-1 1-2 2-1l2 2-2 7 2 22c0 16-1 21-2 21l-3 2c-2 2-2 2 1 1 4 0 4 0 4 3l-2 5c-2 2-2 5-2 10 0 8-1 12-3 12v-6l-1-7 1-4c2-4 2-4-1-4-2 1-3 0-4-1 0-1 0-2 1-1 1 0 2-1 2-3l-1-3c-2 0-3-8-2-9v-5c2 0 2-1 0-3-2-4-1-11 1-12 1-1 2-4 2-9l1-7c1 1 2-2 1-5l2-2 1-3Zm-4 38-1 4c0 3 0 5 1 4l1-4-1-4Z"
        clip-rule="evenodd" />
    <path fill="oklch(10% 0.07 257)"
        d="M10 542c1-2 3-2 3 0l2 3c2 0 0 3-2 3-3 0-4-3-3-6Zm0-13 3 1c2 2 0 7-2 6s-2-5-1-7Zm6-2 1 3-1 2-1-3 1-2Zm1879-54-1 7c-3 3-4-1-2-7l2-5 1 5Zm-5-16h2c2 1 2 5 0 5-1 0-3-4-2-5Zm2-12 1-2v3c0 1-1 1-1-1Zm-896-18 1 1-1 2-1-2 1-1ZM18 405c1-2 2 0 2 5v6l-1-5-1-6Zm1869-14c1-2 1-2 2 1 2 3 1 5-1 3l-1-4Zm-1-25 1 2c0 2-1 3-2 3v-3l1-2Zm-6-24 1-2v3c0 1-1 1-1-1Zm-5-38c0-3 0-4 1-3v4c-1 2-1 1-1-1Zm-2-12 2 2-2 1-1-1 1-2Zm-1-12 1 4c0 2 0 2-1 0l-1-4v-3l1 3ZM34 244l1 2-2 2v-2l1-2Zm1825-8c2-2 4-1 4 3 0 3 0 3-2 1l-2-4ZM41 219c1 3 0 5-2 4v-4l2-3v3Zm6 0 1 1-1 1-2-1 2-1Zm5-61 1 2-1 3-1-3 1-2Zm1-10c1-3 2-3 5 0 2 3 1 8-3 8-2 0-3-5-2-8Zm36-1c1-2 6-1 5 0s-6 3-6 1l1-1Zm1742-5 1-1 1 2-1 1-1-2Zm-9-7c1-2 1-2 2 0 0 2-1 3-2 2v-2Zm-10-13 1 2v2l-2-2 1-2Zm-68-34 1 2-1 1-1-1 1-2Zm-68-31c-2-2-2-2 0-2l5 1 2 2c0 2-5 1-7-1Zm-44-3c3 0 6 2 5 3s-6-1-6-2l1-1Zm20-3 15 1c1 1 1 2-1 2-2 1-14-1-14-3Zm-27-5 3 1c2 1-3 5-5 5l1-2c3-1 3-2 0-3-2-1-2-1 1-1Zm22 4h1l-1 2-2-1 2-1Zm-12-3 2 1h-3l1-1Zm-20-3 2 2h-2l-2-1 2-1Zm-10-1 1 1-1 2-1-2 1-1Zm-20-1h1l-2 1c-1-1-1-1 1-1Zm-19-3 1 1-2 2-1-2 2-1Zm11 1 1 1h-2c-1 0-1-1 1-1Zm-62-5c1-1 16 0 17 1l11 1 14 2c3 1 2 1-6 1l-36-5Zm-8-1 2 1-2 1-2-1c-1-1 0-1 2-1Zm-9-1c2-1 3-1 4 1l-3 1c-3 1-4-1-1-2Zm-11-1c3 0 4 1 3 2h-4c-2-1-2-2 1-2ZM851 1h2-5 3Z" />
    <path fill="oklch(0.9 0.2 100)"
        d="M923 380c0-7 1-12 2-11a517 517 0 0 1 4 137c-4 2-1 14 6 26 6 12 10 14 8 5-1-7-1-7 2-3l5 6c3 5 5 1 3-7l-4-17c-2-7-2-8 0-9 2-2 2-3 0-13l-2-14c1-2 4-9 5-17l6-17c2-4 2-4 2 4 1 11 5 30 8 34l5 9c1 4 6 11 11 16 6 6 9 11 12 18 1 5 3 9 4 9 2 0 1-11-1-25-1-7-1-7 2-4l8 13c3 8 4 13 5 27 1 30 1 34-2 39-4 6-9 16-9 19 0 2-4 5-8 9-7 5-8 5-10 3-2-4-2-7 0-23 2-13 1-19-1-10l-4 9-5 10-3 13-2 15c0 6-1 9-3 11l-8 12-5 8-2-19c-3-17-6-28-15-46l-4-6c-1 1 0 10 1 20 4 32 4 40-3 53l-8 15-4 4 4 8c9 17 13 31 13 41l1 19c2 7 2 8 4 4s2-4 4-1l2 7c0 3 1 4 3 3 3-1 4 2 4 11 0 5-1 8-4 11-4 3-5 3-6 1s-2-2-6-1-5 1-5-2c0-4-5-13-8-14-3-2-4 0-2 6 2 5 2 6-2 8-5 5-12 4-17-2-3-4-4-6-3-10v-8c-2-3-3-2-6 3l-7 8c-3 2-4 2-7-1l-4-4 1 6 2 9-1 4c-2 0-7-6-10-11-2-4 0-23 2-27 1-2 2-1 4 1 2 3 2 3 6-4 3-4 4-9 4-10l3-6 2-5c0-2 1-3 4-3 4 0 4 1 13 19 3 5 4 4 6-1l3-3c1 1 3-2 4-5 3-5 3-9 2-15-1-8-8-21-12-21l-4-3-5-5-7-9-5-9-2-7c1-6-1-8-2-2l-3 8c-3 5-3 22 0 27 2 5 2 7 0 9-5 4-11-7-11-20-1-26 0-32 3-39s8-13 6-7v3l5-10 9-12c4-4 14-19 17-26 4-9 7-30 5-40-1-9-5-20-8-20l-2 15-2 16c-2 2-19-19-22-27-4-9-6-28-3-28s4-10 1-13c-2-3-3-5-2-10l2-7c1 0 2-2 2-5 0-5 5-14 5-9l3-3c1-2 2-6 1-7-1-4 1-9 8-16l7-12c1-5 3-9 4-9l2-4 5-14c4-9 5-15 6-23Z" />
    <path fill="oklch(0.9 0.2 100)"
        d="M826 430c3-11 6-10 5 1v11c1 1 2 6 2 13 0 9 1 13 3 16l6 11 6 11c3 3 3 3 4 0l1-3-1 13c-1 12-1 14 5 25 4 11 5 14 3 16-1 3-1 4 3 8 3 2 5 6 5 7s1 6 4 11c4 8 4 10 3 20l-5 22-4 14-2 5c-3 2-5-2-3-9 2-5 0-21-3-28-1-3-2-2-2 3 0 8-3 9-5 1-3-12-8-27-10-29-1-2-2-2-3 0-2 3-7-4-8-12-1-7-8-16-8-11v2l-3-14c2 9 3 4 2-13-1-10-2-15-4-16-2 0-2 2-1 11v2l-4-30c-2-13-2-15 3-34 5-18 8-25 9-19l2-5Zm0 159 2 4 1 6-2-7-1-3Zm217-17c3 0 3 3 1 11-1 8-4 6-4-3 0-6 1-8 3-8Zm-219-15v2a1505 1505 0 0 0 0-2Zm216 6c-2-6 1-7 3 0l1 6c-2 1-3 0-4-6Zm-52-110 3 10c2 7 2 12 1 14-2 5-3 4-5-8-2-7-1-16 1-16Zm-88-108a152 152 0 0 1-11 77c-1 2-2 0-2-6l-2-13-3-41c0-4-1-7-2-7l2 1c2 0 3 2 3 3 0 3 12 18 14 18 1 0 2-6 2-18l-1-14Zm91 12c1 6 0 10-1 12-1 1-3 7-7 25-3 10-7 21-9 21v-20c0-18 0-20-4-28l-4-8v9l-2 10-2-2c0-3-12-32-18-43l-5-16-2-9c-3-4-3-17-1-20 2-1 2-2 0-5-2-4-2-13 0-13l3 9c2 10 11 28 15 28 1 0 4 2 7 6l1 1 7 7 1-1 4 6v3l1 1c3 0 8 10 9 17l4 13v6c0 2 1 3 2 3 1-1 2-5 1-12Zm-120-11a32 32 0 0 0 9 9c-2 0-5-4-9-9Zm90-42Zm-10-20Zm101-17c2 0 3 1 3 3 0 6-4 10-6 6-1-4 0-8 3-9Zm30-61 4 3c2 2 2 3-1 6s-8 4-9 1c-2-2 3-10 6-10Zm-246-38c4-1 4-1 7 3l6 7c3 4 2 8-3 8-4 1-5 0-9-6-6-8-7-9-1-12Zm189 6c8-10 15-5 8 6-4 7-6 7-10 6-3-2-2-5 2-12Zm-37-56c6 0 10 13 6 19-2 3-2 3-5-1l-4-10c0-7 0-8 3-8Zm46-55c3 0 4 0 3 7-2 12-6 15-12 10-3-2-3-2 1-9 3-5 5-8 8-8Zm-160 0c0-6 3-7 6-1 2 5-1 11-5 8l-1-7Z" />
</svg>