<?xml version="1.0" encoding="UTF-8"?><svg id="Layer_2" xmlns="http://www.w3.org/2000/svg" viewBox="0 0 300 300"><defs><style>.cls-1{fill:#fff;fill-rule:evenodd;}.cls-1,.cls-2{stroke-width:0px;}.cls-2{fill:#1d1d1b;}</style></defs><g id="logo"><path id="print" class="cls-2" d="M299.84,189.18c-1.79-16.59-8.08-9.17-11.06-15.75.08-4.39,1.29-11.4-3.19-13.5-.37-.35-.24-1.55.32-1.44,1.44,0,2.86.19,4.2,1.44.28.26.52-.05.61-.61-1.9-4.45-.74-10.88-3.1-15.31-1.55-5.13,5.51-5.74.38-11.03-.76-3.22,2.62-6.19,1.05-9.38-.38-2.79,2.99-1.31,3.67-4.27,2.43-5.63-4.6-9.3-3.73-14.69.88-3.37-3.41-3.94-2.63-7.3,1-2.96-3.94-4.78-1.7-7.42,6.06-1.97-.77-8.98-1.01-12.73-.35-1.75-.19-2.68.66-3.83,2.48-3.07.32-12.7-2.12-15.25-2.32-1.68-4.84-.73-4.86-4.67l.09.09c-.98-1.08-2.11-2.11-1.68-2.9.36-.66,2-.55,2.5,1.24l-.05-.16c2.12,3.28,6.43.83,3.71-2.09-5.35-4.45-10.07-12.38-16.14-15.49-2.38-2.45-4.63-5.79-7.33-7.15-10.13-7.49-19.15-14.81-31.03-18.38-1.63.99-2.99-.41-4.45-1.63-2.87-2.71-5.93-1.94-9.22-2.6-11.8-3.51-23.79-3.45-35.9-4.22-8.57-.65-17.46.82-26.2.35-2.43-.46-2.58,1.38-3.43,4.85-1.6,2.39-2.21-4.06-4.97-4.03-1.69-.49-50.33,5.92-53.32,5.35-11.11-1.95-22.17-.53-32.2,5.04-11.54,6.42-19.25,17.48-28.56,26.61-7.84,7.6-10.94,22.05-15.54,31.95C3.66,92.91,2.01,117.51.52,141.83c-1.15,18.1-.25,36.08,1.45,54.24,3.95,15.58,5.69,32.66,16.14,44.93,14.56,11.86,27.31,26.49,44.91,33.21,13.7,6.38,28.05,10.67,42.7,14.51,12.96,3.16,25.24,6.73,37.99,9.6,10.06,1.52,20.11-.61,30.04,1.55-.04.01.07.04.4.08,0,0,0,0,0,0,2.84.11,1.46-.02.41-.07,7.28-1.34,14.59.87,21.83-.67,5.92.02,11.97.91,17.97-.13,5.27-.39,10.15-1.06,15.12-3.18,3.67-3.42,8.73-5.21,11.98-9.2,4.65-6.59,7.49-14.96,11.83-21.26,2.19-4.47,8.06-6.33,7.69-11.38-.46-2.06,1.17-3.4,2.1-4.93,2.04-.83.64,4.69,2.68,4.08,1.54-1.23,2.59-4.33,4.46-4.51.47-.06.96-.78,1.37-1.37,2.9-3.63,4.64-8.37,7.66-11.79,5.35-2.59,3.88-12.49,6.71-16.53.92-2.26,1.87-5.02,1.23-7.65-.19-1.04.15-2.13.66-2.44,8.53-2.95,13.11-9.7,12-19.76ZM56.38,203.07c-.34-.69.18-1.31.44-.53-.04.29-.11.88-.44.53ZM58.34,215.61c-1.81-1.19.51-6.59,1.3-3.36-.06,1.73-.5,2.97-1.3,3.36ZM64.75,201.13c.33-.51.44.04.49.42-.17.87-.83.42-.49-.42ZM82.24,207.22c-.1,1.41-1,.67-.84-.35.11-1.37,1.02-.74.84.35ZM95.44,198.16c-.46-1.6,1.24-4.8,1.67-1.85,0,1.23-.97,3.27-1.67,1.85ZM97.98,208.04c-.25-.22-.26-.71-.08-.91.41-.36.54.73.08.91ZM103.22,201.88c-.7-.43-2.12-.32-2.09-1.38.2-.98,1.53-.14,2.23-.18.68-.02.66,1.9-.13,1.56ZM147.06,140.79c-.06,2.91-3.12,4.8-2.65,1.04.23-2.38,2.6-3.38,2.65-1.04ZM144.61,92.66c-.14.35-.15,3.68-1.39,3.32-2.28-1.02.81-8.76,1.39-3.32ZM123.76,130.04c-.1.08-.27.28-.3.21-.46-.85.33-1.13.3-.21ZM111.56,145.03c-.56,1.24-2.5.1-3.52-.39-1.06-1.38-.88-4.84,1.84-4.07,1.63-.05,2.19,2.61,1.68,4.46ZM116.6,208.15c-4.59.62-3.04-7.42-.18-8.84,1.67,1.85,2.75,7.81.18,8.84ZM123.76,144.54c-1.17-2.34-4.51-.95-4.08-3.49.59-2.69,3.05-1.76,4.94-2.47,1.27-.68,2.55-1.39,3.3.32,0,2.4-1.52,7.18-4.16,5.65ZM136.42,92.29c-.01,1.02-1.29,2.47-2.01,1.57-.91-1.7,1.96-5.02,2.01-1.57ZM135.52,207.09c-.97-.77-1.33-3.93-.5-4.79.57.54,1.6.79,1.69,1.67-.09.94.05,3.29-1.19,3.11ZM145.39,208.21s-.06,0-.08,0c-.15.43-.25.88-.24,1.34-1.26,3.47-3.67-2.25-2.93-5.45,1.05-3.43,1.82,4.02,3.18,4.11.02-.05.04-.1.05-.15-.18-1.1-.14-4.73.92-3.18.06,1.13-.54,2.12-.92,3.18,0,.06.02.11.03.15ZM147.36,154.17c-1.62,3.58-4.57-7.08-1.75-4.6.43.44.96.25,1.51.14,1.74-.29.83,3.38.24,4.46ZM151.94,89.09c.52.12.49,2.15-.18,1.95-.53-.06-.49-2.08.18-1.95ZM152.81,202.82c-.06-.02-.13-.04-.19-.06-.02.04-.05.08-.07.11-.03-.02-.07-.03-.1-.05-.62,2.17.87,4.72.12,6.47-2.59-.6-3.88-8.32-.12-6.47.01-.04.01-.07.02-.11.05.02.1.03.15.05.08-.13.15-.27.22-.25.84.31-.09.18-.02.31ZM194.65,145.09c.06-.12.22-.04.34-.05.55,1.12-.91,1.43-.34.05ZM194.08,121.98v.46s-.23-.24-.23-.24l.23-.23ZM192.09,133.99c.09.72-.27,1.16-.65,1.66-.61-.91.4-3.47.65-1.66ZM156.12,196.08c-.71,1.11-.93-1.08-.42-1.37.67-.12.65.9.42,1.37ZM159.77,205.97c-1.08-1.16-1.92-4.3-.54-6.05,1.09.71,2.03,5.21.54,6.05ZM161.18,210.59c.03-.28-.16-.77.29-.64,0,.21,0,.43,0,.64h-.3ZM157.44,148.1c-1.05-2.06.3-5.07.82-6.96,2.7-5.1,5.45,5.2,5.26,7.4-.76,2.26-4.36.33-6.09-.44ZM169.22,202.76c-.05.02-.11.03-.16.05-.04-.02-.07-.04-.11-.06-.79,2.13-2.38,2.97-3.3,5.33-.85,1.47-1.83-.59-2.46-1.28-.91-2.44,1.77-2.73,2.03-5.48-.02,0-.04,0-.06.01-.01-.04-.03-.08-.04-.12-3.19,1.39-4.05-4.79-1.1-3.32-.01-.03-.02-.06-.03-.1.08.04.15.07.22.09.16-.02.31-.05.47-.07-.16.11-.31.12-.47.07-.05,0-.1.01-.14.02-.02,0-.03,0-.05-.02.37,1.11.73,2.22,1.1,3.32.04-.02.08-.02.12-.04,0,.05-.01.1-.02.15,1.36-.4,2.57.82,3.73,1.43,0-.03.02-.05.03-.07.08.05.16.07.24.08.14-.04.28-.08.43-.13-.14.12-.28.15-.43.13ZM171.36,208.61c-.5-.39-.11-1.08-.13-1.63.51.39.11,1.08.13,1.63ZM173.4,199.29c.47-.99.82-.37,1.03.42-.27,1.42-1.27.96-1.03-.42ZM177.72,203.23c-.41-.22-.34-.53-.2-.97.42.21.33.54.2.97ZM177.39,196.06l.04-.56.26.34-.3.22ZM182.37,200.42l-.24-.44.29-.16-.05.6ZM186.72,198.69c-.61-.24-.49-1.24-.18-1.63.71-.84.76,1.67.18,1.63ZM191.43,206.54s0-.03,0-.05c-4.28,1.29-1.24-6.44-1.98-8.81-.07-1.55,1.66-2.26,2.65-3.1,1.4.98.29,4.52,1.27,6.14.45,2.19,1.36,5.56-1.93,5.81ZM190.3,187.1c0-.07.19-.15.3-.22.35.66-.33,1.42-.3.22ZM197.48,195.07c-.09-.62.25-.92.61-1.27.02-.1.04-.2.07-.28l.07.15s-.09.09-.14.14c-.12.57-.16,1.25-.61,1.27ZM197.74,159.41c-2.44,1.15-4.72,12.89-6.66,3.49-1.01-2.23-2.13,3.78-3.89,2.36-1.17-.99-2.23,1.27-3.13-.5-1.24-2.55-3.41-1.26-4.84-4-1.67-2.12-2.26,2.96-4.02,2.3-.57-.11-1.13-1.38-.89-2.2,1.72-2.52-2.02-10.54,1.71-9.64,3.4-.25,2.06,6.58,5.01,6.34,1.73-1.03,1.33-3.81,1.99-5.55-.07-2.25,5.02-4.69,5.88-2.91.84,2.36-2.3,5.6-.67,7.68,1.19-.08,1.27-1.94,1.74-2.92.89-2.57,2.25-4.91,3.96-4.95,1,1.89-1.35,4.17-1.09,6.14.6,1.54,1.33-.16,2.12-.51,2.38-1.46,4.39,3.06,2.79,4.87ZM208.07,207.71c-1.37.48-2.59,1.46-3.8,2.76-.96.82-2.35,1.12-2.44-.66.79-4.34-1.07-9.05,0-12.88,1.79.3,1.83,4.27,2.87,5.88l-.08-.16c1.17-.58,2.3-1.28,3.56-1.61,2.25.48,1.29,6.7-.11,6.66ZM265.21,200.79c-.12-.74-.97-2.59.09-2.87.43-.24,1.15,3.42-.09,2.87ZM269.43,198.74c-1.13-.67.76-5.18,1.15-2.49-.06,1.1-.23,2.6-1.15,2.49ZM276.33,197.16c-.76,3.51-3.17,1.23-2.36-.97.82-3.04,2.75-1.05,2.36.97ZM284.81,138.07c.92.25.99,1.7.3,2.28-1.21.32-1.38-1.9-.3-2.28ZM285.24,201.7c-.32.41-.5.11-.53-.29.07-1.22.68-.36.53.29Z"/><path id="sign" class="cls-1" d="M150,50c-55.23,0-100,44.77-100,100s44.77,100,100,100,100-44.77,100-100-44.77-100-100-100ZM139,85.85c0-1.02,1.31-1.44,1.9-.61l40.06,55.6c.5.7,0,1.67-.85,1.67h-17.96c.9,2.17,1.47,5,1.38,6.04-.76,2.26-4.36.33-6.09-.44-.82-1.62-.17-3.81.4-5.6h-11.19c-.76,1.61-2.32,2.17-2.29,0h-3.26c-1.16,0-2.1-.94-2.1-2.1v-54.55ZM151.94,89.09c.52.12.49,2.15-.18,1.95-.53-.06-.49-2.08.18-1.95ZM147.36,154.17c-1.62,3.58-4.57-7.08-1.75-4.6.43.44.96.25,1.51.14,1.74-.29.83,3.38.24,4.46ZM139,159.6c0-1.16.94-2.1,2.1-2.1h33.64c-.27-3.17-1.33-6.92,1.29-6.29,3.16-.23,2.22,5.67,4.46,6.29h.61c1.65-1.06,1.27-3.78,1.92-5.49-.07-2.25,5.02-4.69,5.88-2.91.84,2.36-2.3,5.6-.67,7.68,1.19-.08,1.27-1.94,1.74-2.92.89-2.57,2.25-4.91,3.96-4.95,1,1.89-1.35,4.17-1.09,6.14.6,1.54,1.33-.16,2.12-.51,2.38-1.46,4.39,3.06,2.79,4.87-.6.28-1.19,1.21-1.77,2.3l18.27,25.38c.5.7,0,1.67-.85,1.67h-72.3c-1.16,0-2.1-.94-2.1-2.1v-27.04ZM192.09,133.99c.09.72-.27,1.16-.65,1.66-.61-.91.4-3.47.65-1.66ZM194.65,145.09c.06-.12.22-.04.34-.05.55,1.12-.91,1.43-.34.05ZM198.22,193.67s-.09.09-.14.14c-.12.57-.16,1.25-.61,1.27-.09-.62.25-.92.61-1.27.02-.1.04-.2.07-.28l.07.15ZM186.72,198.69c-.61-.24-.49-1.24-.18-1.63.71-.84.76,1.67.18,1.63ZM182.42,199.82l-.05.6-.24-.44.29-.16ZM177.52,202.26c.42.21.33.54.2.97-.41-.22-.34-.53-.2-.97ZM177.39,196.06l.04-.56.26.34-.3.22ZM174.43,199.71c-.27,1.42-1.27.96-1.03-.42.47-.99.82-.37,1.03.42ZM156.12,196.08c-.71,1.11-.93-1.08-.42-1.37.67-.12.65.9.42,1.37ZM64.75,201.13c.33-.51.44.04.49.42-.17.87-.83.42-.49-.42ZM70.9,175.62c-.4.88-1.68.8-1.97-.12-2.54-8.05-3.91-16.62-3.91-25.5,0-34.54,20.69-64.32,50.35-77.59.89-.4,1.8.5,1.4,1.39l-45.87,101.83ZM82.24,207.22c-.1,1.41-1,.67-.84-.35.11-1.37,1.02-.74.84.35ZM124,229.44c0,.72-.71,1.24-1.39,1-14.44-4.92-27.16-13.65-36.95-24.96-.58-.68-.09-1.73.8-1.73h27.35c.34-1.89,1.34-3.81,2.61-4.44.79.88,1.44,2.68,1.64,4.44h3.83c1.16,0,2.1.94,2.1,2.1v23.59ZM97.11,196.31c0,1.23-.97,3.27-1.67,1.85-.46-1.6,1.24-4.8,1.67-1.85ZM101.13,200.51c.2-.98,1.53-.14,2.23-.18.68-.02.66,1.9-.13,1.56-.7-.43-2.12-.32-2.09-1.38ZM124,144.64v42.01c0,1.16-.94,2.1-2.1,2.1h-38.82c-.76,0-1.27-.79-.96-1.48l39.87-88.53c.46-1.03,2.01-.7,2.01.43v39.59c.21-.05.43-.1.63-.18,1.27-.68,2.55-1.39,3.3.32,0,2.33-1.43,6.88-3.93,5.75ZM136.42,92.29c-.01,1.02-1.29,2.47-2.01,1.57-.91-1.7,1.96-5.02,2.01-1.57ZM135.52,207.09c-.97-.77-1.33-3.93-.5-4.79.57.54,1.6.79,1.69,1.67-.09.94.05,3.29-1.19,3.11ZM214.33,205.48c-15.59,18.06-38.66,29.52-64.33,29.52-3.42,0-6.78-.23-10.08-.63-.53-.06-.92-.52-.92-1.05v-27.46c0-1.16.94-2.1,2.1-2.1h1.15c.33-.82.63-.63.93,0h6.99c.22-1.03.92-1.59,2.27-.93.01-.04.01-.07.02-.11.05.02.1.03.15.05.08-.13.15-.27.22-.25.84.31-.09.18-.02.31-.06-.02-.13-.04-.19-.06-.02.04-.05.08-.07.11-.03-.02-.07-.03-.1-.05-.09.3-.13.61-.15.93h6.41c-.32-1.3-.28-2.8.53-3.83.66.43,1.27,2.27,1.3,3.83h3.58c.5-.61.99-1.32,1.1-2.44-.02,0-.04,0-.06.01-.01-.04-.03-.08-.04-.12-3.19,1.39-4.05-4.79-1.1-3.32-.01-.03-.02-.06-.03-.1.08.04.15.07.22.09.16-.02.31-.05.47-.07-.16.11-.31.12-.47.07-.05,0-.1.01-.14.02-.02,0-.03,0-.05-.02.37,1.11.73,2.22,1.1,3.32.04-.02.08-.02.12-.04,0,.05-.01.1-.02.15,1.36-.4,2.57.82,3.73,1.43,0-.03.02-.05.03-.07.08.05.16.07.24.08.14-.04.28-.08.43-.13-.14.12-.28.15-.43.13-.05.02-.11.03-.16.05-.04-.02-.07-.04-.11-.06-.14.37-.3.7-.48,1h20.63c.09-2.12.73-4.82.34-6.06-.07-1.55,1.66-2.26,2.65-3.1,1.4.98.29,4.52,1.27,6.14.19.91.45,2.01.46,3.02h7.96c-.25-2.4-.53-4.74.05-6.81,1.79.3,1.83,4.27,2.87,5.88l-.08-.16c1.17-.58,2.3-1.28,3.56-1.61.93.2,1.31,1.38,1.34,2.7h4.01c.89,0,1.39,1.05.8,1.73ZM234.4,159.82c-.81,6.97-2.47,13.68-4.86,20.05-.29.78-1.35.91-1.84.23l-15.08-20.94c-.5-.7,0-1.67.85-1.67h18.83c1.25,0,2.24,1.08,2.09,2.32ZM233.48,142.5h-31.78c-.68,0-1.31-.33-1.71-.87l-53.92-74.89c-.49-.68-.02-1.63.82-1.67,1.03-.04,2.07-.07,3.11-.07,43.93,0,80.17,33.53,84.53,76.34.06.62-.43,1.16-1.05,1.16Z"/></g></svg>