<?xml version="1.0" encoding="UTF-8"?><svg id="Layer_2" xmlns="http://www.w3.org/2000/svg" viewBox="0 0 300 300"><defs><style>.cls-1{fill:#fff;fill-rule:evenodd;}.cls-1,.cls-2{stroke-width:0px;}.cls-2{fill:#1d1d1b;}</style></defs><g id="Layer_1-2"><path class="cls-2" d="M277.33,53.44c.02,3.94,2.55,2.99,4.86,4.67,2.44,2.55,4.6,12.18,2.12,15.25-.85,1.15-1.01,2.08-.66,3.83.24,3.75,7.07,10.76,1.01,12.73-2.25,2.64,2.69,4.46,1.7,7.42-.78,3.36,3.5,3.92,2.63,7.3-.87,5.39,6.16,9.06,3.73,14.69-.67,2.96-4.05,1.48-3.67,4.27,1.57,3.2-1.81,6.17-1.05,9.38,5.13,5.29-1.93,5.9-.38,11.03,2.36,4.43,1.2,10.86,3.1,15.31-.09.56-.34.86-.61.61-1.34-1.25-2.76-1.43-4.2-1.44-.56-.11-.7,1.09-.32,1.44,4.48,2.1,3.28,9.11,3.19,13.5,2.98,6.58,9.27-.84,11.06,15.75,1.11,10.06-3.47,16.8-12,19.76-.5.31-.85,1.39-.66,2.44.64,2.63-.31,5.39-1.23,7.65-2.82,4.04-1.35,13.94-6.71,16.53-3.01,3.43-4.75,8.17-7.66,11.79-.41.59-.9,1.31-1.37,1.37-1.86.18-2.92,3.27-4.46,4.51-2.03.6-.64-4.91-2.68-4.08-.93,1.53-2.56,2.87-2.1,4.93.37,5.04-5.51,6.9-7.69,11.38-4.34,6.3-7.19,14.68-11.83,21.26-3.25,3.99-8.3,5.78-11.98,9.2-4.96,2.12-9.84,2.79-15.12,3.18-5.99,1.04-12.05.15-17.97.13-7.37,1.57-14.83-.76-22.24.74-2.09-.28,4.69.17,0,0-10.07-2.31-20.25-.09-30.45-1.63-12.75-2.87-25.03-6.44-37.99-9.6-14.65-3.84-29-8.14-42.7-14.51-17.6-6.72-30.35-21.34-44.91-33.21-10.45-12.27-12.19-29.34-16.14-44.93-1.7-18.16-2.6-36.14-1.45-54.24,1.49-24.32,3.14-48.93,13.11-71.54,4.61-9.9,7.71-24.35,15.54-31.95,9.31-9.13,17.02-20.19,28.56-26.61,10.03-5.57,21.09-6.99,32.2-5.04,2.99.57,51.63-5.84,53.32-5.35,2.76-.03,3.37,6.42,4.97,4.03.85-3.47,1-5.31,3.43-4.85,8.73.47,17.62-1,26.2-.35,12.1.77,24.1.7,35.9,4.22,3.29.66,6.35-.11,9.22,2.6,1.46,1.22,2.82,2.62,4.45,1.63,11.89,3.56,20.91,10.89,31.03,18.38,2.7,1.36,4.94,4.69,7.33,7.15,6.06,3.11,10.79,11.05,16.14,15.49,2.72,2.92-1.59,5.37-3.71,2.09l.05.16c-.49-1.79-2.13-1.91-2.5-1.24-.43.78.7,1.81,1.68,2.9l-.09-.09Z"/><path class="cls-1" d="M150,50c-55.23,0-100,44.77-100,100s44.77,100,100,100,100-44.77,100-100-44.77-100-100-100ZM150,65c43.93,0,80.17,33.53,84.53,76.34.06.62-.43,1.16-1.05,1.16h-31.78c-.68,0-1.31-.33-1.71-.87l-53.92-74.89c-.49-.68-.02-1.63.82-1.67,1.03-.04,2.07-.07,3.11-.07ZM140.9,85.24l40.06,55.6c.5.7,0,1.67-.85,1.67h-39.01c-1.16,0-2.1-.94-2.1-2.1v-54.55c0-1.02,1.31-1.44,1.9-.61ZM141.1,157.5h50.77c.68,0,1.31.33,1.71.87l20.67,28.71c.5.7,0,1.67-.85,1.67h-72.3c-1.16,0-2.1-.94-2.1-2.1v-27.04c0-1.16.94-2.1,2.1-2.1ZM70.9,175.62c-.4.88-1.68.8-1.97-.12-2.54-8.05-3.91-16.62-3.91-25.5,0-34.54,20.69-64.32,50.35-77.59.89-.4,1.8.5,1.4,1.39l-45.87,101.83ZM122.6,230.44c-14.44-4.92-27.16-13.65-36.95-24.96-.58-.68-.09-1.73.8-1.73h35.43c1.16,0,2.1.94,2.1,2.1v23.59c0,.72-.71,1.24-1.39,1ZM124,142.5v44.15c0,1.16-.94,2.1-2.1,2.1h-38.82c-.76,0-1.27-.79-.96-1.48l39.87-88.53c.46-1.03,2.01-.7,2.01.43v43.34ZM150,235c-3.42,0-6.78-.23-10.08-.63-.53-.06-.92-.52-.92-1.05v-27.46c0-1.16.94-2.1,2.1-2.1h72.43c.89,0,1.39,1.05.8,1.73-15.59,18.06-38.66,29.52-64.33,29.52ZM213.48,157.5h18.83c1.25,0,2.24,1.08,2.09,2.32-.81,6.97-2.47,13.68-4.86,20.05-.29.78-1.35.91-1.84.23l-15.08-20.94c-.5-.7,0-1.67.85-1.67Z"/></g></svg>