<?xml version="1.0" encoding="utf-8"?>
<!-- Generator: Adobe Illustrator 28.2.0, SVG Export Plug-In . SVG Version: 6.00 Build 0)  -->
<svg version="1.1" id="Layer_2_00000064322413207051444760000008457575343375772090_"
	 xmlns="http://www.w3.org/2000/svg" xmlns:xlink="http://www.w3.org/1999/xlink" x="0px" y="0px" viewBox="0 0 300 300"
	 style="enable-background:new 0 0 300 300;" xml:space="preserve">
<style type="text/css">
	.st0{fill:#F83331;}
	.st1{fill-rule:evenodd;clip-rule:evenodd;fill:#FDF488;}
</style>
<g id="Layer_1-2">
	<path class="st0" d="M277.3,53.4c0,3.9,2.5,3,4.9,4.7c2.4,2.5,4.6,12.2,2.1,15.2c-0.9,1.2-1,2.1-0.7,3.8c0.2,3.8,7.1,10.8,1,12.7
		c-2.2,2.6,2.7,4.5,1.7,7.4c-0.8,3.4,3.5,3.9,2.6,7.3c-0.9,5.4,6.2,9.1,3.7,14.7c-0.7,3-4,1.5-3.7,4.3c1.6,3.2-1.8,6.2-1,9.4
		c5.1,5.3-1.9,5.9-0.4,11c2.4,4.4,1.2,10.9,3.1,15.3c-0.1,0.6-0.3,0.9-0.6,0.6c-1.3-1.2-2.8-1.4-4.2-1.4c-0.6-0.1-0.7,1.1-0.3,1.4
		c4.5,2.1,3.3,9.1,3.2,13.5c3,6.6,9.3-0.8,11.1,15.8c1.1,10.1-3.5,16.8-12,19.8c-0.5,0.3-0.9,1.4-0.7,2.4c0.6,2.6-0.3,5.4-1.2,7.6
		c-2.8,4-1.4,13.9-6.7,16.5c-3,3.4-4.8,8.2-7.7,11.8c-0.4,0.6-0.9,1.3-1.4,1.4c-1.9,0.2-2.9,3.3-4.5,4.5c-2,0.6-0.6-4.9-2.7-4.1
		c-0.9,1.5-2.6,2.9-2.1,4.9c0.4,5-5.5,6.9-7.7,11.4c-4.3,6.3-7.2,14.7-11.8,21.3c-3.2,4-8.3,5.8-12,9.2c-5,2.1-9.8,2.8-15.1,3.2
		c-6,1-12.1,0.1-18,0.1c-7.4,1.6-14.8-0.8-22.2,0.7c-2.1-0.3,4.7,0.2,0,0c-10.1-2.3-20.2-0.1-30.4-1.6c-12.8-2.9-25-6.4-38-9.6
		c-14.7-3.8-29-8.1-42.7-14.5c-17.6-6.7-30.4-21.3-44.9-33.2C7.6,228.7,5.9,211.7,1.9,196.1c-1.7-18.2-2.6-36.1-1.5-54.2
		C2,117.5,3.6,92.9,13.6,70.3c4.6-9.9,7.7-24.3,15.5-32c9.3-9.1,17-20.2,28.6-26.6c10-5.6,21.1-7,32.2-5c3,0.6,51.6-5.8,53.3-5.3
		c2.8,0,3.4,6.4,5,4c0.9-3.5,1-5.3,3.4-4.8c8.7,0.5,17.6-1,26.2-0.3c12.1,0.8,24.1,0.7,35.9,4.2c3.3,0.7,6.4-0.1,9.2,2.6
		c1.5,1.2,2.8,2.6,4.4,1.6c11.9,3.6,20.9,10.9,31,18.4c2.7,1.4,4.9,4.7,7.3,7.2c6.1,3.1,10.8,11,16.1,15.5c2.7,2.9-1.6,5.4-3.7,2.1
		l0,0.2c-0.5-1.8-2.1-1.9-2.5-1.2c-0.4,0.8,0.7,1.8,1.7,2.9L277.3,53.4L277.3,53.4z"/>
	<path class="st1" d="M150,50C94.8,50,50,94.8,50,150s44.8,100,100,100s100-44.8,100-100S205.2,50,150,50z M150,65
		c43.9,0,80.2,33.5,84.5,76.3c0.1,0.6-0.4,1.2-1.1,1.2h-31.8c-0.7,0-1.3-0.3-1.7-0.9l-53.9-74.9c-0.5-0.7,0-1.6,0.8-1.7
		C147.9,65,149,65,150,65z M140.9,85.2l40.1,55.6c0.5,0.7,0,1.7-0.9,1.7h-39c-1.2,0-2.1-0.9-2.1-2.1V85.9
		C139,84.8,140.3,84.4,140.9,85.2L140.9,85.2z M141.1,157.5h50.8c0.7,0,1.3,0.3,1.7,0.9l20.7,28.7c0.5,0.7,0,1.7-0.9,1.7h-72.3
		c-1.2,0-2.1-0.9-2.1-2.1v-27C139,158.4,139.9,157.5,141.1,157.5L141.1,157.5z M70.9,175.6c-0.4,0.9-1.7,0.8-2-0.1
		c-2.5-8.1-3.9-16.6-3.9-25.5c0-34.5,20.7-64.3,50.3-77.6c0.9-0.4,1.8,0.5,1.4,1.4L70.9,175.6L70.9,175.6z M122.6,230.4
		c-14.4-4.9-27.2-13.6-37-25c-0.6-0.7-0.1-1.7,0.8-1.7h35.4c1.2,0,2.1,0.9,2.1,2.1v23.6C124,230.2,123.3,230.7,122.6,230.4
		L122.6,230.4z M124,142.5v44.1c0,1.2-0.9,2.1-2.1,2.1H83.1c-0.8,0-1.3-0.8-1-1.5L122,98.7c0.5-1,2-0.7,2,0.4L124,142.5L124,142.5z
		 M150,235c-3.4,0-6.8-0.2-10.1-0.6c-0.5-0.1-0.9-0.5-0.9-1.1v-27.5c0-1.2,0.9-2.1,2.1-2.1h72.4c0.9,0,1.4,1.1,0.8,1.7
		C198.7,223.5,175.7,235,150,235L150,235z M213.5,157.5h18.8c1.2,0,2.2,1.1,2.1,2.3c-0.8,7-2.5,13.7-4.9,20.1
		c-0.3,0.8-1.4,0.9-1.8,0.2l-15.1-20.9C212.1,158.5,212.6,157.5,213.5,157.5L213.5,157.5z"/>
</g>
</svg>
