<svg xmlns="http://www.w3.org/2000/svg" fill="none" viewBox="0 0 1700 1247">
    <path fill="oklch(0.9 0.2 100)"
        d="M1356.7 559c19 0 34.3 15.6 34.3 34.8a34.6 34.6 0 0 1-34.3 34.9c-19 0-34.3-15.6-34.3-34.9a34.6 34.6 0 0 1 34.3-34.8Zm-407.8-18.1a8 8 0 0 1 7.6 5.5 5 5 0 0 0-1.1.4l-15.6 6.5a8 8 0 0 0-3.7 3l-1.6 2.5c-1.1 1.8-1 4.1.5 5.6 2 2.3 1.4 5.9-1.4 7.2v.1a4 4 0 0 0-1.7 1.4l-.1.1a5.6 5.6 0 0 0 0 6.7l1.2 1.6a8 8 0 0 1 1.4 3.5l.1.8.7 2.1 1.4 3.1.2.3h-17.1a8 8 0 0 1-8-8v-34.4a8 8 0 0 1 8-8h29.1Zm-13.5-53.7a8 8 0 0 1 6.4 3.2l.3.4a8 8 0 0 1 1.7 4.9v4.6a8 8 0 0 1-7.3 8l-7.2.6a8 8 0 0 1-8.7-7.2l-.6-7.1a6.7 6.7 0 0 1 6.7-7.4h8.7Z" />
    <path fill="oklch(0.9 0.2 100)" fill-rule="evenodd"
        d="M596.3 9 612 5.5 629 18l3.9 14.8-6.6 21.2-3.7 11.2 10.3 21.4-5.2 16-15.7 14.8-24.9 10.5-14.8-6.6-38-45.7L520.9 54l4.2-18.6 12.3-16L562 4.2h17.8l16.5 5Zm9 7.2-3.1 7.3 8.1 17.7 7.4 5.7 5.2-5.7V30.7l-5.2-12.4-6.2-4-6.2 1.9Z"
        clip-rule="evenodd" />
    <path fill="oklch(10% 0.07 257)"
        d="M533.3 974.5c1.1-1.7 3.9-1.4 5.8.4 2.1 2.2 2 5.1-.3 5.1-2.5 0-6.4-3.9-5.5-5.5Zm4-6.9c1.2-3 3.2-3 7 .7 3.7 3.4 4 6.4.5 6.4-3.9 0-8.4-4.3-7.5-7.1Zm958.8-43.6c2.6 0 4.4.5 4 1-.6 1.1-8.8.6-8.8-.5 0-.2 2.2-.5 4.8-.5Z" />
    <path fill="oklch(10% 0.07 257)" fill-rule="evenodd"
        d="M1052 871c3.3-2 2.5-2 6.5-.3 4 1.4 6.2 8 4.7 14.5-1.9 8.5-12.8 16.8-20.7 15.9-3.3-.3-3.8-1.1-4.2-4.8-1-9.4 5.2-20.7 13.7-25.4Zm6 13.8c0-2.3-.8-2.4-7.3-1-6.4 1.4-9.9 12.2-3.9 12.2 2.8 0 11.2-8.4 11.2-11.2Zm-3.5-10.1c-1 0-1.6.5-1.2 1.3.4.7 1.8 1.3 2.8 1.3 1.1 0 1.6-.6 1.2-1.3-.4-.8-1.7-1.3-2.8-1.3Z"
        clip-rule="evenodd" />
    <path fill="oklch(10% 0.07 257)"
        d="M1462 822.3c0-7.9.4-10.4 1.7-9.9 1.2.4 1.6 6.3 1.6 23.3 0 12.7-.4 23-.8 23-.9 0-2.5-22.2-2.5-36.4Zm-37.3-31.6c6.8 0 12.1.2 11.7.6-1 1-22.4 1.1-23.3.2-.6-.4 4.8-.8 11.6-.8Zm-307.4 48c2.2 0 2.8 2 4.6 14 .6 4.4 2.1 12.6 3.4 18.2a52 52 0 0 1 1.6 13.4c-.4 2.9-.5 2.8-2.2-1-2.4-5.7-9.4-35.2-9.4-40.4 0-2.9.7-4.2 2-4.2ZM1031 806c6.5-2.4 7-2.4 7-.3 0 3.1-6.3 5-22.1 6.3-17.6 1.6-39.1.5-45.8-2.1-2.5-1.1-4.2-2.2-4-2.4.3-.3 6.8.4 14.6 1.4a100 100 0 0 0 29.7.6c8.5-1 17.9-2.4 20.7-3.5Z" />
    <path fill="oklch(10% 0.07 257)" fill-rule="evenodd"
        d="M1045.6 777.6c6.8-6.3 16.4-2 16.4 7.2 0 6.5-5.3 11.7-13.3 13a28 28 0 0 0-9 3c-2.8 1.7-3 1.7-3-.5a53 53 0 0 1 8.9-22.7Zm10.8 5.3c-.5-5-5.2-5.4-9-.8-3.5 4.6-3.3 9.4.6 8.8 5.3-.9 8.8-4.2 8.4-8Zm-114-21.3c4.3-2.1 6.4-1.9 11.3 1 5.4 3.3 8.3 9.8 8.3 18 0 7.1-2.5 10-8.7 10-9.3 0-18.9-15.1-15.3-24a11 11 0 0 1 4.4-5Zm10.3 18.4c-6 0-6.8 1.5-2.4 4.5 3.2 2.3 7.7.8 7.7-2.5 0-1.5-1.6-2-5.3-2Zm-1.6-13.9c-3.8-2.6-4.2-2.6-6.8.3a7.7 7.7 0 0 0-1.1 9.5c1 1.4 2.3 1.6 5.7.6 5.6-1.6 6.8-7.2 2.2-10.4Z"
        clip-rule="evenodd" />
    <path fill="oklch(10% 0.07 257)"
        d="M1038 760.1c6.5-.2-.5 3.9-8.8 5.2-10.4 1.8-32.5 1.8-32.5 0 0-.8 4.4-1.3 10.4-1.4 5.6-.2 14.1-1 18.9-1.9 4.8-1 10.1-1.7 12-1.9Zm-72.8.6c-3.3-2.6-1.2-2.6 10.1.1 9.1 2 13.5 4.5 8.2 4.5a50 50 0 0 1-18.3-4.6Zm331.5 7.2c0-8.8 2.2-2.7 6.5 17.8 11.3 55.1 16.1 88.2 12.3 85.8-.6-.4-1.5-4.3-2-8.4a194 194 0 0 0-3-17.1c-4-18.8-13.8-74.4-13.8-78.1Zm-659.1-5.5c3-3.2 7-3.2 7 .1 0 2.6-5.7 8.2-8 8.2-2 0-1.4-5.8 1-8.3Zm597.6-103.1c7-2.1 16.7-1.6 23.9 1.5a79.3 79.3 0 0 1 23.7 23.9c1.2 4.6 0 5.4-4 2.8-3.3-2.2-3.5-2-8.5 2.9-3 2.8-5.5 5.9-5.8 6.8-.8 2.1-5.2.4-5.2-2 0-1 2.8-5 6.3-8.7 5-5.4 5.9-6.9 4.3-8-3.5-2.1-6.4-1.2-11.2 3.5-5.1 5.2-5.9 9-2.6 13.7 2 2.8 2 3.4-.2 5.8-3.2 3.4-.6 6.6 2.8 3.3 1.7-1.6 2.6-1.9 4-.8 2.6 2.1-6.4 20-10 20-2.2 0-2.4.7-1.8 4.7 1 5.8-1.4 9.2-5 7.2-3-1.5-5.2-.6-5.2 2.2 0 4.8-12.4-.9-18.6-8.6a41.2 41.2 0 0 1-10-30.2c.2-20.6 8.6-35.3 23.1-40ZM414.1 399.6c-.1-1.5 1.8-1 5 1.2 1.6 1 2.9 3 2.9 4 0 1.6-1 1.3-3.9-1-2.2-1.8-4-3.5-4-4.2Zm-22.1-6.3c1.3-2.2 8.7-.5 11.9 2.7 3.7 3.7 2.2 4.1-5.2 1.6-8.3-2.8-7.8-2.5-6.7-4.3Zm-6 1.4c.7 0 1.6.5 2 1.3.4.7-.4 1.3-2 1.3s-2.4-.6-2-1.3c.4-.8 1.3-1.3 2-1.3Zm912.3 50.6c6.5.2 6.9.3 4.4 2.2-3.1 2.2-10.2 2-11.1-.6-.4-1 1.5-1.6 6.7-1.6Zm21.4-23c.8-2.7 1.5-2.8 5.1-1 3 1.8 3.3 5.4.4 5.4-1 0-4.3 1.7-7 3.8a45 45 0 0 1-42.5 6.8 51 51 0 0 0-10-2.6c-2.6 0-3.2-2.7-.9-5 1.2-1.2 2.4-.9 5 1.1 2.2 1.5 7.8 3.2 14.3 4.1 9.4 1.4 11.6 1.2 17.9-.8 8.4-2.8 17-8.4 17.7-11.8Zm-46.7-10.7c1.7-2.8 1.7-2.8 2 1.5.5 3.3 1.5 5 4.5 6.6 4.8 2.8 4.9 4.3.2 4.3-6.9 0-10.2-6.1-6.6-12.4Zm15.8 7.1c1.5 0 2.3.5 1.9 1.3-.4.7-2 1.3-3.5 1.3s-2.3-.6-1.9-1.3c.4-.8 2-1.3 3.5-1.3ZM1242 394c1-1.3 3-1.9 4.5-1.5 1.6.4 6.3.8 10.6.8 4.1 0 7.6.6 7.6 1.1 0 .7-2.4 2.3-5.4 3.6-4.6 2.1-6 2.1-11.6.7-7.8-2.2-7.8-2.2-5.7-4.7Zm80.7-6.5c10.9-4 11.8-1.6 1.8 4.5-7.6 4.5-12.2 5.3-18.4 2.7-7.3-3-4.4-6 5.1-5.5a39 39 0 0 0 11.5-1.7Zm62.5-27.5c5-2.1 8.8-1 8.8 2.7 0 1.7-.8 2.1-3 1.7-2-.4-4 .5-6.2 2.8-3 3.2-3 3.5-1 6.7 2.6 4 2.9 7.4.6 7.4-1 0-3 1.6-4.7 3.6l-2.9 3.8-.1-10.2c0-10.9 2.4-16.1 8.5-18.5Zm-146.9 11.3c4.6-2.1 12.4-1.6 15.6 1.1 1.4 1.3.1 1.7-6.7 2.4a75 75 0 0 0-10.4 1.3c-4 1.2-2.8-2.9 1.5-4.8Zm65.4-6.9c7.4-2.1 16-1.3 20.6 1.7l3.7 2.6-14 .9c-15.3 1-19.9.4-17.5-2 1-1 4.2-2.3 7.2-3.2Zm-807-78.3c0-2.1 3.4.3 6.4 4.6 4.8 7 3.3 18.6-3 23.8-4 3.4-4.6 0-1.2-6.6l3.5-6.7-2.8-7c-1.6-3.8-3-7.4-3-8Zm72.5 18c1.5-.1 2.3.3 1.7.7-.4.4-1.6.5-2.5.1-1-.4-.7-.8.8-.8Zm-382.8 58.6c4.5 0 6.1.9 12.7 7.2 6.2 6.2 7 7.6 5.6 9.3-2.2 2.7-11.2 2.8-13.4.1-.9-1-1.3-3.8-1-6 .6-4.1.5-4.1-4.8-3.7-4.6.3-5.6 1-5.9 3.5-.5 3.8-3.5 3-4-1-.3-1.8.8-4.4 2.5-6.2 2.2-2.3 4.4-3.2 8.3-3.2Zm116 0c2.3-1.5 4.8-2.6 5.5-2.3 2.9 1 2 3.6-1.8 5.5-8.1 4.2-11.3 1.4-3.7-3.2Z" />
    <path fill="oklch(10% 0.07 257)" fill-rule="evenodd"
        d="M281.9 313.3a47 47 0 0 1 19.7-.2c5.7 3.6 9.5 31.8 5.2 40-1.2 2.2-4 5.2-6.4 6.4a43.3 43.3 0 0 1-24.5 2c-12.8-3.5-28.4-17.9-26.7-24.8 1.5-6 20.8-19.8 32.7-23.4Zm16.6 34.2c-4.4-1.8-10.9-.7-17.6 2.6-3.8 1.9-6.9 3.9-6.9 4.6 0 3.2 15.7 3.6 22.1.5 4.8-2.3 6.2-6.3 2.4-7.7Zm.4-27.9c-.6-2.3-14-2.5-20-.3-8.9 3.4-26.9 16.7-22.5 16.7 3 0 32.8-9.6 37.9-12.1 2.9-1.5 5-3.4 4.6-4.3Z"
        clip-rule="evenodd" />
    <path fill="oklch(10% 0.07 257)"
        d="M229.9 297c4.8-4.2 10.1-4.7 16.1-1.7 5.9 3.1 5 5.6-2.3 6.7a20 20 0 0 0-14.5 10.7c-2.4 4.4-5 1-4.1-5.8.5-4.6 1.6-7 4.8-9.8Zm39.7 4c2.1-2.3 5.7-3.3 5.7-1.4 0 1.3-5.6 7-6.9 7-1.7 0-1.2-2.9 1.2-5.5Zm-52-23.8c4.1-3.6 5.3-4 12.1-3.6 5.9.3 7.8 1 8 2.7.3 1.6-1.3 2.6-6.6 4.2a22.7 22.7 0 0 0-15.9 13.9c-1.9 5.5-4.4 5-5-1-.6-6 2-11.3 7.4-16.2Z" />
    <path fill="oklch(10% 0.07 257)" fill-rule="evenodd"
        d="M228.4 219.3c3.5-4 6.4-4.2 8.3-.6 1 2 .9 3.6-.7 6.5-2.8 5.5-2.5 5.9 2 3.5 4.5-2.4 9.5-2.7 11.6-.6 1 1 3.3.4 8-2.1 10.4-5.3 14.8-1.3 7.6 7.2l-3.5 4.1h3.2c1.6 0 5.4.7 8.2 1.5 5.3 1.5 6.5 4.4 2.6 7.3-2.2 1.6-2.2 1.9 0 4.2 2.2 2.2 2.3 2.1 2.3-1.4 0-4.9 3.2-4.6 8.8 1 6.8 6.8 6.3 15-.7 10-2-1.5-5.8-3-8.8-3.5l-5.3-.8 7.2 7.9a80.8 80.8 0 0 1 10.4 14.5c4.4 8.8 7.3 11.9 18 18.7 5.9 3.8 10 7.7 12.1 11.6 6.3 10.6 10.6 43.6 7.6 58-1.7 7.8-4.6 11.6-18.6 23.4-4.3 3.6-4.4 3.9-3.8 12.2.4 4.6 1.2 9.2 1.6 10 .6.8 3.5 1.4 6.6 1.4 2.9 0 10.9 1 17.7 2.2 9.3 1.7 14.5 2 21.6 1l9.3-1.2-3-9a29.3 29.3 0 0 0-9.8-15.4c-7.6-7-9-12.2-4.4-14.9 7-3.6 18 1 24.4 10 2.4 3.3 4.7 6 5.4 6 2.1 0 2.6-7 1-18.3l-2.1-17-1.2-9.5c-1.6-9.5 4.7-16.7 10.3-11.6 3.8 3.5 5.7 8.5 8.4 23.7A86 86 0 0 0 394 374c.6.5 1.4-1.5 1.8-4.7 4.4-35.6 5.6-40.4 10.8-42.8 2.9-1.3 3.8-1.2 6.4 1.3 3.3 3.5 3.6 9.9 1.8 38.3-1.3 20.3-1.8 20.4 11.1-3.3 10.1-18.6 11.3-20 16.3-20 8.4 0 7.3 11-3.1 34.2a84 84 0 0 0-6.3 15.8c.3.4 6-3.4 12.6-8 13.8-10.2 18.2-11 18.9-3.6.7 6.4-4.3 13-17.2 23.8-9.7 8-14.5 14.3-14.5 19.1 0 1 2.8 1.3 7.7 1.2 4.1-.3 9.9.4 12.5 1.5 4.2 1.4 7.1 1.6 15.2.4 5.6-.8 10.8-2.2 11.6-3 2-2.1 2-75.2 0-89.6-1.2-8.9-2.1-11.2-6.9-17-6.5-8.4-8.1-13.6-8.1-27.6 0-11-1-13.8-8.7-26.7-5-8.1 1.6-16 10.3-12.4 5.6 2.3 12.4 10.7 15 18.4 3.9 11.9 8.6 8.3 20.8-16 4.6-9 9.9-19 12-22 4.4-6.5 10.8-9.7 13.9-7.2 3.3 2.8 2.3 9.2-4.1 25a87 87 0 0 0-5.5 15.8c.4.4 3.3-2.1 6.5-5.7 13.9-15.5 24.7-25.8 28-26.4 2.8-.8 4-.3 5.8 2.5 2.1 3.2 2.1 3.7-.6 9.2-1.4 3-5.6 9.2-9.2 13.6-9 11.5-12.6 16.7-11.8 17.6.4.4 8.2-3.3 17.3-8.1 18.7-9.9 24-11 26.5-5.5 2.3 5.2-1.3 9-20.4 21.7-9 6-16.6 11.6-16.9 12.3-.3.8 6.1 1.3 17 1.3 17.1 0 17.4 0 19.5 3.4 2.2 3.3 2.2 3.6-.8 6.6-3.7 4-9.2 5.6-22.6 6.8A63 63 0 0 0 545 316c-.8.4-5.9 4.9-11.1 10l-9.6 9.3 3.6 14.4a489 489 0 0 1 14.3 82c1.8 28 .6 37.7-5.4 43.2-4.5 4-26.2 11.6-45.6 15.9-6.9 1.6-15.4 3.4-18.9 4.1l-6.4 1.5-2.7 9c-1.4 5-2.6 10.2-2.6 11.6 0 4.3-2.6 5.4-14.8 6.3-9.9.7-11.8.5-13.5-1.6a309 309 0 0 1-14.4-26.8c-11.9-23.9-12.3-24.4-14.3-21.5-1.8 2.6-1.8 3.5-.4 5.9 4.2 6.4 22.3 40 30.7 56.8a455 455 0 0 1 31.2 86.8c.4 2 5.2 9.3 10.7 16.3 14 17.8 19.8 26.9 19.8 31 0 2.3-2 5.4-5.4 9l-5.4 5.6 2.2 5.6c1.3 3.4 4.1 6.8 6.8 8.6 4.8 3.2 5.7 4.6 7.7 11.1 1 3.7 1.6 4 6.7 3.6 7.4-.5 12.6 2.4 18.6 10.4 3.6 4.8 8.4 8.8 17.2 14 13 7.6 27.2 18.7 27.2 20.8 0 2.7-7.7-.7-18.6-8.1a137 137 0 0 0-18.6-10.7 22 22 0 0 1-11.6-10.1 49.8 49.8 0 0 0-6.1-8.2c-1-.5-5.9-1.3-11-1.7-10-.7-10-.5-12-11-.6-2.7-2.2-4.3-5.5-5.8-3.6-1.5-5.4-3.5-7.8-9a29.3 29.3 0 0 0-5-8.5c-2.8-2.4-8-.6-31.4 10.8l-20.2 9.9 4.1 9.9 4.1 9.7-.2 25.2c-.2 13.9-.8 26.1-1.4 27.3-2.1 3.6-2.9-5.7-2.5-29.2.4-21.3.3-22.2-3.3-31.4l-3.8-9.6-19 9.8a352.5 352.5 0 0 1-95.6 35.2l-7.5 1.5-1 11.6c-.3 6.4-.3 13.2.2 15.3l1 3.6 5.1-4.1c6-5 9.5-11.3 11.6-21.6 1.8-8.3 4-10.1 4-3.2 0 10-3.8 18.5-12 26.5l-7.6 7.5-.9 10.5c-.4 5.8-1.2 13.1-1.6 16.4-.7 5.2-.3 6.4 2.7 9.2 4.5 4.3 4.4 7-1.2 14.3-4.6 5.9-4.7 6.5-4.7 17.3 0 9.8-.7 13-4.8 23.5-4.5 11.6-4.7 12.8-3.9 22.5 1 10.2 1 10.2-3.6 15.2-4.1 4.8-4.4 5.8-4.4 14.3v9l-7.6 7.4c-4.1 4-8 7.3-8.4 7.3-.4 0-.6-1-.6-2.2 0-1.4 3-5.2 6.6-8.6l6.7-6.1v-9.2c0-8.4.4-9.7 4-14.1 4-4.8 4.1-5.2 3.2-14.7-.8-9-.4-10.7 3.5-20.4a63.6 63.6 0 0 0 5.2-24.1c.8-12.3 1.3-13.9 5.3-19.5l4.3-6-3.5-5.2c-3.2-4.7-3.5-5.9-2.5-11.9a149 149 0 0 0-.6-37.2c-.8-2.8-.6-7.4.4-13.2l1.8-8.9h-13v7.6c0 4.1-.7 11.3-1.5 16-1.4 8.5-1.4 8.7 2.8 14.7 3.9 5.2 4.3 6.6 3.5 11.4a270 270 0 0 0-2 15.2 37 37 0 0 1-4.1 14.4c-2.8 4.6-3 5.5-1.5 11.6 2.3 10.3 1.9 14.7-3.2 28.7a118 118 0 0 0-6.1 25c-1.6 15-6.8 32.6-11.2 38a22.1 22.1 0 0 1-7.9 5.4c-6.1 2-8.1 4.7-10.8 14a108 108 0 0 1-4.8 13c-3.9 7.7-3.3 10 5.2 18.2a141 141 0 0 0 70.7 38.8c12.6 2.5 16.2 1 28-12.1a70 70 0 0 0 9.6-12.6c0-1-4.3-1.8-13-2.4a125 125 0 0 1-22.4-3.6c-19-5.8-44.9-22.2-57.3-36.4-5.2-6-7.7-11.6-5.2-11.6.4 0 6.3 5.6 13 12.3 8.5 8.5 15.7 14.4 23.5 19 14.8 8.7 34 15.3 44.8 15.4h8.3l6.8-7.5c6.8-7.3 21.5-34.4 21.5-39.3 0-3-2.6-3.7-14-5.2a265.7 265.7 0 0 1-33.5-5.3c-3-1.2-3.2-1.8-3.2-14.6 0-7.3.4-14.2.8-15.4 1.2-3 4.1-4.3 37.2-16.6l32-12c2.8-1.2 24.1-35.7 23-37-.5-.4-6.5 2.4-13.4 6.1-18.5 10-21.5 9-5-1.9a153.9 153.9 0 0 0 37.5-34.8c13.5-18.8 12.8-16.2 12.6-55.8-.4-34.2-1-38.7-5.2-47.1a18.3 18.3 0 0 1-2.2-6.5c.2-4.6 6.6 4.5 8.7 12.2 2.3 7.6 2.7 13.6 2.4 39.4l.1 24.4.2 9 2.9-3.7c4.4-5.3 4.8-9.3 4.1-39.5-.6-26.6-1.4-31.8-7.3-47-.4-1.1.1-1.9 1.3-1.9 2.4 0 6.6 10.3 8.7 21.3 1.9 9.4 1.9 60.4.1 65.1a290 290 0 0 1-18.2 29.9c-1.2 1.3-1.6 2.4-1.1 2.4 2.7 0 18.4-13.4 36.5-31.1 11.2-11 20.8-19.6 21.2-19.2 1.4 1.3-6.8 10.4-30.1 33.5a877.2 877.2 0 0 0-22.8 22.9c0 .5 3-.5 27.7-10.3l17.9-6.9-.8-4.1c-2.4-11.1-2.3-14.8.3-19.5 5.2-9.5 19-13.3 60.2-16.8 15.9-1.3 9.8 1.6-8.6 4.1a141.6 141.6 0 0 0-34.7 7.8c-2.3 1.2-1.5 1.6 6 3 11 2.2 18.1 2.3 21.7.3 1.6-.8 10-3.5 18.6-5.9 14.9-4.1 33.8-6.6 56.4-7.6 4.8-.1 7.7-.8 7.3-1.6-.8-1.4-18.5-1.7-41.3-.4l-15.4.8 12-2c7.4-1.2 21.1-2 35.5-2 13 0 24.1-.4 24.8-.9a26 26 0 0 0 4.1-5 17 17 0 0 1 7.8-5.8c4.4-1.5 5.2-1.3 10.5 2.5 4.7 3.4 7 4.2 12.4 4.2 5.9 0 7-.4 7.7-3.1 2.6-8.5 11.4-10.4 17.1-3.5 1.9 2.3 3.5 4.6 3.5 5.2 0 .6 3.2 1 7 .8 8.7-.1 11.6 1.9 11.6 8 0 2.8.7 4.6 1.8 4.6 16.8.1 71.8 8.1 75.2 10.8.9.9 1.7 4.2 1.7 8 0 6.1.3 6.5 3.3 6.5 4.4 0 4.3 2.1-.2 3.7-2.2.7-4.8 1.8-6 2.3-2.2.8-2.4 0-2.4-7 0-4.2-.7-8.5-1.5-9.3-1-.9-4.3-.6-11.6 1.4-8.4 2.2-14.5 2.6-33 2.8-12.3 0-25-.4-28-1.1-3.7-.8-8-.4-14 1-20 5-82.5 7.5-118.2 5-48.7-3.5-57.3-4.3-65-6.1-9.8-2.4-18.3-2.6-20.5-.4-2.5 2.5-1.8 10.4 1.9 23.2a858.2 858.2 0 0 1 15.2 64.2c0 1.8 1.5 4.6 3.3 6.3 2.8 3 4.4 3.3 12 3.3h8.7v-5.2c0-4.1.8-5.8 3.7-8.1 7.2-5.7 18.4-1 21.8 9.2.8 2.7 2 5.3 2.6 6.1.7.7 10.4 1.9 21.6 2.7 18.6 1.3 19.9 1.6 16.3 3.3a48 48 0 0 1-11 2.4c-3.8.3-7 1.1-7 1.8 0 .6.8 1.2 1.9 1.2 1 0 2.8.9 3.8 2 1.8 1.7 3.2 1.6 12.6-.8 12.1-3.1 15.6-2.6 18.2 2.6 2.7 5 5.1 5.8 11.2 3.8 3.9-1.4 5.1-2.4 5.4-5.4.4-3-.3-4-4.4-5.7-2.8-1-5.4-3.3-6-5.3-2.2-5.5-1.6-6.3 2.8-3.2 2.1 1.6 6 3 8.2 3.2 3.8.1 4.6-.6 7-5.4 4.1-8.6 5.7-9.8 12.1-9.8 7.2 0 9.9 3.3 9.9 12.2v6.4h19.6l.8-11.6c1.4-19.8 5.6-16.9 4.6 3.2l-.4 10.4 8.4.4c4.7.3 9.4-.2 10.3-1 1.7-1.5 2.3-5 5.3-38.7l2.7-28.7c.3-3.7 1-10.9 1.3-16 1.1-12.9 1.8-15.3 4.2-15.3 1.6 0 1.8 1.3 1.2 7.6a1358.4 1358.4 0 0 1-4.5 48.4c-.7 6.3-1.8 17.2-2.3 24.3-.8 12.9-.8 13 2.1 13a32 32 0 0 0 8.1-1.6c5.1-1.4 5.2-1.6 5.2-7.6 0-3.3.4-7.4.8-9.2 1-3.2 7.8-7.6 9.9-6.2.8.4 1 4.1.4 8.6-.8 8.8-1 8.7 7.7 7.2 4.4-.8 5-1.3 5.6-5.4.6-3 .2-6.2-1-8.6-1.1-2-2-5.3-2-7.3 0-2.8-.4-3.3-2.3-2.5-3.9 1.4-24.8 6-28.1 6-1.9 0-3-.7-2.7-1.6.7-1.8 2.3-2.3 19.9-5.8 11.3-2.2 11.3-2.2 10.8-6.1a23 23 0 0 1 .8-7.9c1-3 1-5.3-.4-9.4-2.7-7.5-.3-13.4 7.8-18.3 5-3 6-4.4 6.4-8.3.3-3.2 1.2-4.8 2.8-5 1.8-.4 2.3.4 2.3 3.8v4.3l3.2-3c2.8-2.6 3.2-2.7 4-.6 1.2 3-.3 4.4-10.1 8.4-6.6 2.8-9 4.5-11 8.3-2.2 4.2-2.4 5.3-.9 8.9 2 4.8 9.2 8 24.8 11 13 2.6 116.4 2.7 132.5.2 16.6-2.7 17.2-3 16.3-9.2-1-5.7-1-5.7-12.8-2.4a309 309 0 0 1-29.3 4.8c-34.6 4.1-99.8 1.5-114.6-4.7-5.7-2.4-8-5.4-6.9-9.6 1-3.7 5.5-6 19.5-9.8 21.6-6 36.2-7.4 77.3-7.2 34.8.2 54.5 2.2 64.8 6.5 4.4 1.7 5.2 1.7 9.9-.7 2.9-1.4 6.1-2.6 7.3-2.6 3.2 0 2.4-1.9-1.9-4.4-17.3-10.3-19.6-37.8-3.7-45.1 6.7-3 11-3.2 15.9-.7 3 1.6 3.6 1.6 4.2 0 1.5-3.7 10.4-6.1 27.6-7a208 208 0 0 1 45.9 1.8c10.7 2 16.7 7.2 16.7 14.3 0 3 .5 3.7 3.3 3.7 1.9 0 6.4 1.2 10 2.6 5.2 2 7.7 2.2 11 1.3 16.9-4.8 28.5 2.3 35.7 21.5 2.2 6.1 3.6 7.8 5.2 7.4 7-2.1 19.6-3.4 31-3.4 13 0 13.2 0 11.6-2.8-1.2-2.3-2.2-2.7-5.6-2-15.3 2.8-17.6 2.6-22.2-1.5-5.8-5-6.6-10.4-4.4-30.4.9-8.8 1.6-19.9 1.4-24.7-.1-4.8.4-9.8 1.2-11.3 1.6-3 18-19 23-22.4l3.2-2.1-3.6-8c-2.7-6-3.4-9.2-2.8-12.6.8-4 .1-5.3-5.9-12.4-11.3-13.2-12.8-17.2-12.8-35.8.1-21.4 1.2-23.5 24.8-48 18-18.7 18.7-19.5 17.9-23.9-.8-4.1-.2-5.3 9.2-16.3 5.6-6.5 15.8-19 23-27.8 16.7-20.8 30.2-34.2 38.2-37.9a81.8 81.8 0 0 1 18.2-5c6.6-.9 14.2-2.3 17-3 6.5-1.9 7-1.9 7 .5 0 3.1-6.9 5.9-18.2 7.5-24.4 3.3-29.4 6.7-54.7 38.1a469.5 469.5 0 0 1-26.1 30c-11.9 11.8-11.8 10.2-1.6 24.4a71.3 71.3 0 0 0 38.6 28.6c6.7 1.7 8.7.1 9.1-7.5.1-4.8-.7-6.4-5.6-11.7a47 47 0 0 1-13-29.9l-.5-8.8 1.8 6.7a58 58 0 0 0 11.7 24.1c2.1 2 4.1 3.5 4.4 3 .3-.2-.1-7.4-.8-15.8a198 198 0 0 1 1-43.7c2-6.3 2.6-2.4 2.2 10.9-.4 10.4.3 18.5 2.5 32.4 2.8 16.4 3.2 22.3 3.1 53.3l-.1 35.1h5.6c13 0 24.8 6 41.4 21.6l9.9 9 13.2-.7c11.9-.8 13.7-.7 19.2 2a59 59 0 0 1 13 9.6c4 3.8 8 6.5 9.7 6.5 6.6 0 18.5-4.3 33.2-12 17.2-9 17-8.8 17-22.8 0-8.5-.1-9-4.6-12.4-2.6-2-5-5-5.4-6.5-.4-1.6.4-9.2 1.9-17l2.8-13.8-4.5-14.2c-4.3-13.2-7.2-31.4-4.8-30 .5.3 1.7 3.5 2.6 7 2 8.2 6.7 19 8.2 19 .6 0 1.2-.4 1.2-1a744 744 0 0 1 11.3-51c2.7-8 13-19.7 21.9-24.5 9.3-5 11.3-3.7 3.3 2.1a126 126 0 0 0-13 11.5c-7.8 8-8 8.8-16.9 61-3.7 22-7 41.7-7.6 43.7l-.8 3.8 7.9-1.2c15-2.1 44.1-1 56.7 2.2 6.4 1.4 13.2 2.8 15.2 2.8h3.7l-1-18.4a1869 1869 0 0 0-4-59.6c-2.6-31.8-4.5-43-9.4-53.8-6-13.2-15.9-20.9-39.3-30.8a202 202 0 0 1-21-10.9c-11.4-6.8-15.7-8.4-12-4.1 3.1 3.4 2.8 5.4-1.4 12.4-8.7 13.4-29.1 29.3-48 37.2a56.5 56.5 0 0 1-21.6 4.9c-11 .7-12.4.5-19.2-2.8-5.8-2.8-7.9-4.8-10-9.3-4-8.2-3.8-17.4.9-26.6l3.7-7.4-6-2.7a242.9 242.9 0 0 1-40.2-23.9c-10.2-8.8-15.1-20.1-16.6-37.6a65.3 65.3 0 0 0-13.3-38c-2.8-3.2-3.2-3.3-2-.9 1 1.7 1.3 3.3 1 3.7-1.3 1.2-11-8.5-13.1-13.3a36.2 36.2 0 0 1-1.1-23c.8-2 2-8.2 2.7-13.7 2-16.9 10.1-29.7 27.4-42.8a156.3 156.3 0 0 1 59.1-26.1c7.3-1.2 6.8 1.2-1 4.1-7.4 2.8-27 12.4-27 13.4 0 .2 2.5-.3 5.5-1.4 6-2.1 10.5-2.5 10.5-1 0 .6-4.7 4.1-10.4 8-5.6 3.8-13.6 10-17.6 13.7-8.1 7.6-7.7 7.6 2.5.7 10.3-6.8 11.8-6 5.5 3a108.6 108.6 0 0 0-14 29.6c-.5 3.2 1 .7 5.5-8a81.2 81.2 0 0 1 21.8-28c.6 0 1.8 2.8 2.7 6.3a76.9 76.9 0 0 0 34.7 44.8c5.7 3 6.5 3.2 3.3.8a101 101 0 0 1-24.8-28.4c-2.1-4.5-3.9-9-3.9-10s4.2 2.1 9.2 7A119.9 119.9 0 0 0 1349 336c16.3 4.5 19.4 3 3.6-1.7-24-7.5-40-17.1-50.5-30.4-9-11.5-14.5-23.9-10.5-23.9.8 0 5.8 3 11 6.4 15.1 10.3 16.3 10.4 6.3.5-5.2-5-9.5-9.8-9.5-10.8 0-2.6 19.2-1.3 29.9 2 1.3.6 2.1.3 1.7-.4-.4-.6-5-2.9-10.2-4.9-11.6-4.7-11.6-7 .1-6.5 15.6.6 29.3 6.6 49.9 21.8 2.8 2.2 2.2 1.1-2-3.3a153.1 153.1 0 0 0-18.2-15c-6.6-4.6-12.9-9.3-13.8-10.5-5.5-6.5 22.2 3 34.2 11.9 4.3 3 9.5 7.6 11.5 10 4.7 5.6 4.5 4.5-.5-4.1-11.6-20-33.9-32.3-61.2-33.8-4.8-.2-12.4-.9-17-1.4-17.3-1.9-32.8 4-56.1 21.3a102 102 0 0 1-13.6 9.3c0-1.7 12-14.5 19.3-20.4a68.6 68.6 0 0 1 58.7-15.7c6.7 1.2 15.3 2.4 19.3 3a94 94 0 0 1 35.6 12.5c11.2 7.6 17.5 16.4 26 36.6 8 19.4 10.7 27 11.9 34.7a30 30 0 0 0 6 13.9c19.9 26 22.5 62.5 6 82.9-4.3 5.3-4.3 2.5 0-6 3.6-7 4-9 3.3-15.6-.4-4.1-1.4-9.5-2.4-11.7-1.6-4-1.7-3.6-1.8 5.6a41.4 41.4 0 0 1-13.6 33.2c-4.7 5-9 8.9-9.2 8.6-.4-.4.9-4.5 2.9-9.4 1.9-5 3.3-9.5 3-10.2-.2-.8-4 4-8.2 10.7-5 7.7-8.5 11.6-9.6 11.2-2.4-1-2.4 2.4 0 8.1 1.3 3.4 3.2 5 7 6.2 2.9.9 9.5 4.4 15 7.7a162 162 0 0 0 17.9 9.2c24.4 9.9 37.7 18.5 44.9 29.2 7.3 10.5 10.1 23.2 13.3 59.2.8 9.2 1.8 17.9 2 19.5.3 1.4.8 9.6 1.4 18 .5 8.4 1 16.4 1.3 18 .3 1.4.8 9.3 1.3 17.4 1.2 17.1.4 19.2-7.7 22.8-8.8 3.9-9.9 5.5-10.8 17.9a181 181 0 0 1-7 40.1 73.8 73.8 0 0 1-5.3 8.6c-2.9 4-3.2 5.3-3.2 21.3v17.2l6.8 13.2a92 92 0 0 0 11.4 17.6l4.5 4.3v12.9c0 10.5.7 15 4 25.7a199 199 0 0 1 6.4 30.2l2.4 17.3 17.2 1c21.5 1 46.3 3.5 53 5.1 6.5 1.8 7.7 4.7 7.7 19.9v11.7l-21.4 19.2.2 44.3c.2 55.9-1.8 116.4-4 120.4-.8 1.7-2.2 3-2.8 3-.8 0-1.4-21.7-1.4-58.3l-.1-58.3-6.5 7.2c-3.6 4-8.2 9.5-9.9 12l-3.3 4.8-.8 47.3c-.6 26-1.2 47.8-1.5 48.3-.4.7-1.7 1-3 1-2.3 0-2.5-3-3.4-45.5-.4-25.2-1.2-50.4-1.7-56-.7-9.4-1-10.2-3.2-9.1a39 39 0 0 1-9.1 2.8c-8.1 1.7-8.8 3.2-7.7 18.3.5 8.1 1.8 13.3 6.8 24.9 7.3 17.5 7.8 24.3 2.8 29.5a69.6 69.6 0 0 1-28.4 12.5 31 31 0 0 0-8.8 2.5c-.3.4-1 6.2-1.4 12.8-.5 6.6-1.8 20.4-3 30.7-3.6 30.3-4.7 17.2-3.8-46.4.4-31.3.4-57 0-57a21 21 0 0 0-4.6 3c-4.7 3.5-16.8 4.8-24.6 2.7-4.8-1.5-5-1.4-4.2 1.4.4 1.6.8 9.8.8 17.9v15h3.2c5 0 5.2 2 .4 6.9l-4.3 4.5 5 .4c6 .5 6.6 3.2 1.7 6.4-3.9 2.5-4.4 5.9-.8 5.9a6 6 0 0 1 4 1.8c1.3 1.6.9 2.6-2.3 4.8l-3.9 3-.9 19.4a2237 2237 0 0 1-1.6 33.2c-.7 9.9-.4 13.8.7 13.8 2.2 0 1.8 16.6-.6 21.3-1.2 2.3-2.5 4-3.2 4-1.2 0-2.4-12-3.6-38l-.8-17.3-6.9-9.4c-8.3-11-34-46.4-36.8-50.4a328.2 328.2 0 0 0-21-26.2c-.9 0 4 7.8 27.8 43.6 22.5 33.8 25.3 38.4 27.2 44.2l1 3.2-4.5-3.2a29.2 29.2 0 0 1-5.2-4c-2.2-3-31.3-36.9-31.6-36.6l-.9 9.4c-.7 9.8-1.7 14-3.5 14-1.7 0-2.6-4-1.8-7.4a66 66 0 0 0-.8-14.8c-1.5-11-2.2-12.4-8.8-21.8-4-5.4-9.9-12.9-13-16.5-5.6-6.4-5.8-6.5-10.4-5-2.4.7-11.3 2.3-19.6 3.4a72 72 0 0 0-17.2 3.6c-1.7 1.6-2 4-1.2 15.9.4 7.7 1.2 17.3 1.6 21.3 1 7.3 1 7.3-1.7 5-3.5-3-5.3-12.6-7-35-1-13-1.8-17.6-3.4-18.8-1-.8-5.6-1.9-10-2.4-9.5-1-15.7-3-19-5.9-2.2-1.8-2.3-3.8-1.5-21.7.9-19.3.9-19.6-2.2-21.2-3.4-1.9-24.5-3.5-71.3-5.3-18.3-.8-40.8-2-50-2.7a6235 6235 0 0 0-97-6.3l-16.3-.8v5.6c0 7.2-3.6 10.8-14.4 14.8l-8.3 3.1v5.5c0 3 2.1 13.2 4.7 22.5 7.8 27.9 8.9 62.3 2 62.3a69 69 0 0 1-1.8-17.1 188.1 188.1 0 0 0-12.4-58.7c0-.1-4.9 1.6-10.6 3.9-9.5 3.9-12.3 4.4-28 5-9.8.2-18.3.9-19 1.4-2.6 1.6.7 36.5 5.4 54.5 3 12.4 3.7 16.8 2.5 18-1 1.1-2.1.8-4.1-1-3.1-3.2-8.7-28-9.9-44.7-2.7-35.3-4.7-45.3-9-45.3-4 0-20.3-5.9-22.6-8.2-2.1-2.1-2.5-4.4-2.5-15.8v-13.4H873c-5.6 0-6.9 2.3-6.9 12.2 0 11.3-1.7 13.6-14 17.8l-9.3 3.2-.4 45.8a916 916 0 0 1-1 47.6c-.6 1.6-1.2 1.6-3-.4-2-2-2.4-6.7-3-39.5a590 590 0 0 0-1.3-37.9c-.4-.4-5.2.6-10.7 2a88 88 0 0 1-38.6.6c-12.6-2.8-13.1-2.7-13.9 2.2a205.5 205.5 0 0 0 0 63.4c.8 3.8.5 4.4-2 4.4-4 0-6.8-5.2-8.3-15.6-.9-7-.6-16.3 1.5-40.2 1.6-17 2.7-31.7 2.4-32.5-.3-.8-6.8-4.5-14.4-8.3-16.1-7.8-16.7-8.8-14-23 1-5 1.5-9.4 1.3-9.6-.2-.3-17.7-1.2-38.9-2.3-21-1-47.7-2.4-59-3.2a763 763 0 0 0-29.3-1.3h-8.5l1.2 44.9c1.5 53.2 1.5 110.1.1 115.5-.5 2.1-1.7 3.6-2.6 3.2-1.6-.6-1.8-1.8-4.7-64.7-.8-15.7-1.7-28.8-2-29.2-.4-.3-1.2 1.2-2 3.2-.7 2-4 7.2-7.3 11.5l-6 7.7-1 27c-1.2 32.3-2.2 43.7-4 43.7-2.2-.2-3-13.6-3.2-53.5-.1-21-.5-52-1-69-.8-30.9-.8-31-3.5-28.7a2494 2494 0 0 0-77 97.7c-13.7 19.5-37.1 48-39.4 48-4.3 0-2.3-3.9 11.5-22 8-10.8 14.6-19.9 14.6-20.1 0-.4-1.2 0-2.5.8-3.9 2-11.2 1.6-14.7-1-3-2.1-3.3-2-6 1.8-1.6 2.1-8 10-14.4 17.6l-11.7 13.7v10.3c-.1 27.2-1.7 70.4-2.8 71.4-4 4.3-4.3-2.4-5-91.8-.3-49.5-1-90-1.4-90-.5 0-2.1.9-3.6 2-6.3 4.6-6.1-.4.1-8.2 6.3-7.6 6.4-11.3.3-6.6-2.5 2-5 3.4-5.3 3.4-2.3 0-.4-4.2 4.4-10.1 9.4-11.5 7.2-15.3-11.4-20a84.7 84.7 0 0 1-15.2-5c-1.6-1.3-1.7 5-1 45.1a5666 5666 0 0 1 1.7 191.9c-1.6 6.3-3.5 2.3-3.5-7.3 0-5.1-.5-9.2-1.2-9.2-.8 0-7.4 1.4-15 3.3s-15.8 3.3-18.2 3.3c-5.3 0-6.9-3-3.4-6.9 2.4-2.5 2-2.5-4.2.5-9.7 5-26.1 10.7-28.2 9.9-2.8-1.2-2-4.4 2-7.5 4.8-3.7 3.3-2.9-18.8 10.2a238.6 238.6 0 0 1-19.9 11.2c-2 0-1-3.6 1.6-6 1.5-1.4 2.5-2.7 2.3-3-1-.8-25.5 13.1-32.6 18.4a38.5 38.5 0 0 1-8.4 5.2c-.6 0-1.3 1.5-1.3 3.2 0 1.9-1.9 5.4-4.4 7.9-11.5 12.1-48.5 13.6-70 2.7-9.9-5-14.7-11.2-20.8-26.7-3-7.2-9.7-22.1-15-33.2-12.2-25.2-12.5-27-3.3-40.8 9.9-14.7 17.6-22 24-23 9.1-1.5 16.7-12.7 30.8-45.3 21-48.1 26.2-57.7 38.3-70.2 7.9-8.2 8.4-9.1 7-12.4-2.2-6.2-1.4-10.7 3-17.6 2.3-3.6 5.2-10 6.5-14.2 3.9-12.4 6.2-15.7 12.4-18.5 3.2-1.3 6.4-3.3 7.2-4.3 3.5-4.1 8.4-21 9.6-32.5.8-7.3 3.2-18.1 6.2-27.2 4.8-15 4.8-15.2 3.2-24.3-1.8-8.6-1.6-9.3 1.7-16.6 5-10.8 6.3-29.2 2.5-34.6-4.1-6-4.5-9-2.9-22.2 1.9-14.3 1-17.5-5.2-18.8a14 14 0 0 1-6.5-3.8 73.9 73.9 0 0 1-11-22.4c0-1 1.9-7.3 4-13.8 4.8-14.4 5-17.6.7-23.5-9.3-13-10.1-15.3-12.1-32-3-25.2-7.2-35.7-36.8-90.1-24.7-45.5-31.4-63.2-32.7-86.4-.8-15.6.5-22.2 6.4-29.5a78.7 78.7 0 0 1 39.5-23.2c6.8-1.5 7-1.7 7-5.9 0-4.8-1.6-7.2-7-10.6-3.6-2.3-3.8-2.2-6.2.6l-2.2 3-5.8-3.8c-6.8-4.1-9.6-2.9-5.4 2.4l2.8 3.5-4.7 1.3c-9.3 2.6-19-2.2-23-11.4-2.2-5.2-4.2-6.7-5.3-3.8-2.2 5.9-14.5 4.7-16-1.6-.5-2-.2-3.7.8-4.4 2-1.2.4-4.6-4.5-9.2-2.8-2.5-3.7-2.9-5.3-1.6-4.3 3.6-11.5-4-11.5-12a28 28 0 0 0-.8-7c-.7-1.9-1-1.9-3.9 0-2.4 1.6-3.7 1.7-5.8.5-4.7-2.4-5-7.6-1.1-18.3 1.9-5.3 3-10 2.3-10.4-.7-.4-1.5-.1-2 .7-1.2 2-6.8 1.6-8.7-.7-2-2.4-.8-10.5 2.3-15.3 1.2-1.9 4.5-6.3 7.4-9.7l5.4-6.4-5.1.4c-3 .2-5.3-.3-5.6-1.1-.8-2.1 5.6-9.2 12.4-14 5.7-3.9 5.9-4 3.7-7.2-1.6-2.4-1.8-4.8-1.3-8.3.5-2.8 1-6.6 1-8.6 0-4 2.9-7.1 5.8-5.9 1.3.4 2 2.5 2 5.7l.1 5.1 1.9-3.6c1-2 3-3.9 4.5-4.4 1.8-.5 2.7-2.4 3.2-6.8.7-6.5 3-9.7 9.9-14 3.7-2.4 4.8-2.5 6.7-1 1.7 1.5 3 .6 9.8-6.6 4.4-4.7 9.5-10.8 11.4-13.7 3.8-6.2 6-6.2 7.6 0 .9 4 1.4 4.2 4.6 3.4 2-.4 4.8-2 6.3-3.2a18 18 0 0 1 13-5.4c3.1 0 5.4-1.1 7.4-3.4Zm-83 907.2c3.1-6 0-4.5-6.5 3.1-8.9 10.5-14.2 19.7-14.2 24.4 0 2.3 2.8 9.9 6.1 16.8l14.8 31.2a257 257 0 0 0 11.5 23c10.5 15.4 57 20.3 70.9 7.5 4.1-3.8 4.4-10.5.7-17.6-4.7-9-4.7-8.9-8.7-5.8-5.2 4.1-12.3 5.7-25.3 5.7-14.4 0-20.2-2.5-24-10.5-2-4.2-3.5-5.6-5.6-5.6-3.5 0-4-2.8-1.2-5.2 1.6-1.4 1.6-2.8.1-8.8-1-4-2.3-8-3-9-.6-.9-1.3-4.4-1.4-7.7-.1-3.3-.8-6.1-1.5-6.4a39 39 0 0 1-12.5-9.9c-2.1-2.9-2.7-5.4-2.5-12.4a41 41 0 0 1 2.2-12.8Zm71 73.1c-3-3.9-16.1-4.3-26.3-.7-7.8 2.8-12.5 6.6-10.5 8.4 3.5 3.5 27 2.6 34.8-1.4 4-2.2 4.3-3.1 2-6.3Zm-36.4-7.5c-1.2-2-6-1.8-6.8.3-.3 1-.1 3 .5 4.8l1.1 3 3-3.4c1.8-1.7 2.7-3.9 2.2-4.7Zm198-164.8c-2-70.2-2.1-72.1-2.4-70.2a146 146 0 0 1-16.1 31.3c-3.8 4.1-4.3 5.6-3.6 9.5 1.2 6.2-.4 9.6-9.6 19.7-4.6 5-8.8 10.1-9.6 11.6-4.3 8.3-19.1 9.5-38.8 3.5-1.5-.6-7.9 5.6-20.7 19.6-42.7 46.8-72.5 84-72.5 90.1 0 1 1.3 3 2.8 4.1 2.2 1.9 3 4.4 3.8 13 .6 5.7 2.3 13.7 3.8 17.7 3 7.9 8.2 16.1 10.1 16.1 1.5 0 12.8-6.5 12.8-7.4 0-.3-2.4.6-5.3 2.1a26 26 0 0 1-6.7 2.7c-2.8 0 .3-2.7 6.5-6 4.7-2.3 6.8-2.8 7.9-1.8 1.6 1.6 1.9 1.5 25.6-11.3 18.5-9.9 39.5-18.5 43.9-18 2.6.3-.6 2.4-14.8 9.6-17.5 8.7-43.5 24-47.8 28.3-1 1 5-1.4 13.4-5.4a594.8 594.8 0 0 1 72.8-25.6c9.8-1.8 3.7 2.6-14.3 10.2-15 6.4-33.3 15.7-24.5 12.6 34.6-12.4 58-19.3 65.2-19.3 6 0 3.4 1.6-19 11.3-20.6 9.1-29.7 14.6-12 7.2 22.4-9.2 34-11.6 32.7-6.6-.5 2.2-.1 2.4 4.3 1.2 2.6-.8 7.4-1.8 10.8-2.3l6-.8.4-22.7a689 689 0 0 0-1.6-48.6c-1.2-14.3-2.7-48.3-3.5-75.4Zm-177 159.5c-2.5-2.7-10-4.8-11.4-3.3-.5.5-1 2-1 3.2 0 1.3-.9 3-2 4-3.1 2.6-1.4 3 4 .8 2.9-1.2 6.9-2.2 9-2.2 3.7 0 3.7-.1 1.5-2.5Zm7.4-1.5c-1.7 0-.7 3.1 1.3 3.8 1 .2 1.4-.3.8-1.6-.4-1.2-1.4-2.2-2.1-2.2Zm-24.3-2.6c-1.2 0-2.1.5-2.1 1.3 0 .7.5 1.3 1.2 1.3.8 0 1.7-.6 2.1-1.3.4-.8-.1-1.3-1.2-1.3Zm-11.3-4.7c-4.3-1-4.5-.8-3.7 2.1.5 1.8.9 3.6.9 4.2 0 1.7 3.2 1.2 6.5-1.1 1.6-1.2 2.6-2.7 1.9-3.2-.5-.5-3-1.5-5.6-2Zm33.9-2.4c-1.5-4.7-2.4-5-6.4-2-4.3 3.2-3.1 5 3.4 5 3.4 0 3.6-.3 3-3Zm-5.5-24.1c-4-1.6-32.7.2-35 2.2-1.4 1.1-1.7 3.5-1.1 8.8.4 3.9 1.2 7.6 1.8 8.2.6.5 5.8 1.7 11.4 2.5l10.1 1.6 7.5-5c7.3-4.7 7.4-5 7.4-11.1 0-4.6-.5-6.7-2.1-7.2Zm22-147.4c-10.1 11-16.5 21.4-26.3 43.9-20.2 46.4-27 59.5-37.4 71a35.8 35.8 0 0 0-7.8 10.9c-.4 2.1.3 1.7 2.3-1.6 3.7-6.2 5.9-5.6 4.8 1.3-1.3 8.4-5 11.9-6.8 6.4-1.3-4.1-3.3-3.2-3.3 1.6 0 5.6 3.7 13 8 15.6 3 2 3.2 2 2.1-.5-.5-1.5-.5-2.2 0-1.6.5.4 2.5-.6 4.7-2.3 2.8-2.4 6-3.3 14.1-4 18.7-1.7 18.8-1.7 22.4-9 4.7-9 24.7-35.1 39.6-51.5 21.9-24.2 25-28.2 26.5-34 2.2-8.2.7-17.9-3.7-24.2-2.1-2.8-9.9-10.9-17.5-17.8l-13.7-12.7-8 8.5Zm1142 9c-1.9-3.6-6.7-5.1-9-2.8-.5.4-.9 6.1-.9 12.6 0 6.6-.6 13.1-1.3 14.6-1.9 3.3-1.3 4.2 16.5 29.2a1199 1199 0 0 1 23 33.6c4.5 7 10 15.2 12.2 18l4.2 5 .1-22c0-22.8-1.7-34.2-5.9-40.6-2.5-3.8-3.6-4.3-18-9-6.8-2.1-10.6-4.1-12.2-6.4a53.4 53.4 0 0 1-4.6-15.8c-1.2-7-3-14.3-4.1-16.4ZM426.4 1026c-.3 40.7-.1 74 .3 74 .9 0 19.8-24 21.7-27.5 1-2 1-4.2.1-7.8-.8-2.7-1-6.3-.6-8 1.2-5 6.1-10 9.6-10 8.1 0 11.8-3.2 24.6-21.9a2558.5 2558.5 0 0 1 41-57.6c5.4-8.3 5.4-8.3 2.4-9-1.8-.5-13.2-1.4-25.6-2.2l-41.2-2.7c-10.3-.6-21.6-1.3-25.4-1.3h-6.6l-.3 74Zm1064.7 33.5c-.6-3.9-2.4-3.8-9 .1a71 71 0 0 1-14.6 6.4c-5.6 1.9-9 3.7-9.2 5-.7 3.5 9 3 19.4-1.1 10.6-4.2 13.9-6.8 13.4-10.4Zm-951.6-98.2c-1.6 0-10.2 11-34.2 44.4-21.7 30.3-26.4 37.1-25.7 37.4 6.1 3 8.7 4.8 9.7 7.2 1.5 2.6 1.6 2.6 4.7-2 15-22.2 49.7-69 56.3-75.9l4-4.1-6.7-3.5a46.2 46.2 0 0 0-8.1-3.5Zm770.6 74.8a107 107 0 0 1-19.7 3.8c-5 .1-6.8 2.1-3.3 3.4 3.4 1.4 25.8 1 27.4-.6.8-.8.4-2.2-1.2-4-1.3-1.5-2.8-2.6-3.2-2.6Zm-339.4-21.6c1.7-1.7-.3-1.3-8.7 1.6-9 3.2-25.6 5.2-37.3 4.6-7-.4-8-.3-5.4.8 5.6 2.4 31.4.6 41.4-2.7a61 61 0 0 0 10-4.3Zm-194.8-2.1c-1.1-.4-1.9-.1-1.9.7 0 .6 3.7 2.4 8.4 3.7 11.3 3.3 39.5 3.5 46.3.3l4.6-2.3-8 1c-11.8 1.3-35.2.7-41.7-1l-7.7-2.4Zm175.6-203c-5.4-4.6-13.4-2.9-16.7 3.8-4.7 8.8-.8 23.7 7.5 29.7a72 72 0 0 0 11.2 5.8c7 2.9 7.2 2.9 4.5 5.3-3.5 3.2-3.3 7.2.7 27.9 3.7 18.5 7.3 29.2 11.6 33.7 3.7 4 18.4 7.2 33.2 7.2 15.4 0 21.2-1.7 26.5-7.7 3.7-4.2 5.3-5 10.5-5.4 14.7-.9 28.3 2.6 24.7 6.3-2.1 2.1-28.1 7.7-47.2 10.1a95.4 95.4 0 0 1-28 .6c-21.6-2.8-24-4.3-29.3-17.8-2.4-5.6-3.9-7.6-5.9-7.6a915 915 0 0 0-48.1 6.2 511.9 511.9 0 0 1-84.7 2c-8.4-.8-22.1-3-30.3-4.7-18.1-3.7-24.2-7.3-28.9-16.7a20.6 20.6 0 0 0-5.5-7.3 63 63 0 0 0-23 5 59 59 0 0 1-10.2 3.4c-3.6 1-8.2 3-10.4 4.8-5.6 4.7-19 5.9-26.6 2.3-3.4-1.6-9.6-3-15.1-3.4-8.5-.5-9.6-.2-13 2.8-2.5 2.4-5.5 3.5-10.6 4-5.2.6-7.6 1.5-9.5 3.8-2.8 3.6-11.7 6.4-16.4 5.3a29 29 0 0 1-7.7-4.8c-5-4.5-9.6-5-18.1-2-8.2 3-16.2 2.5-19.8-.7-3-2.9-3.8-7.8-1.4-10.2.9-1-.7-1.6-5.4-2.3-6.5-.8-6.9-.7-10.9 3.9-5.9 6.6-13.3 8.2-41.6 9.2-17.7.6-28 1.6-39.9 4.1-8.8 1.9-19 3.3-22.6 3.3-12.2 0-19.4-5.3-15.8-11.8 2-3.9 15.6-7.6 31.4-8.8 13.2-1 13.3-1.1 18.2-6 3.8-3.9 6.4-5.4 11.1-6 3.3-.6 6-1.2 6-1.6 0-2-4.5-20.2-5.6-22.2-1.5-2.9-6-2.9-13.3.3a2694 2694 0 0 1-58.4 20.1 1873 1873 0 0 0-92 32.4l-4.7 2 6 .8c3.3.4 16.8 1.4 30 2.2a10069.1 10069.1 0 0 0 146 8.7c30.4 1.5 84 4.7 92 5.3 4.8.4 36.5 2.2 70.7 4 34.1 1.8 82.1 4.5 106.6 6L842 938l43.3 2.7a14172.3 14172.3 0 0 0 188.7 11.2l32 2a36389.3 36389.3 0 0 0 88.7 5.3l49.3 2.7c51.3 3 55.7 3.2 75.3 4 23.8 1 105.8 5.7 119.4 6.8l10.8 1 10.5-9.3c5.7-5 15.9-14.1 22.4-20.2 14.8-13.8 19.6-17.2 19.6-14.6 0 1.8-22.1 23.5-44.4 43.6-7.2 6.6-4.7 6.3-35 4l-50-3.3c-17.1-1-45-3-62-4a13898 13898 0 0 1-246-14 16033.3 16033.3 0 0 0-132-8c-21.8-1.6-55.4-3.6-75.3-4.7l-42.6-2.6c-15.4-1.1-50.6-3.2-78-4.7-27.5-1.5-59.6-3.2-71.4-4l-35.3-2-33.3-2a4345 4345 0 0 0-62-3.3 6825 6825 0 0 1-154.4-9.5c-57.8-3.9-56.4-4-57.1 3.5-1 12.6 1.2 17.3 9 18.1 16.3 1.6 58.9 4.7 88.5 6.5 18.6 1.1 52 3.2 74 4.7s55.8 3.6 75.3 4.7a38502 38502 0 0 1 234 14l28 2c14.5 1 29.2 2 44 2.6 23 1.2 80.5 4.6 88.7 5.4L986 978l21.3 1.3c4 .4 19.1 1.2 33.4 2a833.3 833.3 0 0 1 44 3.4l26.6 2a2260 2260 0 0 0 70.7 4 8538.9 8538.9 0 0 1 161.3 9.3l51.4 3.2c54.2 3.7 54.8 3.7 56.8 1.3 1-1.3 1.8-6 2-12.1.2-5.5.6-10.3 1-10.7 1.2-1.2 3.5 6 3.6 11.4.2 10.5 1 10.4 14-1.5 20.6-18.4 59.2-54.1 73.1-67.7l13.3-12.8.6-8.6c.8-13.7 2.9-13-40.8-15.2-21.4-1-39-1.4-40.7-.8-3.5 1.4 1.9 1.9 36.3 4a121 121 0 0 1 23 2.6c2.2 2.1-.8 6-12.9 16.4-12.3 10.5-16.4 12.2-26 11.2-16.3-2-18.1-4.4-3.6-5l9.6-.4-11-1.7c-6.2-1-12.2-2.1-13.3-2.5-4.1-1.6 1.6-3.1 8.4-2.3 4 .4 7.2.3 7.8-.5.9-1.6-2.3-2.4-14.4-3.8l-9.1-.9 1 4.1c1.4 7-2.6 13.5-10.6 17.1a75 75 0 0 1-38.8 6.8c-8-.3-17.5-1.3-21-2.4-5.5-1.5-7.1-1.5-12.6.5-3.9 1.4-13.7 2.7-25 3.5-17.3 1-18.5 1.3-21.3 4.5-3.8 4.7-6.5 5.8-18.5 7.6-17.5 2.8-38 .2-41-5.3-5.8-11 4.6-14.8 50-18 47.4-3.3 47.7-3.5 46.6-5.9-.7-1.2-1.2-8.6-1.2-16.5a60 60 0 0 0-1.5-15.6c-.6-.7-13.2-1.6-27.8-2.1-26-1-26.7-.8-24.6 1.6a19 19 0 0 1 3 4.6c.5 1.6 2.9 2.4 8.5 2.8 4.3.3 9.6 1.5 11.7 2.6 3.4 1.6 4 2.6 4 6.5 0 3.7-.6 5-3.6 6.4a84.5 84.5 0 0 1-28.8 4.3c-11.4 0-12.8.6-32.9 14.4-18.5 12.6-27.3 16.8-33.2 15.7-5.2-1-9.2-5-8.5-8.4.5-3 11.3-9.6 24.4-15 13-5.4 29.2-15.1 29.7-17.8.8-3.7-4.5-2.7-9.6 1.7a39.5 39.5 0 0 1-11.7 6.6c-3.9 1.4-10.4 4.4-14.4 6.5a103.8 103.8 0 0 1-39.2 12.3 96 96 0 0 1-36.7.8c-10.7-1.1-27-2.4-36.1-3-25.2-1.3-42.6-6.6-53.8-16.5-4.8-4.1-6.5-7.3-8.9-17-.8-3-1.9-5.8-2.4-6.2-.5-.3-4.3-1-8.4-1.5l-7.5-.9-.9 5.6a20 20 0 0 1-6 11c-6.4 6.9-8.7 5.8-3.2-1.3 9.6-12.4 10.7-23.2 3-30.1-4.5-4-8.5-4.5-15.3-1.7-5 2.1-6 1.7-6-2.7a6 6 0 0 0-2.5-4.5c-3.9-2-4.5-1.8-3.6 2 .7 2.6.1 3.6-3 5.2-5.8 3-21.5 4.6-39.8 4.1-17-.7-19.7-1-30-4.3-7.3-2.2-9-6.2-2.1-4.8 3.7.7 4.1.6 3.2-1.7-.8-2.1-3.5-14.4-3.5-16 0-.3-2.4-1-5.5-1.3-6.1-1.1-12.4-5-16.4-10.3-3.6-4.8-3.8-15.7-.5-19 2.4-2.5 8-3 12.4-1.4 2.3 1 2.3.7-.5-1.7Zm383 116.7c-7.3-.9-33.7 2.6-40.1 5.2-11 4.6.4 8 23 7 14-.7 15.4-.6 12 1l-4 1.8 3.5.1c2 .1 4.2-.7 4.7-1.6a16 16 0 0 1 4.8-4c3.9-2.5 5.2-9 1.7-9-.9 0-3.4-.2-5.6-.5Zm-78.5 7.5c-2.8-.1-4.4.4-4 1 1 1.7 8.7 1.8 8.7.3 0-.6-2.2-1.2-4.7-1.3Zm31.3-18.4c0-1-.5-.7-16.4 7a84 84 0 0 0-15.6 8.7c0 1.8 4.4 1.2 7.2-.9 1.5-1 3.8-2 5.2-2 2.2 0 19.6-11.3 19.6-12.8Zm101.4 8.8c0-1.5-7-1.5-26 .1-15.1 1.4-17.8 2-15.8 4 .8.8 7.9.6 20.6-.8l20.2-2c.6 0 1-.6 1-1.3Zm71-135.6a252.4 252.4 0 0 0-61-1.2c-9 1.9-14.8 4.5-13.2 6 6.2 5.6 58.6 8.1 71.7 3.5 7-2.4 10.7-1.2 7.5 2.6-7 8.4-59.2 9.9-75.1 2.2l-5-2.6.7 55.6c.6 30.6 1.1 56.8 1.5 58.4.4 2 2.8 4.2 7 6.3 20 10.1 57.1 8.1 69-3.7l4.3-4.3.1-44.5c.1-24.6.7-51.4 1.3-59.4.7-8.1.8-15.2.2-15.8-.6-.6-4.6-2-9-3.1Zm-429.7-37a189 189 0 0 0-56-1.4c-4.8 1-10.4 3-12.4 4.1-2.8 1.6-5.3 1.9-10.1 1.2-10.7-1.4-16.4 2.8-19 14-2.9 12.8 9.1 28 22.2 28 5.3 0 7 2.3 4.6 6.7-1.7 3.2-.2 14.8 4.2 34.4 3.6 16 7.3 24.1 11.7 25.3 4.5 1.2 46.4 1.2 51 0 4.6-1.3 9.4-12.2 13.3-30.8 2.8-13.3 3.3-14.6 8.1-18.9 5.7-5.3 10.4-6 14.4-2 3 3 3.6 11.6 1.2 16.4-3 5.9-9.7 11.6-16.1 13.7-7.4 2.4-11.4 7.2-6 7.2 8.8 0 22.4-10.9 26.5-21.3 2.1-5.3 1.5-16-1-18.8-3.7-4-10.5-4.5-16.6-1.3a43 43 0 0 1-5.9 2.8c-.2 0-.8-2-1-4.4-.4-4.2-.4-4.3 4.9-4.4 7.9-.2 10.7-2.3 15.6-11.5 3-5.6 4.5-7.5 4.8-5.9.4 1.9 1.3 2.3 4.5 1.6 5-.9 9.9 3.5 11.1 10.4 1 4.6.5 5.2-4.8 10l-5.9 5.2 4.3 8.6a209 209 0 0 1 11.9 39.7c10 41.9 9.7 41 18.1 46.3 11.6 6.9 21.5 9.3 45.7 11.7 37.9 3.7 69 2.8 80-2.3 1.8-.8 4.2-3.3 5.2-5.7a532 532 0 0 0 14-51.7l1.1-6.3h-5.5c-6.9 0-27.4 4.1-27.4 5.6 0 .5.9 1 2 1 2.6 0 2.6 6.2-.2 7.3-1.2.4-5.2.8-9.2.8-7.4 0-10.6 2-9.2 5.7 1.4 3.6 5.4 3.9 10.4.8 5.8-3.3 9.6-2.5 8.2 1.9-.6 1.6-1.4 5-1.8 7.6-.8 3.8-1.6 4.8-4.6 5-3.8.4-4.7-.8-2.2-3.3 1.2-1.2.3-1.7-3.3-2.4-8.4-1.6-13.3 5.5-7.5 10.7 2.6 2.2 2.8 2.2 8 0 6.4-2.8 8-1.9 5.2 3-1.6 3-3 3.8-8.5 4.3-6 .7-6.7 1-6.7 4 0 4 4.7 5.3 7.4 2 2.8-3.3 5.3-2.4 5.3 2 0 4.1-.3 4.3-8 4.8-2.5.1-8.1.7-12.4 1.2-10.8 1.5-34.8-1.7-40.1-5.3-4-2.7-6.4-8.7-3.6-8.7 2.4 0 1.6-2.4-1.1-3.3-3.2-1-4.7-4.4-2.8-6.7 1-1 .3-2.5-2-4.7-4.3-4-4.3-6.6 0-6.6 4.5 0 4.1-1.8-.7-3.6-3.7-1.5-4-1.9-4-9 0-4 .7-7.7 1.4-8.1 1.8-1.2-.7-5.5-4.2-7.5-4.8-2.5-5.7.3-3.3 10.6 3.9 16.9 1.9 26.5-2.3 11.2-3.2-11.9-6.8-32.2-5.8-33.2.5-.4 11.6-.2 24.5.6 45.9 3.1 86.4 1.9 106.4-3.2 31.5-7.8 36.7-12 24.8-19.8l-4.8-3.4-3.2 3.2c-2.7 2.7-3 3.8-1.6 5.4 3.2 3.8-2.4 5.8-29.2 10.8a722.5 722.5 0 0 1-84.7.8c-25.2-2-35.3-3.5-52-7.6-13.8-3.5-20-6.3-22.5-10.2-2.5-4.1.5-4.2 8.1-.4 7.2 3.6 21.6 7.9 22.8 6.7.8-.8-5.7-20-10.8-32.4-5.8-14-10-16.8-22.8-15.7-5.7.4-10 1.4-11.3 2.6-1.9 1.9-2.4 1.8-5.7-1.4-2.8-2.7-5.6-3.9-10.8-4.4l-7-.7-.4-6.4c-.5-7.6-2.5-9.2-14.9-12.3Zm278 154c1-1.8-.7-1.8-3.3 0-1.8 1-1.8 1.3.2 1.3 1.2 0 2.7-.7 3.1-1.4Zm-752.7-20.7c-2.4-3-10.9-2.6-36.9 1.7-4.5.8-8.8 1.7-9.3 2-1.4.8-20.8 3.2-40.8 5-23.9 2-30.3 6.9-9.2 6.9 10.1 0 10.1 0 5.6 1.8L460 904l6-.8a49 49 0 0 0 12.7-3.9 83.6 83.6 0 0 1 30.5-6.8c8.4-.6 10.3-.5 9.5.8-1 1.5 1.4 1.6 12.1 1 20-1.4 28.7-4.7 24.5-9.6Zm215.6 1.2c-4.6-1.5-1.8 3.8 3.8 7 15.2 8.7 40 11.9 83.3 10.7 27.5-.8 47-3 55-6.1 4.3-1.8 13.4-8.3 12.5-9.1a63 63 0 0 0-12.3 1.6c-25.6 4.5-102.3 3.7-129.5-1.5-5.7-1-11.4-2.2-12.8-2.6Zm706.4 13c-2.1 0-2.9.3-1.6.7a9 9 0 0 0 4 0c.8-.4-.1-.7-2.4-.7Zm-138.5-4.1a42 42 0 0 0-23.5.8c-2.5 1 9.8 2.8 21.1 3 9.6 0 10.8-1.7 2.4-3.8ZM1284 746.7c-.8 0-1.3 9.2-1.3 24.9 0 23-.3 25.6-3 31.3-2.9 6.6-2.8 7.8 1.1 7.8 3.6 0 10.5 7.3 10.5 11.2a204 204 0 0 1-6.1 23.8l-14.8 49.5c-.7 2.3-.1 2.4 4.7 1.9 2.9-.4 8.9-3 13.2-5.5a44.8 44.8 0 0 1 17-6.4c13.6-2.4 15.9-4 20.6-13.6 4-8.4 8-13.2 12.5-14.7 1.3-.5 2-1.6 1.6-2.2a376.6 376.6 0 0 1-11.3-40.4c0-5.6 2.5 0 8.5 19 3.3 10.7 6.7 20.2 7.3 21.1 1.5 2.4 6.6-.1 15.2-7.7 5-4.4 6.3-6.4 6.3-9.8 0-4 4.4-15.6 5.9-15.6.2 0 0 2.3-.8 5a41.7 41.7 0 0 0 3.2 25.8c4.1 7.4 5.2 6.4 2.8-2.2a74 74 0 0 1-1.5-19.4c.3-8.1-.1-11.8-1-11.8-1.5 0-4.6-4.4-22.9-33.4a773 773 0 0 0-14.8-22.9l-4.2-6.3-6.4 1.9c-9.6 3-21.2 2.5-27.6-1-3-1.7-5.9-4.3-6.7-6a6.7 6.7 0 0 0-4-3.5 21 21 0 0 0-4-.8ZM656.3 888.9c-.7-2.2-11.5-2.5-16.2-.5l-3.8 1.7 3.7 3c2.8 2.2 5 2.8 7.3 2.2 4.8-1.2 9.6-4.5 9-6.4Zm295.3-8.1c-1.5-.8-12.3 3.3-11.6 4.5.3.6 2.8 1.4 5.6 1.8 2.8.4 6.1 1 7.3 1.6 2.2.8 2.2.5 1-3.2-.8-2.3-1.9-4.4-2.3-4.7Zm-8.3-11c0-3.7-.6-3.8-6.2-.3-4.8 3-25 8.1-41.8 10.8A450 450 0 0 1 846 882c-41-.1-49.6-1-73.2-8.1-11.5-3.5-13.7-3.4-11.3.5 2.2 3.6 14.8 7.9 30.5 10.3 19.6 3 72.1 4.1 97 2 38.7-3.2 54.3-8.2 54.3-17ZM510 883.4c-7-1.4-12.6-1-15.4 1.2-2.2 1.7-1.6 1.8 7.8 2 10.6 0 14.8-1.8 7.6-3.2Zm149.8-4.4c-1.4-4.4-6.9-5.8-9.7-2.4-2 2.4-2.1 2.1 4.4 6.5 5.7 3.9 7.5 2.5 5.3-4.1Zm77.4-14.7c-1-.4-1.8.3-1.8 1.3 0 1.1-.4 4.8-.8 8.4-.8 6.3-.8 6.4 1.5 4.3 1.6-1.5 2.5-4.4 2.5-7.9.2-3.3-.5-5.8-1.4-6.1Zm739.6-3c-1.2-3.7-1.1-4.2-2 12.2-.2 3.5.2 5 1.4 5 1.4 0 1.9-1.8 1.8-7a58 58 0 0 0-1.2-10.3Zm-924.4 12c-3.5-2.7-9.8-3.1-12.2-.7-3.6 3.6-1.8 5.3 6.3 5.7 5.9.3 7.6 0 7.6-1.5 0-1-.8-2.6-1.7-3.4Zm531.4-5.8c-.5-1-13.7-1.3-13.7-.4 0 .3 1 2.7 2 5.3 1.9 4.6 2.4 4.8 8.1 4.8h6.2l-1-4.4c-.5-2.2-1.2-4.6-1.6-5.3Zm-322.4-11c-1.7-.7-2.1-.3-1.7 1.4 2.3 12 63.2 19.9 117.5 15.3 18.1-1.6 36.4-6.4 40.2-10.6 1.4-1.5 1.9-2.7 1.2-2.7l-27.7 3.3a425.3 425.3 0 0 1-42 3.4c-24.4 0-57-3.2-76.3-7.4-4.9-1-9.8-2.4-11.2-2.8ZM439 854.2c-13.3-8.6-14.9-9.2-17.3-6.6a85.6 85.6 0 0 0-7.5 14c-5 11.1-5.2 11.8-2.4 10.8a313 313 0 0 0 33.2-12.2c1-1-1.3-3.1-6-6Zm507.5-3.1c-2.7-.7-3-.3-3 2.5a13 13 0 0 0 3.3 7.2l3.2 3.8.1-3.8c0-2.1.7-4.9 1.3-6.4 1.1-1.8 1-2.5-.2-2.5-1 0-3.1-.4-4.7-.8Zm120.8 1.7c-14.8-1-19.7-1-23 .3-2 .8-1.8 1.2 2 3.2 4.7 2.4 33.1 5.6 34.6 3.9.5-.6.4-2.2-.1-3.8-1-2.4-2.6-2.9-13.5-3.6Zm-308.1-16.2c-1.8-.7-2.7-.2-3.6 2.1-2.4 6.5 2.8 11 16.9 14.5 21.2 5.4 40.7 7.4 70.3 7.2 43.8-.1 71.3-5.3 82.5-15.4 5.2-4.8 5.3-5 2.1-5.1-1.8 0-8.6 1-15.3 2.1-28.4 5-96.5 3.4-142.7-3.3a67 67 0 0 1-10.2-2.1Zm-267.5.8c-6.5.2-31.2 3.7-32 4.4-.4.4 3.3 2.6 8.3 4.8 9.8 4.5 10.5 4.4 24.5-1.5 5-2.3 5.6-2.8 4.3-5.2a5 5 0 0 0-5.1-2.5Zm581.2-8.2c-.5 0-2 2.2-3.5 4.8a35.2 35.2 0 0 1-7.6 8.8c-2.8 2.2-5 4.6-5 5.2 0 .7 4.8 1.2 10.6 1.2 12.3 0 12 .3 8.6-12.2a23.9 23.9 0 0 0-3.1-7.8Zm-13-11.7c-2-3.3-4.7-3.3-8.9 0-5.4 4.5-8.8 19.7-4.4 19.7 5.9 0 16.2-15.2 13.2-19.7Zm-110.5-2.1c-3-1.2-3.8-1.1-5.7.8-2.1 2.1-2 8.4.4 12.9 3.3 6.5 14 8.4 14 2.7 0-3.9-6.1-15.4-8.7-16.4Zm-461.3-7c-.8-.1-6.5 2.2-12.8 5.2-6.3 3.1-16.8 8-23.3 10.8a140 140 0 0 0-13.2 6.4c-.7.6 7.2.8 17.3.4 24.7-.9 38-2 38-3a97.8 97.8 0 0 0-6-19.8Zm412.3-3.8a541.5 541.5 0 0 0-85.6-.4c-20.6 2-49 10.6-46.7 14.4 1.2 2 13.3 5.2 31.2 8.1 44 7.2 123.2-.4 129.6-12.4.8-1.5 1.2-2.8 1-3-2-1.7-16.6-5-29.5-6.7Zm376.1-49.1c-1.7-19.3-3.7-24.4-3.7-9.3a79 79 0 0 1-8.8 36.5 60.7 60.7 0 0 1-35.2 31.6c-3 1-2.3 1.5 6.2 3.5 17.8 4 26 2.4 33.6-6.7a54.3 54.3 0 0 0 9.5-29.7c0-4.2-.7-15.8-1.6-25.9Zm-108.3 44c-16.2-1-21-1-35.4.4-19.9 1.9-21.9 3.2-13.2 9 4.4 3.1 5 3.1 22.4 2.3 16.9-.9 18.2-1.2 23.2-4.8 2.9-2.1 6.9-3.8 8.8-4 1.8 0 4.6-.5 6.1-1 1.6-.7-3-1.4-11.9-1.9Zm98.7-46c-.5-.4-5.7 8.3-10.5 17.7a54.5 54.5 0 0 1-19.5 20.8c-6.7 4.3-8.1 4.7-8.1 2 0-.9 3.6-4.6 8.1-8.1 7.5-5.9 15.9-15.5 15.9-18.1 0-2.6-31.6 14.8-41.1 22.5-7.2 5.9-9 9-6.8 11.7 1.2 1.5 1 1.9-.7 1.9-1.2 0-2.5-1-2.9-2-.5-1.2-2.5-2-5-2-3.8 0-4 .1-1.5 2.7 3.4 3.7 14.9 6.6 26.8 6.6 8.5 0 11.2-.5 16-3.3 12.4-7.2 24.2-25.5 27.8-42.7 1.1-5 1.8-9.4 1.5-9.7Zm-189.6 40c-3-4.1-7-3.6-12.8 1.7l-5 4.7 5.8 3 5.9 2.7 4.1-2.9c4.7-3.3 5-5 2-9.2ZM1375 760c-2.2.2-19.4 6-20.5 7.1-1.2 1.2 1.3 6.3 6.5 13 2.4 3.3 6.8 9.5 9.8 14a38 38 0 0 0 6.4 8.5c.5 0 .9-2.2.9-4.8 0-6.7 1.7-9.2 8-11.8l5.5-2.1-3.5-4.3a77.8 77.8 0 0 1-7.5-11.8c-2.1-4.4-4.6-7.9-5.6-7.8Zm-178.2 5.5c1.7-10.7 1.3-12.7-1.8-8.1-2 2.6-3 2.9-14.8 2.6-9.6-.2-13.7.3-17 2a232 232 0 0 0-31.8 20.7c0 3.7 10 4.5 21.5 1.7 3-.6 4.4.2 8.5 4.7 2.7 3 6.7 5.7 8.7 6.1 6.3 1.4 14-1.6 19-7.2 4.9-5.3 5.1-6.1 7.7-22.5Zm-600.3 13.3c-3.6-3.2-10.4-5.3-10.4-3 0 .8.7 1.4 1.3 1.4 2 0 1.6 2.8-.9 5.6-2 2.3-1.9 2.4 5.3 2.4 8.6 0 9.6-1.6 4.7-6.4Zm24 1.9c-3.5-2.4-4.8-2.5-8-.7-4.8 2.8-2.8 5.2 4.3 5.2 7.2 0 8.2-1.3 3.7-4.5Zm-41-.3c0-4.5-4.5-4-13.7 1.6-2.5 1.6 3.6 3.2 8.8 2.3 4-.7 4.8-1.3 4.8-3.9Zm68.7-3.2a29 29 0 0 0-10.1 6.2c0 .2 4 .5 9 .5h8.7l-3-3.3c-1.8-1.9-3.8-3.4-4.6-3.4Zm-3.8-25.3c-.7 0-4 2.7-7.5 6.1a92 92 0 0 1-12.8 10.3c-5.6 3.5-6.3 4.3-3.7 4.7a28 28 0 0 1 9 5.8 37 37 0 0 0 6.4 5l1.8-3.2c4.5-8.3 17.6-11.4 23.2-5.4 2.6 2.8 2.8 3.4.8 4.2-2.6.9-3 4.5-.4 4.5 8.1-.1 6.2-20.7-2.3-23.9-1.6-.6-5.3-2.8-8.1-4.6a23.9 23.9 0 0 0-6.4-3.5Zm795-9c-1.8-.2-8.4 1.5-14.6 3.8-6.3 2.1-17 5.5-23.8 7.2-6.8 1.7-12.8 3.6-13.6 4-1.8 1 1 7.7 6.7 15.6l5 7h24.5c13.4.2 26.5.6 28.8 1.3l4.4 1-5.4-11.2c-2.9-6.1-6-14.9-6.9-19.7-1.6-7.7-2.1-8.7-5-9Zm-758 6.3c-3.4 0-4.2 1-4.9 6.7-.3 2.7-1.3 3.5-5 4-4.3.7-4.5.8-2.2 2.3 2.1 1.2 2.7 3.2 3 10.5l.3 9.2 4.3.4c4.1.4 4.1.4 3.2-4.5-.4-2.8-2-7.4-3.3-10-1.5-2.7-2.2-5.2-1.8-5.6.4-.6 3.1.8 5.9 2.8 4.7 3.3 5.2 4.1 5.2 9.8 0 6.8 1.5 7.9 5.5 4.3 2.1-1.9 2-2.3-1-5.2-3.6-3.6-4.1-6-1.3-6 2.4 0 6.1 3.6 6.1 6 0 3 5.2.7 9-4.1 6-8 1-14.8-8.2-11.4-5.7 2.3-6.6 1.9-9-3.8-1.8-4.3-3-5.4-5.8-5.4ZM614 775.7c0-1.6-7.7-1.3-8.7.3-1.2 1.9.4 4 3.2 4 2.4 0 5.5-2.4 5.5-4.3Zm599.7-119c-1.2-1.4-25 14.2-30 19.4-1.4 1.8-5.3 10.6-8.4 19.6-9.3 27.6-18.1 47-21.3 47-2 0-1.7-1.2 3-12.7 5.8-13.7 10.9-28.7 10-29.6-.5-.4-3.4-.3-6.5.3-4.4.8-7.8 3-17.3 11.4-13 11.9-13.6 13-13 28.6l.5 9.3 6.5-10.5c3.7-5.8 7-9.9 7.2-9 .3 1-3 9-7.6 17.9-7 14-8.1 17.3-8.1 23.6v7.2l5.7-5.5c11.2-10.6 36.3-21.7 49.7-21.7 18.8 0 25.4-11.2 20.6-34.5-4.2-19.5-4.6-28.3-2.2-39.2a30.5 30.5 0 0 1 7.1-15.5c2.5-3 4.5-5.9 4.1-6.1Zm-505 120.6c-2.7-1.7-5.4-1.7-5.4 0 0 .7 1.6 1.4 3.8 1.4 2.8 0 3.2-.3 1.6-1.4Zm16.6-4.9 6 1c3.4.6 7.9 1.1 10 1.1 3.5 0 3.6-.2 1.4-1.2-1.5-.6-6-1-10-1l-7.4.1Zm534.8-117.7a41.4 41.4 0 0 0-24.1-2.8 39.3 39.3 0 0 0-28.8 31.4c-1.2 7-1 10.2 3 29.9 5 24.7 4.3 23.6 19.5 33.7 7.5 5.1 22 9.5 26.8 8.2 2.4-.7 6.3-7.9 8.8-16.4.6-1.9 2.8-6.8 4.8-11 3.2-6.2 5.6-8.8 13.5-14.2 5.3-3.6 12.1-8.7 15-11.2l5.3-4.6-9.6-12.5a115.4 115.4 0 0 0-34.2-30.5Zm161-14.7c-14.3 0-13.1-1.6-14.4 18.1l-.8 12 7.7-.5c11-.8 18.7 1.6 25 7.9 6.2 6.2 5.5 7.8-1.5 3.4-14.7-9.2-29.9-8.1-51.8 3.8-11.3 6-23.3 10.6-31.6 12-2.8.4-5 1.2-5 1.7l1.3 6.7c2.3 9.6-.1 9.2-4.7-.7a47.3 47.3 0 0 0-21.2-23.9c-5.6-2.5-8-2.9-16-2.2-5.2.4-9.7.9-10 1.2a23 23 0 0 0 4.4 6.4l5 6 4.6-2.8c3.6-2.2 5.1-2.4 6.3-1.2 1 1 1.2 2.1.1 3.8a170.7 170.7 0 0 1-29.3 23.8c-11.6 7.7-13.6 10-10.4 12.6 4.3 3.6 25.7-3.7 39.9-13.4 6.6-4.6 8.4-4.6 6.1-.2-3 5.5-19.2 14.4-34.1 18.7-10.2 3-11.1 5.7-2.7 8.1a46.2 46.2 0 0 0 32-4.5 37.1 37.1 0 0 1 11.2-4c.4.4-1.5 2.8-4.3 5.2a53.8 53.8 0 0 1-24.9 9.6l-6 1.2 4.7 3c6.2 4 17.8 4 29.2 0a41 41 0 0 0 20-15c2.5-3.2 3.3-3.5 4.2-1.9 1.2 2.3 14.6 2.2 40.6-.2 31.2-3 52.1-12.3 58.6-26.2 4.7-9.7 10.3-49.4 8-56.4-1-3.6-8.8-7.6-19.6-10.1-4.6-1-14-2-20.6-2ZM387.3 570.7c-2 0-4.8 5.2-9.7 18a298.2 298.2 0 0 1-73 111.4c-16.6 16.2-19.5 20.4-15.3 22 3.9 1.5 10.2-2.5 21.8-14 22-21.6 39.4-46.6 55.4-79.4 11.8-23.8 22.2-49.6 22.2-54.4 0-2-.6-3.6-1.4-3.6Zm824.4 68.6c-5.6-2.6-12.6-2.4-23 1.1-15.2 5.2-29.9 17-35.2 28.3-4.4 9.2-1 22.6 6.4 25.2 5.7 2.1 6.6-.4 3.4-8.6a32 32 0 0 1-2.4-11.2l.6-4.1 1.6 4c3.8 9.6 6 14 6.8 14a25 25 0 0 0 4.5-6.1c3.6-6 3.6-6.2 1.7-12.7-1.2-4-1.6-7.7-.9-9.5.8-2.4 1.2-1.8 2.8 3.5 1 3.3 2.3 6.5 2.8 7 .7.3 3.6-1.4 6.5-3.8 5.2-4.4 5.2-4.5 4.4-11.5-.9-8 1.6-9.8 3.1-2.2.4 2.5 1.3 5 2 5.3.5.4 4.3-1 8.3-3.3 3.8-2.2 8.2-4 9.7-4 1.3 0 3.3-.6 4.4-1.2 2.5-1.6-1.7-7.4-7.5-10.2Zm-930.9-51c4.8-14.6 1.3-12.2-6 4.1a209.7 209.7 0 0 0-19 65.9c-.7 9.6-.5 11.4 1.5 13.7 5.1 5.6 8.2 1.7 9.2-12.3 1.8-20.4 8.3-53 14.3-71.4Zm893.3-21.6c-2 0-36 35.6-38.1 40-2 3.7-2.5 8-2.5 20.6-.2 17.9 1.4 23 10.4 33.1l4.5 5 10.1-10.3c10.7-11.2 18.8-16.6 29.2-19.1 3.5-1 6.3-2.3 6.3-3 0-2.9-5.6-11.7-9.6-15-4.7-3.9-17-10-20.4-10-1 0-2-.7-2-1.3 0-2 10-1.6 15 .5 2.5 1 7.3 4 10.7 6.7l6.4 4.9 6.7-4.8c6.1-4.7 10.5-9.3 10.5-11.6a61 61 0 0 0-10.2-8.7 124 124 0 0 1-18.2-17.3 80.9 80.9 0 0 0-8.8-9.7Zm-711.6 80.6c-3.4-8.9-48 .6-67.6 14.3-5.6 4-3.6 4.3 6.2.5a147 147 0 0 1 46.1-8.8c12.4 0 17-1.7 15.3-6Zm757.9-42-10.8 9c-9.2 7.8-10.4 9.4-10 12.9.4 4.1.3 4 11.7 6.7 1.9.4 6.3 3 9.9 6.1 3.5 3 7 5.3 7.6 5.3 1.3 0 1.6-30.5.4-34-.5-1-2.5-2.9-4.7-4-2-1-3.8-2-4.1-2Zm-977.9-44.8c-9.7-6-31.2-15.4-31.2-13.7 0 .7 4.7 3.3 10.3 5.9a96 96 0 0 1 15.9 9.3c10.2 8.4 16.6 8.7 21.7.7l2.1-3.4-3.8 3.1c-2.2 1.6-4.6 3-5.4 3a42 42 0 0 1-9.6-4.9Zm168.2-217.7c0-10-1.9-13.6-4.4-8.5a122 122 0 0 0-5.1 29c-1.3 16.2-5.2 23.1-9.7 17.6-.8-1-2.4-6.5-3.5-12.4-3.3-16.8-6.3-27-8.1-28.6-3.5-2.8-3.8 2.9-1 25.3 2.7 22.5 2.4 29.3-1.3 33-2.8 2.9-6.4.6-11.5-7.4-4-6.3-10.5-10.8-15.2-10.8-4.1 0-3.3 2.3 2.3 7.9 6.3 6.1 8.8 10.9 12.1 22.9a61 61 0 0 0 6.2 13.7c5 7.5 4.8 8.6-4.3 23.5a273.7 273.7 0 0 1-37.7 47.6c-12.7 13.2-18 16.8-14.3 9.9 1.7-3.1 0-4.3-13.2-9.5-6.1-2.4-7.2-2.5-10.5-.7-9.4 4.8-24.8 28.2-27.5 41.6-.8 4-.5 4.4 5.6 7.5a221.6 221.6 0 0 0 64.7 15.6h8.2l8.4-8.5c15.6-16.2 30.7-42.2 49.2-85.5 7.8-18.3 10-22.1 15.1-26.7 4.1-3.7 7.6-8.9 11.6-17.6 5.5-11.4 6.4-12.6 15.9-19.7 9.6-7.3 16.6-15.3 16.6-19 0-2.6-1.2-2-7.2 2.9-13.7 11.2-23.8 15.4-25.7 10.6a43 43 0 0 1 4.7-13.6 116.8 116.8 0 0 0 10.9-31c0-5.4-3.3-1.8-10.7 11.7-12.9 23.5-16.9 27.7-21.3 22.4-1.2-1.5-1.3-5.9-.5-17.6a421 421 0 0 0 1.2-25.6Zm836.4-35c-.8-2.3-11.2 14-14.6 22.6-1.8 5-3 11.9-3.6 20.5a49.2 49.2 0 0 0 3.6 25.1c2.6 7.3 4.7 17.2 5.5 24.8 1.7 16.4 2.3 18.4 7 27.3 2.3 4.7 6.2 9.2 10 12.2 8.6 6.5 37.8 22.4 43.7 23.7 13.7 3 35.6-9 55.2-30.3 4.9-5.4 9.4-9.4 9.8-8.8 1 1.6-6.6 16.7-13.6 26.8-10.5 15.6-27.8 28.3-38.4 28.3-4.2 0-4.4.1-4.4 6 0 7.9-1.7 7.6-3.8-.5a35 35 0 0 0-3.5-9.1c-1.7-2.3-1.9-2.1-3.5 1.6a60 60 0 0 0-2.2 11.6c-.4 6.3 0 8.4 2.4 12.4 10 16.1 38.8 11.9 69.2-10.3 9.6-7 20-18.4 22.6-24.9 1.8-4 1.6-4.3-5.6-11-9.7-9.5-13.2-18.5-14-36-.6-16 .7-19.1 7.2-17.8 9.4 1.7 18.6-6.5 22.7-20.1 5.2-17.4-1.9-33.6-13.5-30.7-5.8 1.5-13.6 10.1-15.6 17.2-1.7 6.7-3 7.9-4.4 3.7a9 9 0 0 0-2.6-4.1c-1.8-1.5-1.8-1 .1 3.3 1 2.7 1.9 6.3 1.6 7.9-.4 2.3-1 1.7-4.1-3.5-5.2-8.8-12-14.4-17.4-14.4a79.7 79.7 0 0 1-29.2-10.5 96.5 96.5 0 0 1-28.2-27.6l-3.5-6.5.8 7.3c1.2 11 6.7 26.8 11.2 33 7 9.8 5 11.1-4.5 2.9-6-5.4-7.9-5.6-4.2-.7 5.9 7.7-3.3 3.2-11.6-5.6a54 54 0 0 1-12.8-27l-1-7.3-2.6 7.4a96.3 96.3 0 0 0-3.2 21.3l-.8 14-4.2-6.7c-5.8-8.9-8.4-15.7-8.4-20.9.1-5.5 3-18.3 5.2-22.3.9-1.6 1.4-3.6 1.2-4.4Zm-722.7-77.5c-.7-5-7.6 4.9-17.6 24.6-10.3 20.8-15.6 26.8-22.5 26.2-3.9-.4-4.6-1.2-7.8-9.1-3.4-8.8-10.2-17.3-14-17.3-3.7 0-3.4 4.1.7 10.8a44.9 44.9 0 0 1 6.8 25.2c0 10.5 2.1 17 8.1 24.8 6.8 8.9 7.8 15.6 8.6 63.2 1 53.7 1.2 56.6 5 66.9 1.9 5 3 9.3 2.4 9.6-2.5 1.6-10.6-10.3-12.6-18.1-.4-2-1.9-3.9-3.2-4.3a70.3 70.3 0 0 0-21 3.5c-1.2 1 2.4 48.2 3.8 50 2.9 4 27.3-.3 55.3-9.6 19-6.3 20.3-7.8 20.3-22 0-18.3-3-45.5-6.8-64-2.2-9.9-5.5-26.3-7.5-36.3-3.3-16.3-4-18.4-6.7-19-4.6-1.1-3.7-2.5 4.4-6 5-2 9.2-5.3 12.8-9.5 6.2-7.2 11.9-9.9 24.4-11.2 9-.8 18-3.2 18-4.7 0-.5-7-1.3-15.6-1.6-16.8-.8-19.7-1.3-20.9-4.7-1.5-3.6 1.9-6.8 19.7-18.8 9.6-6.4 17.6-12.4 17.9-13.3 1-3.5-5.6-1.2-23 7.7a168 168 0 0 1-19.8 9.4 5 5 0 0 1-3.5-1.9c-2.1-2.7-.9-5 12-21.6 11.1-14.3 14.2-19.9 11.8-21.3-1.4-.8-7.1 4.8-27.1 25.8-14.5 15.2-17.7 8-7.6-16.9 3-7.6 5.5-15 5.2-16.5Zm-107 240.1c-1.8-5.6-1.8-5.6-2-1.5 0 5.9 2.5 17.5 4.2 18.6 1 .6 1-1.1.5-5.2-.5-3.5-1.7-8.8-2.8-11.9Zm-178.9-20.7c-12-5.4-29.8-5.8-26.6-.5a18 18 0 0 0 7 1.9c8.6 1 23.9 6 25.8 8.2 1.3 1.6.9 1.8-2.6.7-4.1-1.2-6.9.4-4.6 2.7 1.2 1.2 27.3 13.2 38.1 17.4 6.5 2.6 9.3 1.8 5.3-1.8A74.4 74.4 0 0 0 270 472a79.1 79.1 0 0 1-16.3-11.6c-4.2-3.9-11-8.8-15.2-10.7Zm-3.7-199c-2.4 0-2.1.4 1.6 2.6 2.4 1.5 4.1 3.2 3.7 3.9a25 25 0 0 1-8.4 2c-7 .8-30.2 8-32.8 10.1-.6.6 2 .7 5.6.3 9.5-.8 9.1 2.1-.8 6.7-4.2 2-9.6 5.3-11.8 7.3a22 22 0 0 0-3.5 3.5c.4-.2 1.7.2 3 1 3.1 1.6 3.5 9 .6 10-1.3.6-2 2.7-2 7.1 0 7 1.7 11 3 7.6 1.1-2.8 4.5-2.8 5.5 0 .4 1.2.8 6.8.8 12.5 0 6.7 1 13.4 2.7 18.7 2.5 7.9 2.5 8.7.5 11.7-1.6 2.6-2.8 3.1-5.6 2.4-2-.4-6.6-1.2-10.5-1.6-6.7-.8-7.2-.6-11.9 4-4.4 4.4-4.8 5.5-4.1 10.2 2.5 19 30.4 30.6 43.6 18l3.7-3.5 10.2 5.6a47.2 47.2 0 0 1 10.1 6.8c0 1.5-7.7 1.3-13-.1l-4.3-1.4 3.2 4.3a57.3 57.3 0 0 1 10.1 23c0 2.3.8 4.9 1.7 5.7 1.9 1.4 39.4 10.1 53.6 12.2 5.1.8 11.6 1.2 14.7.8l5.3-.6-4.2 1.4c-7.4 2.4-5.2 4.2 4 3.1 15.7-1.7 25.4-8.7 22.8-16.3-1.9-5.3-7.6-8.9-14.6-8.9-7-.1-8 2.1-1.6 3.6 5.8 1.3 10.7 6.3 9.5 9.5-1 2.6-10 7.4-13.5 7.3-1.6 0-1.3-.4 1-1 4.1-1.4 9.3-4.5 9.3-5.8 0-1.6-4.1-5-6.1-5-1.1 0-1.9.9-1.9 2 0 2.7-3.5 2.5-6.5-.6a34.7 34.7 0 0 1-8-15.9l-1.6-5.6h-12.3c-12.1 0-21-1.7-30.5-5.7-2.8-1.2-5.1-2.7-5.1-3.3 0-.7 4.5-1.6 10-2a109 109 0 0 0 45.6-16.2c15.5-10.2 15.7-10.8 15.7-32.5 0-20-2.8-34.8-7.6-41-1.4-1.8-6.5-6-11.4-9-5-3.2-10.2-7.2-11.5-8.7-1.5-1.6-3.6-2.9-5-2.9-2 0-2 .5-.7 4 .9 2.5 1 5 .2 7.5-1.8 5-3.8 4.2-4.6-1.8-.7-4.9-.8-5-6.3-4.9-7.2.1-7.5-2-1-8.4 3.5-3.6 5.4-4.5 8-4.1 4.2.8 4-.4 0-5.5-2.9-3.2-4.9-4.1-10.7-4.8-6-.8-7.4-1.5-7.4-3.5 0-1.4 1-2.5 2.4-2.5 3.8 0-10.4-7.7-19.6-10.7a59.5 59.5 0 0 0-11.3-2.6Zm-51.6 160c-.8 0-1 .5-.5 1.3.4.7 1.4 1.3 2.1 1.3.8 0 1-.6.5-1.3a2.7 2.7 0 0 0-2.1-1.3Zm-22.5-9.4c-.7 0-1.4 1-1.4 2 0 1.1.7 2 1.4 2 .8 0 1.3-.9 1.3-2 0-1-.5-2-1.3-2Zm-20-21.3c-.7 0-1 1-.6 2 .6 1 1.1 2 1.4 2 .2 0 .5-1 .5-2s-.5-2-1.3-2Zm-12.8-20.1c-1.5-2.4-3.2-1.1-3.2 2.4.1 3.6.1 3.6 2 1.2 1-1.4 1.6-3.1 1.2-3.6Zm66.8-22.6c-1-2.5-1.9-3.7-1.9-2.6 0 1 .8 3.7 1.9 6 .9 2.1 1.7 3.3 1.7 2.6 0-.8-.8-3.4-1.7-6Zm-74-5.3c-.7 0-1.4 1.2-1.4 2.8 0 1.5.7 2.3 1.4 1.9.8-.4 1.3-1.8 1.3-2.8 0-1.1-.5-1.9-1.3-1.9Zm1118.6-43c6.2-4.7 3.8-4.6-6.4.5a40.9 40.9 0 0 0-12.9 9.7c-4.7 5.7-10.8 17.9-9.6 19 .4.3 2.8-2.3 5.3-5.8a138 138 0 0 1 23.6-23.5Zm-1112 18.3c1.9-2.2 1.5-2.5-1.3-.6-1 .6-1.6 1.6-1.2 2 .5.4 1.6-.2 2.5-1.4Zm32.2-50c-1.4 0-2.8 1.5-2.8 3 0 1.8 2.4 1.2 3.2-1 .4-1 .2-2-.4-2ZM186 244c0-1.4-1-1.4-3.7-.3-.8.3-1.4 1.2-1 1.7 1 1.5 4.7.3 4.7-1.4Zm26.4-13.9c-.4-.4-1.5.1-2.4 1.3-1 1.2-1.5 2.4-1 2.7.3.4 1.4-.1 2.3-1.3 1-1.2 1.5-2.4 1.1-2.7Zm-18.4-2c-.7 0-1.3 1.2-1.3 2.8 0 1.5.6 2.3 1.3 1.9.8-.4 1.3-1.8 1.3-2.8 0-1.1-.5-1.9-1.3-1.9Zm69-1.3c-1.1 0-2.7.9-3.7 2-1.3 1.6-1.3 2 .4 2 1.1 0 2.7-1 3.6-2 1.4-1.6 1.4-2-.4-2Zm-32.3-6.7c-2.2 0-4.3 3.6-2.8 5 .9.9 4.8-2.2 4.8-3.8 0-.7-1-1.2-2-1.2Z"
        clip-rule="evenodd" />
    <path fill="oklch(10% 0.07 257)"
        d="M445.2 1090.8c1.9-3 13-.5 12.7 2.8 0 1-2.4 3.7-5.4 6.3-4.9 4.2-5.4 4.4-7.7 2.2-1.2-1.2-3-2.1-4-2.1-3.6 0-.3-3.3 4-4 4-.7 4.3-1 2-2.1-1.3-.8-2.1-2.2-1.6-3.1Zm5.3-6.7c1.5-2.2 7-1.7 10.3 1.1 2.5 2 2.8 3 1.6 4.3-1.2 1.2-2.5 1.2-6-.2-5.6-2.2-7-3.4-5.9-5.2Zm136.5-9.8c1.5-1.6 3-1 3 1.3 0 4.1-1.6 8.4-2.8 7.6-1.3-.8-1.6-7.7-.3-9Zm1008.2-32.6c9.2-7.7 13.5-10.1 13.5-7.2a86 86 0 0 1-11.6 12.2 314.3 314.3 0 0 0-21 21.8c-9.8 11.8-11.4 13.1-11.4 9.1 0-5 14.6-22.4 30.5-35.9Zm9.3 11.3c9.8-6.2 12.2-7 13.1-4 .5 1.3-28.1 23.5-32.3 25.1-.9.4-2.1 0-2.8-.9-1.3-2.1 9-11.6 22-20.1Zm-1020.4 11.1c3.6-4.4 5.2-5 6.7-2.6.8 1.4-7 10.5-9 10.5-2.2 0-1-3.9 2.3-7.9Zm1071.2-26.6c3 0 2.7.2-2 2.8-2.9 1.4-12.9 7.7-22.1 13.8-15 10-22.5 13.4-22.5 10.2 0-3 20.2-16.2 36.4-23.8 3.8-1.7 8.4-3.2 10.2-3ZM1318 1061c5.3-2.5 9.3-3 9.3-1 0 2.1-5.3 4.1-9.7 3.7l-4.3-.5 4.7-2.3Zm-735.2-8.5c3.3-4.4 8.5-6.1 8.5-3 0 2-9 13.2-10.8 13.2-2.4 0-1.2-5.6 2.3-10.2Zm1094.5-7.8c2.6-.8 3.4-.7 3.4.6 0 2.3-5.6 5.1-15.4 7.8-5 1.4-12.5 3.8-16.4 5.4-8.2 3.4-9.6 3.5-9.6 1 0-2.3 8.7-6 24.7-10.8l13.3-4Zm-868 6c5.6 0 7.4.5 7.4 2 0 4-9.8 6.4-13.1 3-1-.9-1.6-2.4-1.6-3.3 0-1.2 2.3-1.7 7.3-1.7Zm139.4 1.3c3.8 0 6.8.3 6.4.7-1 1-11.6 1.2-12.7.2-.4-.5 2.4-.9 6.3-.9Zm8-18.5c8.6-2.7 13.3-3.4 13.3-2.2 0 1.8-11.2 7.8-17.5 9.5-8.5 2.3-23.3 2.5-24.6.4-1.4-2.3 1.6-3.5 11.2-4.4 4.9-.4 12.8-2 17.6-3.3ZM10.1 1012c1.5 0 9.1 6 17 13.5 14.2 13.4 16.4 15.8 13.8 15.8-2 0-8.6-5.6-21.7-18.2-8-7.8-10.8-11.1-9-11.1Zm25.2-1.5c0-2.4 7.4 2.7 20.6 14 13.7 11.6 16.4 14.7 14.2 16-2.1 1.4-8-1.6-15-7.6-7.1-5.8-19.8-20.2-19.8-22.4Zm782.4 22.3c1.2-1.3 9.6-1 9.6.5 0 3.1-8.9 5.9-20.6 6.4-12.4.6-20-1-19-4.1.3-1 4.8-1.7 14.8-1.9a94 94 0 0 0 15.2-.9Zm-745-35.5c0-4.8 7.2 1.6 21.3 19 11.5 14 14.4 19.7 10 19.7-5.9 0-31.3-31.3-31.3-38.7Zm24.5 5.7c1.3-3.1 3.7-1.3 11.9 9.1 15 19.6 18 27.9 7.2 20.6-7.5-5.1-20.6-25.5-19.1-29.6Zm-44.5-1.1c0-4.6 5.4-.8 18.8 13 8 8.3 14.5 15.9 14.5 16.7 0 3-6 1.7-11-2.4-6.3-5.2-22.3-24.8-22.3-27.3Zm72 8.5c0-3.2 6.4-.3 12.9 5.9 9.7 9.3 13.2 14.1 11.3 16-1 1-4.6-1.6-12.9-9.6a90.1 90.1 0 0 1-11.3-12.3Zm223.6-47.7c1.3 0-1.5 6.2-4.6 10.5-4.5 5.9-23 14.8-23 11 0-.5 3.6-2.6 7.8-4.6a35 35 0 0 0 13.5-10.3c3-3.7 5.9-6.6 6.3-6.6Zm-106.2 8.1c1.5-2.4 3-4.1 3.4-3.7.9.9-3.6 11.6-5 11.6-2 0-1.3-3.1 1.6-7.9ZM132 931.9c1.5-.7 5-.8 8-.4 5.3.6 20.3 6.8 19.2 7.8a46 46 0 0 1-9.9-2 208 208 0 0 0-14.6-3.4c-4.6-.7-5-1.1-2.7-2Zm32.7 4.1c0-1.9 4.4-1.6 7.2.4 2 1.5 2.1 2 .6 2.5-2.4 1-7.8-1-7.8-2.9Zm1437.7-41c.7-.9 1.7-1.3 2.4-.9 3 1.8.8 8.8-8.5 28.8-5.5 12-7.6 14.3-7.6 8.4a204 204 0 0 1 13.7-36.2Zm27.5 7.7c3.7 0 2.1 3.3-5.8 12-9.7 10.9-13.6 14-14.8 12-1.3-2.3 2.8-8.4 11.1-16.4a45 45 0 0 1 9.5-7.6Zm27.6-7.1c6.6-5 9.2-5.9 10.4-3.9 1.2 2-2.8 6.6-11.6 13.1l-13.4 10.3c-3.8 3.2-5.3 3.7-6.5 2.5-1.2-1.2.3-3.3 6.4-9.5 4.4-4.2 11-9.8 14.7-12.5Zm-1027.9-.8c.1-.1 1 .3 2.3.7 3.4 1.3 2.4 3.2-1.9 3.2-4 0-5.5-1.9-2.3-3.1a12 12 0 0 1 1.9-.8ZM35.3 880c0-2 4.8-1.6 6.7.7 1 1.2 1.3 2.4.8 2.9-1 1.2-7.5-1.9-7.5-3.6Zm9.4-24.8c0-1.3 5-.3 10 2 9.2 4.1 30.5 24 28.2 26.4-1.3 1.2-7-2.8-16.9-11.9a122.7 122.7 0 0 0-21.3-16.5ZM1.6 874.3c1.5-1.6 3.5-1.1 11.7 2.9 6.4 3 7.4 4 4.6 4-4.3.1-17.2-3.6-17.2-5 0-.6.4-1.5.9-2Zm74.9-25c5.9 0 34.3 24.2 33.4 28.3-.6 2.1-.8 2.1-5.1.1-2.5-1.3-10.7-8.1-18-15.3-11.3-11-13-13-10.3-13Zm65.5-3.6c0-2.9 3.7-1.8 8.7 2.4 5.8 5.2 24.6 27.5 24.6 29.2 0 3.9-10-2.1-18.2-10.8a93 93 0 0 1-15.1-20.8Zm33-.9c1.3-1.3 8.2 6.7 16.5 19 10.4 15.5 8.1 18.5-4.3 5.7-10.4-10.6-15.6-21.4-12.1-24.7Zm-73 .2c0-1.7 3.2-1.1 6 1.4 4.5 3.9 22 24.3 22 25.6 0 3-5.3 1-11.3-4.3-5.9-5.2-16.7-19.8-16.7-22.6Zm17.9-8.5c1-2.8 4.6-.6 11 6.7 14 15.9 23.4 30.1 19.8 30.1-2.3 0-8.7-4.4-12.8-8.9-7.4-7.6-18.8-25.6-18-27.9ZM200 856c1.3-2.1 1.7-1.7 6.8 6 5.2 7.7 5.3 9.5.5 8-3.2-1-8.6-11.7-7.3-14Zm458 5.2c4-.5 10-.7 13.2-.4 3.2.3 7.6.5 9.7.5 2.3 0 3.6.6 3.1 1.4-1 1.6-12.8 1.7-24.8.4l-8.5-1.1 7.3-.8Zm-125.7-22.9c1-1.1 1.6-1.1 5.3-.2 3 .8 5.6 5.8 6.3 12 .4 3.4 1 3.9 4.8 4.3 4.2.4 4.2.4 2.1-2.7-2.7-3.7-2.8-9.8-.3-10.8 4.2-1.6 7.5.7 9 6.2 1 4 1 5.6 0 6-6.7 2.2 14 4.9 47.2 6.2 25.7 1.1 34.9 2 32.4 3.5-3.8 2.1-89.5-2.8-106.3-6-9.6-1.7-12.7-4.5-4.1-3.7 5 .5 7.2-1.1 4-3.1-1.5-1-1.9-10.4-.4-11.7Zm145.3 8c2-2 7-.8 7.7 1.8.7 2.2 1.4 2.4 2.8 1.1 1.6-1.3 1.9-.7 1.9 4 0 3-.5 5.5-1.3 5.5-.7 0-1.4-.6-1.4-1.4 0-.8-1.2-.6-3.2.3-5 2.3-7.4.5-7.4-5.3 0-2.8.4-5.6.9-6Zm-10.6 8c3-.7 4.6.2 3.7 1.8-1.1 1.6-6 1.6-6 0 0-.6 1-1.4 2.4-1.8Zm57.3-13.3c2.1-2.3 4.4-.7 4.4 2.9 0 5.2-1.2 8.1-3.5 8.1-2 0-2.8-9.3-1-11Z" />
    <path fill="oklch(10% 0.07 257)"
        d="M519.7 837.3c4 0 6.3 3.4 6.3 9.1 0 4.5-3.5 6.7-6.1 4a18 18 0 0 1-2.7-7.5c-.8-5.3-.8-5.6 2.5-5.6ZM735 841c1.7-2 4.3-.9 4.3 1.5 0 4-1.4 6.8-3.4 6.8-1.9 0-2.7-6.8-1-8.4Z" />
    <path fill="oklch(10% 0.07 257)" fill-rule="evenodd"
        d="M676.3 826.1c.5-.5 2.8-.8 4.9-.5 3.5.4 4.3 1.2 5.6 5.7l1.6 5.4.5-4c.4-2.3.8.1 1 5 0 5.8-.4 8.8-1.2 8.3-.7-.4-1.4-2.7-1.4-5 0-3.3-.4-3.8-1.6-2.6-2.2 2.3-8.6 2-9.6-.5-1-3-1-10.6.2-11.8Zm5.7 6.7c0-2.4-.8-2.8-2-1-.4.7-.1 1.7.7 2.2.6.4 1.3-.1 1.3-1.2Z"
        clip-rule="evenodd" />
    <path fill="oklch(10% 0.07 257)"
        d="M395 805.9c7.1-4.6 13.3-8 13.5-7.8 3 2.7-27.7 22-61.2 38.4-23.3 11.5-16.9 6.3 12-9.8 12.7-7 28.7-16.3 35.8-20.8Z" />
    <path fill="oklch(10% 0.07 257)" fill-rule="evenodd"
        d="M659.6 827c2.1-2.2 7-2 9 .2.9 1 1.4 4.3 1.1 7-.4 4.5-.8 5.1-4.1 5.5-2.1.3-4.7-.2-5.7-1.2-2.3-1.8-2.6-9.3-.3-11.6Zm3.6 5c-.7 0-1 .5-.5 1.3.4.7 1 1.4 1.4 1.4.3 0 .6-.7.6-1.4 0-.8-.7-1.3-1.5-1.3Zm-22.4-4.8c2.1-2.5 8.7-2.4 9.7.3.4 1.2.8 3.8.8 6 0 3.4-.4 3.8-4.5 3.8-3.9 0-4.8-.5-6-4.1-1-3.2-1-4.8 0-6Zm4.4 4.8c-.3 0-.5.5-.5 1.3 0 .7.6 1.4 1.4 1.4.7 0 1-.7.6-1.4-.4-.8-1.1-1.3-1.5-1.3Z"
        clip-rule="evenodd" />
    <path fill="oklch(10% 0.07 257)"
        d="M529.6 821c1-1.1 1.6-1.1 5.3-.2 3.2 1 6.6 8.5 5.2 11.9-1 2.9-8.4 2.5-10.1-.6-1.5-2.9-1.9-9.8-.4-11.2Z" />
    <path fill="oklch(10% 0.07 257)" fill-rule="evenodd"
        d="M545.2 803c1.3-2.3 4-2 7.5.7 3.2 2.7 5 12 2.9 15.8-1 1.7-.8 2.8.5 4.2 2.8 2.7 2.3 3.9-2.1 4.7-2.4.5-4 1.7-4 3 0 3.5-2.4 2-3.3-2-.6-2.6-.3-4.9.6-6.2 1.4-1.5 1.4-2.4-.4-4.3-2.2-2.5-3.4-13.3-1.7-16Zm4.8 5.7c-.7-.4-1.3-.3-1.3.5 0 .7.6 1.7 1.3 2.1.8.4 1.3.3 1.3-.5 0-.7-.5-1.7-1.3-2.1Z"
        clip-rule="evenodd" />
    <path fill="oklch(10% 0.07 257)"
        d="M513.2 820.7c1-2.4 5.3-2.7 7.2-.4 2.1 2.6 3.3 11.3 1.7 12.4-4.2 2.5-11-6.6-8.9-12Zm212.9-.2c2-2.5 3.5-2.4 4.4.4 1.1 3.5-1 10.4-3.3 10.4-2.4 0-3.3-8.1-1-10.8Zm-104 6c3.4-2.1 10.6-.5 10.6 2.3 0 1.3-1.8 1.9-5.2 1.9-5.6 0-8.4-2.2-5.4-4.2Zm-14.1-1.2c2.5 0 5 .7 5.5 1.5 1.8 3-6 5.2-10 2.7-1-.7-1.4-1.9-1-2.7.6-.8 3-1.5 5.5-1.5Zm-23.7-.3c2.2-2.5 11.8.5 10.4 3.1-1.4 2-11.4 1.5-11.4-.5 0-1 .4-2.3 1-2.7Z" />
    <path fill="oklch(10% 0.07 257)" fill-rule="evenodd"
        d="M564.1 804.8c2.7-2.7 3.6-2.7 7.2.3 3.6 2.9 5.5 14.5 2.6 16.4-1.6 1-1.6 1.3 0 2.4 1 .6 1.4 2.1 1 3.3-.9 2.3-5.7 2.8-8.8 1-2.4-1.7-.9-5.5 2.2-5.7 1.8 0 1.7-.2-.7-1.2-5.2-2.1-7.5-12.5-3.5-16.5Zm4.6 5.2c-.7-.4-1.4.4-1.4 1.9 0 1.6.7 2.8 1.4 2.8.8 0 1.3-.8 1.3-1.9 0-1-.5-2.4-1.3-2.8Z"
        clip-rule="evenodd" />
    <path fill="oklch(10% 0.07 257)"
        d="M738.3 819c2-2 3.3-2 4.4-.3 1 1.7-3.2 9.6-4.7 8.6-1.9-1.2-1.6-6.5.3-8.4Z" />
    <path fill="oklch(10% 0.07 257)" fill-rule="evenodd"
        d="M625.3 805.3c3.2 0 4.7.8 5.8 3.4 2 4.4 2 10.4 0 12.4-2.6 2.5-8.8 2-10.4-1-1.5-2.9-1.9-12.5-.4-13.8.4-.6 2.8-1 5-1Zm-.1 5.4c-1.2 0-1.9.9-1.6 2.2.7 3.4 3.7 3.8 3.7.6 0-1.6-.8-2.8-2.1-2.8Zm14.4-5.1c2.1-2.1 5.3-2 8.3.1 2.9 2.2 4.4 12.2 2.1 15-2.4 2.9-9 2.5-10.7-.6-1.8-3.6-1.7-12.5.3-14.5Zm4 4c-1.2-.4-1.7.4-1.3 2.5.1 1.6 1.2 3.2 2.1 3.6 1.2.4 1.7-.4 1.3-2.5-.1-1.6-1.2-3.2-2.1-3.6Zm-41.2-4.6c3-1.4 6.1-1 8.1 1 2.7 2.7 4.3 11.2 2.6 13.9-2 3.2-8.6 3.4-10.7.6-2.3-3-2.3-14.8 0-15.6Zm4 6c-2.4-.7-2.1 1.3.3 4.5 2 2.4 2 2.4 1.7-.7-.3-1.9-1.2-3.5-2-3.9Zm-24.4-5c2.4-3 7.6-2.4 9.9 1 2.8 4 2.9 14.3.1 14.5-1 .1-2.8.2-3.6.4-1 .1-2.8-.2-4-.8-3-1.5-4.7-12.3-2.4-15.1Zm5.3 4c-.6-.4-1.3.4-1.3 1.9 0 1.4.7 3 1.3 3.4.8.4 1.4-.4 1.4-1.8 0-1.5-.6-3.1-1.4-3.5Z"
        clip-rule="evenodd" />
    <path fill="oklch(10% 0.07 257)"
        d="M675 805c1.4-1.5 6.3-1.1 8 .6 1 1 1.7 2.7 1.7 4.1 0 1.9-.7 2.3-2.7 1.6-3.6-1-3.5 2 0 5.1 1.6 1.3 2.4 3 2 3.6-1.5 2.3-7.2 1.5-8.7-1.2-1.4-3-1.8-12.5-.4-13.9Z" />
    <path fill="oklch(10% 0.07 257)" fill-rule="evenodd"
        d="M658.3 805.6c5-5 12.2 1.2 11.4 10-.4 4.7-.8 5-4.8 5.5-2.4.2-5.3-.3-6.4-1.2-2.2-1.9-2.5-12-.2-14.3Zm4 4c-1.4-.4-1.8.5-1.4 3 .6 4.2 3.1 4.6 3.1.5 0-1.6-.8-3.1-1.7-3.5ZM527 801c1.3-1.5 5-1.1 7.5.7 2.6 1.9 5.1 11.1 4 14.6-1 3.4-7.8 3-10.4-.6-2.1-2.9-2.9-13.2-1.2-14.8Zm5.1 6c-.4-.5-.8.3-.6 1.8 0 1.5.4 1.9.8.8.4-1 .2-2.1-.2-2.5Z"
        clip-rule="evenodd" />
    <path fill="oklch(10% 0.07 257)"
        d="M511.6 799c3.6-3.7 9 4.3 9 13.1 0 4.3-1.5 5.8-5.1 4.6-4.6-1.4-7.4-14.3-3.9-17.8Zm215.9 2c1.4-2.7 1.6-2.7 3.4-.2 1.2 1.6 1.5 4 1 6.5-1.1 5.2-1.6 6-4 6-2.3 0-2.6-8.1-.4-12.2ZM397 774c14-9 18-10.7 13.5-5.9-8 9-51.3 32.7-74.8 41.1-18.1 6.5-17.4 4.4 1.2-3.7a466 466 0 0 0 60-31.5Zm342.2 28.3c2-5.1 5.5-4.8 5.5.5 0 4.4-2 9.2-4 9.2-2.2 0-3-5.9-1.5-9.7Zm13.8-4.7c2.3-2.4 4.3-1.2 4.7 2.8.6 4.3-1.8 9-4.4 9-2.5 0-2.8-9.4-.4-11.8Zm151.3-9.3c18.4-.3 25.2.8 19.6 2.9-3.6 1.3-104.3 1-105.2-.5-.6-.8 11-1.5 32.2-1.8 18.2-.1 42.2-.4 53.4-.6Zm-132.2-40c-4.5-9 .3-3.8 9.9 10.5 5.5 8.3 13.2 18.1 17 22.1 4 4 7 7.6 6.6 7.9-1.2 1.2-8.1-3-11.7-7-3.6-4-18-26-21.8-33.5Zm812.9 20.5c7-8.5 5.7-4-2.3 7.9a64 64 0 0 1-8.3 10.8c-1-1 6-13.2 10.5-18.7Zm20.7-9.8c4.7-5.8 7-7 7-4 0 3.7-17.6 27.7-20.3 27.7-3.6 0 1-8.3 13.3-23.8Zm28.2-7c2.1 0 2.6 1.9 1 4-2.6 3.9-24 21.5-25.4 21-4.6-1.5.4-7.7 15-18.7 4.7-3.5 8.8-6.3 9.4-6.3Zm24.8-2.5c4.6-2.4 10-3.6 10-2.3a70 70 0 0 1-7.6 5.5c-4.3 2.8-11.8 8-16.6 11.4-8.5 6.3-14 8.4-12.9 4.8.8-2 19.7-15.7 27-19.4Zm-862-131.8c9-3 48.6-1.3 69.8 3 11.1 2.4 25.4 8.8 27.4 12.4 1 2 .8 3-1.4 5s-5.3 2.7-15.8 3c-18.2.6-21.9-1.8-4.4-2.8 18.1-1.1 21.2-2.6 14.5-7.1-7-4.5-30.4-9-59.9-11.3-20-1.6-29-1-31.7 2.4-1.5 1.7-1 2.6 2.5 5.8 3.5 3.1 3.8 3.9 1.9 3.9-4 0-8.5-5-8-9 .3-2.9 1.5-4 5-5.3Zm-34.6-4.4c5 0 7.8.6 7.2 1.4-.4.6-4.1 1.3-8.1 1.3s-7.2-.7-7.2-1.3c0-.8 3.6-1.4 8.1-1.4ZM925 523.6c12-2.3 25.7.1 23.1 4.1-1 1.8-20.1 2.3-24 .8-3.2-1.2-2.5-4.2 1-4.9Zm64.2-15.6c1 0-2.8 12-4 13-1 1.1.1-4.5 2.1-9.7.7-1.8 1.6-3.3 1.9-3.3Zm-248.4-23.5c.1-6.2.3-6.1 3.3 6.2a281 281 0 0 0 5.2 18.2c1.2 3.2 2 6.8 1.8 8-1.5 6.8-10.6-21.7-10.3-32.4Zm181.5-47.8c6.5-9.5 9-11.9 9-8.6 0 3.1-12.4 18.6-14.9 18.6-.7 0 2-4.6 5.9-10Z" />
    <path fill="oklch(10% 0.07 257)" fill-rule="evenodd"
        d="M840.4 317.5c11.9-.2 14 .2 16.3 2.5 7.7 7.7-3.1 32.4-16.8 38.1a34.2 34.2 0 0 1-24.4-.8c-9.1-4.5-18.2-18.5-17.2-26.2.5-4.3 7-8 19.7-11.4a105 105 0 0 1 22.4-2.2Zm8.3 26.9c0-2.3-9.4-2.1-17.4.3-7.4 2.4-13.6 8.1-10.6 10 3.2 2 13 1.4 17.7-.8 5.5-2.8 10.3-7.2 10.3-9.5Zm-.7-23.2a66 66 0 0 0-25.3.8c-8.6 1.9-18 5.9-18 7.6 0 1.7 4.9 3.7 9 3.7 5.6 0 28.4-6 33.8-8.8l4.5-2.4-4-.9Z"
        clip-rule="evenodd" />
    <path fill="oklch(10% 0.07 257)"
        d="M908.5 305c4.8-4.2 12.4-4.9 13.2-.9.3 1.6-.5 2-3.3 1.6a10 10 0 0 0-7 2.2c-3.4 2.6-3.4 2.6-1 6.5 3 5.2 3 7-.4 7-1.5 0-3 .9-3.5 2-.5 1-1.4 2-2.1 2-.8 0-1.2-3.3-.8-8.2.5-7.3 1-8.7 5-12.1Zm-101-9.4c2.6-3.6 5.2-4.7 5.2-2.4 0 .7-1 1.9-2 2.8-2.3 1.9-2.7 8.8-.7 10 2 1.2 1.6 4.7-.4 4.7-1 0-3-1.2-4.3-2.7-2.6-3-2-7.2 2.2-12.4Zm9.2 8.3c0-1.5.4-1.5 4.8.1 2 .8 3.2 1.7 2.9 2.1-1 1.1-7.7-.9-7.7-2.2Zm-25.1-17.2c5.2-.2 15.2 5.7 13.7 8-.4.5-3.2.5-6.2 0-4.6-.8-7-.6-11.5 1.4-3 1.5-6.3 2.3-7 1.9-2-1.2 1.5-7.3 5.3-9.3 1.8-1.1 4.5-1.9 5.7-2Zm53.1-8.4c3.4-1.5 10.5.1 14.6 3 6.2 4.4 5.1 5.5-4.4 4.6-6.5-.7-9.4-.4-12.6 1.3-5.2 2.7-5.6 2.7-5.6-.3 0-2.5 4.4-7.3 8-8.6Zm-3.7-19.5c5.8-2.4 15-1.6 19.7 1.5 5 3.4 7.3 7.4 3.2 5.7-9.2-3.9-13.4-4.7-18.6-3.9-6.4 1-9.4-1.3-4.4-3.3Z" />
    <path fill="oklch(10% 0.07 257)" fill-rule="evenodd"
        d="M820 189.2c16.1-2.7 44.7 1 54.3 6.8 3.2 1.9 4.9 2.1 7.4 1.2 4-1.5 13.2-.4 14.4 1.7.7 1-.2 1.2-2.6.6-2-.6-7.2-.3-11.5.5-6.7 1.2-9 1-14.3-.8a107 107 0 0 0-42.6-3.3c-15 2.5-25.4 6-34.7 11.7-9.5 5.7-21 15-19.9 16 .4.4 3-1.2 5.8-3.6 5.4-5 21.3-12.8 22.8-11.5.4.6-2.6 4-6.8 7.8-4.2 3.6-8.4 8-9.2 9.4-.8 1.8 1.3.3 5.3-3.2 6.5-5.8 27.7-18.1 29-16.8a38 38 0 0 1-6.3 10c-12 16-13.4 19.5-3.6 9.5a89 89 0 0 1 26.9-19.9c11-5 11.3-3.7 2.3 14-7.4 14.6-8.7 19.1-3 10.3 4.6-6.7 18.7-23 20.2-23 .5 0 3.2 5.1 6 11.3 4.4 9.8 22.5 39.4 24.1 39.4.4 0-1-3.6-3.2-7.8-2.3-4.3-6.3-13.2-9-19.6-8.5-20.7-8.5-23.1.3-16.8 7.1 5 9.8 6.5 7.6 4.1-2.4-2.5-2.1-3.9.7-3 3.7 1.5 16.7 11.8 22.1 17.8 2.8 3 7.4 9.2 10.3 13.7 6.4 9.9 7 10.7 5.3 5.8-3-8-12.2-21.9-20-30.4-9.2-10-10-12.2-4-10.4a60.7 60.7 0 0 1 23.6 15.8 88.5 88.5 0 0 1 25.5 56.8c.8 7.4 2.5 20.6 3.7 29.4a292 292 0 0 1 2.3 32.6c.1 19.4-1.7 26.2-9.2 33.4-5 4.9-6.1 4.4-2.1-1.1 4.8-7 6.8-15.7 6.8-30.3 0-15.3-1.8-18.6-3.2-5.8-.8 8.4-6.3 22.5-9.8 25.4-1.7 1.4-1.8.8-1.2-3.7.7-3.7.2-3-2 3.3a32.7 32.7 0 0 1-10.8 16.6 43.5 43.5 0 0 1-8.5 7.2c-.4-.4 1-4.2 2.8-8.4 1.7-4.4 2.5-7 1.6-5.8l-7.2 8.6-5.7 6.4-.2-3.9v-3.9l-2.1 4.2c-1.9 3.7-1.9 4.9-.3 10 1.6 4.8 3 6.4 7.9 8.8a28 28 0 0 0 10.8 3c3 0 8.7 1.9 14.7 5 6.4 3.2 14 5.7 22.4 7.3a61.5 61.5 0 0 1 37 18.8c9 9.2 13.6 17.7 22.3 40 8 20.5 17.3 42 24.3 56a65.4 65.4 0 0 1 5.8 15c0 2-2.1 4.9-6.6 8.6-3.6 3-6.7 6.4-6.7 7.3 0 1 3 12.7 6.7 26.2 7.2 26.5 9.2 41.2 6.8 50.1a55.8 55.8 0 0 1-19.2 22.7c-9.1 4.5-27.6-.3-41.6-11.1l-6-4.5-1 3.7c-.6 2-.9 9.3-.9 16.3.1 11.4.7 14.2 6.4 30 6.5 18 9.7 35.2 7.3 39.6-1.4 2.6-6.5 3.2-6.5.6a83.5 83.5 0 0 0-4.7-28.9c-1.6-3.3-4.5-10.4-6.5-15.7l-3.7-9.8-4.8 1c-2.8.4-11 2-18.3 3.4-30.1 6.2-38 6.7-38 2.4 0-3.8-4.8-3.4-11.3 1.1l-5.5 3.6H828l-14.7-5c-8-2.9-17.6-7.1-21.3-9.7-12.8-8.8-25.3-12-29.6-7.7-2.4 2.4-6.7 21.2-5.2 22.7 1 .9 6.3-2.2 14.5-8.6 4.2-3.2 7.6-5.3 7.6-4.5 0 1.7-12.9 12.5-18.4 15.3-2.4 1.2-4.9 3.6-5.4 5.2-2.4 6.2-7.1 26.7-9.9 43.1-2.4 13.9-3.3 17.2-5.3 17.6-1.2.3-2.7-.5-3.2-1.9-1.4-3.7 1.8-25.3 6.4-42.6a374.3 374.3 0 0 0 10.5-48.4c0-3.1-1.2-5.9-4.1-9.2-3.6-4.2-4.2-5.5-3.5-10.4l.5-5.6-6.2 3.8c-13.8 8.4-32.6 11.8-41.2 7.4-9.2-4.8-17.5-18.7-18.4-30.8-.7-8.4.5-14.6 9.6-46.4a203 203 0 0 0 4.6-18.3c0-1-3.3-4.7-7.3-7.7-4-3.2-7.6-7.1-8-8.7-1-3.5 4.3-15.5 24.3-55.9 19.6-39.7 32-58.1 43.2-63.7 2.6-1.5 10.8-4.1 17.8-6a366 366 0 0 0 49.8-18c4.9-2.1 3.8-7-2.7-12.1a45.1 45.1 0 0 1-7.3-6.4c-2.7-3.1-2 0 .9 4.8 1.5 2.4 2.1 4.4 1.3 4.4-2.5 0-11.6-6-17.6-11.9-3.6-3.3-6.4-5.6-6.4-5a44 44 0 0 0 3.9 7.1c2.3 3.5 3.7 6.6 3.5 6.8-1.1 1.1-12.3-6.2-17.9-11.7-10.1-9.9-15-24.5-14.1-42.7.4-6.8.1-8.8-.6-6a61.2 61.2 0 0 0 5.5 40.6l2.7 4.6-4.6-3.3a36 36 0 0 1-7.7-10c-5-9.7-4.5-26.3 1.2-47.7 4.7-17.6 5.3-30.4 2.1-39.5-2.6-7.5-2.5-12.8.6-22.5 1.3-4.6 2.2-8.2 2-8.2a67 67 0 0 0-9.2 17.8l-1.9 5.6v-7.5a27 27 0 0 1 4-15.3l8.7-16.7a79 79 0 0 1 58.5-40Zm32 477.7c-5 0-5.2.2-1.3 1.1 2.2.5 7.8 1 12.6 1h8.7l-7.3-1c-4-.7-9.8-1-12.7-1Zm-24-2.2c-1.5-.3-3.9 0-5.3.5-2.4 1-2.3 1.2 1.3 2 7.6 1.7 8.3 1.7 11.5 0l3.2-1.7-4-.2c-2.2 0-5.2-.2-6.7-.6Zm-67.3-12c-2.3-.7-6.7 1.6-6.7 3.2 0 2.8 23 8 35.7 8.1 5.1 0 6-3.6 1.4-4.5l-15.8-3.5-14.6-3.3Zm256.9-85.9A141 141 0 0 0 990 574c-1.5 1-1.9 7.2-.5 10.7 1 2.8 5.6 4.9 18.8 9.3a46.8 46.8 0 0 1 15.8 8.1c2.7 2.6 4.7 5 4.3 5.2-.4.4-4.5-1-9.2-3.2-4.7-2-12.7-5.2-17.9-6.8-5-1.6-10.1-3.7-11.2-4.5-1.4-1-2-1-2.5.3-2.7 8-9.6 18.6-13.9 21.4-2.8 1.8-5 4.3-5 5.5 0 4.3 7.8 18 14.6 25.6 11.9 13.3 30.6 19.3 40.6 13 11.2-6.7 15.6-18 13.2-33.3-1.6-9.8-9.9-43.2-13.4-53-1.7-5.1-2.4-5.6-6.1-5.5Zm-256.8 68.3c-1.5-.6-1.7-.4-.8.6 3 3.4 22 11.4 36.5 15.6 28.4 8.2 38 9.2 79.5 9.2 36.1 0 37.7-.1 50.3-3.4 13.8-3.8 21.7-7.2 13-5.8a357.9 357.9 0 0 1-57.7 2.8c-17.7-.6-66.1-6.2-78.3-8.9a1754.7 1754.7 0 0 1-42.5-10.1Zm-38.1-78c-15.2-5.5-16.6-5.6-18-2.2a434 434 0 0 0-7.4 26.4l-8 30.7c-1 4-2 10-2 13.3a44 44 0 0 0 12.7 26.6c4.8 4.1 5.6 4.4 11.6 3.6a71.6 71.6 0 0 0 37-18c0-.6-2.3-3.4-5.4-6.2a61 61 0 0 1-18.5-32.1l-1.6-8.1-6.2 1a72 72 0 0 0-10.1 2.4c-2.1 1-4.1 1.2-4.4 1-2.1-2.2 7.7-7.9 16.3-9.5a18 18 0 0 0 8.4-4.3c2.5-2.8 4-3.2 8.6-2.8 4.3.6 6.4 0 9.1-2.1a60 60 0 0 1 5.9-4.3c2.1-1.2.9-2.1-8.2-6.8-5.7-2.9-14.6-6.9-19.8-8.6Zm140.6 46.1c-26.5-3.3-79.7-5.6-84-3.6a64 64 0 0 0-6.8 4.7c-6 4.6-12.9 4.9-16.6.9-1.9-2.1-3.6-2.7-6.8-2.1-10.4 1.7-14.2 8.6-7.9 14.9 9.7 9.7 37 17.3 95.5 26.5 17.2 2.7 61.8 5.2 76.6 4.3 28.8-1.9 47.4-7.6 47.4-14.7 0-3.6-2.8-3.7-8.7-.6l-5.7 3-15.4-2.1a95.4 95.4 0 0 1-19.6-4.4c-4.6-2.4-8-9-8-15.7 0-4.3-.2-4.6-6.9-6.2-3.9-.8-18.7-3-33-4.9Zm69.6-92.4c-6.6.1-8.5.8-15.6 5.7-11.8 8.4-11.8 8.2-10.1 41.2.8 15.6 1.5 36.2 1.5 45.8 0 24.8-1.1 23.8 26.4 23.8 19 0 21.6-.2 24.1-2.5 1.9-1.7 2.8-4.1 2.8-7.6 0-4.8-.3-5.2-5.6-6.7-9.9-2.5-12.8-4.8-13.9-9.8-.4-2.7-1.6-4.7-2.6-4.7-3.4 0-7.5-5.3-6.7-8.7.5-2.2 0-3.6-2.5-5.2-4.6-2.9-4.4-8.1.4-11l4.1-2.7c.3-.3-.5-1.6-1.9-3-5.3-6 3.6-14.3 21.2-20.2l6.8-2.3-.4-6.2c-.4-9.4-3.3-14.3-12.4-20.4-7.2-5.1-8.8-5.6-15.6-5.5Zm40.4 39.2c-5.4-5.6-16.9-4.1-30.6 3.9-7.1 4.1-8.6 6.8-5.8 9.7 1.9 1.7 3.1 1.6 11.2-.8 13.5-3.9 20.2-4.8 22.6-2.8 3.3 2.8 2.4 3.6-5 4.5-10 1.2-33 8.7-34 11-1 2.9 2.3 6.1 5.5 5.2 3.5-1 7-1.4 23.6-2.7 9.5-.8 13-.7 13.9.5 1.3 2.3.4 2.8-4.8 3.5l-18.3 2.1c-14.4 1.8-17.3 3.4-13.3 7.4 1.4 1.4 6.2 2.2 17.2 2.6 8.4.4 16.1 1.1 17.2 1.4 4.6 1.6-2.6 3.2-14.3 3.2-12.4 0-14.3.8-10.3 4.1 2.4 2 14.2 6.5 19.5 7.5 5 .9 12.3-6.3 14.4-14.2a69 69 0 0 0-2.7-32.5c-1.4-3-2.6-6.7-2.6-8 0-1.3-1.5-3.9-3.4-5.6Zm-230.2 41.9c-4.2-7.6-7.6-9.8-11.4-7.2-4.6 3.2-4.5 8.6.3 24.1.3.8 3.6-1.3 7.3-5l7-6.5-3.2-5.4ZM920 416c-.4 0-.8 1.5-.8 3.3 0 5.9-3.4 11.8-10.9 18.8a67.7 67.7 0 0 1-77.6 10.2 79.6 79.6 0 0 1-28-26.2 16.6 16.6 0 0 0-2.8-4.8 258.8 258.8 0 0 1-28 9.6c-8 2.2-16.8 5.2-19.5 6.6-11.7 6-26.6 29.4-50.5 79.4-7.3 15.5-13.3 28.6-13.3 28.8 0 .4 4.4 1.5 9.7 2.3 14 2.4 28.5 7.2 43.9 14.8 7.4 3.6 14.2 6.5 15.2 6.5 2 0 3.8-8 2.6-11.6-.4-1.4-6.2-6.1-12.8-10.5-10.9-7.2-13.8-9.9-10.9-9.9 1 0 11.7 6.2 19.3 11.2l3.6 2.4v-5.7c0-3.2-.6-10.4-1.3-15.9-4.4-33.4-6.8-72-4.4-72 1.3 0 3.6 14.8 5 33.4.5 5.4 2 17.2 3.4 26 3.9 24 6.7 48.2 6.7 56.9v7.7h5.8a15 15 0 0 1 15.1 11.8l1.2 4.9 25.6 1c27.2.9 53 3.5 73.5 7.8l13 2.5c.4 0 .4-17.8.3-39.7-.5-38-.4-39.7 2.3-44.3 1.4-2.5 5-6 8-7.6 2.8-1.7 4.9-3.8 4.6-4.6-.2-1-.4-5.6-.2-10.4.2-11.4 2.4-13.4 14.1-13.4 12.1 0 14.1 2 15 15l.6 10.1 5.9 4c6.9 5 9.8 10.3 10.8 19.7.8 7.5 2.5 9.5 3.6 4.2 2-9 4.8-39.1 5.6-58.3.8-21.9 2-28 4.1-20.5 1.9 6.5.8 53.3-1.5 67.2-2.6 16-2.6 16 1.2 20.4l3.4 3.8 6.4-4c6.5-4 12.2-6.4 12.2-5 0 .4-3.6 3.2-8.1 6.1a35 35 0 0 0-8.8 7.6c-1 2.4 3 11 5 11 2.2 0 34.5-9.4 39.8-11.5 8.5-3.6 8.5-3.2.1-20.8-7-14.7-16.4-37.4-26-63-9.8-26.5-21.4-36.5-50.4-43.6A112.6 112.6 0 0 1 920 416ZM768.5 593.9c-3.7-4.6-11-.7-10.2 5.4.4 3.8.8 4 5.7 4 4.8 0 5.3-.4 5.7-3.7.3-2.1-.2-4.7-1.2-5.7Zm-6-13.8c-10.4-8.1-22 2.7-13.4 12.6l2.9 3.6 7-5.6c3.8-3.1 7-6 7-6.7 0-.7-1.6-2.4-3.5-3.9Zm20.2 4.6c-3.9-4-7.8-4.3-11.4-.7-3.3 3.3-3.3 4.4.4 8.7 2.8 3.3 3.4 3.4 8.7 2.1 6.7-1.9 7.5-5 2.3-10.1Zm157.2-95c-3.1-2.2-14-2.2-17 0-2 1.4-2.1 2.8-1.3 9l1 7.3h18.7l.4-7.3c.4-5.8-.1-7.6-1.8-9Zm-84.6-264.9c0-4-2.2-3.2-6.8 2.3-9.7 11.6-21.2 31.4-21.2 36.4 0 3.7-3 1.2-5-4.3a46.8 46.8 0 0 1-1.2-16.5l.6-11.4-9.6 10.3a117.4 117.4 0 0 0-13.3 17c-3.6 6.6-3.6 6.6-.8 8 4 2.2 2 4-4.4 4a21 21 0 0 0-10 2.7c-5.2 3.2-5.6 3.2-5.6.8 0-2.5 6.4-7.4 9.6-7.4 3 0 3.3-.8 4.3-13.4l.6-10-5.3 6a82.1 82.1 0 0 0-9.7 15.4l-4.7 9.3.4 29.3c.3 25.9.7 30.2 3 36.3 3.4 8.4 12.7 21.6 20.7 29.3a77.3 77.3 0 0 0 29.5 16.4c11.5 2.6 32.5-3.8 48.3-14.6 9.3-6.4 7.6-1.6-3.1 9-14.3 14.2-27 20.3-42.3 20.3-4.9 0-6 1.6-6 9.3 0 2.8-.5 5.6-1.3 6-.8.6-1.3-.9-1.3-3.2 0-2.2-.4-4.1-.8-4.1s-3.5 1.9-6.7 4.1c-6.7 4.6-6.8 6.4-1 14.2a65.6 65.6 0 0 0 37.4 23.2c21.6 4.4 49.2-4.6 59.2-19.5 6.4-9.3 5.6-13.2-3.3-16.7-3-1-4.2-1-5 .2-.6 1-1.8.1-3.7-3-5-8.2-6.1-14.4-6.1-35.8 0-16.7.5-22 2.5-27.8l2.4-7 7.3.9 7.2.8 6.6-6.7a36 36 0 0 0 10.4-28.5c-1.5-14.1-12-17.2-23-6.5-3 3-6.2 5.4-7 5.4-3.1 0-4.8-4.4-6.6-16.2-1.7-11-2.4-12.8-6.4-17.1-12-12.7-28.8-40.1-28.8-47.2Zm-95.2 98.3c-.4-.6-.8.2-.6 1.7 0 1.5.4 1.9.8.8.4-1 .2-2.1-.2-2.5Z"
        clip-rule="evenodd" />
    <path fill="oklch(10% 0.07 257)"
        d="M487.2 713.3c.8 0-.7 5.6-3 12.3-6.5 17.5-7.1 19.3-11.8 29.3-4 8.8-6.4 11.4-6.4 7 0-2.7 7.5-21.6 14.7-37.4a43 43 0 0 1 6.5-11.2ZM1684 750.4c13-5.2 15.9-6 15-3.5-.2.8-5.3 3.2-11.1 5.1a204 204 0 0 0-19.1 7.9c-4.5 2.4-8.7 4-9 3.7-1.1-1.2 11.5-8 24.2-13.2ZM888.1 700c2.8 0 2.4.8-4.4 9.7a218.6 218.6 0 0 1-42.4 40.6c-13.4 9.4-24.2 15.8-16.1 9.4 29.3-22.9 42.5-35.3 55.7-52.8 3-3.7 6.3-6.9 7.2-6.9Zm41.6 10.8c.6-1.5 1-1.5 1.4-.4.5 1.9-12.7 22.3-17 26.1-5.3 4.8-2.8-.4 6-12.1a188 188 0 0 0 9.6-13.6Zm-454.1-5.2c4.1-5 2 3.2-3.9 14.7-4.2 8.6-8.2 12.5-6.2 6a142 142 0 0 1 10.1-20.7ZM1526 714c7-2.1 17.2-2.7 15.3-.8-1.7 1.6-21.6 8.1-24.8 8.1-6.2 0-1-4 9.5-7.3Zm42.7.1c3.3-1 6.6-.9 6.6.4 0 1.6-12.9 6.8-16.8 6.8-7 0-2.8-2.9 10.2-7.2Zm13.3 3.9c9.2-3.3 16-4.1 16-2 0 .7-1.3 1.6-3 1.9-20.6 4.4-24.9 4.4-13 .1Zm-33.7-5.3c8.1-2.3 7.3-2.2 9.7-.7 1.6 1 1 1.6-2.8 3.2a52.3 52.3 0 0 1-18.8 4.5c-2.5-.9 4.4-5 11.9-7Zm-38.2 1c9.4-3.2 11.9-3.6 11.9-1.8 0 1.3-11.5 6.4-16 7-6.7.8-4.1-2.4 4.1-5.2Zm-445.3-17.2c5.5-2 14.5-2.4 14.5-.5 0 1.5-12.2 5.3-17 5.3-4.6 0-3.1-2.8 2.5-4.8Zm19.9.8c2.6-1.7 12-1.7 12-.1 0 1.6-11.8 3.5-13.1 2.3-.4-.6 0-1.5 1-2.2Zm-44.4-4.8c9.7-2.1 13-2.1 19.7 0l5.3 1.6-4 2.2c-4.8 2.5-15.3 4.4-15.3 2.8 0-.7.8-2 1.7-3 1.4-1.6 1.1-1.7-1-.9a44 44 0 0 1-16.3 3c-1.7-1.8 2.3-4 9.9-5.7Zm-518.8-3.3c-2-1.9 5.6-1.2 14.4 1.2 7.3 2.1 11.7 5.6 7 5.6-2.9 0-20.1-5.5-21.4-6.8Zm17.8-2.4c0-2.5 7.1-1.6 14.4 1.9 8 3.7 9.4 6.8 2.4 5.6-6.1-1-16.8-5.8-16.8-7.5Zm19.4-1.3c1-2 18 4.4 18 6.8 0 1.7-4.3 1.3-11.1-1.1-6.5-2.3-8.3-3.7-7-5.7ZM578 688c0-2 6.8-1.6 13.7.8 8.6 3 9.8 5.2 2.2 4.1-8.7-1.3-15.9-3.6-15.9-4.9Zm34.7 1.3c1.8 0 4.2.6 5.2 1.2 2.8 1.8-4 3.4-8.8 2.2-2.8-.7-3.2-1.1-1.6-2.2a11 11 0 0 1 5.2-1.2Zm30-24c1-1.7 9.6-1.7 10.6-.1.4.7-.5 1.7-2.1 2.1-3.5 1.2-9.6-.2-8.5-2Z" />
    <path fill="oklch(10% 0.07 257)"
        d="M623.7 598.4c-.8-9.7 1-12.3 3.5-5 1.7 5 3 5 7.3-.3 2.7-3.6 3.5-3.9 4.2-2.2 1.2 3.1-1.5 7.4-6 9.8-2.4 1.2-4 3-4 4.6 0 1.5-2.2 5-4.7 7.9-6.1 6.7-6 10.7.1 16.1 6 5.2 11.5 4.8 16.7-1.4 3.5-4 6-3.6 4.4.6-1.3 3.5 2.7 3.9 7.9.8 5.7-3.3 8.5-1 3.6 3-4 3.3-9 4.4-12.4 2.6-4.4-1.8-9.8 1.8-12.6 8.7-1.3 3.2-2.8 5.7-3.3 5.7-1.6 0-1.3-2.2.8-7.3 1.6-3.7 1.6-4.5.1-5.2-1.3-.4-3.2 1.9-5.7 7.2l-3.7 8 8.6.1c4.8.2 11.5.4 14.8.7 20.2 1.6 23.8 3 22 8.5-.8 2.4-.2 2.7 3.9 2.7 5.3 0 7.6 2.1 3 3-5.8.9-9.1-.5-10.6-4.5-.8-2-2.4-4.1-3.6-4.6-1-.4-18.8-1.1-39.3-1.4-20.6-.2-38.8-.6-40.7-.6-3.2-.2-3-.2.7-1.4 2.2-.8 11.4-1.7 20.5-2.1l16.4-.8 2.5-4.1c4.3-7.1 4.4-10.8.7-16.4a20.2 20.2 0 0 1-3.5-8.7c0-3-.9-4.1-4.8-5.7a16.1 16.1 0 0 0-8-1.2c-4.6 1.2-11-1.9-12-5.8-1.2-4.6.4-5.3 3.6-1.3 1.9 2.4 4 3.6 6.7 3.6 3.2 0 3.9-.5 3.9-3.5 0-4 2.2-3 4 1.6 2 5.1 7.4 5.6 12.1 1.1 3.7-3.6 3.9-4 3-12.8Zm-53.4 65.3c4.1-.6 7.8.3 6.9 1.8-1 1.6-8.1 1.6-9.2 0-.4-.7.7-1.5 2.3-1.8Zm-15.5-1c1.7 0 3.2.5 3.2 1.3 0 .7-1.9 1.3-4.1 1.3-2.3 0-3.8-.5-3.2-1.3.4-.8 2.2-1.3 4.1-1.3Zm1023.9-4c5.6-1.5 15.3-1.6 15.3-.2 0 2-12.5 4.2-22.4 4l-9-.1 6-1.3c3.4-.7 8-1.8 10-2.4Zm-27-1.7c2.8-1.3 17-1 17 .2s-7.8 2.8-14.3 2.8c-4.4 0-6-1.9-2.7-3Zm53.1.3c5 0 7.7.6 7.2 1.4-.4.6-4.1 1.3-8.1 1.3s-7.2-.7-7.2-1.3c0-.8 3.6-1.4 8.1-1.4Zm-74.8 1.4c0-.8 2.5-1.4 5.7-1.2 4.3 0 5 .2 3 1.2-3.8 1.6-8.7 1.6-8.7 0Zm-963.3-6.4c3-.3 6.9 1.8 5.7 3-.4.6-5.6 1.1-11.3 1.2-16.8.7-20.8-2.5-4.4-3.6l10-.6Zm943.4-13.9c1.2-.8 14.4-1 35.9-.5 38.1.9 52.3 1.8 51.2 3.7-.8 1.2-71.9.3-83-1-4.5-.6-5.5-1.1-4-2.2ZM1106 626.7c2.4 0 3.9.5 3.3 1.3-.4.7-2 1.3-3.3 1.3-1.3 0-3-.6-3.3-1.3-.6-.8.9-1.3 3.3-1.3Z" />
    <path fill="oklch(10% 0.07 257)" fill-rule="evenodd"
        d="M561.6 564.8c1.3-1.3 3.5 5.5 2.5 7.9-.4 1-3.6 3.3-7.3 5.2-11.2 5.7-12.3 8-11.9 26 .4 13 .7 15.3 2.4 14.9 1.1-.4 7.2-.7 13.5-.5 9 0 12.5.5 16 2.6 2.5 1.4 4.3 3.1 3.9 3.9-.8 1.5-55.5 1.6-60 0-1.9-.5-5.8-1-8.6-1s-6-.5-6.9-1.3c-2.1-1.7-2.4-7.6-.5-10.5 1-1.7 1.4-1.6 3.3.7 1.9 2.5 2 2.2 1.7-3.4-.4-5.4-.6-6-3.7-6-3.2 0-3.3.6-4.1 8.7a45 45 0 0 1-1.8 10.4c-1.6 2.7-5.7 1.7-8.4-1.9-2.5-3.3-2.5-3.3-6.6-.9-3.4 1.9-4.7 2-5.9.8-1.3-1.3-.8-2 2-3 4.7-1.8 11-1.8 12.1 0 1.6 2.5 3 0 3.9-6.7 1.3-10.4 3.7-12 16.4-11.1 5.7.4 14.3 1.5 19 2.5 4.6 1.1 8.7 1.8 9 1.5 1.5-1.6-1.7-13.7-4.5-17-3.1-3.7-3.8-4-10.3-3.1-5.2.6-7.3.4-8.5-1.1-1.4-1.7-.6-1.9 5.8-1.3l7.4.6-1-3.6c-1-4.4.4-4.4 5.1.2 3.2 3 4.3 3.3 7.3 2.2 2.7-.9 3.9-2.4 4.6-5.7 1.2-5.9 4.4-8 4.9-3.5.3 1.9 1 3.4 1.7 3.4 3.2 0 6.6-3 6.6-5.9 0-1.6.4-3.5.9-4Zm-46.7 37.9c-3 0-3.2 1.2-1.4 10 .8 4.4 1.6 6.8 1.7 5.2.1-1.6.5-5.6 1-9.1.7-5 .5-6.1-1.3-6.1Z"
        clip-rule="evenodd" />
    <path fill="oklch(10% 0.07 257)"
        d="M478 624.3c2.5 0 3.6.2 2.4.6-1.3.3-3.5.3-4.7 0-1.3-.4-.2-.6 2.3-.6Zm614.1-59c1.1-8.2 3.2-8.6 3.2-.6 0 6.1 4.4 15.3 7.5 15.3 2 0 11.2-10.1 11.2-12.4 0-.8 1.3-3 2.8-5l2.7-3.3-.7 4-1 6.7c-1 5.9 13.3 2.5 19.3-4.7 1.3-1.4 2.9-2.4 3.7-1.8 2.1 1.2-5 8-11.7 11.3-4 2-7.2 2.5-10.2 2-3.8-.7-4.9-.1-9.8 4.8l-5.5 5.7-1.3 28.4 5.8 1c3.2.4 5.9 1.3 5.9 2 0 1.2-50.4.6-51.7-.6-.4-.4 1.4-.8 4.1-.8 2.8 0 5-.6 5-1.3 0-.8-.9-1.3-2-1.3-3.7 0-3.7-3.1 0-6.2 2.9-2.2 5.7-3 10.3-3.2 8 0 10.8 1.5 13 6.7.9 2.3 2.4 3.9 3.2 3.6 2.2-.8 4.1-11.5 2.4-13.2-1.2-1.2-1.6-1-1.6.7 0 2.8-1.1 2.9-4.2.1a18 18 0 0 0-8.1-2.8c-3.2-.4-6.5-1.3-7.3-2-1-.8-3.2-1-5.1-.5-5.7 1.4-10-.4-11-4.8a8.6 8.6 0 0 0-3.1-5.2c-3.1-1.6-3.4-8.2-.6-10.6 1.8-1.4 1.9-1 1.2 2.4-.6 3.1-.1 4.4 1.9 5.8 1.5 1 3 3.4 3.2 5.2.3 2.6 1.3 3.4 4.8 3.7 3 .3 4.5-.3 5-1.6 1.3-3.2 4.5-2.5 6 1.2 1 2.8 2 3.3 6.6 3.3 3 0 6.8.7 8.3 1.5 3.7 2 5-.3 5-9 0-5.4-.8-7.8-4-12.3-3.7-5.1-4-6.3-3.2-12.2Zm361.6 1.4c5.8 0-18.6 24.6-36.2 36.5-12.3 8.3-7.9 1 5.8-9.9 5.5-4.2 14.2-12 19.4-17.2a47 47 0 0 1 11-9.4ZM588.4 581a5 5 0 0 1 3.5.5c1.7 1.4-.3 3.8-3.4 3.8-3.2 0-3.3-3.6-.1-4.4Z" />
    <path fill="oklch(10% 0.07 257)"
        d="M1123.9 582.8c1.4-.1 2.2.3 1.7.7-.4.4-1.6.5-2.5.1-1.1-.4-.7-.8.8-.8ZM596 564.3c7.9-2.7 8.1-1 .7 4-2.6 1.7-4.8 4.5-5.1 6.1-.7 4.7-3 3.5-3-1.6 0-5 1.4-6.4 7.4-8.5Zm-117.2-14.8c3.6-2.8 11.7-3.9 13-1.6.5.6-1.5 1.4-4.6 1.8-6.5.8-9.2 3-9.2 7.1 0 2.4-.8 3.2-3 3.2-1.7 0-4 .7-5 1.3-1.6 1.1-1.7 1.8-.3 4 2.3 3.8 2 4.3-1.2 2.7-4-2.3-2.8-7 2.6-9.2 2.4-1.2 4.2-3 4.2-4.3 0-1.3 1.6-3.6 3.5-5Zm27.2-17.9c5.3-1.9 13-.8 18 2.5l5 3.5 5.1-2.8c6.6-3.7 13.4-3.6 18.2.3 2.9 2.5 4.9 3 9.3 2.5 4.3-.4 6.1.1 8.3 2.3 1.6 1.6 2.8 4 2.8 5.3 0 1.6 1.4 3.3 3.7 4.4 5.6 2.7 5.6 8.3 0 11.7a19.3 19.3 0 0 1-8.4 2.7c-3.9 0-3.7-.1 2.4-3.6 7.2-4 7.9-6.7 2.3-8.8-2.6-1-3.8-2.3-3.6-4 .1-1.5-1.4-3.7-3.4-5.2-3-2.4-4.1-2.5-7.8-1.2-4.2 1.5-4.7 1.3-7.6-2.5-3.8-4.8-8.3-5.2-14.7-1.4-5.5 3.4-9 3.4-13.6 0-6-4.2-16.3-3.7-21.6 1.1-1.3 1-2.4 1.5-2.4.7 0-1.6 5.2-6.4 8-7.5Zm121.9-8.3c2.9-2.1 7.7-2.6 9.3-1 .4.5-1 1.6-3.5 2.2-3 1.1-5.2 3-6.9 6.6-1.7 3.6-3 4.9-4.5 4.2-3.4-1.3-10.4 1.9-12.2 5.5-2.1 4.8-1.8 12.1.7 15.9 1.7 2.6 1.9 3.7.5 5.3-1.7 2-5.6 2.7-7 1-.6-.3 0-1.4 1-2.2 1.6-1.2 1.8-2.4.6-6.3-3.4-10.5 2.4-21.2 11.2-21.2 3.8 0 4.9-.6 6.2-4 1-2.2 3-4.9 4.6-6Zm490.1-31.7a23 23 0 0 1 15.9 1.6c3.3 1.7 5.6 2.1 6.9 1.3 5.9-3.7 16.3 1.9 16.5 8.8.2 3.2 1 3.8 4.7 4.3 10.4 1 11 7.9 1.3 17-6.2 5.8-9.3 7.4-9.3 4.9 0-.7 2.8-4 6.4-7.4 5.3-5 6-6.4 4.8-8.4-1-1.4-3.2-2.4-5.3-2.4-5.5 0-7.4-1.6-6.4-5.4a6 6 0 0 0-1.5-5.9c-2.8-3-5.7-3.3-10.7-1-2.8 1.3-4.2 1-8.5-1.4-6-3.5-9.6-3.6-14.5-1a14.8 14.8 0 0 0-8.8 11.7c-1 5-1.6 5.4-9.5 6.6-1.6.3-2.8 1.6-3 3.5-.3 1.7-3.7 5.3-8.5 9-8 6.2-9.6 9.5-5.8 12.6 2.8 2.3 2.5 4-.6 4-4.4 0-4.4 4-.1 10.4 4.4 6.7 4.5 9 .5 9-1.8 0-2.4-.9-2.2-3 .2-1.7-1.1-5.2-3-7.9-3.8-5.7-3.8-4.2-.2-15.2 2.4-7 3.8-9.3 8.5-12.6 3-2.2 6-5.4 6.5-7.1 1.1-4 5.6-7 10.6-7 2.8 0 3.4-.3 2.1-1.1-1.5-1-1-2.3 2.3-7 4.2-6.2 7.7-9.7 10.9-10.9Zm295 13.2c12.6-13.7 15.7-13 3.8.8a110.2 110.2 0 0 0-21.5 36.7 26.7 26.7 0 0 1-4 8.4c-.5 0-.4-3.2.2-7.1a87.6 87.6 0 0 1 21.4-38.8ZM495.6 543c1.7-1.8 3.7-2.2 3.7-.9 0 1.8-2.8 5.9-4 5.9-1.8 0-1.6-3.2.3-5Zm761.4-59c2 0 1 4-2.9 12.5-3.8 8.7-7.2 21.1-8.8 33.8-.5 3.8-1.6 7.4-2.2 7.8-1.1.7-1.2-2.8-.7-10.9.7-12 6-30.4 11-39.2 1.4-2.1 3-4 3.5-4Zm-600.7 42.1c1.6-1.4 3.7 0 3.7 2.7 0 1.3-1 2.7-2.3 3-2.4.3-3.4-3.7-1.4-5.7Zm745.8-56.1c2.8 1.9-4.9 13.2-16.2 24.1-22.2 21-54.3 35.4-74.3 33.4-15-1.6-27.2-10.4-30.7-22-2-6.4-2-17.9-.1-24.6 2.4-8.5 3.6-5.4 3.3 8.8-.1 13.8-.1 13.9 4.6 20.7 6 8.8 13.8 12.5 26.6 12.5 23.9.2 62-21.3 79.2-44.6 3.5-5 7-8.6 7.6-8.3ZM642 521.3c2.8-1.7 5.9-1.6 7.7.3 2.8 2.8 1.8 3.9-3.3 3-6.1-1.1-7-1.7-4.4-3.3Zm240.7-318.6c1-1.9 1.6-1.8 12.1 1.8 17.6 6 41.2 19.9 44.7 26.4 1.2 2.3.6 2.2-4.4-1.2-12.3-8.4-20-12.1-50.2-24.5-1.7-.7-2.6-1.9-2.2-2.5ZM429 98.7c.6 0-3.7 4.1-9.3 9a254.7 254.7 0 0 0-54 69c-3.4 6.5-6.4 11-6.4 10 0-3.8 15.8-33.5 23.4-43.9 9.2-12.8 29-33.2 38.2-39.5a50 50 0 0 1 8-4.6Zm55.5-14.2c7.8-3.2 11.8-4 8.2-1.7L480 90.1a190 190 0 0 0-44.8 35.6c-13.6 15.4-14 15.6-10.4 9.2 9.2-16.9 38.7-41.7 59.7-50.4Z" />
    <path fill="oklch(10% 0.07 257)" fill-rule="evenodd"
        d="M614.1 94c5.8-2.4 7.2-2.4 9.1-.1 1.3 1.4.7 2.9-2.8 6.9-11.7 13.3-37.9 22.7-30 10.7A92.9 92.9 0 0 1 614.1 94Zm3.9 4.5c0-2.8-5.5-.9-11.6 3.9-11.5 9.2-12.4 12.4-1.9 7 6-3 13.5-9.1 13.5-10.9Zm-82.8-67.8c1.2 0 14.3 19.3 18 26.4 2 4 2 4.5 0 7.6-3 4.5-1.7 8 6.4 17.6 12.8 15 15.7 19.3 15.7 22.6 0 2-.6 3.1-1.6 2.8-1.8-.6-30.9-35.8-39.3-47.6-4.4-6.1-5-8.1-5-14 0-3.7 1.1-8.8 2.3-11.2 1.4-2.2 2.8-4.2 3.5-4.2Zm8 18.2c-5.7-8.1-5.9-8.2-7.2-6.1-1.7 2.7.7 9.9 4.8 15 8.8 10.6 11 2.9 2.4-8.9Z"
        clip-rule="evenodd" />
    <path fill="oklch(10% 0.07 257)"
        d="M572 90.5c.5-.6 1.9-1.2 3-.9 2.7.5 3.1 6.5.7 7.3-1.8.7-4.8-4.4-3.7-6.4Zm-4-11.8c2.7 0 2.3 6.8-.3 7.7-2.1.7-3.6-3-2.5-5.7.4-1.1 1.7-2 2.8-2Zm-10.4-11.2c1.6-1.6 3.7 0 5 3.6 1.4 4.1-.5 7-3.8 5.8-2.1-.8-3-7.6-1.2-9.4ZM585 10.7c2.2 0 8.6 10.4 15.7 25.6 10.9 23.6 11.4 30.5.5 8.9-3.2-6.7-8.7-16.8-11.9-22.8-3.3-5.9-6-11-6-11.2 0-.3.8-.5 1.8-.5Z" />
    <path fill="oklch(10% 0.07 257)" fill-rule="evenodd"
        d="M602.8 15c2.7-4 9.6-4 13.6-.3 7 6.6 10.1 19.7 6.5 28.4-4.1 9.8-9.7 7.6-17.3-7.2-5.3-10.7-6.1-16.3-2.8-21Zm12.1 4c-3-3.3-6.2-3.8-8.6-1.4-2.4 2.4-1.9 6.3 1.8 14.4 4.4 9.5 7.1 12.5 9.4 10.5 4.6-3.8 3.2-17.2-2.6-23.6Z"
        clip-rule="evenodd" />
    <path fill="oklch(10% 0.07 257)" fill-rule="evenodd"
        d="M565 1.3c7.7-1.6 17.7-.4 24 2.8l5.3 2.8L602 4c7.6-3 8.2-3 13.6-.8 18.7 7 25.1 32.5 12.8 51.6a28 28 0 0 0-3.8 7.9c0 1 2.4 5.8 5.3 10.8 9.7 16.4 6.4 27.6-12.8 42.1-16.3 12.5-33.3 17-42.7 11.2a108 108 0 0 1-15.3-17c-6-8-16.4-20.9-22.8-28.9-15.9-19.2-17.7-22.5-17.6-31.6 0-5.7 1-9 4.5-15.7A73 73 0 0 1 565 1.3ZM628 90c-2.4-6.3-21.2 2.1-34.4 15.3-8.1 8.2-9.2 9.8-8.8 13.6.4 4 .8 4.4 4.4 4.2 2.3-.2 8.8-2.7 14.8-5.6 15.6-7.8 26.8-20.6 24-27.5ZM584.5 8c-12.6-5.7-26.2-1.9-44.1 12.4-12 9.6-19.3 26.5-15.5 35.6 2.3 5.3 51.1 66.7 53.1 66.7.8 0 1.3-1.9 1.3-4 0-8.8 6.8-17.4 21-26.4 7-4.6 19.8-9.6 24.1-9.6 4.3 0 4.1-1.2-.5-9a35.5 35.5 0 0 1-4.6-9.4c0-1 2.4-6.7 5.4-12.6 6.6-13.4 7-21 1.8-31.4-5.2-10.6-16-15.5-24.2-11.1-4.2 2.3-11.4 1.7-17.8-1.2Z"
        clip-rule="evenodd" />
    <path fill="oklch(10% 0.07 257)"
        d="M465.9 80.1c1.6 0 1.3.6-1.2 2.3l-14.4 10.5c-6.2 4.7-11.6 8.4-12 8.4-1.9 0 10.4-11.3 17.6-16.1a29 29 0 0 1 10-5Z" />
</svg>