<svg xmlns="http://www.w3.org/2000/svg" fill="none" viewBox="0 0 1850 1011">
    <path fill="oklch(0.9 0.2 100)"
        d="M660.2 679.2c26.3-2.4 37.8 11.6 40.3 19 0 26-15.6 39.3-23.4 42.7-12.5 1.5-39.1 1.1-46-13-8.6-17.9-3.9-45.8 29-48.7ZM1040.7 798l-6 27 6-17 15.5-5.9h21l27.5 12.8 36.5 32.5L1193 873h7.7l-7.7-42-6-28.9 6-75.8 7.7-46.2-20-14.6-39.4-11.4-36.5 8.7-22.4 19.6v34.7l8.7 9.2 13.7 67.1-43.9-7.7-20.1 12.3ZM1282 637.6l-16 2.8 20.5 31.5V733l20.6-6.4 8.2-10.5 7.8-5 12.8-3.7 15.5 37.5 15.6 18.7 18.7 5 17.4-12.3 9.1-29.7-6.4-26.5-20.1-33.3-9.6-29.3-9.1-14.1-15.6-11-15.5 3.6-35.2 15.6-18.7 6Z" />
    <path fill="oklch(10% 0.07 257)"
        d="M1088.8 974.9c1.2-2.2 5-1.4 13.7 2.8a113 113 0 0 1 31.2 22.4c6.3 6.8 8.4 12 4.2 10.4-1.2-.4-2.6-.8-3.2-.8-.6 0-7.8-5.4-15.9-12a216.8 216.8 0 0 0-21.2-15.5c-8.4-4.8-9.7-6-8.8-7.3Zm-35.5-2.8c0-3.4 11.6-.2 20.2 5.6 10 6.8 34.5 30.8 32.2 31.6-2.9 1-14.4-6-24.4-15-5.4-4.9-14-11.6-18.9-14.9-5-3.2-9-6.5-9-7.3Zm-647.2 8.1c-2.6-2.8 23-.3 39.4 4 24.6 6.4 37.6 12.3 35.2 16.1-1.4 2.3-5.1 1.6-23-4.1-9.3-3-24.5-7.5-33.6-10a93.8 93.8 0 0 1-18-6Zm-44.8 9.3c-2.6-1.7 19.8-.2 35 2.3 12.2 2 26.4 6.5 26.4 8.7 0 1.4 1.3 1.6-13-1.5a813 813 0 0 0-29.2-5.5 128 128 0 0 1-19.2-4Zm84-14.6c0-2.3 12.7-1.2 26.3 2.1 27 6.5 57.2 20.3 53.2 24.3-1 1-13.2-2.6-33.5-10-8-3-20-7.1-26.6-9-15.8-4.6-19.4-6.1-19.4-7.4Zm26.7-4.2c0-1.7 17.5-.6 27.6 1.8 27.3 6.4 62.1 21.3 59.6 25.3-1.5 2.4-7.2 1-21.5-4.7-13-5.2-24-8.8-56-18.1-5.3-1.5-9.7-3.5-9.7-4.3Zm906.4-51.6c.1-.1.3.4.3 1.1 0 .5-7.6 6.1-16.8 12.3-14.3 9.3-16.4 11.2-14 12.1 1.6.5 2.8 1.6 2.8 2.3 0 1.2-8 4.1-11.6 4.1-.8 0-6.4 4.1-12.4 9.3-10.4 9-14.8 11.1-16.7 7.9-.5-.8 1-3.9 3.3-6.8 3.5-4.1 3.9-5.2 1.9-4.7l-10.5 3.1a121 121 0 0 0-14 5 32.4 32.4 0 0 1-13 2.3c-5.6-.1-8.6.8-17 5.2-10 5.4-14.6 6.4-15.9 4.2-.4-.7.4-2.7 1.9-4.6 1.4-1.8 2.6-3.7 2.6-4.1 0-1-17.8 5.5-24.6 9l-5.4 2.6 6.7 3c6 2.6 6.4 2.9 3.6 3.8-1.7.5-7.2.3-12.4-.5-7.2-1.2-9.7-1.2-11.2 0-2.5 2.1-10.4.9-15.2-2.3-4.4-3-8.3-3.6-8-1.5.5 4.2-.4 5.1-4.8 5.1a9 9 0 0 1-7.6-3.3c-2.3-2.7-4.1-3.4-9.3-3.4-5.4 0-6.4-.4-6.4-2.5 0-1.5-1.2-2.8-2.8-3.2-2.8-.8-9.2 1.3-9.2 3a30 30 0 0 0 8.4 5c8.6 4.3 16.9 10.4 16.9 12.5 0 2.3-4.8 1.2-14.7-3.6-5.4-2.5-13.3-5.8-17.6-7.3-20.4-6.8-23.6-10-10-9.7 6.6.1 7.5-.3 8.8-3 .8-1.7 2.4-3.2 3.6-3.2a203 203 0 0 0 23.8-10.6c21-10.4 28.8-13.5 28.8-11.2 0 1.2-2.3 2.8-22.6 16-14.9 9.6-9.2 8.5 7.4-1.5 8-4.8 20.6-11 28.1-14 22.1-8.7 23.5-7 4.5 5.7-7.2 5-14 10-14.9 11.2-1.7 2.3-1.6 2.3 1.5.3a311 311 0 0 1 55.2-25.7c3-.8 3.6-.6 3 1-.5 1.2-.6 2.2-.4 2.2.3 0 6.3-2.8 13.5-6.2 17.3-8 40.7-16.4 40.7-14.5 0 .3-7.1 4.1-15.6 8.8-14.6 7.6-46.4 29-45.2 30.1.2.3 10-4.2 21.6-10.1 21.3-10.7 35.7-16.1 37.4-14.3.6.6-.8 2.4-2.9 4-2.3 1.8-5.5 4.6-7.3 6.2l-3.4 2.9 3.4-1.9c32.2-18.8 45.2-25 51.2-25 3.2.1.1 3.2-18.3 18.5a73.7 73.7 0 0 0-9.9 9c1.5 1.4 13.8-3.7 21-8.9a158 158 0 0 1 33.6-19.3l6.1-1.9Zm-367.7 49.6c-2.2-2.4 14.4 1.2 22 4.8 15.8 7.4 30.1 19.1 27 22.2-.9.9-14.6-6-22.2-11.2-4.2-2.7-11.6-7.2-16.8-10-5.1-2.8-9.6-5.4-10-5.8Zm-30.4 1.9c-.8-3.7 8-2.8 17.4 1.9 13.2 6.6 32.4 21.2 28 21.2-6 0-44.8-19.8-45.4-23.1Zm-27 8.4c0-.8 1.5-1 3.4-.7l7 1.5c6.2 1.3 23 8.7 23 10.1 0 2.2-8.6 0-20-5a77.9 77.9 0 0 0-11.9-4.6c-.8 0-1.5-.6-1.5-1.3ZM718 904.5c.8 0-5.9 3.7-14.7 8.2-24.1 12.6-37.4 22.2-46.2 33.2l-4.3 5.4 4.4-2.3c2.4-1.2 7.5-4.1 11.3-6.5 14.2-9.1 34.6-18.2 36.6-16.2.5.4-2.2 3.6-5.8 7l-6.6 6 5.3-3.1a80 80 0 0 0 7.3-4.5c2.7-2.2 17.1-10.3 21.8-12.3 6.8-3 3.6.7-12 14.1-8.7 7.4-18 16.4-20.8 20.2-3.1 4-6 6.6-7.6 6.6-3.5 0-3.5-4 0-8.4a15 15 0 0 0 2.6-4.2c0-.6-6.2 2.4-14 6.5a70.2 70.2 0 0 1-17.4 7.5 20 20 0 0 0-8.3 2.9l-4.7 2.8 9.6 3.5c9.5 3.3 12.2 5.4 6.6 5.4-1.8 0-10.3-1.2-19.1-2.6-19-3.1-24.5-3.2-27.7-.7-2.7 1.9-6 1.3-8.3-1.5-2.3-2.9-8-2.6-15 .7-7.5 3.5-11.7 3-10.3-1.2 1-3.5-2-3.6-6.2-.3l-2.9 2.6 3.5.9c7.2 1.7 26.2 9 26.2 10 0 1.3-12.2-.4-28.9-3.9-16.3-3.3-22-3.4-20.8-.5.7 1.9.3 2.1-3 1.3-2-.5-10.9-2.4-19.5-4.1-15.9-3.3-21.1-5-21.1-7.3 0-2 8.8-3.1 18-2 8.5.8 10.3.1 7-3.1-.7-.8-1.3-1.9-.9-2.1.3-.3 7.1-1.2 15.1-2 12.8-1.4 17-2.4 32.7-8.8 26.1-10.4 25.4-10.3 25.4-8.3 0 1-4 5-8.8 8.8a36.1 36.1 0 0 0-8.1 7.7c.4.3 6.3-2.6 13.2-6.8 14.7-8.5 34.1-18.1 37-18.1 1.1 0-.3 2.4-4 6.1-6.5 6.7-5.8 6.6 10-2.8 19.1-11.3 51-27 61.7-30.5 5.7-1.9 11-3.3 11.7-3.3Zm501.3 64a22 22 0 0 0-6 3.8c-2.5 2.2-4 4-3.3 4 .8 0 3.5-1.7 6-4 2.5-2.1 4.1-3.8 3.3-3.8Zm-660.6-.2c1.7-1.2 1.7-1.3 0-1.2-1.1 0-3.2.6-4.7 1.2l-2.7 1.2h2.7c1.5 0 3.6-.5 4.7-1.2Zm836.6-41.3c8.6-2.7 15.4-3.3 15.4-1.6 0 .7-3.2 3-7 5s-15.6 8.7-26 14.9c-17 10-25.7 13.3-25.7 9.7 0-.7 1-3.2 2.4-5.7 1.9-3.8 5-5.9 17.6-12.2 8.4-4.2 19-8.8 23.3-10.1Zm18.4 11.9c18.6-7.6 29.9-10.2 26.3-6-.8 1-4.7 2.9-8.4 4.2-3.9 1.2-14.3 6-23 10.7-16.5 8.7-24 10.7-23 6.3.5-3.1 6.1-6.2 28.1-15.2Zm-609.6-28.4c12-3.6 16.7-4.2 17.8-2.3.8 1.3.5 1.5-13.2 6.4a248.3 248.3 0 0 0-50.2 26.1c-14.5 9.8-21.2 12.4-21.2 8.6 0-4 12.4-14.8 25.4-22a246 246 0 0 1 41.4-16.8Zm21.4 10c17.6-4.7 21.7-2.7 5.4 2.6a216 216 0 0 0-43.8 20.2c-13.9 8.1-19.5 9.3-16.4 3.7 3.6-6.7 32.8-20.8 54.8-26.5Zm-48.7-23.8c10.4-5.2 20.5-7.6 20.5-4.6 0 .5-4.9 3.4-10.9 6.2-14.4 7.1-27.6 17-47.3 35.9-9 8.5-17 15.5-17.6 15.5-2.8 0-2.8-3-.2-7.2 3.8-6.2 24.6-25.9 35.5-33.6a196 196 0 0 1 20-12.2Zm80.5 31.1c16.8-5.7 26-7.2 26-4.1 0 .6-1.4 1.4-3.3 1.7-8.3.8-22.8 5-35.9 10.3-21.4 8.5-28.1 10.5-29.8 8.8-2.4-2.4.5-4.2 13.2-7.4 6.5-1.7 20-5.8 29.8-9.3Zm588.7 12.3c11.9-3.1 23.5-4.8 21.9-3.1-1.8 1.6-27.1 7.5-31 7-3.3-.2-1.3-1.1 9.1-4ZM326.7 893.5c0-2.6 6.5-.9 11.4 3 8.4 6.5 24.6 30.2 24.6 35.8 0 2.8-3.5-.9-14.2-14.8a141.5 141.5 0 0 0-15.8-17.8c-3.4-2.7-6-5.5-6-6.2ZM644 .5c4.5 0 4.4.1-4 4.6-10.3 5.5-15.6 9.4-14.5 10.6.5.4 5.8.1 12-.7 16.1-2 28.6-1.7 34 .8 4.8 2.3 9.4 6.7 5.3 5a49 49 0 0 0-19.5 3.4c0 .5 2 1.9 4.4 3 2.3 1.1 9.4 6 15.5 10.5s14.5 10.4 18.7 13c6.4 4.2 6.9 4.8 4.6 5.8-2.9 1-12-.3-18.2-2.7-5.8-2.3-6-1.7-1.4 1.9a58 58 0 0 1 15.8 24.6c.9 5.2-1.2 14.7-3.2 14.7-.6 0-1.8-2-2.6-4.5-.9-2.6-2.5-5.4-3.6-6.2-1.7-1.4-2 .2-2 12.2 0 11.8.6 15 3.5 21.8a54 54 0 0 1 4.1 18c1.4 18.7-5.2 34.3-21.3 51.5-7.6 8.3-26 21.9-29.5 21.9-1.7 0-6.9 5-6 5.7a404 404 0 0 0 41.5 12.1c15 3.6 23.5 7.1 29 12 1.7 1.5 8.2 10.6 14.3 20a851 851 0 0 0 20.8 30c19.1 25.4 19.5 26.4 13.5 34.2-3 3.8-3.2 4.9-1.7 7.6a96.2 96.2 0 0 0 23 27.3c14 11 29.4 27.2 41.8 43.6 13.8 18.4 14.2 18.7 24.2 16.8 6-1 10.3-1 16.7.1l8.7 1.6 7.3-4.8c4-2.6 11-8.2 15.7-12.5a343.2 343.2 0 0 1 61.1-47.7 74.1 74.1 0 0 0 24.5-21.1l5.2-6.4-2.4-7.9c-1.8-6-2.1-8.8-1-11a104 104 0 0 1 17.7-15c8.8-6.4 23.5-18.4 32.4-26.4 17.6-15.8 24.8-20 38.3-22.2 16.5-2.7 15.8-2.3 10.5-6.3a180 180 0 0 1-11.7-11l-7.2-7.4 4.2 8.4c3.8 7.5 3.9 8.3 1.8 8.3-6.7 0-21.2-14.8-27.5-27.9-3.9-8.4-4.1-9.6-4-24.1a88 88 0 0 1 2.3-22l2.1-6.7-2.5 3.3c-1.5 1.9-5 7.9-7.8 13.4-6.4 12.8-6.8 22.5-1.3 32.2 4 7.2 2.8 8.3-3 2.7-6-6-8.5-20.4-5.3-29 2-5.3.6-5.5-2.1-.3a63 63 0 0 0-5.9 22 41 41 0 0 0 2.7 11.3c3.3 8.8 3.3 8.8-.7 5-4.8-4.5-7.8-15.7-6.6-24.2 1.2-8.7 9.2-24 18.2-35.5 14.7-18.4 19.6-29 19.6-42.8 0-6.5.8-11.2 2.7-15.7l2.8-6.4-4.7 5.3a97 97 0 0 0-8.6 12.7l-4.2 7.3.6-8.1c.6-9.3 6-20.7 13.7-29.7 7-8.2 29.9-25 41.2-30.4a85.7 85.7 0 0 1 44-8c42.5 2.1 76.3 17.7 93.9 43.6a238 238 0 0 1 13.3 23.7c11.7 22.8 14.1 23.7 48.1 18.8 34.4-5 57-3.7 78 4.3 9.6 3.6 8 4.8-2.9 2-21.5-5.5-47.6-6-74.1-1.6-6.4 1-14.4 2.1-17.6 2.2-3.4.3-6 1-6 1.6 0 1.4 16.8.7 44.6-1.6 19.2-1.4 33.4 2.2 41.5 10.8 2.1 2.3 3.3 3.9 2.5 3.5-.6-.3-4.8-2.1-9-4.3a46.3 46.3 0 0 0-20-4.4c-15-.8-23.5 1.4-10.8 2.8 19.3 2.2 35.7 11.5 42.1 24 3 6 4.7 19.4 2.8 22.8-1.2 2-1.9 1.5-4.8-3.6-6.1-10.5-15.7-16.1-33-19.2-13.8-2.5-14.3-2.4-8.5 1.9a53.2 53.2 0 0 1 22.7 34c1 7-1.5 9.7-2.7 3-1.4-7.5-2.9-6.5-2.4 1.7.3 5.3-.1 8.4-1.4 10.2-2 2.7-2.2 2.6-3.5-1.3a43.1 43.1 0 0 0-19-22.8c-11.1-7-12-6-2.9 3.2a38.5 38.5 0 0 1 10.8 14.4c1.9 6.1 2.2 19.2.6 19.2-.7 0-2.2-2.3-3.4-5-3.6-8.2-10-13.7-23.6-20.2-6.9-3.3-13.2-6.3-14-6.5-.6-.3.6 1.3 2.8 3.7a96 96 0 0 0 15.9 11 51.5 51.5 0 0 1 12.4 8.9c1 2.9-9.3.8-19.5-3.9l-8.4-4 4.3 5.7c2.4 3.1 6.4 7.9 9 10.6l4.7 5h-5c-7.8 0-25.1-9.6-34.7-19.2-8.5-8.5-8.8-7.4-1 5.5 2.7 4.8 6.3 9 8.2 9.6 7.5 3 33.5 8.4 45.2 9.3 13.6 1.2 16.1 2.7 16.1 9.5 0 3.3.6 3.6 13.8 6.5a206 206 0 0 0 37.7 4.2 767 767 0 0 1 85.7 9.4c19.6 3 31.8 4 39.4 3.6 10.2-.5 11.4-.9 24.8-8.2A261 261 0 0 1 1546 255a669 669 0 0 0 21.2-9.3c14.7-6.7 17.3-6.7 17.9.5.4 4.7-.2 5.7-6.3 11.6l-6.8 6.5h21.9c23.4 0 24.8.4 21.7 6.7-3 5.6-8.1 8.3-19.7 9.9-12.3 1.7-12.3 2.2.1 6.9 11.6 4.4 10.5 9.9-2.3 12-4.1.7-8.4-.3-18.9-3.9a44.6 44.6 0 0 0-13.5-3.6c0 .6 2 1.8 4.4 2.7 6.4 2.7 11.6 8 11.6 12.1 0 6.2-2.5 7.1-14.8 5.1-9.4-1.5-12-1.5-21.6.5-14 3-18.6 2.8-28.9-.4-10.5-3.3-18-3.3-49 .2-29.4 3.2-46 3.6-104.5 2l-43.4-1.2-4.3 9.2c-2.4 5-5.2 10.2-6.4 11.4-2.7 3.1-12.3 3.2-26.5.4a58 58 0 0 0-10.8-1.4c-.3.2.4 4.2 1.4 8.9 1.1 4.7 4.4 21.7 7.5 37.9 3 16.1 6.5 31.7 7.9 34.6 1.4 3.5 7 9.8 14.6 16.7a110 110 0 0 1 29.2 40.4c7.8 18.4 5.4 23-14.9 29.6l-13 4.3-.3 22.5c-.3 18.5-1 24.3-3.4 32.3-6 20.5-14.9 33-30.6 43.4l-9.1 6 1.9 13.8c1 7.4 2 13.8 2.2 14 .2.1 3.5-.8 7.2-2.3a47.8 47.8 0 0 1 15.6-2.7c10.8 0 23.6-4.4 40.7-14.1 17.3-9.7 27.5-13 39-12.1 7.7.5 10 1.2 14 4.5a49 49 0 0 1 15.5 24.4c4.7 14.3 5.8 23 3 26.8-4 5.9-2.7 10.7 7.3 25.2 15 22 17 43.6 6.1 65.5-7.2 14.2-21.2 21.2-35.6 17.3-11.4-3-18.8-11.3-26-29.2-2-5-5.7-13.3-8.2-18.7-3.9-8.2-5.1-9.6-8-9.6-5.1 0-14.2 5.8-17.9 11.4-4.3 6.4-17.6 12.8-29.2 14.1-5 .5-14 3-21.3 6a51.8 51.8 0 0 1-28.7 5.2h-16l-11.5-5.5-11.4-5.4-1.5 19.4c-4.1 50.2-3.6 58 4.5 81 6.7 18.5 8.2 31 5.2 44.1-1.8 8.5-3.2 11.2-7.2 15.2-9.7 9.7-31 14.3-46.1 9.9-15-4.3-24.5-10.7-30.5-20.3-5.6-9.2-5.5-9-40.7-15.6a56.4 56.4 0 0 1-32.8-16.1 53.2 53.2 0 0 1-16.4-34.8 29 29 0 0 1 3.2-17.9c8.5-19 24.1-24.5 51-17.6l14.9 3.9v-3.5c-.2-1.9-2-12.8-4.4-24.3-4.3-20.4-4.4-20.8-9.9-26a28 28 0 0 1-7-10.5c-1.8-7-1.8-36.4 0-41.7 1.8-5.2-1.5-16.3-10.5-35a44.8 44.8 0 0 1-6.6-24.9c-.8-16.3 2.6-35.5 8-45.6l4-7.5-1.6-11.2a116 116 0 0 1-.7-25.4l1-14.3-5.7-1c-18.2-2.9-20.2-11.4-10-43.3 12-37.3 13.4-47.4 8.8-69.6-1.4-6.9-3.7-19.2-4.9-27.2-1.3-8.1-2.5-14.9-2.8-15.2-.1-.2-4.3 3.1-9 7.6a40.9 40.9 0 0 1-10.3 8.3c-1 0-5-1.7-8.7-3.9l-7-3.8-13 10.4a290.3 290.3 0 0 0-22.4 19.6c-12.7 12.4-26 20.9-56.5 36a260 260 0 0 0-28.3 15.2c-2.4 2.4-2.4 2.6.1 8.6 1.5 3.4 2.7 7.1 2.7 8.4 0 3.2-3.7 8.2-7.3 9.5-2.3.8-3.4 2.4-3.6 5.6-.3 3.2-1.5 5-4.7 7-2.7 1.8-4.3 3.8-4.4 5.7a10 10 0 0 1-2.8 5.8c-2.3 2.3-4 2.7-8.5 2.3-3.1-.4-6.8-.1-8.2.7-1.3.8-8 1.4-14.8 1.7-12.4.3-12.4.3-17.8-4.3-6.3-5.2-8.2-5.4-12.8-2-4.7 3.8-8 2-14.7-7.3-7.5-10.5-9-16.5-7.9-30.4.8-9.2.6-11.5-1.2-13.2-1-1.2-8.8-6.1-17-11-29-17.4-40.7-28-55.4-49.4a300.2 300.2 0 0 0-12.6-17.2l-4.4-5.2-6.3 1.9c-7.7 2.1-9 1.2-16.4-11.5a33.8 33.8 0 0 0-6-8.5c-1.5 0-3 32.5-2.1 46 .5 7.4.1 17.6-1.1 26.6-3 21.6-2.7 24 3.6 39.5 8.8 21.9 8.4 34.1-1.3 38.4l-4.3 2v14.4c0 13.9.1 14.8 3.7 19.3 3 3.9 3.6 6.4 3.9 13a168 168 0 0 0 5 26.1c2.5 9.9 6.7 29 9.4 42.7 2.7 13.6 5 24.8 5.2 24.9.1.1 6.4-1.5 13.9-3.6 28.4-8.3 51.3-19.6 59-29.3 2.8-3.5 5.4-5.4 7.5-5.4 5 0 5.3 3.9.5 7.6-2.2 1.8-4.1 4.4-4.1 5.8 0 1.3-.5 2.8-1.2 3.2-.7.4-5 6.6-9.7 13.8a307.3 307.3 0 0 1-43.2 52.3c-5.6 5-4.7 3.6 5.6-8.7 12.2-14.5 41.8-55.3 41.8-57.4 0-.4-1.7.5-4 2.1-9 6.4-40.8 19.2-59.8 24l-5.8 1.5.8 5.6c5.4 36.4 5.2 51.8 0 68.2a81.4 81.4 0 0 1-23.7 32.8c-8.1 6.7-10 9.1-10.7 13.1-1 7-6.1 13.6-17.7 23.5-14 12-20 13.3-33.7 8-2-.7-32.7 17.7-35.1 21.2-1.9 2.5.1 16 5 35 7.5 28.7 5.8 44.7-6 56.4-13 13.1-34.7 12.2-50.9-2.4-16.8-15-23.7-37.3-19.7-62.6 2-11.8.1-18.3-5.9-20.8-3.6-1.5-5-3.4-7.2-9.1a69.4 69.4 0 0 1-4.8-28.8c2-11.3 14.3-25.5 24.8-28.3l8.4-2.6c4-1.5 13.1-16.7 12-20-.4-1.5.4-5.2 1.9-8.6a20.9 20.9 0 0 1 15-12.1 9.4 9.4 0 0 0 5.8-4.7c1-2 7.3-9 14-15.7l12-12-24.8-50-25-49.9-14.2-.9a110 110 0 0 1-45.5-11.5l-11-5.3c-.3 0-1 4-1.4 9-1.6 16.3-3.4 22.9-7.7 27.8-3.7 4.1-4.1 5.7-5.3 19.5-.8 8.2-1.5 28.2-1.5 44.4l-.1 29.3 4.2 12.7c2.4 7 4.8 16.9 5.5 22a78.6 78.6 0 0 1-3 32.4c-5.3 10-18.3 15.6-34.7 14.6-13.2-.6-22.8-5.4-34.8-17.8-8.6-8.8-10-9.8-16-10.4-27.5-3.5-41.6-12.2-51-31.4-3-6-3.8-9.7-4.1-18.8-.7-14.6 2.8-24.8 11.2-32.9 9.5-9.2 19.3-10.8 39.5-6.8 2.2.5 1.8-2-4.3-27l-5.9-24c-.4-2.2-2.9-5-6.1-7.1-8.8-5.9-9.9-9.2-10.4-33.2-.5-23.8.1-27 7.3-32.8 4.2-3.5 4.7-4.8 5.9-13.5.8-6.4.7-13-.3-19.2-1.6-9.7-.8-28.1 1.6-37 2.6-10 27.2-36.5 38.7-41.7 8.8-4 25.6-6.4 41-5.8l11.5.4 7.6-13.4c8.4-14.6 10.8-23.3 15.6-54.8 4.2-27.3 4.8-37.7 2.4-38.6a61 61 0 0 0-15.8 4.1c-22 7.7-20.8 7.9-32.4-3.5l-10-9.6-9.6 1.8a35.4 35.4 0 0 0-18.2 7.7c-4.6 3.2-19 11-32 17-31.6 14.6-36.4 17-49.6 25.5-15.3 9.9-18.1 12.7-24 24.6-5.4 10.8-10.6 16.1-18.9 19.4-4.1 1.6-5.3 3-6.4 7.2-1.7 6.6-7.3 13.2-11.2 13.2-1.6 0-5 1.2-7.9 2.7-8.2 4.5-11.6 3.6-27-7-15.9-10.7-18.6-13.7-17.5-20 .8-5.3 12.4-26.3 17-31.4 2.6-2.5 8.2-5 19.4-8.8 24.8-8 22-6.1 68.5-48.1 44.3-40 53.9-46.2 83.8-53.4 8.4-2 9.6-2.6 9.6-5.3 0-4 1.6-5 12.8-8.5 5.2-1.5 19-7 30.6-12C466 213 473 211 491.6 211c8.8 0 21-.8 27.2-1.9 6.1-1 15.5-2.2 20.5-2.8 12.7-1.2 14-1.7 14-5.2 0-3.3-2.5-6-8.6-9.2-2.2-1-9.5-7.4-16.2-14.1a66.8 66.8 0 0 0-14.4-12.1c-1 0-2.9-1.4-4-3.1-1.7-2.7-6.1-16.4-8.1-25.5l-.8-3.8-2.4 4.5c-1.3 2.5-3.3 4.5-4.3 4.5-2.9 0-1.8-16.9 2-30a61.4 61.4 0 0 0 2.8-11.7c-.2-.3-2 1.7-4 4.3-2 2.6-4.1 4.4-4.8 4-2.1-1.2-1.2-13 1.4-18.6 1.3-2.9 6.1-9.7 10.6-15.2 4.6-5.3 8-10.5 7.8-11.3-.3-.8-3.4-1.6-6.7-1.9-6.8-.4-7-.5-5-4.1 1.8-3.5 8.7-5.9 14-5l4.5.6v-7c-.2-9 3.2-15 10.4-19 8.2-4.8 9-3.9 4.4 5-4.2 7.8-4.3 12.6-.3 7.3l3.5-4.7c4.2-5.6 24.9-19.7 40.6-27.9 4.4-2.4 3.9 1.4-1.2 7.2-2.2 2.6-3.6 4.7-2.9 4.7a310 310 0 0 1 43-12.7A283 283 0 0 1 644 .5ZM233.3 879.4c0-1.6 7.5 1.3 12.6 5 12.8 8.7 34.9 34.6 29.7 34.6-1 0-4-1.6-6.5-3.7-5-3.9-35.8-35-35.8-35.9Zm40 9.6c0-3 4.6-2.4 7.5 1 1.3 1.4 8.5 7.5 15.7 13.3 14.8 11.7 18.6 15.7 14.6 15.7-3.9 0-16.6-6.4-23.9-12.1-7-5.5-13.9-14.2-13.9-17.9Zm-92-6.3c0-3.4 1.5-3 9.6 2.6 21.9 15 36.6 28.1 34.3 30.4-1 .9-14.5-5.9-21.7-11-10.4-7.6-22.2-19.2-22.2-22Zm109.4 2.4c0-2.8 3.7-2.6 8.6.4a185 185 0 0 1 18.7 16.7c15.3 15 15.5 15.9.8 9.3-7.7-3.4-28.1-22.5-28.1-26.4Zm-84-4.9c0-4 8.2 1.5 29.2 19.2 16 13.6 18.5 18.4 7.6 13.7-10.4-4.2-36.8-28-36.8-32.9Zm186.5 12.1c.7 0 1.7 2 2.1 4.3.7 2.8 3.5 6.8 7.9 11 6.5 6 6.7 6.3 2.8 5.5-5.3-1.3-11-6.9-12-12a269 269 0 0 1-1.5-6.5c-.4-1.2-.1-2.3.7-2.3ZM164.4 905c-11.3-7.1-12.3-9.2-2.3-5.1 6.2 2.5 19.2 11.3 19.2 13 0 2-5-.5-16.9-8Zm203.9-17.4c-.7-5.7-.6-6.1 2.4-5.6 2.4.3 4 2.7 7.4 11 2.4 5.7 5.8 12 7.4 13.6 3.7 4 2.5 5.3-3 3.2-5.7-2.4-13.3-14.2-14.2-22.2ZM1496 885c6.3-7 6.3-4.5.2 5-3 4.6-6.4 10.6-7.8 13.3-1.3 2.8-2.9 5-3.6 5-2.8 0 5.1-16.2 11.2-23.3Zm65.1-31.3c2.3 0-.5 2.8-32.4 32.2-17.5 16.4-23.5 20-23.5 14.7 0-3.6 26.4-28.3 41-38.1a82 82 0 0 1 14.9-8.8Zm15.5 6.5c10-6.1 15.3-8 15.3-5.3 0 .6-6.8 6.5-15 13a453.4 453.4 0 0 0-26.5 22.8c-11 10.4-15.8 13.2-15.8 9.1 0-6 23.6-28.1 42-39.6ZM577 886.6c-1.5-2.8-3.2-2.8-8.4 0a44.5 44.5 0 0 1-15 2.8c-12.1.7-13.6 2-7.7 6.8a29.2 29.2 0 0 0 20.7 4.1c7.7-2.2 12.9-8.9 10.4-13.7ZM1599.7 869c13.1-4.8 11.8-1-2.8 7.5a971 971 0 0 0-21 12.6c-11.8 7.4-15.9 8.7-15.9 5.4 0-4.6 23.3-19.5 39.7-25.5Zm28.7 2.5c9.7-3.2 21.5-4.1 24.8-2 3 2 .5 3.8-8 5.4a166.1 166.1 0 0 0-36.7 12.9c-5.3 3-12.5 4.3-12.5 2.1 0-3.3 18.8-14 32.4-18.4ZM1064 803c-11 .1-25.3 6.7-25.3 11.6 0 1.2 1.7.7 5.4-1.9 7.8-5 22.6-5.8 36.2-1.7 17.4 5.2 28.5 12 45.6 28 9 8.5 19.4 17 25.2 20.1a95 95 0 0 1 14.9 10.6c5.9 5.3 23.3 16 26.4 16 3.3 0 3.6-6.3.4-9.2-1.6-1.5-14-8-27.9-14.8l-24.9-12.2-15.6-15.2c-17-16.5-30.8-25.2-46.4-29.3-4.4-1-10.7-2-14-2Zm95.7 69.7c4.7-3.8 1.4-3.6-6.6.6a149 149 0 0 1-15.4 6.4c-4.9 1.7-9.2 3.8-9.6 4.8-.5 1.8 2 1.2 17-4.6 6-2.2 12.6-5.6 14.6-7.2ZM569.3 825c-1.8-1.2-4 3-5.4 10.5-1.1 6-1 9.2.6 15.5 2.4 9.3 6.2 17 9.9 20.4 2.3 2.1 2.7 2.1 4.3.3 1.4-1.8 1-4.7-2.4-17.1-2.3-8.3-4.6-18.1-5.1-22-.5-3.9-1.3-7.3-1.9-7.6Zm581.5-122.5a54 54 0 0 0-50.7 11.2c-5.4 5.6-6.2 9.3-4.2 21.2a540 540 0 0 0 12.4 51.2c1.3 3.4 1.7 3.6 7.2 2.8a35 35 0 0 1 25.6 6c7.7 5 16.1 14.1 14.5 15.7-.5.4-4-1.6-7.9-4.5-3.8-3-8.4-6-9.8-6.8-4.8-2.6-15-4.3-17.9-3.2-2.8 1-2.8 1 .5 2.9 1.9 1 3.5 2.5 3.5 3.5 0 2.5-7.9.9-27.2-5.8-19.2-6.6-33-8.5-41.3-5.7-4.8 1.5-15.2 10.1-13.9 11.3.4.4 3-.2 5.9-1.6 3.6-1.4 8.8-2.2 17.2-2.1 22.5 0 39.2 8.5 64.2 32.8 15.5 15 17.1 16 32 23a641 641 0 0 1 24.6 12c4.9 2.6 9.2 4.6 9.7 4.6 1.6 0 .8-12.8-1.2-20.5-3.2-12.3-7.3-20.7-11-22.6-4.2-2-9.3-8.5-7.8-9.8.5-.7 3 1.2 5.2 4a37 37 0 0 0 5 4.9c.6 0 .3-3.2-.5-7-1.2-6.6-.6-37.7 1.2-78.7l1-17.1-5.9-5.3a89.4 89.4 0 0 0-30.4-16.4ZM1378 801c17.9-3.3 36.4-4.5 32.7-2.1-1.1.7-4 1.3-6.3 1.3-2.4 0-15.3 2.4-28.7 5.4-24.1 5.2-34.9 6.6-32.2 4 1.6-1.6 13.3-4.6 34.5-8.6Zm-53.3-1.3c17.6-2.1 35.8-2.7 34.8-1-.4.7-5.2 1.7-10.4 2.2-5.4.4-17.8 2.3-27.6 4.1-9.9 1.8-21.2 3.2-25.4 3.2-6.6-.1-7.2-.2-5-1.8 2.8-2.2 14.1-4.4 33.6-6.7Zm182 1.9c10.4-1.5 13.6-1.5 12.8-.2-1.9 3-30.8 6.3-38.8 4.4-5.1-1-4.7-1.2 6.6-2.1l19.4-2.1Zm-72.7-4c8.3-1.4 32.4-1.5 41.3-.2 5.2.7 2.3 1.1-13.3 1.8-12.8.5-26.7 2-38.5 4.2-18.3 3.5-22.4 3.6-17.9.3 2.1-1.6 6.8-2.5 28.4-6.1Zm-1126 0c10.5-1.5 19.7-1.5 20.5-.2 1 1.4-4.2 2.8-12.9 3.5-3 .3-11.3 1-18.3 1.9a208 208 0 0 1-44.6.1c-6.2-1-5.6-1 5.2-1.2 11.8-.1 36.4-2.1 50.1-4.1Zm-24-235.4c2.1-5.7 5.3-3.4 11.7 8.7 8 15.2 18 29.5 24.7 35.5 3 2.6 12.1 8.9 20.1 13.7 14 8.5 19.8 13.7 17.1 15.3-.7.4-6.1-2.2-12.3-6-6-3.6-11.2-6.4-11.4-6.1-.3.3 2.5 4.5 6.2 9.5 3.8 4.9 6.4 9.3 5.9 9.8-1.5 1.5-23.2-21.8-34.7-37.3-5.8-8-13-18.7-16.1-24-3-5.3-6.1-9.9-7-10.1a54 54 0 0 0-11 12.6c-10.8 14.6-65 69.8-87.2 88.6-41.3 35-72.7 55.7-72.7 47.8 0-.5 4.7-3.7 10.4-7 32-18.6 79-58.2 113.9-96.2 17.2-18.6 25.6-28.8 22.4-26.8l-8.7 5.4a398 398 0 0 1-114.6 47.8l-17.4 4.4-4 6.3a344.2 344.2 0 0 1-55.2 69.7l-16.6 16.4h8.1c4.4 0 16.7-.9 27.2-2 12.7-1.3 32.5-2.1 57.9-2.1 21.3 0 40.9-.4 43.7-.8 4.3-.5 6.3-2 12.4-9.5 29-34.8 52.8-72.4 74.1-116.6 5.2-10.8 10-19.6 10.6-19.6 1.6 0-5.9 20.8-12.3 34a568.3 568.3 0 0 1-70 107.6l-8.5 10.2 1.3 13.1c.8 7.2 2.3 16.7 3.3 21 2.6 10.3 2.7 9.7-2 12-3.7 2-7.7 2-37 .6l-33-1.6-16.5 8.3c-17.2 8.5-22 9.8-21.2 5.8.3-1.3 4.8-4.4 11-7.4 11.5-5.6 12.2-6 11.3-7-.8-.6-21.2-4.2-34.4-5.8-6.3-.8-10.7-2.2-12-3.5-2-2.1-1.4-2.3 9.8-1.5a281 281 0 0 1 39 5c5.2 1.6 5.7 1.3 22.1-10.6 26.8-19.6 36.8-27.3 36.1-28.4-1.4-2.4-83-.1-104.9 3-8 1.2-10.3 2-9.7 3.3 1.6 4.3 2.4 19 1 19.7-.8.4-1.7.3-2.2-.4-1.1-1.8-4.2-.5-12.6 5.4-7.6 5.4-15.3 7.8-17.7 5.4-1-1 .1-2.2 4.4-4 3.2-1.4 7.3-4.2 9.2-6.2 1.9-2 5.6-5.1 8.4-6.8 2.7-1.8 5-4.3 5-5.6 0-4.2-3.4-8.8-6.6-9.6-1.9-.4-3.5-1.5-3.7-2.3-.4-1 6.4-8.4 14.9-16.7a390 390 0 0 0 58.5-71.3c2.8-4.5 6.2-9 7.4-10.1a69 69 0 0 1 15.4-5.6c38.4-10.3 64-19.9 92.6-34.8 30.4-15.9 52.2-32.4 56.1-42.6ZM423.3 795c14-1.6 16-1.6 14.7-.2-2.4 2.4-25.6 4.5-45.7 4.2-15.6-.2-9.9-2.5 6.8-2.8a354 354 0 0 0 24.2-1.2Zm853.4 1.2c6.1-1.6 15-1.6 12.6 0a26 26 0 0 1-9.3 1.2c-6.1-.1-6.7-.4-3.3-1.2Zm36.4-2.5c8.1.1 7.3.8-2 1.5-3.2.2-5.8 0-5.8-.6s3.5-.9 7.8-.9Zm-859-1.5c2.8 0 4.4.6 3.9 1.4-.4.6-2.5 1.3-4.8 1.3-2.1 0-3.9-.7-3.9-1.3 0-.8 2.2-1.4 4.8-1.4Zm-140.1-4c11.6-1 82.8-1.7 81.9-.6-.4.2-13 .9-27.9 1.4a486 486 0 0 0-40.7 2.8c-21.8 3.1-24.5 3.4-28 2.6-1.8-.6-3.3-1.4-3.3-2 0-1.8 5.7-3 18-4.2ZM586.5 713c-3-8.3-5.2-9-11-4.5A19.6 19.6 0 0 0 568 723c0 15.2 26.4 53 45.9 65.6 10.9 7 15.4 7 25.7-.8 8-6.1 20.4-18.1 18.5-18.1-.5 0-4 .9-7.6 2.1-5.6 1.9-7.6 2-12.1.5-19.2-5.7-41.2-30.8-51.9-59.3Zm-387 57.6c1.4-1.5 3 .3 5.7 6.4 2.4 5.5 3 6 7.3 6 4.4 0 7.4 1.9 5.6 3.7-1.7 1.6-13.4-2.5-16.4-5.8-2.9-3.2-4-8.4-2.2-10.3Zm515.8 5.9c6.2-1.4 24.2-1 27.9.5 2.4 1 2.4 1 0 3-2.3 1.7 0 1.8 17.5 1.1l44.6-1.3 24.7-.5-20 1c-11 .7-27.6 2-37 3.2-19.1 2.4-31.1 2.7-39.4.7-4.4-1-9.5-.7-19.7.8-14.2 2.1-16.3 2-27.5-1.6-7.9-2.4-8.5-5-1-3.9 2.9.4 7.8 1.2 10.7 1.8 4 .5 6.8.1 9.8-1.4 2.2-1.2 6.5-2.8 9.4-3.4Zm-487-1.1c7.4-7.6 10-7.9 5.4-.7-3.4 5.6-7.3 9.6-9.3 9.6-3.2 0-1.9-3.2 3.9-8.9Zm-46-32.4c-4 .1-20.4 10.4-29.2 18.5a563.4 563.4 0 0 1-16.3 14.2l-6.5 5.3 7.8.8c19.9 2.1 49.5 3 50.4 1.3a162 162 0 0 0-3.4-35.2c-.7-2.6-1.9-4.9-2.8-4.9Zm77.2-8.7c3.7-12.8 3.7-4.9-.2 11.1-4.8 20-12.6 36.3-17.4 36.3-1.2 0 0-3.5 3.4-10.4 5.4-10.4 9.9-22.4 14.2-37Zm25.3-123.2c1.9-11.6 3 1.5 3.6 41.9A610.5 610.5 0 0 0 300 773c.7 3 .8 5.7.3 6.3-1.1.9-22 1.8-36.7 1.3l-10.4-.3 2.8-3.8c12.5-17.8 22-67.2 26.7-138.2a599 599 0 0 1 2.1-27.2Zm8.1 20.6c.7-5.5 1.1-6.7 1.4-4a772 772 0 0 0 14.5 75.7c7.7 28 22.1 56.1 34.4 67.5 5.6 5.2 4.5 6.8-4.1 6.8-4.3 0-14.2.4-22 .9-13.8.7-16.3.1-13.2-3 .8-.7.5-5-.7-11.3-5-25.2-7.5-48.9-9.3-85.3a497 497 0 0 1-1-47.3Zm49.5 126c1.2 0 19 17.8 19 19 0 1.6-7.1-.5-10-2.9a54.3 54.3 0 0 1-10-15c0-.6.3-1.1 1-1.1ZM1.7 765.3c2.7-1.2 7.9-.8 15 .9 7.3 1.9 7.6 1.6-7 4.8-3.8 1-7.6 1.2-8.4.7-1.8-1.2-1.7-5.6.4-6.4Zm780.6-145.8c1.7-4.6 5.8-1.4 14.9 11.4a510 510 0 0 0 65 74.1c6 5.2 16.2 13 22.7 17.3a222 222 0 0 1 25.9 21.6c14.3 13.8 19.3 17 33.5 21.2a20 20 0 0 1 7.2 3.4c2.4 4-5.9 4-17-.2-6.8-2.6-10.8-5.4-22.1-16.2a82.3 82.3 0 0 0-16-13.1c-1.7 0-2 1-1.3 6 .5 3.3 2.1 9 3.7 12.7 2.5 5.8 3.6 6.8 8.3 8.1 10.5 2.8 1.8 3.9-32.7 3.9h-34.3l-4.8-4.3c-4.5-3.9-10-12.5-10-15.6 0-.8 3.9 2.7 8.6 7.5l8.6 8.8 9.1-.3c5-.1 11.6-.5 14.7-1l5.7-.7-2.7-3.5c-3.8-4.8-2.5-5 4.8-.4a26 26 0 0 0 8.8 4.1c2.3 0 2.2-.4-.8-4.4-6-7.8-3.8-8.6 3.6-1.4 2.8 2.6 5.4 4.5 5.8 4.1 1.3-1.3-5.1-31-7.2-33.5a99.5 99.5 0 0 0-9.6-7.4c-19.4-13.4-55.6-51.9-80.3-85.4-4.1-5.4-8.7-11-10.1-12.4-1.5-1.4-2.4-3.3-2-4.4Zm-48 124.8c.9 0-5.5 11.5-9.8 17.6-4 5.5-11.7 10.3-13.6 8.6-.2-.4 3-4 7.4-8a105.1 105.1 0 0 0 16-18.2ZM778.9 639c.7 0 1.1 7 1.1 15.6.1 21.5 1 45.3 3.5 77.7 2.1 29.5 2.5 32 5 32 1.2 0 1.4-2.8.6-11.7-.6-6.4-1.6-26.7-2.4-45-2-52.3-1.9-53.8 5.2-30.3 15.3 51.2 25.4 73.6 40.1 88.2 3.5 3.4 3.7 4.2 1.7 4.2l-46.4.1h-47c-3-.1-2.8-.5 2.4-6.5a89 89 0 0 0 17-33.1c6.8-20.3 13.6-50.7 13.6-60.4A138.4 138.4 0 0 1 779 639Zm579-19.2a24.3 24.3 0 0 0-25.9 1.9c-4.5 3.2-20.5 11-28.3 14-3.6 1.3-6.4 2.9-6.4 3.6 0 .6 2 3.8 4.6 6.9a90.3 90.3 0 0 1 14 26.8c.9 3 2 12 2.4 20.3l.8 14.9 4.8-2.4a82 82 0 0 1 10.1-4.1c3-1 10-4 15.7-6.8 5.6-3 10.3-4.6 10.3-3.8 0 1.9-11.5 13.5-15 15.5-2.5 1.2-2.5 1.6.7 7.9a119 119 0 0 1 6.4 16.5c5.1 17 8.4 23.5 14.3 27.3 13.9 9.2 30.5 3.5 37.6-12.9 7-16 4.5-31.3-7.9-51.7-11.4-18.7-13.2-22.7-17.4-39.4-5.5-21.7-9.9-28.9-20.8-34.5ZM768.8 673c2-6.5 2.5-7.3 3-4.4.5 3.9-7.1 33.9-12.7 50.4-5.2 15.6-21.9 45.7-24 43.6-.3-.3 2.2-5.3 5.6-11.2 9-16.1 13.8-29.5 28.1-78.4ZM20 760.3c6.4-2 18.7-1 18.7 1.6 0 1.1-6.2 1.1-20-.4-1.1 0-.6-.6 1.3-1.2Zm1533.3-7.8c8.8-1.6 9.6-1.6 9.1.1-.8 2.4-16.8 5.2-24.7 4.4-9.7-1.2-8.9-3.3 1.4-3.5 4.5 0 10.9-.5 14.2-1Zm-930-7.6c-5.6-2.2.8 3.3 7.9 6.8 6.5 3.2 7.5 3.3 14.3 1.8 7.6-1.6 24.4-7.8 23.4-8.6-.2-.4-6.5.4-13.7 1.6a54 54 0 0 1-31.9-1.6ZM344.8 675c-6.4.1-17 4.4-19.2 7.6l-1.9 3 5.1-2a56.3 56.3 0 0 1 27.3-1.8c16 3.6 35.2 18 46.2 34.3a60.8 60.8 0 0 0 26.4 24.5c5.8 3 12.5 7 14.9 8.7l4.4 3.3v-3.2c0-4.4-5.3-9.2-16.7-14.8-9.8-5-14.1-9-26.8-24.8a91.7 91.7 0 0 0-19.3-20.5 67.8 67.8 0 0 0-28.5-12.8c-4.3-.8-9.6-1.5-11.9-1.5Zm1174 73.3c10.5 0 17.2.6 17.2 1.4 0 .8-7 1.3-18.1 1.3-11.6 0-17.8-.5-17.2-1.3.5-.8 8-1.4 18.1-1.4Zm31.2-7.2c1.5-.2 11-.2 21.3.3 10.3.4 29.2.8 42 .7 15.9-.2 21.5.1 17.4.9a178 178 0 0 1-44.7 3c-15.7-.6-19-.3-20.4 1.3-1.5 1.7-2.8 1.8-10.4.4-4.8-1-9.3-2.3-10.1-3.1-1.6-1.6-1-2 4.9-3.5Zm-82.7 5.9c1-1.6 7-1.6 10.7 0 2 .8.8 1.2-4.4 1.2-4.4.1-6.8-.4-6.3-1.2ZM452.4 681.7c.3 0 4.3 4.8 8.8 10.8 9.2 11.7 23 23.4 37.9 32 17 10 19.6 11.7 19.6 14.5 0 2-1 2.7-3.5 2.7-1.9 0-11.9.6-22.3 1.3-20.4 1.5-30.9.5-30.9-2.7 0-1.6 2.5-2 13.3-2.1 30.2-.4 34.7-.7 32.7-2l-14.5-9c-19.2-11.5-41.5-34.9-41.5-43.1 0-1.4.3-2.4.4-2.4Zm519 29.4c-1.7-7.4 2-4.4 7.1 5.8 4.7 9.3 4.7 11.8 0 8.9-2.4-1.5-3-1.3-4.8 1-1 1.7-2.9 2.9-4.1 2.9-1.6 0-1.2 1 2 4.1 5 5.2 7.9 4.5 10.7-2.8 1.7-4.4 3-5.6 7-6.7 2.8-.8 6.6-2.5 8.4-4 4.3-3.3 5-3.3 5 0 0 3.9 3.7 4.8 8.4 2.2 4.6-2.7 5.7-2.2 3.6 1.7-1 1.7-3.4 3-6.7 3.6-3 .5-5.3 1.3-5.3 1.9 0 1.2 6.8 2.6 12.4 2.6 3.8 0 4 .2 1.4 2-2.2 1.8-.1 2 19.5 2.2 12.1 0 23.5.5 25.2 1 4.3 1.2-61.7 6-75 5.4-6-.3-17.4-.3-25.5 0-17.2.4-39.4-1-39.4-2.6 0-.5 5.9-1.4 13-2 11.3-.8 13.4-1.3 16-4.1 2.1-2.3 4.4-3.2 8-3.2 7.4 0 3.3-3.2-4.3-3.3-4.3 0-6.8-1-9-3-3.3-3.4-2.2-5.7 1.7-3.3 2.9 1.7 6.6 2.1 6.6.5a15 15 0 0 0-2.6-4.2c-5.9-7.5-.4-7.4 6.5.1 4.1 4.5 6 5.6 10.3 5.7 4.9.2 5.2 0 5-3.8 0-2.3-.5-6-1-8.6Zm675.3 29.2c4.6 0 8.1.4 7.7.8-1 1-14.4 1-15.3 0-.6-.4 2.9-.8 7.6-.8Zm-1097.4-8.9c0-3.7-3.3-4.1-5.3-.5-1.7 3.4-1.7 6.4.3 7.6 1.8 1.2 5-3.1 5-7.1Zm44.3-226.5c-5.3-2.3-6.8-2.4-7.6-.3l-4 12.7c-3.7 11.7-7.5 17.7-11.2 17.7-3 0-5.5 2.7-5.5 6.1 0 3.6 17 19.2 54.4 50.4 26 21.6 33.1 28.7 19.4 19.4-24-16.4-61.2-46.7-71.6-58.4-3.2-3.6-4.6-3.5-9.4.6l-3.7 3.4 3 3.4c1.8 1.9 16.3 13.8 32.2 26.6 36.3 29.2 39.3 32.6 12.4 14.8-6.5-4.4-20-13.8-29.7-20.7a162 162 0 0 0-18.3-12c-.3.3 8.3 13.7 19 29.7a5061 5061 0 0 1 64.2 97.8c3 5.8-1.2 2.8-9.2-6.6a966.2 966.2 0 0 1-61.9-82.8 97.1 97.1 0 0 0-8.4-11.3c-.5.7 28.2 65.3 35.6 80.3 11.8 23.4 17.8 29.6 39.9 40.8 8.5 4.4 10.7 5.8 8.5 6.2-5.3.8-19.4-3.7-30.8-9.8-7.4-4.2-11.6-5.8-12.5-4.8-3.5 3.4 9 14.6 24.8 22.2 31.6 15.2 56.5 9.4 69.6-16.4 3.6-7 3.9-8.6 3.9-22.9-.2-20.5-3.2-40.5-13.5-88a696 696 0 0 0-8.8-36.7 52.6 52.6 0 0 1-2.5-16.5c.2-5.9-.3-7.7-2.8-10.4-3.8-4.1-27.4-15.3-52.4-25.2-10.3-4-20.7-8.3-23.1-9.3Zm403.7 226.5c0-4-4-4-7.7 0-2.8 3-3.9 6.3-2 6.3.5 0 3-.7 5.3-1.6 3.2-1.2 4.4-2.4 4.4-4.7Zm493.4-146.8c1.7-1.6 3.3-2.7 3.6-2.4.2.1-1.1 3.7-3 7.9-4 8.8-6.5 22.1-5.4 29.6 1 7.8 6 23.3 7.6 23.3 2.1 0 24.8-22.4 33.6-33.2l8-9.7 11.4.8c55.1 4.2 108.8 9.6 116.3 11.6 2.7.6 8.4 4.4 12.7 8.2 16.9 15 47.7 38.6 56.1 42.8 6.1 3.1 6.5 4.6 2.3 9-3.2 3.4-4.7 3.8-11.5 3.8-4.3 0-7.7.4-7.9 1a228 228 0 0 0-.4 32l.8 13.7h15.8l-1-4.4-.9-5.6c0-.8 1.6-1.5 3.6-1.7 3.5-.4 3.7-.8 3.5-5.8-.6-6.5 2-8.6 6.5-5.7 3 1.9 3.3 1.9 5.6-.1 4.3-3.9 6.7-1.6 6.7 5.8 0 4.6.5 6.8 2 7.4 1 .4 2 1.7 2 3 0 2 .1 2 1.7-.2 2.3-3 5.3-1.5 4.3 2-.7 2.1 2.4 5.3 5.2 5.3.4 0 .6-9 .5-20 0-11 .3-20.4.8-21 .4-.5 1.9.2 3.2 1.4 1.9 1.9 2.4 5.3 2.7 17.6a62 62 0 0 0 1.4 15.3c2.3 0 4.2-3.4 4.2-7.6 0-3.4.8-4.8 3.4-6 2.8-1.3 4.2-1.2 7.5.7 2.1 1.2 5.9 2.3 8.1 2.3 2.4 0 6.3 1.2 8.7 2.6 3.6 2.2 4.4 3.5 3.7 5.8-.4 1.6-.1 3.8.6 4.9.6 1.2.6 2.5-.3 3.6-.8 1-1.2 2-1 2.3.3.4 6.9 1.2 14.6 2a103 103 0 0 1 19.3 3.3c5.1 2.1 4.3 2.1-17.3 1.2-12.4-.4-45.5-1-73.3-1.2-27.9-.1-52.8-.7-55.4-1a666 666 0 0 0-31.7-2c-16.8-.7-27.7-1.8-28.7-2.7-1-1.1.3-1.5 5.2-1.5 11.5 0 27.2-1.6 27.2-2.8 0-.7-2.6-1.2-6-1.2-4.9 0-5.7-.4-5-2.1.9-2.4.1-2.4-11.5 1-5.6 1.6-5.9 1.6-8.7-1.7-3.4-4.4-9.4-5.6-15.3-3-2.5 1-5.6 1.5-7 1.1-1.4-.5-4.2.2-6.3 1.5-3.6 2.1-4.2 2.1-9.8-.7-6.6-3.2-10.4-3.6-10.4-1 0 .9-.8 2.9-1.8 4.2-1.9 2.6-2 2.6-6.7.3-6.3-3-7.5-3-7.5.5 0 2.7-.5 2.8-6 2-4.8-.8-6-.5-6 1.1s4.8 2 31.2 2.4c27.9.4 34.7 1 32.7 3-1.9 2-45.5 2.7-81.9 1.7a1220 1220 0 0 0-56-1c-34.1 1-58.1.4-55.3-1.2 1-.6 7-1.8 13.2-2.6 6.1-.8 11.5-1.8 11.7-2 .3-.3-.8-2.7-2.4-5.5-2.9-4.8-3-5-4.1-2-1 2.7-1.7 3-7.6 2.4l-6.5-.7 2 3.2c1.8 2.8 1.8 3.1-.7 3.1-4.4 0-8.3-4.1-7.5-8.3.7-2.6 1.9-3.7 5.4-4.4 3.3-.5 4.5-1.4 4.5-3.3 0-1.7 1-2.7 2.5-2.7s3.1-1.2 3.5-2.6c.4-1.5 1.9-2.7 3.2-2.7 3.2 0 9.5 6.8 9.5 10.3 0 2.9 10.5 10.4 12.1 8.6.5-.5 1-9.3 1.3-19.6l.6-18.6-9-.8c-8.2-.7-14.4-3.5-14.4-6.6a63 63 0 0 1 10.7-8c11-7.3 11.7-8.6 6.1-13.3-1.2-1-2.1-3-2.1-4.7 0-4-11.5-17.8-15.7-18.9-1.9-.4-6-.1-9.2.7-7.8 2.1-12.7 2-15.9-.4-1.3-1.1-5.5-2-9.2-2-8.3 0-12.4-2.2-15.7-7.8-3.9-6.5-1.1-7.8 4.2-2.2 3.2 3.4 5.5 4.6 8.6 4.6 7.4 0 8.5-1.7 4.5-7.2-4-5-4.5-7.4-1.7-7.4 2.9 0 8.4 5 9.3 8.8 1.5 5.4 4.8 9.8 7.7 9.8 1.5 0 5.5-.9 9-2.2 11-3.9 17.4 0 28.9 17.8a43.5 43.5 0 0 0 8.5 11.1c.8 0 3-1 4.7-2.1l3.3-2.2-2.5-4.2a69.9 69.9 0 0 1-6.5-32c.5-9.1 5.6-21.4 10.4-25.9ZM1290 643c-4.5-2.8-12-3.5-15.2-1.5-1.5 1-.5 2.7 4.5 8.4a74.3 74.3 0 0 1 17.6 54.3 79.4 79.4 0 0 1-2.8 17.3c-1.2 3.2-2 6.2-1.7 6.4.3.3 3.2-.9 6.4-2.6a19 19 0 0 0 9.2-9.6c3-6 3.3-8.2 3.2-22.7 0-12.8-.7-17.5-3-23.7A65.8 65.8 0 0 0 1290 643Zm233.9-7.2a412.2 412.2 0 0 1-27.5 25l-12.4 9.5v8.2c0 4.4-.4 16.2-1 26.2l-.7 18.3h34.6l.8-17a77 77 0 0 0-.5-19.1c-1.3-2.7-2-12.8-1-14a195 195 0 0 1 22-2.4c18.7-1.5 21.3-1.5 22.9.2 1.8 2.4 2.1 11.8.4 13-.7.4-1.4 7-1.4 14.8a88 88 0 0 1-.6 14.9c-1.9 1.9-2.8-2.3-3.6-15.5l-.7-14.2-.3 18.9c-.2 18.7.6 22.3 3.8 16.4 1-2 2.8-2.7 7.3-2.7 4.7 0 6-.5 6.7-2.6 1-3.2 6.9-3.6 10.8-.7 3.6 2.7 4.1 2.5 5-2 .7-3.3 1.4-4 4.8-4h4v-35.6l-18.2-15.3a811.7 811.7 0 0 1-29.2-25.5l-10.8-10.1-15.2 15.3Zm33.4 38.8c0-1-19-1-25.3 0-10.8 1.6-12 2-12 3.9 0 1 .8 2.2 1.7 2.5 1.2.5 1.5 5.7 1.2 21.3-.4 20.2-.4 20.7 2.3 20.7 2.7 0 2.8-.7 2.8-20.5 0-11.4.5-21 1-21.4.7-.4 6.9-1 13.8-1.6 11.3-.8 14.4-1.8 14.5-4.9Zm235.4 35.2c-.8-2.7-3.9-4.5-5.2-3.2a18 18 0 0 0-.8 6.5v5.6l6.2-1.8a47 47 0 0 1 7.4-1.9c1.6 0 1.3 4.5-.6 6.4-1.2 1.2-.9 1.6 1.1 1.6 5.2 0 8.4-5.9 6.4-11.2-1-2.4-8.5-3-8.5-.8 0 2.4-5.2 1.3-6-1.2Zm4.2 12.7c.6-.4-.2-.8-1.7-.7-1.5 0-1.9.4-.8.8 1 .4 2.1.3 2.5-.1Zm-533.7-70c-1.5-1.9-1.7-1.8-2.4 1.2-1.2 6.1-1.7 24-.5 24 3.6 0-.8 17.2-8.4 32.2-5.6 11.2-5.9 11.8-3.9 11.8 4.1 0 14.5-22 17.2-36.7.8-4.3 2.1-8.3 3-8.8 1.3-.8 1-3.6-.9-11.2a68.6 68.6 0 0 0-4.1-12.5Zm435.5 49.2c0 15.4.4 20 1.7 20 4.1 0 5-3.2 5-21.6v-18.4h-6.7v20Zm-11-15.8c-3.3-.6-5 4.7-5 14.8 0 11.5 1.3 18.3 3.4 18.3 3.5 0 4.7-5.3 4.3-19-.4-11.8-.7-13.7-2.7-14Zm-530.1-25.4c-9.6-2-27.3-1.8-36.1.6-18.2 4.8-33.4 16.2-35.9 26.8a79 79 0 0 0-.4 17.8l.8 12.6 2.3-4a67 67 0 0 1 17.2-16.9c22.1-13.7 57.3-7.3 79.4 14.4 5.9 5.7 8.6 7.6 9.1 6.3 1.6-4.4.7-33.9-1.2-37.6-3.9-7.4-20.7-17-35.2-20Zm493 24.4c-1.7-1.9-16-2.7-17.7-1a51 51 0 0 0-.9 12.7v11.7h5.2c3 0 6.4 1.1 8.5 2.7 1.9 1.5 3.6 2.7 4 2.7.3 0 1-6.2 1.5-13.5.5-9.3.4-14.1-.7-15.3Zm-43.5-7.2c-2.7 0-2.2 29.2.6 32.2 1.1 1.4 2.6 2 3.1 1.6 1.9-1 1.5-30.4-.4-32.2-1-1-2.4-1.6-3.3-1.6Zm-545.9 30.6c2.2 0 4.3.5 4.8 1.3v.1c.4.8-1.2 1.3-3.9 1.3-2.6 0-4.8-.7-4.8-1.3 0-.8 1.8-1.4 3.9-1.4Zm565.5-11.2c0-11.6-1-15.4-3.2-13.2-.4.4-.8 6.4-.8 13.4 0 10.1.4 12.4 2 12.4s2-2.3 2-12.6ZM1274.8 663c-.5 0-1.7 8.8-2.7 19.6-.8 11-1.8 21-2.2 22.7-1.5 5.2 1.4 3.3 4.4-2.8 5.4-11.4 6.9-29.6 2.9-37.2-.7-1.2-1.7-2.3-2.4-2.3Zm-388.1 28.1c4.2-1.6 9.4-1.7 11.8-.2 2.3 1.4-.9 3.3-8 4.6-5.7 1.1-8.1 3.5-7.8 7.8.4 4.9.1 5.4-2 3.7-2.8-2.3-2.6-9.7.4-12.4 1.2-1.2 3.8-2.7 5.6-3.5Zm-851.4 4.2c5.9-2 10.8-1.9 12.7.4 1 1.3 2.7 1.7 4.5 1.2 8-2.7 11.6-3 11-1.1-.4 1 0 1.9.9 1.9 1 .1-.4.9-3 2-2.3 1-4.9 1.7-5.4 1.3-.5-.3-4.4.3-8.5 1.3C37 705 36 704.7 40.7 701l4-3.5-4.7 1c-2.5.5-8.5 2.6-13.2 4.7a31 31 0 0 1-9 3.4c-.9-.8 13-9.6 17.5-11.2Zm1024.2 6.4c1 0 1.6.5 1.2 1.3-.4.7-1.4 1.3-2.2 1.3-.6 0-1.2-.6-1.2-1.3 0-.8 1-1.3 2.2-1.3Zm-546.2-20c7.1 0 6.8 1.7-.6 4.5a28.1 28.1 0 0 0-9.6 6.7c-3.4 3.8-4.7 4.5-12 5.2-4.7.4-8.7.2-9.1-.3-.8-1.5 5.5-4.1 9.9-4.1 2.5 0 5.6-1.9 9.8-6 5.4-5.1 7.2-6 11.6-6ZM951.5 653a19.3 19.3 0 0 1 25.7 4.1 22 22 0 0 0 5.9 5.1c1.6.8 3.4 2.8 4.2 4.5 1.6 3.8 2.2 3.8 8.3-.5 6.5-4.4 11.6-3.6 17.3 2.8l4.2 4.8 5-2.7c8.3-4.5 15.5-3.2 17.9 3.2.7 1.9 3.3 4.2 5.9 5.2 5.3 2.3 7.6 7.5 4.6 11.1-1.7 1.9-2 1.7-2.5-2.4-.7-4.1-1.2-4.5-5.9-5.2-4.4-.5-5.4-1.3-6.5-4.7-2.4-7.2-5.2-7.6-12.4-2-3.6 3-6.3 4-9 3.8-3.8-.4-4.2-1-4.3-4.8-.3-7.5-5.8-9.1-12.2-3.8-2 1.8-4.9 3.4-6.4 3.6-1.4.4-3.4 2.3-4.4 4.3-3.3 7-7 2.7-4.5-5.5 1.7-5.6.3-8.2-4.7-8.2-1.8 0-3.4-1-3.8-2.4-1.6-5.1-3.1-6.3-9.2-8-6.3-1.9-6.3-1.9-10.6 2.2-3.2 3.1-5.4 4.2-9 4.2-4 0-5.6.9-9 4.9l-4.1 5-2.4-3.1c-5-6.2-12.1.1-13.3 11.6-.4 5.3-1.2 6.8-3.4 7.4-1.7.4-2.4 1.5-2 3.1.4 1.3 1 3.2 1.2 4.3.8 2.9-4 3.3-6.9.6-1.3-1.2-2.5-2.6-2.5-3.2 0-.5 2.4-4.4 5.2-8.6 2.9-4.3 5.6-9.6 6-12 .5-2.4 2.5-6 4.4-8 3.2-3.1 4.4-3.5 9.3-2.7 3.2.4 5.7.3 5.7-.4 0-1.6 6.2-4.3 10-4.3 1.8 0 5.5-1.4 8.2-3.3Zm-424.8 41c4-1.8 6.4-2 10-.3 2.5.9 2.4 1-.8 2-1.9.4-5.5.6-8 .4-4.6-.6-4.6-.6-1.2-2Zm-13-3.5c3.9-3.6 4.8-3.9 10.3-2.3 3.3 1 3.3 1 .5 2.5-1.6.8-5.4 1.9-8.6 2.3l-5.9.8 3.7-3.3Zm-104.5-19.8c-5.7-2.8-13-4-16.4-2.5-2.3.8-1.3 1.7 5.3 5.5 16.2 9 18 9.7 19.6 8.1 2-2-2.5-8.1-8.5-11Zm1330.4-4.1c1.3-1.5 6.4-1 8 .5 1.2 1.2 2.5 1.2 5.5 0 5.2-2.1 10.2-.6 14.4 4.3 4.9 6 2 7.9-4.2 2.5-4.6-4.1-4.6-4.1-9.3-2-4.3 2-5 2-10-.2-5.3-2.4-6.1-3.4-4.4-5.1Zm-504.7-179.5c-3 .3-22.1 5.4-23.8 6.3-1.4.8.8 1.9 7.2 3.6a71 71 0 0 1 28.1 13 21 21 0 0 1 4.3 5.3c0 2.1-4.2 1-9.2-2.3-7.6-5-29.8-12.5-39.9-13.5-6.8-.6-11-.2-17 1.5l-8 2.4 8 1.5c4.3.8 8 2.1 8.3 3 .7 1.8-2.8 2.4-17.2 3.8-9.8.9-22.8 6.9-42.9 19.7-24.3 15.5-51.2 39.2-55.9 49.2-5.7 12.3-5.4 35 .6 50.7 4 10.6 17.4 29.7 20.6 29.4 1.4-.1 7.5-2 13.6-4.2 6-2.3 14.8-4.6 19.4-5.1l8.2-1-13.7-9.3a83.2 83.2 0 0 1-15-11.7c-.7-1.3-1.1-2.4-.9-2.4 2.3 0 34.7 15.7 41 19.9 7.2 4.8 18.1 9.2 19.4 7.7.3-.3-1.3-3.3-3.7-7a70.6 70.6 0 0 0-26.1-20.6c-6.3-3-8.8-5.3-5.9-5.3a154 154 0 0 1 24.3 8.6 91.4 91.4 0 0 1 26.6 27.6 48.7 48.7 0 0 0 7.9 10.4c1.3 0 2.8-10 2.8-18.5-.1-12.3-4.5-17.7-37.5-46.5-12.8-11.2-21.3-21.9-19.3-23.9.5-.5 2.8 1 5.2 3.2 2.3 2.3 10.3 8.7 17.6 14.4 7.3 5.7 16.1 13.2 19.7 16.5l6.3 6v-3.8c0-6.7-5.7-16.8-15.2-27.1-5-5.2-8.7-9.6-8.3-9.6 2.8 0 12.6 6.4 17.8 11.6l6.1 6.1 2.5-3.2 5.4-7 2.8-3.8-11.2-10.5c-6.2-5.9-10.3-10.5-9.2-10.5a48 48 0 0 1 20.2 11.2l7.8 6.2 9.6-4.5c5.3-2.5 13.3-6.8 17.7-9.6 8.4-5.5 20.7-16.3 20.7-18.1a37 37 0 0 1 4.6-7.9c2.6-3.6 4.7-7.2 4.7-8 0-.7-1.2-3.2-2.7-5.6-4.1-6.7-3.4-8.4 1.8-5.2l4.5 2.8 1.5-3.5c2.1-4.4 2-9.8 0-10.5-15.4-5.3-18.2-7-25.5-14.3a50 50 0 0 0-8.7-7.6ZM414.3 599c-12.8-4.5-12.2-5.6-10.8 17.6a685 685 0 0 1 1.2 30.5v10.2l8 4.2c6.9 3.9 8 4.2 9.4 2.3 1-1.3 1.9-12.7 2.4-30.3.8-22.9.7-28.6-.8-30.1-1-1-5.2-3-9.4-4.4ZM1655 617.3c-6.3-1.5-5.1-.4 31.3 28.9 16 13 24.5 18.3 26.4 16.5.3-.4-6.8-6.2-15.7-13-9.1-7-21.5-16.8-27.8-22a77.3 77.3 0 0 0-14.2-10.4Zm-6.7 12c31 26.4 39.3 32.4 44.7 32.4 5.7-.2 7.7 2-15.2-16.2-8-6.4-19-15.6-24.3-20.4-8.5-7.7-10.3-8.8-15-8.8h-5.4l15.2 13Zm-27-14.6c-2.2-.4-4-.1-4 .4 0 1.1 19.7 18.3 40.3 35.1 11.9 9.7 15 11.6 18.3 11.2 3.9-.4 3.6-.8-7.6-9.3-6.5-5-18.8-15.2-27.3-22.8-10.8-9.6-17-14.2-19.8-14.6Zm-18-2c-3.1-.5-4.9-.2-4.6.6.8 1.8 20.3 18.9 39 34 11.5 9.4 17 12.9 20.3 13.3 2.6.3 4.6.3 4.6-.3-.2-.4-4.2-3.7-9.1-7.3a506.9 506.9 0 0 1-37.7-32.3c-5.4-5.2-8.7-7.3-12.4-8Zm-236 6.8a64.8 64.8 0 0 1 14.9 30.4c2.6 11.8 3.3 12.8 5.7 8.4 4-7.3-4.7-32.4-14.1-40.5-2.8-2.5-6.2-4.1-8.4-4.1h-3.8l5.6 5.8ZM1585 611c-2 0-3.8.3-3.8.5 0 2.4 48.4 44 54.4 46.8 2.4 1.2 5.5 2 7 1.8 2-.3-2-4.2-15.1-14.7a684 684 0 0 1-28.1-24.4c-8-7.6-11.5-10-14.4-10Zm-34.6-3.6c-2.2-.4-3.8-.1-3.8.7 0 2.5 28.9 28.5 46.6 41.7 8.4 6.3 17.4 10.8 17.4 8.7 0-.3-7.4-6.4-16.3-13.8a438 438 0 0 1-28.1-24.9 52.8 52.8 0 0 0-15.8-12.4ZM58 636.4c6-2.6 7-.6 1.9 4l-4.2 4 3.5 5.8c3 5 3 6.1 1.5 7.5-2.6 2.1-8.2 1.2-7.5-1.4.5-2.1.5-2.4-.7-9.7-.9-5.3.7-8.4 5.5-10.3Zm1516-15.8c11.6 11 37.3 32.8 43 36.7 1.5 1 4.3 1.7 6.3 1.4 3.1-.4 2.2-1.4-10.1-11.7a860 860 0 0 1-27.7-24.4c-12.2-11-14.7-13-18.7-13h-4.5l11.7 11Zm-127.3 28.1c0-2.4 4.1-2.1 7.7.4 3.9 2.7 3.7 4-1 6.6-5 2.5-6.7 2.5-6.7 0 0-1.2 1.3-2 3.7-2.2l3.6-.1-3.6-1.5c-2.1-.8-3.7-2.2-3.7-3.2ZM68.3 627.3c2-2.4 3.4-.6 4.5 6 1 6.1 0 6.9-5 4.2-2-1-2.5-2.2-1.8-4.9.5-2 1.5-4.4 2.3-5.3ZM1448 581c0-2.2 2.7-.1 7 5.5 5.8 7.7 15.4 27 14.7 29.7-.4 1.4 0 1.2 1-.2 1.8-3.1 5.3-1.6 5.3 2.2 0 4.8-2.4 10-4.7 10-3 0-8.4-9.2-10.1-17.3-.8-4-4.1-12.3-7.3-18.3-3.2-5.8-5.9-11.2-5.9-11.6Zm-250.8 28c.1-9.5-2-13.6-5.5-11-2.1 1.6-2.1 2.2.3 9.1 1.5 4 2.7 9 2.7 11.3.2 7.5 2.5-.6 2.5-9.4ZM94.5 581.7c4.6-2.7 18.2.4 18.2 4.1 0 1.9-1.2 2-10.2.4-5.8-1-8.1 1.5-9.2 10-.5 5-1.3 6.4-4 7.5-11.4 4.6-16.5 8.1-18 12.6l-1.6 4.7-.8-3.6c-1.4-5.9 1.6-10.3 9.9-14.4 5.5-2.8 7.9-5 9-7.9l3-8.1c1-2.3 2.5-4.7 3.7-5.3Zm1109.2 9.8c-1.8-3.8-3-4-5.6-.4-1.7 2.6-1.6 3.2 1.2 7.4a30 30 0 0 1 4 9.8c1.1 6.3 2.8 7 4 1.5.8-3.9-.8-12-3.6-18.3Zm513.4-.5c2.4 0 8.2 8.7 8.2 12.4 0 4.4-5.8 9.2-10.5 8.7-4.4-.6-4.4-3.4-.1-5.5 3.3-1.7 3.6-2.8 1.8-11.3-.5-2.7-.2-4.3.6-4.3Zm-426.8-46.3c-.8-.8-5.2 6-11.1 17-2.1 4-7.6 11.2-12.1 16.1-4.7 5-8.4 9.3-8.4 10-.2.7-8.2 6-18 11.7-17.1 10.2-23.2 15.1-13.6 11.1 36.6-15.5 57.3-34.8 62.4-58.1.8-3.9 1.2-7.4.8-7.8Zm-14.7-46.6c.4 4.5-.1 11-1.6 18-2.1 10.1-2.3 11-.1 14.1a15 15 0 0 1 2.1 7c0 3.4-.1 3.4-3.3 1.3a12.8 12.8 0 0 0-4.6-2.2c-2.4 0-7.2 8.3-7 12.2 0 2.5-.6 3.8-1.9 3.8-1 0-5.9 3.4-10.8 7.4-5 4-15.6 10.9-23.7 15.6l-15.1 8.5c-.3.3 1 4.1 2.8 8.8a605 605 0 0 0 4.1 10.8c.8 2.3 1.4 2.1 8.6-1.9a1569 1569 0 0 1 21.4-11.6c12-6.4 14.6-8.4 19.8-15.4 6.2-8.4 19-33 19-36.7.2-1.7.6-1.6 2.2.5 1.7 2.3 2.1 2.4 3.2.7 2.1-3.2 1.4-6.4-1.6-9.2-2.6-2.4-2.7-3.2-1.1-6 1.3-2.7 1.5-5.7.1-15.7a42.9 42.9 0 0 0-3.2-13.9c-.9-1-3.4-2-5.8-2.5l-4.3-.8.8 7.2Zm-862.1 81.7c-6.8-2-18.6-2.5-24.8-1.3-8.6 1.8-14.2 3.7-15.5 5.3-2.3 2.7 1 10.1 4 9.3 16.8-5 30.3-4.5 43 1.5 8.9 4.1 8.9 4.1 9.7 1.3 2.1-8.2-1.4-11.7-16.4-16.1Zm952-11.6c1.3-2.5 1.7-2.7 3-1a9.4 9.4 0 0 0 3.9 2.9c3.6 1.3 2.7 4.8-2.7 9.8l-5 4.6 3 2.5c4 3.3 3.8 5.6-.6 5a7.4 7.4 0 0 1-5.6-4c-1.9-3.3-1.9-3.8.9-7.7 2-2.5 2.8-5 2.3-6.6a8 8 0 0 1 .8-5.5Zm-960.8-37.9a71 71 0 0 0-29-.5c-7 1.6-20.1 8.4-25.7 13.3-4.1 3.6-4.7 5-4.7 10.6 0 10.9 1 11.6 7.2 5.6 7.9-7.6 18-15 20.6-15 1.4 0 .9 1.2-2.2 4.2a21.3 21.3 0 0 0-5.7 11.3c-1 4-1.2 7.6-.8 8 .5.5 3.7-.4 7.2-1.9 18.3-7.8 41.3-3.6 62.4 11.5 3.7 2.7 9 6.8 12 9.2 5 4.3 5.3 4.4 6.3 1.9.5-1.6 1.6-7.9 2.5-14.2 1.3-10.9 1.3-11.6-1.5-15.8-6.4-9.2-31.4-23.8-48.6-28.2ZM1526 557.7c10-3.2 10.3-3.2 9.7-.4-.2 1.3-2.8 3.2-5.8 4.4-8.3 3-9.9 4.9-9.9 11.3 0 6.7-2.8 10.8-10.4 15-4.4 2.5-5.5 2.7-6.1 1-.4-1.2 1-3.3 4.2-5.6 6.7-5 7-5.5 7-12.5 0-8 1.8-10.2 11.3-13.2Zm138.7-2.2c9.3-4.1 20 0 22.8 8.8 1.3 4 2.2 4.8 6.6 5.5 5.5 1 9.9 5.2 9.9 9.7 0 1.9 1.6 3.8 5 5.5 5.8 3.2 5.4 5.3-1 4.8-4.8-.3-10-4.7-8.5-7 .4-.7-.3-2.7-1.5-4.7-2-3-3-3.2-7-2.6-6 1-8.3-.9-8.3-6.5 0-3.2-1-5.2-3.5-7.2-4.4-3.5-7.2-3.5-14.1 0-3.8 1.9-5.9 2.3-6.8 1.3-1.9-1.8 1-5.3 6.4-7.6Zm-1299.8-2.4c-.2-.8-4.5 2.6-9.6 7.4-8.4 8.1-9 9.2-9.6 15.4a20 20 0 0 0 .7 9.2c1.2 2 1.9 1.5 6-4.9a180 180 0 0 0 8.8-16.5c2.3-5.1 4-9.9 3.7-10.6Zm1201.4-59.8c1.6-1.6 3.7-1 6.1 1.7 1.2 1.5 3 2.7 4.1 2.7 1 0 3.4 1.2 5.4 2.8 3.8 3 4.6 9.2 1.4 11.8-4.6 3.9.8 6.6 6.8 3.4a19.3 19.3 0 0 1 15.6-.6c3.9 2 7.6 6.7 7.6 9.6 0 1.4 1.6 5.2 3.5 8.4 4.1 7.1 3.9 15-.8 19.9-1.7 1.7-2.3 3.3-1.5 3.9.7.5 1.6.2 2.2-.6 2.1-3.4 12.2.2 13.4 5 1 3.7 2.2 3.8 5.1.5 3.2-3.5 9-5.7 13.6-5.2 6 .7 5 2.8-3.9 7-7.7 3.8-8.2 4.5-8.6 9-.4 4.7-5.4 11.7-8.2 11.7-2.9 0-3-5.7-.2-9.4l2.8-3.9-3.4-5.2c-3.7-6.1-9.7-8.1-16.8-5.6-8.2 2.8-8.8-1.7-1.2-9 6-5.8 6.6-8.5 2.7-14.2a16.9 16.9 0 0 1-2.7-7.5c0-4-4.5-8.6-9.6-9.8a24 24 0 0 0-10.8 1.3c-8.4 2.7-14.6 2.3-15.3-1-.3-1.1 1.2-4.6 3.3-7.8l3.6-5.5-3-2.5a10.5 10.5 0 0 0-5.5-2.5c-4.4 0-6.7-1.6-6.7-4.6 0-1.7.4-3.4 1-3.8ZM115.6 550.6c2-2 3-.7 3 3.7 0 3.2 1.3 6 4 9.1 3.1 3.5 4 5.7 4 9.7-.2 3 0 6.4.2 7.9.4 2-.1 2.5-2.1 2.3-1.5-.3-5.1-.7-8-1-6.6-.5-7.1-3.3-1-5.2 5.1-1.4 5.6-4.8 1.6-10.8-2.5-3.8-3.7-13.8-1.7-15.7Zm310 3c-1.5-3.8 14.1 4 18.8 9.1 2.3 2.4 2.3 3.2.8 7.6l-1.7 4.8-1.6-4.4c-.8-2.6-4.3-6.6-8.7-10.2-4-3.2-7.3-6.4-7.6-7ZM206 545.7c2.5-4.3 12.7.5 12.7 6 0 2.3 1 3.6 3.6 4.7 4.2 1.6 5.7 3.4 5.7 7.4 0 2.2.8 3.1 2.7 3.1 1.4 0 2.6.3 2.6.5 0 .3.4 1.6 1 3 .6 1.8.2 2.1-2.6 1.4-2-.5-5.6 0-8.4 1.2-8.9 3.6-11.6-.1-4.4-6.1 4.6-3.9 4.3-6-.9-8a6 6 0 0 1-3.6-4.3c-.3-1.7-2.1-3.8-4.4-5l-4.5-2.3c-.2-.1 0-.8.5-1.6Zm1262.7 1.2c2.8 0 7 4.7 8.1 8.8 1.2 4.5-1 12.8-3.3 13.6-1.5.5-1.8-.7-1-6.1.8-5.9.6-7.1-2.5-10.7a18.7 18.7 0 0 1-3.3-4.8c0-.4.9-.8 2-.8Zm-74.7-30.5-4.5 3.7c-5.6 4.5-5.9 9-1 15 2.3 2.6 3.4 5 2.7 6.3-2.3 5.4-2 7.9 1.2 11.5 2.7 3.2 4.1 3.7 9.3 3.7 7.4-.1 8.8 1.2 4.7 4.2-4 2.8-7.5 2.6-13.7-.6-6.7-3.3-7.4-3.3-15.4.7-7.6 3.9-8 3.9-8 1.6s5.2-7 8.8-8.1c1.8-.6 3.8-3.1 5.1-6.6 2.7-7.2 2.8-6.5-1.2-12.4-4.4-6.4-4.3-10.5.5-15.3 2.6-2.5 5.4-3.9 7.8-3.9l3.7.2Zm-289.6 12c-3.2.4-9 2.6-13 5.2-7.4 4.5-10 9.3-10 17.8 0 4.2.5 7.5 1.1 7.5.6 0 6-4.3 12-9.5 10.6-9 10.8-9.4 10.8-15.3 0-3.2-.4-5.9-.9-5.7ZM438.9 427.8c-18.6-3.2-34.5-1.9-46.2 3.9a112.3 112.3 0 0 0-31 32.5 68 68 0 0 0-3.6 25.9c.8 3.7 1.1 3.4 6.2-5.9a155.6 155.6 0 0 1 22.2-32.5c6.6-6.2 7.1-5 1.4 3.3a183.3 183.3 0 0 0-24.7 61.6c-1.3 9.7-.7 10.5 7 8.1a78 78 0 0 1 19.8-2.1c11.2 0 15 .5 24.4 3.7 9.6 3.2 15.3 6.2 34.7 17.5 3.7 2.3 4.5 2.3 5.6.5 2-3.2 1.4-9.6-1.2-14.1-1.4-2.1-7.6-9.5-13.9-16.1-15.7-17-26.4-35.5-22.5-39.4 1-1 2.9 1.8 6.4 9.1 4.1 8.5 7.4 13 18.1 23.9 12.4 12.6 13.2 13.2 15.3 10.9 4.2-4.1 4-30.1-.2-41.3-1.4-3.5 2.6-3 5 .8 1.1 1.6 3.5 7.3 5.5 12.6a75.1 75.1 0 0 0 7.3 15.4c4.7 6.8 11.9 13.7 13 12.5 1.7-1.7-20.6-40.8-31.6-55.2-3.6-4.7-6.6-9-6.6-9.9 0-6.5 20 14.3 41.1 42.7l26.1 35.5c13.1 17.8 17.9 23.3 20.3 23.3 2.1 0 2.4-4.4.5-8.1-2-3.6.6-3.4 5.9.8 5.5 4.1 5.9 4.1 11.2-.4l4.4-3.6-4-7.4c-5.2-9.4-5.2-13 .5-23.2l4.7-8.4-5.3-3.6c-6.7-4.4-7.1-6.1-.6-2.2 2.7 1.6 5.1 2.8 5.2 2.5l1.8-4.8c1.7-5 3.7-3.6-19-13a89 89 0 0 1-23.3-14.5c-1-.8 2.7 7.4 8.3 18 10.4 19.9 14.9 30.4 13.4 31.8-1.3 1.3-5.6-5-13.4-19.8-13.5-25.3-25.8-42.8-35-49.4a116 116 0 0 0-53.2-21.9Zm146.4 91.3c0-3.2 36.7 11.1 56.3 22 10.8 5.9 17.7 11.1 16.5 12.3-.4.3-7-2.5-15-6.4-7.9-3.9-19.8-9.3-26.4-12.3-23.4-10.2-31.4-14.2-31.4-15.6ZM164.5 515c4.6 0 6 1 10.7 6 5.5 5.9 5.6 5.9 12.1 5.2 9.1-1 12.3 2.3 14.3 14.8 1.2 8.3 1 9.3-1 11-2 1.4-2.7 1.4-4.3-.2-1.6-1.6-1.8-3-.7-7.3 2.5-9.9-2.5-15.1-11.6-12.2-6.1 2-6.4 1.9-13.7-8.5-3.6-5.2-8.3-4.5-14.2 1.9-2.8 3-6.1 5.3-7.7 5.3-3.3 0-9.7 7-9.7 10.7 0 3.7-2.6 4.5-5.5 1.8-2.5-2.2-2.8-2.2-8.3.6-3.7 2-5.7 2.4-6.1 1.3-.7-1.9 5.9-7.7 9-7.9 4.9-.4 5.4-.6 8.2-3.4 1.5-1.8 4.4-3.5 6.4-3.9 2-.5 6.7-4.1 10.3-8 5.8-6.3 7.4-7.2 11.8-7.2Zm1044.8 1c-.1-2.6 20.6 4.5 28.3 9.8 9 6.1 19.2 17.2 16 17.2-.7 0-5-3-9.7-6.8-4.7-3.7-14.4-9.6-21.5-13-7.2-3.4-13-6.6-13-7.1ZM558 533.6c2.1 4.3 4.7 5.5 4.7 2.3 0-1-1.6-2.8-3.5-4l-3.3-2.3 2.1 4Zm560-6.2c-1.6-7.5-7.7-5-6.4 2.8.8 5.4 1.3 5.7 5 3.2 1.8-1.4 2.2-2.8 1.4-6ZM594.4 497c-9-1.5-5.5 1.6 6 5.4 21.5 7.2 56.4 22.6 61 26.8 2 1.8 2.3 1.1 3.1-7.4 1.2-13.2-.1-19.9-4.1-21.5-4.1-1.5-11.2-1.5-13.6 0-1.5 1-.4 2.7 4.5 8 3.5 3.7 6.2 7 5.9 7.5-1.6 1.4-9.3-5.5-11.9-10.6l-2.8-5.7-21.6-1a397 397 0 0 1-26.5-1.5Zm-27-4.6c-.2 0-1.1 2.8-2 6.3-.9 3.6-2.9 8.5-4.2 11-7.6 13.7-7.6 13.4-3.2 16.9 7 5.6 14.7 3.2 18.1-5.9 1.2-3.2 1-4-3.7-8l-5-4.3 4.9 2c2.8 1.1 5.3 2 5.6 2 .4 0 1.3-2.4 2.1-5.4.8-3 1.7-6.2 2.1-7.2.6-1.2-1.7-2.7-6.8-4.6a94.7 94.7 0 0 0-7.8-2.8Zm831.4 19.5c2-4.4 4.8-4.4 6.8-.1 1 2.5 1 3.7-.3 5.3-3.8 4.7-9 .5-6.5-5.2ZM440 474.6c0-11.9 2.7-7.2 12.1 21 2.8 8.3 3 15.5.4 16.3-3.2 1.1-12.5-26.8-12.5-37.3Zm767.5-232.8c-4 25-35.8 48.5-65.5 48.3-23.9-.2-42.7-13.8-46.4-33.5-1-5.5-2.1-8.3-3.5-8.3-.9 0-8.1 1-16 2.2-20.8 3-23.2 4.4-47.6 26.4-7.3 6.5-20 16.6-28.1 22.4a102 102 0 0 0-15 11.8c0 4.2 9.8 19.4 20.6 32a158 158 0 0 0 27.9 24.8c3.8 2 3.8 2 12.9-7a55 55 0 0 0 9.2-10.8c0-1-1-2.3-2.4-3-3.6-1.8-10.5-15.7-13-25.6-2.2-9.7-2.6-30.5-.6-30.5.8 0 1.3 1.3 1.3 3 .2 13.1 3.8 29.8 9.1 41.7l3.6 8 .7-32c.4-21 1.2-33 2.2-34.7 2.4-4 2.8-1.5 3.6 24 .8 23.6 3 44.8 7.6 72 5.8 33.7 13.1 56.7 25.2 78.8a39.2 39.2 0 0 1 5 10.8c-2.3 2.1-14.7-12.4-20-23.3-1.6-3.1-3.2-5.6-3.8-5.6-.5 0-1.7 3.4-2.5 7.6-.8 4.2-4.5 17.6-8.1 29.7a508.3 508.3 0 0 0-7.4 27.6l-.9 5.7h6.5c3.6 0 14.7 1.2 24.6 2.7 22.5 3.3 36.2 3.3 50.6.1 13.1-2.9 19.5-5.3 42.6-16 31-14.4 54-20.5 82.4-22.2 16.2-1 38.8 1 51.8 4.8l8.4 2.4-1.2-3.2a98.4 98.4 0 0 0-28.1-37.9c-21.2-19-31.7-33-34-45.3-.8-4.3-.3-3.8 5.6 4.9 3.6 5.3 6.7 8.8 7 7.9.6-3-5-41.8-7.8-53.5-1.3-5.9-4.4-15.9-6.7-22-7.8-21.3-9.2-25.3-8-25.3.8 0 3.2 3.4 5.6 7.6l4.4 7.7.4-16c.3-8.8-.2-21.9-1-29-1-7.3-1.4-13.5-.8-14 1.2-1.1 3.3 5.7 4.9 16a209 209 0 0 1-.7 44.3c-1.8 5.5 1.8 7.5 16.3 9.1 9.7 1 14.4 1 16 .1 3-2 11.6-21.7 15-34.8 2.2-7.6 3-14.8 3.1-27l.2-16.7-17.6-2.3c-9.6-1.2-23.4-3.8-30.7-5.8-11-3.1-16.3-3.8-34.5-4.2l-21.5-.5-1 5.6Zm57.8 246.3c-4.9-2.6-20.5-3.4-21.8-1.2-1.2 1.8 9 10.2 17.7 14.8 9.3 4.6 9.5 4.6 9.5 2 0-1.1-3.5-3.8-7.6-6-7.2-3.9-7.4-4.2-3.1-3.5 2.5.4 6.1 1 7.7 1.6 2.8.8 3.1.5 2.7-2.3-.3-2.1-2-4-5-5.4Zm154.7 2.1c5.6-2.1 5.9-2.1 8.7-1 1.4.5-2.6 3-12.2 7.3-7.7 3.6-14.4 6.5-14.8 6.5-3.3 0 11.5-10.4 18.3-12.8Zm-567.7-19c-5.5-.7-6.7 7.8-2.7 21.1 2.5 8.6 8 11.9 11.9 7.2 1.4-1.7 1.3-3-.7-8.2a145 145 0 0 1-4-13c-1.2-5.3-2.1-6.8-4.5-7Zm-3.4-16.7c-1.6-2.2-2.1-2-6.5 3-2.7 3-5.9 7.2-7.2 9.6a41 41 0 0 0-1 27.2c2.3 6.3 2.7 6.7 7.1 6.7 4.3 0 4.7-.3 4.3-3.3-.3-1.9-.5-9.1-.7-16-.2-11.4 0-13.1 2.8-16.6 1.6-2.1 3-4.8 3-6 0-1.3-.8-3.3-1.8-4.6Zm21.6 26.8c-6-8-10.5-10-10.5-4.7 0 1.7 2.3 7.2 5 12.4 4.2 7.6 5.8 9.5 8.7 9.7 4.3.6 6-2.4 3.9-6.8-.7-1.6-3.9-6.4-7-10.6ZM747.6 331 736 341.4c-6.3 5.6-14 12.4-17.3 15l-5.9 4.9 13.5 19.2c16.6 23.8 24.8 31.6 53.2 50.5l22.1 14.7 2.3-2.8c1.8-2.3 3.2-2.7 6.1-2l3.7.9-4 2.5c-4.6 2.8-5.2 4-6.9 16-1.9 14-1.2 18.8 4.7 28.6a38 38 0 0 0 6.2 8.8c2.3 0 2.6-4.7.4-12.2a58.3 58.3 0 0 1-2.1-10.2c0-1.4 3-7.4 6.8-13.5 7.9-12.7 11.2-14.8 23.6-14.8 6.1 0 8.7.7 12.3 3.3a17 17 0 0 0 6.8 3.4 30 30 0 0 1 10 6.6c4.1 3.6 8.5 6.7 9.6 6.7 2.8 0 1.6-6.3-3.8-19.7C868.5 425 860 420.5 836 425c-4.7 1-9.4-3.2-23-20-17.8-22.2-24.6-29.4-36.9-39.4a74.3 74.3 0 0 1-23.2-26.4c-2.8-4.6-5-8.3-5.2-8.2ZM1446 476.2a17 17 0 0 1 5.9-.8c3.8.3 5.4 3.6 1.8 3.6a16 16 0 0 0-6.6 2.7c-4.7 2.8-5.6 6.2-2.8 10.6 2.5 4-.4 6.2-4.2 3.1-5.8-4.8-2.6-15.6 5.9-19.2Zm-607.3-23.7c0-2.7-3.9-1.5-8.6 2.6a46 46 0 0 0-8.9 12.6c-3.7 7.7-4 8.6-2.5 14.1 1.8 7 4.8 11.9 7.2 11.9 1.2 0 2-3.1 2.5-11.1.7-11 3-18.5 7.7-25.2 1.5-1.9 2.6-4.1 2.6-5Zm332.8-35.9c5-6 7.3-7.5 4.2-2.7l-5 8.4a361.4 361.4 0 0 1-44.2 54.7c-8.1 7.9-18.1 15-19.2 13.7-.2-.2 6.8-8 15.9-17a584 584 0 0 0 30-34l18.3-23.1Zm313.7 29.6a51.9 51.9 0 0 1 29.2.7c3.5 1.4 8.8 2.9 12 3.3 7 1 11.3 3.7 13.3 8 1.2 2.7 2.6 3.2 9.8 3.7 9.3.7 12.5 3.2 11.3 9.4-.5 2.9 0 4.1 2.7 6 4.1 2.6 6.5 8.2 4.6 10.1-.9 1-2.2.3-4.1-2.1-1.6-2-4.1-3.6-5.7-3.6-6.4 0-7.4-2.7-3.4-8.2 2.7-3.7.4-6.5-5.2-6.4-2.8 0-6.2.6-7.7 1.1-4 1.6-6 .3-6-3.9 0-5.4-4.4-8.6-11.9-8.4-4.8.2-6.8-.4-9.4-2.8-4.7-4.4-8-4.8-19.1-2.5-19.3 4-25.3 9-22.5 19.5 1.6 5.7.8 7-5.1 7.8-8.4 1.2-10.8-1.4-4.3-4.8 3.2-1.6 3.8-2.6 3.2-5.8-1.2-8.6 5.9-16.7 18.3-21.1Zm-614.4 19.6c-8.8-7-13-8.4-14.3-4.8-1 2.7 1.4 5.5 5.5 6.5 1.7.4 7 5.1 11.7 10.3 6.2 6.7 9.4 9.3 11 8.8 5-2 4-10.7-1.8-12.7-2-.6-7.4-4.2-12.1-8.1Zm24-3c-6.5-6.5-9.9-4-6.3 4.7 2.3 5.5 5.2 7.2 8.2 4.8 2.9-2.5 2.4-5-1.9-9.4Zm361.6-15.8c9.9-1.5 14.7-1.5 16.8-.1 1.2.8-.5 1.4-5.3 2.1-9.9 1.2-32.2 6.5-41.8 9.9-9 3.2-8.8 3.2-8.8 1.6 0-2.6 26.2-11.6 39.1-13.5Zm-602-1c-2-2-7.3-2-18.4.5a661 661 0 0 1-27.9 5.2 284.4 284.4 0 0 0-19.7 3.8c-1 1.1 16 2.2 23.9 1.5 38.2-3.5 47.3-5.9 42.1-11Zm234.1 3.8c-3.6-2.8-7.2-3.7-7.2-1.7 0 2.4 4.3 6.6 7.4 7.2 4.4.9 4.4-1.9-.2-5.5Zm356.2-82.5c3.3-7.8 3.8-3.8.8 5.7a278 278 0 0 1-32.3 63c-6.7 8.7-14 16.7-16.3 18-3.2 1.7-3 1.4 8.4-15a387 387 0 0 0 39.4-71.7Zm-259.4-33.6c-.4 0-4.8 4.5-9.7 10a82.8 82.8 0 0 1-21.3 17.2 303 303 0 0 0-49 36.8 678 678 0 0 1-26.1 21.7 51.3 51.3 0 0 0-8.5 7.3c0 .6 1.8 3.6 4 6.8 3 4.4 6.2 7.1 12.2 9.9l8.3 4 25.9-13.2c34.1-17.3 46.9-25.9 64.1-42.3 7.7-7.4 17-15.7 20.4-18.2 3.5-2.6 6.4-5.1 6.4-5.6 0-.6-3.6-5.1-8-10-4.5-5-10.4-12.6-13-16.7a39.3 39.3 0 0 0-5.7-7.7Zm-363.6 70.8c-.5 0-9.8 5.3-20.8 11.7-10.8 6.5-25 14.7-31.6 18.1-13.7 7.4-16.8 10-11.6 10 4.7 0 22.7-7.7 35.5-15.2 10.7-6.4 28.1-20.1 29.2-23.2.3-.8 0-1.6-.7-1.4ZM589 331c-1.4 0-17.8 11.9-41.2 29.5-14.1 10.8-37 27-51 36.2C466.9 416.2 461 421 464 423c4.7 3.3 16.3-2.8 49.6-26.3 27-18.9 66.1-52 73.2-62 1.5-2 2.5-3.7 2.1-3.7Zm-201.8-72.8c-.6-.3-8 1.6-16.4 4-22.2 6.1-32 12.8-71.6 47.9-50.7 45-48.3 43.4-73 51.2a76 76 0 0 0-16.9 6.8c-3.6 3.7-16.3 29.3-15.5 31.3 1.2 3.3 26.4 20 30.2 20 1.8 0 7-1.6 11.4-3.5 8-3.3 11.8-7.4 10.4-11.2-.5-1.4-2.4-.2-6.9 4.2-9.6 9.3-16 10.2-20.8 3-1.9-2.9-1.9-3.8.5-11.7 2.7-8.4 2.7-8.4.2-11-3.4-2.9-3.5-5.5-.3-4.2 5.7 2.5 8.3 2.3 12.4-1.2 2.3-2 4.5-3.2 5-3 .3.5-1.8 4.3-4.7 8.5-10.2 14.5-11.6 19.3-7.1 21.7 2.3 1.2 3.9.3 11.7-7 6.8-6.5 10.4-8.9 14.4-9.5 2.8-.6 7.9-2.6 11.1-4.4 4.8-2.8 6.5-5 10.1-13a42.8 42.8 0 0 1 10.8-15.3c9.2-8.1 33.9-22.4 63-36.4 29.4-14.3 36.2-18.5 36.2-23 0-4 2.3-10 3.8-10 .6 0 .9 1.4.5 3.3-.5 2.8-.1 3.3 2.5 3.3 2.8 0 10.4-1.6 15.5-3.3 1.2-.4.3-3.4-3-9.5a209 209 0 0 1-8.7-18.3 34 34 0 0 0-4.8-9.7Zm807 53.5c5.4-2.7 7.8-2.6 11.9 1 5 4.3 5.7 12.6 2.3 22.7a307 307 0 0 1-19.8 35.5c-.2.2-3.4-1.8-7-4.4-13.8-10.2-24.2-25.4-24.2-35.6a18 18 0 0 1 3.1-9.4c2.5-3.7 4-4.6 8.4-4.9 4.4-.3 6.4.4 9.9 3.2 4.8 4.1 4 4.4 9.8-3.7 1-1.4 3.5-3.2 5.6-4.4Zm-491.3-56.2c-1.7-3.8-5-4.1-6.7-.6-.8 1.3-2 6.5-2.8 11.6-.8 5-3.6 18.6-6.1 30.4a219.5 219.5 0 0 0-4.1 21.6c1 1 5.8-8.2 10.9-21 6.3-15.8 10.8-37.6 8.8-42Zm580.3 28.4c1.6-4.4 2.5-2.2 1.6 3.4-1 5.3-5.1 17.3-8.8 25.3-1.6 3.6-6.3 5.5-4.8 2 2.4-5.7 11.4-28.7 12-30.7Zm298.2-37.6c0-1.4-3.7-.4-11.3 3.6a276 276 0 0 1-20.7 9.4c-6.9 2.8-16.6 7.4-21.4 10.4-4.8 2.8-12 6.5-16 8.1-9 3.5-18.6 3-63.2-2.8-56.6-7.5-61.4-8-76-8-10.8-.1-19.4-1-32.3-3.7l-17.7-3.8v9.4c0 5.2-1.2 14.8-2.6 21.4a41 41 0 0 0-1.4 13.1c.5.7 11.7 1.6 24.8 2.3 13.2.6 30.8 1.8 39.2 2.6 18.8 2 61.8 1 91.3-2 23.2-2.4 30.5-2.1 42.5 1.4 7.4 2.1 9 2.1 21.5.1 13-2 20.7-1.7 30.8 1.3 3.2.8 5-.8 3.9-3.8-1.1-2.7-9.8-7.2-18.2-9.5-8.5-2.3-14.5-4.8-14.5-6.3 0-.6.8-.8 1.9-.4 1.4.6 3.4-2 6.8-8.8 4.2-8.4 6-10.2 16.5-18.1 10.3-7.5 16.1-13.2 16.1-15.9ZM453.5 289.7c-6.7-11.8-10.8-15.1-10.8-8.7a27 27 0 0 0 7.2 15c3 3.5 10.1 7.7 10.1 6 0-.6-3-6-6.5-12.3ZM684.4 279c-1.5 0-2.5 4.3-3.7 16-.8 7.2-.8 7.2 1.3 3.7 1-2 2.4-7.2 3-11.7.5-5 .2-8-.6-8Zm900 9.3c-10-4-15.6-4.9-17-2.8-.3.7 3 2.8 7.7 5 8.8 3.8 22.2 6 22.2 3.3 0-.8-.6-1.5-1.4-1.5-.8 0-5.9-1.8-11.5-4ZM482.9 219.4c-2.2-.8-6.2 8.8-8.4 19.6-1.7 9.6-1.8 43.7-.1 50 1 3.6 1.3 3.2 2-4 .5-4.4 1.2-13.5 1.7-20 .4-6.7 2-18 3.5-25.3a313 313 0 0 0 3-16.6c0-1.7-.7-3.4-1.7-3.7Zm163.4 21.2c-.4-1.2-.7-1.5-.8-.7-.3 2.8-26.7 29.5-38.4 38.8-6.2 4.8-10.8 9-10.6 9.2 1 1 11.6-4.9 20.2-11a111.1 111.1 0 0 0 27.2-28.3c1.6-3.2 2.6-6.8 2.4-8Zm964.9 29.6c.5-1.3-3.9-1.6-21-1.5-11.8 0-22.7.4-24.2.7-4.7 1-8.8 4.5-11.5 9.7-3.4 7-3.3 9.6.6 8.4 6.5-2 10.9-5.2 10.5-7.6-.3-1.2-.3-2.2 0-2.4l19-1c18.2-1.1 25.3-2.7 26.6-6.3ZM1198.7 233a16 16 0 0 0-12.4-1c-3.6.9-1.2 3 3.6 3 8.1 0 9.6 5.5 4.2 16.7-6.8 14.8-27 27.7-47.3 30.6-9.2 1.2-10.7 1.8-7.9 2.6 5.8 1.6 21.8-1.8 31.6-6.7 17.2-8.5 32.2-26.7 32.2-38.8 0-3.5-.8-4.8-4-6.4Zm-698 20.7c-5.6 0-15.4 16.2-15.4 25.3 0 3 .6 5.2 1.1 4.8 2.1-1.3 16.3-26.3 16.3-28.7 0-.8-1-1.4-2-1.4ZM1124 67c-.5 0-4 2-7.5 4.3a33.3 33.3 0 0 0-13.8 24c0 2.8-.6 5-1.2 5-3.5 0-4.2-15.2-.8-21.6 1-2.2 1.8-4.4 1.6-4.6a39 39 0 0 0-9.1 4.1 98.9 98.9 0 0 0-31.3 27l-5.2 7.4-1.2 23c-2.2 41.7-2 44.5 2.9 54.5a86.2 86.2 0 0 0 36.8 33.7c10.4 5.2 12.8 5.9 20.7 5.9 13.6 0 28.1-5.1 42.4-14.8a32 32 0 0 1 6.4-3.9c1.7 0-7.8 12.1-13.6 17.3a63.4 63.4 0 0 1-26.7 14.8l-7 1.4v7.3c0 7.6-2 9.7-3.5 3.5-1.4-6.3-1.9-7.2-3.6-6.7-3 1-2.6 8.3.6 13a38 38 0 0 0 36.4 15.4 82 82 0 0 0 31.1-13.9c7-5.2 13.9-15.4 13.3-20.1-.4-2.8-1.2-3.5-5.7-4-7.9-1-9.3-5-9.3-24 .1-13 .5-16.4 3.2-22.4 2.4-5.3 3.7-6.8 5.3-6.3a18 18 0 0 0 14.4.3 36.5 36.5 0 0 0 15.7-20.1c6.2-21.1-9.3-31.9-24.6-17.4-2.7 2.6-5.9 4.6-7.1 4.6-1.2 0-2.3-.2-2.3-.4-2.2-16.2-4.8-24.2-9.8-32-2.3-3.4-2.3-3.6-.3-3.6 2.4 0 6.5 3.7 10.5 9.3 2.3 3.3 2.3 3.3.6-1.3a14.7 14.7 0 0 1-1.4-6.2c.3-.9-2.9-3.4-7.2-5.8a167 167 0 0 1-26.9-19.2l-4.5-4.2 2.9 4.4c1.7 2.4 7.3 8 12.5 12.6a75 75 0 0 1 10 9.3c.3.7-2.5 0-6.2-1.5-16.4-6.1-33.5-26.4-35.8-42.1-.4-3.3-1.2-6-1.7-6ZM641 44.6c-11.1-4-12.3-3.7-4.2 1 7 4 15.2 12.2 15.2 15.1 0 1.1-3.6 0-10-3a131.9 131.9 0 0 0-42-13c-7.3-.5-8.4-.2-6.5 1.2 6 5 9.4 15.1 6.6 19.6-1.3 2-4.1 1-4.1-1.7 0-3-5-6.3-13.5-9a34.7 34.7 0 0 0-8.8-2c-.2.2.6 2.6 1.6 5.3 1.1 2.6 2 6.8 2 9.2v4.2l-3.7-3.6c-2-2-4.1-3.6-4.5-3.6-.4 0-1.1 3.1-1.5 6.8-.5 3.8-1.7 8.6-2.8 10.7-1 2.1-1.5 3.9-1 3.9.6 0 2 .8 3.4 1.7 2.1 1.6 1.7 2.3-4.4 8.4-3.6 3.6-7 8.3-7.6 10.4-.5 2.1-.1 8.8.8 15 2.5 16 1.7 16.6-12.7 7.8-6.1-3.7-11.2-4.1-16.6-1.3-11.8 6-10.3 27.4 2.4 38 7 5.7 13.7 7.6 20.6 5.4l7.1-1.8c1.6-.3 11.7 13.6 10.7 14.6-.3.4-1.8 0-3.2-.8-3.5-1.8-6-1.8-5-.1.4.7.8 6.8.8 13.6 0 12.8-2.4 23.6-6.1 28.4-1.9 2.4-2 2-1.2-5.7.5-4.6.5-8.3 0-8.3-2.3 0-8.5 4.1-9.3 6-1.9 5-.7 13.7 2.6 20.4 4.4 9 13.4 16.8 25.9 22.8 13.6 6.5 22.4 6.7 35 .4 20.6-10.1 35.8-28.7 28.6-34.8-2.4-1.9-3.6-.5-3.6 4.1 0 2.4-.7 3.8-1.9 3.8-1.4 0-2.1-2-2.4-7.1l-.4-7-7.2-.9a74 74 0 0 1-34.8-18c-4.4-4-8-7.8-8-8.4 0-.6 4.4 1 9.9 3.5 13 5.9 25.7 9 38.1 8.8 15.9 0 24.6-4.3 41-20.3 19-18.6 25.8-39.6 18.9-58.4-3-7.8-5-16.2-8.4-36.8a87.1 87.1 0 0 0-5.7-19.2 63.3 63.3 0 0 0-30-25.3Zm469 198.7c-2.3-2.4-8.7 1.8-8.7 6v3.4l3.1-3.3c1.7-1.9 4-3.6 5-4 1.3-.5 1.5-1.2.6-2.1Zm-4.7-85.4c25-2.5 33.5 2 31.5 16.8-2.3 17.4-15 29.5-30.5 29.6-8.2 0-12.8-2.4-18.8-9.7a58 58 0 0 1-11.5-23.2c0-4.5 16.4-12.1 29.3-13.5Zm20.4 29c-4-1.6-8.6-1.2-16.4 1.3-15.7 5.5-12.9 15.6 3.1 10.8 2.8-.8 7.5-3.7 10.5-6.4 4.7-4.3 5.1-5 2.8-5.7Zm-494.6-3.6c1-1.5 10.2-1.8 10.2-.3 0 .8-2.4 1.3-5.4 1.3-3 0-5.1-.4-4.8-1Zm623.6-41.9a171 171 0 0 0-24-15.9c0 .6 5.6 6.4 12.4 13.1 12.5 12.3 22.6 18.5 44.4 27.5 4.5 1.7 11.6 5.4 16 8.2 5.3 3.5 7 4.2 5.2 2-4-4.4-17.9-13.7-35.1-23.6-8.5-4.8-17-9.8-19-11.3Zm-633.4-13.5c15.5-2.5 34.7 1.1 41.8 7.6l3.3 3.1-2.5 7.9c-3.8 11.4-10.8 23.4-15.9 26.8-5.7 4-17.9 4.2-25.2.4a38 38 0 0 1-18.1-27.9c-1.8-10.4 3.2-15.7 16.6-17.9Zm506.4 35.6c-1.2-1-12.4-2.5-17-2.1-12.8 1-28.3 7.2-26.2 10.8 1.5 2.3 7 1.9 23.5-1.9 14.3-3.3 21-5.6 19.7-6.8ZM636 160.7c-8.6-3.6-21.2-3.8-21.2-.4 0 1.6 9.2 9.4 12.9 10.8 4.8 1.9 13 1.5 15.9-.6 3.7-2.8 1.2-6.2-7.6-9.8Zm562.5-8.9c5.2-3 9.2-2.5 11.5.8 3.4 4.8 2.6 7-1.2 4s-7.4-2.5-10.7 1c-2 2.3-2 2.7 0 6 2.4 3.5 1.7 6.3-1.2 5.3-1-.4-2.5.2-3.5 1.4-2.9 3.5-4 2.3-3.2-3.7 1.2-7.6 3.9-12.5 8.3-14.8Zm-665.3-18.1c3.4 0 9 3.8 10.8 7.6l4.2 8.9c1.4 2.8 2.2 5.6 1.8 6.3-1.2 2.1-4.4 1.3-6.2-1.5-.9-1.5-2.8-2.7-4-2.7-3 0-3-2.4-.1-5.7 2.3-2.4 2.3-2.7-.8-5-4-3.4-8.8-3.3-11.2.2-1.2 1.6-2.3 2.1-2.8 1.3-1.2-1.8 1.2-6.2 4.3-8 1.2-.8 3-1.4 4-1.4Zm555.7 0c3 0 2.1 2.1-1.5 3.7-3.8 1.7-4.1 4.1-1.3 9.6 1.9 3.7 1.9 4-.4 4-6.3 0-7.3-7-2.1-13.2 1.8-2.3 4.2-4.1 5.3-4.1Zm6.4 10.6c1.9 0 3.7.6 4.1 1.4.4.8-.6 1.3-2.5 1.3s-3.7-.7-4.1-1.3c-.4-.8.6-1.4 2.5-1.4ZM653.1 135c-10.4-5.4-35.6-4.6-41.4 1.2-2.9 2.9 39.1 8.4 44.2 5.7 4.1-2.3 3.4-3.7-2.8-7Zm416.2-5.6c3.2-1.2 3.6-1.1 8.7 1.3 6.4 3 6.1 5.7-.5 4.8-4-.5-6.3 0-9.2 2.1-5 3.5-7 3.6-7 .4 0-2.5 4.6-7.3 8-8.6Zm45.8-5.6c5.2-5.2 10.4-6 16.8-2.8 4.2 2.2 7.6 5.8 6.2 7-.4.4-4 0-8-.9-6.8-1.6-7.6-1.5-12.2 1.2-7.2 4.3-9 1.6-2.8-4.5Zm-50.7-8.7c3-1.9 6.1-2.7 10.3-2.4 7.6.5 7.3 2.8-.6 4-3.3.4-7.8 2.1-10.1 3.7l-4 2.8v-2.6c0-1.8 1.7-3.9 4.4-5.5ZM656.8 97.8c6.4-3.5 7-3.5 12.7.3 5 3.3 7.3 8.6 3 7-4.2-1.7-10.9-2.5-14.1-1.7-2.7.7-3 1.6-3 7.2 0 5-.6 6.4-2.3 6.8-2.2.4-2.3-.3-1.6-5.5.8-5.2.4-6.1-2.7-8.6-3.5-2.7-3-5 1-3.5 1 .4 4.2-.5 7-2ZM642.5 111c1.8.1 1.6.5-.4 2a11 11 0 0 1-4.6 2c-1.8-.1-1.6-.5.4-2 1.4-1 3.6-2 4.6-2Zm506.2-61.3c-28.8-4-51.2 0-71.8 12.9-7.4 4.7-5.3 5 4.6.5 9.2-4.1 21.4-7.3 24.1-6.5 1 .4-1.2 2.5-5 4.8-3.5 2.3-6 4.3-5.5 4.3s6.9-1.8 14-3.9c7.2-2.1 14.8-4.1 16.9-4.4 3.7-.4 4 0 5.5 6.3 1.8 8 5.8 16.8 7.3 15.8.7-.2.5-2.1-.1-4-1.5-3.7-1.9-15.2-.6-15.2 2 0 20.6 13.4 27.5 19.9 4.3 3.9 8.1 7 8.4 6.5.4-.2-3-5-7.5-10.5s-8.6-11-9.4-12.4c-1.2-2.3-1-2.4 4.4-1.9 3.2.4 9.3 2.3 13.4 4.3 7.5 3.6 21.1 14.5 21.1 17 0 .7-3.5-.6-7.6-3-9-5-8.4-4.1 5 6.4 5.4 4.4 12.6 11.6 16 16.1 3.1 4.6 6 8 6.3 7.6 1.2-1.2-1.8-6.9-9.2-16.5-7.3-9.7-9.6-14.8-6.6-14.8 1.8 0 13.6 13.3 19.4 22.1 6.6 9.9 8.3 11.8 5.5 6.3a16.9 16.9 0 0 1-2-5.3c.5-2.8-.3-4.4-1.7-3.6-1 .5-1.1.4-.6-.6 1.8-2.9-5.7-14.6-14.8-22.9a113.9 113.9 0 0 0-57-25.3Zm-33.5 53.8a26 26 0 0 1 19.9 1.5c6.2 3 6.6 5.5.6 3.9-2.4-.7-9.3-1.1-15.3-1.1-11.5.1-12.8-1-5.2-4.3ZM601.2 93c5-2.8 12.5-2.4 16.7.8 4 3 4.8 7.3 1.2 6-5.8-2.3-13.5-2.4-17.5-.3-2.3 1.2-5 2.2-6.3 2.2-1.8 0-1.8-.4.2-3.4 1.2-1.8 3.8-4.2 5.7-5.3Zm-12.7-71.5c12-5.7 12.2-6.5.3-2.4a161.3 161.3 0 0 0-45.7 24.6c-6.4 5.4-7.1 4.5-3-3.8l2.7-5.6-4.4 4.8a97.8 97.8 0 0 0-7.3 8.7c-3 3.7-3.1 3.7-5.1 1.3-2.5-3.3-2.7-.8 0 2.7 3 4 2.5 7.2-1.3 7.2-3.5 0-4.4 1.9-1.9 3.5.8.5-.1 1.8-2.5 3.2a102 102 0 0 0-19 21.8c0 .6 2.4-.8 5.2-3 7-5.6 8.3-5.2 5.9 1.3-1 3-1.6 5.7-1.3 6.1.4.3 3.4-3.3 7-8.1 3.5-5 6.8-8.8 7.4-8.8.5 0 .1 2.8-1 6.3-2.9 9.8-1.6 9.6 5.1-1.1 3.5-5.5 7.9-11.3 9.7-13.2l3.6-3.3-.9 3.3c-.5 1.9-1.3 4.1-1.7 5.2-1.8 4.7 2.9-1 11.2-13.2a50 50 0 0 1 16.2-18c8.3-5.2 24.7-11.9 32.7-13.3 2.7-.6 5.3-1.5 5.7-2.3 1-1.5-10.5-.1-20.9 2.4-9.2 2.3-9.6 2.3-8.4.4a57 57 0 0 1 11.7-6.7Zm65.8 55.8c3.2-3.4 19.2 2.6 20.1 7.4.4 2 0 2-5.3-.4-3.2-1.4-8-2.6-10.7-2.6-4.8 0-6.7-2-4.1-4.4ZM597 75c5.8-3.2 18.5-3.7 22.2-1 4.3 3.2 1.2 4.6-8.2 4-7.8-.6-10-.2-15.4 2.6a28 28 0 0 1-6.4 2.7c0-2.3 3.6-6.1 7.8-8.3Zm75.3-20c-9.7-9-20.4-16-20.4-13.3 0 3.3 9.9 12.7 19 18 5.3 3 10 5.3 10.3 5 .4-.5-3.6-4.7-8.9-9.7ZM648 18.5c0-.6-.8-.7-1.6-.6-1 0-7 .7-13.7 1.4-6.6.6-13.8 1.7-16 2.4-3.8.9-3.6 1 2 1.2 5 .2 12.4 1.7 36 7.3 1.8.4-.8-1.2-5.9-3.7l-9.2-4.4 4.3-1.5c2.2-.8 4.1-1.7 4.1-2.1Z" />
</svg>