<svg xmlns="http://www.w3.org/2000/svg" fill="none" viewBox="0 0 2011 1181">
    <path fill="oklch(100% 0.22 112)"
        d="m1070 665 3 13-8 4-32-5-62 15-38 11-57-11-34-33 9-18zM945 427v20l13 19 20 9 27-9 15-12 5-19-5-17 3-6 63 15 29 33 28 22-5 16-30 34-13 9-23-19-4 33-6 35v10l6 40-209-22 11-30 9-15v-75l-24 16-14-39-15-21-10-12v-2l35-16 34-19h40zM269 146c21-3 51 2 58 25s7 35 0 47-34 34-58 25c-23-8-33-25-35-33-1-8-3-29 5-39 4-8 14-24 30-25" />
    <path fill="oklch(10% 0.07 257)"
        d="M888 1039q10-4 19 0c6 3 13 9 13 12q0 6-8-2-9-10-20-7-16 4-4-3m434-17c5-1 19 0 24 3q7 4-5 1c-7-2-18-1-25 1l-7 2z" />
    <path fill="oklch(10% 0.07 257)"
        d="M1320 1015c11-2 25 0 25 4q1 3-6 0c-5-3-14-3-18 0q-2 2-4 1-2-2 3-5m-738-19 2 2q0 3-2 3l-1-3zm398-170v5c-1 5-8 17-11 18q-3 0 6-14zm-43 0 1 17c-3-4-4-14-3-20l1-5zm-409-26v-4c2 1 9 20 7 19-2 0-6-9-7-15m31-3q4-11 4-1c-1 5-5 16-7 16zm1148-5q2-3 2-1 1 6-5 12-8 9-2-1zm-27-6 1 3 1 7q1 6-1 4l-2-7q-1-7 1-7m-379 42q9-12 3 1-3 5-6 5zm-34-5q-2-7 4 2t2 8-6-10m194-52q-9-11 5 3l10 12c-1 1-8-7-15-15" />
    <path fill="oklch(10% 0.07 257)" fill-rule="evenodd"
        d="M1513 587c9-3 22 8 30 24q10 24 3 50-6 15-17 17-21-1-30-39-3-16 0-30 5-18 14-22m9 6q-10-5-18 11c-7 20 2 57 16 65q10 4 1-3c-9-8-15-24-15-40q1-13 3-3c0 4 5 13 5 9q0-2 4-1c3 1 4 0 6-14l3-11c1-2 7 2 10 7l2 3q1-5-9-14-3-5-10-4-6 0-4-2l5-2q4 0 1-1"
        clip-rule="evenodd" />
    <path fill="oklch(10% 0.07 257)"
        d="M1491 511q-2-6 2 1l-1-1M559 682c-2-2 8 0 15 3 9 5 33 33 30 35q-1 1-4-3l-8-9q-5-5-4-6v-3c-3-4-17-12-23-14zm793-80q21-12 10-4c-7 7-37 23-39 21l8-5zm-87-96q5 20 0 12l-2-14-1-9zm9-17 1-17v34zm114 5q14-6 6 0l-9 3q-7 1 3-3m-43-6 10 3 8 6c-3 0-17-7-18-9" />
    <path fill="oklch(10% 0.07 257)"
        d="M1419 452c2-1 2 7 1 12q-2 9-12 19-11 10-1-2c6-7 11-19 11-25zm-91-11v9q1 15 7 25l1 3c-2 0-9-15-10-23v-10zm286 231q-11-6 10 0 24 5 6 3zm81-15q15-4 16-2l-9 4-26 6c0-1 11-6 19-8m-32-25q12-8 3 0-13 11-30 18-17 6-14 3l3-1c4 0 31-14 38-20m21 0 13-11-25 24zm-40-161q2-3 3 4 2 17 12 25 12 11-1 2c-9-7-16-25-14-31M589 641q-5-5 4 0c7 5 22 12 35 16 14 4 20 5 33 2q2 0-4 3c-9 4-27 7-33 5q-6-2 4-2l6-1-10-4c-11-4-30-14-35-19m450-14q6-4 1 1-1 2-3 1zm6-71c2 0-5 7-12 13q-11 10-20 7l-20-10 13 4 8 3q9 4 23-10zm-69 5q9-3 12 0l4 2h-8l-14 2-8 3c-3-1 6-5 14-7m38-88q19-16-4 7c-10 12-30 29-33 29q-4 0 7-8c10-7 22-17 22-19l-6 1q-13 4-1-2zm-125 20 1-1q1 2-1 3h-1zm142-72q5 2 5 15a35 35 0 0 1-6 21l1-8c2-9 3-22 1-26zM570 529l7 9 11 18 5 10-3-3-7-10c-5-7-13-21-13-24m80 11-4 6q-6 4 0-3z" />
    <path fill="oklch(10% 0.07 257)" fill-rule="evenodd"
        d="M1672 430q3-2 11-2c13 1 32 4 32 6 1 2-9 18-13 20q-18 10-29-15c-3-7-3-7-1-9m15 17-4 1q-4 2 2 4 9 4 13 1t-4-5zm3-15q-14-1-11 1c4 4 21 7 26 4l3-2-3-1z"
        clip-rule="evenodd" />
    <path fill="oklch(10% 0.07 257)"
        d="M1741 420q4-5 6-2 1 2-2 2-3 1-3 4c0 3-2 8-4 7q-1-3 3-11m-107-12c3-3 9 4 10 12q1 5-2 4-6-1-4-6 3-6-2-6-5-1-2-4m68 5q-2-5 1-3 5 6-1 11-3 1-1-2zm-10 4 2 1q1 2-2 2l-1-2zm25-17q6 1 8 6 0 3-4 0-1-2-2 1-3 4-7 0-2-1 1-4zm-48-1c6-7 15-2 9 5l-2 3-3-3q-2-3-3-2l-2 1q-2-1 1-4m45-15c0-3 9-2 13 1q8 8-3 3l-8-3zm-43-5q6-3 9-1 6 2-4 5l-10 1q-4 2-1-1zM597 428q3 0 2 1h-4z" />
    <path fill="oklch(10% 0.07 257)" fill-rule="evenodd"
        d="m583 394 19-2 14 1q9 2 0 20c-7 12-21 15-31 7-6-4-14-19-12-22zm22 19c-14 1-22 8-9 8 6 0 15-4 14-7zm6-16c-3-1-21-2-26 0q-6 2-1 5c5 1 17 0 24-3q7-1 3-2"
        clip-rule="evenodd" />
    <path fill="oklch(10% 0.07 257)"
        d="M656 382q4-5 6-2l2 3q0 3-2 1c-3-3-7 2-5 5q3 4 0 4t-3 2q-3 6-3-4 1-5 5-9m-70-8q3-3 4-1l-2 3q-3 3 0 5 2 6-3 2-4-3 1-9m10 7 2 1-1 2q-3 0-3-2zm-31-17q4-6 10-1t1 6l-2 1-2 2q-3 0-3-2l-2-2-2 1-1 1q-4-1 1-6m49-2q5-5 11 1 4 7-2 4-2-5-3 0c-2 3-8 3-8 0zm-52-16q5-4 9-3 8 1 1 3-4 0-8 3-9 5-2-3m52-4q4-5 11 0 8 6 6 8l-3-1c-1-2-9-5-13-5q-6-1-1-2m23-8 3 1 6 4q4 1 1 2c-2 0-9-4-10-7m-5-10 12 4c0 1-7 0-11-3q-3-1-1-1m-61-8c3-2 12-3 9-1-2 2-10 5-11 4zm45-3 4 1 6 2 4 1-5 1-5-1-4-1-3-2zm-32-5c1 0 4 5 3 6q-3 1-5-5zm30 0q6 0-1 2c-4 3-13 4-11 2l5-3zm-15 0q6-7 2 1l-3 4q-2 0 1-5m-8-3q3-4 2 3l-1 4c-2 0-2-6-1-7" />
    <path fill="oklch(10% 0.07 257)" fill-rule="evenodd"
        d="M983 375c17 0 21 0 23 2q3 3 1 6l-4 8c-4 12-17 22-29 22q-8 0-17-8c-5-6-14-22-13-25q1-3 9-4zm9 24c-4-2-22 0-26 3q-5 4 3 6 9 3 19-4 6-4 4-5m-8-21c-8-1-28 1-30 3-5 5 23 7 36 2q12-5 3-5z"
        clip-rule="evenodd" />
    <path fill="oklch(10% 0.07 257)"
        d="M1053 350q4-4 7-2c3 1 3 8 1 8l-1-2c0-2-5-1-7 1v13q-2 4-3 0-1-3-2 0-2 5-2-3 1-10 7-15m-88-2q3 0-1 4-3 5 1 9 3 5-2 3-7-5-2-12zm11 12q3 1 1 3-4 1-3-2zm-37-27c6-2 13 3 13 8h-2q-2-2-3 1c-1 5-6 3-7-1v-4l-4 3q-7 4-6 1c0-3 6-8 9-8m57 2q7-6 15-1l3 6q1 5-5-1l-3-3-1 3q0 4-4 4-3 1-4-1l-2-1c-3 2-2-3 1-6m-67-21c5-5 6-5 12-5q14 3 3 4l-12 3-7 3zm68-6c7-2 19 1 22 7q3 5-5 1-6-3-13-3-8 1-8-2 0-2 4-3m378 127h2-4z" />
    <path fill="oklch(10% 0.07 257)" fill-rule="evenodd"
        d="M1351 400c1-2 3-2 20-1 23 1 30 2 31 4s-5 14-9 19a21 21 0 0 1-35-2c-4-7-8-17-7-20m35 21c-4-2-16-2-19 0q-3 2 2 4c6 3 7 3 14 0q7-2 3-4m5-18c-5-1-27-2-30-1l-3 1 4 2q10 5 25 3 12-3 4-5"
        clip-rule="evenodd" />
    <path fill="oklch(10% 0.07 257)"
        d="M1440 385q5-6 7-2 4 3-2 4-4-1-4 5c0 5-5 10-7 8s2-11 6-15m-67-11q3 0-1 5-6 3-1 8 5 2-1 2-6-3-1-12zm8 12q3 0 3 2l-3 1-3-1zm23-24c2 0 8 6 8 9q1 3-3-1l-4-3v4q-4 6-8 0-3-2 2-6zm-57 0 6-2c3 0 9 7 7 9l-1-1q-2-4-4 1-3 5-6 0 0-3-3-2-4 1 1-5m57-20c4 0 12 5 13 8q1 5-4 1l-9-4q-9-1-5-3zm-50-2q10 2 2 4l-9 2q-14 5-1-4zm72-8q0-3 3 2l6 7q7 5 0 2-8-4-9-11m-82-14q6-7 4-1c-3 4-15 13-15 11l7-7zm43-8c2 0 1 6-2 9-5 7-8 2-2-5zm34-30q4 0 7 4 8 8-1 3l-7-6q-3-1 1-1M311 195q5-6 3-1l-1 7q-1 6 5 5l5 2q1 1-1 1l-6 1q-4 0-4 3l-2 7q-5 6 4 1 4 0-1 4c-3 3-23 12-24 12-2-1 10-11 13-12l4-6q3-4 3-13zm-35-42q6 0-1 2-10 3-10 7 1 5 9 6l11 6-9-2h-9q-3 2-2-1l-2-4q-3-2-2-4 0-2-6 1-12 7-2-1 8-7 15-9z" />
    <path fill="oklch(10% 0.07 257)" fill-rule="evenodd"
        d="M602 1c17-2 53-1 64 2 22 6 34 14 44 29 11 18 11 45 0 64-3 5-16 18-17 18l-6 4c-6 4-22 11-35 14-14 3-26 5-59 7-36 2-39 3-56 6q-20 4-35 10-10 5-8 9 6 5-7 15l-10 9 3 4c4 7 4 24 0 34l-2 10c0 5 13 35 21 50 12 22 17 32 20 45q2 13 7 22l8 14q2 6 5 6 3 1 1-5v-32q2-4-1-2l-3 8q-1 6-3 4c-3-2 1-13 7-19l8-10c4-6 15-15 22-19q32-15 62-1l8 4 1-3c3-7 15-17 20-17l4-2q4-5 4 1-1 4-8 5c-4 0-16 12-16 16l2 3 6 3q4 4 7 2l8-1h6l-8 2q-13 5-1 7t18 10q5 9-4 1-7-5-3 1l6 14q7 17 19 23 12 4 23-2 9-6 8-1c0 2-10 10-15 11l-4 2c0 1-8 4-15 4q-16-1-26-16-5-10-6 2l1 7c4 3 5 12 3 19-2 9-10 18-18 19q-6 1-8 5l-6 9q-5 8-4 9l8 2 17 4c19 4 25 6 33 14l13 15q6 9 18 19c13 12 15 14 11 23-1 3 0 4 8 14l11 14 2 5 1-9q3-23 8-35 2-5 13-13l23-18 13-10-1-8q-1-12 5-16l15-6 23-12 22-13-2-4c-3-6-2-18 1-26l8-13 9-14c2-7 2-9 2-19q-1-17 3-30h-1q-6 8-7 23-1 16-3-2-2-15 8-28l11-18c12-24 39-42 60-40q7 2 13-1c8-3 22-2 32 1q31 10 52 36 12 16 29 18 24 5 39-16c11-15 33-26 49-26h7l-7 1q-24 5-41 25-22 30-49 23l-9-1 7 6q14 11 31 10c10-1 14-3 30-12 15-9 26-12 43-12 13 1 16 1 21 4q7 3 7 5l-3-1q-13-5-30 0l-9 3 7 1q17 1 30 13 12 12 9 21 0 4-2-2c-2-8-16-16-29-16-6 0-18 5-28 11q-21 12-1 10 19 0 31 8c6 5 16 15 21 22s8 20 7 25l-1 3-1-5c-2-5-9-14-15-17l-4-3 4 7c6 9 8 22 6 30l-4 7q-2 4-1-3l1-6v-1l1-6c-2-15-15-26-30-27q-10 0-4 1c6 2 17 9 20 12l6 10c5 7 5 7 4 15-2 9-5 14-4 5q1-26-35-29h-11l1 2c3 0 14 9 18 15 6 9 9 26 7 34l-4 9-4 4 1-7 1-7-3 7q-7 13-12 15-4 1-1-3 5-5-1-14c-3-6-7-6-21-3-11 3-14 3-20 2l-7-1 5 3q9 5 22 1 18-6 1 4c-9 4-12 5-19 5l-9 1 25 23c12 9 13 10 9 21l-2 7 7 7 24 25 5-7q5-7 17-16l12-10 1-7q0-8 3-11l16-10q13-7 18-12c11-10 27-23 32-24l29-5 25-3q3 0-1-6-3-4-4-9t-4-5c-11-3-20-26-14-37l3-5q1-1-1-6-2-4-2-12v-9l-5-3q-7-2-6-6-1-4 3-3 7 1 11-11 4-18 18-24 5-2 2-4-5-4-3-12 3-7 5-3c0 2 7 5 13 5q6 0 16-5 11-4 17-4 8 0 5-2-2-5 1-6c5 0 16 7 18 10q2 5 5 3l9-1q12-1 20 9c4 4 7 13 6 16s15 11 20 10q4-2 3 2 0 4-4 7c-3 4-4 4-1 8l3 16 2 15c1 3-3 8-5 6q-2 0-4 6-3 7-1 13 3 10-4 21-7 12-18 14-5 1-8 7l-5 7-3 3 11 3c15 3 32 9 38 11 4 3 13 11 13 13q2 6 9 7c7 0 20 5 30 12 8 6 24 21 30 30l3 5 10-8 27-26c13-14 15-14 52-18l15-2-1-3-5-8q-2-6-6-6-3 0-3-2t-5-4c-6-4-12-16-10-24l2-8q3-2-3-7-4-3-2-7 3-5 0-5c-4-3-2-10 4-12q1-1-2-4-5-6 0-11 3-4 5-1 4 5 3 0 1-3-1-6l-1-5q3-4 7-3l5-1q4-2 1-4c-5-4 1-13 9-13q5-1 6 2l2 4 1-3 3-3 4-1q5-4-2-4-3 2-3-1c0-5 14-8 18-4q4 3-2 3l-3 2 3 1q2 0 2 2v2q5-2 6-5l5-1q7-2 10 3l3 2q0-3 5-2 10 0 13 6 1 3 4 4 2 0-1-3-7-7-5-8c1-2 9-2 12 1q4 2 2 9v7l5-1c9-3 17 7 11 13q-3 5 3 6l5 2q3 6-1 12-3 2 1 6 7 8 1 12-3 2-2 8 1 4-1 6-7 5-5 13v12c-2 8-11 18-15 18l-4 2c0 2-9 13-15 18l-4 4 15 4c21 7 26 10 34 22q7 10 7 6 1-8 7-11l7-2c3 1 4 0 8-17l4-11-4-3q-6-7-7-14l4-15 13-44 58-185q11-12 32-1 12 6 12 17c0 3-5 23-12 45l-17 56-19 64-23 77q-5 7-14 8-2-1-6 11l-4 13 4 6c4 4 5 5 5 13q1 8-2 17c-3 9-3 9 4 22 4 10 4 10 3 19-2 17-14 34-22 34l-12-4-8-4-7 32q-1 7-3 9c-5 5-18 4-22-2q-5-5 2-16c4-9 12-35 11-38l-5-1c-5 1-6 1-11-5l-6-5a404 404 0 0 0-13 61l2 18 3 21c2 10 2 11-1 15s-3 4-1 10l3 18 5 25c3 10 4 14 3 22v9l3-4 6-3 5-4q4-7 7-3l3 2 1-9q0-8 4-11 3-4 3-9 0-4 3-8 5-7 11-8 3 0 2-7l-1-9c-2-2 0-11 2-14l6-5q4-2 4-5c1-5 9-11 16-12q6-1 5 1l-2 1-9 4q-9 4-7 10 2 8-3 5-3-2-5 2-6 7-2 11 3 3 1 6t1 9q2 6 6 4 7 0 1 4h-8q-8-3-13 2-5 3-3 9 2 7-4 10c-4 4-4 4-4 16q1 17-5 8l-4-2c-2 0-11 8-12 11q-2 2-3 1l-6 3q-3 3-4 2 0-2-9 4c-9 4-10 4-10 9l-2 13c-2 5-3 16-4 25-3 22-5 31-16 56a145 145 0 0 0-13 39q-1 8 4 6 11 1 18 9l4 11q3 12-7 25c-4 6-17 13-26 15q-4 0-9 5-7 8-20 8-16 0-24-8c-3-3-4-4-3-11l4-17 4-19q1-16 6-18c2-1 6-12 6-20l2-7 3-25c1-23 2-24 9-45s7-21 6-33q0-13-4-13c-4-1-9-8-10-13v-10q2-14-1-17c-1-2-6 18-7 29q-2 13-9 16-2 0-5 10-7 34-18 40-8 6-9 22c0 21-11 37-25 37q-17-1-23-26c-2-8-2-9 2-22l5-26c1-15 3-20 8-24l4-8c0-4 0-4-8 4a69 69 0 0 1-57 19q-30-7-53-33l-9-10q-2 1-4 32c-1 17-1 18-4 21q-4 3-12 5l-9 3-3 11-6 18-5 19c-3 27-7 38-25 68l-10 18-2 8q-6 10-2 9 5 1 4 10 0 4-5 9l-4 5 2 10 4 13c6 10 7 13 7 21q-1 10 3 7l11-6q15-4 8 0l-12 11c2 1 20-4 27-8l7-2 3 1c3 0-3 6-11 10l-14 9c-14 11-17 13-20 12l-3-2 9-8q20-16-4-4-11 6-29 19h-4q-2-1 6-9l16-12 7-5-11 4q-19 11-30 12-8-1-3-3c5-1 20-9 19-9l-6 1-9 2-16 7q-14 7-16 5-4 0 4-8 6-5 5-6l-10 6q-14 10-15 5 0-2-7 3-10 6-11 2l11-10 10-9c-3 0-13 5-22 12q-13 9-14 7c0-2 1-3 11-10q14-10-3-10-9 0-11-3l-12-7-2-2c1-2 11 1 21 5l7 3-8-9-8-10q-1-4 12 5 23 17 12 4-6-8-3-8l8 7q5 5 9 6 3 1-1-3l-3-5c1-2 11 3 15 6q2 2 2-4l1-9q1-4-1-6-5-5 1-24 4-13 4-22-1-14 9-17c4-2 5-3 7-11l5-11c2-3 4-11 6-32 2-18 5-27 12-41 4-7 4-10 5-24l3-22q3-13-2-16-6-3-4-10 2-8-2-2l-6 4c-4 2-4 2-3 8q2 14-6 31c-4 8-4 10-5 27-1 20-4 28-13 38q-9 10-20 10-28-1-31-37c-1-10 0-16 5-33 4-11 3-15 0-20q-7-8-7-18c0-5 0-5-6-8l-11-7-4-4v-10l5-25q4-15 4-25 0-11 4-21l4-12-5-2q-8-4-11-13c-1-4-2-5-20-6-10-1-11-1-14 2q-4 4-9 4l-20 2-6-1q-5-2-9 2-12 6-21-11l-2-5-24-2c-33-3-30-4-30 4q2 7-3 10l-3 4 2 9c5 23 4 41-5 65-5 14-7 21-9 36-3 21-4 25-13 31q-9 8-28 9l-13 1-3 11-5 22-1 16-2 15c-2 24-6 36-26 76a206 206 0 0 0-20 45l-4 8 3 3q7 9-2 21c-4 8-5 12-7 35-2 16-4 32-6 37q0 2 7-5c10-9 20-16 21-15l-5 9q-14 20 7 2 27-24 35-28c5-2 3 0-12 16l-18 19q2 1 12-5c10-6 34-15 39-15q4 1-9 8c-8 5-17 13-13 12 13-5 46-12 46-10l-14 12-12 10 15-4q37-12 6 2l-48 22-1-2 31-27q7-5 1-4l-42 15q-3 0 1-3 5-6 1-7l-1 2q0 2-6 6l-10 9c-8 7-20 18-26 21q-9 6-10 2l20-16 12-10 3-3h-4q-12 1-22 6l-6 3c-2 0-12 5-13 7l7-2 15-4c5-1 4 0-18 11-24 12-29 14-30 13q-3-2 10-11 13-8 9-8c-3 0-24 11-33 17q-8 6-10 4c-3-2-2-2 3-8l10-8 4-4q-3-1-22 12-15 12-15 7c0-1 11-15 15-17l1-2q-4 1-12 7l-10 5-11 7q-10 8-11 3l9-10 8-10q-1-1-3 1-5 4-8 1l-4-1-9-4q-6-3-8-1-4 2 3 4 10 4 7 7-4 3-13-1-7-4-9-1l-4 4-4 4q-7 5-6 0 1-3-19-9l-7-3q3-4 20 2l11 4 3-3 4-3-11-4q-22-12 6-4 16 5 14-1 1-6 13-3c5 2 5 2 8-1 10-9 17-10 9-1l-6 6c0 1 12 4 13 3l-3-3q-8-5 1-5h5v3c2 1 8-3 10-8q2-4 9-3 11-1 6 3v3q1 2 8-2 6-4 14-4 12-2 4 4-6 5 5 1l14-3q7 1 10-1 3-3-3-1-7 1-23-2c-24-4-28-6-28-17v-6l-6-2q-15-4-20-15c-3-6-3-7-1-15q8-29 28-32 4-1 8-7c2-5 3-6 1-11q-2-6 1-10 4-10 11-9 3 3 5-10l3-9c3-4 7-25 8-46l1-17 2-9 6-24c7-23 7-23 2-18-7 9-21 20-27 23q-5 3-15 2-16-1-24-13c-7-9-13-32-13-54v-11l-9-9c-10-11-10-12-3-35 4-16 4-16 5-43v-26l5-14 11-22 4-8-3-5c-4-5-4-5-1-14l3-7-14-1c-13-1-14-1-14 2-3 6-16 13-21 11l-3-4q0-2-12-3l-14-2-9-2q-8-2-12-9c0-2-14-4-32-5l-13-2-4 3c-2 2-2 3 1 12q5 12 0 17-3 2 1 8 10 24 7 59-3 22 6 27c11 7 14 14 13 33q0 13 3 23 4 16 1 28-5 18-14 23-4 5-13 4c-8 0-9 0-14-4l-7-10-2-7-9 1q-14 2-23-10c-4-4-11-23-17-42q0-7-7-10c-7-4-7-4-7-12 0-11-3-30-4-30q-3 1-3 22 1 20-9 27-4 4-13 5c-6 1-6 25-1 45 3 13 4 16 3 37v55c2 22 1 21 6 26 3 5 4 9 5 24l2 21 3 19c1 7 0 8-4 11-14 12-40 11-49-3q-2-4-6-5l-10-2q-27-7-27-34 2-27 27-29 7 1 4-3-3-6 1-10l3-3-4-10-4-17-7-24-6-22-3-32 1-8-11-11c-18-19-47-57-52-70q-6-13 11 12c18 27 24 34 43 55l9 10-1-15-1-23c1-12 0-14-5-15-8-3-20-18-20-25l6-20c5-15 7-22 8-37q2-13 6-20 6-8 0-12l-4-6 7-26q4-5-2-5-18-3-19-29c0-19 11-35 23-35h4v-37c0-30-1-37-3-43-4-13-19-38-28-46-6-6-7-9-4-18l6-13 3-5-7-18-6-19-5-9c-10-16-12-21-24-66l-5-18-4 3c-4 4-5 4-12 2q-16-7-18-22c0-4 4-13 8-18q4-2 1-8-4-11-1-15l2-6 4-6 3-6 4-4 4-4q2-5 8-9l6 1q3 3 10-9l10-11q7-3 12 0 2 2 9-3l18-7c22-8 33-9 101-14q55-4 79-26 16-15 19-39 2-45-51-59a261 261 0 0 0-134 16 523 523 0 0 0-175 105l-3 1-7 8-14 14-6 7 3 4c7 9 9 16 9 31 0 12 0 14-4 22a55 55 0 0 1-56 31q-28-6-41-30c-4-8-4-10-4-23 0-12 0-15 3-21 5-11 17-23 27-28 18-7 40-5 56 7q3 4 10-4a313 313 0 0 1 39-33c0-2 27-23 49-38C476 34 542 8 602 1m248 1154q0-3-5 3l-2 3c2 0 7-5 7-6m105-27c-2 0-16 13-15 14s10-6 13-10zm-12-1q5-12-5 2l-7 9c-2 4 9-7 12-11m-63-51c-15-4-34-1-38 5q-2 5 4 2c5-4 19-4 32-1q28 8 40 26 7 10 2 12-5 1 1 4 3 3 4 1 4-3-3-16c-7-15-24-28-42-33m31-38q-9-7-23-3-8 3-9 6l-3 6q-3 5 5 1c7-4 26 0 32 7q6 8-4 2-9-8-18-8-10 1 2 4 13 4 22 14 7 10-4 1-14-13-32-13-17-2-25 6-6 6-8 12l9-1c7-2 9-2 20 0q31 6 48 31l5 7v-11l1-12c2 0 2-22 0-28v-8q2-1 3 3l2 4 4-6q7-10 1-15-7-6-12 0-3 3-1 4l5 1 1 1-5 1q-7-2-3 2v6l-4-6q-3-5-9-8m380 30-11 8c0 1 7-3 10-6zm8-18h-2q-1 2 1 4c2 3 3 3 12 2h41q20 2 0-4c-9-2-14-2-24-1zm10-70q-7-6-7 8l-2 17q-5 16-2 17l2-2 1-2v7c-3 21-3 21-1 22 2 2 5 2 29 0 3-1 12 0 19 1l13 2c1 0-1-12-4-15q-4-8-6-19 0-9-6-9-3-2-2 2l1 4-5-2q-11-5-18 0-5 3-5 0c0-3 11-6 19-5q9 2 2-3-6-4-16 0-9 3-8 1 2-4 14-7 10-1 4-3c-6 1-19 4-18 5l-2 2q-4-3 1-7 4 0 2-6l-1-5zm-402 33c-12 0-14 1-14 10v7l9 1q9 0 13 4 6 6 7 1c4-5 7-13 6-14l-6-5zm-21 7q-3-3-5 1c-3 2-3 10-1 13q-1 2 5-1 5-1 3-7zm40-23c-8-3-21-4-26-1q-3 0-3 4-1 2 6 2l7 1-6 1q-18 4 1 4c8-1 10 0 16 3l11 7q4 3 1 7-2 5 2 4 3 0 4-4c1-4 0-5-6-11q-8-8-4-6l8 5q6 6 7 1 2-2-5-8-6-6-13-9m-336 14-10-4c0 2 20 16 20 15q2-4-10-11m-1-50q-9-7-11-1-1 4 2 4 4 3 1 5l-4-2c-4-2-13-4-11-2l2 1q5 2 5 5l-5-2-6-3q-3 1 2 4l4 4q1 3-7-1l-12-6c-12-4-26 0-31 8q-5 8 3 3c11-6 28-4 40 3l15 14 12 12 8 4 3 2-3-16q-3-16-7-21-6-12 0-5 4 7 4-2 0-3-4-8m769 29q-1-6-8 2-6 4-1 6 4 3-4 1h-7l6 4q7 3 6 1l4-7q4-3 4-7M982 748c-15-1-23 2-35 12-6 6-7 7-11 21l-7 23c-6 17-7 24-6 47 0 22 0 23-5 41l-6 20a485 485 0 0 0-8 62c-2 17-3 16 4 15q15-1 30 9l8 5 15-29 18-40q6-17 9-54c2-28 8-45 26-68l10-14-1-9q-1-26-24-38-6-3-17-3M538 977q-13 0-21 7-6 6 2 2 8-6 22-5 15 2 26 12l7 5c1-2-12-13-19-17q-9-4-17-4m786-1q-5 1-6 8c0 8 1 8 14 8 10 0 12 0 14-2q3-7-1-10l-11-2zm318-8q8-8 1-3l-10 5q-9 5-9 9zm-319-8q-5-7-5 1l-2 9q-3 5-2 7l4-3q5-3 3-4l-1-3 2 1 14 4 13 5q3 2 4-1l2-4q4-3-8-2l-15-3zm327-35c-3-5-17 5-17 11q-1 5 3 2 5-5 0 3l-5 12-3 12-2 5 8-4q8-3 15-12c7-7 17-15 17-12l-1 2c-2 0-15 12-15 13l6-3c12-10 28-14 39-10q6 2 7 5 2 2 3 1c1-2-8-9-13-10h-13q-11 2-6-1c4-3 18-3 24 0q8 3 4-1-2-4-8-7-12-5-28 3l-9 4 1-3q0-3-2-1-4 2-3-1l4-1q3 1 6-1 4-3-3-2-10 2-13 5l-3 2 3-5q4-4 4-6m-298-100c-2-1-6 18-6 30 0 10 0 13-3 20-11 26-11 25-14 49q-1 12-4 21c-2 8-2 8 2 11q10 11 24 10c4-1 5-3 16-22 20-35 23-41 26-66q0-9 4-17l5-14 1-6q2-3-4-2c-6 1-27-4-37-9zM568 959c0-1-9-1-13 1l-3 1c1 1 16 0 16-2m5-14c-2-2-13-2-19 0q-11 5-9 9l1 5 5-2q4-3 10-3 7 0 9 4l4 3zm5-20q-10-5-23-1-11 4-8 11 2 10 5 6l11-2c8-1 9-1 13 3l4 7q1 4 5 4l-1-13-1-12zm1090 0c0-2-6-2-9 1h8zM579 913c-9-6-28-4-36 4q-3 2-1 5l2 4 9-3q13-6 25-1l6 3v-4q1-5-5-8m1095 2c-4-2-14-4-19-3l-2 3v5q-2 7 4 3c4-3 12-3 15 0q3 3 4 1 3-6-2-9m-408-56c-7-1-7 0-7 19 0 12 0 15 3 20q6 12 20 13c7 1 8 1 14-4q6-4 10-12c3-7 4-9 4-21v-12l-5-1q-4-1-5 4 0 9-7 5-11-4-17-1-5 3 10 4l12 3q4 5-5 2l-16-1-10-1 4-2q2 0 2-4l2-6h18q8 1 0-3-4-3-12 0h-9zM566 735q-24-11-40 6-6 6-4 23c3 13 5 45 5 73l2 33 11 41 9-3c9-4 21-5 28-1l5 2v-8l2-19c1-13 0-22-5-45q-6-23 6-65 4-10 2-15c-3-7-13-18-21-22m1096 171c0-2-11-1-14 2h10zm8-8-9-2-14 4q-6 5 4 1 11-3 23 3l5 2q2-3-9-8m33-164c-9-2-14-1-24 4-5 3-14 11-17 16q-3 1 0 15 3 13 3 28c0 13 0 16-4 24-7 21-9 30-10 46l-2 21v5l5-1 9-1 17 6q1 4 4-3l5-12c12-26 15-36 17-54l1-14 4-15 3-16 4-17 2-13c0-5-1-6-6-11q-5-6-11-8m-864 96 3 37c3 15 7 21 15 27 5 3 7 3 15 4q10 0 16-4l10-8 5-5c3 0 11-12 11-16q-1-9-3 0c-2 5-7 11-7 8l3-16 3-17q1-5-3-3l-15 3q-31 5-48-6zm727-28c-3 0-5 10-6 22q0 11-4 22-6 18 1 33c7 14 24 14 31 0 2-5 6-26 4-27 0-1-5 4-5 6l-1 5c0 4 0 4-14 1l-7-2 1-5v-3c2 0 1-7-1-9v-8c-2-5-1-25 1-30zm17 58-13-2c-1 1 6 3 11 3q3 0 2-1m-869-97q-6-6-5 0 0 3-3 7l-3 4 4 3 5 10 2 5 2-2c2 0 0 15-2 20q-4 8 0 6 4-4 1 3-3 4-4 10v7l-9 2h-11q-1-2-4 1-4 1-2 5 4 18 19 16c17-3 25-28 17-53q-3-9-3-20 1-10-3-16-4-8-1-4l4 5 2 4c2 0-2-10-6-13m864 91q2-1-3-1-5 1-2 1zm-2-10q-3 0 0 1l5 1q4 0 1-1zm-884-59-5 3c-12 10-30 15-42 11l-7-1 3 11q5 18 12 26c3 2 11 6 15 6 5 0 12-4 13-7q0-7 3-6v4l5-4q13-14 13-27c0-6-2-13-4-13l-1 10q-2 15-5 16l-1-14zm599-19q-23 1-33 13c-5 4-5 2-1 31 2 21 20 33 40 28 12-4 17-10 23-29l6-21q2-6-3-10l-12-8c-7-3-10-4-20-4m285 25q-4-7-4 9 0 11-2 12c-2 1 3 13 7 17q16 14 28 2c5-5 6-7 10-20l4-15-8 2q-7 2-15 1c-7-1-18-5-20-8m-868 40-2-1c-4 0-11 3-8 3s9 0 10-2m128-67c0-22-4-29-4-11q0 16-6 35c-5 16-5 17 4 26q12 12 28 17 15 4 1-2c-10-3-20-10-21-14q-1-5 3-2c6 4 18 8 27 9q9 0 6-1l-7-1c-7 0-26-10-32-15q-6-6-4-9l2-9 1-5 4 9v-7zm596 21q2-19-1-8l-5 18q-1 2 1 2c3 0 3 7 0 10-7 6-29 11-42 9q-9 0-4 1c4 2 32 1 39-1q4-2 1 1-2 3-11 6-11 4-5 3c5 0 19-4 24-7 3-2 3-3 3-12zm-414-97c-16-1-27 2-42 10-9 5-25 18-30 25-4 5-11 21-14 31l-5 12c-4 8-5 19-2 22q2 3 1-4-2-6 2-12c6-13 28-27 46-30 9-1 11-1 20 1q17 4 31 17c10 10 21 31 22 46q2 13 3-5c0-9-4-23-10-33a74 74 0 0 0-47-34c-16-3-40 4-53 17l-6 4 4-10 4-11 9-10q21-22 55-24 12-1 20 1l8 2c1-1-10-5-19-6q-15-3-28 2h-1c3-4 17-8 29-8 10-1 14 0 21 2q16 4 3-2-6-3-21-3m476-216c-9-2-11-2-23 0q-49 6-68 72c-6 21-7 29-7 60 0 32 2 42 9 72 6 22 11 37 20 54q20 39 42 57c10 9 18 13 10 6q-14-11-23-23-6-10 9 6 11 12 17 15l4 2-3-3-3-4-8-11q-22-27-1-5 22 23 39 30 18 6 35-1c7-3 18-12 21-17q1-2-5 3-15 13-34 12c-10-1-14-2-22-6-13-6-30-22-40-38a293 293 0 0 1-42-191q11-63 47-81c6-3 9-3 20-3s13 0 21 4l14 7q8 5-2-4-13-9-27-13M704 781q-6-4-7-2l4 6 5 8q2 7 3 2-1-8-5-14m799-297c-38-12-68 19-78 80a282 282 0 0 0 24 157c8 16 12 24 24 38 28 36 62 44 86 20 20-19 32-58 32-101 0-39-4-67-16-102-16-48-44-84-72-92m-250 216q-3 0-4 5c-2 9-5 25-5 32l-5 25-5 21q1 3 3-1c6-8 25-19 39-22 14-4 33 0 45 10 7 5 15 15 15 20q0 3 1 2c4-3-1-16-10-25a56 56 0 0 0-56-13q-16 5-24 12l-5 3q-1-2 2-8l6-24 4-8q7-10-1-5-3 4-3-2-1-5 7-8 13-7 4-5l-5 3q-3 2-4-1l3-6q4-4 2-4zm326 77q-5-3-5-1c0 3 11 8 19 8l6 1-8-2zm-212-27q-8-7 4 9c7 11 23 27 25 25l-3-4-14-15zm-670-42q-8-4-2 1c4 4 4 4 2 10l-2 17-2 15v3l3-4q1-5 2-2 5 9-5 17c-5 6-18 13-21 13l-2 2q0 3 16-5 9-5 10-3 3 0 8-8 2-3-2-13c-2-9-3-13-2-26l1-15zm623 2q12 6 19 19c4 8 4 11 2 23-1 11 0 33 2 26l1-14 1-17v-14c-2-6-13-21-16-23l-7-2-6-1zm-407 38q5-6-13 8l-23 14q-10 5-8 7 1 2 10-3c9-6 31-22 34-26m-352-80c-8-3-20-4-25-2q-15 5-18 9c-2 3-4 13-2 13 1 0 5-5 5-7 2-6 25-10 34-6q6 1-5 1-17 1-30 15-8 7-8 13 0 8-5 18l-5 18-2 7 5-6q17-19 43-17 12 0 19 4c13 7 27 22 34 37l4 5v-6q-2-13-12-30l-4-8c2 0 8 8 12 16l3 8 6-23-2-8-9-18a79 79 0 0 0-38-33m1164 43v1l7 22-4-2c-5-4-16-9-24-10q-15-2-32 9-19 12-22 29l-1 6 4-8c11-19 32-32 50-30q20 4 32 18l3 3c0-3-7-29-10-33zm-672 3c8 11 9 14 7 28l-3 18q-1 10 6-9l3-14-4-12-8-12-4-3zm-424 11c10 11 27 24 37 28l7 2-8-6q-9-4-18-12l-16-13-7-5zm1001 1-7 5-12 11q-11 7-6 7c2 0 19-14 22-18zm-730 8q13-7-8 0l-16 3q-6-1-2 2c3 2 16-1 26-5m478-1q-7-3-8-1l3 1c11 4 14 5 17 4l4-1-4-1zm-437-24c-3 0-9 17-9 24q1 6 3-3zm411 18c1-6 1-17-1-14-1 3-2 20 0 20zm326-38q12-9 0-2c-11 5-35 34-33 39q1 6 3 0c1-5 15-19 24-25q16-10 29-10 12 0 2-3c-5-1-17 2-27 8q-19 9 2-7m-17 31-3 2q-2 3 1 0zm-602-32q-3-2 2 7 3 7 3 16l2 11q2 3 2-5 0-12-5-23zm-209-8c-3-1-14 22-17 36l-1 4 3-3 3-6 7-15 6-14zm801 17q-3 1-6 12-3 10 0 7 2 0 5-15zM641 707q-9-2 5 3 17 6 23 3l-11-3zm-36-21c-1 0-1 2 1 14q2 12 4 13c2 0 1-11-3-24q0-3-2-3m265 16q3-3 0-2c-3 0-16 9-14 10 1 1 12-5 14-8m379-60q-3 0-7 5l-5 5 3 2q4 2 3 11l-1 12v2l3 1c3 3 6-20 3-29v-3c5 0 5 23 1 35q-3 12 0 7l2-3h10q11 2 6 2l-7 3q-5 1 1 1l8-2c5-2 5-2 75 5l34 4q1 4-29 0a598 598 0 0 0-73-5l26 2 42 5c32 4 33 4 37-1 10-12 11-36 2-44l-17-3-81-8zm-557 30q-4-1-1 7l5 12 3 10q3 4 1-5l-3-16zm1037 27c0-2-5-7-6-5l5 7zm-872-53c-5-1-5-1-8 5l-3 7c0 6 20 22 38 31q24 12 47 10c15-1 21-2 44-11a140 140 0 0 1 92-10q4 2 2-5v-6l-38-4c-44-4-38-4-55 1-20 7-30 9-47 11l-14 2 7 3q14 3 8 4a111 111 0 0 1-55-21v-1l6 2c6 4 17 8 25 10 11 1 83-13 76-15l-44-5zm-179 45-5-4c0 3 14 14 16 12l-3-2zm661-258a397 397 0 0 1-59 6c-9 3-31 22-39 35l-4 5q-1-2 1-4l1-4-12 6q-13 8-13 11c-4 19 6 41 23 52l4 2 7-4 8-5-5-2-7-2q-1-2 9-1h11q5-1-2-4c-6-3-13-8-13-10l10 5 12 6 2-4q3-8 2 1l1 6c1 0 8-11 10-19q5-13 4-4c-2 8-9 24-11 27-3 3-3 3-1 16l8 35q0 3-3-4l-7-16q-3-9-4-7l-1 26-1 24-1-3q1-6-4 3c-3 5-9 25-9 29 0 2 3 3 26 5l104 12c8 6 12 22 8 36l-2 8 5-1 6-1-1-7a320 320 0 0 1-14-97l-9 6-9 6 9-9 11-8 2-13c5-45 26-84 51-97 9-5 22-9 29-9l5-1c0-3-10-13-16-15-4-3-41-10-47-10q-4-1-3 3l1 9c0 19-18 36-37 36-13 0-19-3-27-11-13-11-17-29-10-39q3-3 1-5m-98 253q-3-6-5-2c0 2 5 7 6 6zm482-2q-4 0 0 4 2 2 2-1zm-70-219h-4l-15 2c-17 1-24 2-31 7-6 3-15 12-18 18l-11 10c-8 6-18 13-17 14q20 14 29 32l3 6c1 0 9-11 9-13l2-29c1-1 3 17 2 22v6c4 0 10-17 10-31q0-14 1-4c2 5 0 20-3 33q-2 5 4-2l6-6-9 16c-15 30-15 32-11 60v4l-2-7q-2-9-5-3-2 4 1 16c2 17 6 55 5 61q-2 4 7 6c13 5 19 6 33 6 14-1 16-1 30-7 26-10 38-12 52-9q6 3 7 2l-1-14-2-16-1-11-2-7-3 4q-6 7-1-2c5-12 7-21 10-35l8-32 6-25 3-11q1-4 1 0l-1 12-1 10 5-10q4-8 6-8 1 3-7 17-6 10 2 5 14-9 2 4l-5 5 2 4 4 4 6-6 9-11q9-10 6-17-3-5-1-12 2-8-1-10l-11-14-12-13q-4-3-15-5l-13-5q-3-2-3 6c0 9-1 12-7 19q-10 10-18 10-3 1 2-2 20-9 21-25 0-10-4-10v12c-6 20-32 25-50 9q-10-8-11-19-1-5 2-8l3-3zm-515 208q-5 0 1 7 8 6 9 4t-2-2-4-4-4-5m-594-46c-22-3-20-4-24 11l-4 14q0 2 10 1c15-1 27 2 51 14 31 15 48 18 70 13 11-2 31-12 41-19q8-6 6-10l-3-9-2-5-7 4q-13 7-22 1l-10-2-32-4zm593-123-11 17-10 18 8 8q12 11 10 6c0-3 8-12 10-12l-2 4q-12 15-1 36c11 22 14 27 15 33 1 9 1 9-9 15-7 4-14 12-13 14 1 1 7 1 8-1q3-4 6 5c1 5 1 8-1 17q-4 15 4 14 6 1 8-11 3-12 5-10l-1 10c-3 13-3 13 1 14q6 1 10-12 7-16 3 1-5 15 4 9 3-3 5-9l4-8c2-2 2-3 0 9l-2 5q0 5 6-1c4-4 7-14 7-22q1-7-8-19c-4-6-6-15-8-39-2-23-4-31-7-41-4-12-4-12-23-32zm75 152q-7-1-6 2v5c-1 3-1 3 10 4l12 2h2q4-4 4-1l1 2q4 0 4-7l-1-4-10-1zm-367-36c-35-4-34-4-35 0q-3 8 3 7l9 2 14 2 25 3 22 2 40 4 41 4 155 15c25 2 25 2 24-5q0-5-3-5l-16-1-166-17-65-7zm421-84-10 4c-16 10-15 10-22 6l-5-3-6 2q-5 3-9 12-5 10-14 19l-10 10 2 16c1 21 2 25 8 33q5 7 5 11l1 3 13 2 12 1 4-6 9-8 6-2 3-13c2-7 5-17 8-22 4-8 4-9 4-22zM813 642c0-3-5-1-6 2q-1 4-6 4-7 3-2 4c4 0 14-7 14-10m14-184c-3 0-50 35-55 41q-3 3-6 12c-2 8-3 13-3 42v33l-4 5c-9 11-10 14-11 22-1 13 4 25 9 25q3 1 1-8v-9q2 0 3 4 2 15 9 17 2 2 2-10 0-20 3-3 1 14 7 15 7 5 6-12l1-11 1 6 2 12q1 6 5 5 8 1 7-14c0-9 3-24 5-24l2 3c2 3 9 4 8 0l-1-5-6-7-11-8q-6-6-4-10c2-16 3-23 7-34 4-9 5-13 5-22l-1-14v-3l3 6 4 5 29-20c0-3-9-24-14-34zm249 72-5 28-4 20-3 13 3 9 3 22 3 14a264 264 0 0 0 56 4c2-3 2-3-4-10q-11-9-9-16 0-11 12-21 7-6 7-8l-4-14-3-12-11-10-12-11-4 3c-6 4-8 3-17-4zM912 407q-19-3-24-1-12 5-28 15l-26 13-14 6 8 8c13 13 29 45 29 56v3l8-5 8-5q1-2-2-8l-6-23q1-1 3 4l8 13 6 9 1-4 2-17q2-17 3-14l-1 19c-1 20-1 23 8 50 3 12 6 17 13 29l3 5-4-4c-6-5-15-19-19-30l-3-8v7l-1 7c-2 1-2 16 0 30l2 33-4-10-2-8-3 5c-3 5-14 32-13 33l31 3 49 5 34 3 68 7 13 2 6 1-1-9c0-9-2-20-4-25q-1-1-3 5l-4 8c-2 2 0-9 3-17 3-10 7-29 8-40l1-10-6 12c-7 12-15 24-16 23l4-8c11-19 22-53 26-83l3-11c1 0 1 5-2 25q-5 26 8-2l7-12c2 0-5 16-9 21q-3 3 1 3l12-4 9-4c1 1-6 6-13 10l-9 5 7 7 7 7 5-4c6-4 22-21 28-29s13-21 12-22l-22-15q0 3-4-4c-5-9-23-28-30-32q-10-6-31-9l-17-3-8-2c-4 0-4-1-1 12 3 10-2 24-14 34-9 9-16 12-30 12-9 0-12-1-19-4q-21-11-23-37l-2-11q-4 2-3 18 2 25 27 39 10 6-3 1c-11-6-23-23-27-38l-6-15-4-9q1-2 5 6l3 4 2-5c1-6 1-6-4-11-4-5-5-5-16-6M683 627q-14-2-14 1l-2 4-2 2c0 2 15 1 17 0l5-3q8-3-4-4m-160-61c-12-2-20 12-19 32 1 13 3 16 15 17l105 11-9-2-66-7-28-4q-8 0-11-3-4-5 1-3l17 4 23 3 34 4 37 5 14 1q10 0 10 3 5 8 3-3l-1-12q3-17 6-21v6l-2 16q0 10 2 6l3-7q3-14 7-15c5-1 2-10-5-13l-54-8-64-8zm119 63q-6-3-4 0l3 1q4 0 1-1m496-37c-3 0-12 7-15 12-3 4-3 14-1 16q2 2 2-3l1-5q1-3 1 4c0 8 3 14 6 10l1-5 1-2 1 6q-2 11 6 0l7-5c4 2 2-9-4-19q-4-8-6-9m624 24q-5-1-7 2-4 7 0 6l8 1q6 3 6 1 3-5 0-8zm-1036-8c-19-2-20-2-23 2-5 6-6 6 18 8l17 2q5 3 5-4l-1-6zm149-104-10 6-12 6-8-4-5-3-25 15-1 8-5 18c-5 11-8 29-5 33q1 3 9 8 11 8 12 18 0 4 23 4l10 1 4-14 10-23 5-9-1-32zm911 38c0-3-5-4-6-1l-6 17-14 54 4 1c3 1 3 1 10-22zM675 602c-10-1-10-1-11 2q-3 8 0 7l4-1q9 3 15 0 6-5 4 0-1 4 4 2 15-4 3-6l-7-2zm82-27q-1-12-2-5-3 9-28 21l-17 9q-2 1 22 3l13 1 1-4 7-9c4-6 4-6 4-16m-39-59c-7 5-16 15-16 18 0 2 10 12 11 12l6-3 9-3h4l-4 2q-10 4-19 17l-10 11q-3 4-2 6 4 5-6-3c-9-7-25-11-30-8l-6 3q-3 0-8 4l-4 4 4-1 8-2q9-3 4 2-3 1 2 3l7 2q4-1 1 1c-1 2 1 8 3 8l1 1c-1 6 0 6 12 8 16 2 18 2 19-1l4-4 16-7q21-11 27-21c5-10 2-17-12-34l-11-14-5-5zm1090-20q-11-9-19-3-10 9 0 7 4-2 10 2 10 5-3 1c-6-1-15 2-15 6q0 4 5 3c3-2 15 2 15 4h-3q-12-3-16 0-7 6 3 7c7 0 15 3 12 4h-6q-11-3-14 2 0 6 6 4c3-1 14 6 14 9l-2 4q-1 2 2 2 5 1 0 3-5 0-9 19c-5 17-5 16 0 19l9 4q6 4 10-3c8-7 14-22 12-31 0-4-5-14-8-18l-3 3q-8 7 0-9c6-14 7-18 7-28-1-7-1-7-7-11m-213 61q1-5-3 0-1 3-6 3c-7 0-8 1-2 18l5 15q2 0 3-17zm-398-44q-10 8-15 15l-5 7 3 6c3 6 9 29 9 34q-2 6 7-3c8-8 16-21 16-26q0-5 2-3 6 2 1-10l-5-18-2-10zM526 387l-27 30-8 8 7 7 13 17c11 16 10 16 9 11l-1-18q-1-27 5 11 2 18 4 20 1 2 1-1l5-15v2c-2 8-5 46-5 72v30l6 1 26 3 49 6c27 4 29 4 30 1 3-4 11-12 13-12l1 1q-1 3 5 0 3-4 9-2l6 1c1-1-7-26-12-37l-7-15q-2-8 5 5 8 16 6 3l-2-16v-9l1 8q3 19 7 23 3 4 2-5 1-15 3-16v5q-1 16 6 26 6 9 6 5l7-11c7-9 19-20 27-23l6-3-8-6-12-10q-5-4-7-9l-11-14c-10-10-15-12-32-15l-12-2q-4-1-3 3l-4 11q-7 14-24 21c-6 3-9 4-17 3q-12 0-16-4-11-7-13-22l-2-5q-1 6-3-2l-1-5-2-8q0-7-3-10l-3-3v3l-2 6q-1 2-2-3l-2-4-1-7q1-7-4-10-4-2-7-8t-4-13v-9zm155 162-1 11c0 2 11 8 14 8 2 0 14-15 14-17l-3-5c-4-3-5-3-13 0q-4 0-7-3l-4-4zm891-8q-13-22-4-3l9 17c2-1 2-3-5-14m209-43q0-8-4-3c-2 4-2 13-1 13 2 1 5-5 5-10m-90-141q-2-3-7 0l-6 4-7 1q-8 0-9 5 0 2-3 3-3 2-3 7l-1 7c-3 3-6 15-6 20l-1 6q-1 3-6-3-8-10-12 2-3 11 6 20 3 5 8 4 6-3 7 4 2 8 7 15 3 2 2 13-1 17-3 11-3-5-1 4c8 19 32 27 45 15q7-5 2-5l-2-1q0-2-6-3-17-1-29-21-4-7 5-1 16 14 32 6c12-6 30-25 30-32q0-3 2-2l1 2q0 4 8-4c4-5 4-6 4-13q1-10-2-9l-5 3-3 5-1-11c1-6 0-17-1-24l-2-14-3-1-4-3q-1-4-6-3l-6-3q-4-5-11-2-4 3-7 1-4 0-6-3m117 100-6-1-7 27q-1 3 3 4 3 1 5-3c2-6 6-26 5-27m-462-9-1 8q-2-1-3-8l-1-3c-2 0-1 13 1 18 6 12 20 21 31 21q13-1 24-9c6-5 11-14 11-18q0-3-2 1l-3 3q-2 0 1-12 2-10-3-4c-4 6-18 16-23 17q-12 1-21-9l-8-9-2-4zM623 299c-10-4-31-4-41-1q-16 5-25 16-7 7-3 7 5 1-1 3-7 2-9 20-1 8 2 3v4l-1 7 2-5 2-7c0-4 6-15 8-15l-2 7c-4 7-4 8-4 36 0 26 0 28 3 35q7 15 28 28 7 6 16 5c6 0 9-1 17-5l10-4c0 2-15 17-20 19q-10 5-17 0-5-4-3 3v5l-3-4q-5-6-4-1 1 4 6 9 6 7 12 7 19 2 33-15 7-9 1-6c-3 1-3 0-2-11s1-12 6-17q4-4 7-11t6-6l4 1c2 1 10-7 13-12 3-6 3-16 1-18q-5-4-11 2-3 3-5 2c-1-2-4-19-3-20l1 1 2 1q2 0-3-5-5-6-4-8l-1-4q-3-4 4 0l4 3 3-3q7-5 1 2-4 6-8 2l-1-1q1 5 7 6 3 0 5-3 5-6 4-1l-4 7-4 4q0 2 2-1 4-3 3 0l-2 5v2c1 2 6-12 7-19q1-6-2-13-3-8-3-3 0 4-3 6-5 5-2-1l3-8q2-5-4-11c-5-7-19-16-28-19m346-25q-4-10-5-5l-9 7q-8 5-15 14l-11 11q-7 4-2-2l6-7 4-6-4 4-10 11c-6 8-6 8-7 23-2 15-1 42 1 56q2 15 17 30 18 18 34 22 12 4 33-6 10-6 11-5c0 3-20 21-27 24q-12 7-22 1l-6-4 3 5q5 8-2 5-4-1-7-9-6-12-5-2c1 9 11 21 19 25 10 6 16 6 27 3 15-5 28-17 30-31q1-11-3 1l-3 5q-2-3 1-23 2-9 7-15 8-8 12-21 1-3 7-2 10 2 18-11c7-11 7-25 1-29q-3-3-8 0l-8 6q-2 5-4 5l-1-9c-2-13-9-32-13-33-6-3-30-21-39-30l-7-5q1 6 13 18 7 8 4 7c-4 0-14-7-21-14zm833 172 1 2 6 1 8 3 2 1c1-2-7-7-10-7zm88-244c-9-5-25-4-28 1l-70 237q0 4 3 8l4 3q1-1-2-3l-3-3 3-1c4-2 20 1 25 3l4 2 13-43a484 484 0 0 0 21-65l2-6 10-33 10-35 4-10 12-41q3-5-1-8zm-528 114-7 7q-6 8-14 10l-7 2-3 14-4 26q-1 4-4-3c-7-11-14-1-11 16 2 5 7 13 10 13s2-6-1-10l-2-7c1-3-1-8-3-6q-3 0-2-4h4q6 4 9 22c3 17 8 26 20 38 13 12 18 14 29 14 7 0 10-1 17-4q20-11 30-28c5-11 5-11 6-8q4 6 14-3c8-9 12-22 6-27q-4-6-11 3l-5 5-1-10-2-17-2-8q2-3-5-8-14-9-18-20l-3-6-8 6-10 6-3 3q-1 4-3 3l-8-1q-7 1-6-2 0-2 3-2 6 1 2-2l-4-7zm-264 99q10 13 15 13 5-1 0-3l-12-11-8-7zm56-4q-13-9-24-5l-10 2q-9 0 11 2c15 1 20 3 28 10l6 5c1-2-6-10-11-14m-608-33q-4-5-6 0c-3 5-1 15 3 22l4 6v-11l-2-5-2-5q-3-6 2-4 3 2 1-3m338-2q2-11-3 0c-5 12-3 29 3 25v-5q-3-11 0-20m277 23q-7-4-3 1l4 1zM461 188q-7-3-9 0c-3 3 0 9 6 9q3 0 4 3 3 3-2 8-8 10-6 21v5l-2-3q-3-7-8 3-3 6 0 9l5 5 3 4 25 84a275 275 0 0 1 25 58l3 7 8-10 9-10 5-4 4-3-3-7-8-15q-4-7-6-16-3-19-16-42c-10-15-13-23-20-43l-6-16 3-10q3-9 3-17c0-7-2-15-4-15v2q1 4-5-2zm448 159q-9-12-9 8 1 16 8 22l4 5v-7l-2-8q-3-1-2-5 0-8-4-9l-2-2q1-6 6 0 7 6 1-4m-221 22c-1-2-6-4-6-3 1 2 11 8 16 9q10 1-2-3zm706-101q-8-4-2 2 6 7-3 3-9-3-27 4c-10 5-23 6-27 3q-1-2-3-1-1 3 5 8 6 2-1 5c-10 4-21 15-20 21 1 3-4 13-10 16l-4 3 6-1q8 0 6 2c-2 6-3 18-1 21q1 3 1-2l2-6q1-2 1 3l1 7q2 1 2-3l1-6q1-1 1 3 1 11 5-4 4-13-3-12l-2-1 9-3q17-2 26-15l8-8q1-1 1 4 0 8 8 17 1 4 5 1l6-4 7-6q5-4 7-9l2-6 2 7 3 8c0 2 7 13 9 13v-3q-3-8-1-8l3 6q3 10 15 17 8 6 3 6-6-3-2 7 3 11 5-1 2-10 3 2-1 8 2-1 1-12 3 0l1 6 2-15c0-4 3 4 3 9v6l1-5 1-11v-5l2 4 3 6q3 3 1 0c-1-5-3-16-2-18 1-1-2-9-5-13q-4-6-1-5l6-1 4-2-5-2-11-5q-6-3-7-11-6-24-33-17-2 0-4-4zm-722 62 1 3 2 7q2 9 8 18 8 9 2-2l-5-10zm411 4c-8-2-1 5 9 9 14 7 21 7 49 2 24-3 38-2 52 5l7 4-5-4q-12-12-34-11c-11 0-16 1-24 3q-20 7-38-2-5-2-5-4l-3-1zm-3-6q-12-7-10-3l15 7q7 3-5-4m-6-37q-11-13-2 3c10 16 17 22 35 28 8 3 9 3 18 2l13-4q4-1 1-1l-10 1-7 1 9-3 14-7 15-9c19-10 22-12 19-12-4 0-19 6-30 13-18 10-22 11-34 11q-24 0-35-14zm-44 15q-9-6-4-1c5 5 17 12 25 14q13 3 3-2l-11-4zm-116 2-3 2q-4 5 1 1zm140-1-8-3 11 6zm-40-66c-9-3-30-5-32-3l-15 2c-16 1-26 5-38 14q-15 14-2 6 8-6 12-6l3 1-4 6-4 6 10-6q9-5 14-5l6-2q2-1-3-1-10 0-12-4c0-2 13-7 18-7q5 0 3 3l-2 9-1 5 5-4q10-9 30 7l7 4-6-7q-7-6-6-8l-2-2-2-3c0-3 15 0 23 5q9 4 18 12 13 13 4 3-7-11 2-5 11 8 19 21 8 12 2-2c-7-15-28-32-47-39m-588 16c-7-5-5 2 3 7q11 8 5-1zm22 1c0-3-7-11-9-10q-2 6 6 11 3 1 3-1m-12-33q-5 2-12 17l-3 5 5 4 5 3 1-3 7-13c5-11 5-11 2-12zm-138-76c-10-4-26-3-36 2q-21 12-26 36c-5 24 11 47 37 52q15 4 30-4 16-8 22-23 6-9 5-18-1-33-32-45m142 66q-12-6-13-1c-1 2 1 9 3 9q3 1 1-1 0-2 2-2l5 1c2 2 8 1 8-1zm0-12q-6-6-8-1-4 4 8 10 9 5 10 2 3-2-2-5zm7-9q-4-6-9-2-3 4 8 11 9 8 9 2 1-2-2-4zm9-13c0-2-7-2-9 1q-3 4-1 6h2l4-4zm31-20q-3-4-10-1c-3 3-15 18-15 20l5 5 4 3 3-4 6-7q7-4 0-10l-3-4c1-1 7 2 10 5l3 3v-4z"
        clip-rule="evenodd" />
    <path fill="oklch(10% 0.07 257)"
        d="M725 1167c-4-2 18 0 23 3l1 2c-1 1-23-3-24-5m421-19c11-2 21-2 20-1-2 2-36 8-36 7q-2-1 16-6m-90-12q5-1-1 3c-4 4-23 13-29 15q-5 1-2-2c3-3 15-10 24-14zm23-6 7-2q0 2-8 7l-9 8q1 2 5-1l33-12q17-3-1 4l-18 8a96 96 0 0 1-36 11q-7 2 0-3l13-10zm58 7v1c0 2-36 14-40 14q-5 1 1-3c5-3 23-9 32-11zm-520-92c2 0-1 5-3 6l-2 3v2l2 1q-1 3 8 0l10-4q6-2 8 1l-18 10-27 15c-9 5-22 10-24 8q-1-1 2-3l28-16q14-5-4 0c-9 3-33 14-42 20-5 4-12 5-13 2q-1-2 5-7l4-6c-3 0-17 8-25 15q-7 5-13 6h-5q0-2 8-9l8-8-6 2-12 3c-9 3-17 3-16 1q0-5-7 2l-5 4-6 3-6 4q-3-1 2-6l2-3-8-2c-15-3-9-7 6-4h11q4-3-3-4c-11-3-11-3-8-4l11-1c7 1 8 1 17-4q19-8 7 1-8 6-6 7t5-2l27-13-8 7q-13 9-9 9l2-1 8-5 20-10q24-13 10 0l-7 7 16-8q26-15 14-3-6 7 1 2c7-7 22-14 22-11l-4 5q-7 6-4 7l9-6zm-281 36c3-2 20 7 26 13q4 5-2 3l-12-6q-16-9-12-10m-21 9q-1-3 14 2 11 3 9 6c-1 1-21-6-23-8m116 3c2-2 16 0 19 1q3 1 0 2c-2 2-22-2-19-3m-54-11q0-4 6 5 8 9 2 6c-2-1-8-9-8-11m-18-13c6 6 15 23 12 23-4 0-13-14-14-23l-1-5zm293-8q18-4-4 6c-32 13-37 15-40 15q-10-1 16-12zm774 14c9-4 9-4 13-2q5 1 0 2l-20 7-1-2q0-2 8-5m-5-11q14-3 15-1 3 2-10 5l-16 7q-18 9-20 6c-4-4 14-13 31-17m-749 3q17-3-5 5c-12 5-14 5-15 3 0-2 12-6 20-8" />
    <path fill="oklch(10% 0.07 257)"
        d="M1450 1072q9-3 8-1c0 2-7 3-12 3q-6 0 4-2m-240-17q1-3 16 3 20 10 11 11c-4 0-26-12-27-14m-18 5c6 0 24 7 19 8l-21-7zm-575-8h1l-1 2-1-1zm92-35 8-4c2 0-8 11-21 22q-14 12-14 7c0-2 19-20 27-25m369 5q11-3 9 0c-4 4-26 18-27 17l1-3q4-6-8 2-9 8-8 4c0-5 18-16 33-20m-360 4q12-4 11-1l-1 1-24 14q-4 2-6 1t2-5q5-6 18-10m-470-30q3-1-6 9l-3 4 7-1q17-5 4 4-17 11-26 13l-5 1 3-3 5-3 5-3 3-3-4 1c-4 1-7 2-24 11q-18 9-11 2 3-3 2-4c-1-1-12 6-14 8q-5 4-6 1l3-4c7-7-2-3-16 8l-8 4q-4 1 2-5l5-5-6-1c-6 0-9 1-21 9q-4 3-1 0 4-6-8-7l-7-3c0-2 16-1 20 1h5q3-2-4-4l-8-4c-2-2 3-3 7-1 6 2 27 3 27 2l-4-3-3-2c0-2 7-3 11-1q5 2 9-1 7-3 7-1 0 3 7 0 11-4 11-1h4l3-3 2 1q2 2 8-3c7-4 13-6 8-2l-2 2c0 2 8-4 13-9zm398 33 6-2c1 1-6 7-9 7l-7 4q-4 3-5 2-1-2 7-6zm1 5q8-3 3 2l-4 4q-3-1 1-6m79 0q8-4 7-1c0 2-10 7-13 7q-4-1 6-6m-620 1h5l9 2q3 1-5 1zm571-2q7-8 7-4c0 2-8 10-10 9zm427-5q6-1-4 3l-13 5q-10 4-6-1l10-4zm-440 4q2 0-2 3-8 5-3-1zm362-3q7-8 4 0l-7 8q-2 0 3-8m25-8q14-15 8-4c-3 4-18 20-20 20s4-8 12-16m714 11c8-2 21-2 21-1 0 2-26 5-27 4q-3-1 6-3" />
    <path fill="oklch(10% 0.07 257)"
        d="M744 1029q5 1-5 3-7 1-1-2zm1000-4c12-3 22-3 20-2-1 2-33 8-34 8q-3-3 14-6m-14-9c15-3 17-3 18-2s-44 16-46 15q-7-1 10-8z" />
    <path fill="oklch(10% 0.07 257)" fill-rule="evenodd"
        d="M1576 997q1-3 17 5 14 7 14 5l-2-4q-3-5 4-1 4 3 7 2l7-2q5 0-1 3l-4 4h3c3-3 12-7 13-6l-1 2q-2 1 1 1l7-2 5-1-3 3q-7 5 2 1l9-2 16-3 11-3q0 2-5 5-13 7 4 4 11-3 10 0l-1 1c-5 0-33 10-39 13q-6 4-9 4h-7q-11 3-5-4 6-5-3 0-8 3-1-2l4-3q1-3-15 5l-10 4q-5-1-3-3l1-3 3-5q6-7-13 5l-14 9q-4 0 6-8 9-6 5-7l-24-12q2-2 11 1l8 2q8 2-2-4zm58 19-2 1h2l2-1zm-41-8q-3-3-4-1l2 2q5 3 2-1"
        clip-rule="evenodd" />
    <path fill="oklch(10% 0.07 257)"
        d="m1716 1013-18 8q-20 9-20 5l7-4 5-3-22 5-10 2c-5-1 8-6 23-9l35-6 4-1zm-1449-5c0 1-18 12-20 12l-2-2c0-2 11-8 18-10zm17 4q5-1-1 2l-7 2-4 1c-2 2-10 3-10 2 0-2 1-2 12-5zm1268-10c4 0 17 6 21 9l4 3-3 1q-4 1-6-1l-11-5-7-5zm-22 5 15 3c4 1 6 5 2 4l-9-3zM183 806l2 7 2 9v3c-2 0-5-7-5-13zm26 9q3-9 4-5c0 3-5 14-7 14q-2 1 3-9M23 789l6-2-5 3-6 2zm300-95 6-2c2 2-14 11-28 15q-17 5-26 2-3-1 6-1 14 0 29-8z" />
    <path fill="oklch(10% 0.07 257)"
        d="M251 684c-3-2-4-2 11 2l21 3q25 2 27 4 3 4-13 1-39-4-46-10m-35 0 2 1-1 1zm97-19 3-1 7 2 6 2c1 2-19 0-23-2q-5-1 1-1zm-79-174q5 0 2 2-4 3-4 0z" />
    <path fill="oklch(10% 0.07 257)" fill-rule="evenodd"
        d="M233 457c9-1 18 0 19 1s-5 21-8 25c-6 7-19 7-27 0-8-6-13-19-9-22 2-1 16-4 25-4m-10 21q-4-1-5 2c0 3 15 6 19 4q3-2 0-4l-7-2zm22-16q2-2-10-2c-11 0-21 2-21 4s20 3 27 1z"
        clip-rule="evenodd" />
    <path fill="oklch(10% 0.07 257)"
        d="M153 457q3-4 9 3c4 4 7 11 5 13l-4-1q-4 0-3-5 2-5-2-6l-6 1q-2 3-2-1zm78-12 1 1-2 2v-2zm5-11q4 1 7 7 0 6-4 7-3 0-1-2 4-3-1-9-4-3-1-3m-35-5q5-4 9-1l3 5q-3 7-6 1-2-5-6 0-4 6-4 0zm42-2q2-4 6-3 6 0 5 5 1 5-3 4-3 0-3-2-2-4-5 0h-1zm-43-17h10q4 2-5 3l-10 5q-5 3-5 1c0-2 7-8 10-9m43-4q5-3 11 2 3 2 2 4h-2l-7-2q-6 1-6-2z" />
    <path fill="oklch(10% 0.07 257)" fill-rule="evenodd"
        d="M231 339c6-4 5 3-1 9l-4 4h10q19 0 22 2 2 3-18 2-15-1-18 1c-3 2-2 2 12 2l23 2q8 3 10 2 3 0 3 5l-5 2q-10 3 0 6l10 7c5 5 6 11 2 9l-6-1q-5-2-2 1 7 8 7 17-1 7-3 3l-3-3v1l-1 10c-1 8-1 10 1 15a55 55 0 0 1-9 55l-4 5 17 2 23 3q13 5 26 21 6 8 16 16c19 14 19 13 18 23l-1 9 6 9q12 14 11 23-1 10-25 22l-13 7 1 11q2 11 7 17t5 11l3 12c4 11 4 12 1 17l-3 4 3 9c3 8 4 11 4 22v16l1 3 26-1a273 273 0 0 0 69-10q5-3 5 1l-1 3-6 11c-15 29-58 88-62 85l11-16c18-22 53-76 51-78l-11 2-22 4c-12 2-47 2-54 1q-6-2-4 2 4 12-2 21-4 6-3 8l6 1q16 1 17 27 0 8 3 14 10 22 4 39-5 20-22 19c-6 0-7-1-12-6q-10-11-10-23 1-9-8-8-11 0-19-9c-5-4-13-20-17-31q-2-8-7-9-12-2-13-14c-1-8-5-23-7-23s-5 17-5 24-4 16-7 19l-7 3-5 2 18 18 30 31-1 3a64 64 0 0 0 21 18l-4 1q-5 0-11-7l-7-6 1 9q10 4 2 4h-11l-5-1 5-1 5-1-1-21-9-9-29-31c-9-12-12-11-17 5q-2 6 1 9l5 13 12 22 7 14-15 2q-14 0-15 2c-6 20-8 27-8 32l-1 15c-2 9-2 9 1 13 2 4 2 5 1 11l-2 9 1 18c1 20 0 23-10 26-14 5-30 1-39-9-5-4-7-6-15-8-32-10-39-47-11-57 6-3 7-3 15-1l9 2-1-3q0-4 2-7 3-1 3-7v-8c1-3-2-22-3-23-1-2-4-2-17-1l-16 1q-1-3 9-3h5l1-11 1-12q3-3 3 11 0 11 2 11h2l-1-17a375 375 0 0 1 1-67c0-12 0-10 6 22l5 22c2-1 4-13 4-22l2-16c3-15 3-16 0-18-4-2-11-12-11-14l-4-7-4-5q-2-3-11 5a130 130 0 0 1-58 23l-5 6-5 6-5 10c-8 11-27 30-40 41l-12 8 5 1 36-2 30-1 8-10c12-14 32-44 43-66q19-33 2 2c-13 27-35 61-46 72-5 5-5 6-2 24 2 12 5 11-21 12-21 0-24 1-29 3q-6 3-8 2l4-4 4-2-4-1-12-1-9-1q-1-2 15-2h17l14-10 15-13H58l-31 2-5 1v7l-1 9-1-1q0-4-8 3l-9 4q-6 1 5-7 11-7 9-10 0-5-2-5-7-1 8-12c17-11 38-34 52-53l13-17 2 1q0 2 16-3c18-5 43-21 46-28q2-3 3-2c1 1 6 7 7 11l2 2a160 160 0 0 0 19-46c2-5 2-5 0-8l-2-6v-4l-10 5q-10 6-9 8-3 9-13 10l-9 2-7 5q-4 2-4 5l-2 4-2-2q-1-3-3-1l-12 6c-10 5-11 7-12 10l-3 7-26 15-35 19q-23 14-31-8-5-6-2-11l3-8 28-17 29-16q3-1 3-12 1-16 11-25c9-9 14-17 24-40 10-25 13-30 22-39q6-7 9-15l3-9-4-6c-5-8-5-10 4-22l8-18q6-19 13-25c5-3 31-17 34-17q2 1-1-5-3-8-15-8l-5-3-4-2c-4 0-14-7-18-12q-2-3-3-10l-2-7-3-6-2-6-1 4q-4 8-4-12v-12l-3 7-3 6v-7c0-7 4-22 7-27l4-6q4-4-2-1l-8 5q-5 4-5 1 2-8 15-15l9-4-4-2-6-2-2-2q4-4 12 1l6 3v-8q0-8 3-14c3-7 12-16 14-15v2c-2 2-6 16-5 16l10-10c10-10 22-18 23-16l-2 6-4 7 6-2 20-6q12-2 16-5m-40 636q-3-2-1 1c2 3 25 19 25 18q2-4-12-12zm-17-31q-20-11-31-5c-6 3-12 10-6 8q23-9 44 12c14 14 16 16 23 21l9 5c2 0 0-24-2-28q-4-8 1-3l2 4 1-4q1-8-8-14-5-4-6-2v5q0 3-2 3l-2-1-6-3-4-1 3 3q6 6 1 5l-2-1c0-2-8-6-9-5l2 2 3 3zm-9 6q-14-6-26-1l-6 4q-1 2 5-1 7-4 12-3 15 2 29 15l7 5c0-2-14-16-21-19m31-23c-2-2-15-3-20-1q-5 2-2 7 0 3 2 1l11-1q3 0 6 4l3 4 2-6q1-7-2-8m-6 10c-1-2-9-2-12 0q-4 1 5 1zm14-26c-9-4-26-1-26 4q1 4 4 0l9-2q13 0 21 6l2 1q-1-5-10-9m20-155c-7-4-19-5-25-3l-8 4q-4 2-6 10l-5 49c0 6-1 17-3 24-4 22-4 26-2 47l3 19 4-1c8-2 21-1 27 2l5 3 1-4 4-16c4-10 4-13 4-34s0-23 4-35l11-25 7-13-2-6c-2-8-11-17-19-21M90 864c-1-1-28 21-28 22l16 2h16v-4zm268-75c-4 0-5 6-1 8q11 10 12 31v13l1 11q4 2-5 4c-15 4-15 4-14 1q1-3-1-3l-4-3q-3-8-2 4c2 11 3 12 7 19 7 9 22 6 27-6 3-5 3-7 3-16q-1-11-5-21l-6-24q2 2 2-3-2-10-9-12zm7 61c-1-1-9 2-10 3-2 2 9 0 10-1zm-2-6-3 1 2 1 2-1q1-1-1-1m-13-48q-1-13-5-6c-5 9-28 20-38 18h-5l11 23c8 12 22 15 30 6l4-6q0-2 2 1 1 2 5-2c5-6 7-19 4-25q-3-6-4 4c0 9-4 11-4 2zm16 32q0-2-2 1-3 8 1 3zm-17-86v22q2-4 3 2c0 3-14 19-17 19l-2 2q1 3-11 8l-6 2h5c11 0 32-16 35-27q2-6-1-10-3-5-3-10l-1-8-1-3zm-282-6-33 19C6 770 4 772 6 780q2 9 10 14c3 1 4 1 14-4l58-34q-7 0-11-8l-3-9v-6zm153 7c-18-5-36 0-46 13q-7 11 1 3c9-8 16-11 29-11 12-1 12-1 22 4q13 7 24 22 4 4 8 15 2 5 2-2c0-16-19-37-40-44m80 19-12-6 21 15 12 4 6 1-7-4zm-75-44q-7 0 3 3c3 1 10 4 13 7a127 127 0 0 1 27 26v-9c1-2-2-14-4-17-2-2-2 4 0 10l2 7-10-9-18-14zm64 23-10-2 8 5q8 3 21 3l16-2-12-1c-11 0-16 0-23-3m-209 1q-1-9-2-1l1 5zm36-27c-14 9-16 10-16 14q0 8-8 8t-8 5c0 4 1 4 11-1 11-6 11-6 12-3l11-5 17-9 5-3-3-4-4-8-1-4zm20-113-3 6q-1 5-9 14c-7 8-10 13-25 46q-8 17-15 26c-13 14-15 17-15 26l1 9q3 1 1-5-1-8 3 0 0 3 2 3v-4q-1-5 4 4 8 15 5 0-5-12-2-15 3 0 2 3c0 6 2 14 5 16q5 7 5-8c-1-7 0-8 2-12l6-4q4-2 2 3-1 5 3 4 8 0 3-14l-2-10 3-4 19-21q22-23 22-32l3-7q3-6 0-5-7-1-15-12zm193 121 2 2 6 4q4 0-1-2zm1-84c-2-7-1-7-14-4q-16 3-32 11-7 3-8 7l-3 6c-4 4-21 13-23 13l-4 2q-4 3-10 0a258 258 0 0 0-48 25l-2 4q0 4 3 2l12-2q15-2 43 10c20 9 23 9 36 10q19 2 39-8c10-5 24-15 28-20 2-3 2-4-1-13l-4-12q0-4-5-11l-5-10zm-227 77-3 1 1 1zm46-20-5 2q-5 5-4 12 2 3 6 5l4 2h3q5-2-1-4-8-5-4-13zm29-72q-5-20-13-3l-8 16c-4 12-5 13-23 31-19 20-20 22-18 32l2 9c1 1 18-11 22-14q4-4 9-4 6 1 20-8l13-7 1-6v-32zm44 37a525 525 0 0 0-72 42q0 3 2 3l1-1 1-1c2 0 51-26 65-35q7-2 5-5 0-3-2-3m37-160q-10-1-7 3c6 9-9 32-25 37-17 6-33-1-36-15l-2-3c-2 2 1 11 4 16q9 10 23 10 12 1 25-10c8-5 15-19 16-31q3-9 2 2c-2 16-12 31-26 37q-15 9-26 4-23-8-22-31 2-8-1-6l-9 3-13 7q-10 5-18 32-2 10-5 11l-5 6c-4 6-4 7-2 11 7 12 22 22 33 22h6l-5-4q-9-8-1-6 5 3-3-7c-4-5-8-16-6-16l2 2c1 4 7 12 7 10l-2-10q-4-20 2-2l26 76q-4-8-3 10 0 12 2 13l16-8 14-8 1-6q2-7 6-12l7-8c3-3 18-9 23-9 4 0 10-3 28-14q18-9 14-11l-4-5q-3-3 0-4l-2-3q-8-7-15-17-4-9 3 0c4 5 12 13 12 11l-4-8c-4-7-7-18-7-25q2-9 3 5c1 8 7 23 10 24l1-5q0-10 3 0l2 9 11 14 2-4c2-10 18-27 31-33l6-3-10-7-14-10q-4-2-6-7l-10-13c-8-7-9-8-19-10l-18-3zm91 84c-3-7-15-2-63 27l-26 13c-17 3-22 5-26 11l-7 7c-2 4-3 11-2 12l2 4 4 7q8 6 9 3l-2-1-4-4c-2-5-3-14-1-14l2 4c0 5 4 12 9 13q8 2 1-5-4-4-4-8 0-5 2-5l1 4q1 9 10 11 3 0 3-2l-1-2c-3 0-6-11-3-13q2-1 2 2l2 4q1 5 10-6l8-9h2c4 1 24-5 34-11l32-17c10-7 9-7 7-13q-3-6-1-8zm-79 70q1-3-3-1l-4 2c-4 0-6 4-2 4q6-1 9-5m73-90c-4 0-22 18-20 19l8-2c15-7 20-4 23 10v13q-4 7-23 17l-5 4c1 1 15-5 24-11q18-9 17-16c0-5-7-17-17-27zM233 386q-17-8-6 1 11 7-3 3-16-6-27-3-7 1-3 3l3 2 1 2q1 2-7 1l-10-2q-6 0-3 3c2 3 3 20 1 20l-2-4-2-3-1 3 2 4q3 0-2 11-6 10-2 22 2 4-1 7 0 3-7-2c-8-5-10-5-14 0-7 6-3 19 6 25q10 6 16 3c3-2 3-2 10 5 7 8 17 26 18 34q1 6-2 2-2-4-2 0c0 8 10 17 20 17 13 0 35-20 29-26q-1-2-1 1-1 6-4 4l-8-1c-6 1-8 0-15-4l-15-9c-6-6-7-6 11-1 13 3 19 3 28-1 7-4 18-17 24-30 4-8 4-9 4-18l-3-15-4-18c-3-16-9-30-13-31l-5-3-4-3q-2 0 1 3 7 6-8-2m-70-14-3 4q-1 6-4 4-2-3-2 2 0 4-4 8l-8 9-3 8 5-5 5-6v12l3-9q3-7 4-4t2-1q3-7 6-1 1 3 1-2-2-5 2-6l3-3q0-2-7 1-3 0 0-8zm17-16q0-3-4 2-9 9-7 11c2 0 11-10 11-13m42-9-7 2c-8 2-20 7-24 10q-3 3 0 1l13-4z"
        clip-rule="evenodd" />
    <path fill="oklch(10% 0.07 257)"
        d="M332 980c10-5 10-5 10-3s-17 19-19 19q-4 0 0-5l2-3-4 1c-4 1-12 5-15 8l-4 1q-3-1 1-5 7-8 16-9zm-23-1q14-7 3 2c-8 7-21 16-22 15-1-2 12-14 19-17m-45 10q7-7 6-2c0 3-5 9-8 9q-5-1 2-7m1187 4q6-2 5 0 1 2-7 3-5-1 2-3m-1162-7q2 2-3 6-8 5-2-3zm1140 0 1 2 2 3q4 2-2 2l-2-4zm-1063-3c10-5 17-7 11-2-6 4-22 13-24 12-1-2 0-2 13-10m-14-2q15-7 11-3c-1 2-23 14-25 14q-3-2 14-11m1062 7 2 1-2 1zm-1025-5q11-4 12-3c0 2-16 9-18 8zm24 1 9-1c-1 2-11 5-15 5q-5-1 6-4m254-21q9-9 9-5l-3 3-6 7q-4 7-6 3 0-3 6-8m-20 7q-1-4 3-2l2 3c0 2-5 1-5-1m48-10q11-5-3 6-10 8-10 4zm-21 5 3-2q0 6-5 7-3 1 2-5m89-4c10-4 11-5 11-3s-12 10-14 9l-6 1q-6 3-2-1zm-47 3q7-3 6-1-2 5-8 6-6-1 2-5m29-2q14-10 2 1l-7 6q-4-1 5-7m439 0c-1-2 8 0 14 2q7 4 3 5zm17-5q0-3 11 1 11 6 12 10c0 3-22-8-23-11m-417 6h9l-18 6q0-2 9-6m455-4c2-1 6 4 6 7l-1 2c-2 0-6-8-5-9m266 4c7-2 16-3 14-1-1 1-21 6-22 5q-2-1 8-4m-18-6q12-4 11-1l-18 9q-7 3-7 1-3-2 14-9m-230 7-2 1-2-1zm181-2q6-6 6-3c0 2-7 8-8 7q-2 0 2-4m28-9q11-5 8-2c-2 3-21 16-22 15-1-2 7-9 14-13m-245-2q-1-5 4 1c4 4 8 13 6 13s-9-9-10-14m644-2q13-3 12 0l-3 1-12 3-11 2c-2-2 6-5 14-6m-56-20c2 0-18 18-23 21-13 8-4-4 10-14l10-6zm36 14c10-4 11-4 11-2s-22 12-24 10q-2-3 13-8m-30-4c5-2 11-3 9-1l-2 2-11 6q-14 8-13 5c0-2 11-10 17-12m-51 5 3-2-5 8q-3-1 2-6m11 0q2-3 3-2c1 0-2 4-4 4zm-1493-9h2l1 2-1 1zm-11-45 11 1-24 1q1-2 13-2m-148-13c2 0-4 8-7 10q-7 6-12 1-4-6 3-2 7 3 7 0l5-5zm126 12 4 1h-8zm-112-30c3-9 3-3 0 7q-6 17-10 20-2-1 3-11zm943 23 6 2q3 1-1 1l-6-1q-3-2 1-2m62-8v2l-17 9q2-3 12-8zm-30 7q5-5 6-2c0 2-6 6-7 5zm38 0q12-4 11-2c0 2-13 6-16 5q-2-1 5-3m20 1h6q0 2-5 1-6 0-1-1m-73-1q1-3 6 1 3 3 0 1l-4-1zM155 777c2 0 0 46-2 59-2 18-8 40-11 43q-2 3-2 0l2-8q8-24 11-70zm83 57 4 6c7 14 18 29 25 35q7 6 0 5c-6-2-27-35-29-46m208 43 4 1h-9zm21-1h7l-14 1zm-142-3q12 0 9 1c-2 2-21 2-21 0zm102-26q7-14 5-5-4 11-12 21l-6 6 15 1h19q4 1-6 2l-24 1h-20q-13-1-4-1h7l-1-4q0-8 3-1 1 3 3 3c4 0 16-13 21-23m31-75q1-3 2 2c9 33 26 76 35 88l4 5-8 1h-28l-1-4zm46 94h14q0 2-8 1-8 0-6-1" />
    <path fill="oklch(10% 0.07 257)"
        d="M454 774v20c-1 22 1 61 3 65q3 7-2 3l-6-1q-8 3-4-6c2-6 5-31 5-39q1-13-5 14-5 23-12 32-5 7-2-3c7-12 18-49 20-69l1-11 1-4zm1316 88q-2-1 22-1l20 1c-3 2-39 2-42 0M488 843q-5-17 3-2l8 14q4 5 3 7c-3 2-9-7-14-19" />
    <path fill="oklch(10% 0.07 257)" fill-rule="evenodd"
        d="m1821 747 22 3 72 11 14 2 18 17 42 40q0 5-11 5h-6v13c0 13 0 14 2 14h5q1 1 3-2l4-4 2-2q3-6 5-1 0 3 4 4 7 1 3 3l-2 2q0 3 5 2l7 2c3 2-56 0-76-2l-14-2 9-1 9-2q-4-4-18-1h-9q-4-3-20-1h-11l-7-3q-4 0-5 2 0 2-5 1l-5 1-5 1q-4 0-3 1l10 2 9 1-60 1-54-3q8-1 3-6-3-6-4 0 1 2-4 2-5-2-5 1l2 3h-13q-22-1-1-2 8 1 7-3 0-3 4-3l4-3 2-2 4-2q1-3 4-1l4 7q3 8 4 2 0-3 3 1l4 3 1-16v-15h-3c-5 0-14-2-15-4l7-8a504 504 0 0 0 58-58m168 103-2 2 1 1 1-1zm-26-20c-2 0-3 1-3 11q0 12 3 10 3 2 3-10c1-10 0-11-3-11m-161-41-22 22-1 39h29l-1-15-2-24c5 0 34-2 36-1 4 1 4 1 3 8l-1 17c-1 12-1 11-2 8l-1-13q0-9-2-10c-1 0-2 28 0 29h3l6-3 7-3h7l6-2q3-3 4-2 4 8 3-12c0-12 0-14-2-16l-25-23-23-21zm38 26q2-3-13-2c-15 0-18 1-17 4v17q0 18 2 16c2 0 4-16 3-26v-5l6-1 12-1q7 0 7-2m111 17q-4-3-3 8 0 10 2 9 5 0 4-12 0-5-3-5m-39-4q-9-2-8 9-1 6 3 5l6 2h5c4-2 5-12 2-15zm-32 2q0 15 5 14 3-2 2-14-1-6-4-8l-3-3zm17-2-1 7 1 7 1-7zm39-49q-16-15-16-12l51 47q2 0-10-12zm-29-14c-4 0-4 0 5 9l25 24c13 12 16 15 20 15s3-1-16-20l-25-24q-6-4-9-4m-17-3q-3-1 2 6l50 44a401 401 0 0 0-52-49m-6 11c28 28 39 37 43 37l3-1-21-20-24-24q-5-4-9-4h-5zm-24-15q-5-1 4 9l26 25c16 15 18 17 22 17 4-1 3-2-22-26-21-19-27-25-30-25m-33-5q-5 0 34 38c15 15 18 17 21 17l4-1zm20 4q-13-6 6 13l27 26c11 10 14 12 17 11 3 0 1-2-22-25-14-13-26-25-28-25"
        clip-rule="evenodd" />
    <path fill="oklch(10% 0.07 257)"
        d="m1624 852 7-2q8 1 3 2zm239-113 2-2-3 9c-1 0-1-6 1-7m-27-12c0-2 9 9 10 13q3 6-1 1l-6-8zm72-67q1-2 7 2 8 7 5 12-2 4 7 2 9-1 12 3 5 4 6 8l3 6q3 6-2 15l-2 5h3c3 0 11 8 11 12q0 3 5 0 7-5 15 4c4 5 8 15 5 13l-2-3-5-7q-11-10-17 3-1 6-4 4l-3-1v-3q5-6-1-14-3-5-9-4-10 3-3-8c6-6 6-8 4-14q-5-20-18-15-12 5-13 0l1-4q7-9-2-10-7-1-3-6m-23 53q7-3 1 4l-4 8q-1 6-4 9-9 7-4 0 6-6 6-13 0-5 5-8m-39-9q1-4 4 3c3 4 4 12 2 13q-2 1-2-3l-2-8zm9-82q12-5 21 1l8 4 6 4q2 4 5 5 7 0 7 7 0 2 5 6l3 5h-3l-5-3q-5-1-4-6 3-7-7-6-3 2-4-4 1-4-4-4l-7-4q-6-6-19 0-12 4-11 13v6h-6q-12 2-10 10 0 7-4 4c-2-2 1-12 5-14l6-2q4 1 4-6 2-9 14-16M742 317q4-3 7 0 6 5-1 3c-3-1-4 0-11 10l-7 10 11-1q13-2 13 1 2 5-4 2-1-2-10 6l-12 11c-5 2-15 3-20 0-7-3-15-11-15-14q-1-4 5 2 10 8 20 7l5-1-4-1q-10-2 1-2c7 1 8 0 14-3l6-5h-7q-14 0-9-4c4-2 12-10 12-12h-3q-4 1 1-4z" />
    <path fill="oklch(10% 0.07 257)"
        d="M669 286q19 0 30 22c5 8 6 10 12 13 8 4 12 3 20-4q10-9 4 0-3 5-10 8-18 11-29-12c-9-18-16-24-30-22q-12 0-5-3zm1030 27q9-4 13 0 5 5-1 6l-6-1-7-1-4-2zM331 274q15-7 7-1c-8 7-31 15-43 15q-16-2-1-3 19-3 37-11m884 7 2-1v3q-1 2-3 1zm-885-23c3 0-6 6-15 10-17 9-38 10-53 3l-4-2 4 1 21 1c17 0 26-2 39-9zm43-34q4-10 4-5c1 7-8 26-15 32q-6 7 2-8c4-5 8-14 9-19m-8-19 1-2c4 4-3 24-11 35q-9 10-2-2c5-8 12-27 12-31m-149-57 6-5-3 4c-6 7-12 19-15 28q-4 19-4 10c0-11 7-28 16-37m-13 1-11 21c-1-1 5-15 8-18z" />
</svg>