<svg xmlns="http://www.w3.org/2000/svg" fill="none" viewBox="0 0 1162 690">
    <path fill="oklch(10% 0.07 257)"
        d="M250 624c-4 2-28 2-35 1-15-3-25-8-30-15-1-2-5-4-9-6-6-3-11-8-11-11l-4-2-5-1h4c4 0 4 0 6-5l4-12 5-16c1-10 2-13 7-15 3-2 4-3 5-7l1-15c0-10-4-34-5-36h-52l-6 6-5 5v11l-1 11-1-10-1-9-5 3-4 4v19c-1 17-1 21-3 20a499 499 0 0 1-3-68h-4l-3 1v56l-2-30v-26H83l-1 14 1 27a521 521 0 0 1-3-32v-10H68l-1 36-1 38-6 1c-5 1-7 0-8-7l-3-11c-2-6-3-11-1-11s6 4 9 9l3 4 2-59-18-1-18-2c-3-1-3-3-3-18v-13l4-2 16-8 13-6 20-1 29-1h9v-7c-1-4 0-8 1-10 1-4 1-5-2-9l-2-8 7-15c5-10 8-17 10-25a635 635 0 0 1 33-95c5-14 10-22 20-29 10-8 19-11 45-17 12-2 23-5 24-7l-2-6c-13-19-18-31-18-45 0-3 0-4-2-3s-2-8 2-16c4-11 12-20 19-22 4-1 3 1-4 7-6 6-11 14-11 17l3-1 3-3-1 5c-2 4-2 8-2 12 0 6 0 5 3-1 1-4 3-4 3 0l2 10 3-6c2-6 4-7 4-2l1 6c0 2 1 2 4-4l5-7c2-1 2-1 1 6l1 7 11-12 1-1v1l-1 5v2l2-2 4-8 2-5v14l-1 4 3-5c3-4 5-6 5-2-1 4 1 2 2-2l2-4 1 5v5l2-3 2-8 1-6c0-1 1-1 3 3 2 6 6 12 8 12l-1-4-2-6c0-3 2-2 10 5l6 4c0-2-3-7-7-12l-2-4 14 10c4 3 4 2 1-2-3-5-1-5 3-1l4 2-6-11c-2-1-2-2-2-3 1 0 4 2 7 6 6 6 7 6 3-1-2-4-1-6 2-2 2 1 2 1 1-1l-4-4-3-4-22-17c-11-6-24-7-37-3-9 3-10 2-5-3 6-7-1-2-13 8l-5 4-4-2-5-3h4c4 0 5-1 6-4 2-5 4-5 3-1v3l4-5c6-5 11-8 19-10s22-1 20 1l-6 1-10 2c-5 2-6 4-1 3l11-1c11 0 18 3 30 12 11 8 17 11 22 12l4 1-6 4 4 5c6 7 9 15 9 23 0 6 0 6-2 3-1-3-1-3-1 4l-3 10-2 3v-4c-1-4-1-4-3 3-1 3-2 10-1 21l1 9-5 10-5 10 5 3 8 8 4 4 3-8c5-9 9-14 17-18l7-6c0-2 2-5 5-8 5-5 7-7 23-16l5-4-6-4-5-4-3-2c-3-1-3-2-3-4l-2-4c-3 0-4-4-4-6 1-2 0-3-2-4-2-2-2-3-2-6 1-3 0-4-2-6s-2-3-2-6c1-4 1-4-2-4l-4-2-5-1c-4 1-7-1-7-5 0-2-1-2-3-2l-5-2c-2-1-2-2-2-5l1-5c1-2 1-2-2-2l-5-3c-3-3-2-7 1-9 3-3 3-4 1-7-2-1-2-2-2-5s1-4 5-4l6-2c1-1 0-7-1-7l-1 3c1 4-1 4-3 1-2-4 1-8 5-8 2 0 3-1 3-2 0-2 1-3 3-2h5c7 0 9-1 10-2l5-1c3 0 3-1 2-3-1-1-2-1-5 1-2 2-4 2-8 2-3 0-4-1-3-2l4-1 6-2 5-2c3 0 4 0 5 3 1 2 2 5 4 5 2 2 2 2 2-1 0-6 6-7 9-1l3 4c3 0 5 3 4 8v5h4l6-2 1-1 19-1c13 0 19 1 21 2l4 2 6 2c1 2 4 3 5 3l4 3 4 4 3 4 4 5 2 5 2 9c2 3 3 11 4 16 1 8 2 12 5 17 4 9 4 15 0 26l-4 10c0 2 6 7 18 13 16 8 23 17 18 24-1 1-1 2 2 5l8 9c3 6 3 6 7 6 3-1 3-1 5-7 3-8 6-12 11-17 6-5 11-8 26-13l13-5c1-1-2-6-7-14l-11-17c-3-6-4-13-2-22 2-10 1-16-1-21s-4-7-3-3v2l-3-9c0-2 0-2-4-2-5 1-11-1-16-4-3-3-3-4-3-7 0-5 2-9 7-13s12-7 21-8h7l5-6c12-14 21-18 42-20h22c21 4 38 17 46 36 2 7 3 20 0 31-1 7-1 8 1 11 0 2 2 4 4 5 3 2 3 3-2 3-3 0-3 0-2 4 0 4 0 4-1 3-2-2-3-1-4 3-1 6-4 12-6 11l-4 5-4 5c-1-2-2-1-3 4 0 4-1 5-2 4-3-2-4 0-4 3 1 4 14 12 32 18 23 8 28 10 36 19 8 8 14 19 15 27 0 9-2 7-6-3-4-11-9-18-15-24-6-5-9-6-29-13-12-4-22-9-26-12-3-3-4-3-3 2 1 12-19 31-35 33-7 0-14-3-18-8s-6-13-6-18v-3h-7l-10 2-15 6c-13 5-19 8-23 12s-10 17-10 18l4 1c3 0 6 2 6 6s-2 6-9 8l-7 3 1 7c2 6 2 19 1 29v9l11 1h2c9 0 14 1 17 2s3 1 6-3l7-5 3-1c1-1-1-7-5-17-3-10-9-32-8-36a272 272 0 0 0 10 28c1 1 1-8 1-20v-18a485 485 0 0 1 8 65l12 6c12 5 14 8 14 15v6c2 2 46 21 51 21 2 0 3 0 5-6l4-8 9-1h7v-7l-2-18a212 212 0 0 1 1-56c0 6 1 40 2 38l1-6c2-8 8-25 12-33s13-19 14-18l-5 8c-5 7-9 16-13 28-3 9-7 27-6 28l3-4c2-7 10-20 13-24l2-2c1 1-1 4-5 13-7 14-12 28-13 37v6l6-3c11-4 19-5 35-5l15 1-2-12-2-11-5-5-6-5 4-8 4-10 1-4 4-15c4-20 8-27 21-36 4-2 5-4 6-8l2-8-5-12c-5-13-6-19-4-31 2-5 2-12 2-21 0-11 1-13 3-17 2-6 2-6-1-3s-7 11-8 17l1 8c1 5-1 5-3 0l-1-10c1-6 1-6-1-6-3 0-11-4-13-7-4-5-2-13 5-16 3-2 10-3 21-5 5 0 7-1 12-5 16-12 27-15 47-15 18 0 30 3 43 12 22 15 29 38 21 64l-2 7 2 7c3 9 6 14 19 27 9 7 14 13 16 17 3 5 5 7 8 8l8 6c8 8 11 16 15 37 2 11 4 15 8 23l5 12c0 3-6 9-9 9-2 0-2 13 2 24l7 25c5 17 6 20 13 26 9 9 12 19 10 28-1 5-1 5 3 12l4 8c0 1-6 6-9 7-4 0-6 3-6 6s0 3 32 3l45 2c13 0 14 0 15 3 2 3 2 23 0 27-1 2-6 6-17 13l-16 11-22 1v28l-1 27c-2 0-3-8-4-22l-1-15-3 2c-2 3-2 3-2 13v10l-2-9-1-8-3 2c-2 3-2 5-2 25l-2 24c-2 2-3-8-4-44l-1-26v-6h-9l-1 6v13a5133 5133 0 0 0 2 34c-1 6-1 6-2-5l-1-19-1-18 1-11h-8v25c0 10 0 13-1 12l-2-19v-18h-14l-1 19 1 52 3-1c3-1 2 1-1 6-2 4-3 7-1 5 1-1 5-2 5 0l-4 5c-4 4-4 4-6 3-2-2-2-2-5-1-3 2-4 3-3 5 0 5-3 9-11 13l-13 8-8 6c-24 13-73 9-73-6 0-4 1-4 3-1s4 4 9 6c7 2 9 2 24 2 14 0 17 0 24-2 10-3 14-5 19-10l9-6c9-4 14-10 11-14-1-1-1-1-3 1l-8 5-11 8c-9 6-14 7-29 7-13 0-27-2-35-5-6-2-9-2-10 1l-1 1c0-5 5-12 12-16 4-3 9-7 9-9l2-3 7-8c4-5 4-6 4-10 0-3 0-5 2-7 2-5 2-6-5-19l-16-29-3-2c-2-2-6-2-27-1h-20v3l5 30c2 5 3 7 8 10l5 3c1 1 2 1 5-1 3-3 6-4 6-2l-4 5c-3 6-6 12-4 12l2-2c4-8 19-23 23-23 1 0 0 2-7 11l-11 19c0 2 3 0 6-3 4-5 12-11 14-11s1 3-4 9l-5 8 6-4 9-7c5-2 5 0 1 5l-5 8c-1 4-9 10-11 9l-5 2-5 3-1 3c0 6-5 10-16 14l-10 6c-7 5-17 10-25 11-21 5-50-2-50-12l3-9c3-8 5-10 15-18 3-2 3-4 3-6s0-2 5-5l5-3 2-4 2-8c0-5 0-6 2-8l3-2-4-8c-10-18-19-34-21-35l-15-1c-13 0-14 0-15 2-2 4-1 10 2 17l4 11c0 6 0 6-3 9l-6 5c-2 1-2 1-2 7l3 15c3 12 5 26 3 31-3 8-12 13-26 16h-10l-2-3 9-2c6 0 16-4 21-9 4-4 4-4 4-10 0-4 0-5-1-3-2 4-5 8-8 10l-3 2-7-5-10-5c-6-2-22-3-27-1-5 1-8 1-8-2l3-8c2-4 3-7 3-15l1-9-9-4v-10l-2-13c-3-4-3-5-1-11 2-4 2-5 1-10l-2-5h-17l-20-2c-4 0-7-3-8-6v-2h20l21-1c1-1 0-4-1-7l-2-11v-5h-22l-22-1-1 7c-1 13-4 16-4 4 0-9-2-24-3-26l-10-12-13-16c-5-6-10-14-8-14l10 11 11 13 3 2-1-3-6-15-5-12c1 0 10 11 12 16 2 3 3 8 3 10 1 8 2 9 5 5 2-5 3-4 2 3l1 6c3 2 7-4 7-11 0-9-7-25-15-36-5-6-5-6-13-7l-16-6c-8-4-14-4-23-2-7 2-13 8-17 15l-3 5 1 26a568 568 0 0 0-1 35c-2 0-2-1-3-4l-1-5-5 3c-4 3-4 3-7 1s-4-1-5 2c0 3-1 4-4 4-5 0-5 1-5 7s-3 24-5 26v-16c0-19-1-23-6-41l-3-18v-7l1 4 3 9c2 7 6 17 7 16l4-5 3-15c0-10 0-10-4-18-5-11-13-16-27-17-11-1-22 2-27 6-4 3-9 10-9 12l17 8c10 4 11 6 11 13l-1 6 6 3c6 3 8 5 5 8-2 2-2 2-9 0-6-2-6-2-8-1l-5 3c-3 2-4 2-8 1l-5-1 1 8c1 3 3 12 3 20 2 15 2 14 8 34l5 22 1 8h9l9 1c0 2-2 3-8 3-9 1-12 3-11 8s3 6 12 7c10 2 9 4-4 4-10 1-13 2-10 5h18l-6 1-11 3c-3 2-6 2-8 2l-3-1v-27l4-4 4-6c0-5-9-33-11-35s-19-1-20 1c-2 1-6 27-6 35 0 7 0 7 3 9 5 3 6 6 5 17-1 8-1 9 1 16l2 6-3 5-3 4-6-2c-12-4-29-1-37 6-2 2-2 2-5 1l-2-2v3c0 3 1 4 3 6 3 3 4 3 15 4 6 1 6 2 2 4-2 2-4 2-9 1-6-1-10-3-13-6s-3-15 0-28l2-10-2-6c-2-5-2-6-1-9s2-5 4-6c6-4 6-6 3-20-2-11-5-25-7-28 0-2-2-2-16-2l-18 1c-3 1-19 41-19 47 0 2 1 3 3 4l6 8c4 8 18 21 28 27 7 4 9 5 11 9 3 6 3 13-1 17-8 9-40 10-60 1-12-5-15-6-25-7-9-1-15-3-21-7l-7-3c-4-2-4-2-2-2l5 1 2-7 3-12 4-14c2-10 2-10 6-13l5-3c2-1 9-34 9-44v-3h-50c-4 3-12 23-15 37a82 82 0 0 0 2 40c2 10 7 20 19 31 5 6 7 9 8 13 3 9 1 14-8 18Zm384 58c-3 5-22-1-45-14l-10-5-9 4c-9 4-28 9-34 9-4 0-18-4-27-8-10-4-12-4-19-1-10 4-14 4-20 2l-10-5-4-3-8 1h-8l-3-1-3-2c-2-2-16-3-16-1 0 1 5 3 11 4l3 2c0 2-7 1-13-1l-12-2-7-2-3-2 3-1 13-4a554 554 0 0 0 33-6c3 0 2-3-2-4-4-2-19-4-16-2l4 1 4 1h-6c-11 0-22-2-25-4-6-3-7-18-1-29 5-10 7-11 24-8l9 2c2-1 2-3 2-10 0-10 3-16 10-23 5-6 7-6 25-3 13 3 16 3 8 0-13-4-14-7-3-6 8 1 17 5 20 9 3 3 6 5 9 5 2 0 4-1 6-6 5-7 12-23 12-28 0-2 1-5 3-7 3-4 3-4 8-4 6 0 14 2 21 6l7 4 4 3c3 5 4 9 1 13-3 3-3 4-1 4s2 1 0 4c-3 5-6 7-21 12-59 21-78 28-75 30s7 1 21-4l17-5c2 0 0 2-4 3l-12 5-9 4 10 10 4-2c4-2 4-3 2-3l-2-1 17-5 54-18c2 0 4 3 2 4-7 4-5 5 2 2 7-4 14-9 16-13s7-6 41-17a555 555 0 0 0 28-12c-2-2-3-2-16 3l-21 6-26 4h-3c-3-2 0-3 16-7a282 282 0 0 0 28-6c1 1 6 0 15-4l3-1-2-2c-4-3-8-2-23 3-19 8-42 12-44 9-2-2-1-3 3-4l5-2c1-4 8-6 8-2 0 2 0 2 3 2 5-1 14-6 19-10s7-4 6-1c0 2 0 2 5 0l11-3c4-1 5-1 8 1 8 5 15 17 15 26l-2 10-3 5h13c16 1 20 2 26 9 3 3 6 9 6 13l1 2 1 3c0 5 1 6 12 6 9 0 10 0 12 3 3 3 3 6 3 14l-1 10-2 3-16-1c-15 0-16 0-20 2l-8 3c-3 0-3 1 7 3 14 3 16 4 16 7s0 4-5 5c-6 2-15 2-24 0s-14-3-14-1c-1 2 0 3 4 4l2 2c0 2-4 3-11 3l-10 3-14 5-9 3Zm216-332h8l13-1c15-1 15-1 1-7l-17-10c-6-4-12-10-11-10l10 5c11 7 27 15 34 17 7 3 10 2 26-4l17-6 4-2 1-7-1-15c0-7-1-7-4-9-4-2-4-5-4-28 0-12 0-18 2-26a8531 8531 0 0 0 1 28l2-9c3-14 8-27 17-42 3-6 3-4 0 3-10 20-17 44-17 59l1 8 5-3c12-6 34-13 47-15h7l-3-8c-4-8-5-10-9-29-3-15-6-22-13-28-6-6-8-7-23-11l-14-5-1 6c1 10-1 19-4 26-3 6-9 14-10 14l3-9c4-10 7-21 5-22h-1l-6 11c-9 16-11 20-11 27s2 11 7 14l3 2c-1 2-6 2-9 0-4-3-7-7-8-14-1-5-2-5-2-4l-2 10c0 9 2 13 7 18l1 3c-2 1-11-3-15-6-5-4-10-15-11-22l-1-6-6 3c-13 6-27 1-34-11l-1-3v7c0 9 3 18 8 22l4 4-3 1c-2 1-3 1-7-1s-5-4-8-10c-4-6-4-7-4-18 0-9 1-14 3-23l4-16c0-5 0-5-2-5-3 0-3 0-3 8l-2 9v-7c0-9 0-9-2-9-6-2-6-1-6 4l-2 14-1 18v6c-2-5-2-15-1-26 2-17 2-17-3-25l-5-6-1 4-5 15c-4 14-5 23-1 30l3 5v-11c1-10 1-12 4-21 4-11 5-9 1 4-2 8-3 19-2 24 2 4 3 2 3-5v-7c1 0 2 5 2 11 2 11 4 16 8 24 4 6 10 12 15 15 4 1 4 2 3 2-3 2-9-1-14-6-4-3-6-7-10-14-4-8-6-10-8-11-4-2-7-6-9-11v-24l-4 2c-6 4-10 12-12 26a159 159 0 0 1-11 38c1 2 15 10 22 12l18 4c2 0 2-1 1-5a201 201 0 0 0-3-22c2 2 5 10 7 18 2 15 8 28 15 34 7 5 32 34 30 34l-8-6c-3-4-6-6-7-6l4 16c0 1 2 2 5 2Zm-581 1c5 2 16 2 20 1l4-4 29-63 6-21c3-12 6-17 5-9l-3 20-3 10-1 6c1 0 8-10 13-20 3-4 3-4 2-1-1 8-9 22-18 31-4 4-9 13-9 16l1 2c5 2 22 0 32-4 7-3 13-8 12-10l-6-40c-2-20-4-27-10-33l-8-6c-2 0-3 0-7 4-5 7-10 8-18 7h-7l-1 4c-4 12-15 23-24 23-11 0-25-11-31-25-3-6-4-9-4-15 0-8 1-13 4-15s-1-1-8 2l-16 4c-22 5-37 11-46 21-7 8-11 17-14 33l-9 38c0 1 1 1 6-1 5-3 8-4 15-4 13-1 27 3 33 9 3 3 3 3 3 1 1-2-1-19-3-30-2-13-1-14 3-2l2 6 1-3 1-15 1-12c2 0 3 8 3 16 0 7-1 12-4 25-1 5 2 2 4-4 4-12 5-21 5-31-1-9-1-11-3-15-4-6-10-11-17-14-6-2-8-4-3-3 19 4 28 21 25 44-2 12-5 24-8 30l-2 9c0 4-2 10-4 13l-2 5-1 4 6 2 12 4 7 3 5-2c5-2 14-9 26-17 2-1 2-1-1 2l-16 15-6 4 4 1 11 2 12 2Zm836-102c-3 2-5 3-12 3h-8l6-3 6-2v-45l-6-5a367 367 0 0 1-61-84l-15 7c-23 11-41 16-59 17l-12-1 5-2a1084 1084 0 0 1 7-1l1-4 1-2-2 1-9 5v-5l-6 3c-6 3-13 4-12 2l9-7c10-5 15-10 15-14l-1-2-7 6c-5 5-8 7-8 5l2-3c4-3 3-4-1-1h-6c-4-1-3-2 1-5 9-3 24-17 27-24 2-3 1-4-1-2h-1l-4 2c-2 2-6 3-6 1l1-2c1-3 1-3-3-1s-14 4-14 2l8-5c9-5 20-14 22-20 2-4 2-4 0-4l-5 2-5 2v-2l2-3-6 2c-5 2-12 2-13 1 0-1 3-3 7-4 8-4 17-12 20-17 3-6 2-6-1-6h-3l4-6c4-5 5-7 5-12 2-15 3-17 5-16 1 1 3 7 3 12 0 6 3 12 10 16l6 4c0 1-8 1-10-1-4-2-4-1-4 1 0 6 10 16 19 19s5 6-5 3l-6-1 2 2v1c4 4 10 8 16 10 7 2 7 4 1 4h-7c-2-1-2-1-1 1v2c-2 0-7-4-9-6l-2-1c0 2 0 2-2 1-5-2-3 0 3 7 8 7 15 11 26 15 8 2 9 3 6 5h-7c-5-1-6-1-4 1 2 3-1 3-4 1l-7-4c-3-3-3-3 0 3 0 1-2 1-5-1l-4-1c-1 1 9 11 14 14l14 9 1-1-2-1c-2 0-1-2 1-3 8-2 26-13 28-17 1-2 0-2-2-2l-6 2h-6c-3 1-6 0-6-1l7-5c7-4 14-11 16-15 1-4 1-4-3-1-3 2-8 3-8 2l6-7c7-7 8-11 2-7-4 3-10 5-11 4 0-1 2-3 6-5 8-4 11-11 15-24l2-4 3 11c2 8 3 10 6 14 5 4 5 6-1 4h-2l3 4 8 6 5 4c-1 2-8 2-11 1-4-2-2 1 5 8 6 6 14 11 23 13l4 2c0 2-5 2-11 1-6-2-17-2-17-1l5 6c6 8 16 14 24 17 9 3 10 3 6 5h-8l-12-2-7-2c-2 0-2 0-2 2 1 2 1 3-1 3-1 0 0 2 5 7a101 101 0 0 0 39 23c4 4-3 6-10 4-3-1-4-1-2 1s1 3-2 3l-7-5c-5-4-7-5-6-3 2 2 0 3-4 1-4-1-5-1-3 2 5 7 23 19 36 24l7 4c-1 1-7 1-13-1-5-1-6-1-4 1v2c-1 1-7-2-11-6-3-3-4-2-2 1 2 5 0 6-6 3l-5-3 16 16c3 1 4 3 4 4l1 4c5 3 27 31 26 31l-16-15-16-15v35c1 2 1 2 4 1 4 0 4 0-1 3ZM189 556c2 1 2 1 5-2s11-5 20-5h8l1-13c1-18 4-29 15-54 7-14 8-16 10-31 2-11 3-16 7-23 8-17 7-26-1-38-4-7-5-7-25-8-17 0-25 1-30 4-8 5-14 23-13 36 1 7 3 13 4 13 2 0 10-15 10-19l1-3c1 0 1 7-1 13-12 32-13 42-9 68 3 19 2 35-1 47s-3 13-1 15Zm260-328 6 3c4 0 19-13 24-20 2-4 3-12 0-12-1 0-2 2-2 5l-2 4c-1 2-1 2-2-1 0-3-1-4-7-7-8-3-19-11-24-16-4-4-3-4 3-1 15 9 38 12 45 7 5-4 16-28 17-38 0-6 0-8-3-14-3-7-5-8-11-5l-4 1c-1-2 4-6 7-7s3-1 4-4c0-6-1-7-6-6-4 0-4 0-4-2l4-2c3-1 4-2 3-4-1-5-5-12-9-16-3-3-5-4-9-4h-11c-3-1-3-1-5 1-1 2-2 2-5 2-3-1-4-1-5 2-2 3-3 3-5 2-3 0-3 0-3 3l-3 3-3 4-2 4c-2 1-2 2-2 4 0 1 0 3-2 5-1 2-2 3-1 6l-1 4c-2 2-2 10-1 14v5c-2 3-2 2-8-3-5-3-6-4-10-4-5 0-9 3-9 8-1 7 4 16 12 20 4 2 8 3 13 1 3 0 4 1 1 4-1 2-1 2 1 9 2 8 4 24 2 24l-1-3-1-3v10c1 4 8 11 19 17Zm399 15c5 3 13 2 20-1s8-4 9-10c1-5 1-6-2-12-3-9-3-17 0-30l4-16c0-7 0-9-2-11l-2-4 4 1c4 1 10-1 15-7 5-5 6-8 6-16 0-4-1-6-3-8-5-5-13-2-19 6-3 5-7 8-8 7v-3c2-6-1-13-8-15-5-1-12-6-13-10-1-1-2-2-7-2h-13l6 1c6 0 13 2 13 5l-1 1c-6-4-9-4-14-4-4 1-6 1-9-1l-5-4-1-2 4 1h5l-6-3-12-7-5-3c-2 1-5 9-5 11s0 3 4 3 5 3 1 3c-5 0-6 2-6 6 0 3 1 3 4 4 2 0 4 1 5 3 3 3 2 5-2 3-5-2-7 0-9 9-4 14-2 19 10 38 7 11 11 14 17 14 9 0 27-7 37-14l4-2c1 1-7 9-15 16l-8 7 4 8c3 5 4 8 4 12 0 6-2 6-4-2l-3-5-3 6c-4 11-1 22 9 27Zm-16 156 2 1 5-1 1-1c8-2 14-6 22-13l8-7 36-1c33-1 37-1 45-3 12-3 24-8 25-11 5-7 10-63 7-77 0-3-1-3-4-3-10 0-37 10-39 14v19l1 16 5 1c11 0 12 3 0 3-9 0-14 1-24 5a146 146 0 0 1-75 12l-13-1a71 71 0 0 0-33 11c-2 0-1 2 2 4 4 1 4 1 11-1l10-4c5-4 5-2-1 6-7 8-12 13-17 14-6 1-2 9 4 9 3 0 11-4 18-10l3-2c1 1-4 7-9 10-6 4-6 5-2 7 2 1 3 1 11-3l9-4c2 0-2 3-6 6-4 2-4 2-2 4ZM134 249l-7 2-4 1 3-2 3-2-1-14-1-15-6 5-24 24a185 185 0 0 0 23-29l1-3-18 1c-14 2-22 2-42 2l-24-1v7l1 14 1 7c-2 3-10-2-10-6 0-2 1-3 2-1l2 1 1-11c-1-10-1-12-5-12l-11 9-9 9 3 2 4 3-16-1 1-1 1-2c0-2 1-2 3-2s4-2 11-9l8-9 3-3c3-1 9-8 10-12v-2l-5 2c-2 2-5 3-7 3-4-1-3-1 5-6 8-6 25-21 24-22l-3 1h-2c-1-1-2-1-4 1-4 3-7 5-8 3h-5c-6 1-11 1-9-2l6-3a69 69 0 0 0 33-30l-9 3c-4 3-7 2-4-1v-1l-2 1-14 3c-4-1-3-3 3-5l9-3c5-3 14-11 18-18 3-5 3-6 1-4l-17 4c-2-1-2-1 4-4 7-3 14-9 16-13 2-3 2-3-1-3-3 1-3 0 1-4 2-2 3-5 3-8 1-8 2-10 3-11 2-1 3 2 3 8 1 6 4 14 6 15l5-2 13-13-1-1-11 1c-12 1-13 0-4-4 6-3 14-10 17-16l1-4-5 2c-4 3-10 4-11 2l5-3c5-3 10-7 12-11 1-4 1-5-3-2l-5 2c-2 1-2 0 2-4 8-8 9-10 11-21l2-9c1-1 2 3 3 8 1 11 3 16 8 21 4 5 3 7-3 3l-3-2v2c0 3 3 10 5 12l8 3 5 3-2 1h-7l-4-1 5 6c5 6 13 11 20 13 6 2 7 3 3 3-2 1-4 1-12-2l-2 1c2 2-1 2-5-1s-4-3-4-1-2 3-3 1l-2-1c-1 0-1 1 1 3 4 6 11 12 18 16 6 3 9 5 5 5l-1 1c0 3-2 2-6 0l-1-1-4-2v2c2 4 1 5-4 3l-4-2 5 4 5 4a560 560 0 0 0 72-26c2 1-29 16-46 22-21 9-36 12-58 14l-12 1-7 12a480 480 0 0 1-47 65l4 3c7 2 79 0 85-3a682 682 0 0 0 84-107 400 400 0 0 1-68 94l-9 9v38l3 1 2 1-3 1Zm510-35c5 2 11 2 19-2 8-3 18-13 20-18 2-4 2-4-1-10-1-4-3-9-3-16l-2-12c-2-3-1-3 2-2 4 2 10 0 15-6 6-5 7-10 7-16-1-5-2-6-4-8-3-3-4-3-6-3-5 1-8 4-10 9-3 5-8 9-9 7h-2c-1 1-1 0-1-6 0-8-2-13-5-15l-1 1v1l-11-7c-1-2-2-1-1 1l1 2c0 1-5 1-9-1l-6-1c-5 0-8-2-6-4 1-1 1-2-2-3l-7-7-4-5v3l2 9 1 5-4-4-4-4 1 3 2 5c2 2-1 1-5-3-4-3-9-12-9-15l-1-2c-2 0-5 8-5 13-1 5-1 5 2 5l7 2-3 1c-6 0-7 2-7 6s0 4 5 5c4 1 8 3 8 6h-3l-6-1c-4 1-5 3-6 13 0 6 0 7 3 13 1 4 6 12 11 19 6 9 8 12 11 13 8 3 21 0 36-9 8-5 9-5 7-2a113 113 0 0 1-21 19l1 5c2 3 3 5 2 6l-3-3c-5-4-6-4-6 0 2 5 6 11 10 13ZM354 358l1 2 4-2c2-1 3-2 3-5 0-5 4-13 10-18 5-4 3-4-5 2-7 5-8 6-10 11l-1 2c0-5 3-10 7-14 6-5 10-7 21-10 8-2 10-3 10-4-1-3-7-5-17-7l-10-1 4-1 7-1c3 0 3 0 2-2l-8-2c-6 0-7-2-2-3 6-1 11 1 13 4l4 4c2 0 2-4 0-8-1-3-10-11-16-14l-3-3c2-1 8 2 14 7l5 5v-5c-1-5-2-7-8-18-4-7-7-17-8-28-1-8 0-8 2 1s8 24 9 24v-5a711 711 0 0 1-4-39c2-1 5 13 7 25a244 244 0 0 0 16 65c2 3 9 9 10 8s0-4-4-17v-3l7 19c2 6 2 6 14 2 10-4 14-6 11-6l-1-6 4-47c0-16-4-31-9-36-1-1-1-1-3 1l-1 2 4 5 5 7v11l-1-5c0-3-4-9-6-9l-1 16v31c1 3 1 4-1 5-2 2-6 2-8 0-3-2-3-3 0-8 2-5 3-25 2-40-1-9-1-11-3-13-4-4-11-8-21-14l-12-9c-4-4-6-4-12-1-7 4-10 8-15 20l-4 10 1 14a243 243 0 0 0 8 52l-8 7-6 5v20l2-4c2-4 8-12 11-13 1-1 1 1-2 4-5 5-6 8-9 16-1 6-1 12 1 14Zm340 177a94 94 0 0 0 54-11l4-4-1-5c-2-8-4-9-9-9l-12 2c-10 4-21 5-25 3l-3-2 5 1c4 0 8 0 12-2a3016 3016 0 0 1 24-8c1-2 2-26 1-47-1-13-1-14-4-20l-4-8c-1-3 2-3 6 1l3 4 1-6v-7l2 3 1 19 1 19v3l3-3c5-6 6-15 2-31l-3-16v-7h-4c-3 0-3 0-3 4l-2 6c-2 2-11 7-23 12-9 4-11 4-14 3l-5-3c-2-3-5-3-15 2l-9 3v14c0 10 0 16 2 21 3 14 6 23 7 23l3-8 3-8-1 7-4 17-4 11 4 3c5 4 14 7 24 7 8 0 8 0 5 2l-10 2c-5 0-9-1-18-5-1 0-2 1-1 7 0 9 1 10 7 11ZM272 258l7 2 4-2c6-4 13-14 10-14l-7 5c-1 1-1 1-1-1l4-7 5-5-8-7-10-13-2-5 7 6c8 7 26 16 32 17 7 0 10-2 18-13 11-17 12-19 12-31v-9h-9c-1-2-1-2 1-4l4-2c2 0 3-1 3-3 1-3 0-5-3-5-3-1-4-1-5-6-3-7-4-8-5-4-1 7-2 7-5 2-2-5-6-9-9-9-1 0-1 1 1 4l2 3c-1 1-10-4-13-7l-4-4-2 6c-1 3-3 7-5 8-3 3-4 3-2-2 1-3 0-3-5 3-2 3-5 5-6 5-2 0-3 5-2 11v5h-3c-5-1-6-3-9-8-3-6-6-9-11-9-4 0-7 2-9 6-3 8 0 16 7 22 5 5 8 6 12 4 3-2 3-2 3 0 0 4-3 5-8 5-4 0-4 0-6 5-2 4-3 6-5 7s-3 2-3 4c-1 5 3 15 7 23 6 8 11 13 18 17Zm19 287c4 2 11 0 18-4l8-4c4-1 5-2 5-4l15-42a361 361 0 0 0 22-63c5-17 6-23 2-32-2-3-3-4-6-5h-9l-12 2c-6 0-7 0-8 2l-4 3c-3 2-4 2-6 1-3-1-3-1-8 2l-6 9c-3 7-5 17-4 20 1 2 2 2 7-3l7-5 1-1-6 12c-7 11-7 14-8 42 0 26 0 27-3 39l-5 19c-3 6-3 10 0 12Zm-9-145h1l9 3 2-1c2-1 2-2-2-5-3-2-4-4-4-5l7 3c7 4 10 5 13 2 2-2 2-2-5-8s-8-10-1-4c15 11 19 12 20 6 0-3-1-4-8-12-9-8-12-13-11-14l4 3c7 7 14 9 20 6 5-2 3-4-3-5s-12-3-15-6l-7-4c-4-2-7-2-18-3l-21-1-17-4c-4 0-14-3-22-6-14-5-24-8-30-7h-3c0-1 3-2 9-2 4-1 6-5 6-14 0-6 0-7-3-9-8-7-35-9-39-3-2 4-3 34-1 45 2 12 4 15 15 19 7 2 8 2 31 3l37 1c13 2 13 2 15 5l8 8c4 4 7 6 13 9Zm114 127c1 1 1 2 4 1 5-2 17-2 22-1l3 1v-7l4-35 3-19 6-37c1-2 0-3-4-4-6-4-7-5-8-10 0-5 0-5-18-11a4433 4433 0 0 1-27-6c-1 2-1 16 1 19l1 2 2-4 2-9 2-6c1 0 0 11-3 25-4 21-3 46 3 71a323 323 0 0 1 7 30Zm135-151 9 6 1-2c2-5-8-11-23-16-9-3-10-3-22-3h-14c-3-2-4-8-4-17v-10l1 7c1 9 3 15 4 17l17 1c15 0 15 0 22 4l14 7c6 4 8 4 8 0s-2-6-6-6c-7 0-15-5-24-14-6-6-8-9-10-13-2-8-2-20 1-30 2-7 2-9 2-18l-3-17c-5-13-3-24 6-27 4-2 4-2 5-10l2-6v12c1 2 5-1 5-4s5-13 7-14v2l-4 8c-2 5-2 5 0 5l22-7c0-1-3-7-8-12-8-9-12-9-36 5l-15 9 1 4a1119 1119 0 0 1 0 55c-5 3-10-4-7-9 1-1 2-4 2-9l-3-37-5 2-5 2 2-4 5-3 2-2-2-2c-2-2-2-2-1-5 2-5-1-1-5 6-3 7-4 8-4 17l2 18 2 19v10h7c7 0 7 0 11 5 5 5 7 10 7 16 0 7-3 11-13 15l-11 4-1 9c1 11 3 18 6 21l2 3 10-1c17-2 28 0 41 9Zm112 17 7 3 6-3-8-7c-10-7-7-8 4-1 9 5 13 6 14 2 1-3-1-6-9-11-8-6-10-8-8-8s14 6 18 10c4 2 6 2 8 1 3-4-1-10-12-17l-8-6c0-2 4 0 10 4 4 3 6 4 7 3s0-4-4-5l-8-4-5-4h-15c-16 1-18 1-28-8-7-7-11-8-20-9l-7-1 12-2 6 1v-3c0-3-1-3-6-6l-7-5-1-8c0-5 0-5-3-8l-3-3-8-1-9 2c-2 1-1 5 1 14 1 8 1 9-1 17s-2 9-1 17c1 7 1 9 3 11l5 2 12 4c9 4 14 6 27 8l6 4c3 6 9 11 16 13l9 4Zm266-262 7 5c1-2 4-16 4-22 0-13-5-24-16-35a62 62 0 0 0-48-18 64 64 0 0 0-45 16l5 1c12 1 29 9 46 21l11 7 3-4a240 240 0 0 0 16-25c0 1-4 10-11 19l-5 11c1 1 24 19 33 24Zm-214-23c10 7 11 8 12 6l1-16c0-13 0-14-3-19-3-7-13-19-20-23l-12-6c-14-4-41-3-55 3l-16 16 5 1a119 119 0 0 1 57 19l12 8 19 11Zm47 283c1 2 5 1 9-1l6-9 4-7h-3l-4 1 3-4c7-6 14-10 19-11l16-2c10-1 12-1 15-3 4-3 6-6 8-23 3-22 3-23-2-33l-5-8-27-7-1 18-1 23-7 18c-6 10-7 13-11 16l-8 6-4 4-4-2h-8c-2 1-3 1-1 2l7 4 7 3-2 4c-6 5-8 10-6 11ZM55 470a907 907 0 0 0 89 0h39v-3c1-5 0-5-31-5a382 382 0 0 1-12-2h21l-7-3-13-5-7-4h-28c-26 0-49-1-71-3h-8v13h18c14 0 17 1 16 2l-17 1H28v8l27 1Zm891 6 62 1 61-1 1-6v-6h-16a370 370 0 0 1-51-2l-14-1h35l28 1 18 1v-10H942l1 6 2 11 1 6Zm-59-210c4 4 5 4 4-1l-1-12c1-9 4-16 14-31a168 168 0 0 0 9-13l-4 11-5 11c0 2 13-20 15-26 3-7 3-17-1-25-5-14-5-17 2-5 4 9 10 14 17 18 6 2 15 4 15 2l-2-4c-4-5-22-21-24-20 0 0 2 4 6 7 4 5 4 6 2 4l-6-6c-5-6-12-21-14-29-1-7-2-9-3-9l-1 6v3l-1-6c0-3-2-7-4-7s-1 8 1 17c3 13 2 16-1 5-3-9-3-9-4-7-2 4-1 11 0 17 4 12 3 24-2 37a252 252 0 0 0-11 26l-3 11-1 3c-2 0 0-7 3-15 7-18 8-19 4-16-4 5-9 17-11 24-2 11 1 22 7 30ZM641 673c0 2 3 2 11-2 11-5 14-13 12-25-1-6-2-7-6-11l-8-6a609 609 0 0 0-65-27c-6-3-11-2-15 2-5 5-4 6 7 12l21 11c11 4 18 9 18 9a169 169 0 0 1-42-16l-11-5c-1 2 2 4 8 8l9 6c6 5 10 7 14 6l15 6 12 6 5-6 5-6-12-7c-19-10-15-11 5-1 12 5 12 5 21 5 7 0 8 0 10 3 4 3 3 4 0 4s-3 0-9 16l-5 18Zm262-82 14 1c16 0 22-2 31-9l11-7c4-2 9-7 9-10l-1-4-3-11c-1-8-4-14-6-15v5c0 7-2 10-9 10-5 0-5 0-8 4l-2 4-7-3c-5-2-8-3-13-3-7 0-10 1-5 2 9 2 14 3 18 6s4 3 6 1c1-2 3-1 1 2-1 2-5 2-9-1-5-3-9-4-15-4-10 0-11 2-2 3l11 4c4 3 6 3 7 3h1c0 4-2 4-9 0-7-3-14-5-19-4-3 1-2 3 3 3 9 0 21 6 21 12 0 2-1 2-4-2-4-5-10-7-19-7-6 0-7 0-14 5l-10 7c-1 2-1 2 1 3l21 5ZM119 419l1 2 5-7a112 112 0 0 1 37-40c2-1-1-5-4-5-4 0-13 4-21 9l-8 4c0-4 12-12 23-16l5-2v-39l-4-4c-4-4-4-6-1-19l3-15a533 533 0 0 0-26 79l5-3 12-5-7 6c-17 13-24 22-21 29 1 4 2 4 5 0l2-3v3l-4 10c-2 7-3 13-2 16Zm685 168c15 1 25-1 33-7l9-6c12-6 14-9 11-16l-2-12c-1-7-1-9-4-11l-2-3v5c1 4 1 5-1 7-1 3-2 3-6 3-5-1-5 0-8 3l-4 4-4-2c-5-3-13-4-17-4-6 1-5 3 1 3l12 4c6 3 6 3 7 2 2-2 2-3 3-1s-2 5-5 5l-2 1c1 2-1 5-3 5l-6-3c-5-3-12-4-17-4-6 1-5 3 2 3 9 1 16 5 19 9l1 4c-1 1-3-1-5-3-5-5-10-7-19-7-5 0-7 0-10 3l-12 10c0 2 17 7 29 8Zm142-43c2 4 5 5 8 2 2-2 2-3-2-11-7-14-10-27-10-44 0-10-1-11-6-7-8 6-20 11-28 12l-8 1 7 13a187 187 0 0 1 11 25l11 2c12 1 15 2 17 7ZM527 354l8 5c7 0 13-5 21-17 5-8 7-12 7-21 0-10-2-15-13-31-2-4-1-5 2-2l3 2v-8c2-18 0-35-4-35l-1 2c2 4 3 15 2 20-1 6-2 8-7 12-4 4-4 6 3 12s12 16 12 24c0 6-2 7-3 1l-2-11c-2-6-3-7-6-9l-4-1 1 4c3 11 0 24-8 30-5 4-9 5-15 3-9-2-14-9-15-19l-1-5c-2 0-2 12-1 20 2 7 2 8 8 13 4 4 9 9 13 11Zm133 83c2 1 4 2 5 1l5-1c2 0 3-1 3-2l-2-1-5 1c-2 1-5-1-5-4 0-2 1-3 18-10l13-6 1-7c0-9 1-10 13-16 11-5 17-7 20-7 6 0 1-6-8-10-4-2-7-3-14-3-9 0-10 1-15 3-10 5-20 20-27 40l-4 12c-3 4-2 7 2 10Zm317 118c-1 5 0 5 2 1 1-2 2-8 1-35v-33h-7l-16-1-10 1 1 16c1 18 3 23 11 28 6 4 8 8 9 17l2 6 3-4 4-7c2-2 2-2 2 3l-2 8ZM343 378c9 3 10 2 7-3-1-2-2-3-5-4l-5-2 7-7c2-1 2-1 0-7l-1-20 1-14a675 675 0 0 0-32 5l-4 1-1 12-1 15c-1 3 0 4 6 8 3 2 5 3 9 3 7 0 10 2 10 6v5l9 2Zm496 163c2 3 5 4 7 2s1-4-3-13c-4-8-5-14-8-30l-2-12v-3l-6 3c-7 3-14 6-25 7l-9 1 7 13 9 17 2 5 10 1c9 1 16 3 16 5l2 4Zm140-92a609 609 0 0 0 60 1c22 0 29 0 36-3 6-2 10-5 21-12 5-3 5-4 3-4l-45-1h-43l-2 3-2 4 24 1c18 0 21 0 15 1a438 438 0 0 1-45 2l-2 2 14 1c28 0 30 1 4 2-28 1-38 2-38 3Zm65-196c-8 3-9 2-5-3l1-2c-7 3-9 3-11 2-3-2-3-1-3 1 2 5-2 3-4-2-3-5-3-5-1-5a532 532 0 0 0 8-87l2 10a211 211 0 0 0 20 72c6 13 6 13 12 10l2 1-5 3c-7 2-9 2-10 0h-6Zm-29 153c7 5 6 1-4-18l-4-9 4 5c4 5 5 5 5 3 2-7-1-14-11-24-4-5-7-9-7-11l-8-28-2-3v3c-2 24-5 39-8 43l-2 3 6 2 10 7 3 3-9-4c-6-3-11-5-14-5-6 0-8 1-3 3 6 2 16 9 29 18l15 12Zm-496-78c2 2 5 3 8 3 5 0 6 0 10-5 5-5 6-7 7-11 1-6 0-9-5-25l-2-4h-8c-9-1-11-2-14-8-2-3-7-5-6-1l2 21c0 23 1 26 8 30Zm-101-98c2 3 2 3 4 1l3-2c3 0 3-2 0-4l-13-7c-11-5-17-9-17-11l3 1 15 8 15 8c3 2 3 2 1-4-3-8-4-16-3-24 1-9 1-12-4-16-4-5-12 1-17 12l-4 8c-1 2-1 2-1-1v-4c-1 0-5 5-5 7l-1 1-1-4c0-3 1-4 4-7l3-4c-2 0-14 10-15 12-3 6 1 11 18 21l15 9Zm329 128c1 2 4 1 9-2 8-6 10-12 8-33 0-8-1-14-2-15-2-2-23-1-33 2-3 1-4 2-4 6l1 6c1 2 2 2 7 2h9l2 1h-2l-7 1-4 1 4 3 7 8c5 6 5 7 5 12v8Zm-23 9c3 1 5 1 10-3 5-3 10-14 9-17 0-2-3-6-6-10-8-9-14-12-27-13-9 0-9 0-11 2l-2 5-2 4c-1 3-1 3 2 4 5 2 6 2 6-1v-5c1-4 3 0 3 6 0 4-1 6-4 11l-3 8c1 5 4 4 10-2 7-7 9-11 9-19 0-5 1-7 2-3 2 7 0 14-5 21-4 5-4 5-2 7 4 5 14-3 17-14 2-5 2-5 3-3 0 5-2 10-6 15s-4 5-3 7Zm-58 64 1 1 8-3 26-10 1 2 4 3c4 2 4 2 10-1 12-5 22-10 24-13s2-8 0-14c-3-5-7-8-12-8-4 0-27 11-27 12l2 1c5 0 12 10 12 16s-2 7-2 1c-1-6-5-12-10-15-6-3-7-2-7 7v6l-11 5c-19 8-21 9-19 10Zm10-72 2 3 5-1 1-1 4-1v-7l-1-7-9-4a1070 1070 0 0 1-41-17c-4-1-4-1-8 2l-7 5h-3l2 6c5 9 5 9 21 9 14 0 15 1 18 3l8 5 8 5ZM47 444h82c1-1 0-2-2-4l-2-4c0-1-8-2-21-2l-9-1h12l12-1-2-2c-1-2-2-2-30-2-27 1-30 1-35 3l-4 3 22 2 23 1H53c-11-1-12-1-16 1a629 629 0 0 1-10 5l20 1Zm790-337c9 2 34 3 34 1 0-4-32-21-46-26-11-3-17-4-30-2-11 2-18 4-20 7-2 2-2 2 1 1 9-5 18-3 35 7 12 7 17 9 26 12ZM329 599h30c7-1 13-4 14-7 2-4-1-11-4-12s-14 1-17 2l-7 5c-4 2-6 3-11 3-6 0-13-2-22-6l-15-3c-10-1-15-3-20-8l-4-4-1 6c0 9 4 11 21 13 8 1 11 1 18 5 8 4 13 5 18 6Zm-112 21c9 1 25 0 31-2s8-5 7-10c-1-7-2-7-13-7-8 0-11 1-19 4-9 4-9 4-15 3-5-1-8-3-22-13-7-5-9-7-11-12-3-5-4-4-5 3s2 10 10 14l12 9c6 6 13 9 25 11Zm238-290c3 3 4 4 7 4 6 0 27-8 28-10 1-1 0-1-1-1-7-2-13-14-10-20 1-3 3-3 2 0-3 8 7 21 12 17 3-4-3-19-9-21-7-1-28 4-32 9-5 5-3 16 3 22Zm5 100c3 2 9-1 9-4v-2l14 4h2l-5-4c-8-4-8-4-7-6 2-3 2-7 0-10l-29-12c-4 0-4 0-8 4s-6 9-6 14 4 8 15 12l11 4 1-5c0-8 6-17 11-17l-1 2c-6 4-10 17-7 20Zm-84-67c4 3 9 4 11 1 1-1 1-2-2-5-4-3-8-11-7-12l5 6c4 5 8 9 11 9l4-2 2-2-4-5-7-12c-1-4 2-2 5 4 4 7 11 14 13 14 1 0 4-3 4-5l-5-11c-5-9-5-12-1-8 2 2 3 2 5 1 4-2 3-3-4-6-7-4-14-4-17-1l-6 3c-5 2-16 14-16 17s5 11 9 14Zm234-39 11 3c8 0 17-21 11-26-4-3-21-10-26-11-4 0-5 0-7 2l-2 6v2l-4-1-2-1-5-1 5 4c5 3 5 3 3 5-3 1-3 7-1 8 4 1 12-11 12-18l1-4c2 0 1 9-1 14l-6 7-3 4 3 1 11 6Zm-194 74 12 4 4-4 6-5 4-2c0-2-4-7-7-11-10-8-25-10-37-3-6 3-11 8-11 11a964 964 0 0 1 30 10ZM122 556c-5 7-6 8-6 5s3-8 7-14l5-5v-23l1-25h1l1 17c1 21 2 23 4 22 2 0 2 0 2 5v6l5-7 7-7 4 5 3 5v-9l2-12c1-2 1-2 2 1l1 10 3 17c1 4 2 8 1 9s-6-1-9-5c-4-4-6-4-5-1s-1 5-6 5c-3 0-4 0-4-2l4-7 4-7v-1l-6 8c-7 11-13 14-14 7l-1-3-6 6Zm669 44h16c16 0 22-2 31-10 5-4 9-7 13-8 6-2 11-5 11-9s-2-5-4-2l-8 5c-4 1-9 5-12 7-13 9-31 9-64-1-2 0-2 0-4 3-2 4-2 7 2 9s12 5 19 6ZM636 92c6 2 23 2 26 1 2-1 2-1-3-4a106 106 0 0 0-75-16c-7 1-15 6-18 11s-3 6 1 2c7-7 20-11 32-8 3 0 12 4 19 7l18 7ZM468 661c5 2 9 2 15-2 3-2 5-4 7-8 3-5 3-6 3-13-1-8-3-13-9-18-4-4-9-7-10-6l7 16 6 15c-2 0-12-17-15-28-1-3-1-4-4-3l-4 1 8 19c10 20 13 27 6 16l-4-6-2 2-2 4-2 2-4 6 4 3Zm369-186 21 1 20-1-2-4c-2-4-2-4-7-4l-4-1 4-1h4c0-4-2-4-19-5l-17-1 17-1 17-1-1-3c0-2-1-2-19-2h-18l4 23ZM648 603c5 2 24 1 25 0v-1l-16-3 9-1 10 1 2-3 4-6 2-2h-2l-9-1-15-2-7-1-9 3-10 4-1 1 6 1c12 2 13 2 13 4-1 2-3 2-20 1-13-1-12 0 3 2l15 3Zm-124 50 10 4 4-2c5-3 15-6 19-6s4-1-3-4c-5-3-5-3-4-5 2-2 2-2-1-4l-6-3-4-1c-2-1-2-1 1-5 4-4 3-4-4 0-6 3-10 7-10 10s-3 7-6 10l-4 2 8 4Zm-42-439-3 7 3-3 19-10 17-9c2-1 1-2-3-6a260 260 0 0 1-13-13l-4 5c-2 5-7 9-10 10-1 1-2 2-2 6l-4 13Zm591 249 1 10c3-1 26-16 27-18l1-19-9 5-15 9-5 3v10Zm-653-94h1c6 2 8 2 9 1l1-4c0-7 2-7 12-4 5 2 8 2 14 1l8-1-9-2-17-5-6-3v-14c-1-1-3 0-6 1l-2 1c-4 1-4 1-4 6s-1 5-4 9c-6 5-5 7 1 7l6 1 2-10c2-8 2-10 3-9l-3 21h-12c-12 0-16 1-5 2l11 2Zm67-142c1 2 2 2 12-5 10-6 24-13 29-14s8-2 8-4c0-4-10-13-17-15h-3l3 2 3 3c3 0 3 2 1 4s-8 6-19 11c-16 8-22 11-22 13l2 1 2 1 1 3Zm198 412c4 2 6 2 10 0 5-4 9-11 10-19l2-11 1-4-3-4-3-4-10 20-10 20 3 2Zm197-429v8l2-3 15-25c3-6 3-12 1-19l-2-9c0-4-1-5-4-3-2 1-2 2-1 9s0 18-3 28c-2 7-3 5-1-3 3-13 3-30-1-30l-1 2c3 8 1 18-3 31-2 4-2 9-2 14Zm-361 40 5 3 13-5c0-1 10-5 20-7l11-3c2-2 2-3 1-5s-2-2-8-2c-16 2-32 7-41 13l-4 3 3 3Zm-54 339c9 3 12 4 17 3 6 0 17-6 15-7l-6-2-5-1h7l8 1h4c2-2 2-2-4-3a564 564 0 0 1-43-10c-4 0 5 4 16 7 4 1 5 3 2 3l-9-2-10-2h-4l3 2 18 5 15 5c0 1-4 2-7 1a304 304 0 0 0-37-7c-1 1-1 1 2 2l5 2 13 3Zm23-410c-2 3-6 3-9 1-3-1-3-1 1-1l6-2c2-1 2-1-2-1-10 1-11 0-17-6l-7-5c-2 1-1-1 0-4h5c3 1 6 0 14-1 14-2 17-3 16-6-1-2 2-1 3 1 1 1 0 2-1 2l-3 6c-2 7-4 14-6 16Zm327 170c0 2 2 2 11 0s9-2 9-10c-1-8-5-17-9-21l-5-4-2 6-4 29ZM548 570l6-1c5-2 7-3 9-6 3-5 3-7-2-7-3 0-9-4-8-5h5c8 2 13-2 7-6-4-3-15-8-20-9-5-2-11-1-11 0 0 2 4 7 9 11l8 8 3 4-3 5-3 6Zm-18-292c3 3 11 2 14-1 4-4 6-11 5-18-1-11-3-13-9-9l-5 4c-5 1-8 3-8 5 0 4 8 4 15 0 5-3 6-2 2 1-3 2-7 4-16 5-3 1-2 4 1 6h9l7-2 2 1c0 2-7 4-14 4l-6 1 3 3ZM396 546h21c5-1 7-3 7-8-1-5-6-7-15-7-8 1-16 4-17 6s2 8 4 9Zm-145-76 21 1 21-1 1-3c0-3 0-3-4-3a612 612 0 0 1-17-2l21-1a209 209 0 0 0-41-1l-2 10Zm377 205c3 2 7 3 9 0l7-19 6-17h-3c-7 0-9 2-15 19-5 14-5 15-4 17Zm51-44c1 2 1 3 2 2l10-19 10-19-3-1h-3l-10 19c-3 4-3 1 2-8l4-11-3 1c-4 2-7 7-9 15-3 8-2 16 0 21Zm-220 24 1 2 4-6 6-6c3-2 3-3 1-8l-7-12-5-8-5 5c-2 4-3 7-3 12 0 7 1 10 3 8v-9l2 2c1 3 3 3 3-1l1-2 3 1c2 0 1 3-5 10-3 4-4 5-3 6 1 2 2 1 6-4 7-8 9-8 3 1l-5 9Zm173-490c-6 3-14 4-17 1l-2-3-4-5-4-4h11c12 0 21-2 24-5h3c2 1 2 4 0 4l-4 4-7 8Zm240 285 3 7v-2l-2-8c0-3-3-10-5-14-5-10-7-16-5-21l1-9c1-7 1-8 4-11l11-7 8-4-2-1-5 2c-6 1-10 3-15 7-4 4-4 5-6 13-3 14-2 21 7 35l6 13Zm-121 25h26l-3-7a219 219 0 0 1-12-24l1 4c1 2 0 3-1 4l-2 3c-1 2 0 2 3 3 5 0 4 2-2 2-3 0-4 0-5 2l-1 3 8 1c6 0 8 0 7 1l-9 1h-9c-2 2-3 6-1 7Zm-28 92 6 2c1 0 2-2 1-3-2-2-15-8-18-8l-3-1 7-1c5 0 7 1 9 3 3 2 5 2 6 1 3-4-11-9-21-8-7 1-15 4-15 5l6 2c6 0 6 1-1 2-6 1-9 3-9 5h3l14-1c10 0 12 0 15 2ZM416 404l1 1c8 2 10 3 11 2v-1c0-2-2-2-16-7a644 644 0 0 0-87-20l22 6c26 6 56 14 69 19Zm516 149 5 2c2 0 6-8 5-10 0-3-5-4-16-5l-11-1c-3 0-3 0-4 2l1 6c0 2 1 2 8 3 4 0 9 1 12 3Zm-108-5 6 3 2-2c3-4 4-8 2-10s-5-3-19-4c-10 0-10 0-11 2l1 5c1 2 1 3 7 3l12 3Zm255-330c2 4-1 1-6-5a298 298 0 0 1-42-83c1-1 2 2 12 24a469 469 0 0 0 36 64ZM257 543l-5 13c-1 1-2 0-2-4l-1-3-1 3c0 2-3 2-4 0-2-4-1-27 2-30 1-1 1 4 1 14v6c1 0 6-6 10-13l4-5c2 0 0 7-4 19Zm475 9c5 3 7 4 8 2 1-1 1-1-1-4l-7-5c-5-3-6-3-17-3-10 0-12 1-16 3-5 2-7 5-5 6h4c11-5 24-4 34 1Zm-534 15 2 2 5-2c3-2 8-2 13-3h7l1-3c0-5-3-7-14-7-11 1-15 2-15 7l1 6Zm126-349c-3 1-4 1-9-1s-6-4-9-8l-4-3c-2 0-2-1 1-3 2-2 4-3 4-1 0 3 7 4 17 4h10l-2 2-3 5-5 5Zm184 49c2 2 3 3 4 2 2-1 2-1-1-6l-3-5 6 4 6 5c2 0 4-2 4-6 0-5-7-14-10-14-6 0-9 5-9 12 0 4 0 6 3 8Zm-81 353 11 1h7l4-6 3-7h-7l-17-2c-12-1-15-1-10 1l21 4-1 1h-13l-12-1c-1 1 7 3 20 5l12 2c0 1-17 1-21-1l-2 1 5 2Zm400-451c-5 3-11 2-14-1-4-4-3-5 5-5 5 0 9 0 12-2l5-3h-13c-9 1-11 1-11 3 0 1-1 1-2-1-3-4-3-4 3-4 6 1 21-1 25-3 3-2 3-2 4 0 2 3 2 4 0 4l-2 1c0 2-8 9-12 11ZM597 683c-5 2-12 3-16 2-5-1-11-4-11-6 0-1 10-7 13-7l5 3 5 2c7-1 9 4 4 6Zm471-134c-5 6-6 7-8 6-3-1 2-10 11-18 6-6 13-10 17-10 5 0 4 2-8 11l-12 11ZM667 226c-9 5-20 5-27 1-8-4-14-11-17-23-1-6-2-12 0-9l2 8c4 12 12 21 21 24 10 3 24-3 35-14l9-10c2-2 2-2 0 1-3 9-12 17-23 22Zm78 172c1 1 2 1 14-3l23-8c13-5 21-9 21-10s-12 1-23 5c-35 13-36 14-35 16Zm251-222-13 15 11-18a804 804 0 0 0 31-50c3 0-17 38-29 53ZM604 650c8 3 9 4 6 1l-18-10c-4 0-11-4-14-8-5-7-8-9-10-9l-2 1c0 2-1 2-3 1h-3a179 179 0 0 0 32 19l12 5ZM47 544c0 4-2 4-4 1l-12-14c-10-11-16-19-15-20s10 7 19 15c9 10 12 14 12 18Zm264 9 2 3 6-3c3-2 8-3 10-3 4 0 5-2 2-6-1-3-2-3-6-3-8 0-16 4-16 8l2 4Zm746-8-5 7c-4 1-1-9 6-19 4-7 14-17 16-17 3 0 0 6-8 16l-9 13Zm-703-74h24v-7h-24l-1 3c-1 3-1 3 1 4Zm428 173-14 4c-3 0 4-5 14-8 10-4 22-7 30-7 6 0 6 0 4 1l-12 4-22 6Zm48-191c1 5 1-2-1-16-3-18-4-20-10-23l-12-9-9-7 6 9 10 7 8 4 1 6 7 29Zm-281-89 1 4 7-3c5-3 7-4 6-5l-2-7-2-6-6 7c-5 6-5 6-4 10ZM388 104c0 1 3-3 3-5l2-5 4-5 5-4c3-2 6-5 6-7s-5-1-8 0c-4 2-9 8-11 13-2 4-3 12-1 13ZM202 586c1 1 2 1 6-1 5-2 13-4 20-4 6 0 7-1 3-4-2-2-4-2-9-2-6 1-17 5-20 8v3Zm559 80c-1 2-34 0-36-1-1-2 3-4 8-5 8-1 30 3 28 6Zm148-332c1 1-5 1-11-1-9-3-19-9-28-16-8-7-11-9-8-9l8 6a158 158 0 0 0 39 20Zm-642-65c5 2 5 2 2 2-4 0-14-5-19-10-8-9-16-25-16-36 0-6 1-5 2 3 3 13 12 29 22 36l9 5Zm101 104c5 3 7 3 11 2 5 0 11-3 16-7 2-2 2-2 0-2l-7 2-5 2-7-3-9-3c-2 1-1 1 1 3 1 1 4 3 7 3 5 2 5 3 0 3l-9-3-5-3c-1 1 1 3 7 6Zm396 174-7 13c-3 0-1-13 4-21 3-6 8-11 9-11 2 0 0 5-6 19Zm-371 17 5-1c3-1 8-2 18-2l13-1c-1-2-10-4-18-4-11 1-20 5-18 8Zm702-20-10 9v-1c0-5 15-20 23-24 9-5 10-3 3 2l-16 14ZM540 668c0 2 4-2 6-7 2-3 2-1 0 4l-1 4c1 0 5-3 6-6l3-10-4 1c-9 3-13 7-15 12 0 4 1 4 4-1 2-3 4-4 2 0l-1 3Zm-339-93 1 1c1 1 3 1 10-2l11-1c4 0 6 0 6-2s-4-3-11-3c-10 0-18 4-17 7Zm191-18h4c3-2 22-4 27-2 2 1 3 0 4-1 2-2 0-3-12-4l-14 1-5 2c-2 0-5 2-4 4Zm2 14c1 1 2 1 4-1s4-2 13-3l14 1c4 2 6 0 4-3-3-2-24-2-30 0-5 2-7 4-5 6Zm376-18c-5 8-6 9-8 7-1-3 6-15 11-20 3-2 7-3 7-1l-10 14Zm-83-212c12 5 16 6 13 3l-16-7a665 665 0 0 1-49-20 967 967 0 0 1 52 23Zm95 214-12 11c-2 0-1-3 1-7 5-7 19-17 22-15l-11 11ZM425 262c0 17 0 27 1 26s2-24 1-39c-1-11 0-14 1-15 2-1 1-3-1-3-4 0-4 1-3 3l1 28ZM320 571l1 1 5-3 1-1c3-1 8-4 11-4l6-2c0-2-3-3-7-3-8 0-20 8-17 12Zm554-450c6 5 6 5 10 3 5-2 5-2 1-4a919 919 0 0 1-14-9c-2 1-2 1-1 3l7 4c3 2 5 3 4 4l-8-4c-8-5-9-5-7-3l8 6Zm-659 63v18c-1 2-1 2-2-3-1-7-2-41 0-44 1-2 2 7 2 29Zm663 32c1 4 1 4 2-7l3-21c3-11 3-18 2-22-1-1-1 1-1 6s-1 9-4 17c-3 11-4 20-2 27Zm-690-21c-5 10-12 21-12 19l6-12c7-13 12-24 17-39l3-7c-1 9-7 25-14 39Zm813 42c-2 4-3 5-3 3l3-7a1044 1044 0 0 0 15-38l-3 12c-2 8-8 22-12 30ZM719 679h-18c-9-1-13-3-16-5-2-1-1-1 8-1 10 1 27 5 26 6Zm-67-67c11 2 19 2 19 0s-4-3-13-3l-25-3-3 1c2 1 13 4 22 5Zm-190 63c-3 1-19 2-21 1-5-2 6-8 16-9 5 0 5 0 4 1l-7 3-6 1 9 1c8 0 8 1 5 2ZM355 461l12 1h11v-3l-1-3h-10c-11 0-11 0-11 2l-1 3ZM210 592l6-1c2-1 8-3 13-3l8-2c0-4-14-4-22-1-4 2-6 5-5 7Zm475-34c-2 6-5 4-4-3l1-4-2 4-3 4c-2 0-1-4 1-7l3-7c3-5 5-6 4 0 0 3 0 4 1 3 2 0 2 0 1 3l-2 7Zm-332 86v1l-17-3h-3l-19-3 6-2 23 3 10 4Zm200-51c-17 5-23 7-22 5l5-2 17-7c14-5 18-6 18-4s-3 3-18 8Zm-68-331c1 16 1 18 2 15a208 208 0 0 0-3-49c0-3-1-3-3-3-3 1-3 3 0 4l1 2 2 7 1 24Zm-90 383c-13 3-27 1-17-4 6-2 20-1 21 1l-4 3ZM36 544c1 3 0 2-3-1l-15-6c-14-4-16-6-7-5 13 1 24 6 25 12Zm734-212v3l3-5c2-6 4-18 2-18l-4 1c-2 1-2 2-2 8l1 11ZM266 189l-2 1c-2 0-4-3-4-6 0-2-1-3-2-3-1-1-1-1 1-3l2-2-2-2c-3-3-5-3-7 0-3 3-3 2-2-1 4-9 17-1 14 8v5l2 3Zm-162 8-11 4 4-3c7-3 20-12 30-22l11-9-8 10c-9 8-19 16-26 20Zm274 466c1 1 1 1-2 1l-7-1a413 413 0 0 0-38-6h11c11 0 31 3 36 6Zm-87-381c-6 8-7 7-3 0a406 406 0 0 0 18-33c2 0-8 23-15 33Zm595-135c-3 4-5 6-7 4l1-2c1-1 2-3 2-7s0-5 3-8c6-4 12-2 12 4 0 2 0 2-2 0-1-3-5-4-8-2-2 2-2 2-1 4 2 2 2 3 0 7Zm126 106h-8c-3 1-9 0-11-2l7-1c6 0 8-1 8-2 0-2 5-1 9 1 5 3 7 6 3 4h-8Zm-604 88 14-4 3-1c20-7 24-9 24-10l-1-1a443 443 0 0 1-40 16Zm420-109v9l1-8 4-18c2-10 2-15 1-19s-2-2-3 7l-2 15-1 14ZM437 464v7h15v-7h-15Zm-13-301c-1 1-1 1-4-1l-2-4-2-2c-3 0-3 0-1-3v-4c-3-2-7-1-7 2l-1 2c-2 0-1-4 0-6l5-1c6 0 9 3 9 9 0 3 0 4 2 5 1 1 2 2 1 3ZM111 561l-3 4-1-1 3-28c3-3 4 18 1 25Zm710 3c1 2 3 2 3-1 0-2-3-5-7-7s-17-3-17 0l5 1c5 1 14 5 16 7Zm-55 72-14 7c-5 4-4 0 2-5 5-4 13-8 20-9 6-1 3 2-8 7Zm-80-495c-1 3-2 5-4 5-3 0-3-1-1-3 2-1 2-3 1-6 0-4 0-4 3-7 5-5 11-5 12 0 0 2 0 2-1 1-2-3-5-3-8-1-2 2-2 2-1 5 1 2 1 3-1 6ZM358 453l9 1c10 0 10 0 10-2-1-3-4-4-12-4-6 0-6 0-7 2v3Zm541 105c-7 6-9 7-10 6-1-3 2-8 9-12 9-6 10-2 1 6Zm-633-15c-5 13-6 15-7 13-1-3 4-18 9-24 3-5 3-1-2 11ZM154 417c0 4 0 4 3-4 4-11 5-14 10-21l4-7-11 12c-2 3-6 16-6 20Zm207 139c-6 6-7 4-2-4s14-16 14-12l-12 16Zm672 14-12 5-1-1c0-1 10-8 16-10 5-1 10-2 10 0l-13 6Zm-410 97c1 1 1 2 2 1l8-22c-1 0-8 7-9 10l-1 11Zm391-96c-10 8-12 8-13 6-2-2 2-5 11-10 12-5 13-4 2 4Zm-911-7c0 7-9-4-11-15 0-3 1-4 3-1 3 3 8 13 8 16Zm67-38 1 13-1 13-2-3c-1-2-2-4-2-11 1-8 2-14 4-12Zm146 35c1 1 3 1 9-2l8-3c5-1 4-2-1-3-7-1-18 5-16 8Zm143-420c-4 2-7 2-7 1l2-2c5-6 11-8 16-4 2 2 2 2 1 3h-5c-2 0-5 0-7 2Zm-91 491 3 5c-1 2-2 1-12-10-5-7-6-9-4-9s11 9 13 14Zm266-504-5 2c-2 0-1-4 1-5 3-4 11-3 17 2 2 2 2 2 0 3l-5-2h-8Zm-163 38h19l3-4-3-1-12 2c-9 1-11 2-7 3Zm143-6c3 2 9 2 14 0 4-1 9-4 9-5l-13 2c-12 1-13 2-10 3Zm233-28c0 1-2 1-6-1h-12c-2 1-3-2 0-4 3-3 9-3 14 1l4 4ZM552 330c-1 3-2 8-4 10-3 5-3 4 0-3 2-7 4-20 3-26-1-4-1-5 1-2 2 4 2 13 0 21ZM314 182c-1 2-5 2-7 0h-4l-4-1c-1-2 8-5 12-5 3 0 5 3 3 6Zm43 368c-3 7-5 7-5 2s5-14 8-14c2 0 0 7-3 12Zm516-421c1 3 1 4 2 2l2-2c3-1 2-2-4-5l-10-7c-4-4-5-5-5-3l6 6 9 9ZM330 573c0 2 1 2 4 0l9-4c7-2 7-2 5-3-4-2-18 3-18 7Zm455-201 3 2c2 0 2 0 0-2-3-4 0-9 5-8 4 1 4 1 3-1-2-2-3-3-6-2-6 0-10 7-5 11Zm-346 90 6 1c6 0 6 0 6-3v-3h-7c-6 0-6 0-6 2l1 3ZM94 566l-1 3c-2 0-7-4-9-7l-1-3 3 1c4 2 4 2 2-2-1-4 0-4 3-1 3 4 4 7 3 9Zm907 3c-3 3-4 3-5 2s0-3 4-7c3-4 9-8 9-7 1 1-5 10-8 12Zm-66-142c3 8 3-2 0-14l-4-8h-1l2 11 3 11ZM291 298c-4 6-9 11-9 9l8-11a204 204 0 0 0 12-17c0 1-6 13-11 19ZM83 116l6 4c1 0 4-3 6-7l-3 1c-4 3-6 2-4-3l2-4-2 2-5 2h-3l3 5Zm50 448c-9 5-13 6-13 4 0-1 9-7 14-8l6-1c2 0 0 2-7 5Zm239-9c-7 6-8 7-8 5 0-4 9-13 12-13s2 3-4 8ZM26 240c0 2-1 2-3 0l-3-1c-1 1-6-3-6-4h4c2 2 3 1 2-3l1-4c1 0 5 9 5 12Zm323 302c-4 10-7 13-6 6 1-5 7-17 9-18 1 0 1 1-3 12Zm203 124c0 1 6-1 7-3 3-3 1-10-2-10-1 0-2 1-2 5l-2 6-1 2Zm582-120-10 2c-7 2-6 0 1-3 8-3 20-4 20-2-1 2-5 3-11 3Zm-583 39c-7 3-11 3-11 2 0-2 20-9 23-8 2 1-5 4-12 6ZM315 166l-10 2c-7 1-7 1-6-1l6-3c7-2 13-1 10 2Zm160 94c2 13 2 32 1 23l-1-10-2-13c-1-9-2-14 0-14l2 14ZM60 250c1 2 1 2-6 0-11-3-14-5-5-4 4 1 5 0 6-1l1-2 4 7Zm168-135c0 3-3 2-7-3-5-7-9-13-7-13l14 16Zm367 501c0 1-2 1-10-3-9-5-14-8-12-8 1-1 9 2 16 7l6 4ZM110 250c-7 5-10 7-10 5s14-13 16-13 0 2-6 8Zm204-39c5 2 9 2 12 1 3-2 2-3-6-3l-11-2c-2 0-2 0 0 1 1 1 3 3 5 3ZM95 253c-1 1-3 1-4-1l-7-1-6-1 4-1 9-2c4 0 5 0 5 3l-1 3Zm427 28 5 2c3 0 3 0 1-2l-2-1-2-4c-1-2-2-3-4-3l-3 1c-1 1 2 6 5 7Zm278 91c10 4 12 4 13 2l-24-7c-3 0 1 2 11 5Zm347-123c-4 3-7 4-7 2l10-12v2c-2 2-1 3 0 3 3 0 1 2-3 5ZM503 624c-5 3 0 2 13-4 10-4 13-6 11-6-3 0-19 7-24 10Zm-93 52c-9 3-14 3-15 2-1-2 7-4 14-5h7l-6 3Zm43-127c2 4 3 5 2 7s-1 2-2 0c-3-2-7-12-7-13 1-1 4 2 7 6Zm641 4c-5 3-6 3-7 2-1-2 13-10 17-10 2 0-3 4-10 8ZM459 123l-8 4c-3 2-4 2-2-1 1-3 10-7 13-7 5 1 3 2-3 4Zm206-49c-3 7-5 9-4 4 2-6 7-16 10-19 4-5 4-4 0 3l-6 12Zm-69 519c1 1 16-5 17-7s-3-1-8 1c-6 2-9 5-9 6Zm57 68-2 3c-2 0-2-2 0-7a5994 5994 0 0 1 7-11l-5 15Zm272-242c5 7 7 8 3 1-3-5-15-19-17-19l4 6 10 12Zm-487 35 6 1c4 0 6-1 6-2 1-2 0-2-6-3l-6 1v3Zm-76 185v2c-2 0-13-6-15-9v-1c4 0 13 5 15 8ZM67 249c0 7-3 3-5-5 0-4 0-8 2-8l3 13Zm861 184 4 2c2 0-1-2-9-8l-9-6c-4-4-5-4-2 0l16 12Zm-236-75c2 1 2 0 4-4s2-4-1-5h-3c-2 2-1 9 0 9Zm-15 10c0 1 1 1 8-1 8-3 8-3 6-4-2-2-14 3-14 5Zm-350 19c2 3 4 3 14 2 3 0-9-4-13-4h-4l3 2Zm269 199-1 2c2 0 18-8 17-9 0-1-10 2-13 4l-3 3Zm204 69c-1 2-9 2-15 1l-5-2h7c8-1 13-1 13 1Zm-41-24c-5 5-9 6-8 3 0-2 9-8 11-8s1 1-3 5Zm312-380c-1 3-5 6-6 5l7-13c1 0 1 5-1 8ZM505 679h-11c0-1 7-3 13-3 8 0 6 1-2 3Zm14 8-7 3c-2 0-4-2-3-3l15-3-5 3Zm609-436h-12c-3-1-3-1 0-2 4-2 14-1 12 2Zm-320 79c3 4 2 3-8 0-8-3-8-4-5-4 4 0 10 2 13 4ZM241 553c1 5 0 7-2 4-2-1-4-10-4-11 1-1 5 3 6 7Zm438 131c0 2-9 1-13-1l-4-2h5c4 0 12 1 12 3ZM146 252c-3 2-10 2-10 1l4-3h7l2 1-3 1Zm553 368-5 7v-2l8-14c2 0 1 2-3 9Zm304-253c1 2 0 2-5 0a344 344 0 0 0-10-6c4 0 13 4 15 6Zm-672-20h-12l-4 1 4-2c5-2 12-3 16-1 3 2 3 2-4 2Zm829-97c-6 2-13 2-13 1 0-2 9-4 13-2 2 1 2 1 0 1ZM297 352c0 2 5 1 5-1v-8l-5 9Zm154 208c0 2-3 1-7-3s-4-4-1-4 8 5 8 7Zm195-125c3 3 3 1 0-5-4-7-5-9-5-4 1 4 3 7 5 9Zm490-186c-2 3-4 4-4 2l9-11c1 0-1 5-5 9ZM99 457l-20 1H65l10-1a304 304 0 0 1 24 0Zm757 9-10 1-9-1 10-1c6 0 10 0 9 1ZM660 660c-2 6-4 10-4 7l6-16-2 9ZM336 160c0 3 0 3 3 3h4l-2-4c-2-5-3-4-5 1Zm77 190c2 2 2 2 4 0s1-6-2-6-4 2-2 6Zm-175 81 1 1c-2 1-9-3-10-6-2-4-1-4 3 0l6 5Zm798 105c0 4-2 6-3 3l1-11c0-1 1-1 1 1l1 7Zm78-287c-5 3-7 3-5 0 1-3 5-5 7-5 3 0 1 2-2 5Zm-36 3c-2 2-4 3-4 1l5-8c4-3 3 2-1 7ZM419 433c-4 2-5 2-8 0-3-1-3-1 2-1l7-2c4-2 3 1-1 3Zm190 1c3 3 0 2-4-2s-8-8-5-7l9 9Zm-5 137c-4 3-10 4-10 2 0-1 8-4 11-4s3 0-1 2Zm109 49h10c2-1-1-2-6-2-4 0-6 1-4 2ZM609 144c2 3 2 4 0 3-3-2-4-5-3-7 1-3 3-3 2 0l1 4Zm-273 51c0 3-3 5-5 4l1-2 2-5c-1-2 0-3 2-1v4Zm388 452h-11c-1-1-1-1 2-2 4 0 10 1 9 2ZM423 297c3 1 4 1 5-2 0-3 0-3-3-3s-4 3-2 5Zm218 162c-4 1-7 1-9-1-1-1-1-1 5-1s8 1 4 2ZM494 150c-2 2-3 1-3-4l1-4c2 0 4 6 2 8ZM75 251c0 2-2 1-3-1-3-4-3-7-2-7s5 6 5 8Zm462 339-7 2c-8 0-6-2 2-3l5 1Zm-53-301c2 2 4 1 4-2s-3-4-4-1v3Zm536 179-7 1-7-1 7-1 7 1ZM121 248l-9 4c0-1 3-4 7-5s5-1 2 1ZM20 547h-6c-3-1-4-3-2-3 3 0 9 2 8 3Zm317-124 3 5c-1 2-6-4-7-8-1-3 0-3 4 3Zm199 227c0 1-2 1-7-1-3-1-4-3-3-3l10 4Zm114-82 9-2c4-2 4-2 2-2-3 0-11 3-11 4ZM362 444h4c1 0-3-4-5-4s-1 4 1 4ZM352 97c2 1 3 0 2-1l-1-4c0-2 0-2-2-1-2 2-2 5 1 6Zm460 274c1 2 4 1 6-1l2-3-8 4ZM378 127h-7c-2-1-1-2 1-2l6 2Zm-20-18 3 2c2 0 2 0 0-3-2-4-3-4-4-2l1 3Zm-49 453c2 2 5 2 5-1 0-2-3-3-5-2v3ZM83 128h3v-3c-2-2-4-2-4 1l1 2Zm726 18c1 2 0 3-2 0-2-1-1-6 0-7l1 2 1 5Zm271 308v5c-1 3-1 4-2 3-1-3 1-10 2-8ZM193 575c1 2 4 2 5 0 0-2-3-4-4-2l-1 2Zm367 109c-2 2-4 2-5 1-2-1 0-2 4-2 3 0 3 0 1 1Zm-91-407c0 8 0 8 1 3 0-6-1-13-2-12l1 9Zm215 329-2 2c-1 0 2-6 4-7v1l-2 4Zm-546-36c-3 2-5 2-6 1 0-1 3-2 7-2 2 0 2 0-1 1Zm540-156-1 5v-9l1 4ZM28 247c-1 1-2 1-5-1l-3-1h3c3 0 6 1 5 2Zm295-26c-2 2-3 2-5 1-1-1-1-1 1-1l4-1c2 0 2 0 0 1Zm313-116 4 3c1 0 1-1-1-3l-3-3h-1l1 3Zm-269 12 3 2c3 0 3-1 0-3-3-1-4-1-3 1Zm-16-38c1 3 3 2 3-1l-1-2c-2 0-2 1-2 3Zm664 333c0 2 0 2 2 1 4-1 4-2 1-2l-3 1ZM409 63c1 2 2 1 2-1-1-3-3-4-3-1l1 2Zm414 112h-7l4-1c3 0 4 0 3 1Zm-88 483c1 1 0 1-2 1l-5-1h7Zm320-90c1 0 1 1-1 2s-3 2-4 1c0-1 3-3 5-3ZM401 54c1 2 3 2 3 0 0-1-3-3-4-2l1 2Zm78 382-3 1-3-1 3-1c2 0 4 0 3 1ZM364 69h2c2-2 2-3 0-3l-2 3Zm606-45c1 2 3 2 3-1 0-1-2-3-3-2v3ZM382 627l1 3c-1 2-1 2-2 0-1-4-1-5 1-3Zm7-483 1 1v-3l-1-3c-2 1-1 3 0 5Zm83-70v1c1-1-1-4-3-4l-1 1 2 1 2 1Zm-111 7 1 2c1 0 2-3 1-4l-2 2Zm63 26h3c1-2 0-2-2-2l-1 2Zm43-20 2 1 2-1c1-1 0-1-2-1l-2 1Zm-32-20 2 1 2-1-2-1-2 1Zm24 2c3 2 4 2 3 0l-3-1v1Zm-12-2 2 1 2-1-2-1-2 1Zm-11 37 1 3v-5l-1 2Zm280 520h4l-3-1c-3 0-4 0-1 1Zm19-85h1l1-2-1-1-1 3ZM421 118h2v-1c-1-2-3-1-2 1ZM266 416l1 1 1-2-1-1-1 2Z" />
    <path fill="oklch(100% 0.22 112)"
        d="m562 532 3 8-7-4c-7-4-15-6-21-6h-4l4-1h4l-3-2c-6-3-8-8-9-17l-1-7-5 7c-7 10-9 15-10 24 0 6 0 8 2 15 4 13 3 14-5 6-9-10-12-14-12-25 0-8 1-9 4-15 1-4 6-11 10-17 10-13 12-18 12-26l1-7c1 0 9 10 11 15 2 4 2 6 2 14 0 9 0 9 2 8 3-3 9-11 11-16 2-3 3-10 4-17 2-14 3-18 8-27 2-5 5-9 11-14 4-5 8-8 9-8l-1 10c-2 18-1 28 9 49 10 23 10 35 0 49l-5 5v-6c2-5 2-8 1-14-1-10-3-16-11-31l-5-10v11c0 11-2 19-6 25-5 8-6 14-3 24Zm69 10c1-3-1-3-6 1a64 64 0 0 1-16 8c2-1 4-2 3-3l2-2c2-1 4-7 5-16s0-12-3-8c-1 3-14 13-16 13s-1-1 4-9l6-12c1-5 1-8-1-25l1-9 1-2 2 3 8 11c9 10 14 19 14 28l-2 12c-2 5-2 6-1 7v2l-1 1Zm-58 51c1-1 0-3-2-3 3-2 2-7-1-8l-3-4-1-6v-3l-4 2-4 2c7-3 9-5 11-9 2-3 2-4 0-4h-1l2-1 4-5 3-6 2-3v4c0 4 1 8 7 16 3 4 3 6 3 11 0 4 0 6-2 9s-8 7-10 7l-4 1Zm-20-59 5 2-1-5c-2-7-1-15 4-25l4-14 1-6-2 5-9 12c-6 7-9 13-9 18 0 6 2 10 7 13Zm-15 97 1 1 4 1 6 3c3 2 3 2 1 4-1 2-1 2 4 5 7 3 7 4 3 4a40 40 0 0 0-6 1c6-2 7-2 6-4l-5-2h-6c-3 2-9 2-11 0s-2-5 2-8c2-2 2-3 1-4v-1Zm39-48 1 4c2 0 5-7 5-10 0-4-5-14-6-14l-2 4v9l2 7ZM286 460c-4 1-4 1 2 1l5-1 1 1-21 1h-20a304 304 0 0 0 15 1h-17v4l1-6h22l-10-1h-2a713 713 0 0 1 26 0h-2Zm-187-3c6-1 6-1-4-1h-3l20 1-25 1-26 2-9 1 9-1c1-1 0-1-5-1l4-1a159 159 0 0 1 15-1l-10 1h14l20-1Zm932-17a116 116 0 0 0-11 0 438 438 0 0 0 11-2 190 190 0 0 1 2 0l26 1-28 1Zm-14 96-1 10a228 228 0 0 1-1-14c1 11 1 11 2 5v-1Zm27-91-26 1a820 820 0 0 0-5-2l-14-1 22 1 23 1Zm-188 21c1-1-1-1-3-1h2l18-1v1h-4l-4 1 4 1h-14a418 418 0 0 1 1-1Zm28-280 1-8c0-3 0-3-2 3a170 170 0 0 1-3 8c3-8 4-12 4-17s0-7 1-6c1 4 1 10-1 20Zm134 4v-2l-8 18-9 27-2 3a535 535 0 0 1 13-35l7-20-1 8v1ZM120 435l-21-1-13-1h17a187 187 0 0 0 4 0H95l9 1 16 1Zm349-158-1-9c1-1 2 6 2 12-1 5-1 5-1-3Zm134 9c3-1 3-1 3-4l-4-11-9-33c-2-9-1-15 1-7a408 408 0 0 0-1 1c-1 4 5 26 8 36 4 10 6 16 5 17l-3 1Zm86 195-3 7 5-17c1-2 1-3 2-2l-3 19 1-8 1-7-3 8Zm-535-64c0-4 4-17 6-20l5-7-7 11-3 10c-1 6 1 5 4-3a321 321 0 0 0-5 9Zm26-212 2-4c8-13 15-30 18-42l2-9 1-1c1 1 0 6-1 12v-5l-3 7c-5 15-10 26-17 39l-2 3Zm749 40 3-12c2-3 2 0 0 8a189 189 0 0 0-1 0c1-8 0-6-2 4ZM45 444l-18-1 2-2a629 629 0 0 0 10-4l-3 1c-8 4-7 5 9 6Zm169-316 1 7-1 6v-13Zm695 16 1 3v-7l1 4v9l-2-9Zm-4 11-2-6 2 7c3 11 4 8 1-5a83 83 0 0 1 0 2l2 14-1-2-2-10ZM792 656h-9c-8-1-7-2 3-3a87 87 0 0 1 1 1h-7l5 2h7Zm13-425 1-9 1-9 1 10a103 103 0 0 0 0 5c0-6-1-11-2-11v7l-1 7ZM499 409c-1-5 0-9 1-9l1 3a81 81 0 0 0 2 11l-3-9-1-4v8Zm187 230c3 2 6 2 7-1 2-2 3-3 4-2l4-4-6 7c-4 2-6 2-9 0Zm1-508 1-1c3-2 6-2 8 1 1 1 1 1 1-1l-2-3 3 6c0 3-2 2-2-1-1-3-4-4-8-2l-1 1Zm2 77 1-4c2-3 2-3 0-1l-3 4 3-5c2-5 5-7 2-1l-3 7Zm135 2v1c-2 6-2 7-2 3 2-19 2-20 0-20 2 0 2 0 2 9v7Zm-10 4v28l-2-8 1 2v-6l1-16Zm192 304c0 7 0 9-1 8l-2-21v-9 6l2 19 1-3ZM214 162l-1-7a115 115 0 0 0 1-4v11Zm695 172-1-1 4 2c1 2-4 1-10-1h7ZM710 512l-5-1c-5-1-6-4-1-3l9 2h-6l-5-1 3 2 5 1ZM152 302l2-11c-1 0-3 4-5 11l6-15-3 15Zm172-143c2 3 3 4 4 3-2 5-3 5-3 1l-2-6 1 2Zm198 122-2-1 4 2h3l-1-2 2 1c2 2 2 2-1 2l-5-2ZM250 552v4l-1-3h-1l-2 1 2-2 1-3 1 3Zm139-408c-1-2-2-4 0-5l1 3v3l-1-1Zm116 172c0-4 1-6 2-6l1 5 1 5-1-4c-1-4-2-4-2-2l-1 2ZM665 74a77 77 0 0 1-1 1l-4 10 2-9-1 2c-1 5 1 3 4-4ZM435 250l2 5 1 5 1-3c0 4 0 8-1 7l-1-7-2-7Zm-13 392a216 216 0 0 0 14 0l-1-1 5 2-2 1-9-2h-7Zm375-316h-2c-3 0-3 1 4 3l-6-1-3-1 7-1ZM472 74l-2-1-2-1 1-1c2 0 4 3 3 4v-1Zm3 134 1-1c-2 6-3 7-3 1v-3 2c1 3 1 3 2 1Zm-98 56-4-14c-2-9-3-9-2-1l1 3-2-11c1-1 1 0 3 8l4 15Zm269 347-16-4 3-1a135 135 0 0 0 8 2l-8-1c0 1 6 3 13 4Zm344-287v2c-1-2-2 0-3 9a214 214 0 0 1 1-11v-3l2 3ZM467 87l2-1c2 0 3 0 2 1l-2 1-2-1Zm-118 84-1-2-1-2-1 3-1 9 1-9c2-7 2-7 3-3v4Zm290 417-4 2c-2 2-2 2-1 3h4-1l-6-1 1-1 7-3ZM435 67l2-1 2 1-2 1-2-1Zm24 2v-1l3 1c1 2 0 2-3 0Zm-12-2 2-1 2 1-2 1-2-1Zm464 106-1 2-1-2 1-2 1 2Zm-475-69 1-2v5l-1-3Zm-58 123 2 6-2-3 1 5a175 175 0 0 1-1-8Zm338 397c-3-1-2-1 1-1l3 1h-4Zm-162-50-12 4-32 12a1532 1532 0 0 0 44-16Zm316-183 8-5c7-4 8-5 3-4l4-2 2 1-8 4-9 6ZM713 647l5 1-8-1 5-2c-3 1-3 1-2 2Zm119-380 3 1 2 1-5 1 2-1c1 0 1-1-2-2Zm-403-58 1-8 1 3 1 3-1-2-1-1-1 5Zm82 388a173 173 0 0 0 3 0l-5 2c3-1 3-2 2-2Zm224-58 1-3 1 1-1 2h-1Zm275-426 3 1h1l2 1-1 1-5-3ZM434 664l-4 1 2-1-3-2a42 42 0 0 1 1 1l4 1Zm211-70c5 1 5 1 4 3 0 2-1 2-6 1h-5c10 1 11 0 12-1 0-1-1-2-5-3ZM988 93c-2 0 1 3 6 8a86 86 0 0 0 7 6c-5-3-15-13-14-14h1ZM266 416l1-2 1 1-1 2-1-1Zm254 186-1 1-1-1 1-1c1 0 2 0 1 1Zm500-134-7-1h1l8 1-8 1 6-1ZM237 148c1 1 1 1 3-2l1-2-1 2c-2 6-3 6-3 2Zm282 131c-2-2-2-4-2-5l3-1 3 1-3-1c-2 0-3 1-2 3l1 3Zm126-52c6 1 13 0 21-3a29 29 0 0 1-21 3Zm-60 363-10 6 7-4 2-2h1Zm-55-58-1 2c-2 2-3 5-3 7 0-3 2-6 4-9Zm397-245Zm-553-22 5 12 2 4v-1a68 68 0 0 1-7-15Zm224 313-6 4 6-4ZM192 187ZM670 60Zm337 163Zm-124 99Zm24-187 2 6v1l-2-7ZM470 90l-2-1c-3-1-4-1-5 1l-2 2 2-2c2-2 2-2 5-1l2 1Zm163 128Zm236 98c-5-3-8-6-8-7l8 7ZM568 559l2-3 1-1-1 2-2 2Zm81-329c-4 0-6-1-9-3l9 3Zm263-92 2 8-2-8Zm-433 61-2 3v2c0-3 1-5 2-5Zm-148-44-2 3v-1c1-2 1-3 2-2Zm55 110a3020 3020 0 0 1-1-7l1 7Zm59-39Zm561 264ZM351 168a40 40 0 0 0-1 3l1-3Zm466 84Zm63-43-1 9 1-9Zm135 295 2 15a106 106 0 0 1 0 1l-2-16Zm-725-40c4 0 4 0 4 2 0-2-1-2-4-2Zm142 177-4-1v-1 1l4 1Zm395-373h-1l-7-5h1l7 5ZM687 128a16 16 0 0 0-4 4l4-4ZM90 445Zm721-218ZM631 543l5-1a133 133 0 0 1-5 1Zm383-59v4-4ZM878 216Zm-2 167c-4 1-8 4-11 6 4-3 7-5 11-6ZM695 127l-5-1h3l2 1Zm-38 102Zm-270 71v-2 2Zm127 29Zm295-144c4 7 5 8 3 20 2-12 1-13-3-20Zm79 144ZM430 639Zm142-87-1-6 1 6Zm-34 103-4 2h-1l5-2Zm264-328 4 2a19 19 0 0 0-4-2ZM604 553l-1-2c0-2-1-2-3-2 2 0 3 0 3 2l1 2Zm326-278 2-9a31 31 0 0 1-2 9ZM505 601l-10 4-9 4 9-4 10-4Zm-11 1c-14 5-18 6-21 4 3 2 7 1 21-4ZM388 276Zm317 341ZM212 192l1 7 1 4-1-4-1-7Zm266 410c-4 2-6 3-5 4-1-1 1-2 5-4Zm334-349-3-5-1-2a285 285 0 0 1 4 7ZM672 60l2-4-2 4Zm154 138v1a43 43 0 0 1 0 2v-3Zm-440 94Zm184 304Zm267-130 3-1-3 1Zm26-157ZM651 584l-4 1 4-1Zm160-343Zm-5 91h3-3ZM621 598Zm392-486 2-1-2 1ZM171 385l-2 4 2-4Zm310-183c0-2-1-3-2-3 1 0 2 1 2 3Zm88 395c0 1 0 0 0 0ZM372 289Zm-235 51Zm586 306ZM604 261Zm-98 68v1c2 7 2 8 7 12-5-4-5-5-7-12v-1ZM332 156Zm-17-6c-1 0-1 1 1 4-2-3-2-4-1-4Zm345 406Zm268-260c0 3 1 4 3 5-2-1-3-2-3-5ZM797 653l3 2-3-2ZM150 309Zm102 247Zm668-393ZM119 432Zm286 206ZM150 316Zm92-173 1 3-1-3Zm626 249ZM682 138v-1 1Zm-367 12Zm140 81Zm374-38h1-1Zm-614 8Zm585 454-1 1 1-1Z" />
</svg>