<svg xmlns="http://www.w3.org/2000/svg" fill="current" viewBox="0 0 24 24">
    <path
        d="m4.4 7.8.1-.2zM8 1.3l-.2.1.5-.2h.2l.7-.2 2-.4c-.7.1 0 0 .2 0H13l.8.1h.6l1.6.4.3.1H16l1.4.4 1.6.9s-.2-.2.5.2v.1l.3.2.4.4 1.1 1q0 .2.2.3l.4.7.4.5-.1-.2.3.7c-.3-.5 0 0 0 .1l.1.2.2.5v.2c.3.8 0 0 0 0l-.2-.5v.3l.2.5s.1.5.3.6q0 .3-.2-.5v.4c.1.6.1.2.2.3v.6s.1.3.1 0v.9l.1.9v-.6c0-.4 0 .5-.1.2v.8-.3.4-.2 1.3-.5.1l-.2 1.3-.1.9-.2.7v.3h-.1l-.2.8-.2.5c-.2.4.2-.4.1-.1l-.1.3-.3.5.2-.5-.3.6-.1.1s0 .2.2-.2l-.1.3-.1.2s0-.4-.3.4l-.1.2q-.1.2 0 0-.2 0-.2.2l-.2.2c-.5.7-.1.3-.2.4 0 .2 0 0-.3.3l-.2.3.2-.2-.3.3-.4.4-.2.2.4-.3-.7.6.2-.2-1.4 1-.4.2h-.1l-.9.5h-.2v.1l-1 .3.3-.1-.8.2-.4.2s1.2-.4.9-.2h-.3q-1.5.5-3.2.5l2-.2s.4 0 .3-.1l-1.7.2H12h.1-1.4l.5.1q-.9 0-1.6-.2h-.4l-.5-.2H9l.2.1h.2l.4.1-1.9-.5-.8-.4q-2-1-3.5-2.6l-.3-.5.1.3-.8-1-.2-.3-.1-.4-.1-.2-.1-.2v-.1c.7 1.3.2.3 0-.2l-.4-.8V16s-.3-1-.1-.7l.2.7-.3-1c-.1-.2.2.5 0 0l-.1-.3-.2-.6v-1l-.1-.4v.3l-.1-.6v.3-.3H.9v-.3.1-.4.2-.2.2H1l.1 1v-1l.1.2V12l.1.3.1-.1v.2-.4l.1.4v-.2l.1.2.1.3.2-.4s0 .5 0 0c0-.1.1.2.1-.2 0 .8 0 .1.1.2l.1.4v-.2.2-.3h.2V12v.2c0 .1 0 .4.1.1v-.1.2c.1 0 0-.3.1 0V12q.1 1 .2.1v.3l.1.2v-.2c0 .4 0 0 0 0l.2 1.2.2.5.1.5.2.8v-.1.2q.6 1.5 1.6 2.7l-.4-.6.8.9-.2-.3.6.6q.1 0 0 0l.4.3.4.3-.1-.2c-.3-.2-.1 0-.2 0l-.3-.3.5.3-.5-.4h-.1l-.1-.2-.3-.2-.3-.4.7.6.2.3.9.6.3.2h.1q.3 0 .2.2h.3l.6.3.7.3-.2-.1.6.1-.4-.1 1.7.3h.3-.1.4-.2.1-.5 1.4c.3 0-.2 0 0 0h.1l.5-.1h.3q.5-.2.7 0h-.9c-.1.2.6 0 .3.1l1.3-.3h.1c.1 0 2-.9 2.3-1.2q.3 0 .5-.3c-.3.1.2-.2.3-.3l.2-.2.8-.9.5-.5q.1-.4 0-.2l.4-.9v-.1c.3-.6.2-.3.3-.4v-.1q0 .6-.3.8l.4-1v.1l.1-.4-.1.4.2-.6v-.2.3l.2-1.4.2-.6h-.1V12v.4-.8.3-.4l.1.5v-1.1q0-.9 0 0v-.4L20.6 9l-.1-.7q0 .5 0 0v.1l-.1-.7-.2-.4v.1l-.1-.3L20 7l-.3-.4c.3.6 0 .1-.1 0l-.2-.3c.4.4 0-.1-.1-.2V6h-.1c-.5-.5-.2-.2-.2-.3l-.4-.3-.3-.3-.1-.1.6.6-.4-.4-.4-.3h.2l-.2-.1v-.2l-.5-.3.2.1h-.3V4l-.5-.2.1.1h.2c.4.3 0 .1 0 .2h.2v.1h.2l.1.2h-.1l-.6-.3-.3-.1s-.3-.3-.3-.1l-.4-.3h-.4l-.3-.1h-.2l-.8-.2-.3-.1h-1l.6.1h-.5.2q.2 0 0 0h.4c-.1.1-.7 0-.8 0h-1.1q-.1 0 0 0h-.3l-1.8.3-.4.2-.7.2-1.2.6.7-.4h-.2l-.3.2h-.2l-.3.3-1.3 1h-.2l-.3.5.2-.2-.2.4s.1-.3-.1 0v-.1l-.1.2-.3.3-.2.2-.1.1-.2.4-.2.2c.1-.1 0 .4-.1.3l-.3.7v.4l-.2.1-.1.5h-.1v-.4.5c-.2.5-.2.2-.2.2v.3l-.1-.2-.1.2V10v.1h-.1v.2q0 .1 0 0v.2l-.1-.5v.5-.2h-.1l-.1.4v-.2c-.1 0-.1-.3-.1 0 0-.2-.2.1 0-.4l-.2.5c-.1.3 0 0-.1.1v.1-.8q-.2.7-.1 1v.1c-.2.1 0-.6 0-.9v.2-.3c-.1.5 0 0-.1 0V10l-.1.3v-.7 1-.2.8-.2.2-.1s-.2.6-.1-.2V10l-.1 1c-.1.6-.1-.3 0-.4h-.1V10v.2-.3l-.1.8v-1 .6V9c-.3 1 0-.3 0-.3l-.2.4c0-.4.3-1.3 0-.8l.2-.4-.2.5V8c.4-.8 0-.7.5-1.5q.6-1.2 1.7-2.3a7 7 0 0 1 1.8-1.7c.1 0-.2.2 0 .1l.6-.4-.4.2zm-3.3 6-.2.3q0 .5-.1.3zm2.2-2.2q-.2 0 0 0m-1.2 1c.2 0-.1.2 0 0m6.7-2.7q-.2 0 0 0m-.1 0h-.2zm-5.9 2 .2-.1zm3.5-1.7-.6.1zm1.3-.3H11zm2.7.1h.3-.2.1zm1.5.2h.3V4h.1q.2 0 0 0h.2-.3q-.2 0-.1-.1zM4.8 7l-.1.2zm3.6-2.9-.2.1zm4.1-.7s.3-.1-.1 0q.1 0 0 0h.4zm5.2 1.3-.3-.1zM8.8 20.2q1 .4.1 0zm5.6.1-.2.1q-.2 0 0 0zm0-16.8h.3zm-.7-.1h.3zm3.8 1.2.2.1zM12 20.7h.3zm-8.5-6.4.1.3zm6.7 6.4c0-.1-.4-.2-.2 0zm.2 0q.1 0 0 0m-6.4-5-.3-.6v-.2.2zm.6 1.2-.1-.2v.2M4 16c-.1-.2 0 .2 0 0M16.4 4q0 .1-.1 0m-5.9 16.8h.7zm2.8-17.4q-.2 0 0 0M15 20.2q.7-.2-.2.1c-.6.2 0 0 .1 0zm1.6-.7c.4 0-.3.3-.6.4.2-.2.5-.3.1-.2.5-.2.3 0 .4 0zm-1 .5-.3.1s.4-.2.3 0m-10-2h-.2zM4.3 7.4l-.1.2zm8.2 13.3h.4zm-2.8-.1h.2zM4 7.8V8zM16.8 4s.5.2.3.2l-.7-.3zh.1M5 17.5l-.3-.5zm.2.2-.2-.2zm5.7 3.2v-.1h.1-.2l-.5-.1h-.4l-1-.3.3.1 1.5.3zM4.4 7.3l-.2.3zm2.5 12 .2.2zm12-13.8.1.1q-.1 0 0 0m1.5 2.6v.2zm.4 4.3v.4zM5.3 18.1l-.1-.1q0-.2 0 0zm9.3 2.3h-.3zM3.8 8.3v.3zm11-4.8h-.2zm6 7.8v.2zm-.7-4.2.2.5zM6 18.7l-.3-.3zM4.3 7.4l-.2.3zm12.6 12-.4.3zm-2.6-16h-.2zm1.9 16.4h-.1zM11.6 21h.2zq-.2 0 0 0m7.5-3.6-.2.3zM15.3 3.5s-.8-.2-.4 0zM7 19.5l.2.1zm12-2q0 .2-.2.3zm1.9-4.5v.3l-.1.3c-.1.4.2-1.6 0-.4zM20 6.6l-.1-.2zm1 2.9-.1-.3zm-15.3 9 .2.2c0 .2 1.6 1.3.6.5h-.1V19l-.5-.4zM21 9.9v-.2zm-5.6-6.4H15zm5.4 5v.2zM3.3 13q-.1 0 0-.1zm.5 2.6.1.2zm15.6-9.8v-.2zm-13.5 13q0-.2 0 0m14-12.3.2.2zM3.5 15.1v-.3zm-.3-2v.6zm10.7-9.9h-.2zM19 5.4l.1.1zM20.9 9q0-.4-.1-.1m-2.6-4.4.2.1.2.2-.3-.1.6.5-.1-.1V5zm-.5-.3.2.2zm2.1 2-.1-.1zm1 2.2v.2zm-6.6-5.3q-.2 0 0 0m-.6-.2h-.5zm.5 0q-.3 0-.1.1m.7.2h-.4zm-12 8.9v-.2zm-.5-2v.2zm-.2.4v-.2.7zm-.5 1.1v-.3zm0-.8v-.2zm0 3q.1.2.1 0m0-2.4v.2zm0 2.5q0 .1 0 0v-.4zm.2.8v-.4zm.2 1 .1.3zm0 .1q0 .3 0 0m.3.8q0 .1 0 0m-1-2.6q0 .4 0 0l.2.3zq0-.3.1-.1l-.1-1zm1.3 3.4c.1.3.1 0 0 0m-1.5-5.8.1-.8c0 .3 0 0 0 0zm.6 4v.3c.3.2-.2-.6 0-.8.2 1-.1-.6-.1 0-.1-.5 0 0-.1-.2 0 0-.1-.4-.2-.3zm-.2-1v.3zm-.3-1.9v.5zm3 7c.2.1-.2-.3-.1-.2zM2 16q0 .1 0 0m-.7-4.7v-.6zm0 1.2v1.2h.2l-.2-1zm0 .8.1.3zm.1.8.1.4zm1.4 3.6.2.3zM1.2 9.6v-.3zm-.1 4.3v-.5zm1.5 4-.1-.2zm-.9-1.8-.4-1.3.1.5v.1zM1.1 14 1 13zm.6 2.3-.1-.3zm.8 1.7.2.4zm-.1-.1.1.3.1.1zM3 19c0-.2.4.4.4.4zM1 9.2q0-.1 0 0 .1-.6 0-.4.2-.1.2-.4c0 .4 0 0 0 0 .2 0-.1.6-.2.7h.1c0 .2-.3.8-.1.1m0 4.5-.1-.6zm21.8 0 .1-.2zm.4-2.5q0-.4-.1-.1zm-5.9 10.6q.3 0 0 0m5-5.8v-.2zm-5 5.8-.3.1zM1.7 16.7l.2.5zM23.2 12v.2zm-12 11.2H11zM9.3 23h.4zM1.2 8.7v-.3zm17.3 12.4.4-.3zm4.6-8.3v-.3zm-6.3 9.4V22m4.7-4.2v-.2zm-18 1.7-.2-.3zm11 3.2h.3zm-4 .4L10 23zm-1.8-.4h-.2l-.4-.2-.4-.1-.4-.1-.2-.2A6 6 0 0 1 5.2 21l1.2.7c-.2 0 .6.3.1.1.2.2 2 .9 2.2.9m14.6-12.4V10zm0 2.7v.4h-.1s0 .3 0 0v-.5zl-.1.7V13zv-.4l.1-.3v.9m-.2 1-.3 1.2v.2l-.2.1.2-.3V15l.1-.4.2-.8zm-10.3 9-.3.1zM9.1 1h.3zm2.6-.4h-.2zM21.1 19l-.2.2c-.1 0 .3-.5.2-.2M14.8.9h.3zM16 1l-.3-.1zm.9 21.2-.5.2zM19 21c-1.3 1-1 .7 0 0q.2 0 0 0m-1.8 1.1.3-.2zm-8.7-21 .4-.2zM21 19l-.3.4zm-6.4 4-.5.2zM.7 9.5v-.2c.1-.1 0 .4 0 .2" />
</svg>