<svg width="24" height="24" viewBox="0 0 24 24" xmlns="http://www.w3.org/2000/svg">
    <path
        d="M4.8437 8.0256C4.8528 7.99718 4.92348 7.8941 4.94817 7.84743C4.96346 7.92592 4.80874 8.13024 4.8437 8.0256ZM7.68718 0.862015C7.62969 0.897949 7.57185 0.934543 7.51467 0.971419C7.69617 0.908539 7.92405 0.814384 8.09671 0.768762C8.12454 0.761452 8.06665 0.821914 8.13134 0.80155C8.19591 0.781431 8.16684 0.735676 8.2582 0.699542C8.35833 0.657641 8.85196 0.546875 9.02551 0.50312C9.66387 0.332977 10.3029 0.177333 11.0341 0.145274C10.3044 0.250847 11.0405 0.215303 11.2535 0.194497C11.2867 0.191248 11.2936 0.140802 11.5455 0.117769C11.6285 0.107933 11.7784 0.103666 11.9707 0.114688C12.3814 0.140456 11.9948 0.264866 12.6758 0.223325C12.1653 0.104147 12.6715 0.127329 13.0834 0.153676C13.1609 0.156758 13.7258 0.219456 13.9836 0.248498C14.0742 0.257742 14.2085 0.223262 14.3259 0.238274C14.4056 0.248516 14.465 0.285183 14.5823 0.301797C15.1379 0.381539 15.6811 0.490518 16.2341 0.648874C15.8778 0.689866 16.4728 0.770696 16.4979 0.787466C16.6197 0.858169 16.0218 0.702058 16.2511 0.788545C16.5806 0.874347 16.9087 0.97267 17.2338 1.08498C16.971 0.973377 17.628 1.10928 17.7251 1.20023C17.7278 1.04872 19.1476 1.96721 19.3678 2.10261C19.4161 2.128 19.1545 1.87576 19.8252 2.35793C19.897 2.41198 19.8489 2.42102 19.8891 2.44565C19.9124 2.45987 20.1192 2.47132 20.2258 2.63262C20.2616 2.69597 19.8936 2.47141 20.6292 3.05356C20.4323 2.70085 21.6311 3.91958 21.7654 4.21223C21.7387 4.15339 21.7114 4.09486 21.6836 4.03667C21.8465 4.3036 21.9087 4.32959 21.9483 4.38523C22.108 4.61335 22.2903 4.96246 22.4214 5.18153C22.576 5.442 22.6425 5.41427 22.7759 5.73874C22.7528 5.65694 22.7287 5.57562 22.7035 5.49479C22.8132 5.71022 22.9169 5.93501 23.011 6.16214C22.6934 5.68084 23.0593 6.27593 23.0727 6.31443C23.1028 6.37902 23.029 6.29878 23.0781 6.40721C23.0832 6.41859 23.1109 6.3875 23.1813 6.55908C23.3251 6.92275 23.2566 6.87678 23.3082 7.02739C23.3125 7.04161 23.3296 6.98098 23.4181 7.2431C23.68 8.08588 23.3972 7.24426 23.379 7.21515C23.3575 7.17643 23.3287 7.49516 23.138 6.78433C23.2072 7.02585 23.1541 7.06456 23.1621 7.0919C23.1702 7.11375 23.3009 7.52087 23.3074 7.54499C23.3814 7.74136 23.3735 7.55434 23.3911 7.59154C23.4078 7.62041 23.4746 8.12238 23.6167 8.21917C23.5527 8.48585 23.4935 8.09499 23.3758 7.71043C23.3402 7.6586 23.4224 8.09467 23.4254 8.1191C23.5417 8.68634 23.5676 8.35219 23.6508 8.46511C23.6936 8.52324 23.6695 8.7636 23.7159 8.5378C23.8092 9.05024 23.7095 8.74619 23.7084 8.78027C23.7061 8.83174 23.7557 9.01022 23.7553 9.03391C23.755 9.06811 23.7108 8.95523 23.7182 9.08896C23.7197 9.11214 23.7958 9.31615 23.7846 9.03971C23.8235 9.40247 23.8586 9.36396 23.7862 9.49468C23.9707 9.72724 23.7067 9.68248 23.7056 9.77997C23.7004 10.0415 23.8213 9.95894 23.8287 9.97211C23.872 10.0521 23.8635 10.6273 23.8666 10.8792C23.8674 10.9063 23.8686 10.9292 23.8704 10.9467C23.8547 10.935 23.8444 10.9112 23.8379 10.8792V10.8792C23.8078 10.7178 23.859 10.3626 23.8396 10.2732C23.7668 9.9128 23.8103 10.7884 23.6864 10.5268C23.7207 10.6369 23.7537 10.7486 23.7855 10.862C23.7833 10.8682 23.7812 10.8739 23.779 10.8792C23.7083 11.0458 23.6833 10.7974 23.7014 11.3129C23.7643 11.4014 23.6971 10.9371 23.7459 11.0304C23.7757 11.0862 23.7762 11.3946 23.7911 11.4007C23.8101 11.4076 23.7933 11.1283 23.8212 11.1726C23.8872 11.2727 23.7851 12.2786 23.7823 11.5095C23.7762 11.7216 23.6469 11.8293 23.6744 12.0196C23.6901 12.1427 23.9109 11.4685 23.8049 12.4933C23.7458 12.5107 23.8196 12.0837 23.8146 12.0709C23.8092 12.0547 23.6724 12.1247 23.665 12.1375C23.648 12.1799 23.6167 13.2371 23.5092 13.4468C23.6017 13.3748 23.3937 14.2357 23.388 14.3425C23.3889 14.3697 23.4547 14.2826 23.4538 14.3112C23.4484 14.493 23.2616 14.9269 23.1987 15.1434C23.131 15.381 23.177 15.3611 23.1734 15.3745C23.141 15.4778 23.1389 15.3872 23.1204 15.4505C23.0984 15.5434 22.8701 16.2081 22.8604 16.2374C22.8585 16.2478 22.9411 16.1569 22.8967 16.3026C22.8876 16.3273 22.8476 16.297 22.6992 16.7245C22.5146 17.2362 22.9069 16.4008 22.8728 16.6304C22.6642 16.9269 22.7413 16.9426 22.6963 17.0311C22.6805 17.0614 22.5165 17.2621 22.4012 17.5018C22.4767 17.3256 22.5486 17.1462 22.6167 16.9636C22.5296 17.1354 22.3857 17.4697 22.3004 17.6029C22.2591 17.6682 22.2386 17.5866 22.1623 17.7339C22.1456 17.7643 22.2038 17.9564 22.3505 17.5376C22.4106 17.5278 22.2868 17.7008 22.2531 17.7919C22.2482 17.8056 22.2932 17.8962 22.1886 17.9793C22.1592 17.9984 22.124 17.6046 21.8473 18.4042C21.8379 18.4299 21.9125 18.3664 21.9039 18.3919C21.8984 18.4099 21.7747 18.583 21.7652 18.6045C21.756 18.6271 21.8391 18.5587 21.829 18.5862C21.7771 18.7281 21.5636 18.8148 21.7363 18.57C21.6687 18.645 21.5992 18.7205 21.5286 18.795C21.6707 18.7606 21.4613 18.9428 21.3815 19.0559C20.8546 19.7827 21.2672 19.3433 21.1994 19.4866C21.0827 19.7152 21.0762 19.4624 20.8763 19.777C20.8552 19.8034 21.2123 19.5193 20.5941 20.1445C20.6802 20.0486 20.7649 19.9508 20.8483 19.851C20.7293 19.8467 20.5407 20.2009 20.5188 20.2232C20.2855 20.4795 20.4298 20.2934 20.0939 20.6811C20.0631 20.7158 19.9738 20.7664 19.9084 20.84C19.6373 21.1469 20.3263 20.5021 20.3649 20.5045C20.3945 20.5169 19.6351 21.1961 19.5947 21.2026C19.4567 21.2672 19.9361 20.8937 19.8148 20.9306C19.7859 20.961 18.6635 21.8629 18.3949 21.9769C18.1025 22.1317 17.9086 22.0899 17.9783 22.2168C17.8281 22.1393 17.8043 22.2622 17.7667 22.2815C17.3124 22.5068 17.3122 22.5025 16.9238 22.6945C16.8378 22.7359 16.7472 22.7278 16.7193 22.7474C16.703 22.759 16.7546 22.7873 16.6717 22.8373C16.5564 22.9138 15.789 23.1428 15.7248 23.1306C15.6611 23.1258 16.0387 23.0134 15.9581 22.9963C15.6883 23.0858 15.4309 23.1769 15.1557 23.2486C15.0415 23.2779 15.0923 23.2336 15.0428 23.2464C15.0218 23.2533 14.6328 23.3766 14.6519 23.3818C14.6988 23.4118 15.9107 23.0404 15.6056 23.1821C15.5464 23.2117 15.3089 23.2121 15.3667 23.2801C14.2718 23.581 13.1503 23.7374 12.031 23.7592C12.6715 23.6762 13.3944 23.6539 14.0592 23.5227C14.1495 23.5063 14.4582 23.4499 14.4122 23.4169C13.8497 23.5297 13.1484 23.6513 12.5978 23.6646C12.5803 23.665 12.6412 23.623 12.5757 23.6222C12.4529 23.6222 12.0575 23.7024 11.9892 23.6876C11.9787 23.6848 12.202 23.6267 12.1321 23.5984C11.9547 23.5257 11.913 23.7037 11.7599 23.7045C11.7283 23.7045 11.6484 23.6993 11.5455 23.6911C11.2493 23.6716 10.7725 23.6087 10.6201 23.6332C10.3978 23.6758 11.2221 23.7082 11.1608 23.7467C10.5964 23.7743 10.0354 23.6582 9.51731 23.5673C9.50812 23.5657 9.58077 23.6169 9.46409 23.6002C9.261 23.5701 9.21919 23.5065 9.12392 23.477C9.02021 23.4466 8.65216 23.3613 8.60833 23.3279C8.60283 23.3239 8.69029 23.2938 8.70177 23.2952C8.86558 23.3163 8.90597 23.3946 8.9204 23.3992C8.97448 23.415 9.03391 23.4024 9.08375 23.4154C9.16566 23.4366 9.20607 23.47 9.31508 23.4948C9.39026 23.5117 9.3266 23.452 9.39873 23.4686C9.42394 23.4756 9.69612 23.6318 9.74122 23.5299C9.73808 23.553 7.45118 22.8861 7.24338 22.7569C7.42707 22.8478 7.61293 22.9336 7.802 23.0146C7.42054 22.8484 6.92885 22.7226 6.94953 22.592C5.55665 21.9493 4.29106 21.0135 3.2774 19.8502C3.10551 19.6351 3.26254 19.7009 2.96025 19.3653C3.01261 19.473 3.06674 19.5798 3.12261 19.6857C2.97404 19.5033 2.3985 18.6569 2.30488 18.519C2.29184 18.5018 2.21153 18.5173 2.07257 18.3011C1.95043 18.1079 1.98058 18.0468 1.93041 17.9361C1.88875 17.8436 1.82241 17.7496 1.81103 17.7214C1.80238 17.6997 1.82786 17.676 1.80746 17.6239C1.74356 17.459 1.72312 17.6288 1.74233 17.4235C1.76491 17.4599 1.78766 17.4961 1.81058 17.532C1.72751 17.3345 1.65356 17.0583 1.80707 17.3237C1.8339 17.3691 1.78479 17.3429 1.80213 17.3781C2.54386 18.7423 1.98873 17.6331 1.71996 17.163C1.69752 17.0186 1.37925 16.3137 1.38417 16.2817C1.38494 16.2436 1.46601 16.3534 1.43869 16.1809C1.42313 16.1491 1.09859 15.1767 1.26673 15.5111C1.29728 15.5778 1.43555 16.0524 1.4794 16.1599C1.47761 15.8687 1.15567 15.2909 1.14348 15.2152C1.08293 14.9257 1.37592 15.7392 1.21613 15.0948C1.10521 14.6034 1.15041 15.0791 1.07662 14.897C1.03162 14.794 0.993413 14.2147 0.90319 14.2482C0.858947 14.0556 0.929806 14.1607 0.929242 14.136C0.92724 14.1127 0.838728 13.7321 0.845286 13.6071C0.845906 13.5919 0.902205 13.6326 0.904333 13.6165C0.906258 13.5864 0.854924 13.2183 0.850386 13.2029C0.846436 13.1936 0.811122 13.2869 0.796772 13.2514C0.7788 13.2086 0.760055 12.8568 0.747071 12.837C0.724573 12.8114 0.773597 13.2468 0.718564 13.1785C0.7112 12.9777 0.656834 12.6469 0.611621 12.5128C0.624148 12.5444 0.636588 12.745 0.637567 12.8137C0.561269 12.7862 0.541499 12.3575 0.605949 12.5008C0.571169 12.411 0.557445 12.474 0.52623 12.4236C0.518179 12.4104 0.512229 12.2796 0.499119 12.2545C0.49638 12.2513 0.473307 12.3876 0.457718 12.361C0.42795 12.3137 0.426951 11.9108 0.435235 11.8769C0.454489 11.7839 0.480433 12.1132 0.512527 12.1391C0.516715 12.1429 0.573826 11.8643 0.579747 11.8601C0.635945 11.8441 0.598115 12.1523 0.649328 12.116C0.658774 12.0402 0.668802 11.9642 0.679413 11.888C0.729337 12.1818 0.727395 12.7136 0.798435 12.8505C0.748962 12.416 0.748623 11.9757 0.881569 11.9731C0.93728 11.9733 0.972854 12.1557 0.98719 12.1481C1.03697 12.1207 0.979137 11.8675 0.982349 11.8576C0.985447 11.8498 0.988471 11.8462 0.991412 11.8462C0.991413 11.8462 0.991414 11.8462 0.991415 11.8462C1.02019 11.8471 1.04608 12.2076 1.06128 12.2243C1.0861 12.2536 1.18196 12.0927 1.2042 12.0928C1.20819 12.0987 1.23853 12.3493 1.27462 12.2634C1.31037 12.1772 1.30824 11.957 1.31256 11.949C1.33447 11.9074 1.36229 12.2908 1.37763 12.3006C1.38442 12.3064 1.42176 12.1011 1.43426 12.0949C1.4463 12.0897 1.47642 12.2443 1.51744 12.3031C1.54767 12.3471 1.56563 12.2155 1.5709 12.2384C1.57323 12.255 1.58778 12.6076 1.59512 12.6267C1.60408 12.6525 1.63374 12.5667 1.64304 12.5785C1.65621 12.5951 1.65073 12.7108 1.66259 12.6951C1.66943 12.6812 1.76826 12.2365 1.80176 12.2397C1.85497 12.244 1.74913 12.7044 1.94588 12.2722C1.94709 12.2693 1.92907 12.1662 1.93042 12.1631C1.96835 12.0985 2.03575 12.4284 2.01699 12.0232C2.10488 12.7715 2.0994 12.115 2.19356 12.2236C2.22891 12.2654 2.25575 12.5484 2.26188 12.551C2.30459 12.5205 2.26572 12.4302 2.28629 12.3993C2.29712 12.3807 2.35727 12.6355 2.38479 12.5758C2.39794 12.5438 2.38077 12.2771 2.38415 12.2658C2.40979 12.1589 2.44488 12.2879 2.4647 12.2639C2.4777 12.2483 2.47482 12.087 2.47746 12.0825C2.48211 12.0761 2.54321 12.2931 2.565 12.3366C2.58126 12.3701 2.60019 12.2412 2.60763 12.2648C2.65074 12.4046 2.56827 12.719 2.69291 12.4151C2.70056 12.3972 2.6928 12.2873 2.69451 12.2839C2.73176 12.2148 2.7425 12.4164 2.77721 12.4512C2.83593 12.5099 2.79168 12.2229 2.842 12.4614C2.87014 12.2794 2.86515 12.1813 2.85237 11.9671C2.89268 12.5569 3.05191 12.743 3.02445 12.107C3.02717 12.3117 3.10936 12.2852 3.11291 12.3452C3.11417 12.38 3.05002 12.6829 3.22451 12.5363C3.24596 12.5181 3.20848 12.3418 3.25779 12.3952C3.269 12.8218 3.28713 12.4025 3.29403 12.4019C3.39164 12.4075 3.39374 13.428 3.44685 13.5977C3.49288 13.7977 3.61042 13.9518 3.61943 13.9956C3.64853 14.1363 3.58222 14.0283 3.57325 14.063C3.56303 14.1013 3.73511 14.4729 3.73814 14.4941C3.74049 14.5747 3.67088 14.5105 3.67046 14.519C3.66132 14.6241 3.85684 15.1331 3.90042 15.2761C3.92908 15.2611 3.83457 14.9742 3.94541 15.1356C4.07502 15.32 3.94468 15.3815 3.94034 15.3896C4.29477 16.3372 4.81494 17.2079 5.48085 17.9504C5.52552 17.8936 5.07057 17.4301 5.07434 17.4074C5.05977 17.3121 5.75615 18.1478 5.84778 18.2483C5.78699 18.1643 5.72865 18.0799 5.67202 17.9945C5.85175 18.0596 6.04113 18.4103 6.25904 18.5453C6.32812 18.5885 6.23435 18.461 6.23862 18.4612C6.32867 18.4953 6.42126 18.6086 6.30877 18.5738C6.50576 18.6825 6.45022 18.6993 6.58111 18.8082C6.58787 18.8135 6.55285 18.7409 6.66756 18.811C6.72008 18.8451 6.99197 19.0414 7.04718 19.0387C7.06891 19.0379 7.01211 18.8285 6.92589 18.914C6.66984 18.6536 6.7997 18.8897 6.68895 18.8031C6.67286 18.7883 6.75006 18.7706 6.45702 18.5711C6.58435 18.5236 6.84487 18.8408 6.91294 18.8686C7.04335 18.9289 6.61374 18.531 6.4744 18.529C6.5737 18.4887 6.45038 18.4935 6.35435 18.4042C6.24988 18.306 6.31547 18.3265 6.25825 18.2744C6.10436 18.1305 6.12174 18.2384 6.0389 18.0737C6.02962 18.327 5.80731 17.8783 5.75747 17.7436C5.91219 17.9014 6.07393 18.0523 6.24097 18.195C6.23845 18.1793 6.23598 18.1636 6.23357 18.1479C6.27439 18.1882 6.31642 18.2288 6.35851 18.2684C6.34536 18.2692 6.33218 18.2699 6.31899 18.2706C6.58187 18.4243 6.5966 18.5184 6.61497 18.5356C6.85329 18.7408 7.15253 18.9531 7.42462 19.1205C7.4663 19.1447 7.46646 19.0805 7.74623 19.2938C7.83687 19.3609 7.72124 19.352 7.83693 19.4063C8.03748 19.3667 7.98715 19.455 8.0296 19.4768C8.151 19.5375 8.24029 19.5432 8.25157 19.5482C8.40452 19.6146 8.62854 19.7152 8.80211 19.7749C8.80542 19.7756 8.7302 19.7049 8.8375 19.7579C8.87275 19.7765 9.17574 20.0665 9.51451 20.0989C9.43376 20.0653 9.35451 20.0307 9.27549 19.9947C9.36589 20.0478 10.0652 20.171 9.90624 20.0858C9.80979 20.0376 9.53373 20.0794 9.53347 19.97C9.74701 20.0906 11.0248 20.2361 11.122 20.2397C11.1356 20.244 11.0491 20.2727 11.0677 20.2782C11.0822 20.2838 11.3755 20.2886 11.4139 20.3008C11.437 20.3091 11.3068 20.3269 11.3169 20.3392C11.3219 20.3443 11.4398 20.3546 11.5455 20.3518V20.3518C11.6322 20.3499 11.7124 20.3408 11.7217 20.3219C11.6797 20.3303 11.604 20.3324 11.5455 20.3283C11.4754 20.3231 11.4305 20.3089 11.5039 20.2896C11.5102 20.288 11.5265 20.2909 11.5455 20.2948V20.2948C11.5786 20.3013 11.6198 20.3104 11.6333 20.3067C11.7215 20.2828 11.6545 20.2737 11.5455 20.2693C11.413 20.2642 11.2105 20.2603 11.1612 20.257C11.2745 20.2459 11.4063 20.2447 11.5455 20.2442V20.2442C11.8666 20.2439 12.2419 20.2468 12.5378 20.1927C12.7185 20.2109 12.2801 20.271 12.4834 20.2817C12.9081 20.2997 12.5894 20.222 12.6021 20.2164C12.6997 20.1721 13.0769 20.3144 13.0562 20.1689C13.2081 20.1676 13.1633 20.1943 13.3706 20.1385C13.3411 20.1336 13.3117 20.1285 13.2823 20.1234C13.4989 20.0043 14.0296 20.0991 13.9989 20.1215C13.9108 20.189 13.6376 20.1792 13.6163 20.1845C13.5851 20.1923 13.5212 20.3615 13.1375 20.2892C13.0038 20.414 13.7231 20.2549 13.4054 20.3806C13.6277 20.3415 14.5475 20.1785 14.659 20.0857C14.6723 20.0751 14.5727 20.0049 14.8032 19.9815C14.913 19.9699 14.6668 20.0534 14.7205 20.059C14.9124 20.1282 16.7716 19.2155 17.0406 18.935C17.0609 18.9206 17.0712 18.9509 17.0911 18.9364C17.1536 18.8922 17.3448 18.692 17.457 18.6175C17.2054 18.7469 17.6219 18.4075 17.7234 18.3176C17.8832 18.1849 17.9091 18.2322 17.9821 18.1782C18.2695 17.9665 18.519 17.4812 18.7748 17.335C18.6715 17.2787 19.1005 16.9901 19.2164 16.7983C19.311 16.6498 19.368 16.3906 19.2088 16.569C19.365 16.3173 19.4907 16.0256 19.6004 15.7669C19.6186 15.7237 19.624 15.7973 19.6541 15.7226C19.6566 15.7157 19.6294 15.6926 19.6538 15.6278C19.8422 15.0996 19.8036 15.3759 19.8638 15.2858C19.8966 15.2339 19.9181 15.1931 19.931 15.1638C19.8222 15.4846 19.6778 15.8353 19.6333 15.9287C19.7452 15.8841 19.9167 15.2462 19.9932 15.0713C19.9961 15.0653 20.0279 15.101 20.0304 15.0948C20.0305 15.0947 20.0305 15.0945 20.0306 15.0944C20.0598 15.031 20.1869 14.58 20.1093 14.6576C20.0891 14.6777 20.0264 14.8848 19.9468 15.1175C19.9605 15.0516 19.8995 15.0826 19.9016 15.0709C19.9285 14.9321 20.0817 14.6036 20.1201 14.4864C20.1294 14.4591 20.0998 14.4528 20.1011 14.4483C20.1386 14.3401 20.2091 14.4079 20.1544 14.2701C20.313 14.0953 20.0657 14.6517 20.1418 14.6279C20.2201 14.6259 20.4981 13.2884 20.3952 13.2798C20.4048 13.2767 20.419 13.2603 20.4379 13.2245C20.4813 13.1452 20.5264 12.7653 20.5173 12.6997C20.5156 12.6883 20.4338 12.6828 20.4347 12.6691C20.4384 12.6377 20.5514 12.1749 20.513 12.0001C20.4948 12.093 20.4758 12.1846 20.456 12.2751C20.5016 11.717 20.4657 11.7969 20.4299 11.9853C20.429 11.9947 20.4252 12.0036 20.4242 12.0125C20.3959 12.1562 20.3611 12.3372 20.3541 12.341C20.336 12.3509 20.3821 11.3938 20.4451 11.5801C20.4558 11.6078 20.3948 12.054 20.4625 11.8357C20.4751 11.7979 20.4736 11.5058 20.4794 11.4936C20.5254 11.3911 20.5451 12.0284 20.6041 11.9542C20.561 11.7991 20.5999 11.5971 20.5915 11.4255C20.5879 11.3458 20.5472 11.325 20.5467 11.3151C20.5396 11.1675 20.5806 11.2511 20.5806 11.2017C20.5811 11.1755 20.4919 10.8791 20.6176 10.9353C20.6158 10.916 20.6141 10.8973 20.6123 10.8792V10.8792C20.5336 10.2027 20.5254 10.4612 20.5292 10.8792V10.8792C20.5293 11.0013 20.529 11.1346 20.5276 11.2612C20.5062 11.1652 20.5028 11.0213 20.5014 10.8792V10.8792C20.5002 10.7485 20.5003 10.6249 20.493 10.5485C20.4874 10.4922 20.4465 10.5265 20.4347 10.4326C20.4212 10.2456 20.3781 9.31489 20.3361 9.09071C20.3753 9.22847 20.4136 9.17988 20.3912 9.0715C20.3682 8.96419 20.3246 9.06594 20.3143 9.04611C20.3078 9.0267 20.2234 8.5081 20.1906 8.43581C20.3055 8.79838 20.3314 8.70645 20.2531 8.38842C20.279 8.43305 20.303 8.47254 20.3276 8.5157C20.2653 8.33228 20.2093 7.92528 20.1489 7.828C20.1398 7.81261 20.1251 7.88514 20.1199 7.87644C20.0733 7.78723 19.9877 7.47287 19.9684 7.46596C19.9536 7.45869 19.9771 7.59659 19.9427 7.55621C19.936 7.54872 19.9319 7.40475 19.8634 7.29099C19.8383 7.24922 19.8181 7.29134 19.8109 7.28128C19.751 7.19885 19.8332 7.22345 19.7405 7.0661C19.6699 6.94914 19.5689 6.89049 19.4904 6.72633C19.7288 7.28363 19.5081 6.8252 19.3493 6.63223C19.3234 6.60157 19.2901 6.66381 19.1799 6.45497C19.5668 6.79906 19.1527 6.29712 19.0617 6.19613C19.0574 6.19025 19.0898 6.16057 19.0482 6.10949C19.0446 6.10531 19.0272 6.13004 18.9863 6.08535C18.5833 5.66826 18.8549 5.92198 18.8016 5.82019C18.7794 5.7765 18.546 5.60642 18.4875 5.55773C18.4744 5.54607 18.501 5.52852 18.449 5.48414C18.3567 5.406 18.2503 5.3612 18.1861 5.31387C18.1785 5.30848 18.209 5.26904 18.0772 5.18931C18.0397 5.16676 17.9904 5.15203 18.0317 5.19956C18.1675 5.35334 18.5094 5.53736 18.638 5.73089C18.7567 5.90051 18.2881 5.46322 18.2548 5.44757C18.2451 5.43964 18.3582 5.50264 18.2619 5.41636C18.1788 5.3421 17.9704 5.28599 17.8457 5.17739C17.8367 5.16901 17.767 5.03609 17.7739 5.03612C17.7806 5.03598 17.9578 5.14006 17.9451 5.10671C17.9437 5.10248 17.836 5.02835 17.83 5.00642C17.8234 4.97949 17.8762 4.79614 17.8538 4.77614C17.7969 4.72598 17.8154 4.7873 17.7763 4.75887C17.6946 4.69649 17.407 4.46921 17.3647 4.52021C17.4155 4.55215 17.4662 4.58488 17.5157 4.61778C17.223 4.46026 17.333 4.55466 17.2864 4.54201C17.2358 4.52967 17.2747 4.48692 17.1771 4.43089C17.1579 4.41582 16.7226 4.2249 16.7199 4.25245C16.9749 4.32517 16.8569 4.34884 16.8677 4.35454C16.9071 4.37766 16.9764 4.36775 17.0314 4.39539C17.4126 4.59352 16.9992 4.45293 17.0826 4.5125C17.111 4.53252 17.187 4.53477 17.1992 4.54313C17.2389 4.57003 17.2193 4.60838 17.2488 4.62016C17.3174 4.64798 17.2705 4.55363 17.277 4.55357C17.3546 4.55062 17.5568 4.72064 17.3841 4.69847C17.4558 4.76654 17.5053 4.70257 17.5543 4.76906C17.6497 4.90108 17.4664 4.77072 17.4081 4.75052C17.1976 4.67621 17.1586 4.61774 16.8693 4.49078C16.7652 4.44569 16.6266 4.42778 16.5769 4.40911C16.5475 4.39636 16.3025 4.1525 16.2172 4.34904C16.1102 4.28627 15.9743 4.09022 15.8467 4.05609C15.7337 4.02602 15.7466 4.10938 15.7354 4.1088C15.7183 4.108 15.5864 4.06158 15.5381 4.05889C15.4811 4.05551 15.4998 4.09055 15.4115 4.07788C15.1921 4.04772 15.2169 3.97668 15.1962 3.96583C14.9525 3.84564 15.039 3.9803 14.9801 3.97493C14.93 3.96512 14.1768 3.77261 14.0101 3.78202C14.0775 3.7767 14.1454 3.77196 14.214 3.76785C14.1033 3.70063 13.9677 3.75953 13.977 3.67409C13.9314 3.80699 13.7 3.68139 13.6254 3.67647C13.5954 3.67428 13.5949 3.69801 13.5576 3.69461C13.414 3.68073 13.0892 3.63101 13.0112 3.63752C12.6733 3.66071 13.5217 3.81961 13.5883 3.83919C13.4524 3.81592 12.6903 3.7834 13.0326 3.87888C13.085 3.89352 13.1872 3.84056 13.2186 3.84121C13.4262 3.8458 13.259 3.88499 13.275 3.8919C13.3005 3.90287 13.4397 3.86363 13.475 3.87427C13.4869 3.87787 13.4039 3.91831 13.6003 3.94299C13.497 3.97656 12.9555 3.88434 12.881 3.89285C12.8553 3.89603 13.0084 4.00767 12.542 3.8784C12.5471 3.88837 12.5522 3.89834 12.5573 3.90832C12.2938 3.89801 12.0229 3.89398 11.7565 3.89552C11.7876 3.87347 11.9359 3.83041 11.7465 3.83781C11.6324 3.84245 11.7164 3.89278 11.7059 3.89413C11.6898 3.89622 11.6294 3.89719 11.5455 3.89805V3.89805C11.2714 3.87216 10.1162 4.07408 9.87372 4.16657C9.77633 4.19395 9.50464 4.31969 9.4864 4.32746C9.36115 4.36889 8.90664 4.50927 8.82404 4.55227C8.77123 4.57779 8.83846 4.59509 8.78946 4.61318C8.74386 4.6301 8.77496 4.57369 8.76098 4.57769C8.63633 4.602 7.84381 5.0442 7.64822 5.12904C7.76272 5.06764 8.30945 4.69783 8.29091 4.68066C8.28628 4.67822 8.12719 4.72134 8.10449 4.7498C8.03978 4.74281 7.91846 4.92475 7.82155 4.9548C7.81031 4.95859 7.82164 4.88324 7.65678 4.9638C7.59932 4.99214 7.4815 5.11385 7.31457 5.15789C7.10992 5.28525 6.08503 5.99802 6.08516 6.11773C6.08559 6.12146 6.22665 6.02141 6.15922 6.11911C6.07078 6.24977 6.09115 6.0685 5.95316 6.18728C5.92957 6.2022 5.59187 6.57475 5.59088 6.59315C5.54052 6.74796 5.84852 6.44517 5.85206 6.45676C5.85339 6.48011 5.62381 6.7514 5.61281 6.76064C5.59975 6.76842 5.72463 6.49002 5.52104 6.77793C5.5549 6.75376 5.58886 6.73 5.62292 6.70664C5.53139 6.84405 5.47596 6.81884 5.44738 6.84754C5.35971 6.93722 5.35139 7.09529 5.14383 7.19156C5.08905 7.21692 5.11217 7.12668 5.10493 7.12922C5.03473 7.15784 5.07756 7.28505 4.95753 7.31985C4.94881 7.3236 5.03179 7.10579 4.81607 7.43813C4.8372 7.41908 4.8584 7.40024 4.87965 7.3816C4.86018 7.43815 4.66834 7.78023 4.64056 7.82845C4.55614 7.95978 4.57111 7.81343 4.504 7.95577C4.61574 7.89968 4.41325 8.33355 4.36868 8.28184C4.41452 8.37345 4.19809 8.72591 4.13598 8.90843C4.09317 9.02399 4.05449 9.27247 4.04067 9.30818C4.02273 9.35217 3.97254 9.32261 3.93746 9.40288C3.92686 9.42681 3.90064 9.68361 3.79864 9.89493C3.77866 9.93576 3.66699 10.0111 3.66 9.92368C3.64762 9.77166 3.78434 9.53229 3.72998 9.5206C3.66878 9.51052 3.62221 9.8709 3.59744 9.9698C3.48044 10.4138 3.46483 10.1437 3.44293 10.1517C3.39065 10.1731 3.35385 10.4264 3.34895 10.4372C3.32405 10.479 3.31278 10.2924 3.28522 10.2855C3.24818 10.2753 3.1467 10.517 3.14214 10.4585C3.13453 10.3726 3.22547 10.1532 3.22566 10.1394C3.22161 9.94793 3.09255 10.187 3.04026 10.2546C3.02398 10.2746 3.01618 10.1839 3.00963 10.2015C2.91067 10.4724 3.12026 10.2773 3.08292 10.4613C3.05112 10.6272 3.02204 10.4047 3.01846 10.4106C3.0135 10.418 2.98543 10.6194 2.96284 10.6462C2.94743 10.6655 2.90916 10.124 2.85976 10.1395C2.8442 10.3051 2.83172 10.4811 2.82483 10.6461C2.75854 10.6532 2.83446 10.4161 2.83205 10.3899C2.82556 10.3374 2.77446 10.4747 2.75516 10.4663C2.74249 10.4615 2.71869 10.2875 2.67989 10.437C2.66662 10.4902 2.69773 10.6006 2.63394 10.7841C2.64646 10.1229 2.56023 10.5745 2.535 10.5901C2.51003 10.6073 2.4922 10.2854 2.45902 10.6693C2.33247 10.6733 2.42002 10.6566 2.41031 10.5453C2.40028 10.4074 2.31695 10.7177 2.41495 10.2205C2.35073 10.2397 2.30526 10.6451 2.30054 10.6639C2.29439 10.6817 2.27487 10.59 2.26182 10.6206C2.11205 10.9876 2.1888 10.7329 2.10641 10.8369C2.09815 10.8452 2.04535 11.2128 2.05479 10.9308C2.07612 10.4231 2.19691 10.2246 2.03194 10.1133C1.89575 10.4864 1.97516 10.9481 1.97065 11.0671C1.96271 11.2455 1.93745 11.0589 1.92604 11.08C1.92195 11.089 1.91673 11.2384 1.91397 11.2403C1.76897 11.3451 1.95354 10.56 1.9701 10.3154C1.94124 10.3793 1.91275 10.4455 1.88534 10.5075C1.89421 10.4208 1.90521 10.3254 1.91674 10.2355C1.82083 10.6656 1.89755 10.2486 1.8056 10.1252C1.7846 10.0971 1.78544 10.3897 1.76472 10.0532C1.71396 10.2917 1.7021 10.2131 1.70586 10.4373C1.66044 10.4274 1.67789 9.92058 1.69341 9.72778C1.53339 10.4017 1.74936 10.0412 1.59566 10.6214C1.63894 10.7362 1.65707 10.4537 1.6641 10.478C1.68719 10.5626 1.61509 10.7513 1.71226 10.9966C1.72843 11.0363 1.79593 10.8776 1.77797 11.1181C1.77582 11.1438 1.71951 11.2898 1.71623 11.2879C1.67851 11.2661 1.70055 11.1195 1.68514 11.1122C1.67005 11.1059 1.67058 11.271 1.66661 11.2716C1.61814 11.2744 1.6551 11.1327 1.63907 11.1527C1.60383 11.1928 1.47118 11.7977 1.54183 11.0056C1.56183 11.6652 1.58481 11.0989 1.58684 10.8334C1.58707 10.7673 1.55974 10.7481 1.55863 10.6538C1.55723 10.532 1.58668 10.3979 1.58972 10.3317C1.59326 10.2632 1.47411 10.6407 1.56913 10.0853C1.45771 10.3641 1.48146 10.861 1.42083 11.1418C1.29785 11.6952 1.32353 10.7398 1.33266 10.6368C1.33267 10.6099 1.28562 10.6955 1.28494 10.6776C1.28081 10.6487 1.36263 10.1042 1.34238 10.0447C1.31817 9.98583 1.31528 10.2464 1.28059 10.2599C1.253 10.2667 1.31618 9.59795 1.2449 9.95406C1.19317 10.2042 1.23585 10.6689 1.134 10.7376C1.15683 10.3755 1.19839 9.9972 1.25599 9.63727C1.18362 9.82796 1.11591 10.0228 1.05281 10.2241C1.09559 9.80233 1.20174 9.45294 1.24148 9.05145C0.919468 9.97079 1.2122 8.72584 1.21682 8.70322C1.2083 8.69578 1.02 9.0493 0.991114 9.10586C1.01671 8.76151 1.32269 7.74222 1.02336 8.30031C1.0796 8.20312 1.10532 7.91507 1.09987 7.91764C1.03389 7.93498 0.890299 8.52191 0.87457 8.41482C0.853503 8.28866 0.969871 8.16068 1.02102 7.98796C1.2973 7.12871 0.948608 7.24701 1.39337 6.41698C1.3762 6.42918 1.35904 6.44147 1.3419 6.45384C1.8152 5.54459 2.42314 4.70755 3.13048 3.97832C3.33049 3.62465 4.08622 2.86834 4.51278 2.57657C4.59471 2.51359 5.03723 2.25672 5.07314 2.24505C5.13943 2.21736 4.82277 2.44045 4.98288 2.3643C5.01271 2.3418 5.74086 1.90492 5.66638 1.90148C5.58226 1.94377 5.34156 2.1208 5.2945 2.1389C4.94271 2.21228 7.26784 1.01692 7.39812 1.00022C7.33947 1.00758 7.28052 1.01547 7.22129 1.02387C7.37621 0.966848 7.52915 0.913818 7.68718 0.862015ZM4.95093 7.5738C4.95594 7.65401 4.84107 7.77795 4.80468 7.87164C4.75282 8.00088 4.81401 8.28434 4.69586 8.11526C4.77185 7.93319 4.85885 7.74908 4.95093 7.5738ZM7.03051 5.50437C6.90249 5.56428 6.93147 5.41839 7.05045 5.38769C7.06394 5.38446 7.20372 5.42557 7.03051 5.50437ZM5.90645 6.39305C5.90933 6.38785 5.9935 6.307 5.99764 6.30546C6.09973 6.26052 5.8472 6.50327 5.90645 6.39305ZM12.2866 3.81843C12.1127 3.81674 12.2366 3.91288 12.3429 3.87929C12.3495 3.87714 12.2991 3.81866 12.2866 3.81843ZM12.164 3.81179C12.0405 3.72497 11.7592 3.88787 11.9763 3.87487C12.0008 3.87347 12.1687 3.81579 12.164 3.81179ZM6.6122 5.76687C6.60455 5.73218 6.72695 5.6558 6.78024 5.62563C6.79615 5.64941 6.65672 5.72628 6.6122 5.76687ZM9.89008 4.12054C9.88975 4.09161 9.39959 4.24066 9.37866 4.2859C9.44932 4.24439 9.8907 4.141 9.89008 4.12054ZM11.123 3.84574C11.1131 3.84186 10.9489 3.86816 10.9569 3.88971C11.0429 3.90689 11.1763 3.85983 11.123 3.84574ZM13.7828 3.96355C13.7939 3.95999 13.6735 3.80051 13.9904 3.93979C14.0365 3.96029 13.8589 3.97061 13.8753 3.97827C13.9098 3.99311 13.9376 4.00184 13.9603 4.0061C13.8047 3.99416 13.6482 3.97987 13.6342 3.96961C13.5682 3.92083 13.7777 3.96477 13.7828 3.96355ZM15.1994 4.13406C15.2349 4.11927 15.4222 4.18287 15.4627 4.20481C15.4693 4.20862 15.4217 4.25693 15.5064 4.27703C15.5745 4.29345 15.4916 4.2045 15.6198 4.25348C15.7491 4.30367 15.5598 4.29092 15.5705 4.29769C15.5848 4.30563 15.7965 4.34373 15.779 4.37605C15.7663 4.39903 15.5547 4.31362 15.4989 4.30385C15.4276 4.29058 15.5 4.35718 15.3857 4.31462C15.3138 4.28826 15.3753 4.22522 15.3607 4.21709C15.3483 4.20952 15.0776 4.18462 15.1997 4.1344C15.1996 4.13429 15.1995 4.13417 15.1994 4.13406ZM14.0013 4.00889C13.9896 4.00974 13.9766 4.00915 13.9603 4.0061C13.9744 4.00717 13.9877 4.00796 14.0013 4.00889ZM5.13693 7.23094C5.19614 7.18798 5.10337 7.37338 5.03482 7.42252C5.01245 7.40937 5.12702 7.23724 5.13693 7.23094ZM14.1503 3.96886C14.3719 4.02646 14.2006 4.0226 14.0013 4.00889C14.066 4.00421 14.0761 3.95016 14.1503 3.96886ZM8.10449 4.7498C8.11522 4.75088 8.1244 4.75636 8.13164 4.76926C8.10307 4.76545 8.09722 4.7587 8.10449 4.7498ZM8.57401 4.55936C8.71676 4.44816 8.392 4.59187 8.40858 4.62123C8.41482 4.63137 8.56741 4.5638 8.57401 4.55936ZM12.502 3.83232C12.4855 3.82726 12.7582 3.70428 12.3677 3.78771C12.5704 3.81289 12.3546 3.81786 12.3579 3.83007C12.3623 3.86369 12.7118 3.84875 12.7843 3.86957C12.8467 3.81213 12.5612 3.84914 12.5024 3.83234C12.5023 3.83234 12.5021 3.83233 12.502 3.83232ZM17.4286 5.08223C17.3751 5.0913 17.2708 5.01602 17.1938 4.97104C17.2478 4.9598 17.3553 5.0347 17.4286 5.08223ZM8.94993 19.7867C9.54888 19.9529 9.59024 20.1095 9.05835 19.8828C9.04783 19.8784 8.90909 19.7881 8.94993 19.7867ZM14.3062 19.899C14.3822 19.9435 14.1912 20.0092 14.0549 20.0161C14.024 20.018 13.9014 19.9819 14.0207 19.9392C14.0352 20.0155 14.2346 19.9942 14.3062 19.899ZM14.2843 3.95034C14.3595 3.92006 14.5503 3.98658 14.6548 4.01522C14.5827 4.0355 14.3777 3.9797 14.2843 3.95034ZM10.932 20.2939C10.9973 20.3041 11.0452 20.2517 11.0342 20.2463C10.9858 20.222 10.8602 20.2562 10.932 20.2939ZM13.6312 3.84595C13.6242 3.81893 13.8976 3.8308 13.9081 3.89643C13.8501 3.88289 13.6354 3.86216 13.6312 3.84595ZM17.296 4.98152C17.2697 4.95107 17.451 5.0301 17.4942 5.07299C17.4762 5.09285 17.3137 5.00058 17.296 4.98152ZM12.0052 20.2901C12.0665 20.2925 12.2208 20.2846 12.2364 20.2608C12.2554 20.2319 12.0314 20.255 12.0052 20.2901ZM3.90891 14.2021C3.91667 14.1932 4.04123 14.4015 4.05168 14.5066C4.06877 14.707 3.90045 14.2124 3.90891 14.2021ZM10.309 20.2459C10.1334 20.1627 10.3297 20.2479 10.3304 20.1915C10.207 20.171 9.90225 20.1065 10.1021 20.2017C10.1409 20.22 10.2518 20.2331 10.309 20.2459ZM10.4767 20.2903C10.4992 20.2756 10.6397 20.237 10.5242 20.2257C10.4712 20.2205 10.3763 20.27 10.4767 20.2903ZM4.37155 15.5649C4.38669 15.7422 4.12941 15.0095 4.13882 14.9825C4.1394 14.9698 4.14105 14.9611 4.14311 14.9558C4.1192 14.934 4.07154 14.7919 4.10494 14.7653C4.11411 14.8076 4.15442 14.9228 4.15469 14.937C4.1548 14.9433 4.15454 14.9481 4.15382 14.9516C4.19784 14.992 4.36351 15.5339 4.37155 15.5649ZM4.90928 16.7188C4.74687 16.5938 4.83686 16.4997 4.84847 16.5125C4.99762 16.6646 4.85078 16.5955 4.85021 16.6031C4.85146 16.6196 4.96457 16.7227 4.90897 16.7183C4.90907 16.7185 4.90918 16.7187 4.90928 16.7188ZM4.45791 15.8132C4.45286 15.807 4.39057 15.657 4.39001 15.6497C4.37437 15.5121 4.55031 15.9344 4.45791 15.8132ZM16.2249 4.36815C16.3305 4.42175 16.2068 4.42235 16.1391 4.38011C16.1336 4.37648 16.131 4.32127 16.2249 4.36815ZM10.5697 20.2906C10.5943 20.31 11.2733 20.3967 11.235 20.3201C11.1769 20.3358 10.4127 20.2206 10.5697 20.2906ZM15.6948 19.4775C15.583 19.5288 15.6778 19.4141 15.7459 19.4078C15.7715 19.4055 15.723 19.4645 15.6948 19.4775ZM13.2694 3.74657C13.128 3.76859 13.1672 3.65272 13.2838 3.70507C13.2884 3.70713 13.2749 3.74573 13.2694 3.74657ZM14.7687 19.8099C15.156 19.6289 15.1367 19.8639 14.5799 19.9729C14.594 19.9589 14.608 19.945 14.6219 19.931C13.9932 20.0878 14.5776 19.934 14.7217 19.8713C14.777 19.8482 14.7187 19.8317 14.7683 19.8098C14.7684 19.8098 14.7686 19.8098 14.7687 19.8099ZM16.2666 19.1868C16.6916 19.1101 15.9714 19.4174 15.7729 19.5219C15.9432 19.3743 16.1937 19.2531 15.8271 19.3708C16.3156 19.1075 16.1353 19.2607 16.1583 19.2562C16.1841 19.2484 16.2486 19.1899 16.2666 19.1868ZM15.3024 19.655C15.2821 19.6684 15.1052 19.7068 15.0468 19.7333C15.1136 19.657 15.4366 19.5687 15.3024 19.655ZM5.73295 17.7587C5.69474 17.7741 5.648 17.7663 5.56982 17.6531C5.61211 17.6726 5.68215 17.7273 5.73295 17.7587ZM4.70995 7.57627C4.65956 7.65391 4.55604 7.81072 4.61967 7.78036C4.6252 7.77591 4.72892 7.58775 4.70995 7.57627ZM12.5913 20.3323C12.6141 20.3383 13.1549 20.2702 12.9622 20.2525C12.9044 20.2506 12.4134 20.3087 12.5913 20.3323ZM9.85976 20.1926C9.90264 20.2031 10.0787 20.2316 10.0841 20.2228C10.1018 20.1945 9.88536 20.1679 9.85976 20.1926ZM4.44752 7.96961C4.43731 7.97757 4.31849 8.24119 4.34995 8.22079C4.40661 8.18023 4.47842 7.93815 4.44752 7.96961ZM16.6551 4.44531C16.6784 4.45391 16.6907 4.5056 16.6981 4.50948C16.7174 4.5154 17.1248 4.69575 16.9481 4.66969C16.9229 4.66034 16.3438 4.38193 16.2627 4.35225C16.2534 4.28583 16.4917 4.43891 16.5551 4.46086C16.5664 4.46451 16.5925 4.42268 16.6549 4.44545C16.6549 4.4454 16.655 4.44535 16.6551 4.44531ZM5.2502 17.2327C5.20554 17.2418 4.88958 16.8238 4.93343 16.802C5.03485 16.9505 5.13916 17.0922 5.2502 17.2327ZM5.40601 17.4454C5.45506 17.5488 5.28571 17.3504 5.24985 17.2813C5.26893 17.2665 5.39804 17.4305 5.40601 17.4454ZM10.8258 20.4845C10.8792 20.4807 10.7225 20.4113 10.7599 20.4044C10.7835 20.4006 10.8993 20.4316 10.9383 20.4176C10.9492 20.4133 10.8337 20.3528 10.7997 20.3513C10.7506 20.3493 10.794 20.3937 10.7404 20.3884C10.5622 20.3702 10.4089 20.3199 10.2436 20.2924C10.2285 20.2899 10.3401 20.3375 10.2122 20.3152C10.1922 20.3116 10.0816 20.2502 9.92933 20.224C9.56527 20.2766 9.34996 20.09 8.92468 19.9928C8.93514 20.0111 9.23711 20.144 9.256 20.1492C9.60009 20.2814 10.247 20.4212 10.6286 20.4608C10.7264 20.4723 10.6819 20.4395 10.724 20.4431C10.7572 20.4458 10.7125 20.4927 10.8258 20.4845ZM4.71129 7.51951C4.64465 7.53096 4.59259 7.6828 4.5421 7.77037C4.59899 7.76094 4.65085 7.59651 4.71129 7.51951ZM7.09661 19.0567C7.13993 19.0841 7.265 19.1833 7.28443 19.1771C7.30886 19.1698 7.12453 19.0349 7.09661 19.0567ZM18.6676 5.80396C18.6721 5.80601 18.7502 5.89014 18.7519 5.89461C18.7935 5.9958 18.5605 5.74519 18.6676 5.80396ZM20.0618 8.17902C20.095 8.26381 20.1361 8.35029 20.1048 8.39164C20.0953 8.33186 20.0315 8.17703 20.0618 8.17902ZM20.3623 12.3897C20.4186 12.375 20.3508 12.6738 20.3381 12.7277C20.3178 12.7048 20.3228 12.4021 20.3623 12.3897ZM5.62078 17.887C5.50769 17.7558 5.47092 17.8366 5.42721 17.7289C5.42043 17.7107 5.51274 17.5586 5.58657 17.7415C5.60077 17.7746 5.48075 17.701 5.62078 17.887ZM14.4917 19.9982C14.4589 20.0456 14.3201 20.0752 14.2276 20.097C14.2413 20.0663 14.4277 20.0208 14.4917 19.9982ZM4.19162 8.42377C4.1113 8.47787 4.01559 8.83879 4.07943 8.76413C4.08634 8.75396 4.16811 8.47044 4.19162 8.42377ZM14.7693 3.87919C14.9363 3.87473 14.608 3.79095 14.4958 3.81033C14.5433 3.81621 14.7583 3.87902 14.7693 3.87919ZM20.4585 11.3368C20.4601 11.3451 20.4503 11.5202 20.4478 11.5276C20.4015 11.6691 20.4288 11.1747 20.4585 11.3368ZM19.7802 7.28442C19.8368 7.32005 19.9617 7.67205 19.9584 7.76297C19.89 7.70254 19.7168 7.23887 19.7802 7.28442ZM6.13672 18.3746C6.04509 18.2926 5.9684 18.2045 5.89887 18.1143C5.93411 18.1132 6.13946 18.3514 6.13672 18.3746ZM20.4299 11.9853C20.429 11.9947 20.4252 12.0036 20.4242 12.0125C20.4261 12.0033 20.4281 11.9942 20.4299 11.9853ZM8.44827 19.8745C8.54051 19.9246 8.53953 19.8694 8.53419 19.8656C8.46833 19.8213 8.34436 19.8171 8.44827 19.8745ZM4.58828 7.58023C4.53127 7.58694 4.47555 7.75674 4.42179 7.83678C4.46576 7.82898 4.55185 7.65049 4.58828 7.58023ZM16.6861 19.0426C16.8246 19.0149 16.4014 19.3462 16.2833 19.3697C16.2641 19.3495 16.6693 19.0499 16.6861 19.0426ZM14.2827 3.71588C14.2773 3.6783 14.0367 3.68296 14.0839 3.70768C14.1132 3.72278 14.2853 3.73852 14.2827 3.71588ZM16.0356 19.4783C15.9956 19.5113 15.8747 19.5319 15.9022 19.4944C15.9373 19.4466 16.0457 19.4697 16.0356 19.4783ZM11.5838 20.5502C11.606 20.5567 11.9106 20.5136 11.7836 20.4801C11.696 20.4568 11.6832 20.5081 11.6627 20.5086C11.6555 20.5086 11.6015 20.5029 11.5455 20.4975V20.4975C11.4352 20.4862 11.3133 20.4779 11.5455 20.5408C11.5573 20.5438 11.5701 20.5469 11.5838 20.5502ZM18.8209 17.0494C18.7687 17.1475 18.6784 17.243 18.6078 17.3352C18.6209 17.2845 18.7708 17.0719 18.8209 17.0494ZM15.1728 3.89342C15.1502 3.86717 14.3972 3.69679 14.8174 3.8319C14.8413 3.83767 15.2461 3.95557 15.1728 3.89342ZM5.62078 17.887C5.63512 17.9035 5.65081 17.9232 5.66801 17.9471C5.64938 17.9248 5.63417 17.9045 5.62078 17.887ZM7.10564 19.1687C7.05761 19.1683 7.22333 19.2851 7.28154 19.3042C7.3134 19.2875 7.11192 19.1695 7.10564 19.1687ZM18.631 17.3643C18.6018 17.4262 18.514 17.5101 18.4629 17.5734C18.4539 17.548 18.5944 17.3729 18.631 17.3643ZM20.4185 12.9617C20.3841 13.1021 20.3619 13.2729 20.3903 13.2805C20.3853 13.2826 20.3794 13.2885 20.3726 13.2987C20.366 13.3093 20.3534 13.4586 20.3312 13.5193C20.2161 13.8985 20.5279 12.0181 20.4485 13.1265C20.4388 13.0717 20.4288 13.0168 20.4185 12.9617ZM19.6056 6.81211C19.6008 6.73178 19.4554 6.5881 19.4713 6.63937C19.4846 6.67501 19.6107 6.89056 19.6056 6.81211ZM20.5057 9.50336C20.5095 9.4781 20.4541 9.27041 20.4341 9.26893C20.4338 9.38996 20.4898 9.61418 20.5057 9.50336ZM19.3387 6.33174C19.3169 6.29271 19.236 6.28177 19.2372 6.28755C19.2484 6.33661 19.3563 6.41057 19.3387 6.33174ZM5.75615 18.2565C5.79439 18.3198 5.98731 18.447 6.04954 18.4513C6.05128 18.463 6.06289 18.4869 6.0888 18.5259C6.0887 18.5258 6.0886 18.5257 6.08849 18.5256C6.09657 18.6096 7.57655 19.6968 6.62397 18.9172C6.59517 18.8919 6.61532 18.9518 6.49614 18.8506C6.48832 18.8439 6.50168 18.8188 6.47774 18.7979C6.42028 18.7513 6.13783 18.4857 6.06646 18.447C6.06948 18.4427 6.0691 18.4357 6.06427 18.4251C6.02149 18.3329 5.72657 18.2095 5.75615 18.2565ZM20.5556 9.91979C20.5624 9.87536 20.5394 9.74136 20.5132 9.7305C20.5088 9.79684 20.5401 10.0219 20.5556 9.91979ZM15.1743 3.78934C15.0916 3.74713 14.8625 3.73407 14.9247 3.76896C14.9624 3.78906 15.2689 3.83662 15.1743 3.78934ZM20.3313 8.59871C20.4106 9.08021 20.3598 8.7112 20.4117 8.77627C20.3854 8.71589 20.3586 8.65671 20.3313 8.59871ZM4.49116 16.3922C4.52085 16.4642 4.41407 16.4184 4.40835 16.3238C4.40678 16.2942 4.47455 16.3521 4.49116 16.3922ZM3.46189 12.9955C3.40497 13.0702 3.4112 12.7314 3.46631 12.8581C3.4681 12.8638 3.46354 12.9897 3.46189 12.9955ZM4.00473 15.446C4.06442 15.4805 4.08094 15.5113 4.1279 15.653C4.03332 15.4529 4.07424 15.6582 4.00473 15.446ZM20.3952 13.2798C20.3933 13.2804 20.3919 13.2809 20.3903 13.2805C20.3921 13.2798 20.3936 13.2796 20.3952 13.2798ZM19.0617 6.00072C19.0534 5.93387 18.9406 5.81367 18.9463 5.87474C18.9472 5.88018 19.0269 6.00091 19.0617 6.00072ZM6.04954 18.4513C6.04801 18.441 6.05393 18.4407 6.06646 18.447C6.06361 18.451 6.05793 18.4521 6.04954 18.4513ZM19.5975 6.68202C19.5721 6.6907 19.6882 6.90701 19.695 6.91531C19.8062 7.01743 19.6533 6.76498 19.5975 6.68202ZM13.3753 3.44099C13.3608 3.44233 13.4449 3.52186 13.5048 3.50097C13.5513 3.48469 13.4295 3.43558 13.3753 3.44099ZM3.81863 14.9671C3.79252 14.8853 3.7596 14.7739 3.78564 14.7433C3.79582 14.7985 3.84205 14.9609 3.81863 14.9671ZM3.43045 13.1328C3.48065 13.231 3.50987 13.4544 3.52789 13.6035C3.47554 13.6135 3.4513 13.2273 3.43045 13.1328ZM5.6142 18.0814C5.61678 18.0882 5.74952 18.2481 5.75489 18.2034C5.7616 18.1388 5.58821 18.0264 5.6142 18.0814ZM13.7992 3.52894C13.8994 3.51837 13.6876 3.41562 13.5721 3.45957C13.5155 3.48173 13.7832 3.53017 13.7992 3.52894ZM18.7505 5.59948C18.6537 5.53284 18.833 5.75848 18.885 5.76324C18.8505 5.72242 18.786 5.62379 18.7505 5.59948ZM20.5465 9.14025C20.5804 8.74084 20.4307 8.98435 20.4596 9.04661C20.4638 9.05517 20.5457 9.14973 20.5465 9.14025ZM3.68263 9.2459C3.68148 9.30205 3.78828 9.12178 3.76331 9.08759C3.74718 9.06544 3.683 9.20913 3.68263 9.2459ZM19.931 15.1638C19.9363 15.1483 19.9416 15.1328 19.9468 15.1175C19.9443 15.1295 19.9394 15.1447 19.931 15.1638ZM18.0025 4.81068C18.1384 5.0842 18.1779 4.97739 18.1975 4.99149C18.2373 5.02281 18.3043 5.12389 18.3809 5.17756C18.287 5.12312 18.1933 5.07228 18.0963 5.02232C18.1683 5.07397 18.6818 5.58037 18.7013 5.58014C18.7411 5.56989 18.5675 5.42308 18.564 5.41739C18.5599 5.40796 18.5959 5.3134 18.582 5.29658C18.5645 5.26385 18.0783 4.8809 18.0025 4.81068ZM20.3563 8.35297C20.3623 8.41764 20.3297 8.4416 20.3456 8.46693C20.3509 8.47543 20.386 8.46788 20.4031 8.4976C20.3879 8.44897 20.3731 8.40356 20.3563 8.35297ZM17.5252 4.66626C17.4823 4.58927 17.7657 4.77856 17.7709 4.79017C17.8038 4.84549 17.5612 4.72683 17.5252 4.66626ZM19.5579 6.56069C19.5544 6.54806 19.423 6.33249 19.4037 6.34944C19.4288 6.41138 19.6088 6.69718 19.5579 6.56069ZM20.4154 8.53668C20.434 8.62662 20.4369 8.8083 20.4851 8.77722C20.485 8.77708 20.485 8.77694 20.485 8.77681C20.4628 8.69514 20.4396 8.61511 20.4154 8.53668ZM14.1521 3.46559C13.9845 3.35287 14.0536 3.47254 14.2091 3.52575C14.264 3.49575 14.1796 3.48402 14.1521 3.46559ZM13.5715 3.32135C13.5221 3.29754 12.9842 3.26427 13.063 3.31792C13.0886 3.33547 13.404 3.32444 13.4152 3.32955C13.4359 3.3365 13.3337 3.37583 13.4967 3.3836C13.4889 3.36555 13.5886 3.32848 13.5715 3.32135ZM14.0093 3.38813C13.8336 3.29674 13.7772 3.41129 13.9144 3.43042C13.9681 3.43819 14.0343 3.40137 14.0093 3.38813ZM14.7459 3.52846C14.683 3.50356 14.5154 3.45366 14.3883 3.47209C14.5473 3.50372 14.7045 3.53806 14.8619 3.57572C14.8848 3.55749 14.801 3.54999 14.7455 3.52837C14.7457 3.5284 14.7458 3.52843 14.7459 3.52846ZM3.05293 12.0645C3.02131 12.213 3.00274 11.872 3.01221 11.8564C3.03988 11.8134 3.0666 11.9987 3.05293 12.0645ZM2.37409 10.1336C2.35419 10.1742 2.30546 10.1957 2.31551 10.2945C2.36138 10.2029 2.40832 10.1133 2.45628 10.0256C2.39362 9.94076 2.39581 10.089 2.37409 10.1336ZM2.04996 10.467C2.05001 10.4526 1.92447 10.5164 2.02429 10.3436C2.08849 10.2334 2.0662 10.8842 2.01158 11.0034C1.99597 10.8679 2.05031 10.5843 2.04996 10.467ZM1.46963 11.6072C1.45964 11.6147 1.45311 11.3529 1.46155 11.3237C1.50212 11.1682 1.5186 11.564 1.46963 11.6072ZM1.53447 10.7769C1.50153 10.8975 1.50996 10.6246 1.53212 10.5467C1.55406 10.541 1.53887 10.7579 1.53447 10.7769ZM1.50449 13.7836C1.44647 13.93 1.63399 14.0212 1.5679 13.8226C1.5648 13.8132 1.50747 13.7774 1.50449 13.7836ZM1.35945 11.3478C1.38677 11.2263 1.39074 11.4976 1.37688 11.5796C1.35468 11.5866 1.35496 11.366 1.35945 11.3478ZM1.33265 13.9069C1.30522 14.0957 1.48383 14.0006 1.48768 13.9776C1.50146 13.8812 1.38297 13.5816 1.35741 13.5196C1.44809 13.9799 1.34751 13.8195 1.33265 13.9069ZM1.6021 14.7011C1.6587 14.8581 1.603 14.4369 1.53671 14.3656C1.55498 14.4474 1.58538 14.6565 1.6021 14.7011ZM1.81343 15.6954C1.83422 15.7844 1.90752 16.0428 1.95195 16.0742C1.91212 15.9844 1.85407 15.7227 1.81343 15.6954ZM1.7936 15.919C1.80211 16.0667 1.92557 16.0582 1.838 15.9166C1.83462 15.9111 1.79404 15.9134 1.7936 15.919ZM2.04466 16.6831C2.03916 16.7895 2.18837 16.8405 2.12945 16.6999C2.11197 16.6581 2.04567 16.6717 2.04466 16.6831ZM1.16735 14.1662C1.17087 14.3024 1.28363 14.4552 1.24113 14.174C1.27114 14.2708 1.30169 14.3641 1.33429 14.4613C1.30799 14.0879 1.20406 14.1345 1.19 14.0271C1.17242 13.8767 1.2683 13.8742 1.30208 13.8994C1.22366 13.7869 1.15489 13.2709 1.12277 12.9752C1.11806 13.2357 1.12686 13.6713 1.15391 13.9333C1.16121 14.0088 1.19878 14.0766 1.20688 14.14C1.21994 14.2416 1.1674 14.1586 1.16726 14.1656C1.16729 14.1658 1.16732 14.166 1.16735 14.1662ZM2.51335 17.636C2.60504 17.9056 2.61643 17.6939 2.52326 17.5683C2.51862 17.5633 2.51109 17.6293 2.51335 17.636ZM0.999009 11.6986C1.05724 11.3289 1.10067 11.6065 1.05201 10.8326C1.09747 11.1627 1.09989 10.854 1.12315 10.9195C1.14113 10.9715 1.11173 11.1616 1.16255 11.0532C1.10165 11.1899 1.10065 11.8126 1.09612 11.8434C1.09612 11.8432 1.09612 11.8429 1.09612 11.8426C1.09157 11.8597 0.982455 11.817 0.999009 11.6986ZM1.52601 15.7906C1.42214 15.924 1.64428 15.888 1.59533 16.0984C1.83297 16.2738 1.37651 15.4564 1.49385 15.3095C1.75511 16.2571 1.45168 14.6456 1.43435 15.3647C1.35925 14.7927 1.35957 15.1903 1.31 15.1118C1.2564 15.0258 1.21446 14.7068 1.16756 14.7332C1.1676 14.7334 1.16764 14.7335 1.16768 14.7337C1.21446 14.9264 1.26577 15.1173 1.32277 15.3096C1.38022 15.0927 1.45391 15.4906 1.40847 15.648C1.44739 15.6962 1.48658 15.7437 1.52601 15.7906ZM1.33437 14.687C1.33437 14.7077 1.44982 15.1144 1.4668 15.0833C1.46231 15.024 1.31352 14.4436 1.33437 14.687ZM1.04364 12.8464C1.05363 12.9976 1.05349 13.2304 1.10528 13.3105C1.08851 13.1556 1.09168 12.9268 1.04364 12.8464ZM4.16257 19.963C4.32658 20.0787 3.90575 19.6381 3.99967 19.7923C4.0035 19.7999 4.15419 19.9578 4.16257 19.963ZM1.69379 16.2075C1.72519 16.4122 1.8184 16.2742 1.73334 16.1468C1.72837 16.1394 1.69232 16.198 1.69379 16.2075ZM0.988933 11.4001C0.953425 11.3865 1.00486 10.8561 1.01577 10.7594C1.03836 10.8182 1.02375 11.417 0.988933 11.4001ZM0.902114 12.5853C0.796226 12.9012 0.975402 13.298 0.978354 13.345C0.980199 13.3905 0.920165 13.3253 0.919889 13.3357C0.917463 13.3612 0.982722 13.8371 0.992042 13.8598C0.997343 13.876 1.05753 13.7781 1.09538 13.874C1.01671 13.6912 0.957255 12.8145 0.952806 12.7706C0.944392 12.7354 0.882493 13.0075 0.902141 12.5859C0.902132 12.5857 0.902123 12.5855 0.902114 12.5853ZM0.975125 13.4601C0.991716 13.3372 1.03531 13.6712 1.03638 13.7519C1.03568 13.9337 0.971461 13.4771 0.975125 13.4601ZM1.06721 14.2689C1.0658 14.3072 1.12897 14.6539 1.17037 14.6757C1.17692 14.5025 1.06728 14.1806 1.06721 14.2689ZM2.41821 17.9453C2.46826 18.0236 2.57918 18.2531 2.61321 18.2492C2.55913 18.1739 2.45114 17.9431 2.41821 17.9453ZM0.923672 9.53832C0.870216 9.68825 0.926307 9.32801 0.96153 9.22906C0.981565 9.22722 0.927347 9.52493 0.923672 9.53832ZM1.43579 16.3408C1.43479 16.4032 1.90785 17.4298 2.0097 17.5603C1.94202 17.4146 1.49749 16.3938 1.48084 16.3434C1.47248 16.3307 1.43465 16.3337 1.43579 16.3408ZM0.810229 13.9984C0.750318 13.9033 0.793614 13.8286 0.79253 13.8165C0.780888 13.6927 0.740069 13.4347 0.78943 13.4865C0.795319 13.7078 0.929193 14.1857 0.810229 13.9984ZM2.28626 18.1168C2.49898 18.4392 2.15953 17.7788 2.17048 17.884C2.17075 17.8912 2.26377 18.0837 2.28626 18.1168ZM1.37985 16.2264C1.30503 16.1653 1.00611 15.0685 0.980664 14.8942C1.08164 15.0344 1.0639 15.1729 1.12533 15.3824C1.14206 15.4386 1.16438 15.416 1.16612 15.422C1.19507 15.5189 1.14368 15.4549 1.16053 15.515C1.16359 15.5527 1.46341 16.3242 1.37985 16.2264ZM0.770804 13.9449C0.731352 13.8868 0.637539 13.1971 0.645946 13.1676C0.672114 12.9542 0.762901 13.8908 0.770804 13.9449ZM1.36057 16.3446C1.24249 16.2572 1.11251 15.7041 1.27191 16.0583C1.28707 16.0923 1.3065 16.2487 1.36057 16.3446ZM2.20209 18.1186C2.20841 18.1374 2.40908 18.4899 2.43571 18.4826C2.40706 18.4285 2.11205 17.9195 2.20209 18.1186ZM2.02417 17.9765C2.02965 17.9846 2.02279 17.8783 2.11313 18.0478C2.12095 18.0615 2.08859 18.1158 2.23058 18.3113C2.25952 18.3509 2.32928 18.3959 2.32823 18.3901C2.26192 18.1414 1.76106 17.5578 2.02417 17.9765ZM0.726377 13.9386C0.710106 13.9803 0.629987 13.8968 0.652144 13.8125C0.661842 13.7766 0.709605 13.833 0.726377 13.9386ZM2.90749 19.1994C2.72857 19.0366 3.18484 19.6296 3.22228 19.6476C3.22377 19.6152 2.92207 19.2167 2.90749 19.1994ZM0.691999 9.11478C0.691959 9.11496 0.691919 9.11514 0.691879 9.11532C0.744203 8.92283 0.750023 9.05084 0.753029 9.04182C0.89676 8.64543 0.801775 8.73072 0.808512 8.66457C0.827293 8.5197 0.908954 8.56589 0.939646 8.32447C0.883677 8.72267 0.960689 8.36731 0.995703 8.36646C1.13535 8.35746 0.790317 8.86453 0.779495 9.06094C0.777033 9.08809 0.864171 8.90202 0.860197 8.97271C0.844854 9.19604 0.505211 9.86452 0.691999 9.11478ZM0.637705 13.7511C0.582054 13.6693 0.550902 12.9809 0.601808 13.1596C0.605146 13.1879 0.709685 13.8753 0.637705 13.7511ZM23.3022 13.8378C23.3078 14.0036 23.412 13.6396 23.3956 13.5646C23.3881 13.5284 23.3002 13.7659 23.3022 13.8378ZM23.6891 11.2439C23.6858 11.0525 23.544 10.8494 23.5644 11.0875C23.5667 11.1127 23.6691 11.2652 23.6891 11.2439ZM17.6028 22.1545C17.8124 22.0994 17.7556 22.0222 17.6211 22.0968C17.5735 22.1228 17.5962 22.1561 17.6028 22.1545ZM22.7544 16.1513C22.7649 16.1336 22.8381 15.9064 22.8143 15.9074C22.7743 15.9874 22.6878 16.2682 22.7544 16.1513ZM17.5497 22.1977C17.6524 22.1241 17.4311 22.165 17.3249 22.2918C17.3917 22.2528 17.5391 22.2055 17.5497 22.1977ZM1.32504 16.8229C1.39917 16.9025 1.5091 17.1823 1.58871 17.3312C1.5501 17.3714 1.37661 16.9307 1.32504 16.8229ZM23.5997 12.0493C23.5757 11.8662 23.5223 12.2516 23.5707 12.219C23.5738 12.2144 23.6009 12.0568 23.5997 12.0493ZM11.1411 23.6304C11.2823 23.6066 10.8396 23.5462 10.9592 23.6044C10.9649 23.6071 11.1331 23.6321 11.1411 23.6304ZM9.21987 23.3691C9.32074 23.4039 9.76567 23.4821 9.59786 23.4217C9.57117 23.4137 9.23355 23.3453 9.21987 23.3691ZM0.776614 8.64378C0.711369 8.68602 0.810939 8.36679 0.834085 8.32497C0.842278 8.30839 0.859642 8.58818 0.776614 8.64378ZM18.7786 21.4432C18.8652 21.3759 19.1035 21.2148 19.1259 21.1625C19.024 21.2497 18.7181 21.4209 18.7786 21.4432ZM23.529 12.8738C23.6029 12.721 23.6216 12.4469 23.5426 12.5084C23.5193 12.807 23.6136 12.4775 23.529 12.8738ZM16.9439 22.5598C17.0257 22.5276 17.057 22.4353 17.0465 22.4365C16.9478 22.4479 16.8535 22.5704 16.9439 22.5598ZM21.818 18.1914C21.8474 18.2024 21.9783 17.9506 21.9419 17.974C21.9312 17.9809 21.7956 18.1825 21.818 18.1914ZM3.27249 19.9523C3.33902 20.0682 3.05319 19.7882 3.00401 19.6759C3.00197 19.6039 3.26159 19.9385 3.27249 19.9523ZM14.6623 23.3133C14.66 23.3613 15.0739 23.2305 14.8993 23.2368C14.8557 23.2389 14.6633 23.2981 14.6623 23.3133ZM10.5377 23.6822C10.837 23.6663 9.60404 23.477 9.91979 23.5824C9.9406 23.594 10.5113 23.688 10.5377 23.6822ZM8.53807 23.2771C8.58616 23.2962 8.52045 23.4352 8.3315 23.3191C8.30688 23.3041 8.4435 23.3031 8.42406 23.2879C8.41215 23.2814 7.97702 23.1226 7.95718 23.1171C7.93428 23.1136 7.94434 23.1677 7.9206 23.1653C7.89354 23.1632 7.63852 23.0287 7.50015 22.9736C7.23948 22.871 7.19665 22.8933 7.1751 22.885C7.11274 22.8591 7.01976 22.7886 6.89606 22.7326C6.26696 22.4606 5.33837 21.9432 4.95261 21.5456C5.32471 21.8574 5.73777 22.0754 6.16275 22.2955C5.99803 22.3055 6.81848 22.5653 6.33408 22.4234C6.52951 22.5524 8.36831 23.2548 8.53752 23.2769C8.5377 23.277 8.53789 23.277 8.53807 23.2771ZM23.729 10.4711C23.7853 10.5883 23.7505 9.97657 23.6841 9.92318C23.6837 10.0108 23.7243 10.4533 23.729 10.4711ZM23.703 13.2911C23.7038 13.3471 23.7974 13.4173 23.6992 13.7118C23.6992 13.712 23.6992 13.7123 23.6991 13.7126C23.6702 13.798 23.6625 13.6941 23.6513 13.7088C23.6471 13.7146 23.5521 13.9773 23.5822 13.7508C23.6255 13.4035 23.6614 13.7305 23.6912 13.5452C23.6961 13.5201 23.6901 13.1676 23.6749 13.1868C23.6733 13.1887 23.6711 13.2932 23.6638 13.3095C23.6366 13.3709 23.6099 13.3354 23.6072 13.3442C23.6018 13.3732 23.5665 13.935 23.504 14.0031C23.4901 14.0294 23.5963 13.1209 23.6012 13.0923C23.6088 13.071 23.6937 13.0908 23.7049 13.069C23.7114 13.0582 23.7192 12.6915 23.7306 12.6439C23.7343 12.6303 23.7377 12.6199 23.7405 12.6124C23.7094 12.6622 23.7395 12.3416 23.7682 12.3534C23.7799 12.3604 23.7542 12.5806 23.751 12.5891C23.7498 12.5927 23.7483 12.5957 23.7472 12.5985C23.7877 12.5567 23.699 13.3228 23.7655 13.1631C23.7634 13.3866 23.6991 13.123 23.703 13.2911ZM23.5728 14.3713C23.5687 14.3462 23.5645 14.3211 23.5603 14.296C23.5029 14.693 23.3505 15.1337 23.2172 15.5734C23.1831 15.6849 23.2764 15.5716 23.2153 15.7169C23.1659 15.8338 23.0729 15.9479 23.0834 15.88C23.0858 15.8652 23.1976 15.6279 23.2282 15.5105C23.3215 15.1538 23.2477 15.2294 23.2528 15.2086C23.2579 15.1863 23.3514 14.9661 23.3792 14.8437C23.448 14.5394 23.4539 14.3841 23.5692 13.9723C23.5552 14.2195 23.6487 14.0985 23.5728 14.3713ZM12.8849 23.7452C12.8724 23.7772 12.6099 23.7739 12.5159 23.7842C12.5291 23.7536 12.79 23.7597 12.8849 23.7452ZM8.9289 0.541126C8.86484 0.606968 9.45427 0.470305 9.28996 0.469586C9.25445 0.468136 9.00476 0.520081 8.9289 0.541126ZM11.7424 0.180779C11.8054 0.170084 11.6101 0.143091 11.5455 0.154814V0.154814C11.525 0.157438 11.5122 0.162078 11.5124 0.169167C11.5125 0.171837 11.5254 0.173861 11.5455 0.175511C11.5985 0.181344 11.7337 0.182027 11.7424 0.180779ZM21.4382 19.1735C21.4309 19.187 21.2822 19.3658 21.2751 19.3699C21.1434 19.4606 21.6197 18.87 21.4382 19.1735ZM14.8962 0.389325C14.6191 0.371909 15.4324 0.535617 15.191 0.448884C15.1787 0.44387 14.9109 0.389727 14.8962 0.389325ZM16.036 0.623291C15.9716 0.607771 15.6829 0.522784 15.6765 0.537461C15.6647 0.558795 15.9942 0.654538 16.036 0.623291ZM16.9657 22.7544C17.0189 22.7929 16.6311 22.915 16.5022 22.9714C16.4512 22.9329 16.8405 22.82 16.9657 22.7544ZM19.2131 21.4907C17.7978 22.5047 18.0656 22.2077 19.2793 21.4069C19.3025 21.434 19.2992 21.4228 19.2131 21.4907ZM17.3167 22.6298C17.3573 22.5709 17.536 22.4944 17.6545 22.4353C17.6451 22.4689 17.3994 22.5838 17.3167 22.6298ZM8.21262 0.677575C8.29587 0.599956 8.76515 0.51671 8.68933 0.559434C8.67129 0.566335 8.18252 0.71156 8.21262 0.677575ZM21.3895 19.3184C21.4592 19.3202 21.1147 19.722 21.0781 19.742C20.9392 19.8366 21.3758 19.3642 21.3895 19.3184ZM14.7043 23.5621C14.6283 23.624 14.373 23.6583 14.214 23.6882C14.2792 23.6393 14.5702 23.5938 14.7043 23.5621ZM15.8514 23.2722C15.8421 23.2775 15.6232 23.3439 15.6122 23.3447C15.4214 23.3625 16.0406 23.174 15.8514 23.2722ZM0.236179 9.30985C0.236048 9.30167 0.274001 9.12776 0.277114 9.12226C0.348392 8.97537 0.235049 9.4961 0.236179 9.30985Z"
        fill="current" />
</svg>
    